# Created by Open3D 
# object name: InfoWheels Cab Fog Light Lense
# number of vertices: 166
# number of triangles: 150
v 8.13338 -169.548 -40.9063
vn -0.257604 0.943091 -0.210285
v 7.45405 -169.53 -40.3748
vn -0.104694 0.938528 -0.328944
v 6.59237 -169.498 -40.254
vn 0.0858801 0.930856 -0.35515
v 5.78147 -169.46 -40.5788
vn 0.263396 0.922216 -0.283091
v 5.28523 -169.447 -41.1936
vn 0.344583 0.928348 -0.139401
v 5.11871 -169.415 -41.6935
vn 0.404933 0.913624 -0.0363244
v 5.17063 -169.403 -42.3383
vn 0.397425 0.910979 0.110319
v 5.43217 -169.407 -42.9144
vn 0.328585 0.913754 0.238924
v 6.11383 -169.425 -43.4465
vn 0.176969 0.917167 0.357053
v 6.97241 -169.457 -43.5661
vn -0.0120694 0.923314 0.383856
v 7.77631 -169.504 -43.2437
vn -0.171174 0.942612 0.286673
v 8.21803 -169.517 -42.7369
vn -0.286419 0.935623 0.206336
v 8.44266 -169.55 -42.1335
vn -0.300874 0.951703 0.0611302
v 8.39448 -169.545 -41.4816
vn -0.326191 0.941993 -0.079044
v 6.68733 -169.8 -41.4292
vn 0.0629568 0.992899 -0.100936
v 6.47206 -169.81 -42.1332
vn 0.0945798 0.994075 0.0535774
v 7.53617 -169.799 -41.5267
vn -0.13217 0.988292 -0.0762215
v 7.51555 -169.796 -42.1831
vn -0.143944 0.985928 0.0850017
v 6.64164 -169.691 -40.8365
vn 0.0788404 0.962815 -0.258402
v 7.06814 -169.708 -40.8557
vn -0.0281624 0.966733 -0.254234
v 7.44494 -169.72 -41.0517
vn -0.124498 0.970733 -0.20537
v 7.07208 -169.73 -42.8151
vn -0.0371872 0.97149 0.234145
v 6.18058 -169.711 -42.6188
vn 0.178126 0.964661 0.194164
v 6.29604 -169.602 -43.0373
vn 0.150826 0.940573 0.30426
v 5.69462 -169.634 -42.0512
vn 0.30808 0.949838 0.0538097
v 6.04734 -169.713 -41.2819
vn 0.212755 0.967439 -0.137101
v 7.81678 -169.607 -40.5883
vn 0.188799 -0.94128 0.279906
v 7.01659 -169.58 -40.2563
vn 0.0111417 -0.934872 0.354811
v 6.15303 -169.544 -40.3677
vn -0.17949 -0.926342 0.33117
v 5.46116 -169.519 -40.8913
vn -0.309245 -0.930881 0.194493
v 5.17549 -169.484 -41.4824
vn -0.398669 -0.913138 0.0851064
v 5.11102 -169.474 -42.1162
vn -0.402408 -0.913409 -0.061248
v 5.32998 -169.469 -42.7375
vn -0.358076 -0.91188 -0.200641
v 5.74518 -169.48 -43.2335
vn -0.260869 -0.914774 -0.30844
v 6.54269 -169.506 -43.5637
vn -0.0838474 -0.919802 -0.38332
v 7.40318 -169.552 -43.4516
vn 0.094856 -0.93863 -0.331626
v 7.94696 -169.567 -43.0789
vn 0.226838 -0.931812 -0.283322
v 8.3207 -169.594 -42.5611
vn 0.303779 -0.939181 -0.160182
v 8.44871 -169.613 -41.7041
vn 0.329145 -0.943808 0.0298443
v 8.16088 -169.631 -40.9694
vn 0.246703 -0.953295 0.174261
v 6.72616 -169.868 -41.4124
vn -0.0582892 -0.992983 0.102896
v 7.13429 -169.904 -42.07
vn 0.0559217 -0.994584 -0.087606
v 6.27074 -169.826 -42.4034
vn -0.153723 -0.982231 -0.107663
v 6.26025 -169.842 -41.8438
vn -0.162213 -0.986755 -0.00103377
v 6.78145 -169.764 -40.8177
vn -0.0435724 -0.963787 0.263088
v 6.22877 -169.789 -41.1154
vn -0.171779 -0.969778 0.173268
v 7.2632 -169.834 -41.0921
vn 0.0831987 -0.980059 0.180452
v 7.83423 -169.792 -41.6276
vn 0.227493 -0.972051 0.0579949
v 7.84938 -169.786 -42.0507
vn 0.233645 -0.97103 -0.0500977
v 7.60451 -169.767 -42.5865
vn 0.174922 -0.966811 -0.186223
v 6.57681 -169.75 -42.938
vn -0.0774876 -0.95656 -0.28105
v 5.84248 -169.678 -42.6028
vn -0.26719 -0.943824 -0.194437
v 5.55346 -169.655 -42.0695
vn -0.344508 -0.936973 -0.0582734
v 5.70507 -169.707 -41.6894
vn -0.306771 -0.951011 0.0383354
v 7.96878 -169.574 -40.7405
vn 0.705791 -0.0279914 0.707867
v 7.62667 -169.568 -40.4769
vn 0.489185 -0.0193356 0.871966
v 7.22604 -169.555 -40.3127
vn 0.236573 -0.0093798 0.971569
v 6.79563 -169.539 -40.2554
vn -0.0108949 0.000425235 0.999941
v 6.36421 -169.52 -40.3129
vn -0.281541 0.0113916 0.959482
v 5.9607 -169.502 -40.4773
vn -0.518099 0.0205035 0.855075
v 5.61408 -169.484 -40.741
vn -0.719548 0.0282886 0.693866
v 5.34564 -169.467 -41.0831
vn -0.87349 0.0338375 0.485664
v 5.17669 -169.454 -41.4824
vn -0.969271 0.0380994 0.243028
v 5.11523 -169.444 -41.9104
vn -0.999084 0.038716 -0.0182204
v 5.16921 -169.439 -42.3383
vn -0.960066 0.0375024 -0.277247
v 5.33118 -169.439 -42.7375
vn -0.853162 0.0335963 -0.520562
v 5.59364 -169.444 -43.0794
vn -0.699613 0.0275245 -0.713991
v 5.93565 -169.453 -43.343
vn -0.489179 0.0193881 -0.871968
v 6.33626 -169.466 -43.5072
vn -0.247143 0.00979107 -0.968929
v 6.76665 -169.482 -43.5645
vn 0.0109759 -0.000435427 -0.99994
v 7.19807 -169.5 -43.507
vn 0.276773 -0.0109376 -0.960873
v 7.60154 -169.519 -43.3426
vn 0.50413 -0.0199869 -0.863397
v 7.94816 -169.537 -43.0789
vn 0.719498 -0.0283079 -0.693917
v 8.21661 -169.553 -42.7369
vn 0.875065 -0.0342658 -0.482791
v 8.38556 -169.567 -42.3375
vn 0.969933 -0.0380676 -0.240375
v 8.44704 -169.576 -41.9096
vn 0.998993 -0.0392447 0.021729
v 8.39317 -169.578 -41.4816
vn 0.964258 -0.0379255 0.262237
v 8.23122 -169.579 -41.0824
vn 0.872964 -0.034653 0.486552
v 8.22991 -169.612 -41.0824
vn 0.792639 -0.0310412 0.608901
v 7.62808 -169.532 -40.4769
vn 0.609891 -0.0243988 0.792109
v 7.22746 -169.519 -40.3127
vn 0.378793 -0.0147925 0.925363
v 6.79704 -169.503 -40.2554
vn 0.131764 -0.00515133 0.991268
v 6.36562 -169.485 -40.3129
vn -0.131897 0.00515651 0.99125
v 5.93707 -169.417 -43.343
vn -0.609899 0.0232624 -0.792138
v 6.33768 -169.43 -43.5072
vn -0.378801 0.0148298 -0.925359
v 6.76807 -169.446 -43.5645
vn -0.131782 0.00515201 -0.991265
v 7.19948 -169.464 -43.507
vn 0.1319 -0.00515663 -0.99125
v 7.60296 -169.483 -43.3426
vn 0.376711 -0.0143846 -0.926219
v 7.94958 -169.501 -43.0789
vn 0.604531 -0.0236341 -0.796231
v 65.6218 -169.548 -40.9064
vn 0.257586 0.943097 -0.210278
v 66.3012 -169.53 -40.3748
vn 0.1047 0.938526 -0.328947
v 67.1628 -169.498 -40.254
vn -0.0858847 0.930849 -0.355168
v 67.9739 -169.46 -40.5789
vn -0.263386 0.922221 -0.283084
v 68.4701 -169.447 -41.1936
vn -0.344557 0.928358 -0.139399
v 68.6366 -169.415 -41.6933
vn -0.404946 0.913619 -0.0363307
v 68.5846 -169.403 -42.3383
vn -0.397496 0.910945 0.110347
v 68.3232 -169.407 -42.9143
vn -0.328581 0.913755 0.238929
v 67.6423 -169.435 -43.4443
vn -0.163977 0.929341 0.330812
v 66.7829 -169.457 -43.5661
vn 0.0120706 0.923313 0.383859
v 65.979 -169.504 -43.2437
vn 0.171176 0.942613 0.28667
v 65.5372 -169.517 -42.7369
vn 0.286394 0.935633 0.206324
v 65.3126 -169.55 -42.1333
vn 0.300884 0.951699 0.0611402
v 65.3608 -169.545 -41.4816
vn 0.326203 0.941987 -0.0790728
v 67.0679 -169.8 -41.4292
vn -0.0629566 0.992899 -0.100938
v 67.2832 -169.81 -42.1332
vn -0.0945795 0.994075 0.053577
v 66.2192 -169.799 -41.5266
vn 0.132168 0.988292 -0.0762264
v 66.2397 -169.796 -42.1829
vn 0.14394 0.985929 0.085006
v 67.1136 -169.691 -40.8365
vn -0.0788413 0.962815 -0.258401
v 66.6871 -169.708 -40.8557
vn 0.0281609 0.966733 -0.254235
v 66.3103 -169.72 -41.0517
vn 0.124507 0.970733 -0.205368
v 66.6832 -169.73 -42.8151
vn 0.0371881 0.971491 0.234143
v 67.5746 -169.711 -42.6188
vn -0.178126 0.964661 0.194168
v 68.0607 -169.634 -42.0512
vn -0.308061 0.949844 0.0538022
v 67.7079 -169.713 -41.2819
vn -0.212755 0.96744 -0.137096
v 65.9385 -169.607 -40.5883
vn -0.188797 -0.941279 0.279911
v 66.7386 -169.58 -40.2563
vn -0.0111425 -0.934872 0.354811
v 67.6023 -169.544 -40.3677
vn 0.179476 -0.926358 0.331134
v 68.2941 -169.519 -40.8913
vn 0.309238 -0.930886 0.194483
v 68.5798 -169.484 -41.4824
vn 0.39863 -0.913154 0.0851073
v 68.6442 -169.474 -42.1165
vn 0.402422 -0.913404 -0.0612371
v 68.4253 -169.469 -42.7375
vn 0.358038 -0.911894 -0.200646
v 68.01 -169.48 -43.2335
vn 0.260869 -0.914773 -0.308444
v 67.2126 -169.506 -43.5637
vn 0.0838447 -0.919805 -0.383313
v 66.352 -169.552 -43.4515
vn -0.0948583 -0.938629 -0.331627
v 65.8083 -169.567 -43.0789
vn -0.226862 -0.931803 -0.283333
v 65.4345 -169.594 -42.561
vn -0.303803 -0.939171 -0.160193
v 65.3065 -169.613 -41.7041
vn -0.329126 -0.943814 0.0298383
v 65.5943 -169.631 -40.9694
vn -0.24668 -0.953304 0.174243
v 67.0291 -169.868 -41.4124
vn 0.0582864 -0.992983 0.102897
v 66.621 -169.904 -42.07
vn -0.0559215 -0.994584 -0.0876059
v 67.4846 -169.826 -42.4033
vn 0.153724 -0.98223 -0.10767
v 67.495 -169.842 -41.8438
vn 0.162215 -0.986755 -0.00101461
v 67.5264 -169.789 -41.1155
vn 0.171785 -0.969777 0.17327
v 66.9738 -169.764 -40.8177
vn 0.0435754 -0.963787 0.263088
v 66.4921 -169.834 -41.0921
vn -0.0832009 -0.980058 0.180452
v 65.9211 -169.792 -41.6276
vn -0.227494 -0.972051 0.0579985
v 65.9059 -169.786 -42.0507
vn -0.23365 -0.971029 -0.0500952
v 66.1507 -169.767 -42.5865
vn -0.174918 -0.966813 -0.186218
v 67.1784 -169.75 -42.938
vn 0.0774891 -0.956559 -0.281054
v 67.9128 -169.678 -42.6028
vn 0.267194 -0.943823 -0.194434
v 68.2018 -169.655 -42.0695
vn 0.344474 -0.936985 -0.0582856
v 68.0502 -169.707 -41.6894
vn 0.306771 -0.95101 0.0383606
v 65.7865 -169.574 -40.7405
vn -0.683116 -0.0262507 0.729838
v 66.1285 -169.565 -40.4769
vn -0.498943 -0.0195352 0.866415
v 66.5291 -169.552 -40.3127
vn -0.257536 -0.0100739 0.966216
v 66.9595 -169.536 -40.2554
vn -0.00019003 6.51874e-05 1
v 67.391 -169.518 -40.3129
vn 0.255341 0.0107288 0.966792
v 67.7944 -169.499 -40.4773
vn 0.49499 0.0207708 0.86865
v 68.1411 -169.481 -40.741
vn 0.700872 0.0277568 0.712747
v 68.4095 -169.465 -41.0831
vn 0.85973 0.0330791 0.509676
v 68.5785 -169.451 -41.4824
vn 0.962423 0.0368655 0.26904
v 68.6399 -169.442 -41.9104
vn 0.999254 0.0373535 0.0097575
v 68.586 -169.437 -42.3383
vn 0.967195 0.0389766 -0.251029
v 68.424 -169.436 -42.7375
vn 0.867405 0.034743 -0.496389
v 68.1615 -169.441 -43.0794
vn 0.707321 0.0277597 -0.706348
v 67.8195 -169.45 -43.343
vn 0.498949 0.0195612 -0.866411
v 67.4189 -169.463 -43.5072
vn 0.257532 0.0100366 -0.966218
v 66.9885 -169.479 -43.5645
vn 0.000107139 -4.9222e-05 -1
v 66.5571 -169.497 -43.507
vn -0.256126 -0.010091 -0.966591
v 66.1536 -169.516 -43.3426
vn -0.494592 -0.0194594 -0.868908
v 65.807 -169.534 -43.0789
vn -0.700834 -0.0274664 -0.712796
v 65.5386 -169.55 -42.7369
vn -0.859657 -0.034741 -0.509689
v 65.3696 -169.564 -42.3375
vn -0.962225 -0.0383605 -0.269538
v 65.3081 -169.573 -41.9096
vn -0.999197 -0.0389179 -0.00955808
v 65.3622 -169.581 -41.4816
vn -0.962 -0.0365993 0.270585
v 65.524 -169.579 -41.0824
vn -0.861742 -0.0345791 0.506166
f 17//17 16//16 15//15
f 18//18 16//16 17//17
f 3//3 2//2 20//20
f 20//20 19//19 3//3
f 19//19 20//20 15//15
f 21//21 20//20 2//2
f 20//20 21//21 17//17
f 17//17 15//15 20//20
f 2//2 1//1 21//21
f 17//17 21//21 1//1
f 1//1 14//14 17//17
f 13//13 17//17 14//14
f 18//18 17//17 13//13
f 13//13 12//12 18//18
f 11//11 18//18 12//12
f 18//18 11//11 22//22
f 16//16 18//18 22//22
f 11//11 10//10 22//22
f 22//22 23//23 16//16
f 10//10 9//9 24//24
f 24//24 22//22 10//10
f 22//22 24//24 23//23
f 9//9 8//8 23//23
f 23//23 24//24 9//9
f 8//8 7//7 25//25
f 25//25 23//23 8//8
f 23//23 25//25 16//16
f 7//7 6//6 25//25
f 5//5 25//25 6//6
f 25//25 5//5 26//26
f 26//26 16//16 25//25
f 5//5 4//4 26//26
f 15//15 16//16 26//26
f 4//4 3//3 19//19
f 19//19 26//26 4//4
f 26//26 19//19 15//15
f 44//44 43//43 42//42
f 41//41 44//44 42//42
f 41//41 45//45 46//46
f 45//45 28//28 29//29
f 29//29 46//46 45//45
f 28//28 45//45 47//47
f 41//41 47//47 45//45
f 47//47 27//27 28//28
f 42//42 47//47 41//41
f 27//27 47//47 40//40
f 48//48 39//39 40//40
f 40//40 47//47 48//48
f 42//42 48//48 47//47
f 39//39 48//48 49//49
f 42//42 49//49 48//48
f 49//49 38//38 39//39
f 38//38 49//49 50//50
f 42//42 50//50 49//49
f 50//50 37//37 38//38
f 37//37 50//50 36//36
f 36//36 50//50 51//51
f 42//42 51//51 50//50
f 51//51 35//35 36//36
f 51//51 42//42 43//43
f 51//51 34//34 35//35
f 34//34 51//51 52//52
f 43//43 52//52 51//51
f 52//52 33//33 34//34
f 33//33 52//52 53//53
f 53//53 32//32 33//33
f 43//43 53//53 52//52
f 53//53 43//43 54//54
f 44//44 54//54 43//43
f 32//32 53//53 54//54
f 54//54 31//31 32//32
f 31//31 54//54 30//30
f 46//46 30//30 54//54
f 54//54 44//44 46//46
f 46//46 44//44 41//41
f 46//46 29//29 30//30
f 106//106 104//104 105//105
f 107//107 106//106 105//105
f 92//92 108//108 109//109
f 109//109 91//91 92//92
f 104//104 109//109 108//108
f 91//91 109//109 110//110
f 109//109 104//104 106//106
f 106//106 110//110 109//109
f 110//110 90//90 91//91
f 90//90 110//110 106//106
f 106//106 103//103 90//90
f 103//103 106//106 102//102
f 102//102 106//106 107//107
f 107//107 101//101 102//102
f 101//101 107//107 100//100
f 111//111 100//100 107//107
f 111//111 107//107 105//105
f 111//111 99//99 100//100
f 105//105 112//112 111//111
f 99//99 111//111 98//98
f 112//112 98//98 111//111
f 112//112 97//97 98//98
f 97//97 112//112 113//113
f 113//113 96//96 97//97
f 105//105 113//113 112//112
f 113//113 95//95 96//96
f 95//95 113//113 94//94
f 114//114 94//94 113//113
f 113//113 105//105 114//114
f 114//114 93//93 94//94
f 114//114 105//105 104//104
f 93//93 114//114 108//108
f 108//108 92//92 93//93
f 104//104 108//108 114//114
f 132//132 130//130 131//131
f 129//129 130//130 132//132
f 133//133 134//134 129//129
f 134//134 133//133 117//117
f 117//117 116//116 134//134
f 135//135 134//134 116//116
f 134//134 135//135 129//129
f 116//116 115//115 135//135
f 129//129 135//135 130//130
f 128//128 135//135 115//115
f 128//128 127//127 136//136
f 136//136 135//135 128//128
f 135//135 136//136 130//130
f 137//137 136//136 127//127
f 136//136 137//137 130//130
f 127//127 126//126 137//137
f 138//138 137//137 126//126
f 137//137 138//138 130//130
f 126//126 125//125 138//138
f 124//124 138//138 125//125
f 139//139 138//138 124//124
f 138//138 139//139 130//130
f 124//124 123//123 139//139
f 131//131 130//130 139//139
f 123//123 122//122 139//139
f 140//140 139//139 122//122
f 139//139 140//140 131//131
f 122//122 121//121 140//140
f 121//121 120//120 141//141
f 141//141 140//140 121//121
f 140//140 141//141 131//131
f 142//142 131//131 141//141
f 131//131 142//142 132//132
f 120//120 119//119 142//142
f 142//142 141//141 120//120
f 118//118 142//142 119//119
f 142//142 118//118 133//133
f 133//133 132//132 142//142
f 129//129 132//132 133//133
f 118//118 117//117 133//133
