# Created by Open3D 
# object name: InfoWheels Cab License Plate Front
# number of vertices: 656
# number of triangles: 292
v 33.01 -180.231 -40.426
vn -0.908216 0 -0.418502
v 33.2348 -180.226 -40.3625
vn 0.95532 0 -0.295573
v 33.2426 -180.23 -39.1256
vn 0.998377 0 -0.0569488
v 33.2611 -180.211 -39.0744
vn 0.791571 0 -0.611078
v 33.2611 -180.25 -39.0744
vn 0.791571 0 -0.611078
v 33.2946 -180.24 -39.0515
vn 0.346264 0 -0.938137
v 33.3424 -180.221 -39.0449
vn -0.0780555 0 -0.996949
v 33.3808 -180.211 -39.0579
vn -0.59952 0 -0.80036
v 33.3808 -180.25 -39.0579
vn -0.59952 0 -0.80036
v 33.4125 -180.23 -39.1023
vn -0.959992 0 -0.280026
v 33.6818 -180.23 -40.3659
vn -0.952033 0 -0.305994
v 33.7523 -180.23 -40.444
vn -0.427973 0 -0.903792
v 34.0105 -180.23 -40.4396
vn 0.926761 0 -0.375651
v 34.0115 -180.23 -37.7435
vn 1 0 0
v 34.0115 -180.23 -37.7435
vn 0.706181 0 0.708032
v 33.9721 -180.23 -37.7042
vn 0.706181 0 0.708032
v 33.9721 -180.23 -37.7042
vn 0 0 1
v 33.8358 -180.23 -37.7042
vn 0 0 1
v 33.8358 -180.23 -37.7042
vn -0.75234 0 0.658775
v 33.7964 -180.23 -37.7492
vn -0.75234 0 0.658775
v 33.7964 -180.23 -37.7492
vn -1 0 0
v 33.7964 -180.23 -39.0305
vn -0.998389 0 0.0567373
v 33.7777 -180.211 -39.0824
vn -0.793068 0 0.609133
v 33.7777 -180.25 -39.0824
vn -0.793068 0 0.609133
v 33.7438 -180.24 -39.1056
vn -0.346079 0 0.938205
v 33.6955 -180.221 -39.1123
vn 0.0773105 0 0.997007
v 33.6566 -180.211 -39.0993
vn 0.59581 0 0.803125
v 33.6566 -180.25 -39.0993
vn 0.59581 0 0.803125
v 33.6244 -180.23 -39.0545
vn 0.952964 0 0.303085
v 33.3068 -180.23 -37.7482
vn 0.971693 0 0.236247
v 33.3068 -180.23 -37.7482
vn 0.68887 0 0.724885
v 33.2605 -180.23 -37.7042
vn 0.68887 0 0.724885
v 33.2605 -180.23 -37.7042
vn 0 0 1
v 33.0088 -180.23 -37.7042
vn 0 0 1
v 33.0088 -180.23 -37.7042
vn -1 0 0
v 33.2866 -180.211 -37.7077
vn 0 1 0
v 33.0107 -180.211 -40.4105
vn 0 1 0
v 33.0088 -180.211 -37.7042
vn 0 1 0
v 34.0111 -180.211 -37.7395
vn 0 1 0
v 33.7964 -180.211 -37.7492
vn 0 1 0
v 33.7166 -180.211 -39.1453
vn 0 1 0
v 34.0073 -180.211 -40.4414
vn 0 1 0
v 33.7044 -180.211 -40.444
vn 0 1 0
v 33.3315 -180.211 -39.0147
vn 0 1 0
v 33.2426 -180.211 -40.3458
vn 0 1 0
v 33.2866 -180.25 -37.7077
vn 0 -1 0
v 33.0088 -180.25 -37.7042
vn 0 -1 0
v 33.0107 -180.25 -40.4105
vn 0 -1 0
v 34.0111 -180.25 -37.7395
vn 0 -1 0
v 33.7964 -180.25 -37.7492
vn 0 -1 0
v 33.7166 -180.25 -39.1453
vn 0 -1 0
v 34.0073 -180.25 -40.4414
vn 0 -1 0
v 33.7044 -180.25 -40.444
vn 0 -1 0
v 33.3315 -180.25 -39.0147
vn 0 -1 0
v 33.2426 -180.25 -40.3458
vn 0 -1 0
v 34.6532 -180.225 -39.8912
vn 0 0 1
v 34.3602 -180.225 -39.8912
vn 0 0 1
v 34.3602 -180.225 -39.8912
vn -1 0 0
v 34.3602 -180.225 -40.1762
vn -1 0 0
v 34.3602 -180.225 -40.1762
vn -0.8934 0 -0.449263
v 34.4886 -180.225 -40.4286
vn -0.680633 0 -0.732624
v 34.5745 -180.225 -40.4519
vn -0.0999561 0 -0.994992
v 35.1388 -180.225 -40.4447
vn 0.420829 0 -0.90714
v 35.3528 -180.225 -40.1939
vn 0.833699 0 -0.552219
v 35.3528 -180.225 -40.1939
vn 0.99997 0 -0.00779448
v 35.3719 -180.225 -37.7435
vn 0.99997 0 -0.00779448
v 35.3719 -180.225 -37.7435
vn 0.707107 0 0.707107
v 35.3326 -180.225 -37.7042
vn 0.707107 0 0.707107
v 35.3326 -180.225 -37.7042
vn 0 0 1
v 35.1492 -180.225 -37.7042
vn 0 0 1
v 35.1492 -180.225 -37.7042
vn -0.707107 0 0.707107
v 35.1099 -180.225 -37.7435
vn -0.707107 0 0.707107
v 35.1099 -180.225 -37.7435
vn -1 0 0
v 35.1099 -180.225 -40.0997
vn -1 0 0
v 35.1099 -180.225 -40.0997
vn -0.552262 0 0.833671
v 34.9677 -180.225 -40.1939
vn -0.552262 0 0.833671
v 34.9677 -180.225 -40.1939
vn 0 0 1
v 34.6532 -180.225 -40.1939
vn 0 0 1
v 34.6532 -180.225 -40.1939
vn 1 0 0
v 34.6532 -180.225 -39.8912
vn 1 0 0
v 34.6532 -180.206 -39.8912
vn 0 1 0
v 34.3285 -180.206 -39.9231
vn 0 1 0
v 34.6532 -180.206 -40.1939
vn 0 1 0
v 34.5 -180.206 -40.4502
vn 0 1 0
v 35.3324 -180.206 -40.3968
vn 0 1 0
v 35.1062 -180.206 -40.1516
vn 0 1 0
v 35.3717 -180.206 -37.7273
vn 0 1 0
v 35.1101 -180.206 -37.7237
vn 0 1 0
v 34.6532 -180.245 -39.8912
vn 0 -1 0
v 34.3285 -180.245 -39.9231
vn 0 -1 0
v 34.6532 -180.245 -40.1939
vn 0 -1 0
v 34.5 -180.245 -40.4502
vn 0 -1 0
v 35.3324 -180.245 -40.3968
vn 0 -1 0
v 35.1062 -180.245 -40.1516
vn 0 -1 0
v 35.3717 -180.245 -37.7273
vn 0 -1 0
v 35.1101 -180.245 -37.7237
vn 0 -1 0
v 38.007 -180.216 -40.4466
vn 0.581636 0 -0.813449
v 38.1377 -180.225 -40.1939
vn 0.999382 0 -0.0351376
v 38.1377 -180.225 -38.0004
vn 1 0 0
v 38.1377 -180.225 -38.0004
vn 0.896128 0 0.443795
v 38.0295 -180.225 -37.7843
vn 0.769249 0 0.638949
v 37.9276 -180.225 -37.721
vn 0.22985 0 0.973226
v 37.361 -180.225 -37.721
vn -0.219763 0 0.975553
v 37.256 -180.225 -37.7826
vn -0.744271 0 0.667878
v 37.1445 -180.225 -37.9804
vn -0.873084 0 0.487569
v 37.1445 -180.225 -37.9804
vn -1 0 0
v 37.1445 -180.225 -40.1939
vn -1 0 0
v 37.1445 -180.225 -40.1939
vn -0.90943 0 -0.415857
v 37.2435 -180.225 -40.4104
vn -0.746613 0 -0.665259
v 37.36 -180.225 -40.4745
vn -0.126574 0 -0.991957
v 37.8208 -180.196 -40.1098
vn -0.985418 0 0.170153
v 37.7639 -180.196 -40.2066
vn -0.533817 0 0.8456
v 37.624 -180.196 -40.2279
vn 0 0 1
v 37.4841 -180.196 -40.2066
vn 0.533817 0 0.8456
v 37.4272 -180.196 -40.1098
vn 0.985418 0 0.170153
v 37.4272 -180.196 -38.1237
vn 0.985381 0 -0.170362
v 37.4841 -180.196 -38.027
vn 0.534272 0 -0.845313
v 37.624 -180.196 -38.0056
vn 0 0 -1
v 37.7639 -180.196 -38.027
vn -0.534272 0 -0.845313
v 37.8208 -180.196 -38.1237
vn -0.985381 0 -0.170362
v 38.0244 -180.206 -40.4696
vn 0.0487391 0.996447 -0.0686849
v 37.8242 -180.176 -40.155
vn 0.0688828 0.996729 -0.042258
v 38.1234 -180.206 -40.3957
vn 0.0900251 0.995811 -0.0159844
v 38.1169 -180.205 -37.7676
vn 0.0639062 0.997207 0.0386441
v 37.8202 -180.176 -38.0673
vn 0.0466203 0.997057 0.0608514
v 37.3764 -180.206 -40.4763
vn 0 0.994073 -0.108717
v 37.3764 -180.206 -40.4763
vn 0.465068 0.496855 -0.732699
v 37.7656 -180.176 -40.209
vn 0.465068 0.496855 -0.732699
v 37.4325 -180.177 -40.2286
vn -0.0256178 0.995695 -0.0890805
v 37.3686 -180.206 -37.72
vn 0 0.995398 0.0958304
v 37.7656 -180.176 -38.0246
vn 0.308955 0.819127 0.483299
v 37.3686 -180.206 -37.72
vn 0.308955 0.819127 0.483299
v 37.4464 -180.176 -38.0049
vn -0.000257845 0.993076 0.117471
v 37.1557 -180.205 -37.8493
vn -0.0692466 0.996657 0.0433459
v 37.1445 -180.206 -40.1939
vn -0.10439 0.994536 0
v 37.4288 -180.176 -38.1101
vn -0.547012 0.834781 0.0626014
v 37.1445 -180.206 -40.1939
vn -0.547012 0.834781 0.0626014
v 37.1437 -180.205 -40.2046
vn -0.0619604 0.998029 -0.00999138
v 37.4272 -180.176 -38.1237
vn -0.105523 0.994417 0
v 38.1194 -180.245 -40.4481
vn -0.0630583 -0.997232 0.0394029
v 37.7987 -180.216 -40.1559
vn -0.0821386 -0.996081 0.0327985
v 37.8208 -180.216 -40.1098
vn -0.0907155 -0.995876 0.00148082
v 38.1169 -180.244 -37.7676
vn -0.0617724 -0.997391 -0.0373533
v 37.8202 -180.216 -38.0673
vn -0.0450641 -0.997251 -0.0588198
v 37.4429 -180.241 -40.4443
vn -0.00281446 -0.994672 0.103049
v 37.3764 -180.245 -40.4763
vn -0.461063 -0.509686 0.726389
v 37.7656 -180.216 -40.209
vn -0.461063 -0.509686 0.726389
v 37.4335 -180.217 -40.2219
vn 0.0542919 -0.996967 0.0557536
v 37.7225 -180.216 -40.2241
vn -0.0310212 -0.986954 0.157986
v 37.3686 -180.245 -37.72
vn 0 -0.9957 -0.0926414
v 37.7656 -180.216 -38.0246
vn -0.301879 -0.82817 -0.472231
v 37.3686 -180.245 -37.72
vn -0.301879 -0.82817 -0.472231
v 37.4464 -180.216 -38.0049
vn 0.000230656 -0.993527 -0.113597
v 37.1557 -180.244 -37.8493
vn 0.0669372 -0.996877 -0.0418992
v 37.1445 -180.245 -40.1939
vn 0.100922 -0.994894 0
v 37.4288 -180.216 -38.1101
vn 0.534019 -0.843261 -0.0611145
v 37.1445 -180.245 -40.1939
vn 0.534019 -0.843261 -0.0611145
v 37.4272 -180.216 -38.1237
vn 0.102018 -0.994783 0
v 37.1437 -180.244 -40.2045
vn 0.0598962 -0.998158 0.00965827
v 39.335 -180.216 -40.4466
vn 0.581952 0 -0.813223
v 39.4657 -180.225 -40.1939
vn 0.999382 0 -0.0351376
v 39.4657 -180.225 -38.0004
vn 1 0 0
v 39.4657 -180.225 -38.0004
vn 0.896135 0 0.443782
v 39.3485 -180.225 -37.776
vn 0.776424 0 0.630211
v 39.2556 -180.225 -37.721
vn 0.210348 0 0.977627
v 38.6799 -180.225 -37.725
vn -0.447301 0 0.894384
v 38.4725 -180.225 -37.9804
vn -0.86503 0 0.50172
v 38.4725 -180.225 -37.9804
vn -1 0 0
v 38.4725 -180.225 -38.8628
vn -1 0 0
v 38.4725 -180.225 -38.8628
vn -0.914883 0 -0.403719
v 38.6179 -180.225 -39.1923
vn -0.914883 0 -0.403719
v 38.6179 -180.225 -39.1923
vn 0 0 -1
v 39.2005 -180.225 -39.1923
vn 0 0 -1
v 39.2005 -180.225 -39.1923
vn -1 0 0
v 39.2005 -180.225 -40.1939
vn -1 0 0
v 39.2005 -180.225 -40.1939
vn 0 0 1
v 38.8368 -180.225 -40.1939
vn 0 0 1
v 38.8368 -180.225 -40.1939
vn 0.966466 0 0.256796
v 38.7869 -180.225 -40.0061
vn 0.966466 0 0.256796
v 38.7869 -180.225 -40.0061
vn 0 0 1
v 38.4725 -180.225 -40.0061
vn 0 0 1
v 38.4725 -180.225 -40.0061
vn -1 0 0
v 38.4725 -180.225 -40.1939
vn -1 0 0
v 38.4725 -180.225 -40.1939
vn -0.90943 0 -0.415857
v 38.5715 -180.225 -40.4104
vn -0.793965 0 -0.607964
v 38.6962 -180.225 -40.4754
vn -0.189185 0 -0.981941
v 39.1569 -180.196 -38.8063
vn -0.985183 0 0.171506
v 39.102 -180.196 -38.8932
vn -0.533674 0 0.84569
v 38.9618 -180.196 -38.9145
vn 7.49129e-06 0 1
v 38.8216 -180.196 -38.8932
vn 0.53362 0 0.845724
v 38.7666 -180.196 -38.8063
vn 0.985112 0 0.171913
v 38.7666 -180.196 -38.1286
vn 0.985112 0 -0.171915
v 38.8216 -180.196 -38.0417
vn 0.534082 0 -0.845433
v 38.9618 -180.196 -38.0204
vn 7.48209e-06 0 -1
v 39.102 -180.196 -38.0417
vn -0.534137 0 -0.845398
v 39.1569 -180.196 -38.1286
vn -0.985183 0 -0.171507
v 39.1468 -180.176 -38.8483
vn 0.0433798 0.998982 -0.012401
v 39.1411 -180.174 -38.0816
vn 0.0612252 0.997688 0.0294815
v 39.4436 -180.206 -40.3048
vn 0.0621529 0.998036 -0.00777469
v 39.4443 -180.206 -37.7674
vn 0.0674122 0.997041 0.0369364
v 38.8186 -180.206 -40.1253
vn 0 1 0
v 38.4459 -180.206 -40.0304
vn 0 1 0
v 38.6098 -180.206 -40.4709
vn 0 1 0
v 39.3964 -180.206 -40.4647
vn 0 1 0
v 39.2512 -180.206 -40.1634
vn 0 1 0
v 38.5141 -180.206 -37.7608
vn -0.0716709 0.996678 0.0386903
v 38.8009 -180.175 -38.0309
vn -0.0499118 0.996896 0.0608852
v 38.4725 -180.206 -38.8628
vn -0.0981395 0.995173 0
v 38.7722 -180.176 -38.0991
vn -0.721079 0.643128 0.257741
v 38.4725 -180.206 -38.8628
vn -0.721079 0.643128 0.257741
v 38.7588 -180.176 -38.842
vn -0.0965863 0.995097 -0.0212943
v 38.6068 -180.202 -39.1858
vn -0.070061 0.996573 -0.0439733
v 39.2005 -180.206 -39.1923
vn 0 0.995157 -0.0982994
v 38.8693 -180.176 -38.913
vn -0.115359 0.961824 -0.248167
v 39.0979 -180.176 -38.8873
vn 0.0342247 0.994655 -0.0974215
v 39.394 -180.206 -40.4065
vn -0.986866 0.0368932 -0.157271
v 39.1737 -180.191 -39.0203
vn -0.986866 0.0368932 -0.157271
v 39.441 -180.245 -40.3177
vn -0.0609282 -0.998115 0.00739638
v 39.152 -180.216 -38.8291
vn -0.0471964 -0.998823 0.011188
v 39.1285 -180.213 -38.0533
vn -0.0685144 -0.997175 -0.0307898
v 39.4443 -180.245 -37.7673
vn -0.0651623 -0.997236 -0.0357027
v 38.8186 -180.245 -40.1253
vn 0 -1 0
v 38.4459 -180.245 -40.0304
vn 0 -1 0
v 38.6098 -180.245 -40.4709
vn 0 -1 0
v 39.3964 -180.245 -40.4647
vn 0 -1 0
v 39.2512 -180.245 -40.1634
vn 0 -1 0
v 38.5141 -180.245 -37.7608
vn 0.0692803 -0.996896 -0.0373992
v 38.8009 -180.215 -38.0309
vn 0.0482462 -0.9971 -0.0588531
v 38.4725 -180.245 -38.8628
vn 0.0948751 -0.995489 0
v 38.7722 -180.216 -38.0991
vn 0.710765 -0.65595 -0.254055
v 38.4725 -180.245 -38.8628
vn 0.710765 -0.65595 -0.254055
v 38.7588 -180.216 -38.842
vn 0.0933787 -0.995418 0.0205825
v 38.6069 -180.241 -39.1858
vn 0.0677257 -0.996798 0.0425052
v 39.2005 -180.245 -39.1923
vn 0 -0.995474 0.0950298
v 38.8693 -180.216 -38.913
vn 0.112181 -0.964035 0.240941
v 39.0979 -180.216 -38.8873
vn -0.033089 -0.995005 0.0941836
v 39.394 -180.245 -40.4065
vn 0.986819 -0.0381729 0.157264
v 39.1737 -180.23 -39.0203
vn 0.986819 -0.0381729 0.157264
v 40.7704 -180.225 -37.72
vn 0.141467 0 0.989943
v 39.8737 -180.225 -37.72
vn -0.26763 0 0.963522
v 39.8343 -180.225 -37.7594
vn -0.963524 0 0.267623
v 39.8349 -180.225 -39.0868
vn -0.89185 0 -0.452331
v 40.5104 -180.225 -39.0881
vn -0.268146 0 -0.963378
v 40.5497 -180.225 -39.1274
vn -0.963452 0 -0.267881
v 40.5399 -180.225 -40.1769
vn -0.864756 0 0.502193
v 40.2543 -180.225 -40.2064
vn 0.0996551 0 0.995022
v 40.1302 -180.225 -40.1703
vn 0.930558 0 0.366145
v 40.106 -180.245 -40.0022
vn 0.595277 0 0.80352
v 39.8461 -180.225 -40.0205
vn -0.52492 0 0.851151
v 39.8482 -180.225 -40.1619
vn -0.967152 0 -0.254199
v 39.9856 -180.225 -40.4635
vn -0.714865 0 -0.699263
v 40.1948 -180.225 -40.4959
vn -0.0605972 0 -0.998162
v 40.6832 -180.216 -40.4844
vn 0.44637 0 -0.894849
v 40.8347 -180.225 -40.1956
vn 0.981983 0 -0.188968
v 40.8354 -180.225 -39.1421
vn 0.975067 0 0.221909
v 40.6849 -180.225 -38.866
vn 0.705265 0 0.708944
v 40.6299 -180.225 -38.8384
vn 0.167441 0 0.985882
v 40.1736 -180.225 -38.8384
vn 0.313674 0 0.949531
v 40.1342 -180.225 -38.799
vn 0.949358 0 0.314195
v 40.1342 -180.225 -38.0889
vn 0.963244 0 -0.268627
v 40.1736 -180.225 -38.0495
vn 0.268052 0 -0.963404
v 40.7704 -180.225 -38.0495
vn 0.141849 0 -0.989888
v 40.8091 -180.225 -38.0134
vn 0.894885 0 -0.446297
v 40.8091 -180.225 -37.7561
vn 0.894879 0 0.446308
v 39.8527 -180.206 -37.7263
vn 0 1 0
v 39.8343 -180.206 -37.72
vn 0 1 0
v 39.8386 -180.206 -39.0866
vn 0 1 0
v 40.1404 -180.206 -40.1217
vn 0 1 0
v 39.9766 -180.206 -40.4878
vn 0 1 0
v 40.8017 -180.206 -40.4633
vn 0 1 0
v 40.549 -180.206 -40.2042
vn 0 1 0
v 40.8023 -180.206 -38.8952
vn 0 1 0
v 40.549 -180.206 -39.0894
vn 0 1 0
v 40.1356 -180.206 -38.8362
vn 0 1 0
v 40.136 -180.206 -38.0505
vn 0 1 0
v 40.8055 -180.206 -37.7207
vn 0 1 0
v 39.8527 -180.245 -37.7263
vn 0 -1 0
v 39.8343 -180.245 -37.72
vn 0 -1 0
v 39.8386 -180.245 -39.0866
vn 0 -1 0
v 40.1404 -180.245 -40.1217
vn 0 -1 0
v 39.9766 -180.245 -40.4878
vn 0 -1 0
v 40.8017 -180.245 -40.4633
vn 0 -1 0
v 40.549 -180.245 -40.2042
vn 0 -1 0
v 40.8023 -180.245 -38.8952
vn 0 -1 0
v 40.549 -180.245 -39.0894
vn 0 -1 0
v 40.1356 -180.245 -38.8362
vn 0 -1 0
v 40.136 -180.245 -38.0505
vn 0 -1 0
v 40.8055 -180.245 -37.7207
vn 0 -1 0
v 42.1673 -180.225 -37.72
vn 0.169481 0 0.985533
v 41.256 -180.225 -37.72
vn -0.284807 0 0.958585
v 41.2167 -180.225 -37.7594
vn -0.955393 0 0.295339
v 41.2173 -180.225 -39.0869
vn -0.891885 0 -0.452262
v 41.9073 -180.225 -39.0881
vn -0.295695 0 -0.955282
v 41.9467 -180.225 -39.1274
vn -0.966267 0 -0.257542
v 41.9369 -180.225 -40.1769
vn -0.869804 0 0.493397
v 41.5412 -180.225 -40.1881
vn 0.417593 0 0.908634
v 41.507 -180.225 -40.0082
vn 0.60134 0 0.798993
v 41.255 -180.216 -40.0105
vn -0.966092 0 0.258197
v 41.3825 -180.225 -40.4635
vn -0.779935 0 -0.62586
v 41.5917 -180.225 -40.4959
vn -0.0608482 0 -0.998147
v 42.091 -180.225 -40.4793
vn 0.664448 0 -0.747334
v 42.236 -180.225 -40.177
vn 0.989023 0 -0.147761
v 42.2309 -180.225 -39.139
vn 0.97674 0 0.214426
v 42.0556 -180.235 -38.8537
vn 0.403163 0 0.915128
v 41.6737 -180.225 -38.8384
vn 0.259175 0 0.96583
v 41.5166 -180.225 -38.799
vn 0.963431 0 0.267958
v 41.5166 -180.225 -38.0889
vn 0.958507 0 -0.28507
v 41.556 -180.225 -38.0495
vn 0.285254 0 -0.958452
v 42.1673 -180.225 -38.0495
vn 0.169879 0 -0.985465
v 42.2061 -180.225 -38.0134
vn 0.886717 0 -0.462312
v 42.2061 -180.225 -37.7561
vn 0.88672 0 0.462306
v 41.5294 -180.206 -40.2044
vn 0 1 0
v 41.21 -180.206 -40.0357
vn 0 1 0
v 41.399 -180.206 -40.495
vn 0 1 0
v 42.1986 -180.206 -40.4633
vn 0 1 0
v 41.946 -180.206 -40.2042
vn 0 1 0
v 42.1991 -180.206 -38.894
vn 0 1 0
v 41.946 -180.206 -39.0894
vn 0 1 0
v 41.5178 -180.206 -38.8362
vn 0 1 0
v 41.2175 -180.206 -39.0863
vn 0 1 0
v 41.2176 -180.206 -37.7211
vn 0 1 0
v 41.5181 -180.206 -38.051
vn 0 1 0
v 42.1872 -180.206 -37.7202
vn 0 1 0
v 42.2074 -180.206 -38.0494
vn 0 1 0
v 41.5294 -180.245 -40.2044
vn 0 -1 0
v 41.21 -180.245 -40.0357
vn 0 -1 0
v 41.399 -180.245 -40.495
vn 0 -1 0
v 42.1986 -180.245 -40.4633
vn 0 -1 0
v 41.946 -180.245 -40.2042
vn 0 -1 0
v 42.1991 -180.245 -38.894
vn 0 -1 0
v 41.946 -180.245 -39.0894
vn 0 -1 0
v 41.5178 -180.245 -38.8362
vn 0 -1 0
v 41.2175 -180.245 -39.0863
vn 0 -1 0
v 41.2176 -180.245 -37.7211
vn 0 -1 0
v 41.5181 -180.245 -38.051
vn 0 -1 0
v 42.1872 -180.245 -37.7202
vn 0 -1 0
v 42.2074 -180.245 -38.0494
vn 0 -1 0
v 31.7143 -180.196 -38.0632
vn -1 0 0
v 31.7143 -180.196 -40.1275
vn -1 0 0
v 31.7143 -180.196 -40.1275
vn -0.493122 0 0.86996
v 31.6148 -180.196 -40.1839
vn -0.493122 0 0.86996
v 31.6148 -180.196 -40.1839
vn -1 0 0
v 31.616 -180.196 -40.4021
vn -0.886029 0 -0.46363
v 31.6935 -180.196 -40.4742
vn -0.170616 0 -0.985338
v 32.3736 -180.196 -40.4734
vn 0.318643 0 -0.947875
v 32.4831 -180.197 -40.4053
vn 0.800336 0 -0.599551
v 32.6365 -180.201 -40.1275
vn 0.875404 0 -0.483393
v 32.6365 -180.201 -40.1275
vn 0.999999 0 0.00137406
v 32.6336 -180.196 -38.0148
vn 0.998802 0 0.0489434
v 32.5373 -180.196 -37.7716
vn 0.929766 0 0.36815
v 32.5373 -180.196 -37.7716
vn 0.594149 0 0.804355
v 32.4864 -180.196 -37.734
vn 0.594149 0 0.804355
v 32.4864 -180.196 -37.734
vn 0 0 1
v 31.6898 -180.196 -37.734
vn 0 0 1
v 31.6898 -180.196 -37.734
vn -0.70709 0 0.707124
v 31.6504 -180.196 -37.7734
vn -0.70709 0 0.707124
v 31.6504 -180.196 -37.7734
vn -1 0 0
v 31.6504 -180.196 -37.9666
vn -1 0 0
v 31.6504 -180.196 -37.9666
vn -0.834046 0 -0.551694
v 31.7143 -180.196 -38.0632
vn -0.834046 0 -0.551694
v 32.3476 -180.196 -40.1098
vn -0.985407 0 0.170213
v 32.2492 -180.216 -40.2241
vn -0.204269 0 0.978915
v 31.9822 -180.196 -40.1098
vn 0.961173 0 0.275945
v 31.9822 -180.196 -38.1237
vn 0.985455 0 -0.169937
v 32.039 -180.196 -38.027
vn 0.534123 0 -0.845407
v 32.1649 -180.196 -38.0056
vn -1.00861e-05 0 -1
v 32.2907 -180.196 -38.027
vn -0.534385 0 -0.845241
v 32.3476 -180.196 -38.1237
vn -0.985371 0 -0.170423
v 31.6902 -180.176 -37.7534
vn 0 1 0
v 31.9835 -180.176 -38.0539
vn 0 1 0
v 31.9825 -180.176 -40.1514
vn 0 1 0
v 31.7107 -180.176 -40.1296
vn 0 1 0
v 31.6508 -180.176 -40.4814
vn 0 1 0
v 32.344 -180.176 -40.2216
vn 0.00850055 0.999958 -0.00331952
v 32.6315 -180.181 -40.2071
vn 0.0165515 0.99986 0.00230362
v 32.6132 -180.176 -37.7613
vn 0.00414541 0.999991 -0.000565912
v 32.3443 -180.176 -38.021
vn 0 1 0
v 31.6902 -180.216 -37.7534
vn 0 -1 0
v 31.9825 -180.216 -40.1514
vn 0 -1 0
v 31.9835 -180.216 -38.0539
vn 0 -1 0
v 31.7107 -180.216 -40.1296
vn 0 -1 0
v 31.6508 -180.216 -40.4814
vn 0 -1 0
v 32.344 -180.216 -40.2216
vn -0.00843248 -0.999959 0.00326479
v 32.6315 -180.221 -40.2071
vn -0.0113487 -0.999935 -0.00111776
v 32.6132 -180.216 -37.7613
vn -0.00413277 -0.999991 0.000564187
v 32.3443 -180.216 -38.021
vn 0 -1 0
v 33.2393 -180.175 -41.3752
vn 0.923878 0 0.382688
v 33.2388 -180.171 -41.2507
vn 0.900582 0 -0.434685
v 33.3351 -180.175 -41.1726
vn 0.173406 0 -0.98485
v 33.4266 -180.175 -41.1888
vn -0.499328 0 -0.866413
v 33.4945 -180.175 -41.2824
vn -0.953813 0 -0.3004
v 33.4781 -180.175 -41.3752
vn -0.866155 0 0.499776
v 33.4287 -180.175 -41.4276
vn -0.499808 0 0.866136
v 33.3587 -180.175 -41.4442
vn 0 0 1
v 33.2887 -180.175 -41.4276
vn 0.50027 0 0.865869
v 40.2393 -180.175 -41.3752
vn 0.923878 0 0.382688
v 40.2388 -180.171 -41.2507
vn 0.900582 0 -0.434685
v 40.3351 -180.175 -41.1726
vn 0.173406 0 -0.98485
v 40.4266 -180.175 -41.1888
vn -0.499328 0 -0.866413
v 40.4945 -180.175 -41.2824
vn -0.953813 0 -0.3004
v 40.4781 -180.175 -41.3752
vn -0.866155 0 0.499776
v 40.4287 -180.175 -41.4276
vn -0.499808 0 0.866136
v 40.3587 -180.175 -41.4442
vn 0 0 1
v 40.2887 -180.175 -41.4276
vn 0.50027 0 0.865869
v 40.2393 -180.175 -36.6252
vn 0.923878 0 0.382688
v 40.2388 -180.171 -36.5007
vn 0.900582 0 -0.434685
v 40.3351 -180.175 -36.4226
vn 0.173406 0 -0.98485
v 40.4266 -180.175 -36.4388
vn -0.499328 0 -0.866413
v 40.4945 -180.175 -36.5324
vn -0.953813 0 -0.3004
v 40.4781 -180.175 -36.6252
vn -0.866155 0 0.499776
v 40.4287 -180.175 -36.6776
vn -0.499808 0 0.866136
v 40.3587 -180.175 -36.6942
vn 0 0 1
v 40.2887 -180.175 -36.6776
vn 0.50027 0 0.865869
v 33.2393 -180.175 -36.6252
vn 0.923878 0 0.382688
v 33.2388 -180.171 -36.5007
vn 0.900582 0 -0.434685
v 33.3351 -180.175 -36.4226
vn 0.173406 0 -0.98485
v 33.4266 -180.175 -36.4388
vn -0.499328 0 -0.866413
v 33.4945 -180.175 -36.5324
vn -0.953813 0 -0.3004
v 33.4781 -180.175 -36.6252
vn -0.866155 0 0.499776
v 33.4287 -180.175 -36.6776
vn -0.499808 0 0.866136
v 33.3587 -180.175 -36.6942
vn 0 0 1
v 33.2887 -180.175 -36.6776
vn 0.50027 0 0.865869
v 42.7088 -180.186 -41.5218
vn -0.480018 -0.874849 0.0649801
v 42.6087 -180.111 -36.2083
vn 0.115452 -0.989599 0.08582
v 42.5959 -180.105 -41.6826
vn 0.0216827 -0.998991 -0.0393255
v 42.499 -180.19 -36.2927
vn 0.256832 -0.928004 0.269899
v 42.6741 -180.175 -36.0911
vn -0.194912 -0.933686 -0.300399
v 31.1221 -180.105 -36.1811
vn 0.0607338 -0.996844 0.051124
v 31.2205 -180.19 -36.2881
vn -0.162497 -0.908005 0.386163
v 42.4859 -180.16 -41.5587
vn -0.353974 0.924994 0.138159
v 42.5939 -180.084 -36.168
vn -0.064666 0.99644 0.0540963
v 42.6133 -180.082 -41.6703
vn 0.0837646 0.994842 -0.0572031
v 42.8137 -180.176 -36.2189
vn 0.200093 0.979573 0.0200095
v 42.4844 -180.159 -36.3019
vn -0.187279 0.91943 -0.345797
v 31.107 -180.084 -36.1937
vn -0.163273 0.986569 -0.00477851
v 30.8765 -180.158 -36.0738
vn -0.0178355 0.9841 0.176717
v 40.5116 -180.19 -36.5547
vn 0 -1 0
v 40.244 -180.19 -36.4504
vn 0 -1 0
v 33.2059 -180.19 -36.5547
vn 0 -1 0
v 31.219 -180.189 -41.5702
vn -0.299554 -0.921915 -0.245644
v 42.496 -180.189 -41.5741
vn 0.118676 -0.955924 -0.268561
v 33.2301 -180.19 -41.4118
vn 0 -1 0
v 33.4725 -180.19 -36.4534
vn 0 -1 0
v 40.5119 -180.19 -41.3078
vn 0 -1 0
v 40.314 -180.19 -41.458
vn 0 -1 0
v 40.2747 -180.19 -36.6832
vn 0 -1 0
v 33.3898 -180.19 -36.7042
vn 0 -1 0
v 42.8587 -180.175 -36.4626
vn 0.996664 0 0.0816158
v 42.7573 -180.175 -36.1503
vn 0.808981 0 0.587834
v 42.6397 -180.175 -36.0328
vn 0.5877 0 0.809079
v 42.4197 -180.175 -35.9316
vn 0.0805416 0 0.996751
v 31.2977 -180.175 -35.9316
vn -0.0805204 0 0.996753
v 31.0777 -180.175 -36.0328
vn -0.58785 0 0.80897
v 30.9602 -180.175 -36.1503
vn -0.808975 0 0.587843
v 30.8587 -180.175 -36.4626
vn -0.996653 0 0.081745
v 30.8587 -180.175 -41.4001
vn -0.99918 0 -0.0404891
v 30.8847 -180.175 -41.5642
vn -0.951004 0 -0.309178
v 30.9602 -180.175 -41.7123
vn -0.809078 0 -0.587702
v 31.0777 -180.175 -41.8299
vn -0.587845 0 -0.808974
v 31.2978 -180.175 -41.931
vn -0.0804542 0 -0.996758
v 42.4196 -180.175 -41.931
vn 0.0804754 0 -0.996757
v 42.6397 -180.175 -41.8299
vn 0.587695 0 -0.809082
v 42.7573 -180.175 -41.7123
vn 0.808982 0 -0.587833
v 42.8587 -180.175 -41.4001
vn 0.996662 0 -0.0816405
v 42.8456 -180.186 -36.1142
vn -0.00727737 -0.999856 -0.0153109
v 42.8543 -180.19 -41.6312
vn 0 -1 0
v 42.4197 -180.19 -35.9316
vn 0 -1 0
v 31.2977 -180.19 -35.9316
vn 0 -1 0
v 31.0223 -180.186 -36.0864
vn 0.202622 -0.956702 -0.208963
v 30.8593 -180.19 -36.3736
vn 0.00741312 -0.999967 -0.00331975
v 30.8736 -180.188 -41.7532
vn 0.011037 -0.999264 0.0367494
v 31.2978 -180.19 -41.931
vn 0 -1 0
v 42.4188 -180.19 -41.931
vn -0.00447905 -0.999968 0.00656986
v 42.4467 -180.187 -41.7856
vn -0.0546441 -0.869661 0.490617
v 42.4197 -180.16 -35.9316
vn 0 1 0
v 42.4464 -180.157 -36.0651
vn 0.0441046 0.905219 0.42265
v 31.2977 -180.16 -35.9316
vn 0 1 0
v 30.8593 -180.16 -41.4933
vn 0 1 0
v 31.0041 -180.156 -41.7893
vn -0.142569 0.972454 -0.184411
v 42.7255 -180.158 -41.5199
vn 0.377341 0.917852 -0.123129
v 42.8423 -180.157 -41.7864
vn 0.0123966 0.984896 -0.172705
v 42.4196 -180.16 -41.931
vn 0 1 0
v 31.2978 -180.16 -41.931
vn 0 1 0
v 31.2317 -180.159 -36.3036
vn 0.309072 0.938121 -0.156214
v 31.1229 -180.085 -41.6978
vn -0.0969855 0.969212 -0.226323
v 31.2382 -180.16 -41.5591
vn 0.21709 0.918414 0.330739
v 31.1041 -180.113 -41.4976
vn 0.248358 -0.968133 0.0321988
v 31.3117 -180.105 -41.6815
vn 0.0441223 -0.974596 0.219581
v 33.4723 -180.16 -36.4491
vn 0 1 0
v 40.5116 -180.16 -36.5547
vn 0 1 0
v 40.3139 -180.16 -41.4575
vn 0 1 0
v 33.2059 -180.16 -36.5547
vn 0 1 0
v 40.5057 -180.16 -41.3298
vn 0 1 0
v 33.2062 -180.16 -41.31
vn 0 1 0
v 33.4726 -180.16 -41.4091
vn 0 1 0
v 40.3487 -180.16 -36.7007
vn 0 1 0
v 40.3136 -180.16 -36.4052
vn 0 1 0
v 40.2131 -180.16 -36.5685
vn 0 1 0
v 33.4429 -180.16 -36.688
vn 0 1 0
v 40.397 -180.16 -41.1606
vn 0 1 0
v 40.2149 -180.16 -41.2519
vn 0 1 0
v 33.4026 -180.16 -41.1657
vn 0 1 0
v 33.4918 -180.19 -41.3711
vn 0 -1 0
v 40.2131 -180.19 -41.2941
vn 0 -1 0
v 33.4579 -180.19 -41.1926
vn 0 -1 0
v 40.3487 -180.19 -41.162
vn 0 -1 0
v 33.2952 -180.19 -41.1773
vn 0 -1 0
v 30.7361 -180.265 -35.7787
vn 0 -1 0
v 39.8734 -180.265 -36.2789
vn 0 -1 0
v 42.9813 -180.265 -35.7787
vn 0 -1 0
v 40.8426 -180.265 -36.2813
vn 0 -1 0
v 42.4764 -180.265 -36.3025
vn 0 -1 0
v 31.2411 -180.265 -36.3026
vn 0 -1 0
v 32.8751 -180.265 -36.2812
vn 0 -1 0
v 33.8444 -180.265 -36.2789
vn 0 -1 0
v 33.1889 -180.265 -36.4302
vn 0 -1 0
v 33.0007 -180.265 -36.7758
vn 0 -1 0
v 33.3845 -180.265 -36.8859
vn 0 -1 0
v 33.6818 -180.265 -36.6457
vn 0 -1 0
v 40.1889 -180.265 -36.4302
vn 0 -1 0
v 40.0007 -180.265 -36.7758
vn 0 -1 0
v 40.3845 -180.265 -36.8859
vn 0 -1 0
v 40.6818 -180.265 -36.6457
vn 0 -1 0
v 30.7361 -180.19 -35.7787
vn 0 1 0
v 31.2411 -180.19 -36.3026
vn 0 1 0
v 42.9813 -180.19 -35.7787
vn 0 1 0
v 33.8442 -180.19 -36.2789
vn 0 1 0
v 32.875 -180.19 -36.2813
vn 0 1 0
v 42.4764 -180.19 -36.3025
vn 0 1 0
v 42.9813 -180.19 -42.0277
vn 0 1 0
v 42.4763 -180.19 -41.5038
vn 0 1 0
v 40.8425 -180.19 -36.2812
vn 0 1 0
v 39.8732 -180.19 -36.2789
vn 0 1 0
v 40.1889 -180.19 -36.4302
vn 0 1 0
v 40.6818 -180.19 -36.6457
vn 0 1 0
v 40.3845 -180.19 -36.8859
vn 0 1 0
v 40.0007 -180.19 -36.7758
vn 0 1 0
v 33.1889 -180.19 -36.4302
vn 0 1 0
v 33.6818 -180.19 -36.6457
vn 0 1 0
v 33.3845 -180.19 -36.8859
vn 0 1 0
v 33.0007 -180.19 -36.7758
vn 0 1 0
v 42.9751 -180.19 -35.7825
vn 0.794767 0 0.606915
v 30.7383 -180.189 -35.7805
vn -0.784125 0 0.620603
v 42.9792 -180.266 -35.7826
vn 0.606531 0 0.79506
v 42.7337 -180.265 -35.7782
vn 0 0 1
v 30.7423 -180.265 -35.7825
vn -0.736852 0 0.676054
v 40.8129 -180.234 -36.2905
vn 0.630874 0 -0.775886
v 40.6663 -180.216 -36.8669
vn 0.735311 0 -0.677729
v 40.1524 -180.228 -36.8753
vn -0.35146 0 -0.936203
v 39.9972 -180.228 -36.6683
vn -0.971663 0 -0.23637
v 39.8262 -180.228 -36.2785
vn -0.236506 0 -0.97163
v 32.9972 -180.228 -36.6683
vn -0.971663 0 -0.23637
v 32.8444 -180.228 -36.2819
vn -0.301622 0 -0.953428
v 33.1524 -180.228 -36.8753
vn -0.35146 0 -0.936203
v 33.7203 -180.228 -36.6683
vn 0.971644 0 -0.23645
v 33.5651 -180.228 -36.8753
vn 0.351408 0 -0.936222
v 33.8763 -180.228 -36.2791
vn 0.508223 0 -0.861225
v 31.2341 -180.228 -36.4531
vn 0.972377 0 -0.233416
v 31.4065 -180.228 -36.2798
vn 0.236269 0 -0.971688
v 42.4775 -180.228 -36.3001
vn -0.756683 0 -0.653781
v 40.3347 -180.228 -36.379
vn 0.117001 0 -0.993132
v 40.2173 -180.19 -36.4407
vn 0.7271 0 -0.686531
v 40.2664 -180.265 -36.3995
vn 0.573791 0 -0.819002
v 40.1796 -180.228 -36.5279
vn 0.969592 0 -0.244729
v 40.2173 -180.228 -36.6781
vn 0.756389 0 0.654122
v 40.1852 -180.265 -36.6226
vn 0.906589 0 0.422014
v 40.3267 -180.19 -36.7412
vn 0.230839 0 0.972992
v 40.2664 -180.265 -36.7193
vn 0.422056 0 0.90657
v 40.3668 -180.246 -36.7398
vn -0.0941815 0 0.995555
v 40.5002 -180.228 -36.6781
vn -0.775635 0 0.631181
v 40.4511 -180.265 -36.7193
vn -0.57325 0 0.819381
v 40.5434 -180.228 -36.5595
vn -0.999892 0 -0.0147263
v 40.5322 -180.265 -36.6226
vn -0.965846 0 0.259116
v 40.5002 -180.228 -36.4407
vn -0.717903 0 -0.696143
v 40.5322 -180.265 -36.4963
vn -0.9063 0 -0.422636
v 33.3347 -180.228 -36.379
vn 0.117001 0 -0.993132
v 33.2173 -180.19 -36.4407
vn 0.7271 0 -0.686531
v 33.2664 -180.265 -36.3995
vn 0.573791 0 -0.819002
v 33.1796 -180.228 -36.5279
vn 0.969592 0 -0.244729
v 33.2173 -180.228 -36.6781
vn 0.756389 0 0.654122
v 33.1852 -180.265 -36.6226
vn 0.906589 0 0.422014
v 33.3267 -180.19 -36.7412
vn 0.230839 0 0.972992
v 33.2664 -180.265 -36.7193
vn 0.422056 0 0.90657
v 33.3668 -180.246 -36.7398
vn -0.0941815 0 0.995555
v 33.5002 -180.228 -36.6781
vn -0.775635 0 0.631181
v 33.4511 -180.265 -36.7193
vn -0.57325 0 0.819381
v 33.5434 -180.228 -36.5595
vn -0.999892 0 -0.0147263
v 33.5322 -180.265 -36.6226
vn -0.965846 0 0.259116
v 33.5002 -180.228 -36.4407
vn -0.717903 0 -0.696143
v 33.5322 -180.265 -36.4963
vn -0.9063 0 -0.422636
v 31.2411 -180.19 -41.5038
vn 0 1 0
v 30.7361 -180.19 -42.0277
vn 0 1 0
v 31.2341 -180.228 -41.3532
vn 0.972436 0 0.233168
v 30.7361 -180.265 -42.0277
vn 0 -1 0
v 42.9813 -180.265 -42.0277
vn 0 -1 0
v 39.8732 -180.265 -41.5275
vn 0 -1 0
v 40.8427 -180.265 -41.5251
vn 0 -1 0
v 42.4763 -180.265 -41.5038
vn 0 -1 0
v 31.2411 -180.265 -41.5038
vn 0 -1 0
v 32.875 -180.265 -41.5252
vn 0 -1 0
v 33.8445 -180.265 -41.5275
vn 0 -1 0
v 33.1889 -180.265 -41.3762
vn 0 -1 0
v 33.0007 -180.265 -41.0305
vn 0 -1 0
v 33.3845 -180.265 -40.9205
vn 0 -1 0
v 33.5866 -180.265 -41.2405
vn 0 -1 0
v 33.7167 -180.265 -41.0304
vn 0 -1 0
v 40.1889 -180.265 -41.3762
vn 0 -1 0
v 40.0007 -180.265 -41.0305
vn 0 -1 0
v 40.3845 -180.265 -40.9205
vn 0 -1 0
v 40.5866 -180.265 -41.2405
vn 0 -1 0
v 40.7167 -180.265 -41.0304
vn 0 -1 0
v 33.8443 -180.19 -41.5275
vn 0 1 0
v 32.8749 -180.19 -41.5251
vn 0 1 0
v 42.4833 -180.228 -41.3534
vn -0.972406 0 0.233296
v 40.8426 -180.19 -41.5252
vn 0 1 0
v 39.8731 -180.19 -41.5275
vn 0 1 0
v 40.1889 -180.19 -41.3762
vn 0 1 0
v 40.5866 -180.19 -41.2405
vn 0 1 0
v 40.7167 -180.19 -41.0304
vn 0 1 0
v 40.3845 -180.19 -40.9205
vn 0 1 0
v 40.0007 -180.19 -41.0305
vn 0 1 0
v 33.1889 -180.19 -41.3762
vn 0 1 0
v 33.6818 -180.19 -41.1607
vn 0 1 0
v 33.3845 -180.19 -40.9205
vn 0 1 0
v 33.0007 -180.19 -41.0305
vn 0 1 0
v 42.9749 -180.265 -42.026
vn 0.784052 0 -0.620695
v 42.9792 -180.19 -42.0238
vn 0.795086 0 -0.606497
v 30.8724 -180.19 -42.0278
vn -0.489822 0 -0.871823
v 30.7367 -180.247 -42.0197
vn -0.927454 0 -0.373937
v 40.8877 -180.226 -41.5255
vn 0.291166 0 0.956673
v 40.7503 -180.228 -41.3439
vn 0.957963 0 0.286892
v 40.7337 -180.228 -41.1532
vn 0.985443 0 0.170006
v 40.6583 -180.228 -40.9785
vn 0.7071 0 0.707114
v 40.5224 -180.228 -40.9093
vn 0.174535 0 0.984651
v 40.0601 -180.234 -40.9321
vn -0.659119 0 0.752039
v 39.9837 -180.228 -41.2782
vn -0.991082 0 0.133253
v 39.8753 -180.228 -41.5264
vn -0.515538 0 0.856866
v 32.9837 -180.228 -41.2782
vn -0.991082 0 0.133253
v 32.8795 -180.228 -41.5209
vn -0.438514 0 0.898725
v 33.0601 -180.234 -40.9321
vn -0.659119 0 0.752039
v 33.7337 -180.246 -41.1532
vn 0.989397 0 0.145235
v 33.6583 -180.228 -40.9785
vn 0.7071 0 0.707114
v 33.5224 -180.228 -40.9093
vn 0.174535 0 0.984651
v 33.8183 -180.226 -41.5255
vn 0.669776 0 0.742563
v 31.4067 -180.228 -41.5266
vn 0.236457 0 0.971642
v 42.3108 -180.228 -41.5266
vn -0.236409 0 0.971654
v 40.3286 -180.209 -41.4178
vn 0.276765 0 0.960938
v 40.1849 -180.228 -41.2766
vn 0.999268 0 0.0382503
v 40.3314 -180.228 -41.0808
vn 0.288967 0 -0.957339
v 40.5162 -180.228 -41.156
vn -0.866131 0 -0.499816
v 40.5162 -180.228 -41.3379
vn -0.923026 0 0.384737
v 33.3286 -180.209 -41.4178
vn 0.276765 0 0.960938
v 33.1849 -180.228 -41.2766
vn 0.999268 0 0.0382503
v 33.3314 -180.228 -41.0808
vn 0.288967 0 -0.957339
v 33.5162 -180.228 -41.156
vn -0.866131 0 -0.499816
v 33.5162 -180.228 -41.3379
vn -0.923026 0 0.384737
f 36//36 37//37 38//38
f 39//39 41//41 40//40
f 42//42 41//41 39//39
f 43//43 41//41 42//42
f 44//44 41//41 43//43
f 44//44 36//36 41//41
f 37//37 44//44 45//45
f 36//36 44//44 37//37
f 46//46 47//47 48//48
f 49//49 50//50 51//51
f 52//52 49//49 51//51
f 53//53 52//52 51//51
f 54//54 53//53 51//51
f 54//54 51//51 46//46
f 48//48 55//55 54//54
f 46//46 48//48 54//54
f 83//83 82//82 81//81
f 83//83 84//84 82//82
f 83//83 85//85 84//84
f 86//86 85//85 83//83
f 86//86 87//87 85//85
f 88//88 87//87 86//86
f 91//91 89//89 90//90
f 91//91 90//90 92//92
f 91//91 92//92 93//93
f 94//94 91//91 93//93
f 94//94 93//93 95//95
f 96//96 94//94 95//95
f 122//122 124//124 123//123
f 125//125 124//124 122//122
f 126//126 122//122 121//121
f 125//125 130//130 124//124
f 133//133 135//135 134//134
f 129//129 138//138 139//139
f 142//142 140//140 143//143
f 144//144 142//142 143//143
f 144//144 143//143 150//150
f 153//153 154//154 155//155
f 148//148 158//158 159//159
f 198//198 200//200 199//199
f 201//201 203//203 202//202
f 201//201 204//204 203//203
f 205//205 204//204 201//201
f 198//198 206//206 200//200
f 207//207 206//206 198//198
f 207//207 208//208 206//206
f 211//211 213//213 212//212
f 220//220 218//218 221//221
f 222//222 223//223 224//224
f 222//222 224//224 225//225
f 226//226 222//222 225//225
f 220//220 221//221 227//227
f 228//228 220//220 227//227
f 228//228 227//227 229//229
f 232//232 233//233 234//234
f 268//268 270//270 269//269
f 271//271 270//270 268//268
f 271//271 272//272 270//270
f 273//273 272//272 271//271
f 273//273 274//274 272//272
f 267//267 274//274 273//273
f 266//266 274//274 267//267
f 266//266 275//275 274//274
f 276//276 275//275 266//266
f 280//280 281//281 282//282
f 283//283 280//280 282//282
f 283//283 282//282 284//284
f 285//285 283//283 284//284
f 285//285 284//284 286//286
f 279//279 285//285 286//286
f 278//278 279//279 286//286
f 278//278 286//286 287//287
f 288//288 278//278 287//287
f 312//312 314//314 313//313
f 312//312 315//315 314//314
f 316//316 315//315 312//312
f 316//316 317//317 315//315
f 318//318 317//317 316//316
f 318//318 319//319 317//317
f 320//320 319//319 318//318
f 321//321 319//319 320//320
f 321//321 322//322 319//319
f 323//323 322//322 321//321
f 323//323 324//324 322//322
f 325//325 326//326 327//327
f 325//325 327//327 328//328
f 329//329 325//325 328//328
f 329//329 328//328 330//330
f 331//331 329//329 330//330
f 331//331 330//330 332//332
f 333//333 331//331 332//332
f 334//334 333//333 332//332
f 334//334 332//332 335//335
f 336//336 334//334 335//335
f 336//336 335//335 337//337
f 369//369 370//370 371//371
f 371//371 372//372 369//369
f 371//371 373//373 372//372
f 374//374 373//373 371//371
f 374//374 375//375 373//373
f 374//374 376//376 375//375
f 377//377 376//376 374//374
f 377//377 369//369 376//376
f 370//370 369//369 377//377
f 378//378 379//379 380//380
f 379//379 378//378 381//381
f 379//379 381//381 382//382
f 383//383 379//379 382//382
f 383//383 382//382 384//384
f 383//383 384//384 385//385
f 386//386 383//383 385//385
f 386//386 385//385 378//378
f 380//380 386//386 378//378
f 423//423 424//424 425//425
f 425//425 424//424 426//426
f 427//427 428//428 424//424
f 424//424 428//428 429//429
f 430//430 431//431 432//432
f 432//432 431//431 433//433
f 434//434 435//435 431//431
f 431//431 435//435 436//436
f 429//429 438//438 426//426
f 441//441 442//442 440//440
f 443//443 438//438 429//429
f 443//443 429//429 439//439
f 444//444 445//445 441//441
f 438//438 437//437 426//426
f 426//426 437//437 446//446
f 447//447 439//439 429//429
f 445//445 442//442 441//441
f 465//465 427//427 466//466
f 466//466 427//427 423//423
f 465//465 467//467 468//468
f 465//465 468//468 469//469
f 469//469 470//470 471//471
f 471//471 472//472 473//473
f 471//471 473//473 474//474
f 473//473 466//466 423//423
f 475//475 476//476 436//436
f 475//475 436//436 477//477
f 478//478 436//436 479//479
f 476//476 475//475 433//433
f 480//480 433//433 481//481
f 481//481 482//482 483//483
f 481//481 483//483 479//479
f 479//479 435//435 485//485
f 485//485 435//435 484//484
f 481//481 485//485 432//432
f 432//432 485//485 486//486
f 433//433 431//431 476//476
f 469//469 487//487 428//428
f 428//428 487//487 440//440
f 487//487 488//488 440//440
f 488//488 425//425 441//441
f 432//432 486//486 430//430
f 484//484 486//486 485//485
f 431//431 430//430 434//434
f 434//434 484//484 435//435
f 481//481 432//432 480//480
f 433//433 480//480 432//432
f 485//485 481//481 479//479
f 436//436 476//476 431//431
f 435//435 479//479 436//436
f 441//441 440//440 488//488
f 428//428 440//440 429//429
f 426//426 441//441 425//425
f 424//424 429//429 426//426
f 425//425 474//474 423//423
f 474//474 473//473 423//423
f 424//424 423//423 427//427
f 471//471 474//474 488//488
f 488//488 474//474 425//425
f 471//471 488//488 487//487
f 428//428 427//427 469//469
f 469//469 427//427 465//465
f 469//469 471//471 487//487
f 434//434 489//489 484//484
f 486//486 491//491 430//430
f 493//493 430//430 491//491
f 486//486 494//494 495//495
f 486//486 495//495 491//491
f 496//496 490//490 434//434
f 434//434 490//490 497//497
f 434//434 497//497 489//489
f 489//489 497//497 498//498
f 484//484 492//492 499//499
f 489//489 492//492 484//484
f 486//486 484//484 499//499
f 499//499 489//489 498//498
f 496//496 434//434 430//430
f 498//498 496//496 430//430
f 499//499 498//498 430//430
f 430//430 493//493 500//500
f 499//499 430//430 500//500
f 499//499 500//500 501//501
f 501//501 491//491 495//495
f 499//499 501//501 495//495
f 499//499 495//495 502//502
f 486//486 499//499 502//502
f 486//486 502//502 494//494
f 503//503 442//442 445//445
f 503//503 445//445 504//504
f 505//505 503//503 504//504
f 506//506 444//444 441//441
f 506//506 441//441 426//426
f 504//504 506//506 426//426
f 505//505 504//504 426//426
f 505//505 426//426 446//446
f 505//505 446//446 438//438
f 505//505 438//438 443//443
f 505//505 443//443 447//447
f 507//507 505//505 447//447
f 507//507 447//447 429//429
f 507//507 429//429 440//440
f 442//442 507//507 440//440
f 508//508 509//509 510//510
f 510//510 509//509 511//511
f 510//510 511//511 512//512
f 513//513 514//514 508//508
f 508//508 514//514 515//515
f 508//508 515//515 509//509
f 515//515 514//514 516//516
f 516//516 514//514 517//517
f 516//516 517//517 518//518
f 519//519 515//515 516//516
f 511//511 509//509 520//520
f 520//520 509//509 521//521
f 520//520 521//521 522//522
f 523//523 511//511 520//520
f 526//526 527//527 524//524
f 524//524 527//527 528//528
f 524//524 528//528 525//525
f 529//529 526//526 530//530
f 530//530 531//531 529//529
f 529//529 532//532 526//526
f 526//526 532//532 533//533
f 526//526 533//533 527//527
f 533//533 532//532 534//534
f 534//534 532//532 535//535
f 536//536 537//537 534//534
f 534//534 537//537 533//533
f 528//528 527//527 538//538
f 538//538 527//527 539//539
f 540//540 541//541 538//538
f 538//538 541//541 528//528
f 542//542 543//543 544//544
f 545//545 543//543 546//546
f 591//591 592//592 524//524
f 524//524 525//525 591//591
f 594//594 595//595 596//596
f 595//595 597//597 596//596
f 595//595 598//598 597//597
f 508//508 594//594 599//599
f 599//599 513//513 508//508
f 598//598 595//595 510//510
f 510//510 512//512 598//598
f 599//599 594//594 600//600
f 594//594 601//601 600//600
f 594//594 596//596 601//601
f 601//601 602//602 600//600
f 602//602 603//603 600//600
f 602//602 604//604 603//603
f 605//605 606//606 604//604
f 605//605 601//601 606//606
f 605//605 602//602 601//601
f 597//597 607//607 596//596
f 607//607 608//608 596//596
f 607//607 609//609 608//608
f 610//610 611//611 609//609
f 610//610 597//597 611//611
f 610//610 607//607 597//597
f 530//530 592//592 612//612
f 592//592 613//613 612//612
f 592//592 591//591 613//613
f 531//531 530//530 615//615
f 530//530 616//616 615//615
f 530//530 612//612 616//616
f 616//616 617//617 615//615
f 617//617 618//618 615//615
f 618//618 619//619 615//615
f 618//618 620//620 619//619
f 620//620 617//617 621//621
f 617//617 616//616 621//621
f 613//613 622//622 612//612
f 622//622 623//623 612//612
f 624//624 622//622 625//625
f 622//622 613//613 625//625
f 544//544 626//626 627//627
f 627//627 542//542 544//544
f 627//627 626//626 628//628
f 626//626 629//629 628//628
f 629//629 546//546 543//543
