# Created by Open3D 
# object name: InfoWheels Cab Side Mirror-Mirror
# number of vertices: 924
# number of triangles: 947
v -10.8191 -130.158 5.33809
vn -0.0468422 -0.998869 -0.00818933
v -11.3872 -130.123 4.5074
vn -0.0467284 -0.998846 -0.0110988
v -9.76162 -130.21 5.74506
vn -0.0435089 -0.999036 -0.00588693
v -9.1744 -130.216 3.74758
vn -0.0402278 -0.999124 -0.0115697
v -9.28223 -130.224 5.60429
vn 0.0131738 -0.999524 0.0278942
v -8.70834 -130.211 2.00529
vn -0.0264543 -0.999572 -0.0124896
v -9.76323 -130.18 2.97023
vn -0.0455807 -0.998866 -0.0137233
v -10.1896 -130.134 1.21565
vn -0.0476443 -0.998748 -0.0152719
v -15.2011 -129.945 4.44463
vn -0.0470303 -0.998839 -0.0104166
v -15.7692 -129.894 2.66502
vn -0.0473263 -0.998757 -0.0156135
v -13.2598 -130.026 3.68985
vn -0.046686 -0.998824 -0.0130467
v -16.3473 -129.888 4.31158
vn -0.052444 -0.998588 -0.00848058
v -16.4949 -129.837 1.47144
vn -0.0495278 -0.99859 -0.0191017
v -17.1044 -129.834 3.13327
vn -0.0580502 -0.998229 -0.012966
v -17.3299 -129.816 3.43111
vn -0.116025 -0.99318 0.0115053
v -16.4802 -129.879 4.59757
vn -0.0853643 -0.995738 0.0349033
v -15.1341 -129.951 5.17447
vn -0.0541948 -0.998482 0.00981141
v -13.3968 -130.037 5.32017
vn -0.0472944 -0.998865 -0.00569577
v -12.1333 -130.096 6.09351
vn -0.0533492 -0.998137 0.0295916
v -13.0959 -130.019 2.66059
vn -0.0470988 -0.998763 -0.0159555
v -11.746 -129.943 -6.8471
vn -0.0484726 -0.998765 -0.0108781
v -9.78119 -130.034 -7.20696
vn -0.047718 -0.998786 -0.0121916
v -9.39342 -130.074 -5.41291
vn -0.0472271 -0.998798 -0.0131106
v -12.4504 -129.933 -4.62426
vn -0.0495374 -0.998693 -0.0125654
v -9.04463 -130.062 -7.67449
vn -0.0429771 -0.998983 -0.0136135
v -8.66083 -130.126 -4.15134
vn -0.0403086 -0.999086 -0.014201
v -9.73608 -130.018 -8.60128
vn -0.0469589 -0.998795 -0.0142855
v -8.97484 -130.045 -8.85029
vn -0.0275691 -0.999282 -0.026
v -11.5383 -129.923 -9.13974
vn -0.0484825 -0.998641 -0.0191301
v -10.0722 -130.092 -1.83608
vn -0.0488763 -0.99869 -0.0151746
v -11.3349 -130.018 -2.59407
vn -0.0500685 -0.998633 -0.0149761
v -8.90074 -130.173 -0.144729
vn -0.0431484 -0.99896 -0.0147016
v -8.47075 -130.163 -1.96045
vn -0.024948 -0.99959 -0.014025
v -11.6334 -130.046 0.0794053
vn -0.0487517 -0.998676 -0.0164356
v -12.6434 -129.882 -8.37357
vn -0.0479521 -0.998767 -0.0128764
v -14.5438 -129.808 -6.84982
vn -0.0478989 -0.998804 -0.00983961
v -16.1627 -129.722 -7.69129
vn -0.0487199 -0.998724 -0.0132938
v -16.1436 -129.8 -1.36256
vn -0.0497046 -0.998605 -0.0178316
v -17.7129 -129.712 -1.63068
vn -0.0605972 -0.998001 -0.0179617
v -17.6574 -129.771 1.30981
vn -0.0737713 -0.997125 -0.0173174
v -14.8917 -129.898 0.576362
vn -0.0480325 -0.998672 -0.0186546
v -16.2961 -129.741 -4.89564
vn -0.0495652 -0.998727 -0.00937642
v -16.9534 -129.678 -7.9331
vn -0.0557035 -0.998238 -0.020433
v -14.791 -129.774 -8.61576
vn -0.0496852 -0.998537 -0.0213492
v -17.7913 -129.649 -6.50945
vn -0.0585421 -0.998239 -0.00958485
v -17.3226 -129.698 -4.02501
vn -0.0540809 -0.998469 -0.011607
v -13.259 -129.976 0.624153
vn -0.0477505 -0.998703 -0.0176593
v -12.9263 -129.952 -1.72476
vn -0.0491774 -0.998661 -0.0160796
v -14.2324 -129.867 -3.09505
vn -0.0491005 -0.998682 -0.0149248
v -16.0067 -129.776 -3.30817
vn -0.0501789 -0.998635 -0.0144784
v -18.0101 -129.664 -3.26715
vn -0.083523 -0.996424 -0.0128099
v -9.19142 -130.028 2.45005
vn 0.0526241 0.998509 0.0145021
v -9.97033 -129.995 2.84373
vn 0.0482962 0.998728 0.014456
v -11.0596 -129.965 4.53891
vn 0.0473319 0.998792 0.01321
v -9.9096 -130.031 5.34745
vn 0.0494861 0.998637 0.0166155
v -9.1155 -130.07 4.97466
vn 0.0663442 0.997633 0.0180531
v -8.6255 -130.041 1.09294
vn 0.0754098 0.997023 0.0160482
v -10.0935 -130.035 5.99994
vn 0.0522923 0.998307 0.0254833
v -12.3195 -129.921 5.51139
vn 0.0452473 0.998804 0.0185099
v -12.9174 -129.852 2.62021
vn 0.0470906 0.998782 0.0147341
v -16.4855 -129.722 4.54377
vn 0.0168142 0.99865 0.0491509
v -15.8116 -129.749 4.64227
vn 0.0417082 0.998882 0.0222516
v -16.5025 -129.69 2.91862
vn 0.0432996 0.998918 0.016963
v -17.1387 -129.68 3.65072
vn 0.0113713 0.999532 0.028392
v -15.1414 -129.772 4.29409
vn 0.0455904 0.998837 0.0157062
v -13.1732 -129.825 1.69063
vn 0.0473466 0.99873 0.017209
v -12.9631 -129.898 5.70534
vn 0.0413345 0.998582 0.033559
v -10.5613 -129.817 -7.68284
vn 0.0493351 0.998742 0.00897511
v -9.31113 -129.87 -9.01681
vn 0.0578267 0.998287 -0.00888957
v -8.81047 -129.903 -8.20867
vn 0.0702735 0.997519 0.00427756
v -9.06006 -129.898 -7.17604
vn 0.05257 0.99856 0.0106687
v -8.48852 -129.949 -5.88434
vn 0.0841083 0.99639 0.011512
v -9.03051 -129.92 -5.48149
vn 0.0552408 0.998384 0.0133315
v -10.2492 -129.859 -5.33714
vn 0.0503906 0.99865 0.0126159
v -12.3967 -129.75 -5.4881
vn 0.0489646 0.998737 0.0112727
v -11.9116 -129.747 -8.50316
vn 0.0472309 0.998868 0.00568337
v -11.0394 -129.786 -9.08464
vn 0.0468764 0.998901 2.34248e-05
v -11.2584 -129.84 -3.03999
vn 0.0499641 0.998642 0.0147327
v -9.72619 -129.939 -1.54614
vn 0.0507378 0.998596 0.0152286
v -12.3743 -129.81 -1.38004
vn 0.0491064 0.998659 0.0163762
v -8.53207 -129.983 -3.11581
vn 0.0680108 0.997576 0.0146893
v -8.92233 -129.981 -1.62076
vn 0.055099 0.998369 0.0149761
v -11.3469 -129.895 0.724474
vn 0.0483828 0.998695 0.0163482
v -13.4992 -129.684 -6.78356
vn 0.04792 0.998811 0.00899202
v -14.8326 -129.643 -4.47545
vn 0.0489781 0.998728 0.0119949
v -16.1526 -129.573 -4.98027
vn 0.048066 0.998792 0.0102556
v -16.0282 -129.56 -7.5809
vn 0.0447259 0.998995 0.00277179
v -15.6848 -129.575 -8.29861
vn 0.0419583 0.999105 -0.005284
v -15.3266 -129.699 0.461269
vn 0.0478065 0.998681 0.018742
v -16.7666 -129.624 0.101003
vn 0.0459817 0.998753 0.0194688
v -17.4813 -129.607 0.731201
vn 0.0354462 0.999144 0.0213056
v -17.689 -129.554 -1.45747
vn 0.0345062 0.999244 0.0178876
v -16.7492 -129.581 -2.24268
vn 0.0487416 0.998688 0.0157199
v -14.6032 -129.702 -1.34224
vn 0.0488891 0.998659 0.0170332
v -16.2276 -129.556 -6.57942
vn 0.0462785 0.998904 0.00702222
v -17.4796 -129.505 -6.00032
vn 0.0392214 0.999211 0.00632655
v -17.2358 -129.527 -4.49616
vn 0.0442648 0.998964 0.0105702
v -17.7414 -129.493 -6.59069
vn 0.0238672 0.999714 0.00141376
v -17.8564 -129.509 -4.00796
vn 0.0215239 0.999692 0.0123544
v -17.1686 -129.512 -7.42389
vn 0.0345017 0.999396 -0.00421416
v -14.0937 -129.699 -3.04037
vn 0.049278 0.998676 0.01473
v -12.5513 -129.762 -4.01264
vn 0.049473 0.998682 0.0136602
v -17.4044 -129.539 -2.94965
vn 0.044546 0.998899 0.0147097
v -10.2543 -130.036 6.22297
vn 0.0561312 0.996446 0.0628125
v -9.23012 -130.083 5.64435
vn 0.126416 0.989436 0.070964
v -9.84371 -130.068 6.23104
vn 0.176797 0.934645 0.308515
v -10.2366 -130.055 6.34959
vn 0.0893463 0.95488 0.283232
v -9.52935 -130.082 6.04425
vn 0.270604 0.920642 0.281411
v -9.19986 -130.097 5.67477
vn 0.382019 0.895536 0.228205
v -9.84214 -130.08 6.24998
vn 0.372606 -0.0966067 0.922947
v -10.0941 -130.069 6.33229
vn 0.224471 -0.094951 0.969844
v -9.62185 -130.09 6.13112
vn 0.544304 -0.126238 0.829335
v -9.84218 -130.076 6.2477
vn 0.357783 0.505082 0.785419
v -10.0939 -130.065 6.32982
vn 0.214485 0.547627 0.808765
v -9.62218 -130.086 6.1291
vn 0.510577 0.435918 0.741139
v -9.34905 -130.1 5.88247
vn 0.746004 -0.0902704 0.659795
v -9.26812 -130.099 5.78676
vn 0.752229 0.371333 0.544301
v -9.43158 -130.093 5.9751
vn 0.639913 0.415243 0.646595
v -10.537 -130.049 6.38318
vn 0.0456513 -0.0794411 0.995794
v -10.3797 -130.052 6.37439
vn 0.104407 0.547038 0.830572
v -10.6937 -130.037 6.38681
vn 0.0259301 0.584932 0.810667
v -10.8612 -130.022 6.36875
vn 0.0326666 0.957911 0.2852
v -11.8625 -129.96 6.13707
vn 0.0361884 0.996628 0.0736419
v -11.6592 -129.988 6.29149
vn -0.000553478 0.948713 0.316139
v -11.2069 -130.016 6.35717
vn -0.0982302 -0.083044 0.991693
v -11.0301 -130.021 6.37246
vn -0.0297422 0.595377 0.802896
v -11.383 -130.005 6.33674
vn -0.07097 0.584651 0.808175
v -8.88999 -130.084 4.63025
vn 0.134145 0.990431 0.0324273
v -8.72363 -130.098 4.08296
vn 0.436215 0.896403 0.0785964
v -8.58484 -130.07 2.46715
vn 0.145914 0.98906 0.021647
v -8.54123 -130.087 2.67116
vn 0.475716 0.878358 0.0467004
v -8.78144 -130.109 4.47763
vn 0.976992 -0.0653494 0.203017
v -8.64067 -130.105 3.63243
vn 0.988969 -0.0607861 0.135077
v -8.74358 -130.105 4.28479
vn 0.887438 0.430191 0.165495
v -8.82265 -130.106 4.67014
vn 0.879503 0.43031 0.203245
v -8.62808 -130.103 3.5119
vn 0.90496 0.409545 0.115413
v -8.5333 -130.098 2.6719
vn 0.99414 -0.0586705 0.0907965
v -8.52337 -130.093 2.54656
vn 0.924707 0.371725 0.0820816
v -8.95965 -130.109 5.15916
vn 0.9442 -0.0709856 0.321634
v -8.91068 -130.106 5.00994
vn 0.869251 0.422093 0.257372
v -9.01162 -130.105 5.30727
vn 0.85136 0.404584 0.333913
v -8.96768 -130.099 5.1561
vn 0.396608 0.9079 0.13572
v -9.12823 -130.107 5.5662
vn 0.878667 -0.0963965 0.467603
v -9.12945 -130.103 5.56518
vn 0.82079 0.369602 0.435545
v -17.1456 -129.696 3.88563
vn -0.220361 0.96223 0.159855
v -16.7689 -129.719 4.41437
vn -0.331756 0.879882 0.340213
v -17.0986 -129.764 4.0137
vn -0.840614 0.155827 0.518735
v -17.3052 -129.699 3.60087
vn -0.911886 0.0774972 0.403062
v -16.8626 -129.727 4.32765
vn -0.744176 0.215063 0.632416
v -17.2369 -129.701 3.75484
vn -0.796005 0.460195 0.393188
v -16.5271 -129.747 4.66139
vn -0.630044 0.188407 0.753357
v -17.3689 -129.69 3.44742
vn -0.815682 0.475309 0.329764
v -17.6004 -129.672 2.72085
vn -0.958788 0.0564709 0.278452
v -17.4895 -129.679 3.10012
vn -0.797493 0.540493 0.26809
v -17.4267 -129.681 3.27409
vn -0.278403 0.952388 0.12429
v -17.7238 -129.647 2.10269
vn -0.280237 0.956392 0.0823531
v -17.6113 -129.643 2.31796
vn -0.0438265 0.998368 0.0366193
v -17.7361 -129.655 2.10966
vn -0.981229 0.057605 0.18404
v -17.5977 -129.668 2.72115
vn -0.786655 0.576171 0.221814
v -17.6929 -129.657 2.31873
vn -0.779566 0.598597 0.184279
v -14.7954 -129.817 5.40242
vn 0.0203002 0.995571 0.0917943
v -15.2513 -129.808 5.35061
vn -0.074225 0.936643 0.342332
v -15.8594 -129.777 5.0884
vn -0.134596 0.922048 0.36292
v -14.0371 -129.872 5.73541
vn -0.0669194 0.918948 0.38866
v -15.7164 -129.796 5.1727
vn -0.406334 0.142694 0.902514
v -14.8209 -129.84 5.50214
vn -0.313548 -0.0143204 0.949464
v -15.5965 -129.798 5.22562
vn -0.33586 0.421587 0.842296
v -15.327 -129.812 5.33223
vn -0.288436 0.464847 0.837091
v -14.9327 -129.831 5.46811
vn -0.252038 0.479585 0.840521
v -14.2583 -129.865 5.67572
vn -0.217733 0.521371 0.825084
v -16.1545 -129.771 4.93775
vn -0.50543 0.230568 0.831492
v -16.3446 -129.748 4.79165
vn -0.18339 0.929692 0.31944
v -12.8636 -129.924 6.03463
vn -0.0240522 0.954432 0.297458
v -12.7301 -129.943 6.08786
vn -0.231228 -0.0601177 0.97104
v -11.936 -129.981 6.25382
vn -0.179431 -0.0742264 0.980966
v -12.521 -129.95 6.13458
vn -0.151652 0.574567 0.804285
v -13.328 -129.912 5.9359
vn -0.188245 0.544108 0.817625
v -12.1249 -129.968 6.21758
vn -0.129517 0.572263 0.809778
v -11.7467 -129.987 6.28503
vn -0.105826 0.551817 0.827224
v -13.6064 -129.9 5.86391
vn -0.263822 -0.04016 0.963735
v -8.39953 -129.947 -7.0957
vn 0.193647 0.981068 0.0027103
v -8.58119 -129.928 -8.44926
vn 0.263173 0.963173 -0.0551233
v -8.83429 -129.914 -9.03822
vn 0.199878 0.974998 -0.0970985
v -8.41773 -129.951 -7.62879
vn 0.463932 0.885108 -0.0367567
v -8.48089 -129.95 -8.12195
vn 0.981129 -0.055883 -0.185101
v -8.39995 -129.961 -7.5391
vn 0.994226 -0.0577109 -0.0904677
v -8.44947 -129.95 -7.93938
vn 0.879968 0.459006 -0.122352
v -8.40176 -129.957 -7.53865
vn 0.899177 0.429255 -0.0849823
v -8.51583 -129.942 -8.30241
vn 0.868772 0.456068 -0.192969
v -8.74496 -129.979 -8.91864
vn 0.862843 -0.0490983 -0.503082
v -8.61205 -129.988 -8.63005
vn 0.935989 -0.0544316 -0.347795
v -8.74312 -129.924 -8.9158
vn 0.727702 0.556329 -0.401182
v -8.6105 -129.933 -8.62785
vn 0.814798 0.504517 -0.2856
v -8.36305 -129.965 -7.10009
vn 0.898909 0.433761 -0.0617609
v -8.30258 -129.987 -5.89762
vn 0.997686 -0.0576326 -0.0360584
v -8.32093 -129.976 -6.39029
vn 0.914083 0.40373 -0.0381315
v -8.30571 -129.979 -5.89728
vn 0.527554 0.849492 -0.00702692
v -8.28736 -129.99 -5.40461
vn 0.926255 0.376602 -0.0149029
v -9.85339 -129.847 -9.5518
vn 0.0566862 0.997181 -0.049158
v -11.8551 -129.752 -9.3607
vn 0.0441456 0.99891 -0.0151331
v -12.0374 -129.75 -9.55373
vn 0.0366018 0.997935 -0.0527887
v -11.1767 -129.803 -9.81976
vn 0.0329028 0.985212 -0.168153
v -10.3719 -129.843 -9.8398
vn 0.0722989 0.923416 -0.376928
v -9.86301 -129.864 -9.7288
vn 0.116043 0.96221 -0.246345
v -9.86368 -129.871 -9.74149
vn 0.271725 0.530462 -0.802979
v -11.126 -129.836 -9.91163
vn 0.0139298 0.714003 -0.700004
v -9.41062 -129.941 -9.55698
vn 0.479951 -0.0287226 -0.876825
v -9.14657 -129.898 -9.3764
vn 0.271084 0.904616 -0.328912
v -9.14915 -129.956 -9.38298
vn 0.61547 -0.0352005 -0.787374
v -8.92562 -129.967 -9.1699
vn 0.749269 -0.0410956 -0.66099
v -8.92335 -129.912 -9.16641
vn 0.612379 0.608766 -0.504376
v -8.38275 -130.001 -2.79174
vn 0.115092 0.993237 0.0152996
v -8.28016 -130.011 -3.69247
vn 0.453222 0.891314 0.0122244
v -8.30702 -130.032 -1.8892
vn 0.407685 0.912891 0.0205487
v -8.27373 -130.008 -4.40696
vn 0.998305 -0.0581047 -0.00329086
v -8.27519 -130.005 -4.40679
vn 0.925535 0.378658 0.00181954
v -8.27776 -130.019 -3.37855
vn 0.93561 0.35283 0.0120402
v -8.28856 -130.036 -2.4383
vn 0.998188 -0.0578634 0.016521
v -8.29177 -130.034 -2.30386
vn 0.928277 0.371191 0.0227869
v -8.39391 -130.036 -0.576118
vn 0.181982 0.983102 0.0198054
v -8.31926 -130.052 -1.1837
vn 0.997523 -0.0589068 0.0384526
v -8.31604 -130.047 -1.32645
vn 0.920524 0.389266 0.0332958
v -8.36902 -130.06 -0.0383428
vn 0.484736 0.874063 0.0323307
v -8.44645 -130.085 1.49753
vn 0.996392 -0.0582944 0.0616847
v -8.43937 -130.08 1.36358
vn 0.929541 0.364448 0.0559641
v -8.35383 -130.06 -0.323071
vn 0.930998 0.362355 0.044077
v -15.2581 -129.601 -8.73886
vn 0.0366322 0.998889 -0.0296417
v -14.5928 -129.64 -9.07787
vn 0.0211349 0.995302 -0.0944841
v -15.3809 -129.614 -8.90872
vn -0.0342187 0.972108 -0.232023
v -12.6311 -129.736 -9.59363
vn 0.0166972 0.989762 -0.141744
v -12.1569 -129.779 -9.78576
vn -0.0198954 0.942514 -0.333573
v -14.2202 -129.674 -9.28184
vn -0.0223832 0.967828 -0.250614
v -14.8382 -129.669 -9.16662
vn -0.23632 0.549292 -0.801518
v -17.924 -129.565 -0.742953
vn -0.00915376 0.999703 0.0225964
v -17.9209 -129.597 0.471093
vn -0.118005 0.992413 0.0345242
v -17.9576 -129.6 0.322809
vn -0.330623 0.942374 0.0511762
v -17.9346 -129.616 0.674988
vn -0.993308 0.0591884 0.0991772
v -17.9221 -129.616 0.793064
vn -0.760255 0.642653 0.094923
v -17.842 -129.633 1.46884
vn -0.766739 0.629421 0.126256
v -17.7738 -129.646 1.90106
vn -0.771955 0.617184 0.152214
v -17.9914 -129.595 -0.0280293
vn -0.75087 0.657273 0.0647003
v -18.051 -129.574 -1.09811
vn -0.997155 0.0591602 0.0467134
v -18.0605 -129.56 -1.45165
vn -0.251497 0.967377 0.0304984
v -18.0814 -129.553 -1.95859
vn -0.743061 0.667965 0.0410284
v -16.7884 -129.534 -8.11438
vn 0.0183877 0.998982 -0.0411992
v -17.1474 -129.536 -8.03078
vn -0.159478 0.955011 -0.250041
v -17.4938 -129.513 -7.6409
vn -0.0891749 0.989977 -0.109518
v -16.0044 -129.576 -8.60953
vn -0.00765417 0.992325 -0.123424
v -16.7276 -129.558 -8.32856
vn -0.288658 0.756536 -0.586797
v -17.0197 -129.546 -8.1391
vn -0.574132 0.111491 -0.811136
v -17.6021 -129.523 -7.57312
vn -0.800756 0.0584218 -0.596134
v -17.2843 -129.588 -7.93151
vn -0.663272 0.0572783 -0.746184
v -17.505 -129.523 -7.69869
vn -0.583029 0.622479 -0.522109
v -17.2786 -129.533 -7.92829
vn -0.482891 0.668138 -0.566046
v -15.9214 -129.598 -8.72806
vn -0.193034 0.819459 -0.539653
v -18.1024 -129.497 -6.11382
vn -0.109397 0.993915 -0.0128208
v -18.1347 -129.496 -5.48753
vn -0.184806 0.982775 0.000411281
v -17.9928 -129.494 -5.17726
vn 0.00251069 0.999973 0.00689906
v -18.1544 -129.512 -4.30375
vn -0.254603 0.966882 0.017789
v -18.0094 -129.501 -6.67341
vn -0.200816 0.977818 -0.0595395
v -18.1523 -129.509 -5.58861
vn -0.995793 0.0738079 -0.0542951
v -18.0604 -129.507 -6.4995
vn -0.977757 0.0738143 -0.196325
v -18.1156 -129.504 -6.11318
vn -0.71526 0.694007 -0.0822058
v -18.057 -129.504 -6.49943
vn -0.715172 0.683543 -0.145937
v -18.1497 -129.505 -5.70008
vn -0.714061 0.698965 -0.0395548
v -18.1679 -129.516 -4.62283
vn -0.997741 0.0630398 0.0231949
v -18.161 -129.519 -4.30329
vn -0.738903 0.67347 0.0214648
v -18.1651 -129.507 -5.27105
vn -0.717135 0.696855 -0.0105089
v -17.9717 -129.51 -6.84827
vn -0.951465 0.073116 -0.298946
v -17.9685 -129.506 -6.84786
vn -0.733877 0.63587 -0.238941
v -17.8548 -129.566 -7.16326
vn -0.9072 0.0706347 -0.414729
v -17.8481 -129.51 -7.16171
vn -0.707024 0.623115 -0.334432
v -17.7545 -129.495 -7.05347
vn -0.00200423 0.999888 -0.0148465
v -17.7682 -129.509 -7.30187
vn -0.173845 0.977732 -0.117554
v -17.6941 -129.515 -7.44424
vn -0.640115 0.640678 -0.424009
v -18.0499 -129.526 -2.69381
vn -0.0946285 0.99532 0.0195775
v -18.1604 -129.626 -3.98465
vn -0.997868 0.0609152 0.0234341
v -17.3112 -129.802 3.60001
vn -0.91517 0.0513445 0.399784
v -17.1011 -129.821 4.01323
vn -0.813945 -0.346154 0.466552
v -17.2434 -129.811 3.75392
vn -0.844723 -0.368997 0.387666
v -16.8696 -129.835 4.32684
vn -0.762782 -0.156495 0.627434
v -17.0107 -129.836 4.12156
vn -0.315752 -0.932361 0.17608
v -17.3376 -129.807 3.5136
vn -0.384624 -0.914265 0.127215
v -16.5744 -129.861 4.61447
vn -0.326029 -0.900332 0.288284
v -16.5335 -129.857 4.66024
vn -0.646091 -0.148765 0.748622
v -17.6076 -129.789 2.32604
vn -0.119219 -0.992861 -0.00375939
v -17.6697 -129.773 2.41481
vn -0.352262 -0.934391 0.0531571
v -17.4981 -129.786 3.09893
vn -0.951244 0.0543463 0.303613
v -17.3753 -129.8 3.44651
vn -0.842725 -0.439027 0.311561
v -17.4959 -129.789 3.09921
vn -0.835431 -0.49013 0.248651
v -17.6541 -129.77 2.51879
vn -0.970893 0.0544501 0.233242
v -17.6994 -129.768 2.3178
vn -0.827179 -0.537887 0.162642
v -17.6042 -129.778 2.72023
vn -0.831105 -0.518167 0.201909
v -17.9312 -129.722 0.792058
vn -0.992974 0.0580441 0.103115
v -17.9182 -129.727 0.906919
vn -0.807755 -0.584694 0.0752625
v -17.9711 -129.714 0.326533
vn -0.802073 -0.595116 0.0501561
v -17.8169 -129.746 1.68388
vn -0.9858 0.0582853 0.157482
v -17.8485 -129.743 1.46789
vn -0.81104 -0.576449 0.099604
v -17.8664 -129.744 1.2453
vn -0.307224 -0.951529 0.0143342
v -18.0016 -129.707 -0.387744
vn -0.170138 -0.985343 -0.0123565
v -17.9997 -129.706 -0.150334
vn -0.38658 -0.922248 0.00372368
v -17.7804 -129.756 1.90013
vn -0.817028 -0.56233 0.127475
v -18.0954 -129.662 -2.2406
vn -0.29724 -0.954784 -0.00594117
v -18.0285 -129.69 -0.507579
vn -0.996672 0.0589437 0.0563011
v -18.0273 -129.694 -0.507473
vn -0.793972 -0.607288 0.028453
v -18.0752 -129.671 -1.57089
vn -0.806497 -0.59094 0.0187977
v -18.1207 -129.646 -2.91351
vn -0.78722 -0.61647 0.0158089
v -18.1576 -129.63 -3.98492
vn -0.780419 -0.625043 0.0163491
v -18.1285 -129.621 -5.9091
vn -0.267109 -0.963398 -0.0227446
v -18.0129 -129.634 -6.20894
vn -0.0890388 -0.995963 -0.011366
v -18.1678 -129.624 -4.8415
vn -0.322307 -0.946615 -0.0061001
v -18.1716 -129.622 -4.62411
vn -0.794001 -0.607907 0.00339345
v -18.1267 -129.61 -6.11449
vn -0.990525 0.0746953 -0.115241
v -18.0237 -129.612 -6.67536
vn -0.965438 0.0751419 -0.249565
v -18.1238 -129.614 -6.11472
vn -0.77352 -0.626615 -0.0949772
v -18.0653 -129.614 -6.50103
vn -0.799252 -0.578265 -0.163724
v -18.1606 -129.611 -5.70114
vn -0.996724 0.0708263 -0.0390424
v -18.1577 -129.614 -5.70147
vn -0.771245 -0.634795 -0.0470652
v -18.0181 -129.619 -6.67508
vn -0.190448 -0.98056 -0.0472376
v -18.1727 -129.617 -5.27229
vn -0.778557 -0.627286 -0.0190195
v -17.453 -129.651 -7.64827
vn -0.0943667 -0.994423 -0.0470898
v -17.7764 -129.627 -7.30339
vn -0.257017 -0.95832 -0.124763
v -17.3979 -129.641 -7.81286
vn -0.22498 -0.957496 -0.180517
v -17.9765 -129.617 -6.84942
vn -0.76445 -0.600307 -0.235049
v -17.8559 -129.62 -7.16319
vn -0.734292 -0.593233 -0.329986
v -17.5144 -129.63 -7.70194
vn -0.756547 0.0634525 -0.650854
v -17.704 -129.622 -7.44694
vn -0.841976 0.0681283 -0.535196
v -17.5125 -129.633 -7.70009
vn -0.620186 -0.596254 -0.509755
v -17.7017 -129.626 -7.44565
vn -0.702863 -0.561804 -0.436302
v -16.8819 -129.656 -8.23559
vn -0.536719 -0.386742 -0.749909
v -16.4148 -129.661 -8.50918
vn -0.455672 -0.254677 -0.852937
v -16.2431 -129.683 -8.58447
vn -0.151209 -0.957161 -0.246937
v -16.8725 -129.67 -8.19588
vn -0.108174 -0.988307 -0.107459
v -17.2866 -129.643 -7.92986
vn -0.536926 -0.623014 -0.568827
v -15.8814 -129.712 -8.65417
vn -0.0736113 -0.993193 -0.0902684
v -13.6025 -129.82 -9.11959
vn -0.0542145 -0.997629 -0.0423843
v -14.4801 -129.763 -9.16637
vn -0.0787868 -0.988704 -0.1275
v -15.7803 -129.697 -8.7864
vn -0.26629 -0.775525 -0.572408
v -14.6 -129.738 -9.21161
vn -0.150034 -0.915503 -0.373288
v -13.4722 -129.789 -9.5042
vn -0.101475 -0.960853 -0.257806
v -12.234 -129.871 -9.60466
vn -0.0605024 -0.994571 -0.0846653
v -10.1178 -129.978 -9.61668
vn -0.0421748 -0.997639 -0.0541974
v -10.938 -129.924 -9.8376
vn -0.0514847 -0.991404 -0.120278
v -11.9417 -129.853 -9.84854
vn -0.107373 -0.857522 -0.503117
v -11.3285 -129.889 -9.87935
vn -0.0678647 -0.918563 -0.389405
v -10.0293 -129.934 -9.79847
vn 0.212535 -0.356329 -0.909867
v -9.70805 -129.974 -9.69399
vn 0.340089 -0.241924 -0.908742
v -9.95025 -129.968 -9.75543
vn 0.0351147 -0.962237 -0.26994
v -10.5616 -129.931 -9.86525
vn -0.00102237 -0.86238 -0.506261
v -9.42169 -130.017 -9.32813
vn -0.0301787 -0.998754 -0.0397339
v -9.07132 -130.018 -9.29239
vn 0.23374 -0.919913 -0.314843
v -8.68762 -130.043 -8.76648
vn 0.20392 -0.970044 -0.132028
v -9.41437 -129.998 -9.54412
vn 0.165129 -0.913051 -0.372921
v -8.74977 -130.034 -8.91641
vn 0.633563 -0.665924 -0.393882
v -8.93002 -130.022 -9.16695
vn 0.533945 -0.681198 -0.500872
v -8.45386 -130.057 -7.94097
vn 0.990438 -0.0598698 -0.124289
v -8.4561 -130.06 -7.9402
vn 0.791626 -0.597879 -0.125974
v -8.40836 -130.067 -7.53952
vn 0.835678 -0.541188 -0.0935837
v -8.5203 -130.049 -8.30442
vn 0.972236 -0.0584515 -0.226585
v -8.52246 -130.052 -8.30315
vn 0.792533 -0.575997 -0.200295
v -8.41165 -130.088 -7.08154
vn 0.0745975 -0.996972 -0.0219692
v -8.49148 -130.06 -8.12066
vn 0.284876 -0.955434 -0.0774093
v -8.36035 -130.082 -6.85552
vn 0.317122 -0.94768 -0.0365498
v -8.60384 -130.07 -8.06392
vn -0.00252541 -0.999725 -0.0233024
v -8.61714 -130.043 -8.62851
vn 0.747124 -0.596221 -0.293813
v -8.38143 -130.124 -4.80597
vn 0.00326445 -0.99988 -0.0151538
v -8.29441 -130.116 -4.78007
vn 0.305825 -0.951939 -0.016815
v -8.35219 -130.075 -6.8677
vn 0.99592 -0.0602674 -0.0671592
v -8.34368 -130.079 -6.68779
vn 0.85324 -0.518269 -0.058136
v -8.2946 -130.097 -5.4049
vn 0.997953 -0.0593067 -0.023926
v -8.30073 -130.097 -5.65312
vn 0.857513 -0.513427 -0.0326196
v -8.28366 -130.127 -3.37348
vn 0.998276 -0.05829 0.00689898
v -8.28151 -130.122 -3.89888
vn 0.87224 -0.489075 -0.00191324
v -8.28358 -130.112 -4.65828
vn 0.872676 -0.488094 -0.0141746
v -8.35665 -130.16 -2.18367
vn 0.0641864 -0.997861 -0.012361
v -8.30154 -130.147 -2.36473
vn 0.407215 -0.913318 -0.00514609
v -8.35288 -130.172 -0.683701
vn 0.32811 -0.944639 0.000722866
v -8.3013 -130.145 -2.16325
vn 0.868812 -0.495 0.0118326
v -8.30868 -130.148 -1.75015
vn 0.997911 -0.0595656 0.0250014
v -8.33861 -130.165 -0.897954
vn 0.863239 -0.504178 0.0249535
v -8.37206 -130.171 -0.0391395
vn 0.997253 -0.0593259 0.0443552
v -8.39988 -130.181 0.532753
vn 0.865256 -0.499999 0.0364991
v -8.44893 -130.197 1.01773
vn 0.112312 -0.993661 -0.00480526
v -8.50064 -130.203 2.15924
vn 0.396326 -0.91779 0.0242084
v -8.68831 -130.226 3.38947
vn 0.00738112 -0.99996 -0.00504224
v -8.46016 -130.19 1.63367
vn 0.996137 -0.0606698 0.0634918
v -8.48895 -130.198 2.03017
vn 0.87637 -0.478328 0.0563677
v -8.53929 -130.201 2.66904
vn 0.993977 -0.0612098 0.0909011
v -8.55262 -130.206 2.79343
vn 0.845988 -0.52756 0.0773646
v -8.78734 -130.214 4.46923
vn 0.975859 -0.0810953 0.202788
v -8.74985 -130.216 4.2763
vn 0.788406 -0.596677 0.149645
v -8.82887 -130.217 4.6593
vn 0.768262 -0.613985 0.181096
v -8.64662 -130.209 3.62742
vn 0.988602 -0.0656566 0.135479
v -8.67952 -130.214 3.85399
vn 0.807721 -0.577539 0.118471
v -8.85862 -130.223 4.7396
vn 0.282943 -0.956519 0.0708189
v -8.68924 -130.22 3.84372
vn 0.30672 -0.950845 0.0426199
v -8.61767 -130.211 3.39913
vn 0.822514 -0.56035 0.0973642
v -9.02755 -130.23 4.81695
vn -0.00873206 -0.999961 -0.00122348
v -9.07835 -130.218 5.41579
vn 0.228384 -0.967935 0.10461
v -9.35746 -130.21 5.85747
vn 0.195682 -0.960924 0.195791
v -8.96548 -130.214 5.14597
vn 0.938053 -0.120422 0.324894
v -8.91685 -130.217 4.99631
vn 0.743208 -0.630653 0.223424
v -9.01777 -130.216 5.29087
vn 0.705956 -0.648098 0.285647
v -9.27315 -130.206 5.77058
vn 0.823965 -0.218303 0.522902
v -9.27444 -130.209 5.76694
vn 0.582502 -0.678613 0.447411
v -9.13564 -130.214 5.54656
vn 0.66712 -0.646643 0.369871
v -9.73861 -130.188 6.17506
vn 0.434818 -0.33962 0.834021
v -10.2439 -130.165 6.34119
vn 0.14524 -0.292968 0.945027
v -9.84935 -130.187 6.231
vn 0.210443 -0.760763 0.613966
v -10.1012 -130.175 6.31448
vn 0.109032 -0.763885 0.636075
v -9.62907 -130.196 6.11082
vn 0.351569 -0.74242 0.570274
v -9.74032 -130.196 6.16225
vn 0.0835783 -0.972518 0.217312
v -10.3228 -130.169 6.33606
vn -0.0126575 -0.971949 0.234849
v -10.6405 -130.167 6.24572
vn -0.0423636 -0.997597 0.0548181
v -9.76275 -130.208 6.03544
vn -0.0158698 -0.999275 0.0345969
v -9.43622 -130.182 5.96468
vn 0.667712 -0.251531 0.700637
v -9.43818 -130.203 5.95557
vn 0.473363 -0.714607 0.515038
v -11.2135 -130.126 6.33627
vn -0.0708194 -0.966139 0.248111
v -10.8688 -130.136 6.3689
vn -0.0442336 -0.22011 0.974472
v -10.387 -130.162 6.35961
vn 0.0269388 -0.761011 0.648179
v -10.7009 -130.147 6.37213
vn -0.0376072 -0.75132 0.658865
v -11.5714 -130.102 6.30059
vn -0.145024 -0.151528 0.977756
v -11.5714 -130.102 6.30059
vn -0.122133 -0.716812 0.686487
v -11.037 -130.132 6.35778
vn -0.0836995 -0.738022 0.669566
v -12.3292 -130.066 6.16802
vn -0.205867 -0.107655 0.97264
v -13.1666 -130.025 5.97413
vn -0.247624 -0.0707103 0.966273
v -12.8408 -130.043 6.0529
vn -0.210372 -0.642841 0.736545
v -12.1359 -130.079 6.20153
vn -0.16897 -0.678008 0.71537
v -12.3397 -130.072 6.15377
vn -0.0952853 -0.965592 0.241977
v -15.0357 -129.952 5.37008
vn -0.0701281 -0.99486 0.07305
v -14.0441 -129.989 5.72897
vn -0.132041 -0.945094 0.298934
v -14.453 -129.962 5.61446
vn -0.292036 -0.0315407 0.955887
v -13.9387 -129.99 5.76374
vn -0.245116 -0.598261 0.762891
v -14.9392 -129.942 5.46408
vn -0.285596 -0.537415 0.793486
v -15.4678 -129.912 5.27826
vn -0.369572 -0.00413551 0.929193
v -16.0017 -129.885 5.02521
vn -0.483428 -0.222128 0.846733
v -15.603 -129.909 5.22302
vn -0.37243 -0.445433 0.814178
v -15.3335 -129.923 5.32907
vn -0.325218 -0.482838 0.813081
v -15.4522 -129.919 5.2733
vn -0.15644 -0.948026 0.277081
v -16.1618 -129.885 4.92559
vn -0.294421 -0.8741 0.386348
v -15.8795 -129.658 -8.76765
vn -0.402882 -0.0139339 -0.915146
v -15.2854 -129.695 -9.00662
vn -0.297106 -0.529081 -0.794859
v -14.7197 -129.715 -9.19753
vn -0.280807 -0.481973 -0.82997
v -13.0896 -129.759 -9.64054
vn -0.0860668 0.830298 -0.550634
v -14.1011 -129.708 -9.37877
vn -0.13471 0.772578 -0.620465
v -13.0903 -129.771 -9.6458
vn -0.176135 0.414221 -0.892971
v -13.8476 -129.731 -9.45345
vn -0.231063 0.329039 -0.915611
v -14.3557 -129.72 -9.31464
vn -0.286363 -0.172847 -0.942401
v -13.7218 -129.748 -9.48934
vn -0.254016 -0.286845 -0.923686
v -13.7213 -129.756 -9.48182
vn -0.184373 -0.791151 -0.58317
v -12.9665 -129.782 -9.67143
vn -0.213717 -0.389374 -0.895942
v -12.4946 -129.815 -9.75856
vn -0.135731 -0.85294 -0.504055
v -12.3777 -129.808 -9.79107
vn -0.178007 -0.376105 -0.909318
v -11.9402 -129.828 -9.85956
vn -0.138312 -0.304258 -0.942495
v -11.5251 -129.847 -9.90378
vn -0.0842228 -0.20279 -0.975594
v -11.1276 -129.864 -9.92072
vn -0.0250505 -0.196168 -0.98025
v -11.4263 -129.861 -9.90522
vn -0.0884907 -0.593978 -0.7996
v -11.5244 -129.836 -9.90369
vn -0.0655492 0.211762 -0.975121
v -11.9395 -129.817 -9.85947
vn -0.11052 0.309434 -0.944477
v -11.8927 -129.809 -9.85338
vn -0.0478597 0.768373 -0.638211
v -12.377 -129.797 -9.79097
vn -0.14434 0.380822 -0.913313
v -10.3751 -129.895 -9.87465
vn 0.14896 0.00614286 -0.988824
v -10.7422 -129.866 -9.91339
vn 0.0710972 0.345018 -0.935899
v 85.3945 -130.119 5.22039
vn 0.0468724 -0.998864 -0.00859213
v 84.5176 -130.148 4.10508
vn 0.04671 -0.998837 -0.0119212
v 84.0377 -130.186 6.03214
vn 0.0444913 -0.999001 0.00428262
v 83.3753 -130.214 5.3893
vn 0.043134 -0.999044 -0.00714753
v 83.0372 -130.224 5.6043
vn -0.0131776 -0.999524 0.0278941
v 82.9294 -130.216 3.74758
vn 0.0402291 -0.999123 -0.0115697
v 82.4633 -130.211 2.00529
vn 0.0264545 -0.999572 -0.0124898
v 83.5182 -130.18 2.97023
vn 0.0458732 -0.998852 -0.0138031
v 84.4121 -130.128 2.23392
vn 0.0473742 -0.998765 -0.014969
v 89.3454 -129.927 4.53323
vn 0.0486378 -0.998783 -0.00815118
v 87.4954 -130.002 3.59359
vn 0.0466599 -0.998828 -0.0128874
v 90.3218 -129.86 2.97103
vn 0.0499016 -0.998647 -0.0146123
v 87.8141 -129.957 1.66655
vn 0.0472214 -0.998736 -0.0172238
v 90.9284 -129.829 3.03986
vn 0.0636358 -0.997904 -0.0117503
v 90.4338 -129.869 4.37561
vn 0.0731924 -0.997313 0.00295333
v 87.1734 -130.036 5.53991
vn 0.0487687 -0.99881 0.000925435
v 86.2225 -130.048 2.6433
vn 0.0470489 -0.998773 -0.0154416
v 85.3827 -129.951 -6.64997
vn 0.0485273 -0.998762 -0.0109753
v 86.2241 -129.893 -8.17494
vn 0.0479689 -0.998773 -0.0123352
v 82.7996 -130.062 -7.67449
vn 0.0453063 -0.998891 -0.0128075
v 86.2054 -129.933 -4.62426
vn 0.0495374 -0.998693 -0.0125658
v 83.1518 -130.073 -5.52165
vn 0.0470949 -0.998804 -0.0131373
v 82.4276 -130.125 -4.1509
vn 0.0398807 -0.999103 -0.0142178
v 82.7298 -130.045 -8.85028
vn 0.0275692 -0.999282 -0.0259995
v 83.8368 -130 -8.70316
vn 0.0468552 -0.998796 -0.014557
v 85.7315 -129.903 -9.06494
vn 0.0484872 -0.998638 -0.0192492
v 83.352 -130.104 -2.60104
vn 0.0484736 -0.998718 -0.0146135
v 84.7307 -130.042 -2.2115
vn 0.0499162 -0.99864 -0.01508
v 84.6212 -130.082 -0.0173596
vn 0.0486791 -0.998685 -0.0160823
v 82.6557 -130.173 -0.144729
vn 0.0432066 -0.998957 -0.0147539
v 82.2257 -130.163 -1.96045
vn 0.0249473 -0.99959 -0.014025
v 87.9963 -129.823 -6.75735
vn 0.0481615 -0.99879 -0.00995408
v 89.9177 -129.722 -7.69129
vn 0.0488041 -0.998724 -0.0130074
v 88.3234 -129.823 -5.15057
vn 0.0488072 -0.998744 -0.0113072
v 89.8986 -129.8 -1.36256
vn 0.0497038 -0.998605 -0.0178323
v 91.4678 -129.712 -1.63068
vn 0.0604208 -0.998012 -0.0179476
v 89.9393 -129.853 1.47661
vn 0.0494087 -0.998591 -0.0193362
v 91.1761 -129.784 1.20111
vn 0.0578996 -0.998142 -0.0189762
v 87.8085 -129.931 0.224297
vn 0.0481198 -0.998677 -0.0181463
v 90.2868 -129.711 -6.93807
vn 0.0496552 -0.998726 -0.00899899
v 88.5459 -129.774 -8.61575
vn 0.0496835 -0.998537 -0.0213479
v 91.3683 -129.653 -7.11227
vn 0.0608835 -0.998076 -0.0116939
v 90.7038 -129.712 -4.52507
vn 0.0520571 -0.998591 -0.0103427
v 91.6026 -129.667 -4.11645
vn 0.0674756 -0.997658 -0.0112477
v 87.351 -129.917 -1.89123
vn 0.0490144 -0.998665 -0.0163045
v 86.2325 -129.964 -2.36924
vn 0.0495945 -0.998649 -0.0155176
v 88.7362 -129.822 -3.59115
vn 0.0493466 -0.998683 -0.0140655
v 90.9381 -129.72 -2.96261
vn 0.0533225 -0.998477 -0.0141668
v 82.4971 -130.044 1.80292
vn -0.058885 0.998157 0.0146686
v 83.8664 -129.987 2.78285
vn -0.048621 0.998715 0.014272
v 83.1172 -130.059 5.17004
vn -0.0630389 0.997834 0.0187852
v 84.033 -130.014 5.43584
vn -0.0471046 0.998762 0.0160154
v 84.1238 -130.022 6.06112
vn -0.0497999 0.998437 0.0253598
v 85.2294 -129.939 4.02469
vn -0.0471076 0.998799 0.0134771
v 89.2781 -129.764 4.74173
vn -0.0414054 0.998833 0.0248496
v 89.5265 -129.765 5.03868
vn -0.0206607 0.997394 0.0691264
v 90.3759 -129.702 3.98617
vn -0.0412919 0.998975 0.0185377
v 90.6591 -129.696 4.01388
vn 0.00521958 0.998838 0.0479037
v 91.0648 -129.65 2.51671
vn -0.0276988 0.999401 0.0207375
v 88.3724 -129.793 4.08105
vn -0.0460868 0.998832 0.0144859
v 88.4669 -129.764 2.39563
vn -0.0469416 0.998757 0.0167419
v 86.7968 -129.894 5.67838
vn -0.0412779 0.998614 0.0326516
v 85.7693 -129.875 1.41645
vn -0.0478213 0.998721 0.0163924
v 83.4216 -129.853 -8.60797
vn -0.0501759 0.99871 0.00774815
v 83.066 -129.87 -9.01681
vn -0.0577967 0.998285 -0.0093028
v 82.5654 -129.903 -8.20868
vn -0.0702678 0.997519 0.00428004
v 82.815 -129.898 -7.17604
vn -0.0525711 0.99856 0.0106686
v 82.2435 -129.949 -5.88435
vn -0.0841067 0.99639 0.0115106
v 82.7855 -129.92 -5.48149
vn -0.0552415 0.998384 0.0133315
v 84.0042 -129.859 -5.33713
vn -0.0503906 0.99865 0.0126158
v 84.3163 -129.817 -7.68283
vn -0.0485732 0.998771 0.00989702
v 86.4208 -129.744 -4.91816
vn -0.0490451 0.998722 0.0122337
v 85.6665 -129.747 -8.50316
vn -0.047137 0.998874 0.00533409
v 85.285 -129.763 -9.11023
vn -0.0464382 0.998916 -0.00331322
v 84.0454 -129.893 -2.73186
vn -0.0506851 0.998604 0.014853
v 83.2245 -129.982 0.404887
vn -0.0506018 0.998598 0.0155351
v 82.2871 -129.983 -3.11581
vn -0.0680145 0.997576 0.0146894
v 82.7069 -129.973 -2.07805
vn -0.0554137 0.998353 0.0148842
v 87.4979 -129.737 -1.70153
vn -0.0489898 0.998663 0.0164685
v 87.2541 -129.684 -6.78356
vn -0.0479199 0.998811 0.00899214
v 88.9306 -129.635 -3.82851
vn -0.0491387 0.998706 0.0131159
v 89.7235 -129.574 -5.83244
vn -0.0474971 0.998836 0.00845633
v 89.5735 -129.569 -7.55615
vn -0.0456629 0.99895 0.00370555
v 89.4397 -129.575 -8.29861
vn -0.0419585 0.999105 -0.00528287
v 88.0306 -129.73 -0.627163
vn -0.048261 0.998673 0.0179484
v 90.0346 -129.66 0.779908
vn -0.0465647 0.998726 0.0194645
v 91.2362 -129.607 0.731201
vn -0.0354459 0.999144 0.021306
v 91.4439 -129.554 -1.45747
vn -0.0330216 0.999287 0.01833
v 90.5118 -129.593 -1.55599
vn -0.0478309 0.998697 0.0177939
v 90.6594 -129.544 -4.41646
vn -0.0459635 0.998883 0.010943
v 90.7133 -129.523 -6.61783
vn -0.0434001 0.999043 0.00549621
v 91.4803 -129.495 -6.16429
vn -0.0300136 0.999541 0.00403601
v 91.5227 -129.512 -3.90708
vn -0.0354799 0.999291 0.0126242
v 90.9235 -129.512 -7.42389
vn -0.0344982 0.999396 -0.00421618
v 86.3466 -129.771 -3.22763
vn -0.0496481 0.998659 0.0146678
v 91.1593 -129.539 -2.94965
vn -0.0450543 0.998877 0.0146476
v 83.5672 -130.055 6.09171
vn -0.0725393 0.995472 0.0614299
v 83.0075 -130.077 5.57824
vn -0.110468 0.992588 0.0506554
v 83.1068 -130.091 5.87662
vn -0.337896 0.903918 0.26222
v 83.4888 -130.073 6.17585
vn -0.209168 0.93003 0.302148
v 83.9916 -130.055 6.34959
vn -0.0893689 0.954839 0.283365
v 83.189 -130.148 5.96816
vn -0.677212 -0.189779 0.710892
v 82.9527 -130.105 5.67717
vn -0.842776 -0.0880589 0.531013
v 83.3768 -130.09 6.13112
vn -0.543869 -0.116402 0.831058
v 83.1866 -130.093 5.9751
vn -0.639634 0.416124 0.646305
v 83.0231 -130.099 5.78676
vn -0.752091 0.371761 0.544199
v 83.3771 -130.086 6.1291
vn -0.510783 0.435123 0.741464
v 83.5971 -130.08 6.24998
vn -0.380112 -0.102621 0.91923
v 83.849 -130.069 6.33229
vn -0.225151 -0.0883091 0.970314
v 83.5971 -130.076 6.2477
vn -0.332494 0.515902 0.789489
v 83.8489 -130.065 6.32982
vn -0.203691 0.55163 0.808835
v 84.292 -130.049 6.38318
vn -0.0442071 -0.0833144 0.995542
v 84.1347 -130.052 6.37439
vn -0.104391 0.547791 0.830077
v 84.4487 -130.037 6.38681
vn -0.0212696 0.589696 0.807345
v 84.9618 -130.016 6.35717
vn 0.0982321 -0.0832072 0.991679
v 85.138 -130.005 6.33674
vn 0.0709166 0.585016 0.807916
v 84.785 -130.021 6.37247
vn 0.0297332 0.595469 0.802828
v 84.6161 -130.022 6.36876
vn -0.0326724 0.957924 0.285156
v 85.4141 -129.988 6.29149
vn 0.00635098 0.937423 0.348136
v 84.9582 -129.992 6.24499
vn -0.0430642 0.996201 0.0756922
v 82.5663 -130.081 4.14138
vn -0.13427 0.990496 0.0298209
v 82.2962 -130.087 2.67116
vn -0.47518 0.878651 0.0466634
v 82.4786 -130.098 4.08295
vn -0.436119 0.896451 0.0785871
v 82.3647 -130.104 3.40422
vn -0.992055 -0.0592244 0.110992
v 82.4617 -130.108 4.07277
vn -0.98394 -0.0656939 0.165969
v 82.3662 -130.101 3.40412
vn -0.906356 0.406668 0.114633
v 82.3012 -130.096 2.79696
vn -0.918959 0.383343 0.0925376
v 82.4282 -130.104 3.86055
vn -0.895237 0.424041 0.136894
v 82.62 -130.11 4.84035
vn -0.965156 -0.0676366 0.252782
v 82.4985 -130.105 4.28479
vn -0.885203 0.433779 0.168084
v 82.5776 -130.106 4.67014
vn -0.876641 0.43456 0.206538
v 82.7651 -130.109 5.30797
vn -0.927611 -0.0809984 0.36466
v 82.6656 -130.106 5.00994
vn -0.87026 0.419811 0.257694
v 82.7665 -130.105 5.30727
vn -0.850635 0.406422 0.33353
v 82.8844 -130.103 5.56518
vn -0.821134 0.368513 0.435818
v 82.8083 -130.096 5.35661
vn -0.387087 0.907284 0.164315
v 90.5238 -129.719 4.41437
vn 0.332033 0.879675 0.340478
v 90.9006 -129.696 3.88563
vn 0.220087 0.962322 0.159683
v 90.6176 -129.727 4.32765
vn 0.742228 0.223717 0.631703
v 90.1457 -129.756 4.76804
vn 0.583947 0.208272 0.78462
v 90.8496 -129.711 4.01415
vn 0.825005 0.241668 0.510846
v 91.0601 -129.699 3.60088
vn 0.911799 0.0761488 0.403515
v 90.9919 -129.701 3.75484
vn 0.794999 0.462327 0.392723
v 91.2469 -129.683 3.09979
vn 0.957887 0.0565692 0.281517
v 91.1238 -129.69 3.44743
vn 0.813529 0.47939 0.329175
v 91.2444 -129.679 3.10013
vn 0.795909 0.54473 0.264195
v 91.5455 -129.646 1.78916
vn 0.984339 0.056997 0.166819
v 91.3615 -129.775 2.71998
vn 0.965702 0.0560601 0.253529
v 91.4478 -129.657 2.31873
vn 0.78021 0.597743 0.184326
v 91.3527 -129.668 2.72115
vn 0.787347 0.575138 0.222038
v 91.4788 -129.647 2.10269
vn 0.27988 0.956502 0.0822844
v 91.3662 -129.643 2.31796
vn 0.0438045 0.998369 0.0366158
v 91.1816 -129.681 3.2741
vn 0.277999 0.95252 0.124186
v 88.099 -129.842 5.57794
vn -0.016154 0.993683 0.111053
v 89.0063 -129.808 5.35061
vn 0.074199 0.936668 0.342269
v 89.6143 -129.777 5.0884
vn 0.134641 0.922 0.363027
v 87.792 -129.872 5.73541
vn 0.0566639 0.933477 0.354134
v 89.14 -129.812 5.30789
vn 0.364078 -0.002586 0.931365
v 87.7922 -129.879 5.74
vn 0.277479 -0.0318576 0.960203
v 88.6877 -129.831 5.46811
vn 0.251572 0.481708 0.839446
v 87.6873 -129.883 5.76981
vn 0.210078 0.522148 0.826576
v 89.082 -129.812 5.33222
vn 0.288043 0.46652 0.836296
v 89.7004 -129.781 5.05848
vn 0.445955 0.250569 0.859267
v 89.3515 -129.798 5.22562
vn 0.339726 0.422539 0.840266
v 90.0996 -129.748 4.79165
vn 0.183771 0.929456 0.319904
v 86.276 -129.933 6.08363
vn -0.0127748 0.985806 0.167403
v 85.6909 -129.981 6.25382
vn 0.179398 -0.0787528 0.980619
v 85.5017 -129.987 6.28504
vn 0.105908 0.551278 0.827572
v 86.0779 -129.961 6.17731
vn 0.138865 0.573757 0.807168
v 86.2761 -129.953 6.13704
vn 0.230611 -0.0618813 0.971076
v 86.5894 -129.936 6.06203
vn 0.177211 0.538672 0.823668
v 86.4847 -129.936 6.08296
vn 0.0458055 0.91908 0.391399
v 82.3361 -129.928 -8.44926
vn -0.263019 0.963218 -0.055067
v 82.5892 -129.914 -9.03823
vn -0.199644 0.975061 -0.0969423
v 82.1545 -129.947 -7.0957
vn -0.193541 0.981089 0.00271676
v 82.367 -129.988 -8.63005
vn -0.936526 -0.0543145 -0.346365
v 82.4999 -129.979 -8.91864
vn -0.862876 -0.0485535 -0.503077
v 82.2722 -129.997 -8.30407
vn -0.976924 -0.0589566 -0.205288
v 82.3654 -129.933 -8.62785
vn -0.815934 0.502438 -0.286023
v 82.4981 -129.924 -8.91581
vn -0.72965 0.552837 -0.402471
v 82.2708 -129.942 -8.30241
vn -0.870298 0.452945 -0.193449
v 82.1356 -129.965 -7.31972
vn -0.994179 -0.0584044 -0.0905329
v 82.2044 -129.95 -7.93938
vn -0.87902 0.461954 -0.117991
v 82.1567 -129.957 -7.53865
vn -0.902556 0.422387 -0.0835567
v 82.1726 -129.951 -7.62879
vn -0.462549 0.885838 -0.0365938
v 82.0742 -129.979 -6.39045
vn -0.997117 -0.0578556 -0.0490865
v 82.118 -129.965 -7.10009
vn -0.89995 0.43158 -0.0618734
v 82.0875 -129.972 -6.63318
vn -0.918579 0.392316 -0.0479701
v 82.0348 -130.001 -4.90587
vn -0.998252 -0.0575074 -0.0135966
v 82.0505 -129.988 -5.71419
vn -0.919985 0.391358 -0.0216061
v 82.0607 -129.979 -5.89728
vn -0.527395 0.849591 -0.00701282
v 83.7623 -129.837 -9.45375
vn -0.048074 0.99866 -0.0191597
v 84.4919 -129.812 -9.76008
vn -0.0506113 0.99687 -0.0607345
v 84.1268 -129.843 -9.83981
vn -0.0721107 0.944592 -0.320228
v 85.0783 -129.803 -9.85176
vn -0.0305555 0.984551 -0.17241
v 84.8815 -129.846 -9.91902
vn -0.0246947 0.70196 -0.711788
v 83.7815 -129.887 -9.79741
vn -0.246118 0.333024 -0.910232
v 83.4572 -129.88 -9.69353
vn -0.341672 0.394223 -0.85314
v 83.6988 -129.861 -9.75488
vn -0.128593 0.953989 -0.270866
v 83.1656 -129.941 -9.55698
vn -0.479974 -0.0283801 -0.876823
v 82.9041 -129.956 -9.38298
vn -0.615491 -0.0348787 -0.787372
v 83.0321 -129.891 -9.46262
vn -0.185803 0.96069 -0.206283
v 82.9014 -129.9 -9.37851
vn -0.481083 0.676176 -0.557984
v 82.6806 -129.967 -9.1699
vn -0.752921 -0.0426127 -0.65673
v 82.6783 -129.912 -9.16641
vn -0.614241 0.605379 -0.506186
v 82.1377 -130.001 -2.79174
vn -0.0998186 0.99488 0.0158321
v 82.0351 -130.011 -3.69248
vn -0.453418 0.891214 0.0122192
v 82.0321 -130.001 -4.65737
vn -0.927211 0.374534 -0.00197072
v 82.0452 -130.038 -2.30394
vn -0.998218 -0.0583815 0.0123174
v 82.03 -130.013 -3.89799
vn -0.932992 0.359788 0.00882395
v 82.0415 -130.03 -2.57834
vn -0.929382 0.36857 0.0201263
v 82.062 -130.032 -1.8892
vn -0.403433 0.914788 0.0201128
v 82.0742 -130.052 -1.1837
vn -0.99762 -0.0572632 0.0383994
v 82.0674 -130.045 -1.46648
vn -0.922943 0.38364 0.0315624
v 82.2038 -130.053 0.661801
vn -0.180633 0.98332 0.0212851
v 82.124 -130.06 -0.0383453
vn -0.484916 0.873963 0.0323318
v 82.1088 -130.06 -0.323073
vn -0.93139 0.361351 0.0440376
v 82.2287 -130.09 1.89456
vn -0.996135 -0.0590253 0.0650441
v 82.1483 -130.071 0.533839
vn -0.931651 0.359241 0.0545142
v 82.2375 -130.088 2.03243
vn -0.924021 0.376036 0.0691576
v 86.4404 -129.713 -9.20119
vn -0.0428096 0.998974 -0.0147835
v 89.013 -129.601 -8.73886
vn -0.0366317 0.998889 -0.0296411
v 86.3088 -129.726 -9.46273
vn -0.0342283 0.997982 -0.0534751
v 88.9399 -129.611 -8.87465
vn -0.0198125 0.996192 -0.0849073
v 89.2379 -129.611 -8.88401
vn 0.0525252 0.962442 -0.266358
v 88.3509 -129.68 -9.2308
vn 0.103535 0.872016 -0.478402
v 87.9752 -129.674 -9.28184
vn 0.022383 0.967828 -0.250613
v 86.3861 -129.736 -9.59363
vn -0.0166968 0.989762 -0.141748
v 85.6953 -129.793 -9.84965
vn 0.0233358 0.898057 -0.439259
v 91.679 -129.565 -0.742955
vn 0.00915401 0.999703 0.0225963
v 91.6758 -129.597 0.471092
vn 0.117943 0.99242 0.0345215
v 91.5288 -129.646 1.90106
vn 0.775464 0.61264 0.152737
v 91.6269 -129.629 1.24572
vn 0.766037 0.63206 0.116993
v 91.6801 -129.619 0.792945
vn 0.992895 0.0590933 0.103279
v 91.6903 -129.614 0.678189
vn 0.757941 0.646789 0.0847852
v 91.7126 -129.6 0.322809
vn 0.329794 0.942668 0.0511058
v 91.7417 -129.601 0.0914733
vn 0.995911 0.0601825 0.0673709
v 91.7695 -129.586 -0.386818
vn 0.752015 0.656358 0.0605579
v 91.8217 -129.567 -1.45161
vn 0.997408 0.0595926 0.0403268
v 91.8217 -129.567 -1.45161
vn 0.744872 0.665875 0.0421349
v 91.8154 -129.56 -1.45165
vn 0.251505 0.967376 0.0304883
v 90.768 -129.526 -8.11867
vn 0.0603736 0.990362 -0.124649
v 91.1419 -129.522 -7.80758
vn 0.142164 0.97423 -0.175113
v 91.0356 -129.536 -7.93078
vn 0.666825 0.059394 -0.742844
v 91.2659 -129.578 -7.70128
vn 0.756934 0.0612079 -0.650619
v 90.7747 -129.546 -8.1391
vn 0.539086 0.151554 -0.828503
v 91.0336 -129.533 -7.92829
vn 0.482984 0.668081 -0.566034
v 91.2599 -129.523 -7.69869
vn 0.583068 0.622409 -0.522148
v 90.1625 -129.576 -8.50504
vn 0.324441 0.610358 -0.722634
v 90.3212 -129.562 -8.41053
vn 0.17851 0.896168 -0.406224
v 89.6289 -129.595 -8.73796
vn 0.0480314 0.974678 -0.218395
v 89.2406 -129.642 -8.9257
vn 0.304192 0.445799 -0.841861
v 91.7413 -129.501 -4.48028
vn -0.00475096 0.999935 0.010404
v 91.8993 -129.499 -5.48668
vn 0.175319 0.984511 0.00113057
v 91.8574 -129.497 -6.11383
vn 0.105549 0.994333 -0.0127001
v 91.9094 -129.512 -4.30375
vn 0.254157 0.967 0.017776
v 91.9158 -129.509 -5.48532
vn 0.996325 0.0753433 -0.0407399
v 91.9174 -129.518 -4.41028
vn 0.997768 0.0627799 0.0227556
v 91.9201 -129.507 -5.27106
vn 0.726215 0.687384 -0.010754
v 91.916 -129.519 -4.30329
vn 0.739915 0.672372 0.0209965
v 91.9047 -129.504 -5.70008
vn 0.747794 0.662639 -0.0413991
v 91.8447 -129.507 -6.30627
vn 0.984821 0.076603 -0.155754
v 91.8706 -129.504 -6.11318
vn 0.721227 0.687168 -0.0873619
v 91.812 -129.504 -6.49943
vn 0.720313 0.676425 -0.153614
v 91.7644 -129.501 -6.67341
vn 0.2012 0.977732 -0.059652
v 91.6664 -129.512 -7.00541
vn 0.931074 0.0717162 -0.357713
v 91.7234 -129.506 -6.84786
vn 0.734659 0.634912 -0.239089
v 91.6031 -129.51 -7.16171
vn 0.707013 0.623196 -0.334304
v 91.4554 -129.57 -7.44628
vn 0.843015 0.0646282 -0.533994
v 91.4492 -129.515 -7.44425
vn 0.640038 0.640709 -0.42408
v 91.5232 -129.509 -7.30187
vn 0.17355 0.977804 -0.11739
v 91.5094 -129.495 -7.05347
vn 0.00199811 0.999888 -0.0148464
v 91.8049 -129.526 -2.69381
vn 0.094612 0.995322 0.0195771
v 91.8588 -129.536 -2.69522
vn 0.740379 0.671199 0.0364753
v 90.8568 -129.82 4.01325
vn 0.879384 -0.0673188 0.471331
v 90.7054 -129.828 4.23302
vn 0.791601 -0.15552 0.590916
v 90.9983 -129.811 3.75393
vn 0.842922 -0.366299 0.394091
v 90.4601 -129.845 4.50348
vn 0.704205 -0.136493 0.696754
v 90.6984 -129.84 4.20355
vn 0.327259 -0.923999 0.197807
v 90.3293 -129.861 4.61448
vn 0.408742 -0.820235 0.40018
v 91.0926 -129.807 3.51361
vn 0.385314 -0.913925 0.127569
v 91.0848 -129.816 3.43111
vn 0.148784 -0.988632 0.0216923
v 91.4404 -129.774 1.73083
vn 0.104163 -0.994513 -0.00966265
v 91.4247 -129.773 2.41481
vn 0.352389 -0.934341 0.0531811
v 91.4972 -129.758 2.10879
vn 0.979704 0.0560066 0.192467
v 91.1926 -129.791 3.27259
vn 0.941139 0.0536972 0.333728
v 91.3593 -129.778 2.72023
vn 0.831129 -0.518117 0.201938
v 91.4544 -129.768 2.3178
vn 0.823967 -0.543068 0.161726
v 91.2509 -129.789 3.09921
vn 0.838035 -0.485172 0.249611
v 91.1303 -129.8 3.44651
vn 0.840721 -0.443413 0.310762
v 91.6059 -129.74 1.46778
vn 0.990002 0.0576078 0.128751
v 91.7364 -129.707 0.20692
vn 0.995143 0.0580207 0.0795288
v 91.6603 -129.731 1.02178
vn 0.804724 -0.590005 0.0656729
v 91.7287 -129.71 0.326504
vn 0.80102 -0.59695 0.0449153
v 91.6035 -129.743 1.46789
vn 0.815271 -0.570302 0.100444
v 91.5353 -129.756 1.90013
vn 0.820578 -0.556955 0.128268
v 91.6214 -129.744 1.2453
vn 0.307109 -0.951567 0.0143078
v 91.7546 -129.706 -0.150332
vn 0.305023 -0.952341 -0.00277008
v 91.7226 -129.691 -1.79007
vn 0.0913137 -0.995689 -0.0162771
v 91.8564 -129.657 -2.68646
vn 0.275674 -0.961222 -0.00754176
v 91.8277 -129.67 -1.45248
vn 0.997502 0.057902 0.0404672
v 91.8059 -129.681 -0.982128
vn 0.798388 -0.601663 0.0240417
v 91.9224 -129.622 -4.30422
vn 0.997891 0.0606987 0.0230012
v 91.8685 -129.649 -2.69605
vn 0.786514 -0.617363 0.0160739
v 91.8371 -129.631 -5.74175
vn 0.131274 -0.991276 -0.0117806
v 91.9227 -129.624 -4.84151
vn 0.342242 -0.939592 -0.00612374
v 91.9282 -129.619 -4.78599
vn 0.78998 -0.613133 -0.000561264
v 91.8523 -129.61 -6.30774
vn 0.984866 0.0750205 -0.15624
v 91.9155 -129.611 -5.70114
vn 0.996925 0.0675646 -0.0396862
v 91.8787 -129.614 -6.11472
vn 0.774006 -0.627223 -0.086639
v 91.8202 -129.614 -6.50103
vn 0.795759 -0.584887 -0.157079
v 91.9126 -129.614 -5.70147
vn 0.771092 -0.635761 -0.0349933
v 91.8927 -129.618 -5.90838
vn 0.290112 -0.956646 -0.0257672
v 91.773 -129.619 -6.67508
vn 0.269624 -0.960764 -0.0650837
v 91.2079 -129.651 -7.64827
vn 0.0943615 -0.994424 -0.0470807
v 91.6128 -129.629 -7.07871
vn 0.188592 -0.979577 -0.0697285
v 91.36 -129.633 -7.5713
vn 0.243809 -0.957074 -0.156734
v 91.6134 -129.617 -7.16396
vn 0.910369 0.0735647 -0.407205
v 91.4566 -129.626 -7.44565
vn 0.702854 -0.561819 -0.436298
v 91.2675 -129.633 -7.70009
vn 0.620228 -0.596181 -0.509789
v 91.6109 -129.62 -7.16319
vn 0.733357 -0.594578 -0.329642
v 91.7342 -129.613 -6.84973
vn 0.950821 0.0748332 -0.300566
v 91.7314 -129.617 -6.84942
vn 0.761147 -0.604928 -0.233917
v 90.4885 -129.672 -8.3402
vn 0.377455 -0.651069 -0.658511
v 90.9128 -129.644 -8.03651
vn 0.625813 0.0276183 -0.779484
v 90.7817 -129.653 -8.13752
vn 0.445266 -0.683039 -0.578961
v 91.0415 -129.643 -7.92986
vn 0.536559 -0.623709 -0.568412
v 90.9104 -129.651 -8.03086
vn 0.219501 -0.950028 -0.221959
v 90.7083 -129.678 -7.9331
vn 0.0576834 -0.997954 -0.0275628
v 89.6364 -129.712 -8.65417
vn 0.07362 -0.993189 -0.0903049
v 87.3574 -129.82 -9.11959
vn 0.0542143 -0.997629 -0.0423818
v 88.2351 -129.763 -9.16637
vn 0.0787932 -0.988702 -0.127512
v 88.355 -129.738 -9.21161
vn 0.144135 -0.93197 -0.332651
v 89.7311 -129.691 -8.70592
vn 0.263882 -0.803753 -0.533243
v 86.252 -129.845 -9.67218
vn 0.0848309 -0.977299 -0.194139
v 87.6055 -129.76 -9.45676
vn 0.159332 -0.846776 -0.507527
v 85.4912 -129.888 -9.74161
vn 0.063081 -0.99251 -0.104613
v 83.7856 -129.977 -9.77067
vn 0.0251377 -0.989324 -0.143548
v 84.3169 -129.938 -9.85123
vn 0.0386957 -0.977795 -0.205961
v 85.4887 -129.855 -9.86988
vn 0.0905513 -0.912603 -0.398693
v 84.8834 -129.877 -9.91894
vn 0.0721425 -0.49611 -0.865257
v 83.9592 -129.949 -9.82032
vn -0.0911295 -0.749651 -0.655529
v 83.463 -129.974 -9.69399
vn -0.340163 -0.241399 -0.908854
v 83.463 -129.983 -9.67411
vn -0.0477889 -0.962135 -0.26835
v 83.2478 -130.013 -9.35506
vn 0.0348069 -0.998662 -0.0382452
v 82.4426 -130.043 -8.76648
vn -0.203741 -0.970097 -0.131913
v 82.9088 -130.014 -9.37483
vn -0.167951 -0.950596 -0.261072
v 82.685 -130.022 -9.16695
vn -0.53522 -0.679446 -0.501889
v 82.5047 -130.034 -8.91641
vn -0.634199 -0.66513 -0.394201
v 82.2088 -130.057 -7.94096
vn -0.990359 -0.0593619 -0.125158
v 82.2111 -130.06 -7.9402
vn -0.792847 -0.59427 -0.135046
v 82.1633 -130.067 -7.53952
vn -0.833518 -0.544207 -0.0953233
v 82.2775 -130.052 -8.30315
vn -0.792942 -0.575398 -0.200399
v 82.3721 -130.043 -8.62851
vn -0.746744 -0.596805 -0.293593
v 82.2465 -130.06 -8.12065
vn -0.284946 -0.955411 -0.0774351
v 82.3588 -130.07 -8.06392
vn 0.00252516 -0.999725 -0.0233024
v 82.1153 -130.082 -6.85553
vn -0.316375 -0.947931 -0.0365099
v 82.1666 -130.088 -7.08154
vn -0.0746196 -0.99697 -0.0219706
v 82.1364 -130.124 -4.80597
vn -0.0032612 -0.99988 -0.0151539
v 82.0493 -130.116 -4.78007
vn -0.305853 -0.95193 -0.016815
v 82.0606 -130.09 -5.90079
vn -0.997551 -0.0606905 -0.0347544
v 82.1072 -130.075 -6.8677
vn -0.995907 -0.0605098 -0.0671452
v 82.0724 -130.09 -6.14594
vn -0.86082 -0.507129 -0.0425424
v 82.0446 -130.104 -5.1572
vn -0.865116 -0.501091 -0.021955
v 82.1169 -130.076 -6.98429
vn -0.849863 -0.522437 -0.0692289
v 82.0365 -130.112 -4.40399
vn -0.998298 -0.0580355 -0.00565661
v 82.0347 -130.117 -4.15563
vn -0.861197 -0.508186 -0.00925301
v 82.0392 -130.13 -3.37944
vn -0.874435 -0.485143 -8.53766e-06
v 82.1116 -130.16 -2.18367
vn -0.0641657 -0.997863 -0.0123615
v 82.0565 -130.147 -2.36473
vn -0.407669 -0.913116 -0.00512348
v 82.1078 -130.172 -0.683701
vn -0.328384 -0.944544 0.000730581
v 82.0627 -130.146 -1.94762
vn -0.998023 -0.0585495 0.0228624
v 82.0581 -130.147 -2.09609
vn -0.863749 -0.503772 0.0122675
v 82.0926 -130.163 -0.897939
vn -0.864046 -0.502794 0.0249735
v 82.1541 -130.177 0.527162
vn -0.996928 -0.060274 0.0500133
v 82.1396 -130.176 0.25016
vn -0.872249 -0.487826 0.0347537
v 82.1845 -130.187 1.09067
vn -0.862011 -0.505065 0.0429692
v 82.2039 -130.197 1.01773
vn -0.112322 -0.99366 -0.0048055
v 82.2556 -130.203 2.15924
vn -0.396649 -0.91765 0.0242449
v 82.4433 -130.226 3.38947
vn -0.0073797 -0.99996 -0.00504264
v 82.2518 -130.196 2.16008
vn -0.995338 -0.0602366 0.0753291
v 82.3439 -130.206 3.15946
vn -0.99163 -0.0651993 0.111439
v 82.3076 -130.206 2.79343
vn -0.846196 -0.527217 0.0774192
v 82.2439 -130.198 2.03017
vn -0.87457 -0.481362 0.0584613
v 82.4677 -130.211 4.06625
vn -0.982889 -0.0791395 0.166329
v 82.6259 -130.214 4.82967
vn -0.962449 -0.0950122 0.254294
v 82.5048 -130.215 4.27629
vn -0.832104 -0.534141 0.149322
v 82.5838 -130.217 4.6593
vn -0.778656 -0.601319 0.179193
v 82.4345 -130.214 3.85399
vn -0.840907 -0.526743 0.12417
v 82.3727 -130.211 3.39913
vn -0.829581 -0.549555 0.0989215
v 82.4442 -130.22 3.84372
vn -0.306621 -0.950878 0.0425881
v 82.6136 -130.223 4.7396
vn -0.282666 -0.956604 0.0707669
v 82.7825 -130.23 4.81695
vn 0.00873288 -0.999961 -0.00122364
v 82.8333 -130.218 5.41579
vn -0.228251 -0.967973 0.104546
v 83.1124 -130.21 5.85747
vn -0.19582 -0.960873 0.195902
v 82.889 -130.21 5.54975
vn -0.894638 -0.160036 0.417146
v 83.0281 -130.206 5.77058
vn -0.783213 -0.21381 0.583834
v 82.8905 -130.214 5.54656
vn -0.666546 -0.647425 0.369537
v 83.0294 -130.209 5.76694
vn -0.581883 -0.679411 0.447004
v 82.7728 -130.216 5.29087
vn -0.706252 -0.64775 0.285706
v 82.6718 -130.217 4.99631
vn -0.744269 -0.629267 0.2238
v 83.4935 -130.188 6.17506
vn -0.434068 -0.330058 0.83824
v 83.9989 -130.165 6.34119
vn -0.145227 -0.293023 0.945011
v 83.6043 -130.187 6.231
vn -0.210918 -0.76196 0.612316
v 83.8562 -130.175 6.31448
vn -0.117515 -0.764744 0.633527
v 83.3841 -130.196 6.11082
vn -0.350963 -0.743329 0.569462
v 83.1931 -130.203 5.95557
vn -0.473252 -0.714752 0.514939
v 83.4103 -130.21 6.01042
vn 0.0130137 -0.999249 0.0364947
v 83.4953 -130.196 6.16225
vn -0.0836855 -0.97247 0.217484
v 84.0777 -130.169 6.33606
vn 0.0126446 -0.97193 0.234928
v 84.1421 -130.176 6.30086
vn 0.0433373 -0.998145 0.0427716
v 86.4493 -130.069 5.94009
vn 0.0547664 -0.998092 0.0285272
v 84.9685 -130.129 6.32683
vn 0.0691379 -0.972811 0.221042
v 84.6237 -130.136 6.3689
vn 0.0442309 -0.220118 0.97447
v 85.3264 -130.102 6.30059
vn 0.145029 -0.151697 0.977729
v 84.792 -130.132 6.35778
vn 0.0837022 -0.737672 0.669951
v 85.3265 -130.106 6.29696
vn 0.130005 -0.710277 0.691813
v 84.4557 -130.147 6.37213
vn 0.0376098 -0.751257 0.658938
v 84.1419 -130.162 6.35961
vn -0.0269482 -0.760962 0.648236
v 86.0843 -130.066 6.16801
vn 0.206028 -0.112396 0.97207
v 87.0338 -130.02 5.94378
vn 0.25119 -0.0658932 0.965692
v 86.2826 -130.06 6.124
vn 0.194941 -0.654954 0.730092
v 87.0893 -130.019 5.92827
vn 0.224556 -0.624736 0.74785
v 85.8864 -130.079 6.20545
vn 0.169501 -0.67861 0.714673
v 86.0946 -130.072 6.15377
vn 0.10307 -0.955104 0.277765
v 86.5975 -130.056 6.01534
vn 0.0838769 -0.986098 0.143439
v 89.1976 -129.933 5.18181
vn 0.0732651 -0.995651 0.0575389
v 87.799 -129.989 5.72898
vn 0.140376 -0.933048 0.331235
v 88.5053 -129.948 5.52494
vn 0.304196 -0.0240722 0.952305
v 88.0198 -129.975 5.67019
vn 0.253951 -0.58704 0.768696
v 88.6942 -129.942 5.46409
vn 0.284759 -0.542789 0.790122
v 89.2226 -129.912 5.27826
vn 0.369249 -0.00493645 0.929317
v 89.7066 -129.886 5.0575
vn 0.466632 -0.227352 0.854731
v 89.358 -129.909 5.22302
vn 0.363092 -0.460078 0.810242
v 89.0884 -129.922 5.32907
vn 0.320166 -0.516927 0.793902
v 89.2071 -129.919 5.2733
vn 0.185799 -0.919925 0.345278
v 89.9169 -129.888 4.92336
vn 0.198904 -0.953839 0.225007
v 90.1084 -129.868 4.80346
vn 0.585966 -0.184066 0.789154
v 89.6345 -129.658 -8.76765
vn 0.402045 -0.163686 -0.90087
v 88.7066 -129.703 -9.12219
vn 0.303633 -0.415786 -0.85728
v 88.5957 -129.709 -9.16085
vn 0.288351 -0.479294 -0.828934
v 88.473 -129.691 -9.2015
vn 0.295518 0.153074 -0.942994
v 88.3512 -129.685 -9.23454
vn 0.222774 0.551852 -0.803636
v 87.4115 -129.728 -9.49702
vn 0.122152 0.774909 -0.620157
v 86.3639 -129.781 -9.74266
vn 0.0748939 0.821826 -0.564795
v 87.6025 -129.731 -9.45345
vn 0.230946 0.329907 -0.915328
v 86.8452 -129.771 -9.6458
vn 0.176204 0.413737 -0.893182
v 88.1107 -129.72 -9.31464
vn 0.286342 -0.173248 -0.942334
v 88.1115 -129.73 -9.30912
vn 0.24987 -0.590275 -0.767555
v 87.4767 -129.748 -9.48934
vn 0.253998 -0.287426 -0.92351
v 86.7215 -129.782 -9.67143
vn 0.213747 -0.388741 -0.89621
v 85.9146 -129.83 -9.81662
vn 0.132948 -0.770959 -0.622854
v 85.6952 -129.828 -9.85956
vn 0.138315 -0.305371 -0.942135
v 85.2808 -129.859 -9.89826
vn 0.093659 -0.584005 -0.806329
v 86.1327 -129.808 -9.79107
vn 0.177988 -0.376841 -0.909017
v 85.2794 -129.836 -9.90369
vn 0.065516 0.212292 -0.975008
v 85.2787 -129.825 -9.898
vn 0.0355011 0.626499 -0.778614
v 85.6945 -129.817 -9.85947
vn 0.110445 0.310282 -0.944207
v 86.132 -129.797 -9.79097
vn 0.144272 0.381385 -0.913089
v 84.1301 -129.895 -9.87466
vn -0.148963 0.00601022 -0.988825
v 84.4981 -129.883 -9.90878
vn -0.0431898 -0.275917 -0.960211
f 7//7 4//4 3//3
f 3//3 1//1 7//7
f 2//2 8//8 7//7
f 7//7 1//1 2//2
f 10//10 11//11 9//9
f 13//13 10//10 14//14
f 9//9 12//12 14//14
f 10//10 9//9 14//14
f 12//12 15//15 14//14
f 12//12 16//16 15//15
f 17//17 16//16 12//12
f 17//17 12//12 9//9
f 9//9 18//18 17//17
f 11//11 2//2 18//18
f 18//18 9//9 11//11
f 19//19 18//18 1//1
f 2//2 1//1 18//18
f 11//11 8//8 2//2
f 10//10 20//20 11//11
f 23//23 24//24 21//21
f 21//21 22//22 23//23
f 25//25 23//23 22//22
f 25//25 26//26 23//23
f 22//22 27//27 25//25
f 27//27 28//28 25//25
f 21//21 29//29 27//27
f 27//27 22//22 21//21
f 26//26 30//30 23//23
f 23//23 30//30 31//31
f 31//31 24//24 23//23
f 26//26 32//32 30//30
f 26//26 33//33 32//32
f 7//7 8//8 32//32
f 4//4 7//7 6//6
f 32//32 6//6 7//7
f 8//8 30//30 32//32
f 30//30 8//8 34//34
f 35//35 29//29 21//21
f 21//21 36//36 35//35
f 36//36 37//37 35//35
f 38//38 13//13 39//39
f 13//13 40//40 39//39
f 13//13 14//14 40//40
f 41//41 20//20 13//13
f 10//10 13//13 20//20
f 13//13 38//38 41//41
f 37//37 42//42 43//43
f 36//36 42//42 37//37
f 44//44 35//35 37//37
f 43//43 42//42 45//45
f 45//45 42//42 46//46
f 47//47 20//20 41//41
f 20//20 47//47 34//34
f 34//34 8//8 20//20
f 11//11 20//20 8//8
f 34//34 47//47 48//48
f 30//30 34//34 31//31
f 48//48 31//31 34//34
f 41//41 38//38 47//47
f 24//24 31//31 48//48
f 21//21 24//24 42//42
f 24//24 49//49 42//42
f 42//42 36//36 21//21
f 49//49 24//24 48//48
f 47//47 38//38 49//49
f 48//48 47//47 49//49
f 38//38 50//50 49//49
f 50//50 42//42 49//49
f 42//42 50//50 46//46
f 51//51 46//46 39//39
f 46//46 50//50 38//38
f 39//39 46//46 38//38
f 52//52 53//53 54//54
f 54//54 55//55 52//52
f 56//56 57//57 52//52
f 56//56 52//52 55//55
f 56//56 55//55 58//58
f 55//55 54//54 59//59
f 58//58 55//55 59//59
f 53//53 60//60 54//54
f 61//61 63//63 64//64
f 63//63 61//61 62//62
f 63//63 62//62 65//65
f 63//63 65//65 60//60
f 62//62 67//67 65//65
f 54//54 65//65 59//59
f 65//65 67//67 59//59
f 65//65 54//54 60//60
f 63//63 60//60 66//66
f 69//69 68//68 70//70
f 71//71 70//70 68//68
f 71//71 72//72 70//70
f 72//72 71//71 73//73
f 74//74 73//73 71//71
f 74//74 71//71 68//68
f 69//69 77//77 68//68
f 76//76 68//68 77//77
f 79//79 78//78 80//80
f 78//78 79//79 74//74
f 81//81 73//73 82//82
f 79//79 82//82 73//73
f 73//73 74//74 79//79
f 52//52 79//79 83//83
f 79//79 80//80 83//83
f 52//52 82//82 79//79
f 57//57 81//81 82//82
f 57//57 82//82 52//52
f 53//53 52//52 83//83
f 84//84 85//85 75//75
f 85//85 84//84 86//86
f 76//76 87//87 84//84
f 87//87 76//76 88//88
f 76//76 84//84 68//68
f 68//68 84//84 75//75
f 75//75 74//74 68//68
f 90//90 63//63 89//89
f 63//63 66//66 89//89
f 90//90 91//91 63//63
f 91//91 64//64 63//63
f 92//92 91//91 90//90
f 93//93 90//90 89//89
f 89//89 94//94 93//93
f 96//96 97//97 86//86
f 86//86 95//95 96//96
f 96//96 99//99 97//97
f 98//98 96//96 100//100
f 96//96 95//95 87//87
f 87//87 100//100 96//96
f 100//100 87//87 88//88
f 87//87 95//95 84//84
f 95//95 86//86 84//84
f 66//66 83//83 80//80
f 83//83 66//66 60//60
f 60//60 53//53 83//83
f 89//89 66//66 80//80
f 80//80 94//94 89//89
f 101//101 102//102 75//75
f 85//85 101//101 75//75
f 75//75 102//102 74//74
f 78//78 74//74 102//102
f 101//101 78//78 102//102
f 101//101 80//80 78//78
f 80//80 101//101 94//94
f 97//97 99//99 103//103
f 86//86 97//97 103//103
f 103//103 93//93 86//86
f 86//86 93//93 101//101
f 101//101 85//85 86//86
f 93//93 94//94 101//101
f 90//90 93//93 92//92
f 103//103 92//92 93//93
f 58//58 104//104 105//105
f 104//104 107//107 106//106
f 108//108 105//105 104//104
f 104//104 106//106 108//108
f 108//108 109//109 105//105
f 123//123 124//124 122//122
f 104//104 123//123 122//122
f 122//122 107//107 104//104
f 123//123 104//104 58//58
f 130//130 129//129 131//131
f 129//129 130//130 128//128
f 56//56 128//128 130//130
f 130//130 57//57 56//56
f 129//129 128//128 142//142
f 105//105 109//109 142//142
f 128//128 105//105 142//142
f 56//56 58//58 105//105
f 105//105 128//128 56//56
f 146//146 61//61 145//145
f 64//64 145//145 61//61
f 157//157 156//156 155//155
f 145//145 64//64 155//155
f 64//64 157//157 155//155
f 62//62 61//61 161//161
f 162//162 161//161 163//163
f 61//61 163//163 161//161
f 161//161 67//67 62//62
f 162//162 164//164 161//161
f 146//146 172//172 61//61
f 172//172 163//163 61//61
f 59//59 67//67 58//58
f 58//58 67//67 123//123
f 123//123 173//173 124//124
f 161//161 164//164 173//173
f 123//123 161//161 173//173
f 161//161 123//123 67//67
f 70//70 181//181 182//182
f 70//70 182//182 183//183
f 182//182 181//181 184//184
f 181//181 197//197 184//184
f 70//70 72//72 181//181
f 200//200 77//77 69//69
f 69//69 199//199 200//200
f 200//200 199//199 201//201
f 201//201 199//199 202//202
f 202//202 199//199 203//203
f 204//204 203//203 199//199
f 203//203 206//206 202//202
f 199//199 208//208 204//204
f 183//183 208//208 69//69
f 69//69 70//70 183//183
f 208//208 199//199 69//69
f 81//81 212//212 72//72
f 213//213 72//72 212//212
f 72//72 213//213 181//181
f 81//81 72//72 73//73
f 213//213 197//197 181//181
f 220//220 214//214 212//212
f 214//214 213//213 212//212
f 220//220 212//212 57//57
f 212//212 81//81 57//57
f 223//223 214//214 220//220
f 220//220 130//130 223//223
f 130//130 131//131 223//223
f 130//130 220//220 57//57
f 200//200 88//88 76//76
f 200//200 201//201 227//227
f 227//227 88//88 200//200
f 228//228 201//201 230//230
f 227//227 201//201 228//228
f 231//231 232//232 230//230
f 229//229 228//228 232//232
f 230//230 232//232 228//228
f 201//201 202//202 230//230
f 231//231 230//230 202//202
f 77//77 200//200 76//76
f 91//91 234//234 64//64
f 235//235 157//157 234//234
f 157//157 64//64 234//234
f 157//157 235//235 156//156
f 156//156 235//235 236//236
f 234//234 243//243 235//235
f 236//236 235//235 243//243
f 91//91 92//92 234//234
f 245//245 100//100 88//88
f 245//245 246//246 247//247
f 100//100 245//245 247//247
f 248//248 249//249 245//245
f 249//249 246//246 245//245
f 248//248 255//255 249//249
f 255//255 248//248 229//229
f 227//227 228//228 248//248
f 229//229 248//248 228//228
f 232//232 233//233 229//229
f 245//245 227//227 248//248
f 245//245 88//88 227//227
f 257//257 258//258 256//256
f 98//98 256//256 258//258
f 258//258 99//99 96//96
f 96//96 98//98 258//258
f 260//260 256//256 273//273
f 273//273 274//274 260//260
f 273//273 247//247 274//274
f 273//273 256//256 98//98
f 98//98 100//100 273//273
f 273//273 100//100 247//247
f 276//276 92//92 99//99
f 92//92 276//276 234//234
f 276//276 243//243 234//234
f 259//259 243//243 276//276
f 242//242 266//266 277//277
f 257//257 259//259 276//276
f 99//99 258//258 257//257
f 257//257 276//276 99//99
f 99//99 92//92 103//103
f 283//283 15//15 282//282
f 284//284 282//282 16//16
f 15//15 16//16 282//282
f 14//14 15//15 286//286
f 286//286 15//15 287//287
f 283//283 287//287 15//15
f 301//301 300//300 299//299
f 286//286 287//287 299//299
f 286//286 299//299 40//40
f 299//299 300//300 40//40
f 40//40 14//14 286//286
f 300//300 39//39 40//40
f 301//301 303//303 300//300
f 303//303 51//51 300//300
f 51//51 39//39 300//300
f 309//309 310//310 51//51
f 46//46 310//310 45//45
f 46//46 51//51 310//310
f 303//303 311//311 309//309
f 309//309 51//51 303//303
f 310//310 309//309 319//319
f 45//45 310//310 319//319
f 45//45 319//319 321//321
f 321//321 43//43 45//45
f 322//322 323//323 321//321
f 321//321 319//319 322//322
f 333//333 330//330 332//332
f 321//321 323//323 333//333
f 330//330 333//333 323//323
f 321//321 333//333 43//43
f 335//335 43//43 333//333
f 44//44 37//37 43//43
f 335//335 44//44 43//43
f 44//44 335//335 336//336
f 335//335 337//337 336//336
f 335//335 333//333 332//332
f 332//332 338//338 335//335
f 338//338 339//339 337//337
f 337//337 335//335 338//338
f 340//340 341//341 337//337
f 336//336 337//337 341//341
f 337//337 339//339 340//340
f 29//29 44//44 336//336
f 29//29 35//35 44//44
f 29//29 336//336 342//342
f 341//341 343//343 342//342
f 342//342 336//336 341//341
f 340//340 344//344 341//341
f 343//343 344//344 345//345
f 343//343 341//341 344//344
f 342//342 349//349 348//348
f 349//349 342//342 343//343
f 343//343 345//345 349//349
f 29//29 350//350 27//27
f 350//350 29//29 342//342
f 27//27 350//350 28//28
f 28//28 351//351 352//352
f 351//351 28//28 350//350
f 348//348 353//353 350//350
f 350//350 342//342 348//348
f 353//353 351//351 350//350
f 361//361 362//362 363//363
f 362//362 361//361 364//364
f 362//362 364//364 352//352
f 364//364 28//28 352//352
f 28//28 364//364 25//25
f 25//25 364//364 26//26
f 366//366 26//26 364//364
f 361//361 366//366 364//364
f 363//363 367//367 361//361
f 361//361 367//367 366//366
f 367//367 375//375 366//366
f 33//33 26//26 366//366
f 33//33 366//366 375//375
f 377//377 375//375 376//376
f 367//367 376//376 375//375
f 383//383 377//377 384//384
f 6//6 33//33 375//375
f 383//383 375//375 377//377
f 375//375 383//383 6//6
f 33//33 6//6 32//32
f 384//384 385//385 383//383
f 6//6 383//383 385//385
f 384//384 396//396 385//385
f 398//398 385//385 395//395
f 396//396 395//395 385//385
f 6//6 398//398 4//4
f 398//398 6//6 385//385
f 398//398 3//3 4//4
f 398//398 395//395 399//399
f 398//398 399//399 5//5
f 3//3 398//398 5//5
f 399//399 400//400 5//5
f 413//413 414//414 412//412
f 400//400 415//415 5//5
f 415//415 400//400 412//412
f 414//414 415//415 412//412
f 5//5 415//415 3//3
f 414//414 3//3 415//415
f 19//19 1//1 3//3
f 3//3 414//414 19//19
f 19//19 414//414 418//418
f 413//413 418//418 414//414
f 429//429 430//430 19//19
f 19//19 418//418 429//429
f 18//18 19//19 17//17
f 430//430 17//17 19//19
f 429//429 431//431 430//430
f 430//430 431//431 439//439
f 430//430 439//439 17//17
f 440//440 16//16 439//439
f 17//17 439//439 16//16
f 16//16 440//440 284//284
f 148//148 278//278 147//147
f 281//281 149//149 147//147
f 281//281 285//285 151//151
f 151//151 149//149 281//281
f 158//158 291//291 153//153
f 153//153 291//291 288//288
f 288//288 278//278 148//148
f 148//148 153//153 288//288
f 297//297 158//158 237//237
f 297//297 291//291 158//158
f 297//297 237//237 294//294
f 294//294 237//237 304//304
f 237//237 242//242 304//304
f 304//304 242//242 277//277
f 313//313 261//261 262//262
f 317//317 261//261 313//313
f 266//266 261//261 317//317
f 313//313 262//262 314//314
f 317//317 277//277 266//266
f 269//269 314//314 262//262
f 314//314 269//269 271//271
f 327//327 251//251 326//326
f 271//271 251//251 327//327
f 326//326 251//251 252//252
f 252//252 250//250 330//330
f 331//331 330//330 249//249
f 250//250 249//249 330//330
f 441//441 338//338 331//331
f 233//233 442//442 441//441
f 442//442 339//339 338//338
f 442//442 338//338 441//441
f 441//441 331//331 249//249
f 249//249 255//255 441//441
f 255//255 229//229 233//233
f 233//233 441//441 255//255
f 445//445 232//232 231//231
f 231//231 444//444 445//445
f 445//445 233//233 232//232
f 450//450 452//452 340//340
f 442//442 450//450 339//339
f 340//340 339//339 450//450
f 340//340 452//452 344//344
f 345//345 344//344 456//456
f 444//444 231//231 460//460
f 206//206 460//460 202//202
f 231//231 202//202 460//460
f 205//205 347//347 346//346
f 462//462 203//203 205//205
f 205//205 346//346 462//462
f 203//203 463//463 206//206
f 203//203 462//462 463//463
f 456//456 463//463 349//349
f 462//462 349//349 463//463
f 346//346 349//349 462//462
f 349//349 345//345 456//456
f 207//207 347//347 205//205
f 185//185 359//359 191//191
f 185//185 186//186 356//356
f 359//359 185//185 356//356
f 356//356 186//186 368//368
f 368//368 195//195 370//370
f 186//186 195//195 368//368
f 370//370 195//195 215//215
f 372//372 370//370 215//215
f 379//379 218//218 221//221
f 218//218 379//379 372//372
f 218//218 372//372 215//215
f 381//381 221//221 224//224
f 381//381 379//379 221//221
f 386//386 224//224 388//388
f 386//386 381//381 224//224
f 224//224 137//137 388//388
f 388//388 137//137 133//133
f 388//388 133//133 393//393
f 133//133 132//132 390//390
f 390//390 393//393 133//133
f 390//390 132//132 401//401
f 143//143 404//404 401//401
f 143//143 116//116 404//404
f 132//132 139//139 401//401
f 143//143 401//401 139//139
f 404//404 116//116 416//416
f 416//416 116//116 112//112
f 110//110 111//111 408//408
f 408//408 407//407 110//110
f 112//112 110//110 407//407
f 416//416 112//112 407//407
f 408//408 111//111 119//119
f 408//408 119//119 419//419
f 125//125 422//422 419//419
f 419//419 119//119 125//125
f 425//425 175//175 174//174
f 175//175 422//422 125//125
f 422//422 175//175 425//425
f 425//425 174//174 426//426
f 180//180 432//432 426//426
f 180//180 166//166 432//432
f 174//174 180//180 426//426
f 435//435 166//166 165//165
f 435//435 432//432 166//166
f 436//436 435//435 165//165
f 436//436 165//165 171//171
f 151//151 285//285 171//171
f 436//436 171//171 285//285
f 466//466 467//467 464//464
f 467//467 469//469 471//471
f 471//471 464//464 467//467
f 471//471 472//472 465//465
f 465//465 464//464 471//471
f 473//473 474//474 475//475
f 474//474 476//476 475//475
f 475//475 477//477 478//478
f 473//473 475//475 478//478
f 473//473 479//479 464//464
f 464//464 474//474 473//473
f 480//480 464//464 465//465
f 464//464 480//480 474//474
f 465//465 472//472 480//480
f 481//481 483//483 482//482
f 481//481 484//484 485//485
f 485//485 483//483 481//481
f 485//485 486//486 483//483
f 483//483 487//487 488//488
f 488//488 489//489 482//482
f 482//482 483//483 488//488
f 491//491 490//490 485//485
f 485//485 484//484 491//491
f 492//492 490//490 491//491
f 490//490 493//493 486//486
f 493//493 494//494 486//486
f 485//485 490//490 486//486
f 470//470 471//471 469//469
f 471//471 470//470 493//493
f 490//490 492//492 493//493
f 492//492 471//471 493//493
f 492//492 472//472 471//471
f 482//482 495//495 481//481
f 496//496 482//482 489//489
f 482//482 496//496 495//495
f 497//497 481//481 495//495
f 497//497 484//484 481//481
f 501//501 500//500 498//498
f 498//498 499//499 501//501
f 501//501 477//477 475//475
f 475//475 500//500 501//501
f 476//476 500//500 475//475
f 500//500 476//476 502//502
f 500//500 502//502 498//498
f 496//496 503//503 495//495
f 496//496 489//489 504//504
f 496//496 505//505 503//503
f 506//506 503//503 505//505
f 505//505 507//507 506//506
f 506//506 495//495 503//503
f 474//474 480//480 476//476
f 480//480 472//472 492//492
f 492//492 476//476 480//480
f 492//492 491//491 508//508
f 508//508 502//502 492//492
f 502//502 476//476 492//492
f 491//491 509//509 508//508
f 491//491 484//484 509//509
f 497//497 510//510 484//484
f 508//508 498//498 502//502
f 510//510 508//508 509//509
f 509//509 484//484 510//510
f 508//508 510//510 498//498
f 510//510 511//511 498//498
f 506//506 511//511 497//497
f 497//497 495//495 506//506
f 510//510 497//497 511//511
f 507//507 511//511 506//506
f 498//498 511//511 499//499
f 512//512 515//515 513//513
f 516//516 515//515 514//514
f 512//512 514//514 515//515
f 513//513 515//515 517//517
f 521//521 518//518 519//519
f 518//518 521//521 520//520
f 521//521 522//522 520//520
f 523//523 518//518 520//520
f 524//524 523//523 520//520
f 517//517 523//523 526//526
f 515//515 523//523 517//517
f 515//515 516//516 525//525
f 518//518 515//515 525//525
f 515//515 518//518 523//523
f 523//523 524//524 526//526
f 527//527 528//528 529//529
f 527//527 529//529 530//530
f 529//529 531//531 530//530
f 532//532 530//530 531//531
f 530//530 532//532 533//533
f 534//534 530//530 533//533
f 534//534 527//527 530//530
f 537//537 527//527 536//536
f 534//534 536//536 527//527
f 527//527 537//537 528//528
f 541//541 532//532 540//540
f 532//532 541//541 538//538
f 538//538 533//533 532//532
f 542//542 538//538 539//539
f 526//526 542//542 539//539
f 541//541 539//539 538//538
f 540//540 512//512 541//541
f 539//539 541//541 512//512
f 539//539 512//512 513//513
f 526//526 539//539 513//513
f 535//535 544//544 543//543
f 545//545 543//543 544//544
f 543//543 546//546 536//536
f 547//547 536//536 546//546
f 534//534 543//543 536//536
f 534//534 533//533 535//535
f 535//535 543//543 534//534
f 549//549 524//524 520//520
f 550//550 549//549 520//520
f 520//520 522//522 550//550
f 552//552 550//550 551//551
f 552//552 549//549 550//550
f 548//548 552//552 542//542
f 549//549 548//548 524//524
f 548//548 549//549 552//552
f 554//554 545//545 553//553
f 553//553 556//556 555//555
f 555//555 554//554 553//553
f 557//557 554//554 555//555
f 547//547 546//546 557//557
f 554//554 557//557 546//546
f 543//543 545//545 546//546
f 546//546 545//545 554//554
f 517//517 526//526 513//513
f 524//524 548//548 526//526
f 542//542 526//526 548//548
f 535//535 558//558 544//544
f 535//535 533//533 558//558
f 558//558 533//533 538//538
f 542//542 558//558 538//538
f 558//558 542//542 544//544
f 553//553 559//559 556//556
f 553//553 545//545 544//544
f 544//544 542//542 552//552
f 552//552 553//553 544//544
f 552//552 551//551 559//559
f 559//559 553//553 552//552
f 516//516 514//514 560//560
f 561//561 560//560 514//514
f 560//560 561//561 562//562
f 562//562 563//563 560//560
f 563//563 564//564 560//560
f 581//581 582//582 583//583
f 516//516 560//560 583//583
f 564//564 583//583 560//560
f 583//583 564//564 581//581
f 514//514 512//512 584//584
f 585//585 586//586 584//584
f 599//599 562//562 561//561
f 599//599 584//584 586//586
f 514//514 584//584 561//561
f 599//599 561//561 584//584
f 601//601 521//521 600//600
f 610//610 607//607 611//611
f 616//616 614//614 615//615
f 615//615 522//522 521//521
f 616//616 521//521 601//601
f 616//616 615//615 521//521
f 518//518 525//525 519//519
f 617//617 618//618 519//519
f 519//519 525//525 617//617
f 619//619 519//519 618//618
f 617//617 620//620 618//618
f 521//521 628//628 600//600
f 628//628 521//521 519//519
f 519//519 619//619 628//628
f 583//583 525//525 516//516
f 583//583 629//629 525//525
f 583//583 582//582 629//629
f 629//629 582//582 635//635
f 620//620 629//629 635//635
f 617//617 629//629 620//620
f 525//525 629//629 617//617
f 637//637 636//636 529//529
f 636//636 638//638 529//529
f 648//648 638//638 636//636
f 648//648 654//654 638//638
f 638//638 531//531 529//529
f 528//528 537//537 655//655
f 656//656 658//658 657//657
f 659//659 657//657 658//658
f 656//656 657//657 662//662
f 665//665 656//656 662//662
f 528//528 665//665 637//637
f 637//637 529//529 528//528
f 665//665 528//528 655//655
f 655//655 656//656 665//665
f 531//531 669//669 540//540
f 532//532 531//531 540//540
f 638//638 670//670 531//531
f 669//669 531//531 670//670
f 638//638 654//654 670//670
f 669//669 675//675 678//678
f 669//669 670//670 675//675
f 669//669 512//512 540//540
f 678//678 675//675 679//679
f 679//679 585//585 678//678
f 584//584 678//678 585//585
f 512//512 669//669 584//584
f 678//678 584//584 669//669
f 536//536 547//547 684//684
f 684//684 547//547 685//685
f 685//685 686//686 684//684
f 690//690 687//687 688//688
f 687//687 690//690 691//691
f 691//691 690//690 692//692
f 687//687 686//686 685//685
f 691//691 686//686 687//687
f 658//658 691//691 692//692
f 691//691 658//658 656//656
f 656//656 686//686 691//691
f 684//684 686//686 656//656
f 656//656 655//655 684//684
f 655//655 537//537 684//684
f 536//536 684//684 537//537
f 522//522 693//693 550//550
f 693//693 615//615 694//694
f 693//693 522//522 615//615
f 614//614 694//694 615//615
f 699//699 694//694 614//614
f 694//694 704//704 693//693
f 704//704 694//694 699//699
f 693//693 551//551 550//550
f 547//547 557//557 705//705
f 705//705 713//713 714//714
f 712//712 715//715 688//688
f 688//688 689//689 690//690
f 687//687 705//705 714//714
f 714//714 688//688 687//687
f 687//687 685//685 705//705
f 685//685 547//547 705//705
f 555//555 556//556 716//716
f 718//718 716//716 717//717
f 716//716 718//718 555//555
f 734//734 706//706 705//705
f 735//735 718//718 728//728
f 728//728 734//734 735//735
f 734//734 705//705 735//735
f 705//705 557//557 735//735
f 735//735 557//557 555//555
f 555//555 718//718 735//735
f 556//556 559//559 551//551
f 551//551 716//716 556//556
f 693//693 736//736 551//551
f 716//716 551//551 736//736
f 693//693 704//704 736//736
f 736//736 704//704 719//719
f 736//736 719//719 717//717
f 716//716 736//736 717//717
f 742//742 745//745 744//744
f 478//478 745//745 742//742
f 746//746 745//745 477//477
f 478//478 477//477 745//745
f 747//747 745//745 746//746
f 745//745 747//747 744//744
f 760//760 747//747 746//746
f 746//746 477//477 501//501
f 746//746 761//761 760//760
f 501//501 499//499 746//746
f 746//746 499//499 762//762
f 746//746 762//762 763//763
f 763//763 761//761 746//746
f 511//511 507//507 499//499
f 762//762 499//499 507//507
f 763//763 762//762 768//768
f 507//507 768//768 762//762
f 769//769 763//763 768//768
f 776//776 769//769 768//768
f 777//777 776//776 768//768
f 768//768 507//507 505//505
f 778//778 779//779 505//505
f 779//779 768//768 505//505
f 778//778 780//780 779//779
f 777//777 768//768 779//779
f 791//791 780//780 778//778
f 787//787 791//791 778//778
f 792//792 787//787 778//778
f 778//778 505//505 792//792
f 792//792 505//505 496//496
f 787//787 792//792 793//793
f 792//792 496//496 504//504
f 794//794 793//793 504//504
f 792//792 504//504 793//793
f 794//794 795//795 793//793
f 797//797 793//793 795//795
f 795//795 796//796 797//797
f 797//797 787//787 793//793
f 795//795 800//800 798//798
f 795//795 798//798 799//799
f 799//799 796//796 795//795
f 800//800 795//795 794//794
f 794//794 504//504 489//489
f 801//801 794//794 489//489
f 800//800 794//794 801//801
f 801//801 802//802 800//800
f 803//803 800//800 802//802
f 802//802 804//804 803//803
f 800//800 803//803 798//798
f 807//807 801//801 808//808
f 488//488 801//801 489//489
f 801//801 488//488 808//808
f 487//487 808//808 488//488
f 809//809 810//810 487//487
f 808//808 487//487 810//810
f 808//808 810//810 807//807
f 809//809 819//819 818//818
f 820//820 818//818 821//821
f 819//819 821//821 818//818
f 809//809 487//487 819//819
f 483//483 819//819 487//487
f 486//486 819//819 483//483
f 819//819 486//486 822//822
f 819//819 822//822 821//821
f 821//821 823//823 820//820
f 822//822 823//823 821//821
f 822//822 486//486 494//494
f 822//822 832//832 823//823
f 832//832 822//822 494//494
f 833//833 832//832 834//834
f 832//832 833//833 823//823
f 842//842 834//834 841//841
f 832//832 494//494 470//470
f 493//493 470//470 494//494
f 834//834 832//832 841//841
f 470//470 841//841 832//832
f 841//841 843//843 842//842
f 843//843 841//841 470//470
f 843//843 854//854 842//842
f 469//469 856//856 470//470
f 843//843 470//470 856//856
f 855//855 843//843 856//856
f 843//843 855//855 854//854
f 469//469 467//467 856//856
f 468//468 856//856 467//467
f 468//468 857//857 856//856
f 857//857 855//855 856//856
f 468//468 858//858 857//857
f 468//468 871//871 858//858
f 872//872 858//858 871//871
f 872//872 874//874 873//873
f 467//467 871//871 468//468
f 467//467 466//466 871//871
f 872//872 871//871 874//874
f 466//466 874//874 871//871
f 875//875 874//874 479//479
f 466//466 464//464 479//479
f 466//466 479//479 874//874
f 873//873 874//874 876//876
f 876//876 889//889 888//888
f 876//876 874//874 875//875
f 875//875 889//889 876//876
f 875//875 890//890 889//889
f 890//890 875//875 479//479
f 891//891 889//889 890//890
f 889//889 891//891 888//888
f 899//899 891//891 890//890
f 473//473 890//890 479//479
f 478//478 890//890 473//473
f 890//890 478//478 900//900
f 742//742 743//743 900//900
f 900//900 478//478 742//742
f 899//899 890//890 900//900
f 604//604 602//602 739//739
f 602//602 603//603 741//741
f 739//739 602//602 741//741
f 604//604 738//738 605//605
f 738//738 604//604 739//739
f 738//738 749//749 605//605
f 607//607 749//749 611//611
f 748//748 610//610 611//611
f 749//749 607//607 605//605
f 754//754 610//610 748//748
f 697//697 754//754 755//755
f 610//610 754//754 697//697
f 755//755 764//764 702//702
f 700//700 755//755 702//702
f 697//697 755//755 700//700
f 721//721 702//702 764//764
f 764//764 766//766 721//721
f 772//772 771//771 725//725
f 725//725 720//720 772//772
f 772//772 720//720 721//721
f 721//721 766//766 772//772
f 729//729 781//781 732//732
f 725//725 771//771 785//785
f 785//785 729//729 725//725
f 729//729 785//785 781//781
f 709//709 787//787 712//712
f 708//708 788//788 707//707
f 709//709 707//707 788//788
f 709//709 788//788 787//787
f 787//787 797//797 902//902
f 903//903 902//902 797//797
f 797//797 796//796 903//903
f 902//902 903//903 715//715
f 688//688 715//715 689//689
f 712//712 787//787 902//902
f 712//712 902//902 715//715
f 907//907 908//908 692//692
f 692//692 690//690 907//907
f 689//689 907//907 690//690
f 796//796 799//799 903//903
f 915//915 799//799 798//798
f 803//803 915//915 798//798
f 658//658 692//692 659//659
f 660//660 806//806 661//661
f 660//660 657//657 923//923
f 924//924 923//923 657//657
f 657//657 659//659 924//924
f 659//659 804//804 924//924
f 802//802 924//924 804//804
f 924//924 802//802 805//805
f 805//805 923//923 924//924
f 660//660 805//805 806//806
f 805//805 660//660 923//923
f 661//661 806//806 663//663
f 645//645 641//641 813//813
f 649//649 824//824 652//652
f 825//825 824//824 649//649
f 813//813 825//825 645//645
f 825//825 649//649 645//645
f 652//652 829//829 672//672
f 829//829 652//652 824//824
f 672//672 835//835 676//676
f 829//829 835//835 672//672
f 681//681 676//676 838//838
f 676//676 835//835 838//838
f 844//844 681//681 838//838
f 845//845 681//681 844//844
f 845//845 587//587 681//681
f 848//848 588//588 587//587
f 587//587 845//845 848//848
f 588//588 848//848 849//849
f 849//849 592//592 588//588
f 849//849 859//859 595//595
f 860//860 566//566 859//859
f 859//859 566//566 595//595
f 592//592 849//849 595//595
f 565//565 566//566 860//860
f 865//865 567//567 565//565
f 571//571 865//865 866//866
f 866//866 572//572 571//571
f 865//865 571//571 567//567
f 575//575 572//572 866//866
f 877//877 575//575 866//866
f 877//877 878//878 578//578
f 578//578 575//575 877//877
f 578//578 878//878 630//630
f 883//883 630//630 878//878
f 633//633 883//883 884//884
f 630//630 883//883 633//633
f 892//892 622//622 884//884
f 884//884 622//622 633//633
f 622//622 892//892 621//621
f 892//892 895//895 621//621
f 896//896 626//626 621//621
f 621//621 895//895 896//896
f 896//896 901//901 603//603
f 603//603 901//901 741//741
f 626//626 896//896 603//603
