# Created by Open3D 
# object name: InfoWheels_Exterior_Rear_Awning_Open_Struts_Colored
# number of vertices: 764
# number of triangles: 1504
v 2.15738 103.502 25.5102
vn -0.247259 -0.881868 0.401463
v 2.26036 103.509 25.5248
vn -0.289533 0.688772 0.664653
v 2.24446 103.494 25.5318
vn -0.277646 0.582639 0.763836
v 2.30673 103.488 25.5823
vn -0.518119 0.766029 0.380463
v 2.29082 103.472 25.5893
vn -0.544981 0.676723 0.495017
v 2.33714 103.489 25.6528
vn -0.649644 0.758294 0.0543479
v 2.32124 103.473 25.6598
vn -0.719039 0.683417 0.12619
v 2.36283 103.527 25.7187
vn 0.685717 0.666097 -0.293439
v 2.34288 103.507 25.7275
vn -0.737977 0.612447 -0.28337
v 2.32292 103.487 25.7362
vn -0.721041 -0.634512 0.278378
v 2.17851 103.523 25.5009
vn -0.0787628 0.44749 0.890814
v 2.19964 103.544 25.4916
vn 0.272985 0.877824 -0.393579
v 2.2343 103.53 25.5024
vn 0.465642 0.807776 -0.361489
v 2.26749 103.518 25.5209
vn 0.518756 0.780818 -0.34816
v 2.29681 103.508 25.5462
vn 0.56989 0.751401 -0.332599
v 2.3208 103.502 25.5761
vn 0.601087 0.730827 -0.323397
v 2.33927 103.501 25.6093
vn 0.609387 0.726325 -0.317961
v 2.35288 103.505 25.6459
vn -0.694379 0.715641 0.0754695
v 2.3607 103.514 25.6832
vn 0.675246 0.674776 -0.29786
v 2.32078 103.474 25.7007
vn -0.77817 0.62247 -0.083554
v 2.31294 103.465 25.6634
vn -0.676919 0.732909 0.0680106
v 2.29929 103.461 25.6269
vn -0.614687 -0.720053 0.322001
v 2.2807 103.462 25.5937
vn -0.598435 -0.731867 0.325955
v 2.25636 103.468 25.5638
vn -0.555856 -0.75837 0.340439
v 2.22655 103.477 25.5387
vn -0.521923 -0.778367 0.348913
v 2.19273 103.489 25.5206
vn -0.446398 -0.81572 0.367872
v 1.433 102.779 25.8287
vn 0.923066 0.355879 -0.145944
v 1.45645 102.707 25.8784
vn -0.269134 0.632209 0.726553
v 1.44054 102.692 25.8854
vn -0.37034 0.568956 0.73426
v 1.50281 102.686 25.9358
vn -0.509101 0.767345 0.389869
v 1.48691 102.67 25.9428
vn -0.551103 0.686521 0.474314
v 1.53323 102.687 26.0064
vn -0.637066 0.769289 0.0483896
v 1.51732 102.671 26.0133
vn -0.713513 0.690254 0.1202
v 1.39074 102.737 25.8473
vn -0.948885 -0.292015 0.11977
v 1.41187 102.758 25.838
vn -0.0553017 0.468909 0.881513
v 1.5512 102.717 26.0756
vn 0.625679 0.713404 -0.315564
v 1.53125 102.697 26.0844
vn -0.733654 0.616653 -0.285465
v 1.51129 102.677 26.0932
vn -0.669942 -0.679229 0.299711
v 1.50915 102.664 26.0577
vn -0.770845 0.631127 -0.0864665
v 1.50157 102.655 26.0202
vn -0.692327 0.716902 0.0820699
v 1.48894 102.653 25.9833
vn -0.72032 -0.633647 0.282189
v 1.47283 102.656 25.949
vn -0.744375 -0.611533 0.268205
v 1.45355 102.667 25.917
vn -0.775938 -0.57796 0.252749
v 1.43217 102.684 25.8882
vn -0.801236 -0.549293 0.237273
v 1.41063 102.708 25.8647
vn -0.842661 -0.494761 0.212448
v 1.45196 102.75 25.8463
vn 0.855695 0.476598 -0.201596
v 1.47283 102.725 25.8701
vn 0.821322 0.524993 -0.223186
v 1.49382 102.707 25.8991
vn 0.785225 0.568807 -0.244706
v 1.51294 102.696 25.9314
vn 0.746809 0.609783 -0.265406
v 1.52892 102.693 25.9657
vn 0.715959 0.640415 -0.277978
v 1.5415 102.695 26.0027
vn -0.675907 0.733205 0.0745635
v 1.54906 102.704 26.0401
vn 0.675405 0.675059 -0.296856
v 2.33751 104.183 27.15
vn -0.66061 0.679704 -0.318744
v 2.29759 104.143 27.1676
vn -0.808422 0.531346 -0.253228
v 2.31025 103.815 26.4519
vn -0.879014 0.427375 -0.211388
v 2.31755 104.163 27.1588
vn -0.738058 0.61219 -0.283714
v 2.35017 103.855 26.4344
vn -0.698271 0.645981 -0.308424
v 1.52588 103.374 27.5069
vn -0.64233 0.694108 -0.325003
v 1.48596 103.334 27.5245
vn -0.818208 0.519111 -0.247104
v 1.53854 103.045 26.7913
vn -0.543433 0.759254 -0.35807
v 1.49862 103.006 26.8088
vn -0.782171 0.560893 -0.271305
v 1.50592 103.354 27.5157
vn -0.73362 0.616653 -0.285554
v 2.4158 104.082 27.4145
vn -0.953016 -0.28112 0.112835
v 2.40826 104.169 27.3578
vn -0.394767 0.587721 0.706218
v 2.39235 104.153 27.3648
vn -0.240642 0.623523 0.743848
v 2.36189 104.19 27.3004
vn -0.59265 0.688253 0.418418
v 2.34598 104.174 27.3074
vn -0.459543 0.761752 0.456678
v 2.33147 104.19 27.2298
vn -0.728633 0.678704 0.0919465
v 2.31557 104.174 27.2368
vn -0.631672 0.769811 0.0915513
v 2.43693 104.103 27.4052
vn -0.0545301 0.47073 0.88059
v 2.45806 104.124 27.3959
vn 0.917951 0.36734 -0.149761
v 2.43816 104.153 27.3785
vn 0.842547 0.495306 -0.211626
v 2.41663 104.177 27.355
vn 0.805652 0.543972 -0.234564
v 2.39525 104.194 27.3262
vn 0.768944 0.586794 -0.253769
v 2.37596 104.204 27.2942
vn 0.743085 0.613536 -0.267205
v 2.35985 104.208 27.2599
vn 0.714719 0.640923 -0.27999
v 2.34722 104.205 27.223
vn 0.676391 0.679541 -0.284113
v 2.33965 104.197 27.1855
vn 0.559977 0.769423 -0.30727
v 2.29973 104.157 27.2031
vn -0.833285 -0.485392 0.264632
v 2.3073 104.166 27.2405
vn -0.709731 -0.641992 0.29005
v 2.31988 104.168 27.2775
vn -0.715463 -0.639384 0.281603
v 2.33586 104.164 27.3118
vn -0.748058 -0.607832 0.266362
v 2.35497 104.154 27.3441
vn -0.795547 -0.555636 0.241605
v 2.37597 104.136 27.3731
vn -0.822085 -0.521856 0.22769
v 2.39684 104.111 27.3968
vn -0.85604 -0.474881 0.204167
v 1.69142 103.359 27.733
vn 0.247146 0.883398 -0.398153
v 1.60434 103.367 27.7114
vn -0.309979 0.594934 0.741598
v 1.58843 103.351 27.7184
vn -0.249782 0.692641 0.676651
v 1.55797 103.388 27.6539
vn -0.58856 0.684152 0.430735
v 1.54206 103.372 27.6609
vn -0.474242 0.76176 0.44138
v 1.52756 103.388 27.5834
vn -0.736288 0.670106 0.0940085
v 1.51165 103.372 27.5904
vn -0.644352 0.759184 0.09193
v 1.64916 103.317 27.7516
vn -0.273351 -0.87439 0.400902
v 1.67029 103.338 27.7423
vn -0.0787628 0.44749 0.890814
v 1.4881 103.347 27.56
vn -0.802339 -0.534115 0.266408
v 1.49592 103.356 27.5973
vn -0.670116 -0.673194 0.312658
v 1.50952 103.36 27.6339
vn -0.641709 -0.70077 0.311659
v 1.52799 103.358 27.6671
vn -0.602434 -0.729192 0.32458
v 1.55199 103.353 27.697
vn -0.562024 -0.755091 0.337589
v 1.5813 103.343 27.7223
vn -0.526575 -0.776399 0.3463
v 1.61449 103.331 27.7408
vn -0.465768 -0.807321 0.362345
v 1.65607 103.372 27.7226
vn 0.445841 0.817223 -0.365201
v 1.62225 103.384 27.7045
vn 0.500013 0.791533 -0.351374
v 1.59243 103.393 27.6794
vn 0.54375 0.767225 -0.340151
v 1.56809 103.398 27.6495
vn 0.58626 0.740599 -0.328347
v 1.54951 103.399 27.6163
vn 0.633131 0.70822 -0.312363
v 1.53585 103.396 27.5798
vn 0.643194 0.703092 -0.303254
v 1.52802 103.387 27.5425
vn 0.475594 0.821865 -0.313604
v 1.31771 102.929 25.7578
vn -0.997637 -0.0668187 0.0160191
v 1.32362 103.133 25.6645
vn -0.956804 0.258743 -0.132583
v 1.40771 103.322 25.579
vn -0.792196 0.550079 -0.264268
v 1.55932 103.474 25.5124
vn -0.524602 0.771443 -0.360095
v 1.75923 103.567 25.4729
vn -0.189117 0.892423 -0.409653
v 1.98209 103.592 25.4657
vn 0.16969 0.898025 -0.405903
v 1.96423 103.539 25.4897
vn -0.0925476 -0.904464 0.416388
v 1.76819 103.514 25.4976
vn 0.259134 -0.874945 0.409048
v 1.59281 103.43 25.5332
vn 0.579975 -0.735284 0.350695
v 1.45913 103.296 25.592
vn 0.827019 -0.503525 0.250003
v 1.38319 103.13 25.667
vn 0.970874 -0.209394 0.116436
v 1.37412 102.95 25.7492
vn 0.993264 0.111797 -0.0304708
v 1.86671 103.269 27.7775
vn -0.108489 -0.903236 0.415206
v 2.08957 103.293 27.7703
vn 0.250693 -0.877148 0.40959
v 2.28948 103.387 27.7308
vn 0.577441 -0.737409 0.350413
v 2.44109 103.538 27.6642
vn 0.829081 -0.501358 0.247518
v 2.52518 103.728 27.5787
vn 0.973278 -0.200399 0.112116
v 2.53108 103.932 27.4854
vn 0.991268 0.126448 -0.0373981
v 2.47468 103.911 27.494
vn -0.998663 -0.0509328 0.00883537
v 2.4656 103.731 27.5762
vn -0.953695 0.268005 -0.136527
v 2.38967 103.564 27.6512
vn -0.789225 0.554117 -0.264722
v 2.25598 103.431 27.71
vn -0.525288 0.771661 -0.358624
v 2.0806 103.347 27.7456
vn -0.196619 0.891236 -0.408704
v 1.88457 103.322 27.7535
vn 0.156248 0.900181 -0.406523
v 1.82662 94.507 8.2732
vn -0.668726 -0.681533 0.297185
v 2.02303 94.397 8.32712
vn -0.339255 -0.858373 0.384841
v 2.25042 94.3592 8.34847
vn 0.0344495 -0.909343 0.414619
v 2.47808 94.3987 8.33436
vn 0.390447 -0.835346 0.386973
v 2.67525 94.5103 8.28671
vn 0.693404 -0.651409 0.307989
v 2.81532 94.6787 8.21195
vn 0.905429 -0.380771 0.187645
v 2.87936 94.8814 8.12017
vn 0.997272 -0.0604347 0.0423895
v 2.85872 95.0908 8.02377
vn 0.957242 0.268001 -0.108916
v 2.7562 95.2788 7.93577
vn 0.798019 0.551794 -0.242259
v 2.58563 95.4199 7.86805
vn 0.45817 0.810022 -0.365984
v 2.37006 95.4951 7.82977
vn 0.0882013 0.905009 -0.416148
v 2.13859 95.4942 7.82608
vn -0.27213 0.871798 -0.407324
v 1.9225 95.4174 7.85749
vn -0.599716 0.722216 -0.344594
v 1.75096 95.2749 7.91976
vn -0.845573 0.478301 -0.237137
v 1.64714 95.0862 8.00447
vn -0.980551 0.169938 -0.0981831
v 1.62506 94.8765 8.10019
vn -0.985549 -0.160779 0.0533291
v 1.68771 94.6744 8.19399
vn -0.889168 -0.423118 0.174217
v 2.63825 95.3168 7.91628
vn -0.67419 -0.676993 0.295211
v 2.46025 95.4165 7.86741
vn -0.331063 -0.861104 0.385871
v 2.25418 95.4507 7.84806
vn 0.0406603 -0.909347 0.414048
v 2.04786 95.4149 7.86084
vn 0.392209 -0.834894 0.386167
v 1.86917 95.3138 7.90403
vn 0.693744 -0.651341 0.307368
v 1.74224 95.1611 7.97178
vn 0.903633 -0.38448 0.188738
v 1.6842 94.9775 8.05496
vn 0.996765 -0.0667645 0.0447357
v 1.7029 94.7877 8.14232
vn 0.96005 0.259228 -0.105376
v 1.79582 94.6173 8.22207
vn 0.802972 0.545774 -0.239513
v 1.95039 94.4894 8.28344
vn 0.454335 0.811888 -0.366631
v 2.14575 94.4213 8.31814
vn 0.0845857 0.904888 -0.41716
v 2.35552 94.4221 8.32148
vn -0.274086 0.870934 -0.407862
v 2.55136 94.4917 8.29301
vn -0.597347 0.723542 -0.345924
v 2.70682 94.6208 8.23658
vn -0.843467 0.481069 -0.239034
v 2.8009 94.7919 8.15981
vn -0.979001 0.176622 -0.101795
v 2.82091 94.9819 8.07306
vn -0.987322 -0.151169 0.0484035
v 2.76414 95.1651 7.98806
vn -0.885145 -0.430015 0.177777
v 2.46654 95.1114 7.92077
vn -0.192915 -0.604386 -0.772982
v 2.49806 95.0812 7.93519
vn -0.120414 -0.507104 -0.853432
v 2.52438 95.0471 7.95129
vn -0.190455 -0.511373 -0.837989
v 2.54492 95.0098 7.96873
vn -0.144996 -0.467469 -0.872037
v 2.55925 94.9702 7.98715
vn -0.214795 -0.453533 -0.864969
v 2.56707 94.9291 8.00615
vn -0.0991335 -0.425023 -0.899738
v 2.56821 94.8873 8.02532
vn -0.220405 -0.401129 -0.88911
v 2.56265 94.8457 8.04427
vn -0.206932 -0.367482 -0.906717
v 2.5505 94.8054 8.06257
vn -0.205087 -0.329979 -0.921441
v 2.53202 94.767 8.07985
vn -0.134348 -0.334913 -0.932622
v 2.50761 94.7314 8.09573
vn -0.113087 -0.326255 -0.938493
v 2.47779 94.6994 8.10988
vn -0.109547 -0.304117 -0.946315
v 2.44319 94.6716 8.122
vn -0.17033 -0.173942 -0.969913
v 2.40456 94.6487 8.13182
vn -0.0629184 -0.271843 -0.960283
v 2.3627 94.6311 8.13914
vn -0.060672 -0.202316 -0.977439
v 2.31852 94.6193 8.1438
vn -0.0154376 -0.256787 -0.966345
v 2.27296 94.6133 8.1457
vn 0.00676929 -0.190389 -0.981685
v 2.22699 94.6135 8.1448
vn 0.0346617 -0.254816 -0.966368
v 2.18159 94.6198 8.14113
vn 0.0752487 -0.196756 -0.977561
v 2.13772 94.632 8.13475
vn 0.0830113 -0.265987 -0.960396
v 2.09632 94.6499 8.12581
vn 0.138499 -0.220801 -0.965435
v 2.05828 94.6731 8.11449
vn 0.12616 -0.289468 -0.948837
v 2.0244 94.7012 8.10104
vn 0.143817 -0.305065 -0.94141
v 1.99541 94.7334 8.08574
vn 0.212646 -0.28513 -0.934603
v 1.97192 94.7692 8.06892
vn 0.171576 -0.342959 -0.923548
v 1.95443 94.8077 8.05094
vn 0.167806 -0.365117 -0.915713
v 1.94333 94.8482 8.03219
vn 0.184796 -0.378917 -0.906792
v 1.93883 94.8898 8.01305
vn 0.323358 -0.387496 -0.8633
v 1.94105 94.9315 7.99394
vn 0.186161 -0.432074 -0.882415
v 1.94993 94.9726 7.97527
vn 0.170128 -0.448875 -0.87725
v 1.96529 95.0121 7.95743
vn 0.175131 -0.468674 -0.865837
v 1.98679 95.0492 7.9408
vn 0.218771 -0.513173 -0.829935
v 2.01397 95.0831 7.92574
vn 0.14949 -0.508184 -0.848176
v 2.04627 95.113 7.91258
vn 0.175274 -0.562164 -0.80824
v 2.08298 95.1384 7.90158
vn 0.112683 -0.539282 -0.834552
v 2.12334 95.1587 7.89299
vn 0.118747 -0.597477 -0.793045
v 2.16647 95.1735 7.88698
vn 0.06753 -0.559418 -0.82613
v 2.21146 95.1824 7.88369
vn 0.0529683 -0.616665 -0.785442
v 2.25735 95.1853 7.88319
vn 0.0184204 -0.566966 -0.823535
v 2.30316 95.1821 7.88548
vn -0.0158543 -0.617883 -0.78611
v 2.34791 95.1728 7.89052
vn -0.0319418 -0.561236 -0.827039
v 2.39066 95.1577 7.8982
vn -0.0816424 -0.601269 -0.794865
v 2.43049 95.1371 7.90836
vn -0.0773825 -0.542715 -0.836345
v 1.84119 94.4874 8.19578
vn -0.227145 -0.630439 -0.742261
v 1.88651 94.4535 8.21216
vn -0.203289 -0.661569 -0.721803
v 1.93526 94.4237 8.2267
vn -0.124977 -0.617955 -0.776216
v 1.98698 94.3983 8.23925
vn -0.101425 -0.629068 -0.770705
v 2.04119 94.3776 8.2497
vn -0.109126 -0.705987 -0.699767
v 2.09739 94.3617 8.25796
vn -0.0510601 -0.644775 -0.762665
v 2.15504 94.3509 8.26394
vn -0.0248431 -0.649381 -0.760058
v 2.21361 94.3452 8.26759
vn -0.00319651 -0.724245 -0.689536
v 2.27256 94.3447 8.26888
vn 0.028363 -0.651489 -0.758127
v 2.33134 94.3493 8.26779
vn 0.0552833 -0.648892 -0.75887
v 2.38938 94.3591 8.26434
vn 0.103389 -0.714128 -0.692338
v 2.44616 94.3739 8.25855
vn 0.106607 -0.637086 -0.763385
v 2.50114 94.3936 8.25049
vn 0.131593 -0.627804 -0.767167
v 2.55382 94.418 8.24021
vn 0.202884 -0.676847 -0.707613
v 2.60369 94.447 8.22783
vn 0.177673 -0.60284 -0.777828
v 2.65029 94.4801 8.21346
vn 0.198586 -0.58746 -0.784509
v 2.69318 94.5172 8.19723
vn 0.286559 -0.61523 -0.734422
v 2.73198 94.5578 8.17929
vn 0.23476 -0.551937 -0.800159
v 2.76631 94.6016 8.15981
vn 0.250109 -0.531656 -0.809189
v 2.79585 94.6482 8.13898
vn 0.347526 -0.534679 -0.770288
v 2.82033 94.6971 8.11698
vn 0.273639 -0.488233 -0.828704
v 2.83951 94.7479 8.09402
vn 0.282253 -0.465268 -0.838963
v 2.85323 94.8001 8.07032
vn 0.380965 -0.441589 -0.812321
v 2.86135 94.8533 8.0461
vn 0.291079 -0.416817 -0.861125
v 2.8638 94.9069 8.02158
vn 0.291809 -0.392752 -0.87212
v 2.86055 94.9604 7.99699
vn 0.271786 -0.376803 -0.885523
v 2.85163 95.0133 7.97257
vn 0.365936 -0.322213 -0.873081
v 2.83713 95.0651 7.94854
vn 0.278497 -0.321512 -0.905024
v 2.81719 95.1154 7.92512
vn 0.355589 -0.250153 -0.900544
v 2.79198 95.1637 7.90254
vn 0.257015 -0.276931 -0.925879
v 2.76174 95.2095 7.881
vn 0.243246 -0.256522 -0.935429
v 2.72676 95.2524 7.8607
vn 0.298959 -0.167566 -0.939439
v 2.68737 95.2921 7.84184
vn 0.208755 -0.219579 -0.952999
v 2.64392 95.328 7.82459
vn 0.136222 -0.276908 -0.951192
v 2.59683 95.3599 7.80912
vn 0.278798 -0.0122037 -0.960272
v 2.54654 95.3876 7.79556
vn 0.144346 -0.177243 -0.973524
v 2.49351 95.4106 7.78404
vn 0.119937 -0.167174 -0.978605
v 2.43824 95.4289 7.77468
vn 0.0933518 -0.178899 -0.979429
v 2.38125 95.4423 7.76755
vn 0.0898361 -0.0702499 -0.993476
v 2.32307 95.4506 7.76273
vn 0.0425219 -0.150213 -0.987739
v 2.26424 95.4537 7.76025
vn 0.0201609 -0.168455 -0.985503
v 2.20531 95.4516 7.76015
vn -0.0133092 -0.0647982 -0.99781
v 2.14683 95.4444 7.76243
vn -0.0373653 -0.154172 -0.987337
v 2.08935 95.4321 7.76705
vn -0.0908356 -0.0639783 -0.993809
v 2.0334 95.4148 7.77399
vn -0.052128 -0.250046 -0.96683
v 1.97951 95.3927 7.78317
vn -0.145825 -0.0993828 -0.984306
v 1.92818 95.366 7.79451
vn -0.188231 -0.105628 -0.976428
v 1.87989 95.3349 7.8079
vn -0.157364 -0.205486 -0.965925
v 1.83509 95.2998 7.82322
vn -0.113558 -0.285661 -0.951579
v 1.7942 95.2609 7.84033
vn -0.260677 -0.162537 -0.951645
v 1.75759 95.2186 7.85906
vn -0.276031 -0.201534 -0.939782
v 1.72562 95.1734 7.87924
vn -0.225952 -0.279809 -0.933088
v 1.69858 95.1256 7.90068
vn -0.218698 -0.306823 -0.9263
v 1.67672 95.0756 7.92318
vn -0.244431 -0.316617 -0.916519
v 1.66025 95.0241 7.94654
vn -0.333237 -0.315683 -0.888424
v 1.64932 94.9713 7.97053
vn -0.353523 -0.348225 -0.868194
v 1.64403 94.9179 7.99493
vn -0.17238 -0.403601 -0.89855
v 1.64443 94.8643 8.01951
vn -0.260602 -0.411991 -0.873127
v 1.65052 94.811 8.04404
vn -0.352899 -0.435153 -0.828314
v 1.66224 94.7586 8.0683
vn -0.332086 -0.471625 -0.816877
v 1.67948 94.7075 8.09205
vn -0.243221 -0.491104 -0.836457
v 1.70209 94.6581 8.11508
vn -0.217307 -0.504196 -0.835801
v 1.72984 94.611 8.13717
vn -0.292278 -0.558069 -0.776616
v 1.76249 94.5666 8.15811
vn -0.204245 -0.55444 -0.806771
v 1.79972 94.5253 8.17771
vn -0.176261 -0.560138 -0.80943
v 2.46528 95.1442 7.99234
vn -0.124077 0.303596 0.944688
v 2.4968 95.114 8.00675
vn -0.146606 0.307924 0.940048
v 2.52311 95.0799 8.02285
vn -0.215569 0.289449 0.932604
v 2.54365 95.0426 8.0403
vn -0.173399 0.346407 0.921919
v 2.55798 95.003 8.05872
vn -0.243408 0.346776 0.905814
v 2.5658 94.9619 8.07772
vn -0.241466 0.384233 0.8911
v 2.56694 94.9201 8.09689
vn -0.251262 0.418775 0.872637
v 2.56138 94.8786 8.11583
vn -0.129494 0.433492 0.891805
v 2.54923 94.8382 8.13414
vn -0.2399 0.470163 0.849349
v 2.53076 94.7998 8.15142
vn -0.169891 0.479233 0.861088
v 2.50635 94.7642 8.1673
vn -0.263776 0.560427 0.785076
v 2.47653 94.7322 8.18145
vn -0.13552 0.52222 0.841974
v 2.44193 94.7044 8.19356
vn -0.112118 0.526833 0.842542
v 2.40329 94.6815 8.20339
vn -0.102101 0.545405 0.831931
v 2.36143 94.6639 8.2107
vn -0.102625 0.603965 0.790376
v 2.31726 94.6521 8.21536
vn -0.0550927 0.56256 0.824919
v 2.2717 94.6462 8.21727
vn -0.0361674 0.618751 0.784754
v 2.22572 94.6463 8.21637
vn -0.00567597 0.566833 0.823813
v 2.18032 94.6526 8.21269
vn 0.0328889 0.615374 0.787549
v 2.13645 94.6648 8.20632
vn 0.0436448 0.557789 0.828834
v 2.09506 94.6827 8.19737
vn 0.0972979 0.594339 0.798307
v 2.05701 94.7059 8.18606
vn 0.0878221 0.536234 0.839488
v 2.02313 94.734 8.1726
vn 0.106668 0.521404 0.846616
v 1.99414 94.7662 8.15731
vn 0.174599 0.533399 0.827648
v 1.97065 94.802 8.14049
vn 0.136286 0.48477 0.863959
v 1.95317 94.8405 8.12251
vn 0.277534 0.485973 0.828737
v 1.94206 94.881 8.10375
vn 0.154565 0.434473 0.887324
v 1.93757 94.9226 8.08461
vn 0.143897 0.416113 0.897855
v 1.93979 94.9643 8.0655
vn 0.155356 0.396502 0.904793
v 1.94867 95.0054 8.04683
vn 0.281888 0.324235 0.903001
v 1.96402 95.0449 8.02899
vn 0.140129 0.345206 0.928007
v 1.98552 95.082 8.01237
vn 0.181461 0.28792 0.940305
v 2.01271 95.1159 7.99731
vn 0.112223 0.306883 0.945108
v 2.045 95.1459 7.98414
vn 0.135575 0.24097 0.961017
v 2.08172 95.1713 7.97315
vn 0.0738638 0.277527 0.957874
v 2.12207 95.1916 7.96455
vn 0.0769755 0.208034 0.975088
v 2.1652 95.2063 7.95855
vn 0.0278145 0.25942 0.965364
v 2.21019 95.2152 7.95526
vn 0.0103835 0.191737 0.981391
v 2.25608 95.2181 7.95475
vn -0.0221951 0.254067 0.966932
v 2.30189 95.2149 7.95705
vn -0.0584902 0.193528 0.97935
v 2.34665 95.2056 7.96209
vn -0.0713844 0.262009 0.962422
v 2.38939 95.1905 7.96977
vn -0.123421 0.213208 0.96918
v 2.42922 95.1699 7.97992
vn -0.115874 0.282468 0.952253
v 1.83992 94.5203 8.26735
vn -0.143004 0.282211 0.948634
v 1.79845 94.5581 8.24927
vn -0.364352 0.0796485 0.927849
v 1.76122 94.5994 8.22967
vn -0.240633 0.253236 0.936999
v 1.72858 94.6438 8.20873
vn -0.177417 0.320393 0.930522
v 1.70082 94.6909 8.18664
vn -0.439404 0.181911 0.879678
v 1.67822 94.7403 8.16362
vn -0.276994 0.317616 0.90686
v 1.66097 94.7914 8.13986
vn -0.198244 0.365916 0.909288
v 1.64925 94.8439 8.11561
vn -0.380996 0.328118 0.864396
v 1.64316 94.8971 8.09107
vn -0.291194 0.380855 0.877585
v 1.64276 94.9507 8.06649
vn -0.372832 0.400371 0.837078
v 1.64805 95.0041 8.04209
vn -0.381894 0.436211 0.814786
v 1.65898 95.0569 8.0181
vn -0.198935 0.447547 0.871852
v 1.67545 95.1085 7.99475
vn -0.278183 0.476691 0.833894
v 1.69731 95.1584 7.97224
vn -0.442261 0.54254 0.714182
v 1.72435 95.2062 7.9508
vn -0.252225 0.528387 0.810672
v 1.75633 95.2514 7.93062
vn -0.168896 0.507957 0.844662
v 1.79293 95.2937 7.91189
vn -0.298686 0.602824 0.739858
v 1.83382 95.3326 7.89479
vn -0.260575 0.624269 0.736471
v 1.87863 95.3677 7.87947
vn -0.181297 0.600563 0.778752
v 1.92692 95.3988 7.86607
vn -0.208025 0.674059 0.708781
v 1.97825 95.4255 7.85474
vn -0.100401 0.561721 0.821212
v 2.03214 95.4476 7.84556
vn -0.144227 0.691876 0.707465
v 2.08808 95.4649 7.83862
vn -0.10911 0.71283 0.692797
v 2.14556 95.4772 7.83399
vn -0.0593128 0.648279 0.759089
v 2.20404 95.4844 7.83172
vn -0.0308859 0.579814 0.814163
v 2.26297 95.4865 7.83182
vn -0.00646421 0.795405 0.606044
v 2.3218 95.4834 7.83429
vn 0.0203216 0.649876 0.759768
v 2.37998 95.4751 7.83912
vn 0.023984 0.576884 0.816474
v 2.43698 95.4617 7.84624
vn 0.128146 0.776518 0.616927
v 2.49224 95.4435 7.85561
vn 0.0969701 0.630863 0.769811
v 2.54527 95.4204 7.86713
vn 0.121236 0.619874 0.775279
v 2.59556 95.3928 7.88068
vn 0.12957 0.59724 0.791527
v 2.64265 95.3608 7.89616
vn 0.213935 0.640846 0.737257
v 2.6861 95.3249 7.91341
vn 0.184125 0.575832 0.796565
v 2.7255 95.2853 7.93227
vn 0.277023 0.597613 0.752407
v 2.76048 95.2423 7.95256
vn 0.217332 0.537621 0.814697
v 2.79071 95.1965 7.9741
vn 0.230519 0.516781 0.824499
v 2.81592 95.1482 7.99669
vn 0.330332 0.51358 0.791907
v 2.83587 95.0979 8.0201
vn 0.25007 0.472101 0.845332
v 2.85037 95.0461 8.04414
vn 0.168682 0.444836 0.879584
v 2.85928 94.9932 8.06856
vn 0.453795 0.415094 0.788522
v 2.86253 94.9397 8.09315
vn 0.260942 0.399836 0.878658
v 2.86009 94.8861 8.11766
vn 0.259564 0.375809 0.889603
v 2.85197 94.833 8.14189
vn 0.34884 0.321349 0.880367
v 2.83825 94.7807 8.16559
vn 0.248646 0.328008 0.911365
v 2.81906 94.7299 8.18854
vn 0.239582 0.305288 0.921629
v 2.79458 94.681 8.21054
vn 0.312343 0.22948 0.921835
v 2.76504 94.6344 8.23138
vn 0.214338 0.262312 0.940878
v 2.73071 94.5906 8.25086
vn 0.19849 0.242791 0.949555
v 2.69192 94.55 8.2688
vn 0.248433 0.150612 0.956868
v 2.64902 94.5129 8.28503
vn 0.160628 0.208024 0.964844
v 2.60242 94.4798 8.2994
vn 0.13967 0.193463 0.971115
v 2.55255 94.4509 8.31178
vn 0.162393 0.0914847 0.982476
v 2.49988 94.4264 8.32205
vn 0.0924064 0.16986 0.981126
v 2.4449 94.4067 8.33012
vn 0.0677213 0.161376 0.984567
v 2.38812 94.3919 8.33591
vn 0.0618374 0.0571471 0.996449
v 2.33007 94.3821 8.33936
vn 0.0153214 0.150892 0.988432
v 2.2713 94.3775 8.34045
vn -0.0115069 0.149255 0.988732
v 2.21235 94.378 8.33916
vn -0.0453123 0.0502686 0.997707
v 2.15377 94.3837 8.33551
vn -0.0644361 0.152823 0.986151
v 2.09612 94.3945 8.32953
vn -0.090603 0.158131 0.983253
v 2.03992 94.4104 8.32127
vn -0.149732 0.0714973 0.986138
v 1.98571 94.4311 8.31082
vn -0.140348 0.175447 0.974434
v 1.93399 94.4565 8.29826
vn -0.163433 0.18733 0.968606
v 1.88524 94.4863 8.28373
vn -0.242928 0.119068 0.962709
v 71.5538 102.558 25.9435
vn 0.335549 0.854675 -0.396153
v 71.4511 102.572 25.9552
vn 0.259234 0.0303114 0.965339
v 71.4686 102.587 25.9484
vn 0.265226 0.177505 0.947706
v 71.4089 102.633 25.9749
vn 0.46364 -0.251087 0.849702
v 71.4263 102.648 25.9681
vn 0.509258 -0.10633 0.85402
v 71.3813 102.689 26.0202
vn 0.578352 -0.506967 0.639135
v 71.3987 102.703 26.0134
vn 0.666881 -0.403022 0.626772
v 71.3551 102.716 26.0911
vn -0.749999 -0.596205 0.286429
v 71.3769 102.734 26.0825
vn 0.674148 -0.672165 0.306135
v 71.3988 102.752 26.0739
vn 0.782227 0.561014 -0.270894
v 71.5306 102.539 25.9526
vn 0.0758688 0.378212 0.922605
v 71.5075 102.52 25.9617
vn -0.359597 -0.844254 0.397397
v 71.4745 102.54 25.9571
vn -0.547422 -0.756805 0.357177
v 71.4432 102.565 25.9585
vn -0.589947 -0.729757 0.345568
v 71.4158 102.592 25.9667
vn -0.635014 -0.697222 0.332624
v 71.3935 102.621 25.981
vn -0.672831 -0.667523 0.318923
v 71.3765 102.648 26.001
vn -0.675653 -0.663851 0.320617
v 71.3641 102.675 26.027
vn 0.626302 -0.465843 0.625089
v 71.357 102.698 26.0578
vn -0.739745 -0.606777 0.290859
v 71.4007 102.734 26.0406
vn 0.731277 -0.521471 0.439662
v 71.4078 102.711 26.0098
vn 0.642164 -0.451783 0.619288
v 71.4203 102.684 25.9838
vn 0.679833 0.663122 -0.313204
v 71.4374 102.657 25.9637
vn 0.659515 0.679231 -0.322001
v 71.4601 102.629 25.9493
vn 0.629185 0.703265 -0.330977
v 71.488 102.601 25.9409
vn 0.598319 0.724801 -0.341581
v 71.5201 102.577 25.9393
vn 0.519908 0.773686 -0.362085
v 72.3473 103.207 25.6318
vn -0.954424 -0.264116 0.138988
v 72.3318 103.293 25.6092
vn 0.248124 0.118276 0.961481
v 72.3492 103.307 25.6024
vn 0.354647 0.156849 0.92175
v 72.2896 103.354 25.629
vn 0.449315 -0.246794 0.858608
v 72.307 103.368 25.6221
vn 0.517054 -0.127038 0.846473
v 72.2619 103.41 25.6743
vn 0.565693 -0.518659 0.64108
v 72.2794 103.424 25.6674
vn 0.65556 -0.416048 0.630195
v 72.3936 103.245 25.6136
vn 0.973658 0.201346 -0.107004
v 72.3705 103.226 25.6227
vn 0.0504362 0.35793 0.932385
v 72.2442 103.444 25.7418
vn -0.693721 -0.649827 0.310605
v 72.266 103.462 25.7332
vn 0.673923 -0.672311 0.306311
v 72.2879 103.48 25.7246
vn 0.747324 0.598973 -0.287643
v 72.2898 103.461 25.6913
vn 0.708702 -0.542066 0.451559
v 72.2966 103.438 25.6606
vn 0.627848 -0.470023 0.620391
v 72.308 103.411 25.635
vn 0.796296 0.546098 -0.260173
v 72.3224 103.381 25.616
vn 0.807577 0.530941 -0.25675
v 72.3395 103.348 25.6038
vn 0.827375 0.505455 -0.24488
v 72.3583 103.314 25.599
vn 0.852913 0.468499 -0.230323
v 72.3768 103.278 25.6026
vn 0.888383 0.411354 -0.203871
v 72.3315 103.241 25.6205
vn -0.900043 -0.389137 0.196202
v 72.3137 103.277 25.6165
vn -0.868598 -0.443212 0.221587
v 72.2954 103.312 25.6211
vn -0.835688 -0.492594 0.242851
v 72.2785 103.345 25.6333
vn -0.809421 -0.527865 0.257285
v 72.2642 103.375 25.6522
vn -0.792982 -0.547248 0.267769
v 72.2529 103.402 25.6778
vn 0.642992 -0.453284 0.617329
v 72.2461 103.426 25.7085
vn -0.739852 -0.60622 0.291748
v 71.3807 103.372 27.5225
vn 0.567971 -0.74992 0.339161
v 71.4244 103.408 27.5054
vn 0.752448 -0.60205 0.267131
v 71.4116 103.08 26.7896
vn 0.836571 -0.503544 0.215853
v 71.4025 103.39 27.5139
vn 0.673781 -0.67244 0.306339
v 71.3679 103.044 26.8068
vn 0.620392 -0.717126 0.317558
v 72.2698 104.1 27.1732
vn 0.587489 -0.737856 0.332303
v 72.3135 104.136 27.1561
vn 0.752448 -0.60205 0.267131
v 72.257 103.772 26.4575
vn 0.475805 -0.802778 0.359385
v 72.3007 103.808 26.4403
vn 0.715856 -0.639526 0.280278
v 72.2916 104.118 27.1646
vn 0.674005 -0.672297 0.306161
v 71.3213 103.645 27.6153
vn 0.976756 0.188071 -0.102845
v 71.3193 103.545 27.6447
vn 0.360637 0.113994 0.925714
v 71.3368 103.559 27.6379
vn 0.222099 0.143893 0.964348
v 71.3616 103.483 27.625
vn 0.547551 -0.18126 0.816904
v 71.379 103.498 27.6182
vn 0.415389 -0.183055 0.891035
v 71.3892 103.428 27.5797
vn 0.670625 -0.434318 0.601357
v 71.4066 103.442 27.5729
vn 0.56973 -0.481894 0.665722
v 71.2981 103.626 27.6244
vn 0.0500549 0.357825 0.932446
v 71.275 103.607 27.6335
vn -0.95035 -0.275085 0.145474
v 71.2917 103.573 27.6445
vn -0.888281 -0.411099 0.204829
v 71.3103 103.538 27.6481
vn -0.857989 -0.460754 0.227069
v 71.329 103.503 27.6434
vn -0.826964 -0.504732 0.24774
v 71.3461 103.471 27.6311
vn -0.799522 -0.540131 0.262723
v 71.3606 103.441 27.6121
vn -0.775366 -0.568267 0.275464
v 71.3719 103.414 27.5865
vn -0.726263 -0.613509 0.310079
v 71.3788 103.391 27.5558
vn -0.635241 -0.682966 0.360592
v 71.4225 103.426 27.5387
vn 0.898778 0.412137 -0.149472
v 71.4157 103.45 27.5693
vn 0.773811 0.573691 -0.268507
v 71.4044 103.477 27.5949
vn 0.776475 0.567928 -0.273029
v 71.3901 103.507 27.6138
vn 0.810432 0.527331 -0.25519
v 71.3732 103.54 27.626
vn 0.848119 0.47611 -0.232406
v 71.3549 103.575 27.6306
vn 0.868759 0.445353 -0.216608
v 71.337 103.611 27.6267
vn 0.900345 0.389937 -0.193204
v 72.1148 104.294 27.3036
vn -0.335597 -0.853127 0.399436
v 72.2 104.265 27.2988
vn 0.285835 0.14874 0.946665
v 72.2174 104.279 27.2919
vn 0.221821 0.0482345 0.973894
v 72.2422 104.204 27.279
vn 0.545742 -0.169709 0.820588
v 72.2596 104.218 27.2722
vn 0.431732 -0.198417 0.879908
v 72.2699 104.149 27.2337
vn 0.68825 -0.420803 0.590963
v 72.2873 104.163 27.2269
vn 0.578729 -0.480915 0.65863
v 72.1611 104.332 27.2854
vn 0.360105 0.847506 -0.389946
v 72.1379 104.313 27.2945
vn 0.0756392 0.378384 0.922553
v 72.3116 104.154 27.1894
vn 0.8268 0.519309 -0.216148
v 72.3045 104.177 27.2201
vn 0.749541 0.602716 -0.273717
v 72.2921 104.204 27.2461
vn 0.707451 0.638309 -0.303438
v 72.2751 104.231 27.2661
vn 0.664471 0.675165 -0.32036
v 72.2528 104.259 27.2805
vn 0.636525 0.697313 -0.329532
v 72.2254 104.287 27.2886
vn 0.602852 0.721053 -0.341544
v 72.194 104.312 27.29
vn 0.547589 0.757108 -0.356277
v 72.1485 104.275 27.3079
vn -0.519942 -0.772362 0.364853
v 72.1805 104.251 27.3062
vn -0.579638 -0.735787 0.350194
v 72.2085 104.223 27.2979
vn -0.627023 -0.703111 0.335376
v 72.2311 104.195 27.2834
vn -0.657771 -0.679903 0.324143
v 72.2483 104.168 27.2633
vn -0.698353 -0.64543 0.30939
v 72.2608 104.141 27.2373
vn -0.710183 -0.631909 0.310373
v 72.2679 104.118 27.2065
vn -0.508674 -0.75559 0.412716
v 72.4469 103.047 25.7036
vn 0.999622 -0.02738 -0.00229531
v 72.4206 102.844 25.7968
vn 0.926362 -0.34736 0.145586
v 72.3178 102.664 25.8813
vn 0.732574 -0.622961 0.274327
v 72.1517 102.528 25.9466
vn 0.444811 -0.816117 0.368912
v 71.9434 102.454 25.9842
vn 0.0989957 -0.904218 0.415439
v 71.7192 102.451 25.9895
vn -0.259774 -0.87503 0.408461
v 71.7423 102.502 25.9657
vn 0.184029 0.893587 -0.409434
v 71.9398 102.508 25.9595
vn -0.170488 0.898183 -0.405217
v 72.1228 102.575 25.9255
vn -0.502813 0.790411 -0.349899
v 72.2693 102.695 25.868
vn -0.7719 0.584689 -0.249617
v 72.3616 102.853 25.7938
vn -0.94497 0.304584 -0.119417
v 72.3887 103.031 25.7117
vn -0.999551 -0.0129512 0.0270207
v 71.9494 104.401 27.2576
vn 0.198248 0.89084 -0.408781
v 71.7252 104.398 27.2629
vn -0.161715 0.899341 -0.406244
v 71.5168 104.324 27.3005
vn -0.500374 0.791238 -0.351523
v 71.3507 104.188 27.3658
vn -0.77479 0.58096 -0.249372
v 71.248 104.007 27.4504
vn -0.948242 0.295772 -0.115565
v 71.2216 103.805 27.5435
vn -0.999041 -0.0279355 0.0337063
v 71.2799 103.821 27.5354
vn 0.999051 -0.0432581 0.00511267
v 71.307 103.999 27.4534
vn 0.922038 -0.356767 0.150209
v 71.3993 104.157 27.3791
vn 0.729545 -0.625405 0.276826
v 71.5457 104.277 27.3216
vn 0.446325 -0.814849 0.369886
v 71.7287 104.344 27.2877
vn 0.106839 -0.90333 0.415427
v 71.9263 104.35 27.2814
vn -0.246581 -0.878027 0.410203
v 71.9692 95.3132 7.90284
vn 0.734068 0.610912 -0.296531
v 71.7848 95.4417 7.84728
vn 0.424356 0.819236 -0.385713
v 71.5623 95.5012 7.82397
vn 0.0559912 0.90618 -0.419169
v 71.3318 95.4838 7.83605
vn -0.304236 0.866952 -0.394759
v 71.1244 95.3919 7.88191
vn -0.624912 0.712815 -0.318404
v 70.968 95.2377 7.95534
vn -0.862888 0.464065 -0.200168
v 70.8839 95.0422 8.04642
vn -0.986441 0.154263 -0.0560122
v 70.8834 94.8318 8.14287
vn -0.979629 -0.176657 0.0954919
v 70.9665 94.6348 8.23164
vn -0.849958 -0.474383 0.2292
v 71.1221 94.4779 8.30076
vn -0.537047 -0.764233 0.357111
v 71.329 94.3823 8.34088
vn -0.179342 -0.894193 0.410189
v 71.5595 94.3608 8.34659
vn 0.183923 -0.895882 0.404435
v 71.7822 94.4164 8.31711
vn 0.523493 -0.779134 0.344826
v 71.9673 94.5416 8.25644
vn 0.793128 -0.559973 0.239537
v 72.0896 94.7195 8.17276
vn 0.95871 -0.265602 0.101645
v 72.1326 94.926 8.07737
vn 0.996811 0.0626159 -0.0494664
v 72.0906 95.1332 7.98315
vn 0.927253 0.332159 -0.172835
v 71.0801 94.5856 8.25214
vn 0.739439 0.605634 -0.294003
v 71.2472 94.4692 8.30249
vn 0.41579 0.822757 -0.387542
v 71.4488 94.4152 8.32362
vn 0.0507405 0.906212 -0.419769
v 71.6577 94.431 8.31267
vn -0.30694 0.865939 -0.394889
v 71.8457 94.5143 8.27111
vn -0.624459 0.712913 -0.319069
v 71.9874 94.654 8.20457
vn -0.860743 0.467155 -0.202208
v 72.0636 94.8312 8.12202
vn -0.985337 0.160016 -0.0592165
v 72.0641 95.0219 8.03462
vn -0.981602 -0.167873 0.0909704
v 71.9888 95.2004 7.95417
vn -0.854361 -0.467871 0.226195
v 71.8478 95.3426 7.89153
vn -0.534282 -0.765742 0.358025
v 71.6602 95.4293 7.85517
vn -0.175165 -0.895279 0.409625
v 71.4514 95.4487 7.85
vn 0.185573 -0.89594 0.403551
v 71.2495 95.3983 7.87671
vn 0.52206 -0.78021 0.344566
v 71.0818 95.2849 7.93169
vn 0.790382 -0.563435 0.240495
v 70.971 95.1237 8.00753
vn 0.956338 -0.272948 0.104482
v 70.932 94.9366 8.09398
vn 0.997584 0.0526007 -0.0453831
v 70.9701 94.7488 8.17936
vn 0.923925 0.339723 -0.175926
v 71.2683 94.7079 8.10613
vn 0.212667 -0.209275 -0.954451
v 71.24 94.741 8.09146
vn 0.129339 -0.327333 -0.936015
v 71.2172 94.7775 8.07515
vn 0.199758 -0.318651 -0.926584
v 71.2005 94.8165 8.05755
vn 0.149803 -0.368902 -0.917317
v 71.1902 94.8574 8.03903
vn 0.218363 -0.37903 -0.899252
v 71.1866 94.899 8.01999
vn 0.0994696 -0.414088 -0.904786
v 71.1897 94.9407 8.00083
vn 0.218703 -0.430837 -0.875528
v 71.1994 94.9815 7.98197
vn 0.201997 -0.465179 -0.861862
v 71.2155 95.0206 7.9638
vn 0.196247 -0.500892 -0.842967
v 71.2378 95.057 7.9467
vn 0.125633 -0.499939 -0.8569
v 71.2656 95.09 7.93106
vn 0.103618 -0.508249 -0.854954
v 71.2985 95.119 7.91719
vn 0.0981688 -0.52826 -0.843389
v 71.3358 95.1433 7.9054
vn 0.146885 -0.635497 -0.758003
v 71.3765 95.1624 7.89593
vn 0.0483242 -0.555886 -0.829853
v 71.4199 95.1758 7.88899
vn 0.0398337 -0.613833 -0.78843
v 71.4651 95.1834 7.88472
vn -2.10605e-05 -0.566145 -0.824306
v 71.511 95.1849 7.88322
vn -0.0292058 -0.619099 -0.78477
v 71.5567 95.1802 7.88452
vn -0.0503798 -0.563435 -0.824623
v 71.6013 95.1696 7.88859
vn -0.0962282 -0.606112 -0.789537
v 71.6437 95.1532 7.89534
vn -0.097431 -0.547674 -0.831
v 71.6831 95.1314 7.90463
vn -0.156419 -0.576145 -0.802241
v 71.7187 95.1046 7.91627
vn -0.13749 -0.520164 -0.842927
v 71.7495 95.0735 7.93
vn -0.154161 -0.50281 -0.850539
v 71.7752 95.0386 7.94553
vn -0.223965 -0.505079 -0.833508
v 71.7949 95.0007 7.96253
vn -0.177883 -0.462408 -0.868641
v 71.8085 94.9607 7.98063
vn -0.171893 -0.442752 -0.880013
v 71.8154 94.9193 7.99946
vn -0.187253 -0.425096 -0.885567
v 71.8157 94.8775 8.01861
vn -0.323016 -0.375581 -0.868677
v 71.8093 94.8362 8.03767
vn -0.183302 -0.372378 -0.909799
v 71.7964 94.7961 8.05624
vn -0.165793 -0.359101 -0.918455
v 71.7771 94.7583 8.07392
vn -0.168735 -0.337076 -0.926233
v 71.752 94.7235 8.09034
vn -0.206898 -0.277494 -0.938185
v 71.7215 94.6924 8.10513
vn -0.139268 -0.300104 -0.943685
v 71.6864 94.6657 8.118
vn -0.15917 -0.232957 -0.959373
v 71.6473 94.6439 8.12866
vn -0.0994307 -0.272833 -0.95691
v 71.6051 94.6276 8.13688
vn -0.0988058 -0.203252 -0.974128
v 71.5607 94.6171 8.1425
vn -0.0524982 -0.257029 -0.964977
v 71.515 94.6126 8.14539
vn -0.0313933 -0.190278 -0.981228
v 71.469 94.6141 8.14549
vn -0.00266954 -0.25431 -0.967119
v 71.4238 94.6218 8.1428
vn 0.0370916 -0.195951 -0.979912
v 71.3802 94.6353 8.13738
vn 0.046228 -0.264811 -0.963192
v 71.3392 94.6545 8.12933
vn 0.101283 -0.21891 -0.970474
v 71.3016 94.6788 8.11884
vn 0.0898906 -0.2877 -0.953493
v 71.9534 95.2685 7.837
vn 0.250312 -0.171741 -0.952811
v 71.9117 95.3067 7.82024
vn 0.229911 -0.134802 -0.963831
v 71.8662 95.3411 7.8053
vn 0.145939 -0.197614 -0.969356
v 71.8172 95.3713 7.79231
vn 0.123647 -0.184067 -0.975106
v 71.7654 95.3971 7.7814
vn 0.140124 -0.0811372 -0.986804
v 71.711 95.4183 7.77266
vn 0.0751111 -0.163446 -0.983689
v 71.6548 95.4347 7.76618
vn 0.0494535 -0.156533 -0.986434
v 71.597 95.446 7.76202
vn 0.0371038 -0.0529297 -0.997909
v 71.5384 95.4522 7.76022
vn -0.00350846 -0.149342 -0.988779
v 71.4795 95.4533 7.76079
vn -0.0300438 -0.149057 -0.988372
v 71.4207 95.4492 7.76373
vn -0.0701826 -0.0525123 -0.996151
v 71.3627 95.4399 7.76901
vn -0.0826154 -0.156099 -0.98428
v 71.306 95.4256 7.77658
vn -0.10861 -0.162827 -0.980659
v 71.2512 95.4063 7.78638
vn -0.172773 -0.0801237 -0.981697
v 71.1986 95.3824 7.7983
vn -0.156696 -0.183168 -0.970513
v 71.1489 95.3539 7.81225
vn -0.17891 -0.196474 -0.964048
v 71.1025 95.3211 7.82808
vn -0.262331 -0.133143 -0.955749
v 71.0598 95.2845 7.84565
vn -0.218883 -0.228481 -0.948624
v 71.0213 95.2442 7.8648
vn -0.23616 -0.247119 -0.939766
v 70.9872 95.2007 7.88535
vn -0.33131 -0.207344 -0.920458
v 70.9579 95.1543 7.9071
vn -0.263834 -0.288128 -0.920529
v 70.9337 95.1056 7.92986
vn -0.274344 -0.310305 -0.91019
v 70.9148 95.055 7.9534
vn -0.373889 -0.296851 -0.878684
v 70.9014 95.0029 7.97752
vn -0.288281 -0.356974 -0.888518
v 70.8935 94.9498 8.00198
vn -0.291448 -0.381035 -0.877423
v 70.8914 94.8962 8.02656
vn -0.273342 -0.403696 -0.873106
v 70.895 94.8427 8.05103
vn -0.371189 -0.422013 -0.827118
v 70.9042 94.7897 8.07515
vn -0.285252 -0.453444 -0.844405
v 70.919 94.7377 8.09871
vn -0.367969 -0.489929 -0.790297
v 70.9392 94.6872 8.12148
vn -0.268658 -0.500022 -0.823287
v 70.9647 94.6387 8.14326
vn -0.256636 -0.521508 -0.813737
v 70.9952 94.5926 8.16383
vn -0.319781 -0.577689 -0.75101
v 71.0304 94.5494 8.18301
vn -0.226329 -0.561642 -0.795822
v 71.07 94.5094 8.20061
vn -0.149222 -0.52911 -0.83533
v 71.1137 94.4731 8.21648
vn -0.313578 -0.695717 -0.646256
v 71.1609 94.4407 8.23046
vn -0.16595 -0.610169 -0.774696
v 71.2114 94.4127 8.24243
vn -0.143044 -0.622288 -0.769608
v 71.2645 94.3891 8.25226
vn -0.116178 -0.617473 -0.777965
v 71.3199 94.3703 8.25988
vn -0.121433 -0.699076 -0.704661
v 71.377 94.3565 8.26521
vn -0.0677316 -0.646833 -0.759618
v 71.4352 94.3477 8.26819
vn -0.0440942 -0.635158 -0.771123
v 71.4941 94.344 8.26881
vn -0.0193311 -0.714302 -0.699571
v 71.553 94.3456 8.26705
vn 0.0122756 -0.650425 -0.759471
v 71.6114 94.3523 8.26293
vn 0.0576922 -0.718364 -0.693271
v 71.6688 94.3641 8.2565
vn 0.0356578 -0.574132 -0.817986
v 71.7247 94.3809 8.24781
vn 0.115699 -0.69283 -0.711758
v 71.7784 94.4025 8.23693
vn 0.15891 -0.68633 -0.709717
v 71.8296 94.4288 8.22398
vn 0.136793 -0.610921 -0.779784
v 71.8777 94.4594 8.20908
vn 0.100121 -0.544607 -0.832694
v 71.9223 94.4942 8.19236
vn 0.236748 -0.636579 -0.733974
v 71.963 94.5327 8.17397
vn 0.255598 -0.603681 -0.755141
v 71.9994 94.5747 8.1541
vn 0.212333 -0.543943 -0.811813
v 72.0311 94.6196 8.13293
vn 0.207747 -0.520436 -0.828243
v 72.0579 94.6672 8.11065
vn 0.234547 -0.509047 -0.828166
v 72.0795 94.7169 8.08747
vn 0.323978 -0.495194 -0.806115
v 72.0956 94.7684 8.06361
vn 0.347673 -0.460848 -0.816543
v 72.1063 94.821 8.03929
vn 0.17059 -0.433341 -0.884938
v 72.1113 94.8744 8.01474
vn 0.260404 -0.415214 -0.871658
v 72.1106 94.928 7.99019
vn 0.355838 -0.374132 -0.856391
v 72.1042 94.9814 7.96587
vn 0.338478 -0.340182 -0.877331
v 72.0921 95.0339 7.942
vn 0.250865 -0.335308 -0.908095
v 72.0746 95.0852 7.9188
vn 0.226189 -0.323723 -0.918718
v 72.0517 95.1348 7.8965
vn 0.307697 -0.250289 -0.917975
v 72.0237 95.1821 7.87531
vn 0.218515 -0.268581 -0.938145
v 71.9908 95.2268 7.85541
vn 0.190756 -0.264013 -0.945468
v 71.2696 94.7407 8.1777
vn 0.134552 0.50799 0.850789
v 71.2412 94.7738 8.16303
vn 0.156544 0.499671 0.851952
v 71.2185 94.8103 8.14672
vn 0.226447 0.500497 0.835598
v 71.2018 94.8493 8.12912
vn 0.179212 0.458785 0.870287
v 71.1915 94.8902 8.11061
vn 0.248389 0.440982 0.86246
v 71.1879 94.9318 8.09156
vn 0.242584 0.405517 0.881311
v 71.1909 94.9735 8.07241
vn 0.248752 0.367929 0.895964
v 71.2007 95.0143 8.05354
vn 0.12723 0.3832 0.914861
v 71.2168 95.0534 8.03537
vn 0.232668 0.318197 0.91903
v 71.2391 95.0898 8.01828
vn 0.162402 0.326968 0.930977
v 71.2669 95.1228 8.00263
vn 0.246293 0.209174 0.946354
v 71.2998 95.1518 7.98876
vn 0.123789 0.28737 0.949786
v 71.337 95.1761 7.97697
vn 0.100104 0.286867 0.952726
v 71.3778 95.1952 7.9675
vn 0.0882311 0.267782 0.959431
v 71.4212 95.2086 7.96056
vn 0.0825222 0.198342 0.976653
v 71.4664 95.2162 7.95629
vn 0.0400699 0.25511 0.966081
v 71.5123 95.2177 7.95479
vn 0.0146456 0.190008 0.981673
v 71.558 95.213 7.95609
vn -0.0101914 0.255751 0.966689
v 71.6026 95.2024 7.96016
vn -0.0533562 0.199842 0.978374
v 71.645 95.186 7.96691
vn -0.0580538 0.269537 0.961239
v 71.6844 95.1642 7.97621
vn -0.115555 0.227178 0.966973
v 71.7199 95.1374 7.98784
vn -0.0998431 0.295107 0.950233
v 71.7508 95.1063 8.00157
vn -0.116801 0.311944 0.942894
v 71.7764 95.0714 8.0171
vn -0.186641 0.295163 0.93704
v 71.7962 95.0335 8.0341
vn -0.14279 0.351049 0.925406
v 71.8097 94.9935 8.05221
vn -0.285121 0.335756 0.897761
v 71.8167 94.9521 8.07104
vn -0.155831 0.40268 0.901979
v 71.817 94.9103 8.09019
vn -0.143522 0.421687 0.895311
v 71.8106 94.8689 8.10925
vn -0.153008 0.440714 0.884511
v 71.7976 94.8289 8.12782
vn -0.273176 0.496847 0.823722
v 71.7784 94.7911 8.1455
vn -0.132401 0.490493 0.861328
v 71.7533 94.7563 8.16191
vn -0.168397 0.540279 0.824464
v 71.7228 94.7252 8.17671
vn -0.101179 0.525659 0.844657
v 71.6876 94.6985 8.18957
vn -0.118338 0.582449 0.804207
v 71.6486 94.6767 8.20023
vn -0.0601241 0.551226 0.832187
v 71.6064 94.6604 8.20846
vn -0.0562451 0.609679 0.790651
v 71.562 94.6499 8.21408
vn -0.0119962 0.565009 0.824997
v 71.5163 94.6454 8.21697
vn 0.010945 0.619353 0.785037
v 71.4703 94.6469 8.21707
vn 0.038123 0.565361 0.823962
v 71.4251 94.6546 8.21438
vn 0.0795012 0.610991 0.787635
v 71.3815 94.6681 8.20895
vn 0.0861825 0.552751 0.828878
v 71.3404 94.6873 8.20091
vn 0.142166 0.585094 0.798407
v 71.3029 94.7116 8.19041
vn 0.128599 0.527955 0.839479
v 71.9546 95.3013 7.90857
vn 0.155405 0.523208 0.837916
v 71.9921 95.2596 7.92698
vn 0.391733 0.620286 0.679551
v 72.025 95.2149 7.94688
vn 0.254342 0.525307 0.812012
v 72.053 95.1676 7.96808
vn 0.185746 0.481882 0.856323
v 72.0759 95.118 7.99038
vn 0.456355 0.511099 0.728367
v 72.0934 95.0667 8.01357
vn 0.28422 0.457892 0.842351
v 72.1054 95.0142 8.03744
vn 0.201909 0.43444 0.877778
v 72.1118 94.9608 8.06176
vn 0.385315 0.409856 0.826771
v 72.1125 94.9072 8.08632
vn 0.291943 0.393424 0.871772
v 72.1076 94.8538 8.11086
vn 0.369938 0.343182 0.863349
v 72.0969 94.8012 8.13518
vn 0.375241 0.302149 0.876299
v 72.0807 94.7497 8.15904
vn 0.194312 0.353083 0.915191
v 72.0592 94.7 8.18222
vn 0.269543 0.299216 0.915323
v 72.0324 94.6524 8.2045
vn 0.422788 0.152332 0.893334
v 72.0007 94.6075 8.22568
vn 0.23877 0.250175 0.938297
v 71.9643 94.5655 8.24555
vn 0.158368 0.295983 0.941973
v 71.9236 94.527 8.26393
vn 0.275428 0.144124 0.950457
v 71.879 94.4922 8.28065
vn 0.235938 0.131194 0.962872
v 71.8309 94.4616 8.29556
vn 0.160519 0.18508 0.969525
v 71.7797 94.4353 8.30851
vn 0.178303 0.0823696 0.980522
v 71.726 94.4137 8.31938
vn 0.084848 0.249301 0.964702
v 71.6701 94.3969 8.32807
vn 0.113418 0.0750878 0.990706
v 71.6127 94.3851 8.33451
vn 0.0761286 0.053224 0.995676
v 71.5543 94.3784 8.33862
vn 0.0345482 0.149481 0.988161
v 71.4953 94.3768 8.34038
vn 0.0134576 0.237882 0.971201
v 71.4365 94.3805 8.33976
vn -0.0368285 -0.0575932 0.997661
v 71.3783 94.3893 8.33678
vn -0.0449755 0.155372 0.986832
v 71.3212 94.4031 8.33145
vn -0.0402197 0.24597 0.968443
v 71.2658 94.4219 8.32384
vn -0.168565 -0.0254244 0.985363
v 71.2127 94.4454 8.314
vn -0.119506 0.182106 0.97599
v 71.1622 94.4735 8.30203
vn -0.142558 0.195124 0.970363
v 71.1149 94.5059 8.28805
vn -0.147988 0.222725 0.963583
v 71.0713 94.5422 8.27219
vn -0.237939 0.16038 0.957948
v 71.0317 94.5822 8.25458
vn -0.200579 0.245259 0.948481
v 70.9964 94.6254 8.2354
vn -0.296533 0.204935 0.932775
v 70.966 94.6715 8.21483
vn -0.229717 0.286028 0.930278
v 70.9405 94.72 8.19306
vn -0.240945 0.308206 0.920301
v 70.9202 94.7705 8.17029
vn -0.341197 0.293717 0.892925
v 70.9054 94.8225 8.14673
vn -0.255756 0.354721 0.899312
v 70.8962 94.8755 8.1226
vn -0.171395 0.392232 0.903757
v 70.8927 94.929 8.09813
vn -0.456129 0.365435 0.811421
v 70.8948 94.9826 8.07355
vn -0.259403 0.427257 0.866119
v 70.9026 95.0357 8.04909
vn -0.255327 0.451388 0.855018
v 70.9161 95.0878 8.02498
vn -0.34007 0.48732 0.804283
v 70.935 95.1384 8.00143
vn -0.239907 0.497789 0.833457
v 70.9592 95.1871 7.97867
vn -0.228797 0.519637 0.823182
v 70.9885 95.2335 7.95692
vn -0.294843 0.574785 0.763341
v 71.0225 95.277 7.93637
vn -0.199232 0.55994 0.804222
v 71.0611 95.3173 7.91723
vn -0.181 0.578033 0.795687
v 71.1038 95.3539 7.89965
vn -0.223222 0.647376 0.72875
v 71.1502 95.3867 7.88382
vn -0.140754 0.608574 0.780914
v 71.1999 95.4152 7.86988
vn -0.117417 0.621439 0.774614
v 71.2524 95.4391 7.85795
vn -0.13195 0.697826 0.704008
v 71.3073 95.4584 7.84816
vn -0.0687285 0.640219 0.765112
v 71.364 95.4727 7.84058
vn -0.0430797 0.646161 0.761984
v 71.422 95.482 7.8353
vn -0.0281399 0.722329 0.690977
v 71.4808 95.4861 7.83236
vn 0.0103789 0.651614 0.75848
v 71.5397 95.485 7.83179
vn 0.0370719 0.650755 0.758382
v 71.5983 95.4788 7.83359
vn 0.0788168 0.718958 0.69057
v 71.656 95.4675 7.83775
vn 0.0894738 0.641781 0.761651
v 71.7123 95.4511 7.84423
vn 0.115042 0.634235 0.764533
v 71.7666 95.4299 7.85297
vn 0.180846 0.687598 0.70321
v 71.8185 95.4041 7.86388
vn 0.162288 0.612338 0.77376
v 71.8674 95.3738 7.87687
vn 0.184278 0.598096 0.77995
v 71.9129 95.3395 7.89181
vn 0.268697 0.631428 0.727393
f 5//5 4//4 2//2
f 5//5 2//2 3//3
f 7//7 6//6 4//4
f 7//7 4//4 5//5
f 13//13 12//12 2//2
f 14//14 13//13 2//2
f 15//15 2//2 4//4
f 14//14 2//2 15//15
f 3//3 2//2 12//12
f 1//1 26//26 11//11
f 25//25 11//11 26//26
f 23//23 5//5 24//24
f 24//24 5//5 3//3
f 3//3 25//25 24//24
f 11//11 25//25 3//3
f 3//3 12//12 11//11
f 16//16 15//15 4//4
f 17//17 4//4 6//6
f 16//16 4//4 17//17
f 18//18 17//17 6//6
f 19//19 6//6 9//9
f 18//18 6//6 19//19
f 8//8 19//19 9//9
f 21//21 7//7 22//22
f 5//5 22//22 7//7
f 23//23 22//22 5//5
f 20//20 9//9 7//7
f 9//9 20//20 10//10
f 21//21 20//20 7//7
f 7//7 9//9 6//6
f 31//31 30//30 28//28
f 31//31 28//28 29//29
f 33//33 32//32 30//30
f 33//33 30//30 31//31
f 35//35 46//46 27//27
f 47//47 46//46 35//35
f 48//48 47//47 28//28
f 28//28 47//47 35//35
f 48//48 28//28 30//30
f 44//44 29//29 45//45
f 34//34 45//45 29//29
f 34//34 29//29 28//28
f 43//43 42//42 31//31
f 31//31 29//29 43//43
f 44//44 43//43 29//29
f 28//28 35//35 34//34
f 48//48 30//30 49//49
f 50//50 30//30 32//32
f 49//49 30//30 50//50
f 51//51 50//50 32//32
f 52//52 32//32 37//37
f 51//51 32//32 52//52
f 36//36 52//52 37//37
f 40//40 33//33 41//41
f 31//31 41//41 33//33
f 42//42 41//41 31//31
f 39//39 37//37 33//33
f 37//37 39//39 38//38
f 40//40 39//39 33//33
f 33//33 37//37 32//32
f 9//9 57//57 8//8
f 9//9 10//10 55//55
f 56//56 57//57 9//9
f 9//9 55//55 56//56
f 56//56 55//55 54//54
f 53//53 57//57 56//56
f 37//37 60//60 36//36
f 37//37 38//38 61//61
f 62//62 60//60 37//37
f 37//37 61//61 62//62
f 62//62 61//61 59//59
f 58//58 60//60 62//62
f 67//67 65//65 64//64
f 67//67 64//64 66//66
f 69//69 67//67 66//66
f 69//69 66//66 68//68
f 72//72 64//64 71//71
f 73//73 64//64 72//72
f 74//74 66//66 64//64
f 73//73 74//74 64//64
f 65//65 71//71 64//64
f 63//63 70//70 85//85
f 84//84 85//85 70//70
f 82//82 83//83 67//67
f 83//83 65//65 67//67
f 65//65 83//83 84//84
f 70//70 65//65 84//84
f 65//65 70//70 71//71
f 75//75 66//66 74//74
f 76//76 68//68 66//66
f 75//75 76//76 66//66
f 77//77 68//68 76//76
f 78//78 56//56 68//68
f 77//77 78//78 68//68
f 53//53 56//56 78//78
f 80//80 81//81 69//69
f 67//67 69//69 81//81
f 82//82 67//67 81//81
f 79//79 69//69 56//56
f 56//56 54//54 79//79
f 80//80 69//69 79//79
f 69//69 68//68 56//56
f 90//90 88//88 87//87
f 90//90 87//87 89//89
f 92//92 90//90 89//89
f 92//92 89//89 91//91
f 94//94 86//86 102//102
f 103//103 94//94 102//102
f 104//104 87//87 103//103
f 87//87 94//94 103//103
f 104//104 89//89 87//87
f 100//100 101//101 88//88
f 93//93 88//88 101//101
f 93//93 87//87 88//88
f 99//99 90//90 98//98
f 90//90 99//99 88//88
f 100//100 88//88 99//99
f 87//87 93//93 94//94
f 104//104 105//105 89//89
f 106//106 91//91 89//89
f 105//105 106//106 89//89
f 107//107 91//91 106//106
f 108//108 62//62 91//91
f 107//107 108//108 91//91
f 58//58 62//62 108//108
f 96//96 97//97 92//92
f 90//90 92//92 97//97
f 98//98 90//90 97//97
f 95//95 92//92 62//62
f 62//62 59//59 95//95
f 96//96 92//92 95//95
f 92//92 91//91 62//62
f 113//113 112//112 117//117
f 113//113 116//116 114//114
f 116//116 113//113 117//117
f 111//111 118//118 112//112
f 117//117 112//112 118//118
f 110//110 119//119 118//118
f 109//109 119//119 110//110
f 111//111 110//110 118//118
f 115//115 114//114 116//116
f 11//11 12//12 115//115
f 114//114 115//115 12//12
f 115//115 1//1 11//11
f 34//34 120//120 109//109
f 120//120 119//119 109//109
f 120//120 35//35 27//27
f 120//120 34//34 35//35
f 125//125 129//129 124//124
f 125//125 126//126 128//128
f 128//128 129//129 125//125
f 123//123 124//124 130//130
f 129//129 130//130 124//124
f 122//122 130//130 131//131
f 121//121 122//122 131//131
f 123//123 130//130 122//122
f 127//127 128//128 126//126
f 70//70 127//127 71//71
f 126//126 71//71 127//127
f 127//127 70//70 63//63
f 93//93 121//121 132//132
f 132//132 121//121 131//131
f 132//132 86//86 94//94
f 132//132 94//94 93//93
f 133//133 97//97 38//38
f 97//97 133//133 98//98
f 61//61 38//38 95//95
f 95//95 59//59 61//61
f 96//96 95//95 38//38
f 96//96 38//38 97//97
f 134//134 100//100 133//133
f 135//135 136//136 122//122
f 135//135 122//122 121//121
f 137//137 138//138 124//124
f 137//137 124//124 123//123
f 136//136 137//137 123//123
f 136//136 123//123 122//122
f 139//139 140//140 126//126
f 139//139 126//126 125//125
f 78//78 77//77 8//8
f 76//76 141//141 8//8
f 140//140 141//141 71//71
f 140//140 71//71 126//126
f 138//138 139//139 125//125
f 138//138 125//125 124//124
f 134//134 135//135 121//121
f 134//134 121//121 93//93
f 76//76 8//8 77//77
f 99//99 98//98 133//133
f 100//100 99//99 133//133
f 134//134 101//101 100//100
f 93//93 101//101 134//134
f 74//74 73//73 141//141
f 141//141 75//75 74//74
f 73//73 72//72 141//141
f 71//71 141//141 72//72
f 76//76 75//75 141//141
f 142//142 143//143 114//114
f 142//142 114//114 12//12
f 144//144 145//145 112//112
f 144//144 112//112 113//113
f 143//143 144//144 113//113
f 143//143 113//113 114//114
f 145//145 146//146 111//111
f 145//145 111//111 112//112
f 13//13 142//142 12//12
f 146//146 147//147 110//110
f 146//146 110//110 111//111
f 148//148 149//149 34//34
f 148//148 34//34 109//109
f 147//147 148//148 109//109
f 147//147 109//109 110//110
f 133//133 44//44 149//149
f 149//149 45//45 34//34
f 142//142 16//16 17//17
f 142//142 14//14 15//15
f 15//15 16//16 142//142
f 78//78 8//8 57//57
f 78//78 57//57 53//53
f 133//133 43//43 44//44
f 44//44 45//45 149//149
f 133//133 41//41 42//42
f 42//42 43//43 133//133
f 13//13 14//14 142//142
f 142//142 19//19 141//141
f 151//151 150//150 25//25
f 152//152 115//115 116//116
f 152//152 116//116 153//153
f 151//151 1//1 115//115
f 151//151 115//115 152//152
f 117//117 154//154 153//153
f 117//117 153//153 116//116
f 1//1 151//151 26//26
f 154//154 117//117 118//118
f 154//154 118//118 155//155
f 156//156 119//119 120//120
f 156//156 120//120 157//157
f 155//155 118//118 119//119
f 155//155 119//119 156//156
f 27//27 158//158 157//157
f 27//27 157//157 120//120
f 46//46 158//158 27//27
f 150//150 23//23 24//24
f 151//151 25//25 26//26
f 25//25 150//150 24//24
f 150//150 22//22 23//23
f 158//158 46//46 47//47
f 158//158 48//48 49//49
f 48//48 158//158 47//47
f 107//107 36//36 60//60
f 50//50 158//158 49//49
f 159//159 158//158 52//52
f 107//107 106//106 36//36
f 160//160 132//132 131//131
f 160//160 131//131 161//161
f 159//159 86//86 132//132
f 159//159 132//132 160//160
f 58//58 108//108 60//60
f 162//162 130//130 129//129
f 162//162 129//129 163//163
f 108//108 107//107 60//60
f 161//161 131//131 130//130
f 161//161 130//130 162//162
f 36//36 106//106 159//159
f 164//164 128//128 127//127
f 164//164 127//127 165//165
f 150//150 166//166 83//83
f 165//165 127//127 63//63
f 165//165 63//63 166//166
f 55//55 80//80 79//79
f 80//80 55//55 10//10
f 79//79 54//54 55//55
f 150//150 81//81 10//10
f 163//163 129//129 128//128
f 163//163 128//128 164//164
f 81//81 80//80 10//10
f 105//105 159//159 106//106
f 104//104 159//159 105//105
f 159//159 104//104 103//103
f 103//103 102//102 159//159
f 102//102 86//86 159//159
f 83//83 166//166 84//84
f 150//150 83//83 82//82
f 84//84 166//166 85//85
f 63//63 85//85 166//166
f 150//150 82//82 81//81
f 164//164 165//165 139//139
f 140//140 139//139 165//165
f 164//164 138//138 163//163
f 139//139 138//138 164//164
f 166//166 150//150 141//141
f 142//142 141//141 150//150
f 165//165 166//166 140//140
f 141//141 140//140 166//166
f 162//162 163//163 137//137
f 138//138 137//137 163//163
f 161//161 162//162 136//136
f 137//137 136//136 162//162
f 136//136 135//135 161//161
f 160//160 161//161 135//135
f 134//134 159//159 160//160
f 133//133 159//159 134//134
f 135//135 134//134 160//160
f 151//151 143//143 142//142
f 143//143 151//151 152//152
f 152//152 144//144 143//143
f 152//152 153//153 144//144
f 145//145 144//144 153//153
f 146//146 145//145 154//154
f 153//153 154//154 145//145
f 149//149 157//157 158//158
f 158//158 133//133 149//149
f 149//149 148//148 157//157
f 133//133 158//158 159//159
f 147//147 146//146 155//155
f 147//147 156//156 148//148
f 157//157 148//148 156//156
f 155//155 156//156 147//147
f 154//154 155//155 146//146
f 142//142 150//150 151//151
f 196//196 264//264 263//263
f 195//195 265//265 264//264
f 266//266 194//194 267//267
f 195//195 266//266 265//265
f 193//193 268//268 267//267
f 259//259 199//199 260//260
f 261//261 260//260 198//198
f 197//197 263//263 262//262
f 197//197 261//261 198//198
f 196//196 263//263 197//197
f 262//262 261//261 197//197
f 198//198 260//260 199//199
f 193//193 269//269 268//268
f 270//270 191//191 271//271
f 271//271 191//191 272//272
f 189//189 210//210 274//274
f 190//190 273//273 272//272
f 274//274 273//273 189//189
f 190//190 189//189 273//273
f 195//195 264//264 196//196
f 194//194 266//266 195//195
f 272//272 191//191 190//190
f 192//192 269//269 193//193
f 270//270 192//192 191//191
f 194//194 193//193 267//267
f 270//270 269//269 192//192
f 201//201 257//257 256//256
f 258//258 257//257 200//200
f 201//201 256//256 255//255
f 199//199 258//258 200//200
f 202//202 255//255 254//254
f 199//199 259//259 258//258
f 253//253 203//203 254//254
f 252//252 203//203 253//253
f 205//205 251//251 250//250
f 252//252 251//251 204//204
f 249//249 205//205 250//250
f 248//248 206//206 249//249
f 257//257 201//201 200//200
f 203//203 252//252 204//204
f 202//202 254//254 203//203
f 205//205 249//249 206//206
f 248//248 247//247 207//207
f 206//206 248//248 207//207
f 204//204 251//251 205//205
f 245//245 208//208 246//246
f 207//207 247//247 246//246
f 245//245 244//244 209//209
f 209//209 244//244 243//243
f 167//167 209//209 243//243
f 208//208 245//245 209//209
f 246//246 208//208 207//207
f 201//201 255//255 202//202
f 188//188 210//210 189//189
f 212//212 211//211 188//188
f 210//210 188//188 211//211
f 212//212 188//188 187//187
f 214//214 213//213 186//186
f 187//187 213//213 212//212
f 215//215 214//214 186//186
f 213//213 187//187 186//186
f 215//215 186//186 185//185
f 184//184 183//183 218//218
f 182//182 181//181 221//221
f 219//219 183//183 182//182
f 216//216 185//185 184//184
f 216//216 215//215 185//185
f 218//218 217//217 184//184
f 219//219 218//218 183//183
f 182//182 221//221 220//220
f 181//181 222//222 221//221
f 219//219 182//182 220//220
f 222//222 181//181 180//180
f 224//224 180//180 179//179
f 225//225 179//179 178//178
f 179//179 225//225 224//224
f 225//225 178//178 226//226
f 224//224 223//223 180//180
f 223//223 222//222 180//180
f 227//227 226//226 178//178
f 216//216 184//184 217//217
f 237//237 170//170 238//238
f 239//239 170//170 169//169
f 173//173 172//172 234//234
f 172//172 171//171 236//236
f 171//171 170//170 237//237
f 242//242 168//168 167//167
f 241//241 168//168 242//242
f 243//243 242//242 167//167
f 169//169 168//168 240//240
f 240//240 168//168 241//241
f 169//169 240//240 239//239
f 239//239 238//238 170//170
f 233//233 174//174 173//173
f 228//228 177//177 176//176
f 230//230 176//176 175//175
f 228//228 176//176 229//229
f 229//229 176//176 230//230
f 227//227 177//177 228//228
f 227//227 178//178 177//177
f 231//231 230//230 175//175
f 171//171 237//237 236//236
f 172//172 236//236 235//235
f 232//232 174//174 233//233
f 235//235 234//234 172//172
f 233//233 173//173 234//234
f 231//231 174//174 232//232
f 174//174 231//231 175//175
f 167//167 275//275 317//317
f 167//167 317//317 209//209
f 208//208 316//316 315//315
f 208//208 315//315 207//207
f 207//207 315//315 314//314
f 207//207 314//314 206//206
f 209//209 317//317 316//316
f 209//209 316//316 208//208
f 205//205 313//313 312//312
f 205//205 312//312 204//204
f 204//204 312//312 311//311
f 204//204 311//311 203//203
f 202//202 310//310 309//309
f 202//202 309//309 201//201
f 201//201 309//309 308//308
f 201//201 308//308 200//200
f 203//203 311//311 310//310
f 203//203 310//310 202//202
f 206//206 314//314 313//313
f 206//206 313//313 205//205
f 199//199 307//307 306//306
f 199//199 306//306 198//198
f 197//197 305//305 304//304
f 197//197 304//304 196//196
f 195//195 196//196 304//304
f 195//195 304//304 303//303
f 198//198 306//306 305//305
f 198//198 305//305 197//197
f 194//194 302//302 301//301
f 194//194 301//301 193//193
f 193//193 301//301 300//300
f 193//193 300//300 192//192
f 190//190 191//191 299//299
f 190//190 299//299 298//298
f 189//189 190//190 298//298
f 189//189 298//298 297//297
f 191//191 192//192 300//300
f 191//191 300//300 299//299
f 194//194 195//195 303//303
f 194//194 303//303 302//302
f 200//200 308//308 307//307
f 200//200 307//307 199//199
f 297//297 296//296 188//188
f 297//297 188//188 189//189
f 187//187 188//188 296//296
f 187//187 296//296 295//295
f 185//185 186//186 294//294
f 185//185 294//294 293//293
f 184//184 185//185 293//293
f 184//184 293//293 292//292
f 186//186 187//187 295//295
f 186//186 295//295 294//294
f 182//182 183//183 291//291
f 182//182 291//291 290//290
f 181//181 182//182 290//290
f 181//181 290//290 289//289
f 179//179 180//180 288//288
f 179//179 288//288 287//287
f 179//179 287//287 286//286
f 179//179 286//286 178//178
f 180//180 181//181 289//289
f 180//180 289//289 288//288
f 183//183 184//184 292//292
f 183//183 292//292 291//291
f 176//176 177//177 285//285
f 176//176 285//285 284//284
f 174//174 175//175 283//283
f 174//174 283//283 282//282
f 174//174 282//282 281//281
f 174//174 281//281 173//173
f 175//175 176//176 284//284
f 175//175 284//284 283//283
f 171//171 172//172 280//280
f 171//171 280//280 279//279
f 170//170 171//171 279//279
f 170//170 279//279 278//278
f 168//168 169//169 277//277
f 168//168 277//277 276//276
f 167//167 168//168 276//276
f 167//167 276//276 275//275
f 169//169 170//170 278//278
f 169//169 278//278 277//277
f 173//173 281//281 280//280
f 173//173 280//280 172//172
f 178//178 286//286 285//285
f 178//178 285//285 177//177
f 210//210 211//211 382//382
f 210//210 382//382 318//318
f 212//212 213//213 380//380
f 212//212 380//380 381//381
f 211//211 212//212 381//381
f 211//211 381//381 382//382
f 214//214 215//215 378//378
f 214//214 378//378 379//379
f 216//216 217//217 376//376
f 216//216 376//376 377//377
f 215//215 216//216 377//377
f 215//215 377//377 378//378
f 213//213 214//214 379//379
f 213//213 379//379 380//380
f 218//218 219//219 374//374
f 218//218 374//374 375//375
f 220//220 221//221 372//372
f 220//220 372//372 373//373
f 219//219 220//220 373//373
f 219//219 373//373 374//374
f 222//222 223//223 370//370
f 222//222 370//370 371//371
f 224//224 225//225 368//368
f 224//224 368//368 369//369
f 223//223 224//224 369//369
f 223//223 369//369 370//370
f 221//221 222//222 371//371
f 221//221 371//371 372//372
f 217//217 218//218 375//375
f 217//217 375//375 376//376
f 226//226 227//227 366//366
f 226//226 366//366 367//367
f 228//228 229//229 364//364
f 228//228 364//364 365//365
f 227//227 228//228 365//365
f 227//227 365//365 366//366
f 230//230 231//231 362//362
f 230//230 362//362 363//363
f 232//232 233//233 360//360
f 232//232 360//360 361//361
f 231//231 232//232 361//361
f 231//231 361//361 362//362
f 229//229 230//230 363//363
f 229//229 363//363 364//364
f 234//234 235//235 358//358
f 234//234 358//358 359//359
f 236//236 237//237 356//356
f 236//236 356//356 357//357
f 236//236 357//357 358//358
f 236//236 358//358 235//235
f 238//238 239//239 354//354
f 238//238 354//354 355//355
f 240//240 241//241 352//352
f 240//240 352//352 353//353
f 241//241 242//242 351//351
f 241//241 351//351 352//352
f 239//239 240//240 353//353
f 239//239 353//353 354//354
f 237//237 238//238 355//355
f 237//237 355//355 356//356
f 233//233 234//234 359//359
f 233//233 359//359 360//360
f 225//225 226//226 367//367
f 225//225 367//367 368//368
f 350//350 351//351 242//242
f 350//350 242//242 243//243
f 244//244 349//349 350//350
f 244//244 350//350 243//243
f 245//245 246//246 347//347
f 245//245 347//347 348//348
f 244//244 245//245 348//348
f 244//244 348//348 349//349
f 248//248 345//345 346//346
f 248//248 346//346 247//247
f 249//249 250//250 343//343
f 249//249 343//343 344//344
f 248//248 249//249 344//344
f 248//248 344//344 345//345
f 246//246 247//247 346//346
f 246//246 346//346 347//347
f 251//251 252//252 341//341
f 251//251 341//341 342//342
f 253//253 254//254 339//339
f 253//253 339//339 340//340
f 252//252 253//253 340//340
f 252//252 340//340 341//341
f 255//255 256//256 337//337
f 255//255 337//337 338//338
f 257//257 258//258 335//335
f 257//257 335//335 336//336
f 256//256 257//257 336//336
f 256//256 336//336 337//337
f 255//255 338//338 339//339
f 255//255 339//339 254//254
f 251//251 342//342 343//343
f 251//251 343//343 250//250
f 260//260 333//333 334//334
f 260//260 334//334 259//259
f 261//261 262//262 331//331
f 261//261 331//331 332//332
f 260//260 261//261 332//332
f 260//260 332//332 333//333
f 264//264 329//329 330//330
f 264//264 330//330 263//263
f 265//265 266//266 327//327
f 265//265 327//327 328//328
f 264//264 265//265 328//328
f 264//264 328//328 329//329
f 263//263 330//330 331//331
f 263//263 331//331 262//262
f 268//268 325//325 326//326
f 268//268 326//326 267//267
f 269//269 270//270 323//323
f 269//269 323//323 324//324
f 269//269 324//324 325//325
f 269//269 325//325 268//268
f 272//272 321//321 322//322
f 272//272 322//322 271//271
f 273//273 274//274 319//319
f 273//273 319//319 320//320
f 210//210 318//318 319//319
f 210//210 319//319 274//274
f 272//272 273//273 320//320
f 272//272 320//320 321//321
f 270//270 271//271 322//322
f 270//270 322//322 323//323
f 267//267 326//326 327//327
f 267//267 327//327 266//266
f 259//259 334//334 335//335
f 259//259 335//335 258//258
f 330//330 329//329 304//304
f 303//303 329//329 328//328
f 302//302 327//327 326//326
f 303//303 328//328 327//327
f 326//326 325//325 301//301
f 334//334 333//333 307//307
f 332//332 306//306 333//333
f 305//305 331//331 330//330
f 305//305 306//306 332//332
f 304//304 305//305 330//330
f 331//331 305//305 332//332
f 306//306 307//307 333//333
f 301//301 325//325 324//324
f 323//323 322//322 299//299
f 322//322 321//321 299//299
f 297//297 319//319 318//318
f 298//298 321//321 320//320
f 319//319 297//297 320//320
f 298//298 320//320 297//297
f 303//303 304//304 329//329
f 302//302 303//303 327//327
f 321//321 298//298 299//299
f 300//300 301//301 324//324
f 323//323 299//299 300//300
f 302//302 326//326 301//301
f 323//323 300//300 324//324
f 309//309 337//337 336//336
f 335//335 308//308 336//336
f 309//309 338//338 337//337
f 307//307 308//308 335//335
f 310//310 339//339 338//338
f 307//307 335//335 334//334
f 340//340 339//339 311//311
f 341//341 340//340 311//311
f 312//312 342//342 341//341
f 343//343 313//313 344//344
f 342//342 313//313 343//343
f 314//314 345//345 344//344
f 336//336 308//308 309//309
f 311//311 312//312 341//341
f 310//310 311//311 339//339
f 313//313 314//314 344//344
f 345//345 315//315 346//346
f 314//314 315//315 345//345
f 312//312 313//313 342//342
f 348//348 347//347 316//316
f 315//315 347//347 346//346
f 348//348 317//317 349//349
f 317//317 350//350 349//349
f 275//275 350//350 317//317
f 316//316 317//317 348//348
f 347//347 315//315 316//316
f 309//309 310//310 338//338
f 296//296 297//297 318//318
f 381//381 296//296 382//382
f 318//318 382//382 296//296
f 381//381 295//295 296//296
f 379//379 294//294 380//380
f 295//295 381//381 380//380
f 378//378 294//294 379//379
f 380//380 294//294 295//295
f 378//378 293//293 294//294
f 292//292 375//375 291//291
f 290//290 372//372 289//289
f 374//374 290//290 291//291
f 377//377 292//292 293//293
f 377//377 293//293 378//378
f 375//375 292//292 376//376
f 374//374 291//291 375//375
f 290//290 373//373 372//372
f 371//371 289//289 372//372
f 290//290 374//374 373//373
f 288//288 289//289 371//371
f 369//369 287//287 288//288
f 368//368 286//286 287//287
f 369//369 368//368 287//287
f 368//368 367//367 286//286
f 370//370 369//369 288//288
f 370//370 288//288 371//371
f 366//366 286//286 367//367
f 377//377 376//376 292//292
f 356//356 355//355 278//278
f 354//354 277//277 278//278
f 281//281 359//359 280//280
f 280//280 357//357 279//279
f 279//279 356//356 278//278
f 351//351 275//275 276//276
f 352//352 351//351 276//276
f 350//350 275//275 351//351
f 353//353 276//276 277//277
f 353//353 352//352 276//276
f 353//353 277//277 354//354
f 354//354 278//278 355//355
f 360//360 281//281 282//282
f 365//365 284//284 285//285
f 363//363 283//283 284//284
f 284//284 365//365 364//364
f 364//364 363//363 284//284
f 365//365 285//285 366//366
f 366//366 285//285 286//286
f 362//362 283//283 363//363
f 280//280 358//358 357//357
f 357//357 356//356 279//279
f 361//361 360//360 282//282
f 280//280 359//359 358//358
f 281//281 360//360 359//359
f 361//361 282//282 362//362
f 282//282 283//283 362//362
f 387//387 386//386 384//384
f 387//387 384//384 385//385
f 389//389 388//388 386//386
f 389//389 386//386 387//387
f 395//395 394//394 384//384
f 396//396 395//395 384//384
f 397//397 384//384 386//386
f 396//396 384//384 397//397
f 385//385 384//384 394//394
f 383//383 408//408 393//393
f 407//407 393//393 408//408
f 405//405 387//387 406//406
f 406//406 387//387 385//385
f 385//385 407//407 406//406
f 393//393 407//407 385//385
f 385//385 394//394 393//393
f 398//398 397//397 386//386
f 399//399 386//386 388//388
f 398//398 386//386 399//399
f 400//400 399//399 388//388
f 401//401 388//388 391//391
f 400//400 388//388 401//401
f 390//390 401//401 391//391
f 403//403 389//389 404//404
f 387//387 404//404 389//389
f 405//405 404//404 387//387
f 402//402 391//391 389//389
f 391//391 402//402 392//392
f 403//403 402//402 389//389
f 389//389 391//391 388//388
f 413//413 412//412 410//410
f 413//413 410//410 411//411
f 415//415 414//414 412//412
f 415//415 412//412 413//413
f 417//417 428//428 409//409
f 429//429 428//428 417//417
f 430//430 429//429 410//410
f 410//410 429//429 417//417
f 430//430 410//410 412//412
f 426//426 411//411 427//427
f 416//416 427//427 411//411
f 416//416 411//411 410//410
f 425//425 424//424 413//413
f 413//413 411//411 425//425
f 426//426 425//425 411//411
f 410//410 417//417 416//416
f 430//430 412//412 431//431
f 432//432 412//412 414//414
f 431//431 412//412 432//432
f 433//433 432//432 414//414
f 434//434 414//414 419//419
f 433//433 414//414 434//434
f 418//418 434//434 419//419
f 422//422 415//415 423//423
f 413//413 423//423 415//415
f 424//424 423//423 413//413
f 421//421 419//419 415//415
f 419//419 421//421 420//420
f 422//422 421//421 415//415
f 415//415 419//419 414//414
f 391//391 439//439 390//390
f 391//391 392//392 437//437
f 438//438 439//439 391//391
f 391//391 437//437 438//438
f 438//438 437//437 436//436
f 435//435 439//439 438//438
f 419//419 442//442 418//418
f 419//419 420//420 443//443
f 444//444 442//442 419//419
f 419//419 443//443 444//444
f 444//444 443//443 441//441
f 440//440 442//442 444//444
f 449//449 447//447 446//446
f 449//449 446//446 448//448
f 451//451 449//449 448//448
f 451//451 448//448 450//450
f 454//454 446//446 453//453
f 455//455 446//446 454//454
f 456//456 448//448 446//446
f 455//455 456//456 446//446
f 447//447 453//453 446//446
f 445//445 452//452 467//467
f 466//466 467//467 452//452
f 464//464 465//465 449//449
f 465//465 447//447 449//449
f 447//447 465//465 466//466
f 452//452 447//447 466//466
f 447//447 452//452 453//453
f 457//457 448//448 456//456
f 458//458 450//450 448//448
f 457//457 458//458 448//448
f 459//459 450//450 458//458
f 460//460 438//438 450//450
f 459//459 460//460 450//450
f 435//435 438//438 460//460
f 462//462 463//463 451//451
f 449//449 451//451 463//463
f 464//464 449//449 463//463
f 461//461 451//451 438//438
f 438//438 436//436 461//461
f 462//462 451//451 461//461
f 451//451 450//450 438//438
f 472//472 470//470 469//469
f 472//472 469//469 471//471
f 474//474 472//472 471//471
f 474//474 471//471 473//473
f 476//476 468//468 484//484
f 485//485 476//476 484//484
f 486//486 469//469 485//485
f 469//469 476//476 485//485
f 486//486 471//471 469//469
f 482//482 483//483 470//470
f 475//475 470//470 483//483
f 475//475 469//469 470//470
f 481//481 472//472 480//480
f 472//472 481//481 470//470
f 482//482 470//470 481//481
f 469//469 475//475 476//476
f 486//486 487//487 471//471
f 488//488 473//473 471//471
f 487//487 488//488 471//471
f 489//489 473//473 488//488
f 490//490 444//444 473//473
f 489//489 490//490 473//473
f 440//440 444//444 490//490
f 478//478 479//479 474//474
f 472//472 474//474 479//479
f 480//480 472//472 479//479
f 477//477 474//474 444//444
f 444//444 441//441 477//477
f 478//478 474//474 477//477
f 474//474 473//473 444//444
f 495//495 494//494 499//499
f 495//495 498//498 496//496
f 498//498 495//495 499//499
f 493//493 500//500 494//494
f 499//499 494//494 500//500
f 492//492 501//501 500//500
f 491//491 501//501 492//492
f 493//493 492//492 500//500
f 497//497 496//496 498//498
f 393//393 394//394 497//497
f 496//496 497//497 394//394
f 497//497 383//383 393//393
f 416//416 502//502 491//491
f 502//502 501//501 491//491
f 502//502 417//417 409//409
f 502//502 416//416 417//417
f 507//507 511//511 506//506
f 507//507 508//508 510//510
f 510//510 511//511 507//507
f 505//505 506//506 512//512
f 511//511 512//512 506//506
f 504//504 512//512 513//513
f 503//503 504//504 513//513
f 505//505 512//512 504//504
f 509//509 510//510 508//508
f 452//452 509//509 453//453
f 508//508 453//453 509//509
f 509//509 452//452 445//445
f 475//475 503//503 514//514
f 514//514 503//503 513//513
f 514//514 468//468 476//476
f 514//514 476//476 475//475
f 515//515 479//479 420//420
f 479//479 515//515 480//480
f 443//443 420//420 477//477
f 477//477 441//441 443//443
f 478//478 477//477 420//420
f 478//478 420//420 479//479
f 516//516 482//482 515//515
f 517//517 518//518 504//504
f 517//517 504//504 503//503
f 519//519 520//520 506//506
f 519//519 506//506 505//505
f 518//518 519//519 505//505
f 518//518 505//505 504//504
f 521//521 522//522 508//508
f 521//521 508//508 507//507
f 460//460 459//459 390//390
f 458//458 523//523 390//390
f 522//522 523//523 453//453
f 522//522 453//453 508//508
f 520//520 521//521 507//507
f 520//520 507//507 506//506
f 516//516 517//517 503//503
f 516//516 503//503 475//475
f 458//458 390//390 459//459
f 481//481 480//480 515//515
f 482//482 481//481 515//515
f 516//516 483//483 482//482
f 475//475 483//483 516//516
f 456//456 455//455 523//523
f 523//523 457//457 456//456
f 455//455 454//454 523//523
f 453//453 523//523 454//454
f 458//458 457//457 523//523
f 524//524 525//525 496//496
f 524//524 496//496 394//394
f 526//526 527//527 494//494
f 526//526 494//494 495//495
f 525//525 526//526 495//495
f 525//525 495//495 496//496
f 527//527 528//528 493//493
f 527//527 493//493 494//494
f 395//395 524//524 394//394
f 528//528 529//529 492//492
f 528//528 492//492 493//493
f 530//530 531//531 416//416
f 530//530 416//416 491//491
f 529//529 530//530 491//491
f 529//529 491//491 492//492
f 515//515 426//426 531//531
f 531//531 427//427 416//416
f 524//524 398//398 399//399
f 524//524 396//396 397//397
f 397//397 398//398 524//524
f 460//460 390//390 439//439
f 460//460 439//439 435//435
f 515//515 425//425 426//426
f 426//426 427//427 531//531
f 515//515 423//423 424//424
f 424//424 425//425 515//515
f 395//395 396//396 524//524
f 524//524 401//401 523//523
f 533//533 532//532 407//407
f 534//534 497//497 498//498
f 534//534 498//498 535//535
f 533//533 383//383 497//497
f 533//533 497//497 534//534
f 499//499 536//536 535//535
f 499//499 535//535 498//498
f 383//383 533//533 408//408
f 536//536 499//499 500//500
f 536//536 500//500 537//537
f 538//538 501//501 502//502
f 538//538 502//502 539//539
f 537//537 500//500 501//501
f 537//537 501//501 538//538
f 409//409 540//540 539//539
f 409//409 539//539 502//502
f 428//428 540//540 409//409
f 532//532 405//405 406//406
f 533//533 407//407 408//408
f 407//407 532//532 406//406
f 532//532 404//404 405//405
f 540//540 428//428 429//429
f 540//540 430//430 431//431
f 430//430 540//540 429//429
f 489//489 418//418 442//442
f 432//432 540//540 431//431
f 541//541 540//540 434//434
f 489//489 488//488 418//418
f 542//542 514//514 513//513
f 542//542 513//513 543//543
f 541//541 468//468 514//514
f 541//541 514//514 542//542
f 440//440 490//490 442//442
f 544//544 512//512 511//511
f 544//544 511//511 545//545
f 490//490 489//489 442//442
f 543//543 513//513 512//512
f 543//543 512//512 544//544
f 418//418 488//488 541//541
f 546//546 510//510 509//509
f 546//546 509//509 547//547
f 532//532 548//548 465//465
f 547//547 509//509 445//445
f 547//547 445//445 548//548
f 437//437 462//462 461//461
f 462//462 437//437 392//392
f 461//461 436//436 437//437
f 532//532 463//463 392//392
f 545//545 511//511 510//510
f 545//545 510//510 546//546
f 463//463 462//462 392//392
f 487//487 541//541 488//488
f 486//486 541//541 487//487
f 541//541 486//486 485//485
f 485//485 484//484 541//541
f 484//484 468//468 541//541
f 465//465 548//548 466//466
f 532//532 465//465 464//464
f 466//466 548//548 467//467
f 445//445 467//467 548//548
f 532//532 464//464 463//463
f 546//546 547//547 521//521
f 522//522 521//521 547//547
f 546//546 520//520 545//545
f 521//521 520//520 546//546
f 548//548 532//532 523//523
f 524//524 523//523 532//532
f 547//547 548//548 522//522
f 523//523 522//522 548//548
f 544//544 545//545 519//519
f 520//520 519//519 545//545
f 543//543 544//544 518//518
f 519//519 518//518 544//544
f 518//518 517//517 543//543
f 542//542 543//543 517//517
f 516//516 541//541 542//542
f 515//515 541//541 516//516
f 517//517 516//516 542//542
f 533//533 525//525 524//524
f 525//525 533//533 534//534
f 534//534 526//526 525//525
f 534//534 535//535 526//526
f 527//527 526//526 535//535
f 528//528 527//527 536//536
f 535//535 536//536 527//527
f 531//531 539//539 540//540
f 540//540 515//515 531//531
f 531//531 530//530 539//539
f 515//515 540//540 541//541
f 529//529 528//528 537//537
f 529//529 538//538 530//530
f 539//539 530//530 538//538
f 537//537 538//538 529//529
f 536//536 537//537 528//528
f 524//524 532//532 533//533
f 578//578 646//646 645//645
f 577//577 647//647 646//646
f 648//648 576//576 649//649
f 577//577 648//648 647//647
f 575//575 650//650 649//649
f 641//641 581//581 642//642
f 643//643 642//642 580//580
f 579//579 645//645 644//644
f 579//579 643//643 580//580
f 578//578 645//645 579//579
f 644//644 643//643 579//579
f 580//580 642//642 581//581
f 575//575 651//651 650//650
f 652//652 573//573 653//653
f 653//653 573//573 654//654
f 571//571 592//592 656//656
f 572//572 655//655 654//654
f 656//656 655//655 571//571
f 572//572 571//571 655//655
f 577//577 646//646 578//578
f 576//576 648//648 577//577
f 654//654 573//573 572//572
f 574//574 651//651 575//575
f 652//652 574//574 573//573
f 576//576 575//575 649//649
f 652//652 651//651 574//574
f 583//583 639//639 638//638
f 640//640 639//639 582//582
f 583//583 638//638 637//637
f 581//581 640//640 582//582
f 584//584 637//637 636//636
f 581//581 641//641 640//640
f 635//635 585//585 636//636
f 634//634 585//585 635//635
f 587//587 633//633 632//632
f 634//634 633//633 586//586
f 631//631 587//587 632//632
f 630//630 588//588 631//631
f 639//639 583//583 582//582
f 585//585 634//634 586//586
f 584//584 636//636 585//585
f 587//587 631//631 588//588
f 630//630 629//629 589//589
f 588//588 630//630 589//589
f 586//586 633//633 587//587
f 627//627 590//590 628//628
f 589//589 629//629 628//628
f 627//627 626//626 591//591
f 591//591 626//626 625//625
f 549//549 591//591 625//625
f 590//590 627//627 591//591
f 628//628 590//590 589//589
f 583//583 637//637 584//584
f 570//570 592//592 571//571
f 594//594 593//593 570//570
f 592//592 570//570 593//593
f 594//594 570//570 569//569
f 596//596 595//595 568//568
f 569//569 595//595 594//594
f 597//597 596//596 568//568
f 595//595 569//569 568//568
f 597//597 568//568 567//567
f 566//566 565//565 600//600
f 564//564 563//563 603//603
f 601//601 565//565 564//564
f 598//598 567//567 566//566
f 598//598 597//597 567//567
f 600//600 599//599 566//566
f 601//601 600//600 565//565
f 564//564 603//603 602//602
f 563//563 604//604 603//603
f 601//601 564//564 602//602
f 604//604 563//563 562//562
f 606//606 562//562 561//561
f 607//607 561//561 560//560
f 561//561 607//607 606//606
f 607//607 560//560 608//608
f 606//606 605//605 562//562
f 605//605 604//604 562//562
f 609//609 608//608 560//560
f 598//598 566//566 599//599
f 619//619 552//552 620//620
f 621//621 552//552 551//551
f 555//555 554//554 616//616
f 554//554 553//553 618//618
f 553//553 552//552 619//619
f 624//624 550//550 549//549
f 623//623 550//550 624//624
f 625//625 624//624 549//549
f 551//551 550//550 622//622
f 622//622 550//550 623//623
f 551//551 622//622 621//621
f 621//621 620//620 552//552
f 615//615 556//556 555//555
f 610//610 559//559 558//558
f 612//612 558//558 557//557
f 610//610 558//558 611//611
f 611//611 558//558 612//612
f 609//609 559//559 610//610
f 609//609 560//560 559//559
f 613//613 612//612 557//557
f 553//553 619//619 618//618
f 554//554 618//618 617//617
f 614//614 556//556 615//615
f 617//617 616//616 554//554
f 615//615 555//555 616//616
f 613//613 556//556 614//614
f 556//556 613//613 557//557
f 549//549 657//657 699//699
f 549//549 699//699 591//591
f 590//590 698//698 697//697
f 590//590 697//697 589//589
f 589//589 697//697 696//696
f 589//589 696//696 588//588
f 591//591 699//699 698//698
f 591//591 698//698 590//590
f 587//587 695//695 694//694
f 587//587 694//694 586//586
f 586//586 694//694 693//693
f 586//586 693//693 585//585
f 584//584 692//692 691//691
f 584//584 691//691 583//583
f 583//583 691//691 690//690
f 583//583 690//690 582//582
f 585//585 693//693 692//692
f 585//585 692//692 584//584
f 588//588 696//696 695//695
f 588//588 695//695 587//587
f 581//581 689//689 688//688
f 581//581 688//688 580//580
f 579//579 687//687 686//686
f 579//579 686//686 578//578
f 577//577 578//578 686//686
f 577//577 686//686 685//685
f 580//580 688//688 687//687
f 580//580 687//687 579//579
f 576//576 684//684 683//683
f 576//576 683//683 575//575
f 575//575 683//683 682//682
f 575//575 682//682 574//574
f 572//572 573//573 681//681
f 572//572 681//681 680//680
f 571//571 572//572 680//680
f 571//571 680//680 679//679
f 573//573 574//574 682//682
f 573//573 682//682 681//681
f 576//576 577//577 685//685
f 576//576 685//685 684//684
f 582//582 690//690 689//689
f 582//582 689//689 581//581
f 679//679 678//678 570//570
f 679//679 570//570 571//571
f 569//569 570//570 678//678
f 569//569 678//678 677//677
f 567//567 568//568 676//676
f 567//567 676//676 675//675
f 566//566 567//567 675//675
f 566//566 675//675 674//674
f 568//568 569//569 677//677
f 568//568 677//677 676//676
f 564//564 565//565 673//673
f 564//564 673//673 672//672
f 563//563 564//564 672//672
f 563//563 672//672 671//671
f 561//561 562//562 670//670
f 561//561 670//670 669//669
f 561//561 669//669 668//668
f 561//561 668//668 560//560
f 562//562 563//563 671//671
f 562//562 671//671 670//670
f 565//565 566//566 674//674
f 565//565 674//674 673//673
f 558//558 559//559 667//667
f 558//558 667//667 666//666
f 556//556 557//557 665//665
f 556//556 665//665 664//664
f 556//556 664//664 663//663
f 556//556 663//663 555//555
f 557//557 558//558 666//666
f 557//557 666//666 665//665
f 553//553 554//554 662//662
f 553//553 662//662 661//661
f 552//552 553//553 661//661
f 552//552 661//661 660//660
f 550//550 551//551 659//659
f 550//550 659//659 658//658
f 549//549 550//550 658//658
f 549//549 658//658 657//657
f 551//551 552//552 660//660
f 551//551 660//660 659//659
f 555//555 663//663 662//662
f 555//555 662//662 554//554
f 560//560 668//668 667//667
f 560//560 667//667 559//559
f 592//592 593//593 764//764
f 592//592 764//764 700//700
f 594//594 595//595 762//762
f 594//594 762//762 763//763
f 593//593 594//594 763//763
f 593//593 763//763 764//764
f 596//596 597//597 760//760
f 596//596 760//760 761//761
f 598//598 599//599 758//758
f 598//598 758//758 759//759
f 597//597 598//598 759//759
f 597//597 759//759 760//760
f 595//595 596//596 761//761
f 595//595 761//761 762//762
f 600//600 601//601 756//756
f 600//600 756//756 757//757
f 602//602 603//603 754//754
f 602//602 754//754 755//755
f 601//601 602//602 755//755
f 601//601 755//755 756//756
f 604//604 605//605 752//752
f 604//604 752//752 753//753
f 606//606 607//607 750//750
f 606//606 750//750 751//751
f 605//605 606//606 751//751
f 605//605 751//751 752//752
f 603//603 604//604 753//753
f 603//603 753//753 754//754
f 599//599 600//600 757//757
f 599//599 757//757 758//758
f 608//608 609//609 748//748
f 608//608 748//748 749//749
f 610//610 611//611 746//746
f 610//610 746//746 747//747
f 609//609 610//610 747//747
f 609//609 747//747 748//748
f 612//612 613//613 744//744
f 612//612 744//744 745//745
f 614//614 615//615 742//742
f 614//614 742//742 743//743
f 613//613 614//614 743//743
f 613//613 743//743 744//744
f 611//611 612//612 745//745
f 611//611 745//745 746//746
f 616//616 617//617 740//740
f 616//616 740//740 741//741
f 618//618 619//619 738//738
f 618//618 738//738 739//739
f 618//618 739//739 740//740
f 618//618 740//740 617//617
f 620//620 621//621 736//736
f 620//620 736//736 737//737
f 622//622 623//623 734//734
f 622//622 734//734 735//735
f 623//623 624//624 733//733
f 623//623 733//733 734//734
f 621//621 622//622 735//735
f 621//621 735//735 736//736
f 619//619 620//620 737//737
f 619//619 737//737 738//738
f 615//615 616//616 741//741
f 615//615 741//741 742//742
f 607//607 608//608 749//749
f 607//607 749//749 750//750
f 732//732 733//733 624//624
f 732//732 624//624 625//625
f 626//626 731//731 732//732
f 626//626 732//732 625//625
f 627//627 628//628 729//729
f 627//627 729//729 730//730
f 626//626 627//627 730//730
f 626//626 730//730 731//731
f 630//630 727//727 728//728
f 630//630 728//728 629//629
f 631//631 632//632 725//725
f 631//631 725//725 726//726
f 630//630 631//631 726//726
f 630//630 726//726 727//727
f 628//628 629//629 728//728
f 628//628 728//728 729//729
f 633//633 634//634 723//723
f 633//633 723//723 724//724
f 635//635 636//636 721//721
f 635//635 721//721 722//722
f 634//634 635//635 722//722
f 634//634 722//722 723//723
f 637//637 638//638 719//719
f 637//637 719//719 720//720
f 639//639 640//640 717//717
f 639//639 717//717 718//718
f 638//638 639//639 718//718
f 638//638 718//718 719//719
f 637//637 720//720 721//721
f 637//637 721//721 636//636
f 633//633 724//724 725//725
f 633//633 725//725 632//632
f 642//642 715//715 716//716
f 642//642 716//716 641//641
f 643//643 644//644 713//713
f 643//643 713//713 714//714
f 642//642 643//643 714//714
f 642//642 714//714 715//715
f 646//646 711//711 712//712
f 646//646 712//712 645//645
f 647//647 648//648 709//709
f 647//647 709//709 710//710
f 646//646 647//647 710//710
f 646//646 710//710 711//711
f 645//645 712//712 713//713
f 645//645 713//713 644//644
f 650//650 707//707 708//708
f 650//650 708//708 649//649
f 651//651 652//652 705//705
f 651//651 705//705 706//706
f 651//651 706//706 707//707
f 651//651 707//707 650//650
f 654//654 703//703 704//704
f 654//654 704//704 653//653
f 655//655 656//656 701//701
f 655//655 701//701 702//702
f 592//592 700//700 701//701
f 592//592 701//701 656//656
f 654//654 655//655 702//702
f 654//654 702//702 703//703
f 652//652 653//653 704//704
f 652//652 704//704 705//705
f 649//649 708//708 709//709
f 649//649 709//709 648//648
f 641//641 716//716 717//717
f 641//641 717//717 640//640
f 712//712 711//711 686//686
f 685//685 711//711 710//710
f 684//684 709//709 708//708
f 685//685 710//710 709//709
f 708//708 707//707 683//683
f 716//716 715//715 689//689
f 714//714 688//688 715//715
f 687//687 713//713 712//712
f 687//687 688//688 714//714
f 686//686 687//687 712//712
f 713//713 687//687 714//714
f 688//688 689//689 715//715
f 683//683 707//707 706//706
f 705//705 704//704 681//681
f 704//704 703//703 681//681
f 679//679 701//701 700//700
f 680//680 703//703 702//702
f 701//701 679//679 702//702
f 680//680 702//702 679//679
f 685//685 686//686 711//711
f 684//684 685//685 709//709
f 703//703 680//680 681//681
f 682//682 683//683 706//706
f 705//705 681//681 682//682
f 684//684 708//708 683//683
f 705//705 682//682 706//706
f 691//691 719//719 718//718
f 717//717 690//690 718//718
f 691//691 720//720 719//719
f 689//689 690//690 717//717
f 692//692 721//721 720//720
f 689//689 717//717 716//716
f 722//722 721//721 693//693
f 723//723 722//722 693//693
f 694//694 724//724 723//723
f 725//725 695//695 726//726
f 724//724 695//695 725//725
f 696//696 727//727 726//726
f 718//718 690//690 691//691
f 693//693 694//694 723//723
f 692//692 693//693 721//721
f 695//695 696//696 726//726
f 727//727 697//697 728//728
f 696//696 697//697 727//727
f 694//694 695//695 724//724
f 730//730 729//729 698//698
f 697//697 729//729 728//728
f 730//730 699//699 731//731
f 699//699 732//732 731//731
f 657//657 732//732 699//699
f 698//698 699//699 730//730
f 729//729 697//697 698//698
f 691//691 692//692 720//720
f 678//678 679//679 700//700
f 763//763 678//678 764//764
f 700//700 764//764 678//678
f 763//763 677//677 678//678
f 761//761 676//676 762//762
f 677//677 763//763 762//762
f 760//760 676//676 761//761
f 762//762 676//676 677//677
f 760//760 675//675 676//676
f 674//674 757//757 673//673
f 672//672 754//754 671//671
f 756//756 672//672 673//673
f 759//759 674//674 675//675
f 759//759 675//675 760//760
f 757//757 674//674 758//758
f 756//756 673//673 757//757
f 672//672 755//755 754//754
f 753//753 671//671 754//754
f 672//672 756//756 755//755
f 670//670 671//671 753//753
f 751//751 669//669 670//670
f 750//750 668//668 669//669
f 751//751 750//750 669//669
f 750//750 749//749 668//668
f 752//752 751//751 670//670
f 752//752 670//670 753//753
f 748//748 668//668 749//749
f 759//759 758//758 674//674
f 738//738 737//737 660//660
f 736//736 659//659 660//660
f 663//663 741//741 662//662
f 662//662 739//739 661//661
f 661//661 738//738 660//660
f 733//733 657//657 658//658
f 734//734 733//733 658//658
f 732//732 657//657 733//733
f 735//735 658//658 659//659
f 735//735 734//734 658//658
f 735//735 659//659 736//736
f 736//736 660//660 737//737
f 742//742 663//663 664//664
f 747//747 666//666 667//667
f 745//745 665//665 666//666
f 666//666 747//747 746//746
f 746//746 745//745 666//666
f 747//747 667//667 748//748
f 748//748 667//667 668//668
f 744//744 665//665 745//745
f 662//662 740//740 739//739
f 739//739 738//738 661//661
f 743//743 742//742 664//664
f 662//662 741//741 740//740
f 663//663 742//742 741//741
f 743//743 664//664 744//744
f 664//664 665//665 744//744
