# Created by Open3D 
# object name: InfoWheels Exterior Roof Rail
# number of vertices: 374
# number of triangles: 172
v 2.15307 60.223 55.8469
vn 0 -0.460917 0.887443
v 2.13338 60.2325 55.989
vn 0 -0.55641 -0.830908
v 2.15307 60.1091 55.9616
vn 0 0.941398 -0.337298
v 2.15307 60.1596 55.8469
vn 0 0.461267 0.887261
v 2.15307 -0.209851 55.8811
vn 0 -0.809753 0.586771
v 2.15307 -0.245117 56.0116
vn 0 -0.40811 -0.912933
v 2.15307 -0.362894 55.9401
vn 0 0.994773 -0.102109
v 2.15307 -0.281096 55.8334
vn 0 0.278204 0.960522
v 2.15307 -59.3597 55.8401
vn 0 -0.406172 0.913797
v 2.15307 -59.2862 55.9427
vn 0 -0.992132 -0.1252
v 2.15307 -59.3756 56.0219
vn 0 -0.0131365 -0.999914
v 2.15307 -59.4631 55.9589
vn 0 0.958173 -0.28619
v 2.15307 -59.4073 55.8469
vn 0 0.46126 0.887265
v 2.15307 -44.9344 55.8469
vn 0 -0.461266 0.887262
v 2.13338 -44.925 55.989
vn 0 -0.556409 -0.830909
v 2.15307 -45.0484 55.9616
vn 0 0.941667 -0.336546
v 2.15307 -44.9978 55.8469
vn 0 0.461211 0.887291
v 2.15307 15.5774 55.8469
vn 0 -0.461259 0.887265
v 2.15307 15.6279 55.9616
vn 0 -0.938357 -0.345669
v 2.15307 15.5235 56.0165
vn 0 0.259269 -0.965805
v 2.15307 15.4529 55.9378
vn 0 0.997389 -0.0722165
v 2.15307 15.5184 55.843
vn 0 0.399457 0.916752
v 2.15307 71.9161 55.8811
vn 0 -0.809772 0.586745
v 2.15307 71.8645 56.0116
vn 0 -0.245667 -0.969354
v 2.15307 71.7574 55.9589
vn 0 0.958222 -0.286025
v 2.15307 71.8132 55.8469
vn 0 0.461213 0.88729
v 2.15307 44.4591 55.8401
vn 0 -0.406156 0.913804
v 2.15307 44.5327 55.9427
vn 0 -0.992129 -0.125218
v 2.15307 44.4433 56.0219
vn 0 -0.0131469 -0.999914
v 2.15307 44.3558 55.9589
vn 0 0.958177 -0.286175
v 2.15307 44.4116 55.8469
vn 0 0.461272 0.887259
v 2.15307 -14.6588 55.8469
vn 0 -0.461259 0.887265
v 2.15307 -14.6083 55.9616
vn 0 -0.938357 -0.345668
v 2.15307 -14.7128 56.0165
vn 0 0.259267 -0.965806
v 2.15307 -14.7833 55.9378
vn 0 0.997362 -0.0725901
v 2.15307 -14.7178 55.843
vn 0 0.399402 0.916776
v 2.15307 -73.8524 55.8362
vn 0 -0.354476 0.935065
v 2.15307 -73.7744 55.8979
vn 0 -0.983531 0.180741
v 2.15307 -73.8194 56.0165
vn 0 -0.616916 -0.787029
v 2.15307 -73.9334 55.9799
vn 0 0.822925 -0.56815
v 2.15307 -73.8955 55.8469
vn 0 0.46126 0.887265
v 2.15307 -29.1469 55.8811
vn 0 -0.809758 0.586765
v 2.15307 -29.1984 56.0116
vn 0 -0.245926 -0.969288
v 2.15307 -29.3056 55.9589
vn 0 0.95822 -0.286032
v 2.15307 -29.2498 55.8469
vn 0 0.461264 0.887263
v 2.15307 30.0656 55.8469
vn 0 -0.461258 0.887266
v 2.13338 30.075 55.989
vn 0 -0.55641 -0.830908
v 2.15307 29.9516 55.9616
vn 0 0.94167 -0.336539
v 2.15307 30.0022 55.8469
vn 0 0.461218 0.887287
v 2.15307 83.4909 55.8811
vn 0 -0.809753 0.586772
v 2.15307 83.4393 56.0116
vn 0 -0.24566 -0.969356
v 2.15307 83.3322 55.9589
vn 0 0.958218 -0.286038
v 2.15307 83.388 55.8469
vn 0 0.461213 0.88729
v 2.79123 83.3241 55.2822
vn 0.353649 0.935378 0
v 2.72723 83.4375 55.2822
vn 0.990399 -0.138236 0
v 2.85716 83.4812 55.2822
vn -0.652733 -0.757588 0
v 2.84657 83.3455 55.2822
vn -0.578328 0.815805 0
v 2.79123 71.7493 55.2822
vn 0.353649 0.935378 0
v 2.71867 71.8551 55.2822
vn 0.992722 -0.120427 0
v 2.86237 71.9037 55.2822
vn -0.47888 -0.87788 0
v 2.85879 71.7815 55.2724
vn -0.703499 0.710696 0
v 2.77098 60.1063 55.2822
vn 0.461369 0.887208 0
v 2.7078 60.2029 55.2822
vn 0.954696 -0.297582 0
v 2.84235 60.2633 55.2822
vn -0.404517 -0.914531 0
v 2.86319 60.1319 55.2822
vn -0.696697 0.717366 0
v 2.77098 44.3583 55.2822
vn 0.461289 0.88725 0
v 2.7078 44.4548 55.2822
vn 0.95474 -0.297443 0
v 2.82234 44.5286 55.2822
vn -0.331518 -0.943449 0
v 2.87392 44.3926 55.2822
vn -0.809771 0.586746 0
v 2.79123 29.9382 55.2822
vn 0.355051 0.934847 0
v 2.716 30.022 55.2822
vn 0.998294 -0.0583893 0
v 2.81123 30.1109 55.2625
vn -0.169075 -0.985603 0
v 2.86237 29.9838 55.2921
vn -0.792072 0.610428 0
v 2.79123 15.4501 55.2822
vn 0.353637 0.935383 0
v 2.716 15.5338 55.2822
vn 0.998294 -0.0583909 0
v 2.80268 15.6302 55.2822
vn -1.00579e-05 -1 0
v 2.88935 15.5338 55.2822
vn -0.998293 -0.0584079 0
v 2.81411 15.4501 55.2822
vn -0.353612 0.935392 0
v 2.74298 -0.33113 55.2822
vn 0.801895 0.597465 0
v 2.78047 -0.196478 55.2822
vn 0.4242 -0.905569 0
v 2.88493 -0.251302 55.2822
vn -0.938433 -0.34546 0
v 2.83436 -0.366074 55.2822
vn -0.46112 0.887338 0
v 2.77098 -14.7755 55.2822
vn 0.461366 0.88721 0
v 2.71591 -14.6576 55.2822
vn 0.984746 -0.173996 0
v 2.80268 -14.606 55.2822
vn -1.0058e-05 -1 0
v 2.88943 -14.6576 55.2822
vn -0.984736 -0.174056 0
v 2.83436 -14.7755 55.2822
vn -0.461336 0.887225 0
v 2.79123 -29.3137 55.2822
vn 0.353632 0.935384 0
v 2.72723 -29.2003 55.2822
vn 0.9904 -0.138234 0
v 2.85716 -29.1566 55.2822
vn -0.65274 -0.757582 0
v 2.84657 -29.2923 55.2822
vn -0.578318 0.815812 0
v 2.79123 -45.0618 55.2822
vn 0.355097 0.934829 0
v 2.716 -44.978 55.2822
vn 0.998294 -0.0583916 0
v 2.86166 -44.9015 55.2822
vn -0.273781 -0.961792 0
v 2.85307 -45.0309 55.2822
vn -0.70362 0.710576 0
v 2.77098 -59.4605 55.2822
vn 0.461245 0.887273 0
v 2.7078 -59.3641 55.2822
vn 0.954741 -0.297439 0
v 2.81899 -59.2909 55.2822
vn -0.197094 -0.980385 0
v 2.89408 -59.3809 55.2822
vn -0.996801 0.0799296 0
v 2.81851 -59.4673 55.2822
vn -0.398235 0.917284 0
v 2.77098 -73.9487 55.2822
vn 0.461351 0.887218 0
v 2.7078 -73.8523 55.2822
vn 0.9547 -0.297569 0
v 2.80268 -73.7682 55.2822
vn 0.180428 -0.983588 0
v 2.88471 -73.8374 55.2822
vn -0.951842 -0.306589 0
v 2.81851 -73.9555 55.2822
vn -0.398282 0.917263 0
v 2.15307 -79.1028 56.5055
vn 0.013669 -0.709868 0.704202
v 2.15307 -79.185 56.3764
vn -0.0243086 -0.919751 0.39175
v 2.15307 -78.9738 56.5877
vn -0.0285557 -0.393984 0.918674
v 2.15307 -79.2181 56.2271
vn -8.98786e-07 -0.98222 0.187734
v 2.15307 -78.8244 56.6208
vn -8.98869e-07 -0.187628 0.98224
v 2.15307 85.0339 56.6208
vn 0 0 1
v 2.15307 -78.8244 56.6208
vn 0 0 1
v 2.19244 -79.1004 56.6088
vn 1 0 0
v 2.19244 -14.691 55.9291
vn 1 0 0
v 2.19244 -29.2227 55.9285
vn 1 0 0
v 2.19244 -44.9611 55.9282
vn 1 0 0
v 2.19244 -76.4404 55.339
vn 1 0 0
v 2.19244 -59.376 55.9278
vn 1 0 0
v 2.19244 -0.275812 55.9288
vn 1 0 0
v 2.19244 85.285 56.6109
vn 1 0 0
v 2.19244 15.5406 55.9287
vn 1 0 0
v 2.19244 44.4484 55.9282
vn 1 0 0
v 2.19244 30.0335 55.9288
vn 1 0 0
v 2.19244 60.1744 55.9281
vn 1 0 0
v 2.19244 77.5608 55.3551
vn 1 0 0
v 3.37634 -79.1028 55.2822
vn 0.704228 -0.709842 -0.0136926
v 3.24733 -79.185 55.2822
vn 0.391498 -0.919111 -0.0443269
v 3.45856 -78.9738 55.2822
vn 0.919718 -0.39186 -0.0237342
v 3.09795 -79.2181 55.2822
vn 0.18767 -0.982232 6.87512e-07
v 3.49165 -78.8244 55.2822
vn 0.982266 -0.187491 6.83508e-07
v 3.49165 85.0339 55.2822
vn 1 0 0
v 3.49165 -78.8244 55.2822
vn 1 0 0
v 3.47931 -79.1037 55.2428
vn 0 0 -1
v 2.80268 -14.6913 55.2428
vn 0 0 -1
v 2.80268 -29.223 55.2428
vn 0 0 -1
v 2.80268 -44.9613 55.2428
vn 0 0 -1
v 2.13037 -76.5632 55.2428
vn 0 0 -1
v 2.87439 -59.4226 55.2428
vn 0 0 -1
v 2.80268 -0.276021 55.2428
vn 0 0 -1
v 2.80268 15.5404 55.2428
vn 0 0 -1
v 3.48207 85.2891 55.2428
vn 0 0 -1
v 2.80268 30.0333 55.2428
vn 0 0 -1
v 2.80268 44.4481 55.2428
vn 0 0 -1
v 2.80268 60.174 55.2428
vn 0 0 -1
v 2.80268 71.8442 55.2428
vn 0 0 -1
v 2.12617 84.0936 55.2428
vn 0 0 -1
v 2.72142 -59.3033 55.2428
vn 0 0 -1
v 3.37634 85.3122 55.2822
vn 0.704306 0.709765 0.01364
v 3.24733 85.3945 55.2822
vn 0.392046 0.919647 -0.0234156
v 3.45856 85.1833 55.2822
vn 0.918649 0.394042 -0.0285396
v 3.09795 85.4276 55.2822
vn 0.187771 0.982213 6.78519e-07
v 3.49165 85.0339 55.2822
vn 0.982248 0.187586 6.85205e-07
v 2.15307 85.3122 56.5055
vn -0.0136111 0.709789 0.704283
v 2.15307 85.3945 56.3764
vn -0.0281392 0.918644 0.394083
v 2.15307 85.1833 56.5877
vn -0.02401 0.392055 0.919629
v 2.15307 85.4276 56.2271
vn -8.86612e-07 0.982201 0.187835
v 2.15307 85.0339 56.6208
vn -8.99326e-07 0.187724 0.982222
v 3.09795 85.4276 55.2806
vn 0 1 0
v 2.15143 85.4276 55.2806
vn 0 1 0
v 2.15143 85.4276 56.2271
vn 0 1 0
v 2.15143 -79.2181 55.2806
vn 0 -1 0
v 2.15143 -79.2181 56.2271
vn 0 -1 0
v 3.09795 -79.2181 55.2806
vn 0 -1 0
v 2.72142 -59.3033 55.3216
vn 0 0 1
v 2.20933 -76.4504 55.3216
vn 0 0 1
v 3.47957 -79.1006 55.3216
vn 0 0 1
v 2.80268 -44.9613 55.3216
vn 0 0 1
v 2.87439 -59.4226 55.3216
vn 0 0 1
v 2.80268 -29.223 55.3216
vn 0 0 1
v 2.80268 -14.6913 55.3216
vn 0 0 1
v 2.80268 -0.276021 55.3216
vn 0 0 1
v 2.80268 15.5404 55.3216
vn 0 0 1
v 2.22735 77.5652 55.3216
vn 0 0 1
v 2.80268 30.0333 55.3216
vn 0 0 1
v 2.80268 44.4481 55.3216
vn 0 0 1
v 2.80268 60.174 55.3216
vn 0 0 1
v 3.48169 85.2851 55.3216
vn 0 0 1
v 2.1137 -59.376 55.928
vn -1 0 0
v 2.1137 -76.5672 55.259
vn -1 0 0
v 2.1137 -79.1037 56.6085
vn -1 0 0
v 2.1137 -44.9612 55.9281
vn -1 0 0
v 2.1137 -29.2228 55.9286
vn -1 0 0
v 2.1137 -14.6911 55.929
vn -1 0 0
v 2.1137 -0.275747 55.9286
vn -1 0 0
v 2.1137 15.5406 55.9289
vn -1 0 0
v 2.1137 77.6696 55.2756
vn -1 0 0
v 2.1137 30.0336 55.9288
vn -1 0 0
v 2.1137 44.4485 55.9283
vn -1 0 0
v 2.1137 60.1745 55.9281
vn -1 0 0
v 2.1137 85.289 56.6113
vn -1 0 0
v 71.0372 60.223 55.2822
vn -0.887388 -0.461023 0
v 70.8951 60.2325 55.2625
vn 0.830948 -0.55635 0
v 70.9225 60.1091 55.2822
vn 0.337483 0.941332 0
v 71.0372 60.1596 55.2822
vn -0.887207 0.461373 0
v 71.0372 -0.249411 55.2822
vn -0.887226 -0.461336 0
v 70.9069 -0.206242 55.2822
vn 0.520365 -0.853944 0
v 70.8676 -0.319619 55.2822
vn 0.906611 0.421967 0
v 70.9576 -0.372498 55.2822
vn -0.0691294 0.997608 0
v 71.044 -0.296939 55.2822
vn -0.917258 0.398294 0
v 71.003 -59.3043 55.2822
vn -0.586548 -0.809915 0
v 70.8725 -59.3559 55.2822
vn 0.969261 -0.246034 0
v 70.9252 -59.4631 55.2822
vn 0.28637 0.958119 0
v 71.0372 -59.4073 55.2822
vn -0.88721 0.461366 0
v 71.0372 -44.9344 55.2822
vn -0.887207 -0.461372 0
v 70.8951 -44.925 55.2625
vn 0.830949 -0.556349 0
v 70.9225 -45.0484 55.2822
vn 0.336731 0.941601 0
v 71.0372 -44.9978 55.2822
vn -0.887236 0.461316 0
v 71.0372 15.5774 55.2822
vn -0.88721 -0.461365 0
v 70.9225 15.6279 55.2822
vn 0.345811 -0.938304 0
v 70.8676 15.5235 55.2822
vn 0.965803 0.259278 0
v 70.9463 15.4529 55.2822
vn 0.0724741 0.99737 0
v 71.0411 15.5184 55.2822
vn -0.916738 0.399488 0
v 71.0372 71.8766 55.2822
vn -0.887206 -0.461374 0
v 70.9408 71.9397 55.2822
vn 0.297448 -0.954738 0
v 70.8622 71.8449 55.2822
vn 0.999919 -0.0127472 0
v 70.9252 71.7574 55.2822
vn 0.286205 0.958168 0
v 71.0372 71.8132 55.2822
vn -0.887235 0.461318 0
v 71.003 44.5146 55.2822
vn -0.586551 -0.809912 0
v 70.8725 44.463 55.2822
vn 0.96926 -0.246038 0
v 70.9252 44.3558 55.2822
vn 0.286355 0.958124 0
v 71.0372 44.4116 55.2822
vn -0.887204 0.461377 0
v 71.0372 -14.6588 55.2822
vn -0.88721 -0.461365 0
v 70.8951 -14.6494 55.2625
vn 0.830948 -0.55635 0
v 70.9225 -14.7728 55.2822
vn 0.357123 0.934057 0
v 71.0372 -14.7222 55.2822
vn -0.887326 0.461142 0
v 71.0264 -73.8199 55.2822
vn -0.806689 -0.590976 0
v 70.8859 -73.8067 55.2822
vn 0.618218 -0.786007 0
v 70.9042 -73.9334 55.2822
vn 0.568243 0.822861 0
v 71.0372 -73.8955 55.2822
vn -0.88721 0.461366 0
v 71.003 -29.1469 55.2822
vn -0.586626 -0.809858 0
v 70.8725 -29.1984 55.2822
vn 0.969295 -0.2459 0
v 70.9252 -29.3056 55.2822
vn 0.286212 0.958166 0
v 71.0372 -29.2498 55.2822
vn -0.887208 0.461369 0
v 71.0372 30.0656 55.2822
vn -0.887211 -0.461364 0
v 70.8951 30.075 55.2625
vn 0.830948 -0.55635 0
v 70.9225 29.9516 55.2822
vn 0.336723 0.941604 0
v 71.0372 30.0022 55.2822
vn -0.887232 0.461324 0
v 71.0372 83.4514 55.2822
vn -0.887213 -0.46136 0
v 70.9408 83.5146 55.2822
vn 0.297473 -0.95473 0
v 70.8622 83.4197 55.2822
vn 0.999919 -0.0127559 0
v 70.9252 83.3322 55.2822
vn 0.286218 0.958165 0
v 71.0372 83.388 55.2822
vn -0.887235 0.461318 0
v 71.6019 83.328 55.916
vn 0 0.914153 0.405369
v 71.6019 83.4488 55.855
vn 0 -0.354285 0.935138
v 71.6019 83.4946 55.977
vn 0 -0.854443 -0.519546
v 71.6019 83.3549 55.9822
vn 0 0.711087 -0.703104
v 71.6019 71.7532 55.916
vn 0 0.914153 0.405369
v 71.6019 71.874 55.855
vn 0 -0.354285 0.935138
v 71.6019 71.9064 55.9863
vn 0 -0.752647 -0.658425
v 71.6117 71.7815 55.9879
vn 0 0.710672 -0.703523
v 71.6019 60.1406 55.8606
vn 0 0.586611 0.809869
v 71.6019 60.2711 55.9121
vn 0 -0.970908 0.239453
v 71.6019 60.1643 55.9936
vn 0 0.340649 -0.94019
v 71.6019 44.3926 55.8606
vn 0 0.586744 0.809772
v 71.6019 44.5128 55.8703
vn 0 -0.858961 0.512041
v 71.6019 44.5128 55.9934
vn 0 -0.858967 -0.512031
v 71.6019 44.3926 56.003
vn 0 0.586745 -0.809772
v 71.6019 29.9421 55.916
vn 0 0.913562 0.406699
v 71.6019 30.0661 55.8505
vn 0 -0.182342 0.983235
v 71.6019 30.1136 55.9737
vn 0 -0.956573 -0.291493
v 71.6019 30.0019 56.016
vn 0 0.354519 -0.935049
v 71.5625 29.9354 55.9318
vn 0 0.960423 -0.278547
v 71.6019 15.4501 55.9204
vn 0 0.935352 0.353719
v 71.6019 15.5559 55.8478
vn 0 -0.120497 0.992714
v 71.6019 15.6412 55.9318
vn 0 -1 5.435e-06
v 71.6019 15.5559 56.0158
vn 0 -0.120487 -0.992715
v 71.6019 15.4501 55.9432
vn 0 0.935348 -0.353729
v 71.6019 -0.331865 55.8606
vn 0 0.586706 0.8098
v 71.6019 -0.211643 55.8703
vn 0 -0.859046 0.511898
v 71.6019 -0.211643 55.9934
vn 0 -0.859052 -0.511888
v 71.6019 -0.331865 56.003
vn 0 0.586707 -0.8098
v 71.6117 -14.7688 55.8843
vn 0 0.723194 0.690645
v 71.6019 -14.6259 55.8728
vn 0 -0.604697 0.796456
v 71.6019 -14.6259 55.9908
vn 0 -0.604686 -0.796464
v 71.592 -14.7688 55.9793
vn 0 0.723188 -0.690651
v 71.6019 -29.3098 55.916
vn 0 0.914158 0.405358
v 71.6019 -29.189 55.855
vn 0 -0.35428 0.935139
v 71.6019 -29.1431 55.977
vn 0 -0.854435 -0.519559
v 71.6019 -29.2828 55.9822
vn 0 0.711096 -0.703095
v 71.6019 -45.0579 55.916
vn 0 0.913542 0.406744
v 71.6019 -44.9339 55.8505
vn 0 -0.18235 0.983234
v 71.6019 -44.8912 55.9711
vn 0 -0.885328 -0.464967
v 71.6019 -45.0309 55.9822
vn 0 0.710553 -0.703644
v 71.6019 -59.4263 55.8606
vn 0 0.586764 0.809758
v 71.6216 -59.3087 55.9449
vn 0 -0.999975 0.00706133
v 71.6019 -59.4511 55.97
vn 0 0.806538 -0.591182
v 71.6019 -73.9145 55.8606
vn 0 0.586629 0.809856
v 71.6216 -73.7969 55.9449
vn 0 -0.999975 0.00705186
v 71.6019 -73.9393 55.97
vn 0 0.806455 -0.591296
v 70.3786 -79.1028 55.2822
vn -0.704135 -0.709933 0.0137056
v 70.5076 -79.185 55.2822
vn -0.391809 -0.919732 -0.0240408
v 70.2964 -78.9738 55.2822
vn -0.918739 -0.393806 -0.0289222
v 70.657 -79.2181 55.2822
vn -0.187632 -0.982239 6.86875e-07
v 70.2633 -78.8244 55.2822
vn -0.982239 -0.187632 6.86875e-07
v 70.2633 85.0339 55.2822
vn -1 0 0
v 70.2633 -78.8244 55.2822
vn -1 0 0
v 70.2753 -79.1004 55.3216
vn 0 0 1
v 70.955 -14.691 55.3216
vn 0 0 1
v 70.9556 -29.2227 55.3216
vn 0 0 1
v 70.9559 -44.9611 55.3216
vn 0 0 1
v 71.5451 -76.4404 55.3216
vn 0 0 1
v 70.9563 -59.376 55.3216
vn 0 0 1
v 70.9553 -0.275812 55.3216
vn 0 0 1
v 70.2732 85.285 55.3216
vn 0 0 1
v 70.9554 15.5406 55.3216
vn 0 0 1
v 70.9559 44.4484 55.3216
vn 0 0 1
v 70.9553 30.0335 55.3216
vn 0 0 1
v 70.956 60.1744 55.3216
vn 0 0 1
v 71.529 77.5608 55.3216
vn 0 0 1
v 71.6019 -79.1028 56.5055
vn -0.0136623 -0.704346 0.709725
v 71.6019 -79.185 56.3764
vn -0.0243171 -0.919751 0.391749
v 71.6019 -78.9738 56.5877
vn -0.0438053 -0.391664 0.919065
v 71.6019 -79.2181 56.2271
vn 0 -0.98222 0.187734
v 71.6019 -78.8244 56.6208
vn 0 -0.187628 0.98224
v 71.6019 85.0339 56.6208
vn 0 0 1
v 71.6019 -78.8244 56.6208
vn 0 0 1
v 71.6413 -79.1037 56.6085
vn 1 0 0
v 71.6413 -14.6913 55.9318
vn 1 0 0
v 71.6413 -29.223 55.9318
vn 1 0 0
v 71.6413 -44.9613 55.9318
vn 1 0 0
v 71.6413 -76.5636 55.2595
vn 1 0 0
v 71.6413 -59.3033 56.0131
vn 1 0 0
v 71.6413 -59.4226 55.8601
vn 1 0 0
v 71.6413 -0.276025 55.9318
vn 1 0 0
v 71.6413 15.5404 55.9318
vn 1 0 0
v 71.6413 85.289 56.6112
vn 1 0 0
v 71.6413 30.0333 55.9318
vn 1 0 0
v 71.6413 44.4481 55.9318
vn 1 0 0
v 71.6413 60.174 55.9318
vn 1 0 0
v 71.6413 71.8442 55.9318
vn 1 0 0
v 71.6413 84.0937 55.2553
vn 1 0 0
v 71.6019 85.3122 56.5055
vn -0.013602 0.70979 0.704282
v 71.6019 85.3945 56.3764
vn 0.0386268 0.918322 0.393944
v 71.6019 85.1833 56.5877
vn 0.0287007 0.394107 0.918616
v 71.6019 85.4276 56.2271
vn 0 0.982201 0.187835
v 71.6019 85.0339 56.6208
vn 0 0.187724 0.982222
v 70.3786 85.3122 55.2822
vn -0.709724 0.704348 0.0136514
v 70.5076 85.3945 55.2822
vn -0.391833 0.919037 -0.042869
v 70.2964 85.1833 55.2822
vn -0.919696 0.391876 -0.0243368
v 70.657 85.4276 55.2822
vn -0.187734 0.98222 6.77883e-07
v 70.2633 85.0339 55.2822
vn -0.982221 0.187728 6.88576e-07
v 71.6035 85.4276 56.2271
vn 0 1 0
v 71.6035 85.4276 55.2806
vn 0 1 0
v 70.657 85.4276 55.2806
vn 0 1 0
v 71.6035 -79.2181 55.2806
vn 0 -1 0
v 70.657 -79.2181 55.2806
vn 0 -1 0
v 71.6035 -79.2181 56.2271
vn 0 -1 0
v 71.5625 -59.4226 55.8601
vn -1 0 0
v 71.5625 -76.4506 55.3385
vn -1 0 0
v 71.5625 -79.1006 56.6087
vn -1 0 0
v 71.5625 -44.9613 55.9318
vn -1 0 0
v 71.5625 -29.223 55.9318
vn -1 0 0
v 71.5625 -14.6913 55.9318
vn -1 0 0
v 71.5625 -0.276025 55.9318
vn -1 0 0
v 71.5625 15.5404 55.9318
vn -1 0 0
v 71.5625 77.5655 55.3565
vn -1 0 0
v 71.5625 -59.3033 56.0131
vn -1 0 0
v 71.5625 30.0333 55.9318
vn -1 0 0
v 71.5625 44.4481 55.9318
vn -1 0 0
v 71.5625 60.174 55.9318
vn -1 0 0
v 71.5625 85.285 56.6108
vn -1 0 0
v 70.9561 -59.376 55.2428
vn 0 0 -1
v 71.6251 -76.5671 55.2428
vn 0 0 -1
v 70.2756 -79.1037 55.2428
vn 0 0 -1
v 70.956 -44.9612 55.2428
vn 0 0 -1
v 70.9555 -29.2228 55.2428
vn 0 0 -1
v 70.9551 -14.6911 55.2428
vn 0 0 -1
v 70.9555 -0.275747 55.2428
vn 0 0 -1
v 70.9552 15.5406 55.2428
vn 0 0 -1
v 71.6085 77.6695 55.2428
vn 0 0 -1
v 70.9553 30.0336 55.2428
vn 0 0 -1
v 70.9558 44.4485 55.2428
vn 0 0 -1
v 70.956 60.1745 55.2428
vn 0 0 -1
v 70.2728 85.289 55.2428
vn 0 0 -1
f 113//113 117//117 118//118
f 115//115 114//114 113//113
f 114//114 119//119 113//113
f 116//116 115//115 113//113
f 116//116 113//113 118//118
f 120//120 113//113 119//119
f 122//122 120//120 123//123
f 124//124 120//120 122//122
f 123//123 120//120 121//121
f 124//124 125//125 120//120
f 119//119 121//121 120//120
f 117//117 116//116 118//118
f 117//117 115//115 116//116
f 114//114 115//115 117//117
f 114//114 117//117 119//119
f 125//125 121//121 119//119
f 125//125 119//119 117//117
f 123//123 125//125 122//122
f 125//125 123//123 121//121
f 125//125 124//124 122//122
f 133//133 137//137 138//138
f 133//133 138//138 136//136
f 133//133 135//135 134//134
f 133//133 134//134 139//139
f 136//136 135//135 133//133
f 141//141 133//133 139//139
f 142//142 141//141 140//140
f 141//141 143//143 144//144
f 143//143 141//141 142//142
f 141//141 145//145 146//146
f 144//144 145//145 141//141
f 139//139 140//140 141//141
f 147//147 136//136 138//138
f 137//137 136//136 147//147
f 136//136 137//137 135//135
f 137//137 147//147 138//138
f 137//137 134//134 135//135
f 134//134 137//137 139//139
f 139//139 137//137 146//146
f 146//146 143//143 142//142
f 146//146 142//142 140//140
f 146//146 145//145 144//144
f 146//146 144//144 143//143
f 146//146 140//140 139//139
f 165//165 168//168 164//164
f 165//165 164//164 167//167
f 169//169 165//165 167//167
f 170//170 171//171 165//165
f 169//169 170//170 165//165
f 173//173 165//165 171//171
f 167//167 164//164 168//168
f 173//173 172//172 174//174
f 175//175 173//173 174//174
f 175//175 176//176 173//173
f 171//171 172//172 173//173
f 168//168 165//165 166//166
f 167//167 168//168 166//166
f 167//167 166//166 169//169
f 170//170 169//169 166//166
f 171//171 170//170 166//166
f 171//171 166//166 177//177
f 175//175 174//174 177//177
f 172//172 177//177 174//174
f 176//176 175//175 177//177
f 173//173 176//176 177//177
f 177//177 172//172 171//171
f 181//181 179//179 178//178
f 182//182 183//183 179//179
f 183//183 184//184 179//179
f 182//182 179//179 181//181
f 186//186 179//179 184//184
f 186//186 184//184 185//185
f 186//186 185//185 187//187
f 188//188 186//186 187//187
f 188//188 189//189 186//186
f 179//179 180//180 178//178
f 181//181 178//178 180//180
f 182//182 181//181 180//180
f 180//180 183//183 182//182
f 183//183 180//180 184//184
f 184//184 180//180 190//190
f 190//190 189//189 188//188
f 190//190 186//186 189//189
f 190//190 188//188 187//187
f 190//190 187//187 185//185
f 190//190 185//185 184//184
f 297//297 301//301 302//302
f 299//299 298//298 297//297
f 298//298 303//303 297//297
f 300//300 299//299 297//297
f 300//300 297//297 302//302
f 304//304 297//297 303//303
f 306//306 304//304 307//307
f 308//308 304//304 306//306
f 307//307 304//304 305//305
f 308//308 309//309 304//304
f 303//303 305//305 304//304
f 301//301 300//300 302//302
f 301//301 299//299 300//300
f 298//298 299//299 301//301
f 298//298 301//301 303//303
f 309//309 305//305 303//303
f 309//309 303//303 301//301
f 307//307 309//309 306//306
f 309//309 307//307 305//305
f 309//309 308//308 306//306
f 317//317 321//321 322//322
f 322//322 321//321 323//323
f 317//317 322//322 320//320
f 317//317 319//319 318//318
f 317//317 318//318 324//324
f 320//320 319//319 317//317
f 326//326 317//317 324//324
f 327//327 326//326 325//325
f 326//326 328//328 329//329
f 328//328 326//326 327//327
f 326//326 330//330 331//331
f 329//329 330//330 326//326
f 324//324 325//325 326//326
f 323//323 320//320 322//322
f 321//321 320//320 323//323
f 320//320 321//321 319//319
f 321//321 318//318 319//319
f 318//318 321//321 324//324
f 324//324 321//321 331//331
f 331//331 328//328 327//327
f 331//331 327//327 325//325
f 331//331 330//330 329//329
f 331//331 329//329 328//328
f 331//331 325//325 324//324
f 349//349 348//348 351//351
f 352//352 349//349 351//351
f 353//353 354//354 349//349
f 352//352 353//353 349//349
f 356//356 349//349 354//354
f 351//351 348//348 357//357
f 356//356 355//355 358//358
f 359//359 356//356 358//358
f 359//359 360//360 356//356
f 354//354 355//355 356//356
f 357//357 349//349 350//350
f 351//351 357//357 350//350
f 351//351 350//350 352//352
f 353//353 352//352 350//350
f 354//354 353//353 350//350
f 354//354 350//350 361//361
f 357//357 348//348 349//349
f 359//359 358//358 361//361
f 355//355 361//361 358//358
f 360//360 359//359 361//361
f 356//356 360//360 361//361
f 361//361 355//355 354//354
f 365//365 363//363 362//362
f 366//366 367//367 363//363
f 367//367 368//368 363//363
f 366//366 363//363 365//365
f 370//370 363//363 368//368
f 370//370 368//368 369//369
f 370//370 369//369 371//371
f 372//372 370//370 371//371
f 372//372 373//373 370//370
f 363//363 364//364 362//362
f 365//365 362//362 364//364
f 366//366 365//365 364//364
f 364//364 367//367 366//366
f 367//367 364//364 368//368
f 368//368 364//364 374//374
f 374//374 373//373 372//372
f 374//374 370//370 373//373
f 374//374 372//372 371//371
f 374//374 371//371 369//369
f 374//374 369//369 368//368
