# Created by Open3D 
# object name: InfoWheels_Exterior_Passenger_Awning_Open_Struts_Colored
# number of vertices: 764
# number of triangles: 1504
v -12.7991 5.26913 25.849
vn -0.426624 0.881364 -0.202954
v -12.8735 5.19853 25.8299
vn 0.0116497 -0.069473 0.997516
v -12.8735 5.22207 25.8299
vn -0.100441 0.029088 0.994518
v -12.9495 5.19853 25.8408
vn 0.371622 -0.0571071 0.926626
v -12.9495 5.22207 25.8408
vn 0.284209 0.0645544 0.956587
v -13.0156 5.19853 25.8799
vn 0.669316 -0.0628982 0.740311
v -13.0156 5.22207 25.8799
vn 0.640709 0.0644204 0.765077
v -13.0617 5.17507 25.9414
vn -0.0125115 -0.999903 -0.00618663
v -13.0617 5.20459 25.9414
vn 0.89772 0 0.440567
v -13.0617 5.23412 25.9414
vn 0.0581281 0.997915 0.0280436
v -12.7991 5.23787 25.849
vn -0.368529 0.0168884 0.929463
v -12.7991 5.20661 25.849
vn 0.403719 -0.893288 0.197605
v -12.8341 5.19569 25.8362
vn 0.228656 -0.96725 0.110201
v -12.8726 5.18707 25.83
vn 0.177531 -0.980374 0.0857275
v -12.912 5.18119 25.8317
vn 0.129414 -0.989533 0.0638527
v -12.9495 5.17771 25.8408
vn 0.0873035 -0.995258 0.042883
v -12.984 5.17596 25.8569
vn 0.0686939 -0.996945 0.0371785
v -13.0156 5.17524 25.8799
vn 0.667545 0 0.744569
v -13.042 5.17506 25.9089
vn 0.000955227 -1 4.37841e-05
v -13.042 5.23412 25.9089
vn 0.796832 0.0891355 0.59759
v -13.0156 5.23432 25.8799
vn 0.667545 0 0.744569
v -12.984 5.23511 25.8569
vn -0.0695675 0.997109 -0.0305606
v -12.9495 5.23704 25.8408
vn -0.0957301 0.994397 -0.0448475
v -12.9119 5.24091 25.8316
vn -0.142281 0.987651 -0.0655894
v -12.8724 5.24743 25.83
vn -0.173885 0.981341 -0.0820655
v -12.8339 5.25701 25.8362
vn -0.253203 0.959994 -0.119585
v -12.7991 6.34084 25.849
vn -0.379881 -0.907125 -0.181149
v -12.8735 6.38791 25.8299
vn -0.0642762 -0.0248132 0.997624
v -12.8735 6.41144 25.8299
vn -0.0256564 0.0890688 0.995695
v -12.9495 6.38791 25.8408
vn 0.359114 -0.0646065 0.931055
v -12.9495 6.41144 25.8408
vn 0.30502 0.0571537 0.95063
v -13.0156 6.38791 25.8799
vn 0.671093 -0.0805194 0.736988
v -13.0156 6.41144 25.8799
vn 0.644707 0.0526313 0.762616
v -12.7991 6.40336 25.849
vn 0.437256 0.873934 0.212244
v -12.7991 6.3721 25.849
vn -0.368524 -0.0168877 0.929465
v -13.0617 6.37585 25.9414
vn 0.0630988 -0.997536 0.030669
v -13.0617 6.40538 25.9414
vn 0.897721 0 0.440565
v -13.0617 6.43491 25.9414
vn 0.00662142 0.999973 0.00333206
v -13.042 6.43491 25.9089
vn 0.798274 0.0703274 0.598175
v -13.0156 6.43473 25.8799
vn 0.667545 0 0.744569
v -12.984 6.43401 25.8569
vn 0.0687473 0.996936 0.0373059
v -12.9495 6.43226 25.8408
vn 0.08729 0.995261 0.0428437
v -12.912 6.42878 25.8317
vn 0.129231 0.989584 0.0634202
v -12.8726 6.42291 25.83
vn 0.168739 0.982371 0.0804602
v -12.8341 6.41428 25.8362
vn 0.228799 0.967224 0.110133
v -12.8339 6.35296 25.8362
vn -0.253212 -0.959996 -0.11955
v -12.8724 6.36254 25.83
vn -0.196526 -0.976248 -0.0912033
v -12.9119 6.36907 25.8316
vn -0.142334 -0.987616 -0.0660037
v -12.9495 6.37293 25.8408
vn -0.0955993 -0.994408 -0.044865
v -12.984 6.37486 25.8569
vn -0.0695061 -0.997117 -0.0304351
v -13.0156 6.37566 25.8799
vn 0.667545 0 0.744569
v -13.042 6.37585 25.9089
vn 0.000409692 -0.999999 0.000916128
v -13.7423 5.17507 27.3615
vn 0.893562 -0.117895 0.433182
v -13.7423 5.23412 27.3615
vn 0.893562 0.117893 0.433184
v -13.402 5.23412 26.6515
vn 0.873587 0.248089 0.418685
v -13.7423 5.20459 27.3615
vn 0.897739 2.18229e-20 0.440528
v -13.402 5.17507 26.6515
vn 0.90004 -0.0621273 0.431355
v -13.7423 6.37585 27.3615
vn 0.893562 -0.117893 0.433184
v -13.7423 6.43491 27.3615
vn 0.893562 0.117893 0.433184
v -13.402 6.37585 26.6515
vn 0.873578 -0.24813 0.418681
v -13.402 6.43491 26.6515
vn 0.900041 0.0621168 0.431356
v -13.7423 6.40538 27.3615
vn 0.89774 2.18194e-20 0.440526
v -14.0049 5.26913 27.454
vn 0.448837 0.867138 0.21591
v -13.9305 5.19853 27.473
vn 0.0122422 0.0717142 0.99735
v -13.9305 5.22207 27.473
vn -0.0995909 -0.0301536 0.994571
v -13.8544 5.19853 27.4621
vn 0.371459 0.0581007 0.92663
v -13.8544 5.22207 27.4621
vn 0.283847 -0.0647948 0.956678
v -13.7883 5.19853 27.423
vn 0.669569 0.0628017 0.74009
v -13.7883 5.22207 27.423
vn 0.640897 -0.0643294 0.764927
v -14.0049 5.23787 27.454
vn -0.368172 -0.0167783 0.929606
v -14.0049 5.20661 27.454
vn -0.3693 -0.912773 -0.174537
v -13.9699 5.19569 27.4668
vn -0.228941 -0.967301 -0.109154
v -13.9314 5.18707 27.473
vn -0.177616 -0.980463 -0.0845315
v -13.892 5.18119 27.4713
vn -0.128826 -0.989846 -0.0600702
v -13.8544 5.17771 27.4621
vn -0.0864808 -0.99543 -0.0404967
v -13.82 5.17596 27.4461
vn -0.0464641 -0.998698 -0.0210475
v -13.7884 5.17524 27.423
vn -0.00235739 -0.99989 0.0146764
v -13.762 5.17506 27.3941
vn 0.125515 -0.987369 0.0966876
v -13.762 5.23412 27.3941
vn 0.22083 0.961736 0.162165
v -13.7884 5.23432 27.423
vn 0.0409333 0.998777 0.0277316
v -13.82 5.23511 27.4461
vn 0.0472129 0.998603 0.0237281
v -13.8544 5.23704 27.4621
vn 0.0964673 0.994218 0.0471759
v -13.8921 5.24091 27.4713
vn 0.160133 0.984034 0.0776813
v -13.9316 5.24743 27.473
vn 0.195724 0.975868 0.0968218
v -13.97 5.25701 27.4667
vn 0.252387 0.959835 0.12255
v -14.0049 6.34084 27.454
vn 0.425023 -0.881381 0.206214
v -13.9305 6.38791 27.473
vn -0.0635481 0.0257179 0.997647
v -13.9305 6.41144 27.473
vn -0.0248597 -0.0919487 0.995453
v -13.8544 6.38791 27.4621
vn 0.358802 0.0648651 0.931157
v -13.8544 6.41144 27.4621
vn 0.304814 -0.0581345 0.950636
v -13.7883 6.38791 27.423
vn 0.671343 0.0804168 0.736771
v -13.7883 6.41144 27.423
vn 0.644914 -0.0525468 0.762447
v -14.0049 6.40336 27.454
vn -0.407017 0.893403 -0.190179
v -14.0049 6.3721 27.454
vn -0.368167 0.0167776 0.929608
v -13.762 6.43491 27.3941
vn 0.12496 0.987464 0.096432
v -13.7884 6.43473 27.423
vn -0.00234659 0.999889 0.0146884
v -13.82 6.43401 27.4461
vn -0.0406262 0.999017 -0.0177587
v -13.8544 6.43226 27.4621
vn -0.0864888 0.995428 -0.04052
v -13.892 6.42878 27.4713
vn -0.128733 0.989843 -0.0603288
v -13.9314 6.42291 27.473
vn -0.168429 0.982373 -0.0810871
v -13.9699 6.41428 27.4668
vn -0.22902 0.967264 -0.109317
v -13.97 6.35296 27.4667
vn 0.252377 -0.959833 0.122585
v -13.9316 6.36254 27.473
vn 0.195863 -0.975864 0.0965783
v -13.8921 6.36907 27.4713
vn 0.142817 -0.987238 0.0704532
v -13.8544 6.37293 27.4621
vn 0.0962699 -0.994245 0.0469993
v -13.82 6.37486 27.4461
vn 0.0518525 -0.998316 0.0260123
v -13.7884 6.37566 27.423
vn 0.0409434 -0.998776 0.027743
v -13.762 6.37585 27.3941
vn 0.22029 -0.961902 0.161916
v -12.6213 6.29645 25.9342
vn 0.620736 0.724129 0.300541
v -12.4885 6.12722 25.9978
vn 0.811662 0.433072 0.391986
v -12.4176 5.91714 26.0318
vn 0.897693 0.0858206 0.432184
v -12.4176 5.69283 26.0318
vn 0.86649 -0.27263 0.418172
v -12.4885 5.48275 25.9978
vn 0.723203 -0.59568 0.34949
v -12.6213 5.31352 25.9342
vn 0.486142 -0.841448 0.235863
v -12.6449 5.36846 25.9229
vn -0.546558 0.796497 -0.258585
v -12.5305 5.52019 25.9777
vn -0.762505 0.536173 -0.362083
v -12.4696 5.7061 26.0069
vn -0.883224 0.208725 -0.41994
v -12.4696 5.90388 26.0069
vn -0.894013 -0.145093 -0.423898
v -12.5305 6.08979 25.9777
vn -0.792127 -0.480522 -0.376343
v -12.6449 6.24151 25.9229
vn -0.591778 -0.755774 -0.280364
v -14.1827 6.29645 27.3688
vn -0.535401 0.805634 -0.253575
v -14.3155 6.12722 27.3051
vn -0.758089 0.543584 -0.360303
v -14.3863 5.91714 27.2712
vn -0.882306 0.211027 -0.420718
v -14.3863 5.69283 27.2712
vn -0.892959 -0.148514 -0.424933
v -14.3155 5.48275 27.3051
vn -0.787707 -0.489178 -0.374464
v -14.1827 5.31352 27.3688
vn -0.580468 -0.766398 -0.27512
v -14.1591 5.36846 27.3801
vn 0.631992 0.71198 0.306055
v -14.2735 5.52019 27.3252
vn 0.815873 0.422986 0.394251
v -14.3344 5.7061 27.2961
vn 0.897531 0.0809642 0.433454
v -14.3344 5.90388 27.2961
vn 0.866234 -0.27118 0.419642
v -14.2735 6.08979 27.3252
vn 0.727189 -0.589359 0.351925
v -14.1591 6.24151 27.3801
vn 0.496566 -0.833742 0.241447
v -4.58839 6.43491 8.26062
vn -0.00665105 0.999956 -0.00667667
v -4.7936 6.39237 8.16227
vn -0.346679 0.922655 -0.168885
v -4.97109 6.2705 8.07721
vn -0.631323 0.712813 -0.305498
v -5.09689 6.08577 8.01692
vn -0.819462 0.414635 -0.395676
v -5.15402 5.86311 7.98954
vn -0.898904 0.0618677 -0.433757
v -5.13476 5.6326 7.99877
vn -0.85935 -0.299076 -0.414814
v -5.04171 5.42537 8.04337
vn -0.705837 -0.620756 -0.341256
v -4.88743 5.26942 8.1173
vn -0.458916 -0.860057 -0.222929
v -4.69277 5.18579 8.21059
vn -0.161655 -0.983528 -0.0808744
v -4.48401 5.18579 8.31064
vn 0.238672 -0.964658 0.111672
v -4.28935 5.26942 8.40393
vn 0.549142 -0.79413 0.260386
v -4.13507 5.42537 8.47787
vn 0.769044 -0.524226 0.36573
v -4.04202 5.6326 8.52246
vn 0.887361 -0.184869 0.422391
v -4.02276 5.86311 8.53169
vn 0.888365 0.178935 0.422835
v -4.07989 6.08577 8.50431
vn 0.771978 0.518983 0.367023
v -4.20569 6.2705 8.44402
vn 0.55362 0.790367 0.262344
v -4.38318 6.39237 8.35896
vn 0.313546 0.938254 0.14618
v -4.58839 5.23412 8.26062
vn -0.00045537 0.999994 -0.00350237
v -4.40242 5.27267 8.34974
vn -0.354046 0.919127 -0.172795
v -4.24157 5.38311 8.42683
vn -0.634716 0.708788 -0.307825
v -4.12756 5.55053 8.48147
vn -0.820072 0.412522 -0.396621
v -4.07578 5.75231 8.50628
vn -0.898632 0.0624198 -0.43424
v -4.09324 5.96121 8.49791
vn -0.860042 -0.295804 -0.415725
v -4.17757 6.14901 8.4575
vn -0.709443 -0.615363 -0.343537
v -4.31738 6.29035 8.39049
vn -0.466334 -0.854982 -0.227019
v -4.4938 6.36613 8.30595
vn -0.16907 -0.981972 -0.0845335
v -4.68298 6.36613 8.21528
vn 0.241702 -0.963702 0.113394
v -4.8594 6.29035 8.13074
vn 0.552704 -0.791425 0.261084
v -4.99921 6.14901 8.06374
vn 0.770065 -0.523005 0.365329
v -5.08354 5.96121 8.02332
vn 0.887378 -0.186538 0.421621
v -5.101 5.75231 8.01496
vn 0.889389 0.174222 0.42265
v -5.04922 5.55053 8.03977
vn 0.77584 0.512282 0.368293
v -4.93521 5.38311 8.09441
vn 0.561572 0.78362 0.265662
v -4.77436 5.27267 8.17149
vn 0.306157 0.941185 0.142966
v -4.55436 5.49003 8.18961
vn 0.411116 0.308202 -0.857902
v -4.59572 5.49338 8.16979
vn 0.452068 0.169681 -0.875696
v -4.63619 5.50338 8.15039
vn 0.486312 0.224411 -0.844476
v -4.67492 5.51981 8.13183
vn 0.495044 0.154058 -0.855101
v -4.71108 5.54231 8.1145
vn 0.541731 0.19375 -0.817917
v -4.7439 5.57041 8.09878
vn 0.498876 0.0861852 -0.862377
v -4.77268 5.60351 8.08498
vn 0.580288 0.155467 -0.799435
v -4.79681 5.64091 8.07342
vn 0.595551 0.118199 -0.794574
v -4.81577 5.6818 8.06433
vn 0.617938 0.0870087 -0.781397
v -4.82915 5.72532 8.05792
vn 0.576838 0.0394901 -0.815904
v -4.83669 5.77054 8.05431
vn 0.569948 0.0174926 -0.821495
v -4.8382 5.81649 8.05358
vn 0.580966 -0.00210852 -0.813925
v -4.83366 5.8622 8.05576
vn 0.684444 -0.0559571 -0.726915
v -4.82318 5.90668 8.06078
vn 0.571404 -0.0595631 -0.818504
v -4.80696 5.949 8.06855
vn 0.606931 -0.113087 -0.786667
v -4.78536 5.98825 8.07891
vn 0.549758 -0.10356 -0.828879
v -4.75883 6.02359 8.09162
vn 0.569627 -0.168071 -0.804536
v -4.72795 6.05428 8.10642
vn 0.517595 -0.138806 -0.844292
v -4.69337 6.07965 8.12299
vn 0.519587 -0.208775 -0.828518
v -4.65582 6.09916 8.14098
vn 0.477636 -0.162256 -0.863445
v -4.61612 6.11241 8.16001
vn 0.461182 -0.231759 -0.856504
v -4.57509 6.11911 8.17967
vn 0.433308 -0.171966 -0.884688
v -4.53363 6.11911 8.19955
vn 0.410628 -0.171377 -0.895553
v -4.4926 6.11241 8.21921
vn 0.368542 -0.229231 -0.900905
v -4.4529 6.09916 8.23824
vn 0.366741 -0.159294 -0.916584
v -4.41535 6.07965 8.25623
vn 0.356029 -0.139473 -0.924008
v -4.38077 6.05428 8.2728
vn 0.333836 -0.138794 -0.932357
v -4.34989 6.02359 8.2876
vn 0.210984 -0.213892 -0.953801
v -4.32336 5.98825 8.30031
vn 0.297266 -0.0967318 -0.949882
v -4.30176 5.949 8.31066
vn 0.298357 -0.0731228 -0.951649
v -4.28554 5.90668 8.31844
vn 0.28004 -0.0595725 -0.958138
v -4.27506 5.8622 8.32346
vn 0.211509 -0.0485544 -0.976169
v -4.27052 5.81649 8.32564
vn 0.270735 -0.0104911 -0.962597
v -4.27204 5.77054 8.32491
vn 0.20771 0.0201199 -0.977984
v -4.27957 5.72532 8.3213
vn 0.274554 0.0394263 -0.960763
v -4.29296 5.6818 8.31489
vn 0.221952 0.0870641 -0.971163
v -4.31192 5.64091 8.3058
vn 0.291254 0.0860761 -0.952765
v -4.33604 5.60351 8.29424
vn 0.252966 0.146633 -0.956299
v -4.36482 5.57041 8.28044
vn 0.319333 0.125409 -0.939308
v -4.39764 5.54231 8.26472
vn 0.29808 0.193691 -0.934683
v -4.4338 5.51981 8.24739
vn 0.356474 0.154075 -0.921513
v -4.47253 5.50338 8.22882
vn 0.353629 0.224444 -0.908059
v -4.51301 5.49338 8.20943
vn 0.399341 0.169673 -0.900965
v -4.55436 6.41522 8.18961
vn 0.403538 0.358118 -0.841967
v -4.60747 6.41237 8.16416
vn 0.363578 0.368991 -0.855369
v -4.66009 6.40385 8.13894
vn 0.363486 0.270395 -0.891496
v -4.71172 6.38974 8.1142
vn 0.340193 0.263666 -0.902635
v -4.76188 6.37017 8.09016
vn 0.269996 0.341664 -0.900204
v -4.8101 6.34532 8.06705
vn 0.295929 0.242674 -0.92387
v -4.85594 6.31543 8.04508
vn 0.275338 0.228788 -0.933726
v -4.89895 6.28077 8.02447
vn 0.187384 0.285743 -0.939808
v -4.93876 6.24167 8.00539
vn 0.238352 0.194684 -0.951466
v -4.97497 6.19849 7.98804
vn 0.222173 0.174814 -0.959208
v -5.00725 6.15164 7.97257
vn 0.122626 0.206023 -0.970833
v -5.03531 6.10155 7.95912
vn 0.195545 0.130473 -0.971977
v -5.05888 6.04869 7.94783
vn 0.185167 0.10629 -0.976942
v -5.07773 5.99356 7.93879
vn 0.0811017 0.109073 -0.99072
v -5.0917 5.93667 7.9321
vn 0.171058 0.0552492 -0.983711
v -5.10065 5.87854 7.92781
vn 0.167384 0.0289264 -0.985467
v -5.10451 5.81973 7.92596
vn 0.0663286 0.00299701 -0.997793
v -5.10322 5.76078 7.92658
vn 0.16703 -0.0245082 -0.985647
v -5.09681 5.70225 7.92965
vn 0.170288 -0.0509079 -0.984078
v -5.08534 5.64467 7.93515
vn 0.0795485 -0.103334 -0.991461
v -5.06891 5.58859 7.94302
vn 0.183666 -0.102151 -0.977667
v -5.04767 5.53453 7.9532
vn 0.193647 -0.126521 -0.972879
v -5.02183 5.483 7.96558
vn 0.119602 -0.201048 -0.972253
v -4.99162 5.43447 7.98006
vn 0.219697 -0.171369 -0.960399
v -4.95733 5.38941 7.99649
vn 0.235549 -0.191557 -0.952797
v -4.91928 5.34822 8.01473
vn 0.263494 -0.192824 -0.945193
v -4.87782 5.3113 8.03459
vn 0.213647 -0.28966 -0.93298
v -4.83334 5.27898 8.05591
vn 0.292412 -0.240543 -0.925545
v -4.78626 5.25158 8.07847
vn 0.265042 -0.339326 -0.902558
v -4.73701 5.22934 8.10208
vn 0.336427 -0.262234 -0.904461
v -4.68606 5.21248 8.1265
vn 0.359553 -0.269473 -0.893368
v -4.63387 5.20115 8.1515
vn 0.358194 -0.368338 -0.857918
v -4.58095 5.19546 8.17687
vn 0.407308 -0.276326 -0.870485
v -4.52777 5.19546 8.20235
vn 0.432674 -0.188109 -0.881708
v -4.47485 5.20115 8.22772
vn 0.442631 -0.465647 -0.766322
v -4.42266 5.21248 8.25272
vn 0.478804 -0.267348 -0.836225
v -4.37171 5.22934 8.27714
vn 0.501952 -0.259231 -0.825132
v -4.32246 5.25158 8.30075
vn 0.515525 -0.233636 -0.824408
v -4.27538 5.27898 8.32331
vn 0.567205 -0.308684 -0.76354
v -4.2309 5.3113 8.34462
vn 0.565049 -0.221066 -0.794889
v -4.18944 5.34822 8.36449
vn 0.571693 -0.192847 -0.797482
v -4.15139 5.38941 8.38273
vn 0.640013 -0.243854 -0.728642
v -4.1171 5.43447 8.39916
vn 0.615828 -0.164296 -0.77056
v -4.08689 5.483 8.41364
vn 0.688568 -0.190865 -0.699603
v -4.06105 5.53453 8.42602
vn 0.576691 -0.0834241 -0.812692
v -4.03982 5.58859 8.4362
vn 0.705424 -0.127024 -0.697311
v -4.02338 5.64467 8.44407
vn 0.725795 -0.0918123 -0.681757
v -4.01191 5.70225 8.44957
vn 0.661725 -0.0421266 -0.748563
v -4.0055 5.76078 8.45264
vn 0.593811 -0.0136024 -0.80449
v -4.00422 5.81973 8.45326
vn 0.736192 0.00301077 -0.676766
v -4.00807 5.87854 8.45141
vn 0.724097 0.0431056 -0.688349
v -4.01702 5.93667 8.44712
vn 0.657856 0.0640258 -0.750418
v -4.03099 5.99356 8.44043
vn 0.638559 0.0796024 -0.765445
v -4.04984 6.04869 8.43139
vn 0.645493 0.106271 -0.756336
v -4.07341 6.10155 8.4201
vn 0.685719 0.174054 -0.706749
v -4.10147 6.15164 8.40665
vn 0.673807 0.215854 -0.706676
v -4.13375 6.19849 8.39118
vn 0.554218 0.121502 -0.823456
v -4.16997 6.24167 8.37383
vn 0.592309 0.194697 -0.781833
v -4.20977 6.28077 8.35475
vn 0.615156 0.285763 -0.734794
v -4.25279 6.31543 8.33414
vn 0.580481 0.299561 -0.757169
v -4.29862 6.34532 8.31217
vn 0.527621 0.246799 -0.812838
v -4.34684 6.37017 8.28906
vn 0.505203 0.238562 -0.829372
v -4.397 6.38974 8.26502
vn 0.495859 0.343155 -0.797727
v -4.44863 6.40385 8.24028
vn 0.459255 0.2721 -0.845604
v -4.50125 6.41237 8.21506
vn 0.440012 0.256381 -0.860615
v -4.58839 5.49003 8.26062
vn -0.426592 0.159898 0.890198
v -4.62975 5.49338 8.2408
vn -0.406921 0.170905 0.897333
v -4.67022 5.50338 8.2214
vn -0.363602 0.227761 0.903282
v -4.70895 5.51981 8.20284
vn -0.36324 0.157624 0.918265
v -4.74511 5.54231 8.18551
vn -0.306836 0.200116 0.930487
v -4.77793 5.57041 8.16978
vn -0.284353 0.168973 0.943712
v -4.80671 5.60351 8.15599
vn -0.25291 0.146593 0.95632
v -4.83083 5.64091 8.14443
vn -0.340226 0.0603192 0.938407
v -4.84979 5.6818 8.13534
vn -0.226001 0.0976117 0.969224
v -4.86318 5.72532 8.12893
vn -0.276509 0.0475741 0.959833
v -4.87071 5.77054 8.12532
vn -0.134854 0.0337331 0.990291
v -4.87223 5.81649 8.12459
vn -0.270733 -0.0104487 0.962598
v -4.86769 5.8622 8.12676
vn -0.284825 -0.0290536 0.958139
v -4.85721 5.90668 8.13179
vn -0.277593 -0.0516123 0.959311
v -4.84099 5.949 8.13956
vn -0.228185 -0.102846 0.968171
v -4.81939 5.98825 8.14991
vn -0.297296 -0.0967714 0.949869
v -4.79286 6.02359 8.16263
vn -0.26305 -0.159749 0.951465
v -4.76198 6.05428 8.17743
vn -0.327844 -0.133649 0.935231
v -4.7274 6.07965 8.194
vn -0.31119 -0.203117 0.928388
v -4.68985 6.09916 8.21199
vn -0.366736 -0.159301 0.916585
v -4.65015 6.11241 8.23102
vn -0.368534 -0.229256 0.900902
v -4.60912 6.11911 8.25068
vn -0.410589 -0.171381 0.89557
v -4.56766 6.11911 8.27055
vn -0.433269 -0.171988 0.884702
v -4.52663 6.11241 8.29021
vn -0.461183 -0.231761 0.856503
v -4.48693 6.09916 8.30924
vn -0.47767 -0.162243 0.863428
v -4.44938 6.07965 8.32724
vn -0.547152 -0.268831 0.792688
v -4.4148 6.05428 8.34381
vn -0.523595 -0.133671 0.841416
v -4.38392 6.02359 8.35861
vn -0.530424 -0.110997 0.840434
v -4.35739 5.98825 8.37132
vn -0.549752 -0.103596 0.828879
v -4.33579 5.949 8.38167
vn -0.658313 -0.140997 0.739421
v -4.31957 5.90668 8.38944
vn -0.573859 -0.0515665 0.817329
v -4.30909 5.8622 8.39447
vn -0.63028 -0.0372156 0.775475
v -4.30455 5.81649 8.39664
vn -0.580974 -0.00207716 0.813919
v -4.30607 5.77054 8.39592
vn -0.631029 0.0316022 0.775115
v -4.3136 5.72532 8.39231
vn -0.574923 0.0475987 0.816822
v -4.32699 5.6818 8.38589
vn -0.613886 0.0975955 0.783339
v -4.34594 5.64091 8.37681
vn -0.556241 0.0932145 0.825776
v -4.37007 5.60351 8.36524
vn -0.580291 0.155479 0.79943
v -4.39885 5.57041 8.35145
vn -0.526492 0.130985 0.840029
v -4.43167 5.54231 8.33572
vn -0.533061 0.200107 0.822073
v -4.46783 5.51981 8.31839
vn -0.488194 0.157628 0.858382
v -4.50656 5.50338 8.29983
vn -0.476288 0.227779 0.849274
v -4.54704 5.49338 8.28044
vn -0.444527 0.170891 0.879313
v -4.58839 6.41522 8.26062
vn -0.424468 0.188344 0.885637
v -4.53528 6.41237 8.28607
vn -0.340397 0.4683 0.815368
v -4.48266 6.40385 8.31129
vn -0.363494 0.270367 0.891501
v -4.43103 6.38974 8.33603
vn -0.375887 0.180482 0.90892
v -4.38087 6.37017 8.36007
vn -0.221359 0.435771 0.872413
v -4.33265 6.34532 8.38318
vn -0.295954 0.242661 0.923865
v -4.28682 6.31543 8.40514
vn -0.331353 0.157532 0.930263
v -4.2438 6.28077 8.42576
vn -0.195786 0.293256 0.935772
v -4.204 6.24167 8.44483
vn -0.244108 0.200904 0.948709
v -4.16778 6.19849 8.46219
vn -0.156683 0.230916 0.960275
v -4.1355 6.15164 8.47766
vn -0.1226 0.206048 0.970831
v -4.10744 6.10155 8.49111
vn -0.27602 0.0914984 0.956787
v -4.08387 6.04869 8.5024
vn -0.188377 0.114474 0.975402
v -4.06502 5.99356 8.51144
vn 0.0222233 0.145405 0.989123
v -4.05105 5.93667 8.51813
vn -0.17105 0.055304 0.983709
v -4.0421 5.87854 8.52242
vn -0.255836 0.0226978 0.966454
v -4.03825 5.81973 8.52427
vn -0.0666097 0.014954 0.997667
v -4.03953 5.76078 8.52365
vn -0.0814495 -0.0259107 0.996341
v -4.04594 5.70225 8.52058
vn -0.170253 -0.0509397 0.984083
v -4.05741 5.64467 8.51508
vn -0.0795156 -0.103317 0.991465
v -4.07385 5.58859 8.50721
vn -0.265654 -0.0667792 0.961753
v -4.09508 5.53453 8.49703
vn -0.114034 -0.158751 0.980711
v -4.12092 5.483 8.48464
vn -0.119602 -0.201048 0.972253
v -4.15113 5.43447 8.47017
vn -0.219706 -0.171355 0.960399
v -4.18542 5.38941 8.45374
vn -0.30008 -0.128256 0.945253
v -4.22347 5.34822 8.4355
vn -0.0999413 -0.352281 0.930543
v -4.26493 5.3113 8.41563
vn -0.272025 -0.226241 0.935317
v -4.30941 5.27898 8.39432
vn -0.338347 -0.162328 0.926915
v -4.35649 5.25158 8.37175
vn -0.20253 -0.426759 0.881396
v -4.40574 5.22934 8.34815
vn -0.336378 -0.262224 0.904483
v -4.45669 5.21248 8.32373
vn -0.359533 -0.269459 0.89338
v -4.50888 5.20115 8.29872
vn -0.383988 -0.254957 0.88744
v -4.5618 5.19546 8.27336
vn -0.387895 -0.357688 0.849469
v -4.61498 5.19546 8.24788
vn -0.431392 -0.275884 0.858947
v -4.6679 5.20115 8.22251
vn -0.455035 -0.366631 0.811496
v -4.72009 5.21248 8.1975
vn -0.478916 -0.267309 0.836173
v -4.77104 5.22934 8.17308
vn -0.501865 -0.259275 0.825172
v -4.82029 5.25158 8.14948
vn -0.547262 -0.33429 0.767303
v -4.86737 5.27898 8.12692
vn -0.545193 -0.236023 0.804399
v -4.91185 5.3113 8.1056
vn -0.524292 -0.152353 0.837798
v -4.95331 5.34822 8.08573
vn -0.662721 -0.352256 0.660846
v -4.99136 5.38941 8.0675
vn -0.600573 -0.185045 0.777862
v -5.02565 5.43447 8.05107
vn -0.615833 -0.164307 0.770554
v -5.05586 5.483 8.03659
vn -0.688604 -0.190808 0.699584
v -5.0817 5.53453 8.0242
vn -0.640583 -0.118483 0.758693
v -5.10293 5.58859 8.01403
vn -0.649797 -0.093889 0.754287
v -5.11937 5.64467 8.00615
vn -0.725802 -0.09175 0.681758
v -5.13084 5.70225 8.00065
vn -0.661723 -0.0421269 0.748564
v -5.13725 5.76078 7.99758
vn -0.664226 -0.0155956 0.747369
v -5.13853 5.81973 7.99697
vn -0.735905 0.0149953 0.676919
v -5.13468 5.87854 7.99881
vn -0.662301 0.0377807 0.748284
v -5.12573 5.93667 8.0031
vn -0.657865 0.0639261 0.750418
v -5.11176 5.99356 8.0098
vn -0.718091 0.120429 0.685451
v -5.09291 6.04869 8.01883
vn -0.642263 0.114496 0.757884
v -5.06934 6.10155 8.03013
vn -0.631207 0.138254 0.763193
v -5.04128 6.15164 8.04357
vn -0.673795 0.215843 0.706691
v -5.009 6.19849 8.05905
vn -0.603292 0.181627 0.776563
v -4.97278 6.24167 8.0764
vn -0.586523 0.200959 0.784606
v -4.93298 6.28077 8.09547
vn -0.606745 0.293247 0.738828
v -4.88996 6.31543 8.11609
vn -0.548612 0.233686 0.802755
v -4.84413 6.34532 8.13806
vn -0.527621 0.246799 0.812838
v -4.79591 6.37017 8.16117
vn -0.522548 0.346134 0.779188
v -4.74575 6.38974 8.18521
vn -0.482766 0.266171 0.83432
v -4.69412 6.40385 8.20995
vn -0.459209 0.272107 0.845627
v -4.6415 6.41237 8.23516
vn -0.42822 0.370125 0.8244
v -12.7991 -70.1639 25.849
vn -0.426772 0.881275 -0.203026
v -12.8735 -70.2345 25.8299
vn 0.0116158 -0.0694736 0.997516
v -12.8735 -70.211 25.8299
vn -0.100609 0.0290921 0.994501
v -12.9495 -70.2345 25.8408
vn 0.371509 -0.0570853 0.926673
v -12.9495 -70.211 25.8408
vn 0.284203 0.0646471 0.956582
v -13.0156 -70.2345 25.8799
vn 0.669297 -0.0629195 0.740326
v -13.0156 -70.211 25.8799
vn 0.640693 0.064558 0.765078
v -13.0617 -70.258 25.9414
vn -0.012697 -0.9999 -0.00627224
v -13.0617 -70.2285 25.9414
vn 0.897721 0 0.440565
v -13.0617 -70.199 25.9414
vn 0.0583687 0.997898 0.028159
v -12.7991 -70.1952 25.849
vn -0.368559 0.016872 0.929451
v -12.7991 -70.2265 25.849
vn 0.403912 -0.893181 0.197695
v -12.8341 -70.2374 25.8362
vn 0.228217 -0.967377 0.109994
v -12.8726 -70.246 25.83
vn 0.177531 -0.980374 0.0857308
v -12.912 -70.2519 25.8317
vn 0.129955 -0.989444 0.0641197
v -12.9495 -70.2554 25.8408
vn 0.0868106 -0.995312 0.0426484
v -12.984 -70.2571 25.8569
vn 0.0668455 -0.997103 0.0362934
v -13.0156 -70.2578 25.8799
vn 0.667545 0 0.744569
v -13.042 -70.258 25.9089
vn 0.000954508 -1 4.50934e-05
v -13.042 -70.199 25.9089
vn 0.796819 0.0893056 0.597581
v -13.0156 -70.1988 25.8799
vn 0.667545 0 0.744569
v -12.984 -70.198 25.8569
vn -0.0721575 0.996886 -0.031802
v -12.9495 -70.196 25.8408
vn -0.0957313 0.994396 -0.0448509
v -12.9119 -70.1922 25.8316
vn -0.142414 0.987627 -0.0656538
v -12.8724 -70.1856 25.83
vn -0.174038 0.981307 -0.082139
v -12.8339 -70.1761 25.8362
vn -0.253203 0.959994 -0.119585
v -12.7991 -69.0922 25.849
vn -0.379996 -0.907065 -0.181207
v -12.8735 -69.0452 25.8299
vn -0.0642167 -0.024797 0.997628
v -12.8735 -69.0216 25.8299
vn -0.0256661 0.0890709 0.995695
v -12.9495 -69.0452 25.8408
vn 0.3592 -0.0645851 0.931023
v -12.9495 -69.0216 25.8408
vn 0.304893 0.057119 0.950672
v -13.0156 -69.0452 25.8799
vn 0.67109 -0.0805247 0.73699
v -13.0156 -69.0216 25.8799
vn 0.644661 0.0525943 0.762657
v -12.7991 -69.0297 25.849
vn 0.437255 0.873934 0.212245
v -12.7991 -69.061 25.849
vn -0.368547 -0.0168962 0.929456
v -13.0617 -69.0572 25.9414
vn 0.0632481 -0.997524 0.030738
v -13.0617 -69.0277 25.9414
vn 0.897718 0 0.440571
v -13.0617 -68.9982 25.9414
vn 0.00658411 0.999973 0.00331028
v -13.042 -68.9982 25.9089
vn 0.798225 0.070406 0.59823
v -13.0156 -68.9983 25.8799
vn 0.667545 0 0.744569
v -12.984 -68.9991 25.8569
vn 0.0668944 0.997095 0.0364149
v -12.9495 -69.0008 25.8408
vn 0.0867955 0.995315 0.0426046
v -12.912 -69.0043 25.8317
vn 0.129905 0.989476 0.0637327
v -12.8726 -69.0102 25.83
vn 0.168625 0.982395 0.0804046
v -12.8341 -69.0188 25.8362
vn 0.228252 0.967383 0.109866
v -12.8339 -69.0801 25.8362
vn -0.253211 -0.959995 -0.119553
v -12.8724 -69.0705 25.83
vn -0.196409 -0.976276 -0.0911543
v -12.9119 -69.064 25.8316
vn -0.142469 -0.987591 -0.0660773
v -12.9495 -69.0601 25.8408
vn -0.0957653 -0.994389 -0.0449496
v -12.984 -69.0582 25.8569
vn -0.0684036 -0.997209 -0.0299149
v -13.0156 -69.0574 25.8799
vn 0.667545 0 0.744569
v -13.042 -69.0572 25.9089
vn 0.000408856 -0.999999 0.00091426
v -13.7423 -70.258 27.3615
vn 0.893549 -0.118011 0.433178
v -13.7423 -70.199 27.3615
vn 0.893549 0.118011 0.433178
v -13.402 -70.199 26.6515
vn 0.873532 0.248325 0.418659
v -13.7423 -70.2285 27.3615
vn 0.89774 2.18416e-20 0.440526
v -13.402 -70.258 26.6515
vn 0.900038 -0.0621797 0.431354
v -13.7423 -69.0572 27.3615
vn 0.893549 -0.118011 0.433178
v -13.7423 -68.9982 27.3615
vn 0.893549 0.118011 0.433178
v -13.402 -69.0572 26.6515
vn 0.873532 -0.248325 0.418659
v -13.402 -68.9982 26.6515
vn 0.900038 0.0621797 0.431354
v -13.7423 -69.0277 27.3615
vn 0.897737 2.18411e-20 0.440532
v -14.0049 -70.1639 27.454
vn 0.448853 0.867128 0.215917
v -13.9305 -70.2345 27.473
vn 0.0122075 0.0717149 0.99735
v -13.9305 -70.211 27.473
vn -0.0997581 -0.0301579 0.994555
v -13.8544 -70.2345 27.4621
vn 0.371345 0.0580786 0.926677
v -13.8544 -70.211 27.4621
vn 0.283841 -0.0648879 0.956673
v -13.7883 -70.2345 27.423
vn 0.66955 0.0628228 0.740106
v -13.7883 -70.211 27.423
vn 0.640881 -0.0644668 0.764928
v -14.0049 -70.1952 27.454
vn -0.368202 -0.016762 0.929595
v -14.0049 -70.2265 27.454
vn -0.369361 -0.912743 -0.174565
v -13.9699 -70.2374 27.4668
vn -0.228503 -0.967429 -0.108941
v -13.9314 -70.246 27.473
vn -0.177617 -0.980463 -0.0845286
v -13.892 -70.2519 27.4713
vn -0.129365 -0.989761 -0.0603218
v -13.8544 -70.2554 27.4621
vn -0.0859864 -0.995483 -0.0402583
v -13.82 -70.2571 27.4461
vn -0.0458598 -0.998732 -0.0207557
v -13.7884 -70.2578 27.423
vn -0.0023142 -0.999889 0.0147246
v -13.762 -70.258 27.3941
vn 0.123749 -0.987674 0.0958457
v -13.762 -70.199 27.3941
vn 0.22046 0.961868 0.161887
v -13.7884 -70.1988 27.423
vn 0.0411716 0.998765 0.0278167
v -13.82 -70.198 27.4461
vn 0.0484848 0.998527 0.0243378
v -13.8544 -70.196 27.4621
vn 0.0964663 0.994218 0.0471728
v -13.8921 -70.1922 27.4713
vn 0.160324 0.983996 0.0777705
v -13.9316 -70.1856 27.473
vn 0.195725 0.975868 0.09682
v -13.97 -70.1761 27.4667
vn 0.252387 0.959835 0.12255
v -14.0049 -69.0922 27.454
vn 0.425172 -0.881292 0.206283
v -13.9305 -69.0452 27.473
vn -0.063489 0.0257011 0.997652
v -13.9305 -69.0216 27.473
vn -0.0248685 -0.0919508 0.995453
v -13.8544 -69.0452 27.4621
vn 0.358888 0.0648436 0.931125
v -13.8544 -69.0216 27.4621
vn 0.304688 -0.0580991 0.950679
v -13.7883 -69.0452 27.423
vn 0.67134 0.0804222 0.736773
v -13.7883 -69.0216 27.423
vn 0.644868 -0.0525099 0.762488
v -14.0049 -69.0297 27.454
vn -0.406937 0.893449 -0.190135
v -14.0049 -69.061 27.454
vn -0.36819 0.0167861 0.929599
v -13.762 -68.9982 27.3941
vn 0.129547 0.98666 0.0985864
v -13.7884 -68.9983 27.423
vn -0.00242218 0.99989 0.0146041
v -13.82 -68.9991 27.4461
vn -0.0399313 0.99905 -0.0174296
v -13.8544 -69.0008 27.4621
vn -0.0859958 0.995481 -0.0402856
v -13.892 -69.0043 27.4713
vn -0.12941 0.989734 -0.0606627
v -13.9314 -69.0102 27.473
vn -0.168315 0.982397 -0.0810332
v -13.9699 -69.0188 27.4668
vn -0.228471 0.967423 -0.109058
v -13.97 -69.0801 27.4667
vn 0.252378 -0.959833 0.122582
v -13.9316 -69.0705 27.473
vn 0.195748 -0.975893 0.0965167
v -13.8921 -69.064 27.4713
vn 0.14295 -0.987215 0.0705087
v -13.8544 -69.0601 27.4621
vn 0.0964318 -0.994226 0.0470722
v -13.82 -69.0582 27.4461
vn 0.0515388 -0.998336 0.0258576
v -13.7884 -69.0574 27.423
vn 0.0411716 -0.998765 0.0278167
v -13.762 -69.0572 27.3941
vn 0.22046 -0.961868 0.161887
v -12.6213 -69.1366 25.9342
vn 0.620686 0.724181 0.300517
v -12.4885 -69.3058 25.9978
vn 0.81167 0.433054 0.39199
v -12.4176 -69.5159 26.0318
vn 0.897693 0.0858206 0.432184
v -12.4176 -69.7402 26.0318
vn 0.866488 -0.272638 0.418172
v -12.4885 -69.9503 25.9978
vn 0.723222 -0.595651 0.349499
v -12.6213 -70.1195 25.9342
vn 0.48617 -0.841428 0.235877
v -12.6449 -70.0646 25.9229
vn -0.546462 0.796578 -0.25854
v -12.5305 -69.9129 25.9777
vn -0.762522 0.536143 -0.362093
v -12.4696 -69.727 26.0069
vn -0.883219 0.208749 -0.419937
v -12.4696 -69.5292 26.0069
vn -0.894014 -0.145091 -0.423897
v -12.5305 -69.3433 25.9777
vn -0.792117 -0.480543 -0.376336
v -12.6449 -69.1916 25.9229
vn -0.591873 -0.755683 -0.280409
v -14.1827 -69.1366 27.3688
vn -0.535393 0.805641 -0.25357
v -14.3155 -69.3058 27.3051
vn -0.758073 0.543611 -0.360295
v -14.3863 -69.5159 27.2712
vn -0.882309 0.211011 -0.42072
v -14.3863 -69.7402 27.2712
vn -0.892959 -0.148514 -0.424933
v -14.3155 -69.9503 27.3051
vn -0.787694 -0.489203 -0.374458
v -14.1827 -70.1195 27.3688
vn -0.580555 -0.766317 -0.275161
v -14.1591 -70.0646 27.3801
vn 0.632008 0.711963 0.306062
v -14.2735 -69.9129 27.3252
vn 0.815841 0.423063 0.394235
v -14.3344 -69.727 27.2961
vn 0.897531 0.0809628 0.433454
v -14.3344 -69.5292 27.2961
vn 0.866235 -0.271176 0.419644
v -14.2735 -69.3433 27.3252
vn 0.727205 -0.589335 0.351934
v -14.1591 -69.1916 27.3801
vn 0.49664 -0.833688 0.241482
v -4.58839 -68.9982 8.26062
vn -0.00664786 0.999956 -0.00667144
v -4.7936 -69.0407 8.16227
vn -0.346608 0.922688 -0.16885
v -4.97109 -69.1626 8.07721
vn -0.631302 0.712835 -0.30549
v -5.09689 -69.3473 8.01692
vn -0.819468 0.414618 -0.395681
v -5.15402 -69.57 7.98954
vn -0.898904 0.0618659 -0.433757
v -5.13476 -69.8005 7.99877
vn -0.859348 -0.299084 -0.414813
v -5.04171 -70.0077 8.04337
vn -0.705832 -0.620763 -0.341252
v -4.88743 -70.1637 8.1173
vn -0.459025 -0.859986 -0.222979
v -4.69277 -70.2473 8.21059
vn -0.161557 -0.983548 -0.0808269
v -4.48401 -70.2473 8.31064
vn 0.238682 -0.964655 0.111677
v -4.28935 -70.1637 8.40393
vn 0.549132 -0.794137 0.260384
v -4.13507 -70.0077 8.47787
vn 0.769059 -0.524199 0.365737
v -4.04202 -69.8005 8.52246
vn 0.887359 -0.184883 0.42239
v -4.02276 -69.57 8.53169
vn 0.888368 0.178922 0.422835
v -4.07989 -69.3473 8.50431
vn 0.771972 0.518997 0.367018
v -4.20569 -69.1626 8.44402
vn 0.553613 0.790374 0.262339
v -4.38318 -69.0407 8.35896
vn 0.313456 0.93829 0.146139
v -4.58839 -70.199 8.26062
vn -0.000551189 0.999994 -0.00354869
v -4.40242 -70.1604 8.34974
vn -0.354023 0.919137 -0.172786
v -4.24157 -70.05 8.42683
vn -0.634723 0.708779 -0.307829
v -4.12756 -69.8825 8.48147
vn -0.82007 0.412528 -0.396619
v -4.07578 -69.6808 8.50628
vn -0.898632 0.0624259 -0.43424
v -4.09324 -69.4719 8.49791
vn -0.860041 -0.295809 -0.415725
v -4.17757 -69.2841 8.4575
vn -0.709466 -0.615332 -0.343549
v -4.31738 -69.1427 8.39049
vn -0.466497 -0.854873 -0.227096
v -4.4938 -69.0669 8.30595
vn -0.169071 -0.981972 -0.0845312
v -4.68298 -69.0669 8.21528
vn 0.241784 -0.963677 0.113434
v -4.8594 -69.1427 8.13074
vn 0.55276 -0.791377 0.261111
v -4.99921 -69.2841 8.06374
vn 0.770085 -0.522968 0.365339
v -5.08354 -69.4719 8.02332
vn 0.887379 -0.186532 0.421621
v -5.101 -69.6808 8.01496
vn 0.889385 0.174247 0.422649
v -5.04922 -69.8825 8.03977
vn 0.775828 0.512304 0.368287
v -4.93521 -70.05 8.09441
vn 0.561582 0.783612 0.265665
v -4.77436 -70.1604 8.17149
vn 0.306295 0.94113 0.14303
v -4.55436 -69.943 8.18961
vn 0.411117 0.308192 -0.857905
v -4.59572 -69.9397 8.16979
vn 0.452013 0.169693 -0.875722
v -4.63619 -69.9297 8.15039
vn 0.486226 0.224427 -0.844522
v -4.67492 -69.9133 8.13183
vn 0.495024 0.154093 -0.855106
v -4.71108 -69.8908 8.1145
vn 0.541743 0.193774 -0.817903
v -4.7439 -69.8627 8.09878
vn 0.498878 0.0861871 -0.862376
v -4.77268 -69.8296 8.08498
vn 0.580267 0.155443 -0.799454
v -4.79681 -69.7922 8.07342
vn 0.595548 0.118181 -0.794579
v -4.81577 -69.7513 8.06433
vn 0.618139 0.0869915 -0.781241
v -4.82915 -69.7077 8.05792
vn 0.576814 0.0394716 -0.815921
v -4.83669 -69.6625 8.05431
vn 0.569933 0.017504 -0.821505
v -4.8382 -69.6166 8.05358
vn 0.580868 -0.00210875 -0.813995
v -4.83366 -69.5709 8.05576
vn 0.68449 -0.055962 -0.726871
v -4.82318 -69.5264 8.06078
vn 0.571393 -0.0595673 -0.818512
v -4.80696 -69.4841 8.06855
vn 0.60697 -0.113036 -0.786645
v -4.78536 -69.4448 8.07891
vn 0.549736 -0.103568 -0.828893
v -4.75883 -69.4095 8.09162
vn 0.569605 -0.168079 -0.804549
v -4.72795 -69.3788 8.10642
vn 0.517648 -0.138767 -0.844266
v -4.69337 -69.3534 8.12299
vn 0.519588 -0.208736 -0.828528
v -4.65582 -69.3339 8.14098
vn 0.477519 -0.162271 -0.863507
v -4.61612 -69.3207 8.16001
vn 0.461105 -0.231743 -0.85655
v -4.57509 -69.314 8.17967
vn 0.433309 -0.171932 -0.884694
v -4.53363 -69.314 8.19955
vn 0.410634 -0.171344 -0.895556
v -4.4926 -69.3207 8.21921
vn 0.368706 -0.229216 -0.900842
v -4.4529 -69.3339 8.23824
vn 0.366816 -0.159309 -0.916551
v -4.41535 -69.3534 8.25623
vn 0.356012 -0.139445 -0.924019
v -4.38077 -69.3788 8.2728
vn 0.333783 -0.138755 -0.932382
v -4.34989 -69.4095 8.2876
vn 0.211069 -0.213906 -0.953779
v -4.32336 -69.4448 8.30031
vn 0.297185 -0.0967381 -0.949907
v -4.30176 -69.4841 8.31066
vn 0.298368 -0.0730905 -0.951648
v -4.28554 -69.5264 8.31844
vn 0.280053 -0.0595767 -0.958134
v -4.27506 -69.5709 8.32346
vn 0.211436 -0.0485588 -0.976185
v -4.27052 -69.6166 8.32564
vn 0.270804 -0.0104921 -0.962577
v -4.27204 -69.6625 8.32491
vn 0.20776 0.0201333 -0.977973
v -4.27957 -69.7077 8.3213
vn 0.274583 0.0394077 -0.960756
v -4.29296 -69.7513 8.31489
vn 0.221704 0.0870468 -0.971221
v -4.31192 -69.7922 8.3058
vn 0.291252 0.0860631 -0.952767
v -4.33604 -69.8296 8.29424
vn 0.252995 0.146611 -0.956294
v -4.36482 -69.8627 8.28044
vn 0.31933 0.125412 -0.939308
v -4.39764 -69.8908 8.26472
vn 0.298062 0.193714 -0.934684
v -4.4338 -69.9133 8.24739
vn 0.356491 0.154111 -0.921501
v -4.47253 -69.9297 8.22882
vn 0.353719 0.22446 -0.90802
v -4.51301 -69.9397 8.20943
vn 0.399396 0.169685 -0.900938
v -4.55436 -69.0178 8.18961
vn 0.403551 0.358038 -0.841995
v -4.60747 -69.0207 8.16416
vn 0.363573 0.368938 -0.855394
v -4.66009 -69.0292 8.13894
vn 0.363556 0.270358 -0.891478
v -4.71172 -69.0433 8.1142
vn 0.340128 0.263646 -0.902665
v -4.76188 -69.0629 8.09016
vn 0.270118 0.341701 -0.900154
v -4.8101 -69.0877 8.06705
vn 0.295963 0.242693 -0.923854
v -4.85594 -69.1176 8.04508
vn 0.275262 0.228709 -0.933768
v -4.89895 -69.1523 8.02447
vn 0.187363 0.285677 -0.939832
v -4.93876 -69.1914 8.00539
vn 0.238324 0.194652 -0.951479
v -4.97497 -69.2346 7.98804
vn 0.222219 0.174874 -0.959186
v -5.00725 -69.2814 7.97257
vn 0.122607 0.206074 -0.970825
v -5.03531 -69.3315 7.95912
vn 0.195547 0.130399 -0.971986
v -5.05888 -69.3844 7.94783
vn 0.185186 0.106295 -0.976938
v -5.07773 -69.4395 7.93879
vn 0.0810744 0.109087 -0.99072
v -5.0917 -69.4964 7.9321
vn 0.171137 0.0552494 -0.983697
v -5.10065 -69.5545 7.92781
vn 0.167385 0.0289346 -0.985467
v -5.10451 -69.6133 7.92596
vn 0.0662719 0.00299591 -0.997797
v -5.10322 -69.6723 7.92658
vn 0.166998 -0.0245124 -0.985652
v -5.09681 -69.7308 7.92965
vn 0.17023 -0.0509154 -0.984088
v -5.08534 -69.7884 7.93515
vn 0.0795546 -0.103296 -0.991464
v -5.06891 -69.8445 7.94302
vn 0.183875 -0.102132 -0.977629
v -5.04767 -69.8985 7.9532
vn 0.193534 -0.126514 -0.972902
v -5.02183 -69.9501 7.96558
vn 0.119662 -0.201 -0.972255
v -4.99162 -69.9986 7.98006
vn 0.219619 -0.171368 -0.960417
v -4.95733 -70.0437 7.99649
vn 0.235504 -0.191515 -0.952817
v -4.91928 -70.0849 8.01473
vn 0.263509 -0.19283 -0.945188
v -4.87782 -70.1218 8.03459
vn 0.213726 -0.289709 -0.932947
v -4.83334 -70.1541 8.05591
vn 0.292421 -0.240576 -0.925534
v -4.78626 -70.1815 8.07847
vn 0.26516 -0.339403 -0.902494
v -4.73701 -70.2037 8.10208
vn 0.336349 -0.26228 -0.904477
v -4.68606 -70.2206 8.1265
vn 0.35958 -0.269478 -0.893355
v -4.63387 -70.2319 8.1515
vn 0.358202 -0.368378 -0.857898
v -4.58095 -70.2376 8.17687
vn 0.407294 -0.276324 -0.870492
v -4.52777 -70.2376 8.20235
vn 0.432688 -0.188108 -0.881701
v -4.47485 -70.2319 8.22772
vn 0.442557 -0.465695 -0.766336
v -4.42266 -70.2206 8.25272
vn 0.478872 -0.26735 -0.836185
v -4.37171 -70.2037 8.27714
vn 0.501908 -0.259279 -0.825144
v -4.32246 -70.1815 8.30075
vn 0.515466 -0.233689 -0.824429
v -4.27538 -70.1541 8.32331
vn 0.56717 -0.308726 -0.763549
v -4.2309 -70.1218 8.34462
vn 0.564991 -0.221103 -0.79492
v -4.18944 -70.0849 8.36449
vn 0.571679 -0.192853 -0.79749
v -4.15139 -70.0437 8.38273
vn 0.640091 -0.243798 -0.728592
v -4.1171 -69.9986 8.39916
vn 0.615806 -0.164299 -0.770577
v -4.08689 -69.9501 8.41364
vn 0.688674 -0.190807 -0.699515
v -4.06105 -69.8985 8.42602
vn 0.5767 -0.0834219 -0.812685
v -4.03982 -69.8445 8.4362
vn 0.705291 -0.127002 -0.697449
v -4.02338 -69.7884 8.44407
vn 0.725792 -0.0917787 -0.681764
v -4.01191 -69.7308 8.44957
vn 0.661712 -0.0421337 -0.748574
v -4.0055 -69.6723 8.45264
vn 0.593863 -0.0136047 -0.804451
v -4.00422 -69.6133 8.45326
vn 0.73623 0.00300967 -0.676724
v -4.00807 -69.5545 8.45141
vn 0.724083 0.0431181 -0.688364
v -4.01702 -69.4964 8.44712
vn 0.657841 0.0640249 -0.750431
v -4.03099 -69.4395 8.44043
vn 0.638552 0.0796137 -0.76545
v -4.04984 -69.3844 8.43139
vn 0.645478 0.106276 -0.756349
v -4.07341 -69.3315 8.4201
vn 0.685711 0.173958 -0.706781
v -4.10147 -69.2814 8.40665
vn 0.673723 0.215916 -0.706738
v -4.13375 -69.2346 8.39118
vn 0.554217 0.121543 -0.823451
v -4.16997 -69.1914 8.37383
vn 0.592337 0.194666 -0.78182
v -4.20977 -69.1523 8.35475
vn 0.615188 0.285697 -0.734793
v -4.25279 -69.1176 8.33414
vn 0.580565 0.29946 -0.757145
v -4.29862 -69.0877 8.31217
vn 0.527509 0.24682 -0.812905
v -4.34684 -69.0629 8.28906
vn 0.505171 0.238585 -0.829385
v -4.397 -69.0433 8.26502
vn 0.495909 0.34313 -0.797707
v -4.44863 -69.0292 8.24028
vn 0.459185 0.272063 -0.845654
v -4.50125 -69.0207 8.21506
vn 0.440071 0.256341 -0.860597
v -4.58839 -69.943 8.26062
vn -0.426593 0.159892 0.890198
v -4.62975 -69.9397 8.2408
vn -0.407033 0.170918 0.89728
v -4.67022 -69.9297 8.2214
vn -0.363645 0.227776 0.903261
v -4.70895 -69.9133 8.20284
vn -0.363293 0.157661 0.918238
v -4.74511 -69.8908 8.18551
vn -0.306819 0.20014 0.930487
v -4.77793 -69.8627 8.16978
vn -0.284349 0.168977 0.943712
v -4.80671 -69.8296 8.15599
vn -0.252939 0.146571 0.956315
v -4.83083 -69.7922 8.14443
vn -0.340228 0.0603101 0.938407
v -4.84979 -69.7513 8.13534
vn -0.225868 0.097595 0.969257
v -4.86318 -69.7077 8.12893
vn -0.276418 0.0475507 0.95986
v -4.87071 -69.6625 8.12532
vn -0.134888 0.0337554 0.990286
v -4.87223 -69.6166 8.12459
vn -0.270802 -0.0104497 0.962578
v -4.86769 -69.5709 8.12676
vn -0.284792 -0.0290566 0.958149
v -4.85721 -69.5264 8.13179
vn -0.277559 -0.0516155 0.959321
v -4.84099 -69.4841 8.13956
vn -0.228259 -0.102802 0.968158
v -4.81939 -69.4448 8.14991
vn -0.297214 -0.0967778 0.949894
v -4.79286 -69.4095 8.16263
vn -0.263156 -0.159759 0.951434
v -4.76198 -69.3788 8.17743
vn -0.327816 -0.133612 0.935246
v -4.7274 -69.3534 8.194
vn -0.311135 -0.203076 0.928415
v -4.68985 -69.3339 8.21199
vn -0.366811 -0.159316 0.916552
v -4.65015 -69.3207 8.23102
vn -0.368698 -0.229242 0.900839
v -4.60912 -69.314 8.25068
vn -0.410594 -0.171348 0.895574
v -4.56766 -69.314 8.27055
vn -0.43327 -0.171954 0.884708
v -4.52663 -69.3207 8.29021
vn -0.461106 -0.231745 0.856548
v -4.48693 -69.3339 8.30924
vn -0.477554 -0.162258 0.86349
v -4.44938 -69.3534 8.32724
vn -0.54719 -0.26878 0.792679
v -4.4148 -69.3788 8.34381
vn -0.523624 -0.133633 0.841403
v -4.38392 -69.4095 8.35861
vn -0.530385 -0.111003 0.840458
v -4.35739 -69.4448 8.37132
vn -0.54973 -0.103605 0.828893
v -4.33579 -69.4841 8.38167
vn -0.658304 -0.140936 0.739441
v -4.31957 -69.5264 8.38944
vn -0.573888 -0.0515697 0.817308
v -4.30909 -69.5709 8.39447
vn -0.6303 -0.0372195 0.775459
v -4.30455 -69.6166 8.39664
vn -0.580876 -0.00207739 0.81399
v -4.30607 -69.6625 8.39592
vn -0.631027 0.0316228 0.775116
v -4.3136 -69.7077 8.39231
vn -0.575001 0.0475753 0.816768
v -4.32699 -69.7513 8.38589
vn -0.613995 0.0975789 0.783255
v -4.34594 -69.7922 8.37681
vn -0.556234 0.0932007 0.825783
v -4.37007 -69.8296 8.36524
vn -0.580271 0.155456 0.799449
v -4.39885 -69.8627 8.35145
vn -0.526494 0.130988 0.840028
v -4.43167 -69.8908 8.33572
vn -0.533072 0.200131 0.82206
v -4.46783 -69.9133 8.31839
vn -0.48814 0.157664 0.858406
v -4.50656 -69.9297 8.29983
vn -0.476245 0.227793 0.849295
v -4.54704 -69.9397 8.28044
vn -0.444416 0.170903 0.879367
v -4.58839 -69.0178 8.26062
vn -0.424472 0.188297 0.885645
v -4.53528 -69.0207 8.28607
vn -0.340306 0.468237 0.815442
v -4.48266 -69.0292 8.31129
vn -0.363564 0.270331 0.891484
v -4.43103 -69.0433 8.33603
vn -0.375863 0.180468 0.908933
v -4.38087 -69.0629 8.36007
vn -0.221414 0.435811 0.872379
v -4.33265 -69.0877 8.38318
vn -0.295987 0.24268 0.92385
v -4.28682 -69.1176 8.40514
vn -0.331315 0.157477 0.930286
v -4.2438 -69.1523 8.42576
vn -0.195683 0.293183 0.935816
v -4.204 -69.1914 8.44483
vn -0.244109 0.200873 0.948715
v -4.16778 -69.2346 8.46219
vn -0.156677 0.230991 0.960258
v -4.1355 -69.2814 8.47766
vn -0.122581 0.206099 0.970823
v -4.10744 -69.3315 8.49111
vn -0.276036 0.091446 0.956787
v -4.08387 -69.3844 8.5024
vn -0.188293 0.114476 0.975418
v -4.06502 -69.4395 8.51144
vn 0.0222084 0.145426 0.98912
v -4.05105 -69.4964 8.51813
vn -0.171129 0.0553042 0.983695
v -4.0421 -69.5545 8.52242
vn -0.255847 0.0227042 0.966451
v -4.03825 -69.6133 8.52427
vn -0.0666697 0.0149492 0.997663
v -4.03953 -69.6723 8.52365
vn -0.0813337 -0.0259141 0.99635
v -4.04594 -69.7308 8.52058
vn -0.170195 -0.0509472 0.984092
v -4.05741 -69.7884 8.51508
vn -0.0795217 -0.10328 0.991468
v -4.07385 -69.8445 8.50721
vn -0.265756 -0.0667642 0.961726
v -4.09508 -69.8985 8.49703
vn -0.114013 -0.158746 0.980714
v -4.12092 -69.9501 8.48464
vn -0.119662 -0.201 0.972255
v -4.15113 -69.9986 8.47017
vn -0.219628 -0.171355 0.960417
v -4.18542 -70.0437 8.45374
vn -0.300034 -0.128227 0.945271
v -4.22347 -70.0849 8.4355
vn -0.0999693 -0.352294 0.930535
v -4.26493 -70.1218 8.41563
vn -0.272086 -0.226279 0.93529
v -4.30941 -70.1541 8.39432
vn -0.338363 -0.162351 0.926905
v -4.35649 -70.1815 8.37175
vn -0.202628 -0.42685 0.881329
v -4.40574 -70.2037 8.34815
vn -0.336299 -0.262269 0.904499
v -4.45669 -70.2206 8.32373
vn -0.359561 -0.269464 0.893367
v -4.50888 -70.2319 8.29872
vn -0.384021 -0.254987 0.887417
v -4.5618 -70.2376 8.27336
vn -0.387867 -0.357686 0.849482
v -4.61498 -70.2376 8.24788
vn -0.43142 -0.275882 0.858933
v -4.6679 -70.2319 8.22251
vn -0.454942 -0.366673 0.811529
v -4.72009 -70.2206 8.1975
vn -0.478984 -0.267312 0.836133
v -4.77104 -70.2037 8.17308
vn -0.501821 -0.259323 0.825183
v -4.82029 -70.1815 8.14948
vn -0.54721 -0.334362 0.767309
v -4.86737 -70.1541 8.12692
vn -0.545155 -0.236057 0.804415
v -4.91185 -70.1218 8.1056
vn -0.524252 -0.152379 0.837819
v -4.95331 -70.0849 8.08573
vn -0.662697 -0.352268 0.660863
v -4.99136 -70.0437 8.0675
vn -0.600652 -0.185003 0.777811
v -5.02565 -69.9986 8.05107
vn -0.615811 -0.16431 0.77057
v -5.05586 -69.9501 8.03659
vn -0.68871 -0.19075 0.699495
v -5.0817 -69.8985 8.0242
vn -0.64052 -0.118483 0.758746
v -5.10293 -69.8445 8.01403
vn -0.649729 -0.0938686 0.754348
v -5.11937 -69.7884 8.00615
vn -0.725799 -0.0917165 0.681765
v -5.13084 -69.7308 8.00065
vn -0.66171 -0.042134 0.748575
v -5.13725 -69.6723 7.99758
vn -0.66434 -0.0155977 0.747267
v -5.13853 -69.6133 7.99697
vn -0.735864 0.0149905 0.676963
v -5.13468 -69.5545 7.99881
vn -0.662278 0.0377917 0.748305
v -5.12573 -69.4964 8.0031
vn -0.65785 0.0639253 0.750431
v -5.11176 -69.4395 8.0098
vn -0.718053 0.120449 0.685487
v -5.09291 -69.3844 8.01883
vn -0.642328 0.114499 0.757829
v -5.06934 -69.3315 8.03013
vn -0.63118 0.138177 0.76323
v -5.04128 -69.2814 8.04357
vn -0.673711 0.215904 0.706753
v -5.009 -69.2346 8.05905
vn -0.603329 0.181685 0.77652
v -4.97278 -69.1914 8.0764
vn -0.586527 0.200928 0.784611
v -4.93298 -69.1523 8.09547
vn -0.606844 0.293174 0.738776
v -4.88996 -69.1176 8.11609
vn -0.548656 0.233607 0.802748
v -4.84413 -69.0877 8.13806
vn -0.527509 0.24682 0.812905
v -4.79591 -69.0629 8.16117
vn -0.522571 0.346162 0.779161
v -4.74575 -69.0433 8.18521
vn -0.482777 0.266152 0.83432
v -4.69412 -69.0292 8.20995
vn -0.459139 0.27207 0.845677
v -4.6415 -69.0207 8.23516
vn -0.428375 0.370071 0.824344
f 5//5 4//4 2//2
f 5//5 2//2 3//3
f 7//7 6//6 4//4
f 7//7 4//4 5//5
f 13//13 12//12 2//2
f 14//14 13//13 2//2
f 15//15 2//2 4//4
f 14//14 2//2 15//15
f 3//3 2//2 12//12
f 1//1 26//26 11//11
f 25//25 11//11 26//26
f 23//23 5//5 24//24
f 24//24 5//5 3//3
f 3//3 25//25 24//24
f 11//11 25//25 3//3
f 3//3 12//12 11//11
f 16//16 15//15 4//4
f 17//17 4//4 6//6
f 16//16 4//4 17//17
f 18//18 17//17 6//6
f 19//19 6//6 9//9
f 18//18 6//6 19//19
f 8//8 19//19 9//9
f 21//21 7//7 22//22
f 5//5 22//22 7//7
f 23//23 22//22 5//5
f 20//20 9//9 7//7
f 9//9 20//20 10//10
f 21//21 20//20 7//7
f 7//7 9//9 6//6
f 31//31 30//30 28//28
f 31//31 28//28 29//29
f 33//33 32//32 30//30
f 33//33 30//30 31//31
f 35//35 46//46 27//27
f 47//47 46//46 35//35
f 48//48 47//47 28//28
f 28//28 47//47 35//35
f 48//48 28//28 30//30
f 44//44 29//29 45//45
f 34//34 45//45 29//29
f 34//34 29//29 28//28
f 43//43 42//42 31//31
f 31//31 29//29 43//43
f 44//44 43//43 29//29
f 28//28 35//35 34//34
f 48//48 30//30 49//49
f 50//50 30//30 32//32
f 49//49 30//30 50//50
f 51//51 50//50 32//32
f 52//52 32//32 37//37
f 51//51 32//32 52//52
f 36//36 52//52 37//37
f 40//40 33//33 41//41
f 31//31 41//41 33//33
f 42//42 41//41 31//31
f 39//39 37//37 33//33
f 37//37 39//39 38//38
f 40//40 39//39 33//33
f 33//33 37//37 32//32
f 9//9 57//57 8//8
f 9//9 10//10 55//55
f 56//56 57//57 9//9
f 9//9 55//55 56//56
f 56//56 55//55 54//54
f 53//53 57//57 56//56
f 37//37 60//60 36//36
f 37//37 38//38 61//61
f 62//62 60//60 37//37
f 37//37 61//61 62//62
f 62//62 61//61 59//59
f 58//58 60//60 62//62
f 67//67 65//65 64//64
f 67//67 64//64 66//66
f 69//69 67//67 66//66
f 69//69 66//66 68//68
f 72//72 64//64 71//71
f 73//73 64//64 72//72
f 74//74 66//66 64//64
f 73//73 74//74 64//64
f 65//65 71//71 64//64
f 63//63 70//70 85//85
f 84//84 85//85 70//70
f 82//82 83//83 67//67
f 83//83 65//65 67//67
f 65//65 83//83 84//84
f 70//70 65//65 84//84
f 65//65 70//70 71//71
f 75//75 66//66 74//74
f 76//76 68//68 66//66
f 75//75 76//76 66//66
f 77//77 68//68 76//76
f 78//78 56//56 68//68
f 77//77 78//78 68//68
f 53//53 56//56 78//78
f 80//80 81//81 69//69
f 67//67 69//69 81//81
f 82//82 67//67 81//81
f 79//79 69//69 56//56
f 56//56 54//54 79//79
f 80//80 69//69 79//79
f 69//69 68//68 56//56
f 90//90 88//88 87//87
f 90//90 87//87 89//89
f 92//92 90//90 89//89
f 92//92 89//89 91//91
f 94//94 86//86 102//102
f 103//103 94//94 102//102
f 104//104 87//87 103//103
f 87//87 94//94 103//103
f 104//104 89//89 87//87
f 100//100 101//101 88//88
f 93//93 88//88 101//101
f 93//93 87//87 88//88
f 99//99 90//90 98//98
f 90//90 99//99 88//88
f 100//100 88//88 99//99
f 87//87 93//93 94//94
f 104//104 105//105 89//89
f 106//106 91//91 89//89
f 105//105 106//106 89//89
f 107//107 91//91 106//106
f 108//108 62//62 91//91
f 107//107 108//108 91//91
f 58//58 62//62 108//108
f 96//96 97//97 92//92
f 90//90 92//92 97//97
f 98//98 90//90 97//97
f 95//95 92//92 62//62
f 62//62 59//59 95//95
f 96//96 92//92 95//95
f 92//92 91//91 62//62
f 113//113 112//112 117//117
f 113//113 116//116 114//114
f 116//116 113//113 117//117
f 111//111 118//118 112//112
f 117//117 112//112 118//118
f 110//110 119//119 118//118
f 109//109 119//119 110//110
f 111//111 110//110 118//118
f 115//115 114//114 116//116
f 11//11 12//12 115//115
f 114//114 115//115 12//12
f 115//115 1//1 11//11
f 34//34 120//120 109//109
f 120//120 119//119 109//109
f 120//120 35//35 27//27
f 120//120 34//34 35//35
f 125//125 129//129 124//124
f 125//125 126//126 128//128
f 128//128 129//129 125//125
f 123//123 124//124 130//130
f 129//129 130//130 124//124
f 122//122 130//130 131//131
f 121//121 122//122 131//131
f 123//123 130//130 122//122
f 127//127 128//128 126//126
f 70//70 127//127 71//71
f 126//126 71//71 127//127
f 127//127 70//70 63//63
f 93//93 121//121 132//132
f 132//132 121//121 131//131
f 132//132 86//86 94//94
f 132//132 94//94 93//93
f 133//133 97//97 38//38
f 97//97 133//133 98//98
f 61//61 38//38 95//95
f 95//95 59//59 61//61
f 96//96 95//95 38//38
f 96//96 38//38 97//97
f 134//134 100//100 133//133
f 135//135 136//136 122//122
f 135//135 122//122 121//121
f 137//137 138//138 124//124
f 137//137 124//124 123//123
f 136//136 137//137 123//123
f 136//136 123//123 122//122
f 139//139 140//140 126//126
f 139//139 126//126 125//125
f 78//78 77//77 8//8
f 76//76 141//141 8//8
f 140//140 141//141 71//71
f 140//140 71//71 126//126
f 138//138 139//139 125//125
f 138//138 125//125 124//124
f 134//134 135//135 121//121
f 134//134 121//121 93//93
f 76//76 8//8 77//77
f 99//99 98//98 133//133
f 100//100 99//99 133//133
f 134//134 101//101 100//100
f 93//93 101//101 134//134
f 74//74 73//73 141//141
f 141//141 75//75 74//74
f 73//73 72//72 141//141
f 71//71 141//141 72//72
f 76//76 75//75 141//141
f 142//142 143//143 114//114
f 142//142 114//114 12//12
f 144//144 145//145 112//112
f 144//144 112//112 113//113
f 143//143 144//144 113//113
f 143//143 113//113 114//114
f 145//145 146//146 111//111
f 145//145 111//111 112//112
f 13//13 142//142 12//12
f 146//146 147//147 110//110
f 146//146 110//110 111//111
f 148//148 149//149 34//34
f 148//148 34//34 109//109
f 147//147 148//148 109//109
f 147//147 109//109 110//110
f 133//133 44//44 149//149
f 149//149 45//45 34//34
f 142//142 16//16 17//17
f 142//142 14//14 15//15
f 15//15 16//16 142//142
f 78//78 8//8 57//57
f 78//78 57//57 53//53
f 133//133 43//43 44//44
f 44//44 45//45 149//149
f 133//133 41//41 42//42
f 42//42 43//43 133//133
f 13//13 14//14 142//142
f 142//142 19//19 141//141
f 151//151 150//150 25//25
f 152//152 115//115 116//116
f 152//152 116//116 153//153
f 151//151 1//1 115//115
f 151//151 115//115 152//152
f 117//117 154//154 153//153
f 117//117 153//153 116//116
f 1//1 151//151 26//26
f 154//154 117//117 118//118
f 154//154 118//118 155//155
f 156//156 119//119 120//120
f 156//156 120//120 157//157
f 155//155 118//118 119//119
f 155//155 119//119 156//156
f 27//27 158//158 157//157
f 27//27 157//157 120//120
f 46//46 158//158 27//27
f 150//150 23//23 24//24
f 151//151 25//25 26//26
f 25//25 150//150 24//24
f 150//150 22//22 23//23
f 158//158 46//46 47//47
f 158//158 48//48 49//49
f 48//48 158//158 47//47
f 107//107 36//36 60//60
f 50//50 158//158 49//49
f 159//159 158//158 52//52
f 107//107 106//106 36//36
f 160//160 132//132 131//131
f 160//160 131//131 161//161
f 159//159 86//86 132//132
f 159//159 132//132 160//160
f 58//58 108//108 60//60
f 162//162 130//130 129//129
f 162//162 129//129 163//163
f 108//108 107//107 60//60
f 161//161 131//131 130//130
f 161//161 130//130 162//162
f 36//36 106//106 159//159
f 164//164 128//128 127//127
f 164//164 127//127 165//165
f 150//150 166//166 83//83
f 165//165 127//127 63//63
f 165//165 63//63 166//166
f 55//55 80//80 79//79
f 80//80 55//55 10//10
f 79//79 54//54 55//55
f 150//150 81//81 10//10
f 163//163 129//129 128//128
f 163//163 128//128 164//164
f 81//81 80//80 10//10
f 105//105 159//159 106//106
f 104//104 159//159 105//105
f 159//159 104//104 103//103
f 103//103 102//102 159//159
f 102//102 86//86 159//159
f 83//83 166//166 84//84
f 150//150 83//83 82//82
f 84//84 166//166 85//85
f 63//63 85//85 166//166
f 150//150 82//82 81//81
f 164//164 165//165 139//139
f 140//140 139//139 165//165
f 164//164 138//138 163//163
f 139//139 138//138 164//164
f 166//166 150//150 141//141
f 142//142 141//141 150//150
f 165//165 166//166 140//140
f 141//141 140//140 166//166
f 162//162 163//163 137//137
f 138//138 137//137 163//163
f 161//161 162//162 136//136
f 137//137 136//136 162//162
f 136//136 135//135 161//161
f 160//160 161//161 135//135
f 134//134 159//159 160//160
f 133//133 159//159 134//134
f 135//135 134//134 160//160
f 151//151 143//143 142//142
f 143//143 151//151 152//152
f 152//152 144//144 143//143
f 152//152 153//153 144//144
f 145//145 144//144 153//153
f 146//146 145//145 154//154
f 153//153 154//154 145//145
f 149//149 157//157 158//158
f 158//158 133//133 149//149
f 149//149 148//148 157//157
f 133//133 158//158 159//159
f 147//147 146//146 155//155
f 147//147 156//156 148//148
f 157//157 148//148 156//156
f 155//155 156//156 147//147
f 154//154 155//155 146//146
f 142//142 150//150 151//151
f 196//196 264//264 263//263
f 195//195 265//265 264//264
f 266//266 194//194 267//267
f 195//195 266//266 265//265
f 193//193 268//268 267//267
f 259//259 199//199 260//260
f 261//261 260//260 198//198
f 197//197 263//263 262//262
f 197//197 261//261 198//198
f 196//196 263//263 197//197
f 262//262 261//261 197//197
f 198//198 260//260 199//199
f 193//193 269//269 268//268
f 270//270 191//191 271//271
f 271//271 191//191 272//272
f 189//189 210//210 274//274
f 190//190 273//273 272//272
f 274//274 273//273 189//189
f 190//190 189//189 273//273
f 195//195 264//264 196//196
f 194//194 266//266 195//195
f 272//272 191//191 190//190
f 192//192 269//269 193//193
f 270//270 192//192 191//191
f 194//194 193//193 267//267
f 270//270 269//269 192//192
f 201//201 257//257 256//256
f 258//258 257//257 200//200
f 201//201 256//256 255//255
f 199//199 258//258 200//200
f 202//202 255//255 254//254
f 199//199 259//259 258//258
f 253//253 203//203 254//254
f 252//252 203//203 253//253
f 205//205 251//251 250//250
f 252//252 251//251 204//204
f 249//249 205//205 250//250
f 248//248 206//206 249//249
f 257//257 201//201 200//200
f 203//203 252//252 204//204
f 202//202 254//254 203//203
f 205//205 249//249 206//206
f 248//248 247//247 207//207
f 206//206 248//248 207//207
f 204//204 251//251 205//205
f 245//245 208//208 246//246
f 207//207 247//247 246//246
f 245//245 244//244 209//209
f 209//209 244//244 243//243
f 167//167 209//209 243//243
f 208//208 245//245 209//209
f 246//246 208//208 207//207
f 201//201 255//255 202//202
f 188//188 210//210 189//189
f 212//212 211//211 188//188
f 210//210 188//188 211//211
f 212//212 188//188 187//187
f 214//214 213//213 186//186
f 187//187 213//213 212//212
f 215//215 214//214 186//186
f 213//213 187//187 186//186
f 215//215 186//186 185//185
f 184//184 183//183 218//218
f 182//182 181//181 221//221
f 219//219 183//183 182//182
f 216//216 185//185 184//184
f 216//216 215//215 185//185
f 218//218 217//217 184//184
f 219//219 218//218 183//183
f 182//182 221//221 220//220
f 181//181 222//222 221//221
f 219//219 182//182 220//220
f 222//222 181//181 180//180
f 224//224 180//180 179//179
f 225//225 179//179 178//178
f 179//179 225//225 224//224
f 225//225 178//178 226//226
f 224//224 223//223 180//180
f 223//223 222//222 180//180
f 227//227 226//226 178//178
f 216//216 184//184 217//217
f 237//237 170//170 238//238
f 239//239 170//170 169//169
f 173//173 172//172 234//234
f 172//172 171//171 236//236
f 171//171 170//170 237//237
f 242//242 168//168 167//167
f 241//241 168//168 242//242
f 243//243 242//242 167//167
f 169//169 168//168 240//240
f 240//240 168//168 241//241
f 169//169 240//240 239//239
f 239//239 238//238 170//170
f 233//233 174//174 173//173
f 228//228 177//177 176//176
f 230//230 176//176 175//175
f 228//228 176//176 229//229
f 229//229 176//176 230//230
f 227//227 177//177 228//228
f 227//227 178//178 177//177
f 231//231 230//230 175//175
f 171//171 237//237 236//236
f 172//172 236//236 235//235
f 232//232 174//174 233//233
f 235//235 234//234 172//172
f 233//233 173//173 234//234
f 231//231 174//174 232//232
f 174//174 231//231 175//175
f 167//167 275//275 317//317
f 167//167 317//317 209//209
f 208//208 316//316 315//315
f 208//208 315//315 207//207
f 207//207 315//315 314//314
f 207//207 314//314 206//206
f 209//209 317//317 316//316
f 209//209 316//316 208//208
f 205//205 313//313 312//312
f 205//205 312//312 204//204
f 204//204 312//312 311//311
f 204//204 311//311 203//203
f 202//202 310//310 309//309
f 202//202 309//309 201//201
f 201//201 309//309 308//308
f 201//201 308//308 200//200
f 203//203 311//311 310//310
f 203//203 310//310 202//202
f 206//206 314//314 313//313
f 206//206 313//313 205//205
f 199//199 307//307 306//306
f 199//199 306//306 198//198
f 197//197 305//305 304//304
f 197//197 304//304 196//196
f 195//195 196//196 304//304
f 195//195 304//304 303//303
f 198//198 306//306 305//305
f 198//198 305//305 197//197
f 194//194 302//302 301//301
f 194//194 301//301 193//193
f 193//193 301//301 300//300
f 193//193 300//300 192//192
f 190//190 191//191 299//299
f 190//190 299//299 298//298
f 189//189 190//190 298//298
f 189//189 298//298 297//297
f 191//191 192//192 300//300
f 191//191 300//300 299//299
f 194//194 195//195 303//303
f 194//194 303//303 302//302
f 200//200 308//308 307//307
f 200//200 307//307 199//199
f 297//297 296//296 188//188
f 297//297 188//188 189//189
f 187//187 188//188 296//296
f 187//187 296//296 295//295
f 185//185 186//186 294//294
f 185//185 294//294 293//293
f 184//184 185//185 293//293
f 184//184 293//293 292//292
f 186//186 187//187 295//295
f 186//186 295//295 294//294
f 182//182 183//183 291//291
f 182//182 291//291 290//290
f 181//181 182//182 290//290
f 181//181 290//290 289//289
f 179//179 180//180 288//288
f 179//179 288//288 287//287
f 179//179 287//287 286//286
f 179//179 286//286 178//178
f 180//180 181//181 289//289
f 180//180 289//289 288//288
f 183//183 184//184 292//292
f 183//183 292//292 291//291
f 176//176 177//177 285//285
f 176//176 285//285 284//284
f 174//174 175//175 283//283
f 174//174 283//283 282//282
f 174//174 282//282 281//281
f 174//174 281//281 173//173
f 175//175 176//176 284//284
f 175//175 284//284 283//283
f 171//171 172//172 280//280
f 171//171 280//280 279//279
f 170//170 171//171 279//279
f 170//170 279//279 278//278
f 168//168 169//169 277//277
f 168//168 277//277 276//276
f 167//167 168//168 276//276
f 167//167 276//276 275//275
f 169//169 170//170 278//278
f 169//169 278//278 277//277
f 173//173 281//281 280//280
f 173//173 280//280 172//172
f 178//178 286//286 285//285
f 178//178 285//285 177//177
f 210//210 211//211 382//382
f 210//210 382//382 318//318
f 212//212 213//213 380//380
f 212//212 380//380 381//381
f 211//211 212//212 381//381
f 211//211 381//381 382//382
f 214//214 215//215 378//378
f 214//214 378//378 379//379
f 216//216 217//217 376//376
f 216//216 376//376 377//377
f 215//215 216//216 377//377
f 215//215 377//377 378//378
f 213//213 214//214 379//379
f 213//213 379//379 380//380
f 218//218 219//219 374//374
f 218//218 374//374 375//375
f 220//220 221//221 372//372
f 220//220 372//372 373//373
f 219//219 220//220 373//373
f 219//219 373//373 374//374
f 222//222 223//223 370//370
f 222//222 370//370 371//371
f 224//224 225//225 368//368
f 224//224 368//368 369//369
f 223//223 224//224 369//369
f 223//223 369//369 370//370
f 221//221 222//222 371//371
f 221//221 371//371 372//372
f 217//217 218//218 375//375
f 217//217 375//375 376//376
f 226//226 227//227 366//366
f 226//226 366//366 367//367
f 228//228 229//229 364//364
f 228//228 364//364 365//365
f 227//227 228//228 365//365
f 227//227 365//365 366//366
f 230//230 231//231 362//362
f 230//230 362//362 363//363
f 232//232 233//233 360//360
f 232//232 360//360 361//361
f 231//231 232//232 361//361
f 231//231 361//361 362//362
f 229//229 230//230 363//363
f 229//229 363//363 364//364
f 234//234 235//235 358//358
f 234//234 358//358 359//359
f 236//236 237//237 356//356
f 236//236 356//356 357//357
f 236//236 357//357 358//358
f 236//236 358//358 235//235
f 238//238 239//239 354//354
f 238//238 354//354 355//355
f 240//240 241//241 352//352
f 240//240 352//352 353//353
f 241//241 242//242 351//351
f 241//241 351//351 352//352
f 239//239 240//240 353//353
f 239//239 353//353 354//354
f 237//237 238//238 355//355
f 237//237 355//355 356//356
f 233//233 234//234 359//359
f 233//233 359//359 360//360
f 225//225 226//226 367//367
f 225//225 367//367 368//368
f 350//350 351//351 242//242
f 350//350 242//242 243//243
f 244//244 349//349 350//350
f 244//244 350//350 243//243
f 245//245 246//246 347//347
f 245//245 347//347 348//348
f 244//244 245//245 348//348
f 244//244 348//348 349//349
f 248//248 345//345 346//346
f 248//248 346//346 247//247
f 249//249 250//250 343//343
f 249//249 343//343 344//344
f 248//248 249//249 344//344
f 248//248 344//344 345//345
f 246//246 247//247 346//346
f 246//246 346//346 347//347
f 251//251 252//252 341//341
f 251//251 341//341 342//342
f 253//253 254//254 339//339
f 253//253 339//339 340//340
f 252//252 253//253 340//340
f 252//252 340//340 341//341
f 255//255 256//256 337//337
f 255//255 337//337 338//338
f 257//257 258//258 335//335
f 257//257 335//335 336//336
f 256//256 257//257 336//336
f 256//256 336//336 337//337
f 255//255 338//338 339//339
f 255//255 339//339 254//254
f 251//251 342//342 343//343
f 251//251 343//343 250//250
f 260//260 333//333 334//334
f 260//260 334//334 259//259
f 261//261 262//262 331//331
f 261//261 331//331 332//332
f 260//260 261//261 332//332
f 260//260 332//332 333//333
f 264//264 329//329 330//330
f 264//264 330//330 263//263
f 265//265 266//266 327//327
f 265//265 327//327 328//328
f 264//264 265//265 328//328
f 264//264 328//328 329//329
f 263//263 330//330 331//331
f 263//263 331//331 262//262
f 268//268 325//325 326//326
f 268//268 326//326 267//267
f 269//269 270//270 323//323
f 269//269 323//323 324//324
f 269//269 324//324 325//325
f 269//269 325//325 268//268
f 272//272 321//321 322//322
f 272//272 322//322 271//271
f 273//273 274//274 319//319
f 273//273 319//319 320//320
f 210//210 318//318 319//319
f 210//210 319//319 274//274
f 272//272 273//273 320//320
f 272//272 320//320 321//321
f 270//270 271//271 322//322
f 270//270 322//322 323//323
f 267//267 326//326 327//327
f 267//267 327//327 266//266
f 259//259 334//334 335//335
f 259//259 335//335 258//258
f 330//330 329//329 304//304
f 303//303 329//329 328//328
f 302//302 327//327 326//326
f 303//303 328//328 327//327
f 326//326 325//325 301//301
f 334//334 333//333 307//307
f 332//332 306//306 333//333
f 305//305 331//331 330//330
f 305//305 306//306 332//332
f 304//304 305//305 330//330
f 331//331 305//305 332//332
f 306//306 307//307 333//333
f 301//301 325//325 324//324
f 323//323 322//322 299//299
f 322//322 321//321 299//299
f 297//297 319//319 318//318
f 298//298 321//321 320//320
f 319//319 297//297 320//320
f 298//298 320//320 297//297
f 303//303 304//304 329//329
f 302//302 303//303 327//327
f 321//321 298//298 299//299
f 300//300 301//301 324//324
f 323//323 299//299 300//300
f 302//302 326//326 301//301
f 323//323 300//300 324//324
f 309//309 337//337 336//336
f 335//335 308//308 336//336
f 309//309 338//338 337//337
f 307//307 308//308 335//335
f 310//310 339//339 338//338
f 307//307 335//335 334//334
f 340//340 339//339 311//311
f 341//341 340//340 311//311
f 312//312 342//342 341//341
f 343//343 313//313 344//344
f 342//342 313//313 343//343
f 314//314 345//345 344//344
f 336//336 308//308 309//309
f 311//311 312//312 341//341
f 310//310 311//311 339//339
f 313//313 314//314 344//344
f 345//345 315//315 346//346
f 314//314 315//315 345//345
f 312//312 313//313 342//342
f 348//348 347//347 316//316
f 315//315 347//347 346//346
f 348//348 317//317 349//349
f 317//317 350//350 349//349
f 275//275 350//350 317//317
f 316//316 317//317 348//348
f 347//347 315//315 316//316
f 309//309 310//310 338//338
f 296//296 297//297 318//318
f 381//381 296//296 382//382
f 318//318 382//382 296//296
f 381//381 295//295 296//296
f 379//379 294//294 380//380
f 295//295 381//381 380//380
f 378//378 294//294 379//379
f 380//380 294//294 295//295
f 378//378 293//293 294//294
f 292//292 375//375 291//291
f 290//290 372//372 289//289
f 374//374 290//290 291//291
f 377//377 292//292 293//293
f 377//377 293//293 378//378
f 375//375 292//292 376//376
f 374//374 291//291 375//375
f 290//290 373//373 372//372
f 371//371 289//289 372//372
f 290//290 374//374 373//373
f 288//288 289//289 371//371
f 369//369 287//287 288//288
f 368//368 286//286 287//287
f 369//369 368//368 287//287
f 368//368 367//367 286//286
f 370//370 369//369 288//288
f 370//370 288//288 371//371
f 366//366 286//286 367//367
f 377//377 376//376 292//292
f 356//356 355//355 278//278
f 354//354 277//277 278//278
f 281//281 359//359 280//280
f 280//280 357//357 279//279
f 279//279 356//356 278//278
f 351//351 275//275 276//276
f 352//352 351//351 276//276
f 350//350 275//275 351//351
f 353//353 276//276 277//277
f 353//353 352//352 276//276
f 353//353 277//277 354//354
f 354//354 278//278 355//355
f 360//360 281//281 282//282
f 365//365 284//284 285//285
f 363//363 283//283 284//284
f 284//284 365//365 364//364
f 364//364 363//363 284//284
f 365//365 285//285 366//366
f 366//366 285//285 286//286
f 362//362 283//283 363//363
f 280//280 358//358 357//357
f 357//357 356//356 279//279
f 361//361 360//360 282//282
f 280//280 359//359 358//358
f 281//281 360//360 359//359
f 361//361 282//282 362//362
f 282//282 283//283 362//362
f 387//387 386//386 384//384
f 387//387 384//384 385//385
f 389//389 388//388 386//386
f 389//389 386//386 387//387
f 395//395 394//394 384//384
f 396//396 395//395 384//384
f 397//397 384//384 386//386
f 396//396 384//384 397//397
f 385//385 384//384 394//394
f 383//383 408//408 393//393
f 407//407 393//393 408//408
f 405//405 387//387 406//406
f 406//406 387//387 385//385
f 385//385 407//407 406//406
f 393//393 407//407 385//385
f 385//385 394//394 393//393
f 398//398 397//397 386//386
f 399//399 386//386 388//388
f 398//398 386//386 399//399
f 400//400 399//399 388//388
f 401//401 388//388 391//391
f 400//400 388//388 401//401
f 390//390 401//401 391//391
f 403//403 389//389 404//404
f 387//387 404//404 389//389
f 405//405 404//404 387//387
f 402//402 391//391 389//389
f 391//391 402//402 392//392
f 403//403 402//402 389//389
f 389//389 391//391 388//388
f 413//413 412//412 410//410
f 413//413 410//410 411//411
f 415//415 414//414 412//412
f 415//415 412//412 413//413
f 417//417 428//428 409//409
f 429//429 428//428 417//417
f 430//430 429//429 410//410
f 410//410 429//429 417//417
f 430//430 410//410 412//412
f 426//426 411//411 427//427
f 416//416 427//427 411//411
f 416//416 411//411 410//410
f 425//425 424//424 413//413
f 413//413 411//411 425//425
f 426//426 425//425 411//411
f 410//410 417//417 416//416
f 430//430 412//412 431//431
f 432//432 412//412 414//414
f 431//431 412//412 432//432
f 433//433 432//432 414//414
f 434//434 414//414 419//419
f 433//433 414//414 434//434
f 418//418 434//434 419//419
f 422//422 415//415 423//423
f 413//413 423//423 415//415
f 424//424 423//423 413//413
f 421//421 419//419 415//415
f 419//419 421//421 420//420
f 422//422 421//421 415//415
f 415//415 419//419 414//414
f 391//391 439//439 390//390
f 391//391 392//392 437//437
f 438//438 439//439 391//391
f 391//391 437//437 438//438
f 438//438 437//437 436//436
f 435//435 439//439 438//438
f 419//419 442//442 418//418
f 419//419 420//420 443//443
f 444//444 442//442 419//419
f 419//419 443//443 444//444
f 444//444 443//443 441//441
f 440//440 442//442 444//444
f 449//449 447//447 446//446
f 449//449 446//446 448//448
f 451//451 449//449 448//448
f 451//451 448//448 450//450
f 454//454 446//446 453//453
f 455//455 446//446 454//454
f 456//456 448//448 446//446
f 455//455 456//456 446//446
f 447//447 453//453 446//446
f 445//445 452//452 467//467
f 466//466 467//467 452//452
f 464//464 465//465 449//449
f 465//465 447//447 449//449
f 447//447 465//465 466//466
f 452//452 447//447 466//466
f 447//447 452//452 453//453
f 457//457 448//448 456//456
f 458//458 450//450 448//448
f 457//457 458//458 448//448
f 459//459 450//450 458//458
f 460//460 438//438 450//450
f 459//459 460//460 450//450
f 435//435 438//438 460//460
f 462//462 463//463 451//451
f 449//449 451//451 463//463
f 464//464 449//449 463//463
f 461//461 451//451 438//438
f 438//438 436//436 461//461
f 462//462 451//451 461//461
f 451//451 450//450 438//438
f 472//472 470//470 469//469
f 472//472 469//469 471//471
f 474//474 472//472 471//471
f 474//474 471//471 473//473
f 476//476 468//468 484//484
f 485//485 476//476 484//484
f 486//486 469//469 485//485
f 469//469 476//476 485//485
f 486//486 471//471 469//469
f 482//482 483//483 470//470
f 475//475 470//470 483//483
f 475//475 469//469 470//470
f 481//481 472//472 480//480
f 472//472 481//481 470//470
f 482//482 470//470 481//481
f 469//469 475//475 476//476
f 486//486 487//487 471//471
f 488//488 473//473 471//471
f 487//487 488//488 471//471
f 489//489 473//473 488//488
f 490//490 444//444 473//473
f 489//489 490//490 473//473
f 440//440 444//444 490//490
f 478//478 479//479 474//474
f 472//472 474//474 479//479
f 480//480 472//472 479//479
f 477//477 474//474 444//444
f 444//444 441//441 477//477
f 478//478 474//474 477//477
f 474//474 473//473 444//444
f 495//495 494//494 499//499
f 495//495 498//498 496//496
f 498//498 495//495 499//499
f 493//493 500//500 494//494
f 499//499 494//494 500//500
f 492//492 501//501 500//500
f 491//491 501//501 492//492
f 493//493 492//492 500//500
f 497//497 496//496 498//498
f 393//393 394//394 497//497
f 496//496 497//497 394//394
f 497//497 383//383 393//393
f 416//416 502//502 491//491
f 502//502 501//501 491//491
f 502//502 417//417 409//409
f 502//502 416//416 417//417
f 507//507 511//511 506//506
f 507//507 508//508 510//510
f 510//510 511//511 507//507
f 505//505 506//506 512//512
f 511//511 512//512 506//506
f 504//504 512//512 513//513
f 503//503 504//504 513//513
f 505//505 512//512 504//504
f 509//509 510//510 508//508
f 452//452 509//509 453//453
f 508//508 453//453 509//509
f 509//509 452//452 445//445
f 475//475 503//503 514//514
f 514//514 503//503 513//513
f 514//514 468//468 476//476
f 514//514 476//476 475//475
f 515//515 479//479 420//420
f 479//479 515//515 480//480
f 443//443 420//420 477//477
f 477//477 441//441 443//443
f 478//478 477//477 420//420
f 478//478 420//420 479//479
f 516//516 482//482 515//515
f 517//517 518//518 504//504
f 517//517 504//504 503//503
f 519//519 520//520 506//506
f 519//519 506//506 505//505
f 518//518 519//519 505//505
f 518//518 505//505 504//504
f 521//521 522//522 508//508
f 521//521 508//508 507//507
f 460//460 459//459 390//390
f 458//458 523//523 390//390
f 522//522 523//523 453//453
f 522//522 453//453 508//508
f 520//520 521//521 507//507
f 520//520 507//507 506//506
f 516//516 517//517 503//503
f 516//516 503//503 475//475
f 458//458 390//390 459//459
f 481//481 480//480 515//515
f 482//482 481//481 515//515
f 516//516 483//483 482//482
f 475//475 483//483 516//516
f 456//456 455//455 523//523
f 523//523 457//457 456//456
f 455//455 454//454 523//523
f 453//453 523//523 454//454
f 458//458 457//457 523//523
f 524//524 525//525 496//496
f 524//524 496//496 394//394
f 526//526 527//527 494//494
f 526//526 494//494 495//495
f 525//525 526//526 495//495
f 525//525 495//495 496//496
f 527//527 528//528 493//493
f 527//527 493//493 494//494
f 395//395 524//524 394//394
f 528//528 529//529 492//492
f 528//528 492//492 493//493
f 530//530 531//531 416//416
f 530//530 416//416 491//491
f 529//529 530//530 491//491
f 529//529 491//491 492//492
f 515//515 426//426 531//531
f 531//531 427//427 416//416
f 524//524 398//398 399//399
f 524//524 396//396 397//397
f 397//397 398//398 524//524
f 460//460 390//390 439//439
f 460//460 439//439 435//435
f 515//515 425//425 426//426
f 426//426 427//427 531//531
f 515//515 423//423 424//424
f 424//424 425//425 515//515
f 395//395 396//396 524//524
f 524//524 401//401 523//523
f 533//533 532//532 407//407
f 534//534 497//497 498//498
f 534//534 498//498 535//535
f 533//533 383//383 497//497
f 533//533 497//497 534//534
f 499//499 536//536 535//535
f 499//499 535//535 498//498
f 383//383 533//533 408//408
f 536//536 499//499 500//500
f 536//536 500//500 537//537
f 538//538 501//501 502//502
f 538//538 502//502 539//539
f 537//537 500//500 501//501
f 537//537 501//501 538//538
f 409//409 540//540 539//539
f 409//409 539//539 502//502
f 428//428 540//540 409//409
f 532//532 405//405 406//406
f 533//533 407//407 408//408
f 407//407 532//532 406//406
f 532//532 404//404 405//405
f 540//540 428//428 429//429
f 540//540 430//430 431//431
f 430//430 540//540 429//429
f 489//489 418//418 442//442
f 432//432 540//540 431//431
f 541//541 540//540 434//434
f 489//489 488//488 418//418
f 542//542 514//514 513//513
f 542//542 513//513 543//543
f 541//541 468//468 514//514
f 541//541 514//514 542//542
f 440//440 490//490 442//442
f 544//544 512//512 511//511
f 544//544 511//511 545//545
f 490//490 489//489 442//442
f 543//543 513//513 512//512
f 543//543 512//512 544//544
f 418//418 488//488 541//541
f 546//546 510//510 509//509
f 546//546 509//509 547//547
f 532//532 548//548 465//465
f 547//547 509//509 445//445
f 547//547 445//445 548//548
f 437//437 462//462 461//461
f 462//462 437//437 392//392
f 461//461 436//436 437//437
f 532//532 463//463 392//392
f 545//545 511//511 510//510
f 545//545 510//510 546//546
f 463//463 462//462 392//392
f 487//487 541//541 488//488
f 486//486 541//541 487//487
f 541//541 486//486 485//485
f 485//485 484//484 541//541
f 484//484 468//468 541//541
f 465//465 548//548 466//466
f 532//532 465//465 464//464
f 466//466 548//548 467//467
f 445//445 467//467 548//548
f 532//532 464//464 463//463
f 546//546 547//547 521//521
f 522//522 521//521 547//547
f 546//546 520//520 545//545
f 521//521 520//520 546//546
f 548//548 532//532 523//523
f 524//524 523//523 532//532
f 547//547 548//548 522//522
f 523//523 522//522 548//548
f 544//544 545//545 519//519
f 520//520 519//519 545//545
f 543//543 544//544 518//518
f 519//519 518//518 544//544
f 518//518 517//517 543//543
f 542//542 543//543 517//517
f 516//516 541//541 542//542
f 515//515 541//541 516//516
f 517//517 516//516 542//542
f 533//533 525//525 524//524
f 525//525 533//533 534//534
f 534//534 526//526 525//525
f 534//534 535//535 526//526
f 527//527 526//526 535//535
f 528//528 527//527 536//536
f 535//535 536//536 527//527
f 531//531 539//539 540//540
f 540//540 515//515 531//531
f 531//531 530//530 539//539
f 515//515 540//540 541//541
f 529//529 528//528 537//537
f 529//529 538//538 530//530
f 539//539 530//530 538//538
f 537//537 538//538 529//529
f 536//536 537//537 528//528
f 524//524 532//532 533//533
f 578//578 646//646 645//645
f 577//577 647//647 646//646
f 648//648 576//576 649//649
f 577//577 648//648 647//647
f 575//575 650//650 649//649
f 641//641 581//581 642//642
f 643//643 642//642 580//580
f 579//579 645//645 644//644
f 579//579 643//643 580//580
f 578//578 645//645 579//579
f 644//644 643//643 579//579
f 580//580 642//642 581//581
f 575//575 651//651 650//650
f 652//652 573//573 653//653
f 653//653 573//573 654//654
f 571//571 592//592 656//656
f 572//572 655//655 654//654
f 656//656 655//655 571//571
f 572//572 571//571 655//655
f 577//577 646//646 578//578
f 576//576 648//648 577//577
f 654//654 573//573 572//572
f 574//574 651//651 575//575
f 652//652 574//574 573//573
f 576//576 575//575 649//649
f 652//652 651//651 574//574
f 583//583 639//639 638//638
f 640//640 639//639 582//582
f 583//583 638//638 637//637
f 581//581 640//640 582//582
f 584//584 637//637 636//636
f 581//581 641//641 640//640
f 635//635 585//585 636//636
f 634//634 585//585 635//635
f 587//587 633//633 632//632
f 634//634 633//633 586//586
f 631//631 587//587 632//632
f 630//630 588//588 631//631
f 639//639 583//583 582//582
f 585//585 634//634 586//586
f 584//584 636//636 585//585
f 587//587 631//631 588//588
f 630//630 629//629 589//589
f 588//588 630//630 589//589
f 586//586 633//633 587//587
f 627//627 590//590 628//628
f 589//589 629//629 628//628
f 627//627 626//626 591//591
f 591//591 626//626 625//625
f 549//549 591//591 625//625
f 590//590 627//627 591//591
f 628//628 590//590 589//589
f 583//583 637//637 584//584
f 570//570 592//592 571//571
f 594//594 593//593 570//570
f 592//592 570//570 593//593
f 594//594 570//570 569//569
f 596//596 595//595 568//568
f 569//569 595//595 594//594
f 597//597 596//596 568//568
f 595//595 569//569 568//568
f 597//597 568//568 567//567
f 566//566 565//565 600//600
f 564//564 563//563 603//603
f 601//601 565//565 564//564
f 598//598 567//567 566//566
f 598//598 597//597 567//567
f 600//600 599//599 566//566
f 601//601 600//600 565//565
f 564//564 603//603 602//602
f 563//563 604//604 603//603
f 601//601 564//564 602//602
f 604//604 563//563 562//562
f 606//606 562//562 561//561
f 607//607 561//561 560//560
f 561//561 607//607 606//606
f 607//607 560//560 608//608
f 606//606 605//605 562//562
f 605//605 604//604 562//562
f 609//609 608//608 560//560
f 598//598 566//566 599//599
f 619//619 552//552 620//620
f 621//621 552//552 551//551
f 555//555 554//554 616//616
f 554//554 553//553 618//618
f 553//553 552//552 619//619
f 624//624 550//550 549//549
f 623//623 550//550 624//624
f 625//625 624//624 549//549
f 551//551 550//550 622//622
f 622//622 550//550 623//623
f 551//551 622//622 621//621
f 621//621 620//620 552//552
f 615//615 556//556 555//555
f 610//610 559//559 558//558
f 612//612 558//558 557//557
f 610//610 558//558 611//611
f 611//611 558//558 612//612
f 609//609 559//559 610//610
f 609//609 560//560 559//559
f 613//613 612//612 557//557
f 553//553 619//619 618//618
f 554//554 618//618 617//617
f 614//614 556//556 615//615
f 617//617 616//616 554//554
f 615//615 555//555 616//616
f 613//613 556//556 614//614
f 556//556 613//613 557//557
f 549//549 657//657 699//699
f 549//549 699//699 591//591
f 590//590 698//698 697//697
f 590//590 697//697 589//589
f 589//589 697//697 696//696
f 589//589 696//696 588//588
f 591//591 699//699 698//698
f 591//591 698//698 590//590
f 587//587 695//695 694//694
f 587//587 694//694 586//586
f 586//586 694//694 693//693
f 586//586 693//693 585//585
f 584//584 692//692 691//691
f 584//584 691//691 583//583
f 583//583 691//691 690//690
f 583//583 690//690 582//582
f 585//585 693//693 692//692
f 585//585 692//692 584//584
f 588//588 696//696 695//695
f 588//588 695//695 587//587
f 581//581 689//689 688//688
f 581//581 688//688 580//580
f 579//579 687//687 686//686
f 579//579 686//686 578//578
f 577//577 578//578 686//686
f 577//577 686//686 685//685
f 580//580 688//688 687//687
f 580//580 687//687 579//579
f 576//576 684//684 683//683
f 576//576 683//683 575//575
f 575//575 683//683 682//682
f 575//575 682//682 574//574
f 572//572 573//573 681//681
f 572//572 681//681 680//680
f 571//571 572//572 680//680
f 571//571 680//680 679//679
f 573//573 574//574 682//682
f 573//573 682//682 681//681
f 576//576 577//577 685//685
f 576//576 685//685 684//684
f 582//582 690//690 689//689
f 582//582 689//689 581//581
f 679//679 678//678 570//570
f 679//679 570//570 571//571
f 569//569 570//570 678//678
f 569//569 678//678 677//677
f 567//567 568//568 676//676
f 567//567 676//676 675//675
f 566//566 567//567 675//675
f 566//566 675//675 674//674
f 568//568 569//569 677//677
f 568//568 677//677 676//676
f 564//564 565//565 673//673
f 564//564 673//673 672//672
f 563//563 564//564 672//672
f 563//563 672//672 671//671
f 561//561 562//562 670//670
f 561//561 670//670 669//669
f 561//561 669//669 668//668
f 561//561 668//668 560//560
f 562//562 563//563 671//671
f 562//562 671//671 670//670
f 565//565 566//566 674//674
f 565//565 674//674 673//673
f 558//558 559//559 667//667
f 558//558 667//667 666//666
f 556//556 557//557 665//665
f 556//556 665//665 664//664
f 556//556 664//664 663//663
f 556//556 663//663 555//555
f 557//557 558//558 666//666
f 557//557 666//666 665//665
f 553//553 554//554 662//662
f 553//553 662//662 661//661
f 552//552 553//553 661//661
f 552//552 661//661 660//660
f 550//550 551//551 659//659
f 550//550 659//659 658//658
f 549//549 550//550 658//658
f 549//549 658//658 657//657
f 551//551 552//552 660//660
f 551//551 660//660 659//659
f 555//555 663//663 662//662
f 555//555 662//662 554//554
f 560//560 668//668 667//667
f 560//560 667//667 559//559
f 592//592 593//593 764//764
f 592//592 764//764 700//700
f 594//594 595//595 762//762
f 594//594 762//762 763//763
f 593//593 594//594 763//763
f 593//593 763//763 764//764
f 596//596 597//597 760//760
f 596//596 760//760 761//761
f 598//598 599//599 758//758
f 598//598 758//758 759//759
f 597//597 598//598 759//759
f 597//597 759//759 760//760
f 595//595 596//596 761//761
f 595//595 761//761 762//762
f 600//600 601//601 756//756
f 600//600 756//756 757//757
f 602//602 603//603 754//754
f 602//602 754//754 755//755
f 601//601 602//602 755//755
f 601//601 755//755 756//756
f 604//604 605//605 752//752
f 604//604 752//752 753//753
f 606//606 607//607 750//750
f 606//606 750//750 751//751
f 605//605 606//606 751//751
f 605//605 751//751 752//752
f 603//603 604//604 753//753
f 603//603 753//753 754//754
f 599//599 600//600 757//757
f 599//599 757//757 758//758
f 608//608 609//609 748//748
f 608//608 748//748 749//749
f 610//610 611//611 746//746
f 610//610 746//746 747//747
f 609//609 610//610 747//747
f 609//609 747//747 748//748
f 612//612 613//613 744//744
f 612//612 744//744 745//745
f 614//614 615//615 742//742
f 614//614 742//742 743//743
f 613//613 614//614 743//743
f 613//613 743//743 744//744
f 611//611 612//612 745//745
f 611//611 745//745 746//746
f 616//616 617//617 740//740
f 616//616 740//740 741//741
f 618//618 619//619 738//738
f 618//618 738//738 739//739
f 618//618 739//739 740//740
f 618//618 740//740 617//617
f 620//620 621//621 736//736
f 620//620 736//736 737//737
f 622//622 623//623 734//734
f 622//622 734//734 735//735
f 623//623 624//624 733//733
f 623//623 733//733 734//734
f 621//621 622//622 735//735
f 621//621 735//735 736//736
f 619//619 620//620 737//737
f 619//619 737//737 738//738
f 615//615 616//616 741//741
f 615//615 741//741 742//742
f 607//607 608//608 749//749
f 607//607 749//749 750//750
f 732//732 733//733 624//624
f 732//732 624//624 625//625
f 626//626 731//731 732//732
f 626//626 732//732 625//625
f 627//627 628//628 729//729
f 627//627 729//729 730//730
f 626//626 627//627 730//730
f 626//626 730//730 731//731
f 630//630 727//727 728//728
f 630//630 728//728 629//629
f 631//631 632//632 725//725
f 631//631 725//725 726//726
f 630//630 631//631 726//726
f 630//630 726//726 727//727
f 628//628 629//629 728//728
f 628//628 728//728 729//729
f 633//633 634//634 723//723
f 633//633 723//723 724//724
f 635//635 636//636 721//721
f 635//635 721//721 722//722
f 634//634 635//635 722//722
f 634//634 722//722 723//723
f 637//637 638//638 719//719
f 637//637 719//719 720//720
f 639//639 640//640 717//717
f 639//639 717//717 718//718
f 638//638 639//639 718//718
f 638//638 718//718 719//719
f 637//637 720//720 721//721
f 637//637 721//721 636//636
f 633//633 724//724 725//725
f 633//633 725//725 632//632
f 642//642 715//715 716//716
f 642//642 716//716 641//641
f 643//643 644//644 713//713
f 643//643 713//713 714//714
f 642//642 643//643 714//714
f 642//642 714//714 715//715
f 646//646 711//711 712//712
f 646//646 712//712 645//645
f 647//647 648//648 709//709
f 647//647 709//709 710//710
f 646//646 647//647 710//710
f 646//646 710//710 711//711
f 645//645 712//712 713//713
f 645//645 713//713 644//644
f 650//650 707//707 708//708
f 650//650 708//708 649//649
f 651//651 652//652 705//705
f 651//651 705//705 706//706
f 651//651 706//706 707//707
f 651//651 707//707 650//650
f 654//654 703//703 704//704
f 654//654 704//704 653//653
f 655//655 656//656 701//701
f 655//655 701//701 702//702
f 592//592 700//700 701//701
f 592//592 701//701 656//656
f 654//654 655//655 702//702
f 654//654 702//702 703//703
f 652//652 653//653 704//704
f 652//652 704//704 705//705
f 649//649 708//708 709//709
f 649//649 709//709 648//648
f 641//641 716//716 717//717
f 641//641 717//717 640//640
f 712//712 711//711 686//686
f 685//685 711//711 710//710
f 684//684 709//709 708//708
f 685//685 710//710 709//709
f 708//708 707//707 683//683
f 716//716 715//715 689//689
f 714//714 688//688 715//715
f 687//687 713//713 712//712
f 687//687 688//688 714//714
f 686//686 687//687 712//712
f 713//713 687//687 714//714
f 688//688 689//689 715//715
f 683//683 707//707 706//706
f 705//705 704//704 681//681
f 704//704 703//703 681//681
f 679//679 701//701 700//700
f 680//680 703//703 702//702
f 701//701 679//679 702//702
f 680//680 702//702 679//679
f 685//685 686//686 711//711
f 684//684 685//685 709//709
f 703//703 680//680 681//681
f 682//682 683//683 706//706
f 705//705 681//681 682//682
f 684//684 708//708 683//683
f 705//705 682//682 706//706
f 691//691 719//719 718//718
f 717//717 690//690 718//718
f 691//691 720//720 719//719
f 689//689 690//690 717//717
f 692//692 721//721 720//720
f 689//689 717//717 716//716
f 722//722 721//721 693//693
f 723//723 722//722 693//693
f 694//694 724//724 723//723
f 725//725 695//695 726//726
f 724//724 695//695 725//725
f 696//696 727//727 726//726
f 718//718 690//690 691//691
f 693//693 694//694 723//723
f 692//692 693//693 721//721
f 695//695 696//696 726//726
f 727//727 697//697 728//728
f 696//696 697//697 727//727
f 694//694 695//695 724//724
f 730//730 729//729 698//698
f 697//697 729//729 728//728
f 730//730 699//699 731//731
f 699//699 732//732 731//731
f 657//657 732//732 699//699
f 698//698 699//699 730//730
f 729//729 697//697 698//698
f 691//691 692//692 720//720
f 678//678 679//679 700//700
f 763//763 678//678 764//764
f 700//700 764//764 678//678
f 763//763 677//677 678//678
f 761//761 676//676 762//762
f 677//677 763//763 762//762
f 760//760 676//676 761//761
f 762//762 676//676 677//677
f 760//760 675//675 676//676
f 674//674 757//757 673//673
f 672//672 754//754 671//671
f 756//756 672//672 673//673
f 759//759 674//674 675//675
f 759//759 675//675 760//760
f 757//757 674//674 758//758
f 756//756 673//673 757//757
f 672//672 755//755 754//754
f 753//753 671//671 754//754
f 672//672 756//756 755//755
f 670//670 671//671 753//753
f 751//751 669//669 670//670
f 750//750 668//668 669//669
f 751//751 750//750 669//669
f 750//750 749//749 668//668
f 752//752 751//751 670//670
f 752//752 670//670 753//753
f 748//748 668//668 749//749
f 759//759 758//758 674//674
f 738//738 737//737 660//660
f 736//736 659//659 660//660
f 663//663 741//741 662//662
f 662//662 739//739 661//661
f 661//661 738//738 660//660
f 733//733 657//657 658//658
f 734//734 733//733 658//658
f 732//732 657//657 733//733
f 735//735 658//658 659//659
f 735//735 734//734 658//658
f 735//735 659//659 736//736
f 736//736 660//660 737//737
f 742//742 663//663 664//664
f 747//747 666//666 667//667
f 745//745 665//665 666//666
f 666//666 747//747 746//746
f 746//746 745//745 666//666
f 747//747 667//667 748//748
f 748//748 667//667 668//668
f 744//744 665//665 745//745
f 662//662 740//740 739//739
f 739//739 738//738 661//661
f 743//743 742//742 664//664
f 662//662 741//741 740//740
f 663//663 742//742 741//741
f 743//743 664//664 744//744
f 664//664 665//665 744//744
