# Created by Open3D 
# object name: InfoWheels Exterior Side Struts Colored
# number of vertices: 243
# number of triangles: 149
v -12.7991 5.23787 25.849
vn -0.223909 -0.0194233 0.974416
v -12.8735 5.2103 25.8299
vn 0.180592 0.0190805 0.983373
v -13.0117 5.20457 25.877
vn 0.655064 0.0142452 0.755439
v -13.0617 5.20459 25.9414
vn 0.822962 0.00471368 0.568078
v -12.7991 6.3721 25.849
vn -0.223907 0.0194165 0.974417
v -12.8735 6.39967 25.8299
vn 0.18061 -0.0190608 0.98337
v -13.0117 6.40541 25.877
vn 0.655052 -0.0142313 0.75545
v -13.0617 6.40538 25.9414
vn 0.822965 -0.00471245 0.568072
v -13.0617 5.2046 25.9414
vn 0.901792 0 0.43217
v -13.7423 5.2046 27.3615
vn 0.901777 3.07493e-08 0.432201
v -13.0617 6.42014 25.9414
vn 0.901789 -9.06504e-05 0.432176
v -13.7423 6.39061 27.3615
vn 0.901776 9.0649e-05 0.432205
v -14.0049 5.23787 27.454
vn -0.222421 0.0220285 0.974702
v -13.9305 5.2103 27.473
vn 0.180665 -0.0185039 0.983371
v -13.7923 5.20457 27.4259
vn 0.655307 -0.013935 0.755234
v -13.7423 5.20459 27.3615
vn 0.823517 -0.00469299 0.567272
v -14.0049 6.34084 27.454
vn -0.268098 0.0196152 0.963192
v -13.9355 6.40146 27.4722
vn 0.0722422 0.027976 0.996995
v -13.8638 6.42098 27.4644
vn 0.294659 -0.0905003 0.951307
v -13.7923 6.40541 27.4259
vn 0.655295 0.013921 0.755245
v -13.7423 6.40538 27.3615
vn 0.823521 0.00469176 0.567267
v -12.453 5.58779 26.0148
vn -0.431865 -0.000123569 0.901938
v -12.4696 5.80499 26.0069
vn -0.431874 -1.82317e-05 0.901934
v -12.6045 5.37892 25.9422
vn -0.431963 -9.49396e-05 0.901891
v -12.453 6.02218 26.0148
vn -0.431869 0.00013884 0.901937
v -12.6045 6.23105 25.9422
vn -0.431963 9.49441e-05 0.901891
v -12.7991 5.23787 25.849
vn -0.432165 -1.93948e-05 0.901795
v -12.7991 6.3721 25.849
vn -0.432165 1.93948e-05 0.901795
v -14.2491 5.39813 27.3369
vn -0.432095 0.000153461 0.901828
v -14.3863 5.80499 27.2712
vn -0.432409 1.99688e-07 0.901677
v -14.2491 6.21184 27.3369
vn -0.432095 -0.000153468 0.901828
v -14.0049 5.23787 27.454
vn -0.432165 1.93948e-05 0.901795
v -14.0049 6.3721 27.454
vn -0.432148 -3.87895e-05 0.901802
v -4.58839 6.43491 8.26062
vn -0.139668 0.987904 -0.067368
v -13.8888 6.43026 27.474
vn -0.106746 0.992956 -0.0514177
v -13.76 6.43495 27.3982
vn -0.0126383 0.999901 -0.00611302
v -4.7936 6.39237 8.16227
vn -0.181414 0.979514 -0.0874087
v -13.8587 5.17746 27.4656
vn -0.0644777 -0.997437 -0.031003
v -12.9952 5.17498 25.8589
vn 0.0394135 -0.99905 0.018576
v -4.69277 5.18579 8.21059
vn -0.0692885 -0.997031 -0.0335799
v -14.0052 6.40433 27.4563
vn -0.24178 0.96337 -0.116022
v -13.9505 5.1906 27.4718
vn -0.203271 -0.97426 -0.0974578
v -14.0049 5.20661 27.454
vn -0.25462 -0.959292 -0.122176
v -12.7988 5.20564 25.8467
vn 0.241806 -0.963396 0.115753
v -4.48401 5.18579 8.31064
vn 0.0666417 -0.997278 0.031542
v -4.58839 6.43491 8.26062
vn 0.138892 0.9881 0.0660889
v -12.8537 6.41956 25.8312
vn 0.198979 0.975392 0.0949626
v -4.38318 6.39237 8.35896
vn 0.181755 0.979524 0.0865887
v -12.7991 6.40336 25.849
vn 0.254707 0.959297 0.121958
v -12.8904 5.1838 25.8289
vn 0.153419 -0.985423 0.0735077
v -12.9294 6.43084 25.834
vn 0.107913 0.992828 0.0514493
v -13.0175 6.43503 25.8775
vn 0.0225012 0.999689 0.0107642
v -4.40242 5.27267 8.34974
vn -0.189502 0.977711 -0.0903906
v -4.58839 5.23412 8.26062
vn -0.140505 0.987817 -0.0669073
v -12.8539 5.25086 25.8311
vn -0.213501 0.971602 -0.102012
v -12.7991 5.26913 25.849
vn -0.281315 0.950102 -0.134791
v -12.853 6.35856 25.8312
vn -0.224557 -0.96851 -0.107527
v -4.4938 6.36613 8.30595
vn -0.0778537 -0.99628 -0.0369538
v -12.7991 6.34084 25.849
vn -0.281402 -0.950104 -0.134592
v -12.9289 5.23867 25.8338
vn -0.119371 0.991217 -0.0569114
v -13.0175 5.23399 25.8775
vn -0.0248009 0.999622 -0.0118644
v -12.9288 6.37131 25.8338
vn -0.119331 -0.991209 -0.0571332
v -13.0145 6.37593 25.8755
vn -0.0160059 -0.999845 -0.00733772
v -4.68298 6.36613 8.21528
vn 0.0804461 -0.996 0.0388901
v -13.8611 6.37302 27.4661
vn 0.0711569 -0.996879 0.0341896
v -4.58839 5.23412 8.26062
vn 0.138422 0.988124 0.0667172
v -4.77436 5.27267 8.17149
vn 0.186648 0.97831 0.0898469
v -13.8695 5.23751 27.4681
vn 0.115824 0.991702 0.055792
v -13.7611 5.23408 27.4005
vn 0.0150796 0.99986 0.00729795
v -13.9502 6.35875 27.4718
vn 0.224634 -0.968469 0.107734
v -14.0049 6.34084 27.454
vn 0.28092 -0.950208 0.134868
v -13.9502 5.25122 27.4718
vn 0.224566 0.968473 0.107841
v -14.0049 5.26913 27.454
vn 0.280979 0.950217 0.134679
v -5.01696 5.4461 8.05523
vn 0.432203 2.55595e-05 -0.901776
v -4.7901 5.22761 8.16395
vn 0.432193 4.97849e-05 -0.901781
v -5.14439 5.74785 7.99415
vn 0.432285 8.36602e-06 -0.901737
v -4.4954 5.25339 8.30518
vn 0.432179 1.90614e-05 -0.901788
v -4.38668 5.22761 8.35729
vn 0.432179 1.03332e-05 -0.901788
v -5.04137 6.05511 8.04353
vn 0.432235 -3.02527e-05 -0.901761
v -5.03399 6.17814 8.04707
vn 0.432231 -4.33091e-05 -0.901763
v -4.8265 6.34136 8.1465
vn 0.432178 -1.61138e-05 -0.901788
v -4.58839 6.36613 8.26061
vn 0.432173 3.87265e-05 -0.901791
v -4.48579 6.41364 8.30979
vn 0.432175 4.05132e-05 -0.90179
v -4.15982 5.4461 8.46601
vn 0.432162 1.02205e-05 -0.901796
v -4.03239 5.74785 8.52707
vn 0.432176 -6.35008e-06 -0.901789
v -4.14279 6.17814 8.47416
vn 0.43218 9.11245e-06 -0.901787
v -4.1354 6.05511 8.47771
vn 0.432178 -3.76113e-06 -0.901788
v -4.29858 5.97808 8.31219
vn 0.432167 1.42721e-07 -0.901794
v -4.06864 6.08764 8.42238
vn 0.432162 1.42752e-05 -0.901796
v -4.2906 6.33103 8.31602
vn 0.432175 -5.76347e-06 -0.90179
v -4.00742 5.79032 8.45172
vn 0.432166 3.60561e-06 -0.901794
v -4.598 6.13372 8.1687
vn 0.432173 -2.50449e-06 -0.901791
v -4.63581 6.42352 8.15058
vn 0.432173 8.46966e-06 -0.901791
v -4.31067 5.61163 8.3064
vn 0.432167 4.10138e-06 -0.901794
v -4.07374 5.52529 8.41994
vn 0.432161 -7.60496e-06 -0.901796
v -4.34179 5.22603 8.29148
vn 0.432151 -5.41659e-06 -0.901801
v -4.55953 5.49796 8.18713
vn 0.432177 -6.65022e-06 -0.901789
v -4.84426 5.88903 8.05068
vn 0.432164 1.68357e-07 -0.901795
v -4.9503 6.21332 7.99986
vn 0.432171 1.7942e-06 -0.901792
v -5.08224 5.96436 7.93663
vn 0.432163 -3.72413e-09 -0.901796
v -5.09048 5.61181 7.93268
vn 0.43216 4.64672e-06 -0.901797
v -4.7934 5.23447 8.07505
vn 0.432174 -1.28582e-06 -0.90179
v -4.72564 5.55901 8.10752
vn 0.432168 -2.58745e-07 -0.901793
v -4.03446 5.94076 8.52608
vn -0.432181 -2.04649e-06 0.901787
v -4.29849 5.88902 8.39955
vn -0.43217 2.49919e-06 0.901792
v -4.25536 6.28833 8.42022
vn -0.432164 -3.05571e-06 0.901795
v -4.43209 6.06696 8.33553
vn -0.432166 2.34891e-06 0.901794
v -4.50693 6.42352 8.29965
vn -0.432176 -2.45353e-06 0.901789
v -4.63203 6.13372 8.2397
vn -0.432174 -2.07511e-06 0.90179
v -4.12445 5.44991 8.48295
vn -0.432175 2.14806e-06 0.90179
v -4.42077 5.52406 8.34094
vn -0.432172 -9.9737e-06 0.901791
v -4.42064 5.23256 8.34101
vn -0.432165 -1.01945e-06 0.901794
v -4.94363 6.29546 8.09037
vn -0.432183 -1.18575e-05 0.901786
v -4.82761 5.96688 8.14597
vn -0.432175 -9.85277e-06 0.90179
v -5.10583 6.0069 8.01264
vn -0.432175 -1.36584e-05 0.90179
v -4.87198 5.69769 8.12471
vn -0.432164 -5.36419e-06 0.901795
v -5.13532 5.79032 7.9985
vn -0.432177 1.44129e-05 0.901789
v -4.75614 5.23256 8.18022
vn -0.432186 -3.61755e-06 0.901784
v -4.68851 5.51472 8.21264
vn -0.432195 2.23501e-06 0.90178
v -5.05232 5.44991 8.03828
vn -0.432171 3.4099e-06 0.901791
v -12.7991 -70.1952 25.849
vn -0.223954 -0.0193062 0.974408
v -12.8735 -70.2227 25.8299
vn 0.180588 0.0192172 0.983371
v -13.0117 -70.2285 25.877
vn 0.655028 0.0143628 0.755468
v -13.0617 -70.2285 25.9414
vn 0.822967 0.00475475 0.568069
v -12.7991 -69.061 25.849
vn -0.223899 0.019518 0.974417
v -12.8735 -69.0334 25.8299
vn 0.180505 -0.0191594 0.983387
v -13.0117 -69.0277 25.877
vn 0.655145 -0.0143037 0.755367
v -13.0617 -69.0277 25.9414
vn 0.822948 -0.00473932 0.568097
v -13.0617 -70.2433 25.9414
vn 0.901789 9.07325e-05 0.432176
v -13.7423 -70.2137 27.3615
vn 0.901776 -9.07325e-05 0.432205
v -13.0617 -69.0129 25.9414
vn 0.901789 -9.07325e-05 0.432176
v -13.7423 -69.0424 27.3615
vn 0.901776 9.07559e-05 0.432205
v -14.0049 -70.1952 27.454
vn -0.222468 0.021906 0.974694
v -13.9305 -70.2227 27.473
vn 0.18066 -0.0186433 0.983369
v -13.7923 -70.2285 27.4259
vn 0.655271 -0.0140496 0.755263
v -13.7423 -70.2285 27.3615
vn 0.823523 -0.00473389 0.567263
v -14.0049 -69.061 27.454
vn -0.222409 -0.0221325 0.974702
v -13.9305 -69.0334 27.473
vn 0.180578 0.0185818 0.983385
v -13.7923 -69.0277 27.4259
vn 0.655389 0.0139909 0.755162
v -13.7423 -69.0277 27.3615
vn 0.823504 0.00471847 0.567291
v -12.5549 -70.0349 25.966
vn -0.431938 -0.000114739 0.901903
v -12.4176 -69.628 26.0318
vn -0.431878 -1.49874e-06 0.901932
v -12.5549 -69.2212 25.966
vn -0.431938 0.000114641 0.901903
v -12.7991 -70.1952 25.849
vn -0.432148 -3.87852e-05 0.901802
v -12.7991 -69.061 25.849
vn -0.432149 3.87536e-05 0.901802
v -14.2491 -70.0349 27.3369
vn -0.432095 0.000153518 0.901828
v -14.3863 -69.628 27.2712
vn -0.43241 1.81667e-07 0.901677
v -14.2491 -69.2212 27.3369
vn -0.432096 -0.000153375 0.901828
v -14.0049 -70.1952 27.454
vn -0.432165 1.93926e-05 0.901795
v -14.0049 -69.061 27.454
vn -0.432149 -3.87536e-05 0.901802
v -4.58839 -68.9982 8.26062
vn -0.139581 0.987919 -0.0673263
v -13.8887 -69.0028 27.474
vn -0.10661 0.992974 -0.0513543
v -13.76 -68.9982 27.3982
vn -0.0144847 0.999871 -0.00701084
v -4.7936 -69.0407 8.16227
vn -0.181173 0.979569 -0.0872931
v -13.8587 -70.2556 27.4656
vn -0.0649976 -0.997396 -0.0312495
v -12.9952 -70.2581 25.8589
vn 0.0387765 -0.999081 0.0182694
v -4.69277 -70.2473 8.21059
vn -0.0691824 -0.99704 -0.0335283
v -14.0052 -69.0287 27.4563
vn -0.241319 0.963512 -0.115803
v -13.9505 -70.2425 27.4718
vn -0.203072 -0.974311 -0.0973615
v -14.0049 -70.2265 27.454
vn -0.254077 -0.959469 -0.121914
v -12.7988 -70.2275 25.8467
vn 0.241317 -0.963546 0.115521
v -4.48401 -70.2473 8.31064
vn 0.0665395 -0.997287 0.031494
v -4.58839 -68.9982 8.26062
vn 0.138805 0.988115 0.0660467
v -12.8537 -69.0136 25.8312
vn 0.198648 0.975475 0.0948028
v -4.38318 -69.0407 8.35896
vn 0.181514 0.979579 0.0864736
v -12.7991 -69.0297 25.849
vn 0.254329 0.95942 0.121775
v -12.8904 -70.2493 25.8289
vn 0.153705 -0.985369 0.0736458
v -12.9294 -69.0022 25.834
vn 0.10803 0.992813 0.0515019
v -13.0175 -68.998 25.8775
vn 0.0214628 0.999717 0.0102654
v -4.40242 -70.1604 8.34974
vn -0.189637 0.977679 -0.0904573
v -4.58839 -70.199 8.26062
vn -0.14086 0.987755 -0.0670791
v -12.8537 -70.1821 25.8311
vn -0.21356 0.971587 -0.102039
v -12.7991 -70.1639 25.849
vn -0.282981 0.949493 -0.135593
v -12.8531 -69.0745 25.8312
vn -0.224475 -0.968533 -0.107489
v -4.4938 -69.0669 8.30595
vn -0.077839 -0.996281 -0.036948
v -12.7991 -69.0922 25.849
vn -0.280981 -0.950257 -0.134394
v -12.9287 -70.1944 25.8338
vn -0.119417 0.99121 -0.0569357
v -13.0174 -70.1991 25.8775
vn -0.0252643 0.999608 -0.0120856
v -12.9289 -69.0617 25.8339
vn -0.119575 -0.991173 -0.057252
v -13.0145 -69.0571 25.8755
vn -0.0157607 -0.99985 -0.0072208
v -4.68298 -69.0669 8.21528
vn 0.080427 -0.996002 0.0388798
v -13.861 -69.06 27.4661
vn 0.07139 -0.996859 0.0343004
v -4.58839 -70.199 8.26062
vn 0.138583 0.988096 0.0667942
v -4.77436 -70.1604 8.17149
vn 0.186982 0.978231 0.0900067
v -13.8887 -70.1935 27.474
vn 0.12528 0.990288 0.0602903
v -13.7611 -70.199 27.4005
vn 0.0151383 0.999859 0.00732701
v -13.9501 -69.0743 27.4718
vn 0.224552 -0.968493 0.107694
v -14.0049 -69.0922 27.454
vn 0.280502 -0.95036 0.134665
v -14.0052 -70.165 27.4563
vn 0.267727 0.954905 0.128369
v -5.07511 -69.7817 8.02737
vn 0.432256 1.2929e-05 -0.901751
v -4.85479 -70.1052 8.13295
vn 0.43219 4.54737e-05 -0.901782
v -5.08823 -69.9041 8.02107
vn 0.432242 2.34292e-05 -0.901758
v -4.7901 -70.2055 8.16395
vn 0.432193 5.35373e-05 -0.901781
v -4.38668 -70.2055 8.35729
vn 0.432181 2.55407e-05 -0.901787
v -5.04137 -69.378 8.04353
vn 0.432235 -3.0247e-05 -0.901761
v -5.15402 -69.57 7.98954
vn 0.432276 -1.2783e-05 -0.901741
v -5.03399 -69.2549 8.04707
vn 0.432231 -4.33075e-05 -0.901763
v -4.8265 -69.0917 8.1465
vn 0.432178 -1.61164e-05 -0.901788
v -4.58839 -69.0669 8.26061
vn 0.432173 3.87611e-05 -0.901791
v -4.48579 -69.0195 8.30979
vn 0.432179 2.99039e-05 -0.901788
v -4.322 -70.1052 8.38829
vn 0.432177 5.44415e-06 -0.901789
v -4.08854 -69.9041 8.50016
vn 0.432156 4.98517e-06 -0.901799
v -4.10167 -69.7817 8.49388
vn 0.432164 -4.69317e-06 -0.901795
v -4.02276 -69.57 8.53169
vn 0.4322 -1.81593e-06 -0.901778
v -4.14279 -69.2549 8.47416
vn 0.432176 -1.02128e-06 -0.901789
v -4.1354 -69.378 8.47771
vn 0.432178 -3.7604e-06 -0.901788
v -4.25243 -69.665 8.33431
vn 0.432169 9.13034e-07 -0.901793
v -4.09551 -69.2947 8.40951
vn 0.432167 2.12331e-05 -0.901793
v -4.02648 -69.4687 8.44259
vn 0.432171 -1.8421e-05 -0.901792
v -4.44575 -69.3135 8.24166
vn 0.432174 3.35207e-06 -0.90179
v -4.31672 -69.0612 8.3035
vn 0.432172 -8.39216e-06 -0.901791
v -4.03691 -69.8299 8.43759
vn 0.43216 4.0613e-06 -0.901797
v -4.67275 -69.0341 8.13287
vn 0.432186 8.87772e-06 -0.901784
v -4.16184 -70.053 8.37772
vn 0.432197 2.76198e-05 -0.901779
v -4.46896 -69.9423 8.23054
vn 0.432168 1.37278e-06 -0.901793
v -4.30011 -70.1653 8.31145
vn 0.432179 -1.91321e-06 -0.901788
v -4.55436 -70.2277 8.18961
vn 0.432145 -5.17436e-06 -0.901804
v -4.92814 -69.1601 8.01048
vn 0.432172 5.20678e-06 -0.901791
v -4.76738 -69.4002 8.08752
vn 0.432162 1.2407e-06 -0.901796
v -5.08224 -69.4687 7.93663
vn 0.432163 -9.50212e-10 -0.901796
v -4.83443 -69.6394 8.05539
vn 0.432163 3.52099e-06 -0.901795
v -5.07182 -69.8299 7.94163
vn 0.432163 -2.47663e-06 -0.901795
v -4.80861 -70.1653 8.06776
vn 0.43218 5.3383e-07 -0.901788
v -4.75191 -69.8725 8.09493
vn 0.432171 -1.38264e-06 -0.901791
v -4.94688 -70.053 8.0015
vn 0.432165 6.3137e-06 -0.901794
v -4.06051 -69.4687 8.5136
vn -0.432185 -7.65542e-07 0.901785
v -4.2146 -69.1602 8.43975
vn -0.432172 -4.84551e-06 0.901791
v -4.37538 -69.4002 8.3627
vn -0.432181 -2.30051e-06 0.901787
v -4.07094 -69.8299 8.5086
vn -0.432169 -2.73375e-06 0.901792
v -4.30833 -69.6394 8.39483
vn -0.432169 1.86386e-05 0.901793
v -4.47 -69.0341 8.31735
vn -0.43219 -1.04926e-05 0.901782
v -4.697 -69.3135 8.20857
vn -0.43217 -7.86418e-06 0.901792
v -4.39084 -69.8725 8.35529
vn -0.432174 1.95826e-06 0.90179
v -4.19587 -70.053 8.44873
vn -0.432189 -2.62344e-06 0.901783
v -4.33414 -70.1653 8.38246
vn -0.43218 7.26129e-06 0.901787
v -4.58839 -70.2277 8.26062
vn -0.432173 -5.56419e-06 0.901791
v -4.67379 -69.9423 8.21969
vn -0.432181 -2.49495e-06 0.901787
v -4.85202 -69.071 8.13428
vn -0.432178 -3.82815e-06 0.901788
v -5.08467 -69.3803 8.02278
vn -0.432174 -1.43001e-05 0.90179
v -4.89032 -69.6649 8.11592
vn -0.432171 -1.10796e-06 0.901792
v -5.13881 -69.763 7.99683
vn -0.432183 2.44191e-05 0.901786
v -4.84264 -70.1653 8.13877
vn -0.432174 -9.21169e-07 0.90179
v -4.98091 -70.053 8.07251
vn -0.432151 -2.0047e-05 0.901801
f 24//24 22//22 23//23
f 25//25 23//23 22//22
f 25//25 26//26 23//23
f 34//34 35//35 36//36
f 37//37 35//35 34//34
f 38//38 40//40 39//39
f 37//37 41//41 35//35
f 38//38 42//42 40//40
f 43//43 40//40 42//42
f 46//46 47//47 48//48
f 48//48 47//47 49//49
f 50//50 39//39 45//45
f 46//46 51//51 47//47
f 46//46 52//52 51//51
f 44//44 50//50 45//45
f 45//45 39//39 40//40
f 53//53 54//54 55//55
f 56//56 53//53 55//55
f 57//57 58//58 59//59
f 55//55 54//54 60//60
f 54//54 61//61 60//60
f 62//62 58//58 57//57
f 63//63 58//58 62//62
f 64//64 58//58 63//63
f 63//63 65//65 64//64
f 66//66 67//67 68//68
f 66//66 68//68 69//69
f 64//64 65//65 70//70
f 70//70 71//71 64//64
f 68//68 67//67 72//72
f 73//73 72//72 67//67
f 78//78 75//75 77//77
f 76//76 80//80 79//79
f 81//81 79//79 80//80
f 83//83 82//82 81//81
f 78//78 77//77 84//84
f 83//83 86//86 82//82
f 86//86 85//85 87//87
f 89//89 88//88 90//90
f 89//89 91//91 88//88
f 92//92 93//93 90//90
f 90//90 88//88 92//92
f 94//94 91//91 95//95
f 88//88 91//91 94//94
f 94//94 95//95 96//96
f 96//96 97//97 94//94
f 92//92 98//98 99//99
f 99//99 93//93 92//92
f 98//98 100//100 99//99
f 100//100 98//98 101//101
f 102//102 103//103 97//97
f 96//96 102//102 97//97
f 101//101 98//98 103//103
f 101//101 103//103 102//102
f 105//105 104//104 106//106
f 108//108 109//109 107//107
f 105//105 106//106 107//107
f 108//108 107//107 106//106
f 105//105 110//110 104//104
f 111//111 112//112 110//110
f 105//105 111//111 110//110
f 109//109 108//108 113//113
f 109//109 113//113 114//114
f 115//115 114//114 113//113
f 115//115 116//116 114//114
f 115//115 117//117 116//116
f 116//116 120//120 119//119
f 118//118 111//111 119//119
f 112//112 111//111 118//118
f 116//116 117//117 120//120
f 120//120 118//118 119//119
f 151//151 152//152 153//153
f 154//154 152//152 151//151
f 155//155 157//157 156//156
f 154//154 158//158 152//152
f 155//155 159//159 157//157
f 160//160 157//157 159//159
f 163//163 164//164 165//165
f 165//165 164//164 166//166
f 167//167 156//156 162//162
f 163//163 168//168 164//164
f 163//163 169//169 168//168
f 161//161 167//167 162//162
f 162//162 156//156 157//157
f 170//170 171//171 172//172
f 173//173 170//170 172//172
f 174//174 175//175 176//176
f 172//172 171//171 177//177
f 171//171 178//178 177//177
f 179//179 175//175 174//174
f 180//180 175//175 179//179
f 181//181 175//175 180//180
f 180//180 182//182 181//181
f 183//183 184//184 185//185
f 183//183 185//185 186//186
f 181//181 182//182 187//187
f 187//187 188//188 181//181
f 185//185 184//184 189//189
f 190//190 191//191 192//192
f 193//193 192//192 191//191
f 191//191 194//194 193//193
f 195//195 190//190 196//196
f 192//192 196//196 190//190
f 196//196 197//197 195//195
f 198//198 195//195 197//197
f 200//200 199//199 198//198
f 201//201 202//202 194//194
f 201//201 203//203 202//202
f 204//204 202//202 203//203
f 205//205 204//204 206//206
f 200//200 205//205 206//206
f 203//203 206//206 204//204
f 207//207 208//208 209//209
f 208//208 210//210 211//211
f 212//212 207//207 209//209
f 210//210 213//213 211//211
f 210//210 208//208 207//207
f 214//214 207//207 212//212
f 216//216 215//215 214//214
f 207//207 214//214 215//215
f 217//217 215//215 216//216
f 218//218 213//213 219//219
f 213//213 210//210 219//219
f 219//219 220//220 218//218
f 220//220 219//219 221//221
f 220//220 221//221 222//222
f 224//224 215//215 217//217
f 224//224 217//217 223//223
f 222//222 221//221 224//224
f 224//224 223//223 225//225
f 222//222 224//224 225//225
f 226//226 227//227 228//228
f 229//229 226//226 230//230
f 228//228 230//230 226//226
f 227//227 231//231 228//228
f 231//231 232//232 228//228
f 234//234 229//229 233//233
f 234//234 233//233 235//235
f 236//236 235//235 233//233
f 233//233 237//237 236//236
f 230//230 233//233 229//229
f 231//231 238//238 232//232
f 232//232 239//239 240//240
f 232//232 238//238 239//239
f 239//239 241//241 240//240
f 240//240 243//243 237//237
f 236//236 237//237 242//242
f 237//237 243//243 242//242
f 241//241 243//243 240//240
