# extracted passenger-side roof trim ridge only
v -6.7116 -79.7989 50.7441
v -6.71223 -79.7997 50.745
v -6.71402 -79.8019 50.7477
v -6.7257 -79.8136 50.7822
v -6.73243 -79.8156 50.8337
v -6.74343 -79.8151 50.9411
v -6.80861 -79.7794 51.582
v -6.8492 -79.683 52.005
v -6.86632 -79.5925 52.2188
v -6.87991 -79.4909 52.4428
v -6.88916 -79.3978 52.6831
v -6.89398 -79.3124 52.9337
v -6.89103 -79.1664 53.4402
v -6.82988 -79.094 54.4547
v -6.64335 -79.094 55.4518
v -6.21673 -79.094 56.2496
v -5.87551 -79.094 56.5116
v -6.68587 -79.3139 50.7441
v -6.68649 -79.3151 50.745
v -6.6883 -79.3186 50.7477
v -6.70034 -79.3374 50.7822
v -6.70782 -79.3407 50.8337
v -6.72046 -79.3401 50.941
v -6.79538 -79.291 51.5799
v -6.84207 -79.1371 51.994
v -6.86178 -78.9709 52.1969
v -6.87741 -78.7949 52.4149
v -6.88798 -78.6633 52.6621
v -6.89352 -78.5604 52.924
v -6.89097 -78.3784 53.4387
v -6.82988 -78.286 54.4547
v -6.64335 -78.286 55.4518
v -6.21673 -78.286 56.2496
v -5.87551 -78.286 56.5116
v -6.66633 -78.5169 50.7441
v -6.66696 -78.5184 50.745
v -6.66878 -78.5226 50.7477
v -6.68113 -78.5453 50.7822
v -6.68919 -78.5492 50.8337
v -6.70307 -78.5484 50.941
v -6.78543 -78.4931 51.5789
v -6.83717 -78.3094 51.9875
v -6.8595 -78.1018 52.1828
v -6.87715 -77.885 52.396
v -6.88822 -77.7348 52.6484
v -6.89366 -77.625 52.9182
v -6.89099 -77.4286 53.4379
v -6.82988 -77.3279 54.4547
v -6.64335 -77.3279 55.4518
v -6.21673 -77.3279 56.2496
v -5.87551 -77.3279 56.5116
v -6.65713 -77.1965 50.7441
v -6.65778 -77.1978 50.745
v -6.65962 -77.2013 50.7477
v -6.67223 -77.2201 50.7822
v -6.68059 -77.2234 50.8337
v -6.69504 -77.2227 50.941
v -6.78099 -77.1737 51.5796
v -6.83598 -77.022 51.9911
v -6.86096 -76.8592 52.1891
v -6.88084 -76.6826 52.4019
v -6.89079 -76.5516 52.6543
v -6.89469 -76.4454 52.921
v -6.89112 -76.2611 53.4383
v -6.82988 -76.1687 54.4547
v -6.64335 -76.1687 55.4518
v -6.21673 -76.1687 56.2496
v -5.87551 -76.1687 56.5116
v -6.65459 -75.3235 50.7441
v -6.65524 -75.3243 50.745
v -6.65712 -75.3265 50.7477
v -6.66993 -75.3382 50.7822
v -6.67839 -75.3402 50.8337
v -6.69299 -75.3397 50.9411
v -6.78006 -75.304 51.5813
v -6.83684 -75.2111 51.9996
v -6.86389 -75.1273 52.2058
v -6.88545 -75.0296 52.4229
v -6.89394 -74.9325 52.6702
v -6.89603 -74.8405 52.9284
v -6.89131 -74.6909 53.4394
v -6.82988 -74.6185 54.4547
v -6.64335 -74.6185 55.4518
v -6.21673 -74.6185 56.2496
v -5.87551 -74.6185 56.5116
v -6.6539 -72.8743 50.7441
v -6.65456 -72.8747 50.745
v -6.65646 -72.8759 50.7477
v -6.6694 -72.8823 50.7822
v -6.67789 -72.8834 50.8337
v -6.69253 -72.8831 50.9411
v -6.78003 -72.8608 51.583
v -6.83775 -72.8107 52.0065
v -6.86589 -72.7744 52.2178
v -6.88842 -72.7283 52.4378
v -6.89597 -72.6659 52.6818
v -6.89702 -72.6014 52.9347
v -6.89152 -72.5008 53.4408
v -6.82988 -72.4532 54.4547
v -6.64335 -72.4532 55.4518
v -6.21673 -72.4532 56.2496
v -5.87551 -72.4532 56.5116
v -6.65373 -69.6658 50.7441
v -6.6544 -69.666 50.745
v -6.65631 -69.6666 50.7477
v -6.66931 -69.6698 50.7822
v -6.67782 -69.6704 50.8337
v -6.69247 -69.6702 50.9411
v -6.78018 -69.6586 51.5843
v -6.83836 -69.6334 52.011
v -6.86695 -69.6166 52.2244
v -6.89002 -69.5947 52.4453
v -6.89703 -69.5617 52.6884
v -6.89764 -69.527 52.9391
v -6.8917 -69.4735 53.4422
v -6.82988 -69.4483 54.4547
v -6.64335 -69.4483 55.4518
v -6.21673 -69.4483 56.2496
v -5.87551 -69.4483 56.5116
v -6.65367 -65.4714 50.7441
v -6.65434 -65.4715 50.745
v -6.65626 -65.4717 50.7477
v -6.6693 -65.4731 50.7822
v -6.67782 -65.4733 50.8337
v -6.69247 -65.4733 50.9411
v -6.7803 -65.4684 51.5852
v -6.83873 -65.4577 52.0137
v -6.86758 -65.4507 52.2281
v -6.89109 -65.4415 52.4493
v -6.89766 -65.4275 52.6921
v -6.89801 -65.4128 52.9418
v -6.89182 -65.3903 53.443
v -6.82988 -65.3797 54.4547
v -6.64335 -65.3797 55.4518
v -6.21673 -65.3797 56.2496
v -5.87551 -65.3797 56.5116
v -6.65365 -60.05 50.7441
v -6.65432 -60.05 50.745
v -6.65624 -60.0501 50.7477
v -6.6693 -60.0505 50.7822
v -6.67782 -60.0505 50.8337
v -6.69247 -60.0505 50.9411
v -6.78036 -60.0491 51.5856
v -6.83892 -60.0459 52.015
v -6.86797 -60.0438 52.23
v -6.89185 -60.0412 52.4512
v -6.89804 -60.037 52.6939
v -6.8982 -60.0326 52.9432
v -6.89188 -60.0259 53.4435
v -6.82988 -60.0228 54.4547
v -6.64335 -60.0228 55.4518
v -6.21673 -60.0228 56.2496
v -5.87551 -60.0228 56.5116
v -6.65364 -53.1568 50.7441
v -6.6543 -53.1568 50.745
v -6.65623 -53.1568 50.7477
v -6.6693 -53.1569 50.7822
v -6.67782 -53.1569 50.8337
v -6.69247 -53.1569 50.9411
v -6.78038 -53.1567 51.5858
v -6.83898 -53.1563 52.0156
v -6.86817 -53.1561 52.2306
v -6.89238 -53.1557 52.4516
v -6.89825 -53.1552 52.6945
v -6.89827 -53.1546 52.9437
v -6.8919 -53.1538 53.4436
v -6.82988 -53.1534 54.4547
v -6.64335 -53.1534 55.4518
v -6.21673 -53.1534 56.2496
v -5.87551 -53.1534 56.5116
v -6.65364 -44.5472 50.7441
v -6.6543 -44.5472 50.745
v -6.65623 -44.5472 50.7477
v -6.6693 -44.5472 50.7822
v -6.67782 -44.5472 50.8337
v -6.69247 -44.5472 50.9411
v -6.78038 -44.5472 51.5858
v -6.839 -44.5472 52.0156
v -6.86825 -44.5472 52.2306
v -6.89265 -44.5472 52.4514
v -6.89833 -44.5472 52.6945
v -6.89828 -44.5472 52.9437
v -6.8919 -44.5472 53.4437
v -6.82988 -44.5472 54.4547
v -6.64335 -44.5472 55.4518
v -6.21673 -44.5472 56.2496
v -5.87551 -44.5472 56.5116
v -6.65364 -34.0995 50.7441
v -6.6543 -34.0995 50.745
v -6.65623 -34.0995 50.7477
v -6.6693 -34.0995 50.7822
v -6.67782 -34.0995 50.8337
v -6.69247 -34.0995 50.9411
v -6.78038 -34.0995 51.5858
v -6.839 -34.0995 52.0156
v -6.86829 -34.0995 52.2305
v -6.89284 -34.0995 52.4512
v -6.89837 -34.0995 52.6945
v -6.89828 -34.0995 52.9437
v -6.8919 -34.0995 53.4437
v -6.82988 -34.0995 54.4547
v -6.64335 -34.0995 55.4518
v -6.21673 -34.0995 56.2496
v -5.87551 -34.0995 56.5116
v -6.65364 -22.1834 50.7441
v -6.6543 -22.1834 50.745
v -6.65623 -22.1834 50.7477
v -6.6693 -22.1834 50.7822
v -6.67782 -22.1834 50.8337
v -6.69247 -22.1834 50.9411
v -6.78038 -22.1834 51.5858
v -6.839 -22.1834 52.0156
v -6.8683 -22.1834 52.2305
v -6.89288 -22.1834 52.4511
v -6.89838 -22.1834 52.6945
v -6.89828 -22.1834 52.9437
v -6.8919 -22.1834 53.4437
v -6.82988 -22.1834 54.4547
v -6.64335 -22.1834 55.4518
v -6.21673 -22.1834 56.2496
v -5.87551 -22.1834 56.5116
v -6.65364 30.3068 50.7441
v -6.6543 30.3068 50.745
v -6.65623 30.3068 50.7477
v -6.6693 30.3068 50.7822
v -6.67782 30.3068 50.8337
v -6.69247 30.3068 50.9411
v -6.78038 30.3068 51.5858
v -6.839 30.3068 52.0156
v -6.8683 30.3068 52.2305
v -6.89288 30.3068 52.4511
v -6.89838 30.3068 52.6945
v -6.89828 30.3068 52.9437
v -6.8919 30.3068 53.4437
v -6.82988 30.3068 54.4547
v -6.64335 30.3068 55.4518
v -6.21673 30.3068 56.2496
v -5.87551 30.3068 56.5116
v -6.65364 42.1716 50.7441
v -6.6543 42.1716 50.745
v -6.65623 42.1716 50.7477
v -6.6693 42.1716 50.7822
v -6.67782 42.1716 50.8337
v -6.69247 42.1716 50.9411
v -6.78038 42.1716 51.5858
v -6.839 42.1716 52.0156
v -6.86829 42.1716 52.2305
v -6.89284 42.1716 52.4512
v -6.89837 42.1716 52.6945
v -6.89828 42.1716 52.9437
v -6.8919 42.1716 53.4437
v -6.82988 42.1716 54.4547
v -6.64335 42.1716 55.4518
v -6.21673 42.1716 56.2496
v -5.87551 42.1716 56.5116
v -6.65364 52.5476 50.7441
v -6.6543 52.5476 50.745
v -6.65623 52.5476 50.7477
v -6.6693 52.5476 50.7822
v -6.67782 52.5476 50.8337
v -6.69247 52.5476 50.9411
v -6.78038 52.5476 51.5858
v -6.839 52.5476 52.0156
v -6.86825 52.5476 52.2306
v -6.89265 52.5476 52.4514
v -6.89833 52.5476 52.6945
v -6.89828 52.5476 52.9437
v -6.8919 52.5476 53.4437
v -6.82988 52.5476 54.4547
v -6.64335 52.5476 55.4518
v -6.21673 52.5476 56.2496
v -5.87551 52.5476 56.5116
v -6.65364 61.0653 50.7441
v -6.6543 61.0653 50.745
v -6.65623 61.0653 50.7477
v -6.6693 61.0653 50.7822
v -6.67782 61.0653 50.8337
v -6.69247 61.0653 50.9411
v -6.78038 61.0652 51.5858
v -6.83898 61.0648 52.0156
v -6.86817 61.0646 52.2306
v -6.89238 61.0643 52.4516
v -6.89825 61.0638 52.6945
v -6.89827 61.0633 52.9437
v -6.8919 61.0625 53.4436
v -6.82988 61.0622 54.4547
v -6.64335 61.0622 55.4518
v -6.21673 61.0622 56.2496
v -5.87551 61.0622 56.5116
v -6.65365 67.8486 50.7441
v -6.65432 67.8487 50.745
v -6.65624 67.8487 50.7477
v -6.6693 67.8491 50.7822
v -6.67782 67.8492 50.8337
v -6.69247 67.8491 50.9411
v -6.78036 67.8478 51.5856
v -6.83892 67.845 52.015
v -6.86797 67.8431 52.23
v -6.89185 67.8407 52.4512
v -6.89804 67.8368 52.6939
v -6.8982 67.8329 52.9432
v -6.89188 67.8268 53.4435
v -6.82988 67.8239 54.4547
v -6.64335 67.8239 55.4518
v -6.21673 67.8239 56.2496
v -5.87551 67.8239 56.5116
v -6.65367 73.145 50.7441
v -6.65434 73.145 50.745
v -6.65626 73.1453 50.7477
v -6.6693 73.1465 50.7822
v -6.67782 73.1467 50.8337
v -6.69247 73.1467 50.9411
v -6.7803 73.1422 51.5852
v -6.83873 73.1326 52.0137
v -6.86758 73.1263 52.2281
v -6.89109 73.118 52.4493
v -6.89766 73.1051 52.6921
v -6.89801 73.0918 52.9418
v -6.89182 73.0711 53.443
v -6.82988 73.0614 54.4547
v -6.64335 73.0614 55.4518
v -6.21673 73.0614 56.2496
v -5.87551 73.0614 56.5116
v -6.65373 77.2016 50.7441
v -6.6544 77.2018 50.745
v -6.65631 77.2023 50.7477
v -6.66931 77.2052 50.7822
v -6.67782 77.2057 50.8337
v -6.69247 77.2056 50.9411
v -6.78018 77.1951 51.5843
v -6.83836 77.1723 52.011
v -6.86695 77.1572 52.2244
v -6.89002 77.1373 52.4453
v -6.89703 77.1071 52.6884
v -6.89764 77.0755 52.9391
v -6.8917 77.0266 53.4422
v -6.82988 77.0036 54.4547
v -6.64335 77.0036 55.4518
v -6.21673 77.0036 56.2496
v -5.87551 77.0036 56.5116
v -6.6539 80.2625 50.7441
v -6.65456 80.2629 50.745
v -6.65646 80.2639 50.7477
v -6.6694 80.2698 50.7822
v -6.67789 80.2708 50.8337
v -6.69253 80.2705 50.9411
v -6.78003 80.2504 51.583
v -6.83775 80.205 52.0065
v -6.86589 80.1722 52.2178
v -6.88842 80.1304 52.4378
v -6.89597 80.0735 52.6818
v -6.89702 80.0145 52.9347
v -6.89152 79.9226 53.4408
v -6.82988 79.8791 54.4547
v -6.64335 79.8791 55.4518
v -6.21673 79.8791 56.2496
v -5.87551 79.8791 56.5116
v -6.65459 82.5585 50.7441
v -6.65524 82.5592 50.745
v -6.65712 82.5612 50.7477
v -6.66993 82.5719 50.7822
v -6.67839 82.5737 50.8337
v -6.69299 82.5733 50.9411
v -6.78006 82.541 51.5813
v -6.83684 82.4571 51.9996
v -6.86389 82.3812 52.2058
v -6.88545 82.2926 52.4229
v -6.89394 82.2039 52.6702
v -6.89603 82.1196 52.9284
v -6.89131 81.9828 53.4394
v -6.82988 81.9167 54.4547
v -6.64335 81.9167 55.4518
v -6.21673 81.9167 56.2496
v -5.87551 81.9167 56.5116
v -6.65713 84.281 50.7441
v -6.65778 84.2821 50.745
v -6.65962 84.2853 50.7477
v -6.67223 84.3025 50.7822
v -6.68059 84.3055 50.8337
v -6.69504 84.3048 50.941
v -6.78099 84.2605 51.5796
v -6.83598 84.1235 51.9911
v -6.86096 83.9762 52.1891
v -6.88084 83.816 52.4019
v -6.89079 83.6961 52.6543
v -6.89469 83.5983 52.921
v -6.89112 83.4296 53.4383
v -6.82988 83.3452 54.4547
v -6.64335 83.3452 55.4518
v -6.21673 83.3452 56.2496
v -5.87551 83.3452 56.5116
v -6.87715 84.9039 52.396
v -6.88822 84.7664 52.6484
v -6.89366 84.6651 52.9182
v -6.89099 84.4852 53.4379
v -6.82988 84.3932 54.4547
v -6.64335 84.3932 55.4518
v -6.21673 84.3932 56.2496
v -5.87551 84.3932 56.5116
v -6.6615 -79.7297 50.7263
v -6.61724 -78.3835 50.7263
v -6.60405 -75.2543 50.7263
v -6.60212 -69.6467 50.7263
v -6.60161 -44.5472 50.7263
v -6.60161 52.5476 50.7263
v -6.60212 77.1842 50.7263
v -6.60405 82.4955 50.7263
v -6.60564 -79.651 50.7262
v -6.56306 -78.2329 50.7262
v -6.54835 -75.1756 50.7262
v -6.54522 -69.6248 50.7262
v -6.54425 -44.5472 50.7262
v -6.54425 52.5476 50.7262
v -6.54522 77.1642 50.7262
v -6.54835 82.4239 50.7262
v -6.54983 -79.5752 50.7262
v -6.50883 -78.0898 50.7262
v -6.49272 -75.0997 50.7262
v -6.48843 -69.6034 50.7262
v -6.48701 -44.5472 50.7262
v -6.48701 52.5476 50.7262
v -6.48843 77.1448 50.7262
v -6.49272 82.3548 50.7262
v -6.49395 -79.5033 50.7262
v -6.45437 -77.9576 50.7262
v -6.43701 -75.0279 50.7262
v -6.43163 -69.5827 50.7262
v -6.42977 -44.5472 50.7262
v -6.42977 52.5476 50.7262
v -6.43163 77.1259 50.7262
v -6.43701 82.2894 50.7262
v -6.45437 84.9665 50.7262
v -6.43698 -79.4356 50.7262
v -6.39865 -77.8378 50.7262
v -6.38022 -74.9602 50.7262
v -6.37384 -69.5626 50.7262
v -6.37156 -44.5472 50.7262
v -6.37156 52.5476 50.7262
v -6.37384 77.1076 50.7262
v -6.38022 82.2277 50.7262
v -6.39865 84.8575 50.7262
v -6.3818 -79.3764 50.7262
v -6.34445 -77.7386 50.7262
v -6.32521 -74.9009 50.7262
v -6.31797 -69.5442 50.7262
v -6.3153 -44.5472 50.7262
v -6.3153 52.5476 50.7262
v -6.31797 77.0908 50.7262
v -6.32521 82.1738 50.7262
v -6.34445 84.7671 50.7262
v -6.32552 -79.3225 50.7262
v -6.28896 -77.6532 50.7262
v -6.2691 -74.847 50.7262
v -6.2611 -69.5268 50.7262
v -6.25806 -44.5472 50.7262
v -6.25806 52.5476 50.7262
v -6.2611 77.075 50.7262
v -6.2691 82.1247 50.7262
v -6.28896 84.6894 50.7262
v -6.2691 -79.275 50.7262
v -6.23317 -77.5819 50.7262
v -6.21285 -74.7995 50.7262
v -6.20419 -69.511 50.7262
v -6.20082 -44.5472 50.7262
v -6.20082 52.5476 50.7262
v -6.20419 77.0606 50.7262
v -6.21285 82.0815 50.7262
v -6.23317 84.6245 50.7262
v -6.21254 -79.2339 50.7262
v -6.1771 -77.5228 50.7262
v -6.15647 -74.7585 50.7262
v -6.14725 -69.497 50.7262
v -6.14359 -44.5472 50.7262
v -6.14359 52.5476 50.7262
v -6.14725 77.0479 50.7262
v -6.15647 82.0441 50.7262
v -6.1771 84.5707 50.7262
v -6.1559 -79.1992 50.7262
v -6.12088 -77.4743 50.7262
v -6.1 -74.7238 50.7262
v -6.09032 -69.485 50.7262
v -6.08642 -44.5472 50.7262
v -6.08642 52.5476 50.7262
v -6.09032 77.0369 50.7262
v -6.1 82.0125 50.7262
v -6.12088 84.5265 50.7262
v -6.099 -79.1707 50.7262
v -6.06432 -77.4346 50.7262
v -6.04327 -74.6952 50.7262
v -6.03322 -69.475 50.7262
v -6.02911 -44.5472 50.7262
v -6.02911 52.5476 50.7262
v -6.03322 77.0279 50.7262
v -6.04327 81.9865 50.7262
v -6.06432 84.4903 50.7262
v -6.04204 -79.1479 50.7262
v -6.00766 -77.4029 50.7262
v -5.98649 -74.6724 50.7262
v -5.97615 -69.4671 50.7262
v -5.97188 -44.5472 50.7262
v -5.97188 52.5476 50.7262
v -5.97615 77.0206 50.7262
v -5.98649 81.9657 50.7262
v -6.00766 84.4614 50.7262
v -5.98497 -79.1301 50.7262
v -5.95085 -77.3781 50.7262
v -5.92959 -74.6546 50.7262
v -5.91903 -69.4609 50.7262
v -5.91464 -44.5472 50.7262
v -5.91464 52.5476 50.7262
v -5.91903 77.015 50.7262
v -5.92959 81.9495 50.7262
v -5.95085 84.4389 50.7262
v -5.9278 -79.1167 50.7262
v -5.8939 -77.3595 50.7262
v -5.8726 -74.6413 50.7262
v -5.86188 -69.4563 50.7262
v -5.8574 -44.5472 50.7262
v -5.8574 52.5476 50.7262
v -5.86188 77.0108 50.7262
v -5.8726 81.9374 50.7262
v -5.8939 84.422 50.7262
v -5.87055 -79.1072 50.7262
v -5.83684 -77.3462 50.7262
v -5.81552 -74.6317 50.7262
v -5.8047 -69.4529 50.7262
v -5.80016 -44.5472 50.7262
v -5.80016 52.5476 50.7262
v -5.8047 77.0077 50.7262
v -5.81552 81.9287 50.7262
v -5.83684 84.4099 50.7262
v -5.81323 -79.1008 50.7262
v -5.77968 -77.3373 50.7262
v -5.75837 -74.6253 50.7262
v -5.7475 -69.4507 50.7262
v -5.74293 -44.5472 50.7262
v -5.74293 52.5476 50.7262
v -5.7475 77.0057 50.7262
v -5.75837 81.9228 50.7262
v -5.77968 84.4017 50.7262
v -5.75585 -79.0969 50.7262
v -5.72244 -77.3319 50.7262
v -5.70117 -74.6214 50.7262
v -5.69027 -69.4493 50.7262
v -5.68569 -44.5472 50.7262
v -5.68569 52.5476 50.7262
v -5.69027 77.0045 50.7262
v -5.70117 81.9193 50.7262
v -5.72244 84.3968 50.7262
v -5.69844 -79.0949 50.7262
v -5.66515 -77.3291 50.7262
v -5.64393 -74.6194 50.7262
v -5.63304 -69.4487 50.7262
v -5.62845 -44.5472 50.7262
v -5.62845 52.5476 50.7262
v -5.63304 77.0039 50.7262
v -5.64393 81.9175 50.7262
v -5.66515 84.3943 50.7262
v -5.64099 -79.0941 50.7262
v -5.60782 -77.3281 50.7262
v -5.58666 -74.6187 50.7262
v -5.57579 -69.4484 50.7262
v -5.57122 -44.5472 50.7262
v -5.57122 52.5476 50.7262
v -5.57579 77.0036 50.7262
v -5.58666 81.9168 50.7262
v -5.60782 84.3934 50.7262
v -5.58353 -79.094 50.7262
v -5.55047 -77.3279 50.7262
v -5.52937 -74.6185 50.7262
v -5.51854 -69.4483 50.7262
v -5.51398 -44.5472 50.7262
v -5.51398 52.5476 50.7262
v -5.51854 77.0036 50.7262
v -5.52937 81.9167 50.7262
v -5.55047 84.3932 50.7262
v -6.65459 82.5585 50.7441
v -6.65391 80.2625 50.7441
v -6.65374 77.2016 50.7441
v -6.65368 73.145 50.7441
v -6.65366 70.6672 50.7441
v -6.65365 67.8486 50.7441
v -6.65364 64.6583 50.7441
v -6.65364 61.0653 50.7441
v -6.65364 57.0387 50.7441
v -6.65364 52.5476 50.7441
v -6.65364 48.8624 50.7441
v -6.65364 44.9244 50.7441
v -6.65364 40.7598 50.7441
v -6.65364 36.3945 50.7441
v -6.65364 31.8545 50.7441
v -6.65364 27.1657 50.7441
v -6.65364 22.3543 50.7441
v -6.65364 17.4461 50.7441
v -6.65364 12.4671 50.7441
v -6.65364 7.4434 50.7441
v -6.65364 2.40092 50.7441
v -6.65364 -2.63435 50.7441
v -6.65364 -7.6364 50.7441
v -6.65364 -12.5792 50.7441
v -6.65364 -17.4369 50.7441
v -6.65364 -22.1834 50.7441
v -6.65364 -25.2731 50.7441
v -6.65364 -28.2942 50.7441
v -6.65364 -31.2388 50.7441
v -6.65364 -34.0995 50.7441
v -6.65364 -36.8683 50.7441
v -6.65364 -39.5377 50.7441
v -6.65364 -44.5472 50.7441
v -6.65364 -49.0819 50.7441
v -6.65364 -53.1568 50.7441
v -6.65364 -56.8027 50.7441
v -6.65365 -60.05 50.7441
v -6.65366 -62.9294 50.7441
v -6.65368 -65.4714 50.7441
v -6.65374 -69.6658 50.7441
v -6.65391 -72.8743 50.7441
v -6.65459 -75.3235 50.7441
v -6.66633 -78.5169 50.7441
v -6.7116 -79.799 50.7441
f 19 2 1 18
f 20 3 2 19
f 21 4 3 20
f 22 5 4 21
f 23 6 5 22
f 24 7 6 23
f 25 8 7 24
f 26 9 8 25
f 27 10 9 26
f 28 11 10 27
f 29 12 11 28
f 30 13 12 29
f 31 14 13 30
f 32 15 14 31
f 33 16 15 32
f 34 17 16 33
f 36 19 18 35
f 37 20 19 36
f 38 21 20 37
f 39 22 21 38
f 40 23 22 39
f 41 24 23 40
f 42 25 24 41
f 43 26 25 42
f 44 27 26 43
f 45 28 27 44
f 46 29 28 45
f 47 30 29 46
f 48 31 30 47
f 49 32 31 48
f 50 33 32 49
f 51 34 33 50
f 53 36 35 52
f 54 37 36 53
f 55 38 37 54
f 56 39 38 55
f 57 40 39 56
f 58 41 40 57
f 59 42 41 58
f 60 43 42 59
f 61 44 43 60
f 62 45 44 61
f 63 46 45 62
f 64 47 46 63
f 65 48 47 64
f 66 49 48 65
f 67 50 49 66
f 68 51 50 67
f 70 53 52 69
f 71 54 53 70
f 72 55 54 71
f 73 56 55 72
f 74 57 56 73
f 75 58 57 74
f 76 59 58 75
f 77 60 59 76
f 78 61 60 77
f 79 62 61 78
f 80 63 62 79
f 81 64 63 80
f 82 65 64 81
f 83 66 65 82
f 84 67 66 83
f 85 68 67 84
f 87 70 69 86
f 88 71 70 87
f 89 72 71 88
f 90 73 72 89
f 91 74 73 90
f 92 75 74 91
f 93 76 75 92
f 94 77 76 93
f 95 78 77 94
f 96 79 78 95
f 97 80 79 96
f 98 81 80 97
f 99 82 81 98
f 100 83 82 99
f 101 84 83 100
f 102 85 84 101
f 104 87 86 103
f 105 88 87 104
f 106 89 88 105
f 107 90 89 106
f 108 91 90 107
f 109 92 91 108
f 110 93 92 109
f 111 94 93 110
f 112 95 94 111
f 113 96 95 112
f 114 97 96 113
f 115 98 97 114
f 116 99 98 115
f 117 100 99 116
f 118 101 100 117
f 119 102 101 118
f 121 104 103 120
f 122 105 104 121
f 123 106 105 122
f 124 107 106 123
f 125 108 107 124
f 126 109 108 125
f 127 110 109 126
f 128 111 110 127
f 129 112 111 128
f 130 113 112 129
f 131 114 113 130
f 132 115 114 131
f 133 116 115 132
f 134 117 116 133
f 135 118 117 134
f 136 119 118 135
f 138 121 120 137
f 139 122 121 138
f 140 123 122 139
f 141 124 123 140
f 142 125 124 141
f 143 126 125 142
f 144 127 126 143
f 145 128 127 144
f 146 129 128 145
f 147 130 129 146
f 148 131 130 147
f 149 132 131 148
f 150 133 132 149
f 151 134 133 150
f 152 135 134 151
f 153 136 135 152
f 155 138 137 154
f 156 139 138 155
f 157 140 139 156
f 158 141 140 157
f 159 142 141 158
f 160 143 142 159
f 161 144 143 160
f 162 145 144 161
f 163 146 145 162
f 164 147 146 163
f 165 148 147 164
f 166 149 148 165
f 167 150 149 166
f 168 151 150 167
f 169 152 151 168
f 170 153 152 169
f 172 155 154 171
f 173 156 155 172
f 174 157 156 173
f 175 158 157 174
f 176 159 158 175
f 177 160 159 176
f 178 161 160 177
f 179 162 161 178
f 180 163 162 179
f 181 164 163 180
f 182 165 164 181
f 183 166 165 182
f 184 167 166 183
f 185 168 167 184
f 186 169 168 185
f 187 170 169 186
f 189 172 171 188
f 190 173 172 189
f 191 174 173 190
f 192 175 174 191
f 193 176 175 192
f 194 177 176 193
f 195 178 177 194
f 196 179 178 195
f 197 180 179 196
f 198 181 180 197
f 199 182 181 198
f 200 183 182 199
f 201 184 183 200
f 202 185 184 201
f 203 186 185 202
f 204 187 186 203
f 206 189 188 205
f 207 190 189 206
f 208 191 190 207
f 209 192 191 208
f 210 193 192 209
f 211 194 193 210
f 212 195 194 211
f 213 196 195 212
f 214 197 196 213
f 215 198 197 214
f 216 199 198 215
f 217 200 199 216
f 218 201 200 217
f 219 202 201 218
f 220 203 202 219
f 221 204 203 220
f 223 206 205 222
f 224 207 206 223
f 225 208 207 224
f 226 209 208 225
f 227 210 209 226
f 228 211 210 227
f 229 212 211 228
f 230 213 212 229
f 231 214 213 230
f 232 215 214 231
f 233 216 215 232
f 234 217 216 233
f 235 218 217 234
f 236 219 218 235
f 237 220 219 236
f 238 221 220 237
f 240 223 222 239
f 241 224 223 240
f 242 225 224 241
f 243 226 225 242
f 244 227 226 243
f 245 228 227 244
f 246 229 228 245
f 247 230 229 246
f 248 231 230 247
f 249 232 231 248
f 250 233 232 249
f 251 234 233 250
f 252 235 234 251
f 253 236 235 252
f 254 237 236 253
f 255 238 237 254
f 257 240 239 256
f 258 241 240 257
f 259 242 241 258
f 260 243 242 259
f 261 244 243 260
f 262 245 244 261
f 263 246 245 262
f 264 247 246 263
f 265 248 247 264
f 266 249 248 265
f 267 250 249 266
f 268 251 250 267
f 269 252 251 268
f 270 253 252 269
f 271 254 253 270
f 272 255 254 271
f 274 257 256 273
f 275 258 257 274
f 276 259 258 275
f 277 260 259 276
f 278 261 260 277
f 279 262 261 278
f 280 263 262 279
f 281 264 263 280
f 282 265 264 281
f 283 266 265 282
f 284 267 266 283
f 285 268 267 284
f 286 269 268 285
f 287 270 269 286
f 288 271 270 287
f 289 272 271 288
f 291 274 273 290
f 292 275 274 291
f 293 276 275 292
f 294 277 276 293
f 295 278 277 294
f 296 279 278 295
f 297 280 279 296
f 298 281 280 297
f 299 282 281 298
f 300 283 282 299
f 301 284 283 300
f 302 285 284 301
f 303 286 285 302
f 304 287 286 303
f 305 288 287 304
f 306 289 288 305
f 308 291 290 307
f 309 292 291 308
f 310 293 292 309
f 311 294 293 310
f 312 295 294 311
f 313 296 295 312
f 314 297 296 313
f 315 298 297 314
f 316 299 298 315
f 317 300 299 316
f 318 301 300 317
f 319 302 301 318
f 320 303 302 319
f 321 304 303 320
f 322 305 304 321
f 323 306 305 322
f 325 308 307 324
f 326 309 308 325
f 327 310 309 326
f 328 311 310 327
f 329 312 311 328
f 330 313 312 329
f 331 314 313 330
f 332 315 314 331
f 333 316 315 332
f 334 317 316 333
f 335 318 317 334
f 336 319 318 335
f 337 320 319 336
f 338 321 320 337
f 339 322 321 338
f 340 323 322 339
f 342 325 324 341
f 343 326 325 342
f 344 327 326 343
f 345 328 327 344
f 346 329 328 345
f 347 330 329 346
f 348 331 330 347
f 349 332 331 348
f 350 333 332 349
f 351 334 333 350
f 352 335 334 351
f 353 336 335 352
f 354 337 336 353
f 355 338 337 354
f 356 339 338 355
f 357 340 339 356
f 359 342 341 358
f 360 343 342 359
f 361 344 343 360
f 362 345 344 361
f 363 346 345 362
f 364 347 346 363
f 365 348 347 364
f 366 349 348 365
f 367 350 349 366
f 368 351 350 367
f 369 352 351 368
f 370 353 352 369
f 371 354 353 370
f 372 355 354 371
f 373 356 355 372
f 374 357 356 373
f 376 359 358 375
f 377 360 359 376
f 378 361 360 377
f 379 362 361 378
f 380 363 362 379
f 381 364 363 380
f 382 365 364 381
f 383 366 365 382
f 384 367 366 383
f 385 368 367 384
f 386 369 368 385
f 387 370 369 386
f 388 371 370 387
f 389 372 371 388
f 390 373 372 389
f 391 374 373 390
f 393 385 384 392
f 394 386 385 393
f 395 387 386 394
f 396 388 387 395
f 397 389 388 396
f 398 390 389 397
f 399 391 390 398
f 409 401 400 408
f 410 402 401 409
f 411 403 402 410
f 412 404 403 411
f 413 405 404 412
f 414 406 405 413
f 415 407 406 414
f 417 409 408 416
f 418 410 409 417
f 419 411 410 418
f 420 412 411 419
f 421 413 412 420
f 422 414 413 421
f 423 415 414 422
f 425 417 416 424
f 426 418 417 425
f 427 419 418 426
f 428 420 419 427
f 429 421 420 428
f 430 422 421 429
f 431 423 422 430
f 434 425 424 433
f 435 426 425 434
f 436 427 426 435
f 437 428 427 436
f 438 429 428 437
f 439 430 429 438
f 440 431 430 439
f 441 432 431 440
f 443 434 433 442
f 444 435 434 443
f 445 436 435 444
f 446 437 436 445
f 447 438 437 446
f 448 439 438 447
f 449 440 439 448
f 450 441 440 449
f 452 443 442 451
f 453 444 443 452
f 454 445 444 453
f 455 446 445 454
f 456 447 446 455
f 457 448 447 456
f 458 449 448 457
f 459 450 449 458
f 461 452 451 460
f 462 453 452 461
f 463 454 453 462
f 464 455 454 463
f 465 456 455 464
f 466 457 456 465
f 467 458 457 466
f 468 459 458 467
f 470 461 460 469
f 471 462 461 470
f 472 463 462 471
f 473 464 463 472
f 474 465 464 473
f 475 466 465 474
f 476 467 466 475
f 477 468 467 476
f 479 470 469 478
f 480 471 470 479
f 481 472 471 480
f 482 473 472 481
f 483 474 473 482
f 484 475 474 483
f 485 476 475 484
f 486 477 476 485
f 488 479 478 487
f 489 480 479 488
f 490 481 480 489
f 491 482 481 490
f 492 483 482 491
f 493 484 483 492
f 494 485 484 493
f 495 486 485 494
f 497 488 487 496
f 498 489 488 497
f 499 490 489 498
f 500 491 490 499
f 501 492 491 500
f 502 493 492 501
f 503 494 493 502
f 504 495 494 503
f 506 497 496 505
f 507 498 497 506
f 508 499 498 507
f 509 500 499 508
f 510 501 500 509
f 511 502 501 510
f 512 503 502 511
f 513 504 503 512
f 515 506 505 514
f 516 507 506 515
f 517 508 507 516
f 518 509 508 517
f 519 510 509 518
f 520 511 510 519
f 521 512 511 520
f 522 513 512 521
f 524 515 514 523
f 525 516 515 524
f 526 517 516 525
f 527 518 517 526
f 528 519 518 527
f 529 520 519 528
f 530 521 520 529
f 531 522 521 530
f 533 524 523 532
f 534 525 524 533
f 535 526 525 534
f 536 527 526 535
f 537 528 527 536
f 538 529 528 537
f 539 530 529 538
f 540 531 530 539
f 542 533 532 541
f 543 534 533 542
f 544 535 534 543
f 545 536 535 544
f 546 537 536 545
f 547 538 537 546
f 548 539 538 547
f 549 540 539 548
f 551 542 541 550
f 552 543 542 551
f 553 544 543 552
f 554 545 544 553
f 555 546 545 554
f 556 547 546 555
f 557 548 547 556
f 558 549 548 557
f 560 551 550 559
f 561 552 551 560
f 562 553 552 561
f 563 554 553 562
f 564 555 554 563
f 565 556 555 564
f 566 557 556 565
f 567 558 557 566
f 569 560 559 568
f 570 561 560 569
f 571 562 561 570
f 572 563 562 571
f 573 564 563 572
f 574 565 564 573
f 575 566 565 574
f 576 567 566 575
f 618 619 401
f 619 620 400
f 617 618 402
f 403 614 615
f 614 403 613
f 403 616 617
f 611 612 404
f 611 404 610
f 610 404 609
f 609 404 608
f 615 616 403
f 613 404 612
f 607 404 606
f 604 605 404
f 604 404 603
f 606 404 605
f 602 603 404
f 404 601 602
f 404 607 608
f 404 599 600
f 597 598 404
f 597 405 596
f 598 599 404
f 405 591 592
f 592 593 405
f 593 594 405
f 405 594 595
f 596 405 595
f 405 589 590
f 587 588 405
f 588 589 405
f 591 405 590
f 585 586 405
f 584 585 405
f 583 405 582
f 406 581 582
f 405 583 584
f 586 587 405
f 600 601 404
f 577 578 407
f 579 406 578
f 406 580 581
f 580 406 579
f 618 401 402
f 617 402 403
f 619 400 401
f 597 404 405
f 582 405 406
f 613 403 404
f 578 406 407
