# Created by Open3D 
# object name: InfoWheels Sliding Door Glass
# number of vertices: 48
# number of triangles: 24
mtllib InfoWheels Sliding Door Glass.mtl
v -2.37252 3.48215 48.1444
vn -1 0 0
v -2.37252 3.48215 -36.5603
vn -1 0 0
v -2.37252 -31.5178 -36.5603
vn -1 0 0
v -2.37252 -31.5178 48.1444
vn -1 0 0
v -2.11662 3.48215 48.1444
vn 0 0 1
v -2.37252 3.48215 48.1444
vn 0 0 1
v -2.37252 -31.5178 48.1444
vn 0 0 1
v -2.11662 -31.5178 48.1444
vn 0 0 1
v -2.11662 3.48215 -36.5603
vn 0 1 0
v -2.37252 3.48215 -36.5603
vn 0 1 0
v -2.37252 3.48215 48.1444
vn 0 1 0
v -2.11662 3.48215 48.1444
vn 0 1 0
v -2.11662 -31.5178 -36.5603
vn 0 0 -1
v -2.37252 -31.5178 -36.5603
vn 0 0 -1
v -2.37252 3.48215 -36.5603
vn 0 0 -1
v -2.11662 3.48215 -36.5603
vn 0 0 -1
v -2.11662 -31.5178 48.1444
vn 0 -1 0
v -2.37252 -31.5178 48.1444
vn 0 -1 0
v -2.37252 -31.5178 -36.5603
vn 0 -1 0
v -2.11662 -31.5178 -36.5603
vn 0 -1 0
v -2.11662 -31.5178 48.1444
vn 1 0 0
v -2.11662 -31.5178 -36.5603
vn 1 0 0
v -2.11662 3.48215 -36.5603
vn 1 0 0
v -2.11662 3.48215 48.1444
vn 1 0 0
v -0.5615 3.48215 48.1444
vn -1 0 0
v -0.5615 3.48215 -36.5603
vn -1 0 0
v -0.5615 -31.5178 -36.5603
vn -1 0 0
v -0.5615 -31.5178 48.1444
vn -1 0 0
v -0.305595 -31.5178 48.1444
vn 0 -1 0
v -0.5615 -31.5178 48.1444
vn 0 -1 0
v -0.5615 -31.5178 -36.5603
vn 0 -1 0
v -0.305595 -31.5178 -36.5603
vn 0 -1 0
v -0.305595 3.48215 48.1444
vn 0 0 1
v -0.5615 3.48215 48.1444
vn 0 0 1
v -0.5615 -31.5178 48.1444
vn 0 0 1
v -0.305595 -31.5178 48.1444
vn 0 0 1
v -0.305595 3.48215 -36.5603
vn 0 1 0
v -0.5615 3.48215 -36.5603
vn 0 1 0
v -0.5615 3.48215 48.1444
vn 0 1 0
v -0.305595 3.48215 48.1444
vn 0 1 0
v -0.305595 -31.5178 -36.5603
vn 0 0 -1
v -0.5615 -31.5178 -36.5603
vn 0 0 -1
v -0.5615 3.48215 -36.5603
vn 0 0 -1
v -0.305595 3.48215 -36.5603
vn 0 0 -1
v -0.305595 -31.5178 48.1444
vn 1 0 0
v -0.305595 -31.5178 -36.5603
vn 1 0 0
v -0.305595 3.48215 -36.5603
vn 1 0 0
v -0.305595 3.48215 48.1444
vn 1 0 0
vt 0.00600601 0.500604
vt 0.998535 0.500604
vt 0.998535 0.911323
vt 0.00600601 0.500604
vt 0.998535 0.911323
vt 0.00600601 0.911323
vt 0.00600601 0.00661046
vt 0.00600601 0.00360746
vt 0.416724 0.00360746
vt 0.00600601 0.00661046
vt 0.416724 0.00360746
vt 0.416724 0.00661046
vt 0.003003 0
vt 0.00600601 0
vt 0.00600601 0.992529
vt 0.003003 0
vt 0.00600601 0.992529
vt 0.003003 0.992529
vt 0.00600601 0.003003
vt 0.00600601 0
vt 0.416724 0
vt 0.00600601 0.003003
vt 0.416724 0
vt 0.416724 0.003003
vt 0 0
vt 0.003003 0
vt 0.003003 0.992529
vt 0 0
vt 0.003003 0.992529
vt 0 0.992529
vt 0.00600601 0.00721492
vt 0.998535 0.00721492
vt 0.998535 0.417933
vt 0.00600601 0.00721492
vt 0.998535 0.417933
vt 0.00600601 0.417933
vt 0.00600601 0.500604
vt 0.998535 0.500604
vt 0.998535 0.911323
vt 0.00600601 0.500604
vt 0.998535 0.911323
vt 0.00600601 0.911323
vt 0 0
vt 0.003003 0
vt 0.003003 0.992529
vt 0 0
vt 0.003003 0.992529
vt 0 0.992529
vt 0.00600601 0.00661046
vt 0.00600601 0.00360746
vt 0.416724 0.00360746
vt 0.00600601 0.00661046
vt 0.416724 0.00360746
vt 0.416724 0.00661046
vt 0.003003 0
vt 0.00600601 0
vt 0.00600601 0.992529
vt 0.003003 0
vt 0.00600601 0.992529
vt 0.003003 0.992529
vt 0.00600601 0.003003
vt 0.00600601 0
vt 0.416724 0
vt 0.00600601 0.003003
vt 0.416724 0
vt 0.416724 0.003003
vt 0.00600601 0.00721492
vt 0.998535 0.00721492
vt 0.998535 0.417933
vt 0.00600601 0.00721492
vt 0.998535 0.417933
vt 0.00600601 0.417933
usemtl InfoWheels Sliding Door Glass_1
f 1/1/1 2/2/2 3/3/3
f 1/4/1 3/5/3 4/6/4
f 5/7/5 6/8/6 7/9/7
f 5/10/5 7/11/7 8/12/8
f 9/13/9 10/14/10 11/15/11
f 9/16/9 11/17/11 12/18/12
f 13/19/13 14/20/14 15/21/15
f 13/22/13 15/23/15 16/24/16
f 17/25/17 18/26/18 19/27/19
f 17/28/17 19/29/19 20/30/20
f 21/31/21 22/32/22 23/33/23
f 21/34/21 23/35/23 24/36/24
f 25/37/25 26/38/26 27/39/27
f 25/40/25 27/41/27 28/42/28
f 29/43/29 30/44/30 31/45/31
f 29/46/29 31/47/31 32/48/32
f 33/49/33 34/50/34 35/51/35
f 33/52/33 35/53/35 36/54/36
f 37/55/37 38/56/38 39/57/39
f 37/58/37 39/59/39 40/60/40
f 41/61/41 42/62/42 43/63/43
f 41/64/41 43/65/43 44/66/44
f 45/67/45 46/68/46 47/69/47
f 45/70/45 47/71/47 48/72/48
