# Created by Open3D 
# object name: InfoWheels Exterior Roof Solar Panels
# number of vertices: 56
# number of triangles: 40
mtllib InfoWheels Exterior Roof Solar Panels.mtl
v 71.0901 -37.5646 56.6208
vn 0 0 1
v 2.19244 -37.0921 56.6208
vn 0 0 1
v 2.66488 -37.5646 56.6208
vn 0 0 1
v 2.19244 -81.7378 56.6208
vn 0 0 1
v 71.0901 -81.2654 56.6208
vn 0 0 1
v 71.5625 -37.0921 56.6208
vn 0 0 1
v 2.66488 -81.2654 56.6208
vn 0 0 1
v 71.5625 -81.7378 56.6208
vn 0 0 1
v 71.5625 -37.0921 55.4397
vn 0 0 -1
v 3.37354 -38.2732 55.4397
vn 0 0 -1
v 2.19244 -37.0921 55.4397
vn 0 0 -1
v 70.3814 -80.5567 55.4397
vn 0 0 -1
v 70.3814 -38.2732 55.4397
vn 0 0 -1
v 71.5625 -81.7378 55.4397
vn 0 0 -1
v 71.0901 7.27796 56.6208
vn 0 0 1
v 2.19244 7.7504 56.6208
vn 0 0 1
v 2.66488 7.27796 56.6208
vn 0 0 1
v 2.19244 -36.8953 56.6208
vn 0 0 1
v 71.0901 -36.4228 56.6208
vn 0 0 1
v 71.5625 7.7504 56.6208
vn 0 0 1
v 2.66488 -36.4228 56.6208
vn 0 0 1
v 71.5625 -36.8953 56.6208
vn 0 0 1
v 71.5625 7.7504 55.4397
vn 0 0 -1
v 3.37354 6.5693 55.4397
vn 0 0 -1
v 2.19244 7.7504 55.4397
vn 0 0 -1
v 70.3814 -35.7142 55.4397
vn 0 0 -1
v 70.3814 6.5693 55.4397
vn 0 0 -1
v 71.5625 -36.8953 55.4397
vn 0 0 -1
v 71.0901 52.1205 56.6208
vn 0 0 1
v 2.19244 52.5929 56.6208
vn 0 0 1
v 2.66488 52.1205 56.6208
vn 0 0 1
v 2.19244 7.94725 56.6208
vn 0 0 1
v 71.0901 8.41969 56.6208
vn 0 0 1
v 71.5625 52.5929 56.6208
vn 0 0 1
v 2.66488 8.41969 56.6208
vn 0 0 1
v 71.5625 7.94725 56.6208
vn 0 0 1
v 71.5625 52.5929 55.4397
vn 0 0 -1
v 3.37354 51.4118 55.4397
vn 0 0 -1
v 2.19244 52.5929 55.4397
vn 0 0 -1
v 70.3814 9.12835 55.4397
vn 0 0 -1
v 70.3814 51.4118 55.4397
vn 0 0 -1
v 71.5625 7.94725 55.4397
vn 0 0 -1
v 71.0901 96.963 56.6208
vn 0 0 1
v 2.19244 97.4354 56.6208
vn 0 0 1
v 2.66488 96.963 56.6208
vn 0 0 1
v 2.19244 52.7898 56.6208
vn 0 0 1
v 71.0901 53.2622 56.6208
vn 0 0 1
v 71.5625 97.4354 56.6208
vn 0 0 1
v 2.66488 53.2622 56.6208
vn 0 0 1
v 71.5625 52.7898 56.6208
vn 0 0 1
v 71.5625 97.4354 55.4397
vn 0 0 -1
v 3.37354 96.2543 55.4397
vn 0 0 -1
v 2.19244 97.4354 55.4397
vn 0 0 -1
v 70.3814 53.9709 55.4397
vn 0 0 -1
v 70.3814 96.2543 55.4397
vn 0 0 -1
v 71.5625 52.7898 55.4397
vn 0 0 -1
vt 0.345389 0.00360114
vt 0.872815 0
vt 0.869198 0.00360114
vt 0.872815 0.340307
vt 0.869198 0.00360114
vt 0.872815 0
vt 0.345389 0.336706
vt 0.341772 0
vt 0.345389 0.00360114
vt 0.872815 0
vt 0.345389 0.00360114
vt 0.341772 0
vt 0.869198 0.00360114
vt 0.872815 0.340307
vt 0.869198 0.336706
vt 0.341772 0
vt 0.345389 0.336706
vt 0.341772 0.340307
vt 0 0.531043
vt 0.00900284 0.00904159
vt 0 0
vt 0.331304 0.522001
vt 0.00900284 0.522001
vt 0 0.531043
vt 0.00900284 0.00904159
vt 0 0.531043
vt 0.00900284 0.522001
vt 0 0.531043
vt 0.340307 0.531043
vt 0.331304 0.522001
vt 0.345389 0.00360114
vt 0.872815 0
vt 0.869198 0.00360114
vt 0.872815 0.340307
vt 0.869198 0.00360114
vt 0.872815 0
vt 0.345389 0.336706
vt 0.341772 0
vt 0.345389 0.00360114
vt 0.872815 0
vt 0.345389 0.00360114
vt 0.341772 0
vt 0.869198 0.00360114
vt 0.872815 0.340307
vt 0.869198 0.336706
vt 0.341772 0
vt 0.345389 0.336706
vt 0.341772 0.340307
vt 0 0.531043
vt 0.00900284 0.00904159
vt 0 0
vt 0.331304 0.522001
vt 0.00900284 0.522001
vt 0 0.531043
vt 0.00900284 0.00904159
vt 0 0.531043
vt 0.00900284 0.522001
vt 0 0.531043
vt 0.340307 0.531043
vt 0.331304 0.522001
vt 0.345389 0.00360114
vt 0.872815 0
vt 0.869198 0.00360114
vt 0.872815 0.340307
vt 0.869198 0.00360114
vt 0.872815 0
vt 0.345389 0.336706
vt 0.341772 0
vt 0.345389 0.00360114
vt 0.872815 0
vt 0.345389 0.00360114
vt 0.341772 0
vt 0.869198 0.00360114
vt 0.872815 0.340307
vt 0.869198 0.336706
vt 0.341772 0
vt 0.345389 0.336706
vt 0.341772 0.340307
vt 0 0.531043
vt 0.00900284 0.00904159
vt 0 0
vt 0.331304 0.522001
vt 0.00900284 0.522001
vt 0 0.531043
vt 0.00900284 0.00904159
vt 0 0.531043
vt 0.00900284 0.522001
vt 0 0.531043
vt 0.340307 0.531043
vt 0.331304 0.522001
vt 0.345389 0.00360114
vt 0.872815 0
vt 0.869198 0.00360114
vt 0.872815 0.340307
vt 0.869198 0.00360114
vt 0.872815 0
vt 0.345389 0.336706
vt 0.341772 0
vt 0.345389 0.00360114
vt 0.872815 0
vt 0.345389 0.00360114
vt 0.341772 0
vt 0.869198 0.00360114
vt 0.872815 0.340307
vt 0.869198 0.336706
vt 0.341772 0
vt 0.345389 0.336706
vt 0.341772 0.340307
vt 0 0.531043
vt 0.00900284 0.00904159
vt 0 0
vt 0.331304 0.522001
vt 0.00900284 0.522001
vt 0 0.531043
vt 0.00900284 0.00904159
vt 0 0.531043
vt 0.00900284 0.522001
vt 0 0.531043
vt 0.340307 0.531043
vt 0.331304 0.522001
usemtl InfoWheels Exterior Roof Solar Panels_1
f 1/1/1 2/2/2 3/3/3
f 4/4/4 3/5/3 2/6/2
f 5/7/5 6/8/6 1/9/1
f 2/10/2 1/11/1 6/12/6
f 3/13/3 4/14/4 7/15/7
f 6/16/6 5/17/5 8/18/8
f 9/19/9 10/20/10 11/21/11
f 12/22/12 13/23/13 9/24/9
f 10/25/10 9/26/9 13/27/13
f 9/28/9 14/29/14 12/30/12
f 15/31/15 16/32/16 17/33/17
f 18/34/18 17/35/17 16/36/16
f 19/37/19 20/38/20 15/39/15
f 16/40/16 15/41/15 20/42/20
f 17/43/17 18/44/18 21/45/21
f 20/46/20 19/47/19 22/48/22
f 23/49/23 24/50/24 25/51/25
f 26/52/26 27/53/27 23/54/23
f 24/55/24 23/56/23 27/57/27
f 23/58/23 28/59/28 26/60/26
f 29/61/29 30/62/30 31/63/31
f 32/64/32 31/65/31 30/66/30
f 33/67/33 34/68/34 29/69/29
f 30/70/30 29/71/29 34/72/34
f 31/73/31 32/74/32 35/75/35
f 34/76/34 33/77/33 36/78/36
f 37/79/37 38/80/38 39/81/39
f 40/82/40 41/83/41 37/84/37
f 38/85/38 37/86/37 41/87/41
f 37/88/37 42/89/42 40/90/40
f 43/91/43 44/92/44 45/93/45
f 46/94/46 45/95/45 44/96/44
f 47/97/47 48/98/48 43/99/43
f 44/100/44 43/101/43 48/102/48
f 45/103/45 46/104/46 49/105/49
f 48/106/48 47/107/47 50/108/50
f 51/109/51 52/110/52 53/111/53
f 54/112/54 55/113/55 51/114/51
f 52/115/52 51/116/51 55/117/55
f 51/118/51 56/119/56 54/120/54
