# Created by Open3D 
# object name: InfoWheels Exterior Rear Strut Color
# number of vertices: 269
# number of triangles: 150
v 2.29799 103.484 25.5866
vn -0.486316 0.730501 0.479443
v 2.33867 103.501 25.7047
vn -0.722649 0.687458 -0.0719682
v 2.17851 103.523 25.5009
vn -0.16672 0.547418 0.820084
v 1.4742 102.678 25.9349
vn -0.519344 0.700936 0.488845
v 1.52882 102.692 26.0662
vn -0.727701 0.681288 -0.0793562
v 1.433 102.779 25.8287
vn -0.154358 0.523703 0.8378
v 2.3329 103.497 25.7319
vn -0.738013 0.608392 -0.291886
v 2.32753 104.173 27.1544
vn -0.738117 0.608287 -0.291841
v 1.5412 102.707 26.0801
vn -0.736651 0.609514 -0.292983
v 1.49596 103.344 27.52
vn -0.736614 0.609551 -0.292998
v 2.35549 104.181 27.2976
vn -0.547895 0.731787 0.405338
v 2.4216 104.124 27.3906
vn -0.252561 0.535582 0.805832
v 2.31998 104.169 27.177
vn -0.729412 0.678367 -0.0881903
v 1.56729 103.373 27.6738
vn -0.461007 0.722657 0.515015
v 1.50841 103.36 27.5339
vn -0.719386 0.692135 -0.0585979
v 1.69142 103.359 27.733
vn -0.153528 0.525859 0.836601
v 1.65927 103.521 25.4927
vn -0.0169864 0.418014 0.908282
v 1.92415 103.559 25.4797
vn -0.0167964 0.418133 0.90823
v 1.35692 103.106 25.6773
vn -0.0172199 0.417212 0.908646
v 2.17851 103.523 25.5009
vn -0.016207 0.41793 0.908334
v 1.41187 102.758 25.838
vn -0.015156 0.417311 0.908637
v 2.52813 103.83 27.532
vn -0.0168257 0.416518 0.908972
v 2.36529 103.463 27.6975
vn -0.016988 0.417287 0.908616
v 1.97814 103.281 27.7739
vn -0.0156261 0.415812 0.909316
v 2.43693 104.103 27.4052
vn -0.0151941 0.417305 0.90864
v 1.67029 103.338 27.7423
vn -0.016207 0.41793 0.908334
v 1.82668 94.507 8.27322
vn -0.638477 -0.703882 0.311283
v 1.58483 103.341 27.7369
vn -0.515161 -0.782563 0.349578
v 2.02303 94.397 8.32712
vn -0.339302 -0.857422 0.386913
v 2.25042 94.3592 8.34847
vn 0.0344033 -0.908289 0.416926
v 2.47808 94.3987 8.33436
vn 0.39041 -0.834292 0.389279
v 2.08957 103.293 27.7703
vn 0.250737 -0.878249 0.407198
v 1.86671 103.269 27.7775
vn -0.108455 -0.904342 0.4128
v 2.67525 94.5103 8.28671
vn 0.693371 -0.650351 0.310292
v 2.81532 94.6787 8.21195
vn 0.905391 -0.379718 0.18995
v 2.44109 103.538 27.6642
vn 0.829126 -0.502445 0.245152
v 2.28948 103.387 27.7308
vn 0.577476 -0.738163 0.348764
v 2.87936 94.8814 8.12017
vn 0.997234 -0.059379 0.0446941
v 2.85872 95.0908 8.02377
vn 0.957205 0.269058 -0.106612
v 2.53108 103.932 27.4854
vn 0.991314 0.125349 -0.0397977
v 2.52518 103.728 27.5787
vn 0.973324 -0.201492 0.109732
v 2.42577 104.182 27.3658
vn 0.803987 0.545777 -0.236079
v 2.2924 103.512 25.5166
vn 0.555068 0.759736 -0.338676
v 2.7562 95.2788 7.93577
vn 0.79763 0.553333 -0.240017
v 2.37006 95.4951 7.82977
vn 0.205328 0.89093 -0.405073
v 1.98209 103.592 25.4657
vn 0.0437365 0.908486 -0.415621
v 2.58563 95.4199 7.86805
vn 0.535095 0.771298 -0.344635
v 1.9225 95.4174 7.85749
vn -0.500081 0.783724 -0.368369
v 1.55932 103.474 25.5124
vn -0.628153 0.703068 -0.333346
v 1.75923 103.567 25.4729
vn -0.311712 0.861673 -0.400443
v 2.13859 95.4942 7.82608
vn -0.158876 0.896322 -0.413962
v 1.75096 95.2749 7.91976
vn -0.777572 0.566185 -0.273525
v 1.40771 103.322 25.579
vn -0.862947 0.453407 -0.223036
v 1.64714 95.0862 8.00447
vn -0.95071 0.275085 -0.143105
v 1.32362 103.133 25.6645
vn -0.985851 0.145126 -0.0838842
v 1.70548 94.6419 8.20921
vn -0.850782 -0.483369 0.206215
v 1.44186 102.659 25.8934
vn -0.81715 -0.529358 0.228136
v 1.31771 102.929 25.7578
vn -0.981025 -0.182205 0.066269
v 1.62506 94.8765 8.10019
vn -0.998563 -0.0531847 0.00657332
v 2.49302 95.4051 7.87322
vn -0.445696 -0.81657 0.366836
v 2.18533 103.494 25.5141
vn -0.368761 -0.84735 0.382117
v 2.25418 95.4507 7.84806
vn 0.0406 -0.90794 0.417129
v 1.88078 103.543 25.4861
vn 0.0846684 -0.905185 0.416498
v 2.04786 95.4149 7.86084
vn 0.392158 -0.833486 0.389247
v 1.52242 103.382 25.5537
vn 0.714809 -0.630841 0.301808
v 1.86917 95.3138 7.90403
vn 0.693694 -0.649933 0.310443
v 1.74224 95.1611 7.97178
vn 0.903583 -0.383073 0.191816
v 1.6842 94.9775 8.05496
vn 0.996716 -0.0653556 0.0478084
v 1.36167 103.047 25.7047
vn 0.997869 -0.0508684 0.0408635
v 1.7029 94.7877 8.14232
vn 0.96 0.260641 -0.102303
v 1.4802 102.699 25.8764
vn 0.814326 0.532969 -0.229821
v 1.79582 94.6173 8.22207
vn 0.798417 0.552697 -0.238864
v 2.30092 103.457 25.6166
vn -0.624371 -0.714124 0.316525
v 1.95039 94.4894 8.28344
vn 0.528614 0.775274 -0.345713
v 1.62231 103.381 27.7182
vn 0.512091 0.784167 -0.350493
v 1.99158 103.32 27.7565
vn -0.148821 0.897843 -0.414404
v 2.35552 94.4221 8.32148
vn -0.164695 0.895556 -0.413345
v 2.14575 94.4213 8.31814
vn 0.19537 0.892869 -0.405728
v 2.34382 103.496 27.6818
vn -0.758097 0.587588 -0.282896
v 2.70682 94.6208 8.23658
vn -0.777372 0.566542 -0.273353
v 2.55136 94.4917 8.29301
vn -0.503731 0.781911 -0.367248
v 2.4656 103.731 27.5762
vn -0.984382 0.15276 -0.0875057
v 2.47468 103.911 27.494
vn -0.98386 -0.168621 0.059884
v 2.82091 94.9819 8.07306
vn -0.99884 -0.047952 0.00441406
v 2.8009 94.7919 8.15981
vn -0.950078 0.276967 -0.143668
v 2.63825 95.3168 7.91628
vn -0.780501 -0.573252 0.249402
v 2.76414 95.1651 7.98806
vn -0.90709 -0.388412 0.162247
v 2.30893 104.182 27.266
vn -0.718705 -0.636698 0.279424
v 2.40471 104.106 27.4032
vn -0.89774 -0.406219 0.170439
v 2.74529 94.5945 8.24933
vn 0.0161538 -0.416779 -0.908864
v 2.86904 94.9861 8.07197
vn 0.0158476 -0.41678 -0.908869
v 2.67092 95.3493 7.90191
vn 0.0158263 -0.416929 -0.908801
v 2.51472 94.4452 8.31368
vn 0.0161646 -0.416821 -0.908845
v 2.13673 94.3781 8.33779
vn 0.0160141 -0.416844 -0.908837
v 1.8885 94.4982 8.27832
vn 0.0159204 -0.416954 -0.908788
v 2.25433 95.4947 7.82792
vn 0.0160677 -0.416693 -0.908905
v 1.94051 95.3909 7.86996
vn 0.0160426 -0.416636 -0.908932
v 1.69905 95.1805 7.96211
vn 0.0160492 -0.416704 -0.9089
v 1.65639 94.7755 8.14709
vn 0.0162133 -0.416728 -0.908886
v 2.25831 95.2571 7.85029
vn 0.0160719 -0.416742 -0.908883
v 1.68145 95.1326 7.89715
vn 0.0160758 -0.416729 -0.908888
v 2.02297 94.6323 8.1326
vn 0.0160912 -0.416742 -0.908883
v 1.86015 94.3705 8.24976
vn 0.0160785 -0.416725 -0.90889
v 2.17171 95.4788 7.74708
vn 0.0160876 -0.416704 -0.9089
v 2.78517 95.2239 7.87481
vn 0.0160735 -0.416798 -0.908857
v 2.79928 94.5825 8.16917
vn 0.0160806 -0.416682 -0.90891
v 2.55138 94.7578 8.08438
vn 0.0160834 -0.416689 -0.908907
v 2.44408 95.14 7.95059
vn -0.555588 -0.759522 0.338302
v 2.22262 95.1916 7.92298
vn 0.150574 -0.89757 0.414362
v 1.98679 95.03 7.99291
vn 0.902276 -0.385615 0.192871
v 1.9823 94.7961 8.07843
vn 0.913899 0.374912 -0.155658
v 2.18076 94.648 8.17149
vn 0.239072 0.884255 -0.40117
v 2.44189 94.7188 8.16533
vn -0.641214 0.693203 -0.329112
v 2.5557 94.9597 8.03524
vn -0.987849 -0.147187 0.0499069
v 2.46591 95.1278 7.95656
vn -0.762239 -0.593411 0.258564
v 1.84056 94.5038 8.23156
vn -0.601571 -0.730022 0.324315
v 2.09755 94.3806 8.29262
vn -0.286295 -0.872945 0.394972
v 2.35887 94.3747 8.29995
vn 0.244983 -0.879679 0.407613
v 2.67275 94.5231 8.23746
vn 0.694622 -0.649196 0.30991
v 2.82304 94.7303 8.14512
vn 0.962589 -0.239469 0.126796
v 2.85446 94.9963 8.02371
vn 0.981266 0.181123 -0.0656679
v 2.72742 95.2569 7.90196
vn 0.786666 0.566325 -0.24583
v 2.50669 95.4146 7.82579
vn 0.421447 0.827064 -0.371952
v 2.17245 95.4579 7.80002
vn -0.0944517 0.904371 -0.416164
v 1.8383 95.3078 7.86293
vn -0.690926 0.652476 -0.311282
v 1.66179 95.0162 7.99349
vn -0.981403 0.167287 -0.0941462
v 1.67712 94.7445 8.11836
vn -0.934517 -0.329515 0.134529
v 1.84056 94.5038 8.23156
vn -0.744026 -0.612152 0.267758
v 1.60819 95.038 8.02586
vn -0.0160838 0.416699 0.908902
v 1.9382 94.7599 8.15922
vn -0.0160905 0.416736 0.908885
v 2.11295 95.2096 7.95612
vn -0.0161179 0.416748 0.908879
v 2.05008 94.3507 8.34882
vn -0.0160787 0.416734 0.908886
v 2.23216 95.5274 7.81253
vn -0.0161082 0.416733 0.908886
v 2.5683 95.0774 8.02481
vn -0.0160626 0.416723 0.908892
v 2.85809 95.1338 8.00404
vn -0.0160719 0.416741 0.908883
v 2.43254 94.6792 8.20496
vn -0.0160661 0.416717 0.908894
v 2.74553 94.5801 8.25592
vn -0.0160681 0.416673 0.908914
v 71.4186 102.62 25.9765
vn 0.446475 -0.151434 0.881889
v 71.3792 102.724 26.0665
vn 0.655999 -0.573353 0.490848
v 71.5538 102.558 25.9435
vn 0.147762 0.303958 0.941157
v 72.2987 103.367 25.6385
vn 0.494984 -0.154923 0.854979
v 72.3473 103.207 25.6318
vn 0.118719 0.280187 0.952576
v 72.2661 103.462 25.7332
vn 0.654115 -0.597871 0.463339
v 71.377 102.734 26.0825
vn 0.673785 -0.676233 0.297863
v 71.4025 103.39 27.5139
vn 0.673411 -0.67655 0.297989
v 72.277 103.471 25.7289
vn 0.674287 -0.67582 0.297663
v 72.2807 104.109 27.1689
vn 0.673525 -0.676455 0.297946
v 71.3627 103.5 27.618
vn 0.492831 -0.155441 0.856128
v 71.3213 103.645 27.6153
vn 0.11655 0.279456 0.953059
v 71.4025 103.39 27.5139
vn 0.65331 -0.598485 0.463683
v 72.25 104.232 27.2707
vn 0.448021 -0.150641 0.88124
v 72.2894 104.128 27.1807
vn 0.653975 -0.576215 0.490196
v 72.1148 104.294 27.3036
vn 0.143678 0.280877 0.948928
v 71.8313 102.452 25.9868
vn 0.0160661 0.416766 0.908872
v 72.2348 102.596 25.9139
vn 0.0162293 0.416828 0.908841
v 72.4338 102.945 25.7502
vn 0.0148695 0.41642 0.909051
v 71.5307 102.539 25.9526
vn 0.0163857 0.415797 0.90931
v 72.3704 103.226 25.6227
vn 0.014326 0.416397 0.90907
v 71.2784 103.978 27.4635
vn 0.0130419 0.417072 0.90878
v 71.621 104.361 27.2817
vn 0.0153684 0.417438 0.908575
v 71.8885 104.374 27.2711
vn 0.0161518 0.417125 0.908706
v 71.2981 103.626 27.6244
vn 0.0150024 0.41638 0.909067
v 72.138 104.313 27.2945
vn 0.0163947 0.415981 0.909225
v 71.9692 95.3132 7.90284
vn 0.626599 0.704029 -0.334242
v 72.3 104.21 27.2639
vn 0.686197 0.656521 -0.31323
v 71.7848 95.4417 7.84728
vn 0.424389 0.820192 -0.38364
v 71.5623 95.5012 7.82397
vn 0.0560342 0.90724 -0.416863
v 71.3318 95.4838 7.83605
vn -0.3042 0.868011 -0.392453
v 71.7252 104.398 27.2629
vn -0.161755 0.898254 -0.408626
v 72.0233 104.389 27.266
vn 0.329959 0.85595 -0.398091
v 71.1244 95.3919 7.88191
vn -0.624869 0.713876 -0.316101
v 70.968 95.2377 7.95534
vn -0.862855 0.465115 -0.197861
v 71.3507 104.188 27.3658
vn -0.774834 0.579877 -0.251743
v 71.5168 104.324 27.3005
vn -0.500406 0.790483 -0.353171
v 70.8839 95.0422 8.04642
vn -0.986403 0.15532 -0.0537056
v 70.8834 94.8318 8.14287
vn -0.979593 -0.175595 0.0977966
v 71.2216 103.805 27.5435
vn -0.999088 -0.0290327 0.0313051
v 71.248 104.007 27.4504
vn -0.948291 0.294676 -0.117939
v 71.3016 103.543 27.6588
vn -0.863547 -0.452424 0.22271
v 71.4194 102.567 25.9504
vn -0.634068 -0.698707 0.33131
v 70.9665 94.6348 8.23164
vn -0.849288 -0.474196 0.232052
v 71.329 94.3823 8.34088
vn -0.294188 -0.866947 0.402313
v 71.7192 102.451 25.9895
vn -0.135688 -0.899717 0.414848
v 71.1221 94.4779 8.30076
vn -0.610232 -0.716198 0.338639
v 71.7822 94.4164 8.31711
vn 0.419561 -0.8281 0.371778
v 72.1517 102.528 25.9466
vn 0.554448 -0.760231 0.33858
v 71.9434 102.454 25.9842
vn 0.224093 -0.887438 0.402786
v 71.5595 94.3608 8.34659
vn 0.067495 -0.907558 0.414468
v 71.9673 94.5416 8.25644
vn 0.716494 -0.639007 0.279834
v 72.3178 102.664 25.8813
vn 0.812879 -0.534816 0.230651
v 72.0896 94.7195 8.17276
vn 0.91839 -0.365729 0.151005
v 72.4206 102.844 25.7968
vn 0.966526 -0.239322 0.0924783
v 72.0757 95.1683 7.96732
vn 0.895112 0.398893 -0.199147
v 72.3846 103.269 25.6025
vn 0.923955 0.341176 -0.172936
v 72.4469 103.047 25.7036
vn 0.994583 0.0866509 -0.0574048
v 72.1326 94.926 8.07737
vn 0.999057 -0.0433677 0.00186355
v 72.3074 103.408 25.6249
vn 0.795407 0.545416 -0.264291
v 71.217 94.483 8.29673
vn 0.525491 0.769988 -0.361909
v 71.463 102.608 25.9324
vn 0.570485 0.742791 -0.35044
v 71.4488 94.4152 8.32362
vn 0.0507897 0.907627 -0.416693
v 71.8247 102.489 25.97
vn 0.00682861 0.90902 -0.416696
v 71.6577 94.431 8.31267
vn -0.30687 0.867359 -0.391816
v 72.1983 102.616 25.9054
vn -0.6476 0.697004 -0.307896
v 71.8457 94.5143 8.27111
vn -0.624413 0.714323 -0.315993
v 71.9874 94.654 8.20457
vn -0.860695 0.468564 -0.199129
v 72.0636 94.8312 8.12202
vn -0.985285 0.161434 -0.0561467
v 72.3914 102.934 25.7563
vn -0.987904 0.146868 -0.0497494
v 72.0641 95.0219 8.03462
vn -0.981552 -0.166469 0.0940457
v 72.3093 103.298 25.6004
vn -0.838333 -0.489703 0.239559
v 71.9888 95.2004 7.95417
vn -0.850405 -0.47221 0.232012
v 71.8478 95.3426 7.89153
vn -0.603214 -0.720785 0.34147
v 72.1821 104.262 27.313
vn -0.579552 -0.73686 0.348076
v 71.8205 104.363 27.2776
vn 0.0578134 -0.908008 0.414946
v 71.4514 95.4487 7.85
vn 0.0741318 -0.907026 0.414498
v 71.6602 95.4293 7.85517
vn -0.284933 -0.869399 0.403681
v 71.4524 104.221 27.3487
vn 0.695583 -0.657798 0.288906
v 71.0818 95.2849 7.93169
vn 0.716973 -0.638446 0.279886
v 71.2495 95.3983 7.87671
vn 0.422918 -0.826571 0.371376
v 71.307 103.999 27.4534
vn 0.964146 -0.247374 0.0960679
v 71.2859 103.758 27.5682
vn 0.976359 0.189361 -0.104235
v 70.932 94.9366 8.09398
vn 0.998812 -0.0485266 0.00447617
v 70.971 95.1237 8.00753
vn 0.917449 -0.367603 0.152171
v 71.0801 94.5856 8.25214
vn 0.835349 0.49409 -0.240971
v 70.9701 94.7488 8.17936
vn 0.941753 0.299127 -0.153705
v 71.4061 103.478 27.6151
vn 0.788713 0.553495 -0.267534
v 71.0462 95.3148 7.91862
vn -0.0162139 -0.416494 -0.908994
v 70.8837 94.937 8.09465
vn -0.01607 -0.416544 -0.908974
v 71.1453 94.5056 8.28765
vn -0.0163767 -0.416741 -0.908878
v 71.4471 95.4925 7.83001
vn -0.0162747 -0.416487 -0.908996
v 71.877 95.3775 7.87506
vn -0.0161243 -0.416306 -0.909081
v 71.6709 94.3886 8.33185
vn -0.0163109 -0.416627 -0.908931
v 72.0285 94.6306 8.2146
vn -0.0160308 -0.416596 -0.90895
v 72.1116 95.0296 8.03026
vn -0.0159924 -0.416527 -0.908983
v 71.7815 95.1279 7.9045
vn -0.0162768 -0.416516 -0.908983
v 72.1403 95.0754 7.92216
vn -0.0162397 -0.416494 -0.908993
v 71.5941 94.2676 8.30206
vn -0.0162379 -0.416529 -0.908978
v 71.5174 94.5608 8.16906
vn -0.0162405 -0.416522 -0.908981
v 71.318 95.485 7.74916
vn -0.0162783 -0.416508 -0.908986
v 71.1709 95.0137 7.96773
vn -0.0162564 -0.416544 -0.90897
v 70.8559 94.8392 8.05333
vn -0.0162544 -0.41652 -0.908981
v 71.269 94.7243 8.14191
vn 0.63496 0.697944 -0.331211
v 71.4505 94.638 8.1782
vn 0.168514 0.894947 -0.413127
v 71.6496 94.6688 8.16053
vn -0.479358 0.801052 -0.358514
v 71.7843 94.7949 8.10033
vn -0.907994 0.3868 -0.16104
v 71.7978 94.9822 8.0143
vn -0.969215 -0.216916 0.116487
v 71.6432 95.1567 7.93708
vn -0.464826 -0.801732 0.375716
v 71.4219 95.1878 7.92677
vn 0.256212 -0.88045 0.398952
v 71.2635 95.0919 7.97356
vn 0.78266 -0.571057 0.247666
v 71.1945 94.9461 8.04158
vn 0.999625 -0.0268301 -0.0055603
v 71.2555 94.7443 8.13299
vn 0.867813 0.445683 -0.219698
v 71.8751 95.3395 7.84918
vn 0.595563 0.726444 -0.342905
v 71.6221 95.4358 7.80958
vn 0.109133 0.902952 -0.415654
v 71.1094 95.366 7.8393
vn -0.588949 0.738622 -0.32799
v 70.8632 94.8438 8.10382
vn -0.96748 -0.223092 0.119217
v 71.1541 94.4703 8.26035
vn -0.560288 -0.749263 0.353103
v 71.4767 94.3671 8.30189
vn -0.114737 -0.902289 0.415583
v 71.858 94.4752 8.2455
vn 0.556796 -0.758917 0.337673
v 72.086 94.7907 8.09688
vn 0.961455 -0.256032 0.10026
v 72.095 95.02 7.99162
vn 0.968363 0.219975 -0.117832
v 71.954 95.2849 7.87278
vn 0.804924 0.53394 -0.258853
v 72.0923 94.7167 8.17396
vn 0.016282 0.416527 0.908977
v 71.835 94.9312 8.08028
vn 0.0162844 0.416542 0.908971
v 71.5182 94.6051 8.23538
vn 0.0162466 0.416489 0.908996
v 71.907 95.4217 7.85421
vn 0.0162636 0.416521 0.90898
v 71.5391 95.2506 7.9392
vn 0.0162745 0.416509 0.908986
v 71.4293 94.3208 8.36725
vn 0.0162425 0.416505 0.908988
v 71.0589 95.3583 7.89843
vn 0.0162536 0.416516 0.908983
v 70.8869 94.8192 8.14854
vn 0.0162634 0.416495 0.908993
v 71.1617 94.9545 8.08165
vn 0.0162524 0.416513 0.908985
f 29//29 28//28 27//27
f 30//30 31//31 32//32
f 30//30 32//32 33//33
f 34//34 35//35 36//36
f 34//34 36//36 37//37
f 31//31 34//34 37//37
f 31//31 37//37 32//32
f 38//38 39//39 40//40
f 38//38 40//40 41//41
f 42//42 44//44 43//43
f 39//39 44//44 42//42
f 39//39 42//42 40//40
f 35//35 38//38 41//41
f 35//35 41//41 36//36
f 29//29 30//30 33//33
f 29//29 33//33 28//28
f 45//45 46//46 43//43
f 45//45 43//43 47//47
f 48//48 49//49 50//50
f 48//48 50//50 51//51
f 51//51 50//50 46//46
f 51//51 46//46 45//45
f 52//52 53//53 49//49
f 52//52 49//49 48//48
f 54//54 55//55 53//53
f 54//54 53//53 52//52
f 56//56 57//57 58//58
f 56//56 58//58 59//59
f 59//59 58//58 55//55
f 59//59 55//55 54//54
f 47//47 43//43 44//44
f 62//62 63//63 64//64
f 60//60 61//61 63//63
f 60//60 63//63 62//62
f 65//65 66//66 64//64
f 65//65 64//64 63//63
f 66//66 65//65 67//67
f 68//68 69//69 70//70
f 67//67 65//65 69//69
f 67//67 69//69 68//68
f 71//71 72//72 70//70
f 71//71 70//70 69//69
f 61//61 60//60 73//73
f 74//74 72//72 71//71
f 76//76 77//77 78//78
f 75//75 76//76 78//78
f 75//75 78//78 74//74
f 79//79 80//80 81//81
f 76//76 79//79 81//81
f 76//76 81//81 77//77
f 71//71 75//75 74//74
f 82//82 83//83 84//84
f 82//82 84//84 85//85
f 86//86 87//87 88//88
f 83//83 89//89 87//87
f 83//83 87//87 84//84
f 79//79 82//82 85//85
f 79//79 85//85 80//80
f 88//88 87//87 89//89
f 101//101 102//102 103//103
f 102//102 101//101 100//100
f 101//101 104//104 100//100
f 105//105 100//100 104//104
f 102//102 106//106 103//103
f 106//106 102//102 107//107
f 107//107 100//100 105//105
f 105//105 106//106 107//107
f 130//130 131//131 129//129
f 129//129 132//132 130//130
f 129//129 131//131 133//133
f 131//131 134//134 133//133
f 134//134 135//135 133//133
f 130//130 132//132 136//136
f 137//137 136//136 132//132
f 137//137 134//134 136//136
f 135//135 134//134 137//137
f 166//166 165//165 164//164
f 167//167 168//168 169//169
f 167//167 169//169 170//170
f 171//171 172//172 173//173
f 171//171 173//173 174//174
f 168//168 171//171 174//174
f 168//168 174//174 169//169
f 175//175 176//176 177//177
f 175//175 177//177 178//178
f 179//179 181//181 180//180
f 176//176 181//181 179//179
f 176//176 179//179 177//177
f 172//172 175//175 178//178
f 172//172 178//178 173//173
f 166//166 167//167 170//170
f 166//166 170//170 165//165
f 182//182 183//183 180//180
f 182//182 180//180 184//184
f 185//185 186//186 187//187
f 185//185 187//187 188//188
f 188//188 187//187 183//183
f 188//188 183//183 182//182
f 189//189 190//190 186//186
f 189//189 186//186 185//185
f 191//191 192//192 190//190
f 191//191 190//190 189//189
f 193//193 194//194 195//195
f 193//193 195//195 196//196
f 196//196 195//195 192//192
f 196//196 192//192 191//191
f 193//193 197//197 194//194
f 184//184 180//180 181//181
f 200//200 201//201 202//202
f 198//198 199//199 201//201
f 198//198 201//201 200//200
f 203//203 204//204 202//202
f 203//203 202//202 201//201
f 204//204 203//203 205//205
f 206//206 207//207 208//208
f 205//205 203//203 207//207
f 205//205 207//207 206//206
f 209//209 210//210 208//208
f 209//209 208//208 207//207
f 211//211 210//210 209//209
f 213//213 214//214 215//215
f 212//212 213//213 215//215
f 212//212 215//215 211//211
f 216//216 217//217 218//218
f 213//213 216//216 218//218
f 213//213 218//218 214//214
f 209//209 212//212 211//211
f 219//219 220//220 221//221
f 219//219 221//221 222//222
f 223//223 224//224 225//225
f 220//220 224//224 221//221
f 216//216 219//219 222//222
f 216//216 222//222 217//217
f 225//225 224//224 220//220
f 237//237 235//235 236//236
f 234//234 235//235 237//237
f 238//238 235//235 234//234
f 238//238 234//234 239//239
f 236//236 240//240 237//237
f 239//239 237//237 240//240
f 238//238 239//239 240//240
f 262//262 263//263 261//261
f 262//262 261//261 264//264
f 262//262 264//264 265//265
f 263//263 266//266 261//261
f 265//265 264//264 267//267
f 266//266 263//263 269//269
f 268//268 266//266 269//269
f 267//267 269//269 265//265
f 267//267 268//268 269//269
