# Created by Open3D 
# object name: floor_final
# number of vertices: 352
# number of triangles: 700
v 185.22 2.07874 17.5417
vn 0.218298 0.0390213 0.975102
v 185.22 -84.4646 17.5417
vn 0.0498152 -0.0323925 0.998233
v 185.22 -27.4358 17.5417
vn 0.0265608 -1.1318e-17 0.999647
v 131.736 -49.0467 17.5417
vn 0 0 1
v 158.789 -72.1012 17.5417
vn 0 0 1
v 54.7232 -14.065 17.5417
vn 0 0 1
v 91.8857 -69.3002 17.5417
vn 0 0 1
v 79.4962 -59.7379 17.5417
vn 0 0 1
v 53.0653 -59.7379 17.5417
vn 0 0 1
v 29.4208 -84.4646 17.5417
vn 0 -0.0246887 0.999695
v 10.9152 -5.50346 17.5417
vn 0 0 1
v 1.38454 -34.5162 17.5417
vn -0.0292938 0 0.999571
v 13.6254 -67.1269 17.5417
vn 0 0 1
v 185.22 -70.0407 17.5417
vn 0.0339674 4.01589e-17 0.999423
v 185.22 -65.2327 17.5417
vn 0.0954989 0 0.99543
v 185.22 -60.4248 17.5417
vn 0.0261409 0 0.999658
v 185.22 -55.6168 17.5417
vn 0.0220778 0 0.999756
v 185.22 -50.8088 17.5417
vn 0.0457716 0 0.998952
v 148.877 -76.7375 17.5417
vn 0 0 1
v 172.004 -72.1012 17.5417
vn 0 0 1
v 172.004 -59.7379 17.5417
vn 0 0 1
v 172.004 -47.3746 17.5417
vn 0 0 1
v 172.004 -35.0113 17.5417
vn 0 0 1
v 172.004 -41.1929 17.5417
vn 0 0 1
v 179.944 2.07874 17.5417
vn 0 0.0399857 0.9992
v 174.668 2.07874 17.5417
vn 0 0.0399857 0.9992
v 169.392 2.07874 17.5417
vn 0 0.0399857 0.9992
v 164.117 2.07874 17.5417
vn 0 0.0399857 0.9992
v 158.841 2.07874 17.5417
vn 0 0.0399857 0.9992
v 143.013 2.07874 17.5417
vn -0.0213556 0.0901129 0.995703
v 143.013 -4.79791 17.5417
vn -0.027973 1.90136e-16 0.999609
v 143.013 -8.23623 17.5417
vn -0.0445885 0.0248551 0.998696
v 132.358 -16.4663 17.5417
vn 0 0 1
v 138.683 -12.5669 17.5417
vn -0.0168791 0.0485912 0.998676
v 134.615 -12.5669 17.5417
vn 0 0.35514 0.934813
v 130.546 -12.5669 17.5417
vn 0 0.413655 0.910434
v 126.478 -12.5669 17.5417
vn 0 0.0402024 0.999192
v 122.41 -12.5669 17.5417
vn -4.23225e-17 0.0646184 0.99791
v 118.342 -12.5669 17.5417
vn 0 0.00385114 0.999993
v 114.273 -12.5669 17.5417
vn 0.0184651 0.0531571 0.998415
v 109.943 -8.23623 17.5417
vn 0.0489705 0.0237884 0.998517
v 109.943 -4.79791 17.5417
vn 0.0320674 0 0.999486
v 109.943 -1.35958 17.5417
vn 0.0265444 0 0.999648
v 109.943 2.07874 17.5417
vn 0.222322 0.316747 0.922087
v 105.044 2.07874 17.5417
vn 0 0.049812 0.998759
v 100.145 2.07874 17.5417
vn 0 0.109088 0.994032
v 95.2466 2.07874 17.5417
vn 0 0.144782 0.989464
v 90.348 2.07874 17.5417
vn 0 0.109088 0.994032
v 85.4493 2.07874 17.5417
vn 0 0.109088 0.994032
v 80.5506 2.07874 17.5417
vn 0 0.109088 0.994032
v 75.6519 2.07874 17.5417
vn 0 0.0729667 0.997334
v 70.7533 2.07874 17.5417
vn 0 0.109088 0.994032
v 65.8546 2.07874 17.5417
vn 0 0.144782 0.989464
v 60.9559 2.07874 17.5417
vn 0 0.0197923 0.999804
v 56.0573 2.07874 17.5417
vn 0 0.227531 0.973771
v 51.1586 2.07874 17.5417
vn 0 0.227531 0.973771
v 46.2599 2.07874 17.5417
vn 0 0.227531 0.973771
v 41.3613 2.07874 17.5417
vn 0 0.227531 0.973771
v 36.4626 2.07874 17.5417
vn 0 0.227531 0.973771
v 31.5639 2.07874 17.5417
vn 0 0.227531 0.973771
v 26.6653 2.07874 17.5417
vn 0 0.227531 0.973771
v 21.7666 2.07874 17.5417
vn 0 0.227531 0.973771
v 16.8679 2.07874 17.5417
vn 0 0.227531 0.973771
v 11.9693 2.07874 17.5417
vn 0 0.194209 0.98096
v 7.07061 2.07874 17.5417
vn 0 0.276363 0.961053
v 2.17195 2.07874 17.5417
vn -0.0135306 0.517275 0.855712
v 0.203442 0.110231 17.5417
vn -0.272045 0.00962442 0.962236
v 0.203442 -2.98504 17.5417
vn -0.083822 0 0.996481
v 0.203442 -6.08032 17.5417
vn -0.099714 0 0.995016
v 0.203442 -9.1756 17.5417
vn -0.176038 0 0.984383
v 0.203442 -12.2709 17.5417
vn -0.231924 0 0.972734
v 0.203442 -15.3661 17.5417
vn -0.653094 -0.269976 0.707518
v 6.81117 -4.10293 17.5417
vn 0 0 1
v 6.81117 -1.0121 17.5417
vn 0 0 1
v 6.81117 -10.2846 17.5417
vn 0 0 1
v 6.81117 -13.3754 17.5417
vn 0 0 1
v 2.7625 -15.3661 17.5417
vn 0 -0.367028 0.93021
v 5.32155 -15.3661 17.5417
vn 0 -0.664809 0.747013
v 7.88061 -15.3661 17.5417
vn -0.0102458 -0.00501995 0.999935
v 7.88061 -17.9777 17.5417
vn -0.0397775 0 0.999209
v 7.88061 -20.5892 17.5417
vn -0.0413644 0 0.999144
v 7.88061 -23.2008 17.5417
vn -0.00979434 0.0121814 0.999878
v 13.4189 -19.5571 17.5417
vn 0 0 1
v 4.63258 -23.2008 17.5417
vn 0 0.154686 0.987964
v 1.38454 -23.2008 17.5417
vn -0.451095 0.0926537 0.887654
v 1.38454 -59.185 17.5417
vn -0.340368 -0.0896291 0.936011
v 13.4189 -59.7379 17.5417
vn 0 0 1
v 26.6344 -53.5562 17.5417
vn 0 0 1
v 4.63258 -59.185 17.5417
vn 0 -0.0716328 0.997431
v 7.88061 -59.185 17.5417
vn -0.0201437 -0.0125265 0.999719
v 13.4189 -56.6471 17.5417
vn 0 0 1
v 13.4189 -72.1012 17.5417
vn 0 0 1
v 7.88061 -61.7966 17.5417
vn -0.294698 0 0.95559
v 7.88061 -64.4081 17.5417
vn -0.294698 0 0.95559
v 7.88061 -67.0197 17.5417
vn -0.184516 0.361614 0.913887
v 6.81117 -72.1012 17.5417
vn 0 0 1
v 13.4189 -78.2829 17.5417
vn 0 0 1
v 5.32155 -67.0197 17.5417
vn 0 0.998173 0.0604208
v 2.7625 -67.0197 17.5417
vn 0 0.142151 0.989845
v 0.203442 -67.0197 17.5417
vn -0.344447 0.569552 0.746302
v 0.203442 -70.115 17.5417
vn -0.10041 0 0.994946
v 0.203442 -73.2102 17.5417
vn -0.231939 0 0.97273
v 0.203442 -76.3055 17.5417
vn -0.204375 0 0.978893
v 0.203442 -79.4008 17.5417
vn -0.0838219 0 0.996481
v 0.203442 -82.4961 17.5417
vn -0.233066 -0.0097262 0.972412
v 6.81117 -78.2829 17.5417
vn 0 0 1
v 13.4189 -75.1921 17.5417
vn 0 0 1
v 6.81117 -75.1921 17.5417
vn 0 0 1
v 13.4189 -81.3737 17.5417
vn 0 0 1
v 6.81117 -81.3737 17.5417
vn 0 0 1
v 2.17195 -84.4646 17.5417
vn -0.0135305 -0.517277 0.855711
v 7.07061 -84.4646 17.5417
vn 0 -0.302532 0.953139
v 11.9693 -84.4646 17.5417
vn 0 -0.369722 0.929142
v 16.8679 -84.4646 17.5417
vn 0 -0.512386 0.858755
v 46.2599 -84.4646 17.5417
vn 0 -0.0776514 0.996981
v 59.8844 -84.4646 17.5417
vn 0 -0.192379 0.981321
v 80.5506 -84.4646 17.5417
vn 0 -0.187671 0.982232
v 85.4493 -84.4646 17.5417
vn 0 -0.0492589 0.998786
v 90.348 -84.4646 17.5417
vn 0 -0.0776514 0.996981
v 95.2466 -84.4646 17.5417
vn 0 -0.0776514 0.996981
v 100.145 -84.4646 17.5417
vn 0 -0.047507 0.998871
v 105.044 -84.4646 17.5417
vn 0 -0.507867 0.861436
v 109.943 -84.4646 17.5417
vn 0.49525 -0.282238 0.821626
v 79.4962 -78.2829 17.5417
vn 0 0 1
v 105.927 -78.2829 17.5417
vn 0 0 1
v 109.943 -81.0263 17.5417
vn 0.138928 0 0.990302
v 109.943 -77.5879 17.5417
vn 0.334646 -1.25666e-13 0.942344
v 109.943 -74.1496 17.5417
vn 0.0649186 -0.0250856 0.997575
v 105.927 -75.1921 17.5417
vn 0 0 1
v 114.273 -69.8189 17.5417
vn 0.217503 -0.626144 0.748757
v 118.342 -69.8189 17.5417
vn 0 -0.0437908 0.999041
v 122.41 -69.8189 17.5417
vn 0 -0.0567682 0.998387
v 126.478 -69.8189 17.5417
vn 0 -0.0567682 0.998387
v 130.546 -69.8189 17.5417
vn 0 -0.0567682 0.998387
v 134.615 -69.8189 17.5417
vn 0 -0.221776 0.975098
v 138.683 -69.8189 17.5417
vn -0.0647496 -0.110369 0.991779
v 143.013 -74.1496 17.5417
vn -0.0364368 -0.0107743 0.999278
v 143.013 -77.5879 17.5417
vn -0.197455 0 0.980312
v 143.013 -81.0263 17.5417
vn -0.0718194 0 0.997418
v 143.013 -84.4646 17.5417
vn -0.271043 -0.924203 0.269045
v 147.703 -84.4646 17.5417
vn 0 -0.324878 0.945756
v 152.393 -84.4646 17.5417
vn 0 -0.0977818 0.995208
v 157.082 -84.4646 17.5417
vn 0 -0.151098 0.988519
v 161.772 -84.4646 17.5417
vn 0 -0.151098 0.988519
v 166.461 -84.4646 17.5417
vn -9.1574e-17 -0.151098 0.988519
v 1.41863 1.92889 17.5417
vn -0.308845 0.838429 0.449057
v 0.780003 1.50217 17.5417
vn -0.58772 0.671191 0.451761
v 0.353285 0.863545 17.5417
vn -0.645662 0.289193 0.706745
v 3.50731 -1.0121 17.5417
vn 0 0 1
v 6.81117 0.533319 17.5417
vn 0 0 1
v 3.50731 0.533319 17.5417
vn 0 0 1
v 1.85537 0.533319 17.5417
vn 0 0 1
v 3.50731 1.30603 17.5417
vn 0 0 1
v 1.85537 1.30603 17.5417
vn 0 0 1
v 1.85537 -1.0121 17.5417
vn 0 0 1
v 3.50731 -0.239389 17.5417
vn 0 0 1
v 1.85537 -0.239389 17.5417
vn 0 0 1
v 3.50731 -4.10293 17.5417
vn 0 0 1
v 6.81117 -2.55751 17.5417
vn 0 0 1
v 3.50731 -2.55751 17.5417
vn 0 0 1
v 0.353285 -83.2494 17.5417
vn -0.545921 -0.201097 0.813345
v 0.780003 -83.888 17.5417
vn -0.671191 -0.587721 0.45176
v 1.41863 -84.3147 17.5417
vn -0.384715 -0.858928 0.33799
v 6.81117 -82.9192 17.5417
vn 0 0 1
v 3.50731 -81.3737 17.5417
vn 0 0 1
v 3.50731 -82.9192 17.5417
vn 0 0 1
v 1.85537 -82.9192 17.5417
vn 0 0 1
v 3.50731 -82.1464 17.5417
vn 0 0 1
v 1.85537 -81.3737 17.5417
vn 0 0 1
v 1.85537 -82.1464 17.5417
vn 0 0 1
v 6.81117 -79.8283 17.5417
vn 0 0 1
v 3.50731 -78.2829 17.5417
vn 0 0 1
v 3.50731 -79.8283 17.5417
vn 0 0 1
v 3.50731 -83.6919 17.5417
vn 0 0 1
v 1.85537 -83.6919 17.5417
vn 0 0 1
v 140.126 -71.2625 17.5417
vn -0.0848157 -0.0848159 0.99278
v 141.57 -72.706 17.5417
vn -0.0848157 -0.0848159 0.99278
v 112.108 -71.9843 17.5417
vn 0.0858258 -0.0858256 0.992607
v 105.927 -69.0104 17.5417
vn 0 0 1
v 112.535 -69.0104 17.5417
vn 0 0 1
v 138.966 -13.3754 17.5417
vn 0 0 1
v 112.108 -10.4016 17.5417
vn 0.0193398 0.0193398 0.999626
v 67.9395 -12.6546 16.3606
vn 1.86473e-17 4.21138e-17 -1
v 185.22 -42.3034 16.3606
vn 0.00537107 6.92014e-18 -0.999986
v 26.6344 -72.1012 16.3606
vn 0 0 -1
v 114.273 -69.8189 16.3606
vn 0.0035372 -0.0279045 -0.999604
v 114.273 -12.5669 16.3606
vn 0.00541616 0.015592 -0.999864
v 109.943 -74.1496 16.3606
vn 0.0827251 -0.0356077 -0.995936
v 143.013 -74.1496 16.3606
vn -0.0136431 -0.00403427 -0.999899
v 185.22 2.07874 16.3606
vn 0.0431506 0.0492913 -0.997852
v 185.22 -84.4646 16.3606
vn 0.00878989 -0.154323 -0.987981
v 185.22 -65.2327 16.3606
vn 0.032817 0 -0.999461
v 185.22 -70.0407 16.3606
vn 0.0697894 8.25104e-17 -0.997562
v 185.22 -74.8486 16.3606
vn 0.027973 0 -0.999609
v 185.22 -79.6566 16.3606
vn 0.027973 8.26797e-17 -0.999609
v 143.013 -84.4646 16.3606
vn -0.0277916 -0.113717 -0.993124
v 109.943 -79.3071 16.3606
vn 0.0718532 -1.88876e-14 -0.997415
v 138.683 -69.8189 16.3606
vn -0.0051505 -0.0390189 -0.999225
v 109.943 -84.4646 16.3606
vn 0.0416924 -0.260495 -0.964574
v 82.6172 -84.4646 16.3606
vn 0 -0.172747 -0.984966
v 65.8546 -84.4646 16.3606
vn 0 -0.0803842 -0.996764
v 60.9559 -84.4646 16.3606
vn 0 -0.0803842 -0.996764
v 56.0573 -84.4646 16.3606
vn 0 -0.0803842 -0.996764
v 44.8822 -84.4646 16.3606
vn 0 -0.0190026 -0.999819
v 21.7666 -84.4646 16.3606
vn 0 -0.484174 -0.874972
v 16.8679 -84.4646 16.3606
vn 0 -0.356957 -0.934121
v 11.9693 -84.4646 16.3606
vn 0 -0.47474 -0.880126
v 7.07061 -84.4646 16.3606
vn 0 -0.276365 -0.961053
v 2.17195 -84.4646 16.3606
vn -0.0135305 -0.517278 -0.85571
v 13.4189 -72.1012 16.3606
vn 0 0 -1
v 13.4189 -78.2829 16.3606
vn 0 0 -1
v 0.203442 -82.4961 16.3606
vn -0.233066 -0.0097262 -0.972412
v 0.203442 -79.4008 16.3606
vn -0.0838225 0 -0.996481
v 0.203442 -76.3055 16.3606
vn -0.195944 0 -0.980615
v 0.203442 -73.2102 16.3606
vn -0.118382 0 -0.992968
v 0.203442 -70.115 16.3606
vn -0.231924 0 -0.972734
v 0.203442 -67.0197 16.3606
vn -0.653094 0.269976 -0.707518
v 13.4189 -81.3737 16.3606
vn 0 0 -1
v 6.81117 -78.2829 16.3606
vn 0 0 -1
v 6.81117 -81.3737 16.3606
vn 0 0 -1
v 13.4189 -75.1921 16.3606
vn 0 0 -1
v 6.81117 -72.1012 16.3606
vn 0 0 -1
v 6.81117 -75.1921 16.3606
vn 0 0 -1
v 6.81117 -69.0104 16.3606
vn 0 0 -1
v 2.7625 -67.0197 16.3606
vn 0 0.367028 -0.93021
v 5.32155 -67.0197 16.3606
vn 0 0.66481 -0.747012
v 7.88061 -67.0197 16.3606
vn -0.0077612 0.0038026 -0.999963
v 7.88061 -64.4081 16.3606
vn -0.0099897 0 -0.99995
v 7.88061 -61.7966 16.3606
vn -0.0099897 0 -0.99995
v 7.88061 -59.185 16.3606
vn -0.00595432 -0.014811 -0.999873
v 4.63258 -59.185 16.3606
vn 0 -0.104372 -0.994538
v 1.38454 -59.185 16.3606
vn -0.0390398 -0.00434748 -0.999228
v 1.38454 -54.687 16.3606
vn -0.00642465 0 -0.999979
v 1.38454 -50.189 16.3606
vn -0.00642465 0 -0.999979
v 1.38454 -45.6909 16.3606
vn -0.00642465 0 -0.999979
v 1.38454 -41.1929 16.3606
vn -0.00642465 0 -0.999979
v 1.38454 -36.6949 16.3606
vn -0.00642465 0 -0.999979
v 1.38454 -32.1969 16.3606
vn -0.00642465 0 -0.999979
v 1.38454 -27.6988 16.3606
vn -0.0145044 0 -0.999895
v 1.38454 -23.2008 16.3606
vn -0.00597603 0.00863058 -0.999945
v 4.63258 -23.2008 16.3606
vn 0 0.092348 -0.995727
v 7.88061 -23.2008 16.3606
vn -0.00587303 0.00730439 -0.999956
v 7.88061 -20.5892 16.3606
vn -0.0133191 0 -0.999911
v 7.88061 -17.9777 16.3606
vn -0.0099897 0 -0.99995
v 7.88061 -15.3661 16.3606
vn -0.00120078 -0.00235329 -0.999997
v 13.4189 -4.10293 16.3606
vn 0 0 -1
v 5.32155 -15.3661 16.3606
vn 0 -0.546977 -0.837148
v 2.7625 -15.3661 16.3606
vn 0 -0.0270323 -0.999635
v 0.203442 -15.3661 16.3606
vn -0.344447 -0.569552 -0.746302
v 0.203442 -12.2709 16.3606
vn -0.025721 0 -0.999669
v 0.203442 -9.1756 16.3606
vn -0.0261463 0 -0.999658
v 0.203442 -6.08032 16.3606
vn -0.0360758 0 -0.999349
v 0.203442 -2.98504 16.3606
vn -0.0838225 0 -0.996481
v 0.203442 0.110231 16.3606
vn -0.233066 0.0097262 -0.972412
v 6.81117 -4.10293 16.3606
vn 0 0 -1
v 13.4189 -1.0121 16.3606
vn 0 0 -1
v 6.81117 -1.0121 16.3606
vn 0 0 -1
v 2.17195 2.07874 16.3606
vn -0.0135306 0.517276 -0.855711
v 7.07061 2.07874 16.3606
vn 0 0.302531 -0.953139
v 11.9693 2.07874 16.3606
vn 0 0.474739 -0.880127
v 16.8679 2.07874 16.3606
vn 0 0.497295 -0.867582
v 21.7666 2.07874 16.3606
vn 0 0.0491096 -0.998793
v 26.6653 2.07874 16.3606
vn 0 0.119388 -0.992848
v 31.5639 2.07874 16.3606
vn 0 0.119388 -0.992848
v 36.4626 2.07874 16.3606
vn 0 0.119388 -0.992848
v 41.3613 2.07874 16.3606
vn 0 0.119388 -0.992848
v 46.2599 2.07874 16.3606
vn 0 0.119388 -0.992848
v 51.1586 2.07874 16.3606
vn 0 0.119388 -0.992848
v 56.0573 2.07874 16.3606
vn 0 0.119388 -0.992848
v 60.9559 2.07874 16.3606
vn 0 0.119388 -0.992848
v 65.8546 2.07874 16.3606
vn 0 0.0799088 -0.996802
v 70.7533 2.07874 16.3606
vn 0 0.119388 -0.992848
v 75.6519 2.07874 16.3606
vn 0 0.158308 -0.98739
v 80.5506 2.07874 16.3606
vn 0 0.119388 -0.992848
v 85.4493 2.07874 16.3606
vn 0 0.119388 -0.992848
v 90.348 2.07874 16.3606
vn 0 0.119388 -0.992848
v 95.2466 2.07874 16.3606
vn 0 0.0799088 -0.996802
v 100.145 2.07874 16.3606
vn 0 0.119388 -0.992848
v 105.044 2.07874 16.3606
vn 0 0.0600005 -0.998198
v 109.943 2.07874 16.3606
vn 0.369349 0.526222 -0.765945
v 109.943 -1.35958 16.3606
vn 0.0337275 0 -0.999431
v 109.943 -4.79791 16.3606
vn 0.0535194 0 -0.998567
v 109.943 -8.23623 16.3606
vn 0.319994 0.178375 -0.930477
v 105.927 -7.19376 16.3606
vn 4.54392e-17 -4.31963e-16 -1
v 122.41 -12.5669 16.3606
vn -3.25323e-16 0.0528847 -0.998601
v 126.478 -12.5669 16.3606
vn 0 0.0594731 -0.99823
v 130.546 -12.5669 16.3606
vn 0 0.0594731 -0.99823
v 134.615 -12.5669 16.3606
vn 0 0.0594731 -0.99823
v 138.683 -12.5669 16.3606
vn -0.0267793 0.0435503 -0.998692
v 143.013 -8.23623 16.3606
vn -0.0213253 0.00824048 -0.999739
v 143.013 -4.79791 16.3606
vn -0.0697894 -2.30756e-16 -0.997562
v 143.013 -1.35958 16.3606
vn -0.00375418 0 -0.999993
v 143.013 2.07874 16.3606
vn -0.0264568 0.324764 -0.945425
v 0.353285 0.863545 16.3606
vn -0.545921 0.201096 -0.813345
v 0.780003 1.50217 16.3606
vn -0.671191 0.58772 -0.451761
v 1.41863 1.92889 16.3606
vn -0.384715 0.858928 -0.33799
v 6.81117 0.533319 16.3606
vn 0 0 -1
v 3.50731 -1.0121 16.3606
vn 0 0 -1
v 3.50731 0.533319 16.3606
vn 0 0 -1
v 3.50731 -0.239389 16.3606
vn 0 0 -1
v 1.85537 -1.0121 16.3606
vn 0 0 -1
v 1.85537 0.533319 16.3606
vn 0 0 -1
v 1.85537 -0.239389 16.3606
vn 0 0 -1
v 6.81117 -2.55751 16.3606
vn 0 0 -1
v 3.50731 -4.10293 16.3606
vn 0 0 -1
v 3.50731 -2.55751 16.3606
vn 0 0 -1
v 3.50731 1.30603 16.3606
vn 0 0 -1
v 1.85537 1.30603 16.3606
vn 0 0 -1
v 1.41863 -84.3147 16.3606
vn -0.308844 -0.838429 -0.449057
v 0.780003 -83.888 16.3606
vn -0.587721 -0.671191 -0.45176
v 0.353285 -83.2494 16.3606
vn -0.645662 -0.289194 -0.706745
v 6.81117 -82.9192 16.3606
vn 0 0 -1
v 3.50731 -81.3737 16.3606
vn 0 0 -1
v 3.50731 -82.9192 16.3606
vn 0 0 -1
v 3.50731 -83.6919 16.3606
vn 0 0 -1
v 1.85537 -82.9192 16.3606
vn 0 0 -1
v 1.85537 -83.6919 16.3606
vn 0 0 -1
v 3.50731 -82.1464 16.3606
vn 0 0 -1
v 1.85537 -81.3737 16.3606
vn 0 0 -1
v 1.85537 -82.1464 16.3606
vn 0 0 -1
v 6.81117 -79.8283 16.3606
vn 0 0 -1
v 3.50731 -78.2829 16.3606
vn 0 0 -1
v 3.50731 -79.8283 16.3606
vn 0 0 -1
v 140.848 -10.4016 16.3606
vn -0.0154814 0.0154814 -0.99976
v 0.203442 0.110231 16.9511
vn -0.995415 0.0956514 0
v 0.203442 -2.46916 16.9511
vn -1 0 0
v 0.203442 -2.46916 17.2464
vn -1 0 0
v 0.203442 -1.17947 16.9511
vn -1 0 0
v 0.203442 -1.17947 17.2464
vn -1 0 0
v 0.203442 -2.46916 16.6559
vn -1 0 0
v 0.203442 -1.17947 16.6559
vn -1 0 0
v 0.203442 -82.4961 16.9511
vn -0.996229 -0.0867601 0
v 0.203442 -79.9167 16.9511
vn -1 0 0
v 0.203442 -81.2064 16.9511
vn -1 0 0
v 0.203442 -79.9167 16.6559
vn -1 0 0
v 0.203442 -81.2064 16.6559
vn -1 0 0
v 0.203442 -79.9167 17.2464
vn -1 0 0
v 0.203442 -81.2064 17.2464
vn -1 0 0
v 2.17195 2.07874 16.9511
vn -0.0826965 0.996575 0
v 5.53978 2.07874 16.9511
vn 0 1 0
v 3.85586 2.07874 16.9511
vn 0 1 0
v 5.53978 2.07874 16.6559
vn 0 1 0
v 3.85586 2.07874 16.6559
vn 0 1 0
v 5.53978 2.07874 17.2464
vn 0 1 0
v 3.85586 2.07874 17.2464
vn 0 1 0
v 2.17195 -84.4646 16.9511
vn -0.0826954 -0.996575 0
v 5.53978 -84.4646 16.9511
vn 0 -1 0
v 5.53978 -84.4646 17.2464
vn 0 -1 0
v 3.85586 -84.4646 16.9511
vn 0 -1 0
v 3.85586 -84.4646 17.2464
vn 0 -1 0
v 5.53978 -84.4646 16.6559
vn 0 -1 0
v 3.85586 -84.4646 16.6559
vn 0 -1 0
f 4//4 23//23 3//3
f 4//4 22//22 24//24
f 4//4 24//24 23//23
f 5//5 20//20 4//4
f 19//19 2//2 20//20
f 19//19 20//20 5//5
f 33//33 4//4 181//181
f 4//4 3//3 181//181
f 5//5 4//4 19//19
f 179//179 180//180 4//4
f 179//179 4//4 7//7
f 7//7 4//4 8//8
f 7//7 125//125 129//129
f 9//9 8//8 4//4
f 9//9 4//4 6//6
f 7//7 8//8 9//9
f 9//9 10//10 7//7
f 88//88 13//13 9//9
f 6//6 12//12 88//88
f 9//9 6//6 88//88
f 13//13 10//10 9//9
f 158//158 73//73 159//159
f 158//158 159//159 160//160
f 160//160 159//159 74//74
f 160//160 74//74 149//149
f 159//159 73//73 11//11
f 11//11 74//74 159//159
f 155//155 149//149 156//156
f 155//155 156//156 157//157
f 157//157 156//156 151//151
f 157//157 151//151 152//152
f 156//156 149//149 74//74
f 150//150 151//151 156//156
f 74//74 150//150 156//156
f 152//152 151//151 153//153
f 152//152 153//153 154//154
f 76//76 11//11 75//75
f 91//91 87//87 13//13
f 88//88 12//12 91//91
f 13//13 88//88 91//91
f 96//96 92//92 13//13
f 13//13 92//92 10//10
f 175//175 174//174 166//166
f 175//175 166//166 167//167
f 168//168 166//166 164//164
f 110//110 165//165 168//168
f 164//164 110//110 168//168
f 167//167 166//166 168//168
f 167//167 168//168 170//170
f 170//170 168//168 165//165
f 170//170 165//165 169//169
f 171//171 110//110 109//109
f 97//97 106//106 171//171
f 109//109 97//97 171//171
f 165//165 110//110 171//171
f 165//165 171//171 173//173
f 173//173 171//171 106//106
f 173//173 106//106 172//172
f 107//107 97//97 10//10
f 10//10 92//92 107//107
f 106//106 97//97 107//107
f 106//106 107//107 108//108
f 108//108 107//107 92//92
f 108//108 92//92 96//96
f 3//3 1//1 25//25
f 3//3 26//26 27//27
f 3//3 25//25 26//26
f 3//3 27//27 28//28
f 29//29 3//3 28//28
f 31//31 32//32 3//3
f 31//31 3//3 30//30
f 29//29 30//30 3//3
f 23//23 24//24 3//3
f 43//43 44//44 45//45
f 6//6 46//46 47//47
f 6//6 45//45 46//46
f 6//6 42//42 43//43
f 6//6 43//43 45//45
f 41//41 42//42 6//6
f 6//6 48//48 49//49
f 6//6 50//50 51//51
f 6//6 49//49 50//50
f 6//6 51//51 52//52
f 53//53 6//6 52//52
f 47//47 48//48 6//6
f 3//3 34//34 181//181
f 33//33 35//35 36//36
f 181//181 34//34 35//35
f 33//33 181//181 35//35
f 4//4 33//33 37//37
f 4//4 37//37 38//38
f 33//33 36//36 37//37
f 32//32 34//34 3//3
f 182//182 41//41 6//6
f 4//4 39//39 6//6
f 40//40 6//6 39//39
f 182//182 6//6 40//40
f 38//38 39//39 4//4
f 3//3 24//24 22//22
f 4//4 17//17 18//18
f 18//18 3//3 22//22
f 15//15 16//16 21//21
f 15//15 21//21 4//4
f 20//20 2//2 14//14
f 14//14 15//15 4//4
f 14//14 4//4 20//20
f 16//16 17//17 4//4
f 16//16 4//4 21//21
f 18//18 22//22 4//4
f 4//4 177//177 137//137
f 4//4 137//137 19//19
f 145//145 19//19 144//144
f 19//19 145//145 2//2
f 139//139 19//19 138//138
f 19//19 137//137 138//138
f 142//142 143//143 19//19
f 140//140 141//141 139//139
f 142//142 139//139 141//141
f 142//142 19//19 139//139
f 144//144 19//19 143//143
f 4//4 136//136 176//176
f 135//135 136//136 4//4
f 134//134 135//135 4//4
f 176//176 177//177 4//4
f 4//4 133//133 134//134
f 4//4 132//132 133//133
f 4//4 131//131 132//132
f 180//180 131//131 4//4
f 179//179 178//178 180//180
f 180//180 130//130 131//131
f 180//180 178//178 130//130
f 178//178 179//179 7//7
f 7//7 128//128 178//178
f 129//129 127//127 128//128
f 127//127 129//129 125//125
f 121//121 122//122 125//125
f 128//128 7//7 129//129
f 126//126 127//127 125//125
f 126//126 122//122 123//123
f 122//122 126//126 125//125
f 7//7 120//120 121//121
f 119//119 120//120 7//7
f 7//7 121//121 125//125
f 7//7 124//124 118//118
f 7//7 118//118 119//119
f 124//124 116//116 117//117
f 117//117 118//118 124//124
f 7//7 116//116 124//124
f 11//11 6//6 54//54
f 11//11 54//54 55//55
f 56//56 11//11 55//55
f 58//58 11//11 57//57
f 60//60 11//11 59//59
f 59//59 11//11 58//58
f 57//57 11//11 56//56
f 62//62 11//11 61//61
f 11//11 63//63 64//64
f 11//11 62//62 63//63
f 11//11 64//64 150//150
f 65//65 150//150 64//64
f 11//11 150//150 74//74
f 150//150 65//65 153//153
f 11//11 60//60 61//61
f 79//79 6//6 11//11
f 6//6 83//83 81//81
f 6//6 81//81 82//82
f 83//83 6//6 80//80
f 83//83 80//80 81//81
f 80//80 6//6 79//79
f 6//6 82//82 12//12
f 11//11 76//76 79//79
f 153//153 66//66 154//154
f 146//146 154//154 66//66
f 66//66 153//153 65//65
f 149//149 155//155 160//160
f 158//158 160//160 68//68
f 73//73 158//158 11//11
f 152//152 154//154 148//148
f 154//154 147//147 148//148
f 152//152 148//148 67//67
f 157//157 152//152 67//67
f 155//155 157//157 67//67
f 68//68 69//69 158//158
f 155//155 67//67 68//68
f 155//155 68//68 160//160
f 146//146 147//147 154//154
f 11//11 158//158 69//69
f 76//76 71//71 77//77
f 76//76 77//77 78//78
f 76//76 75//75 70//70
f 76//76 70//70 71//71
f 84//84 12//12 82//82
f 84//84 85//85 12//12
f 75//75 11//11 69//69
f 75//75 69//69 70//70
f 76//76 78//78 79//79
f 77//77 71//71 72//72
f 153//153 151//151 150//150
f 7//7 10//10 115//115
f 7//7 115//115 116//116
f 87//87 91//91 90//90
f 13//13 87//87 90//90
f 13//13 90//90 93//93
f 12//12 90//90 91//91
f 94//94 13//13 93//93
f 13//13 94//94 95//95
f 10//10 97//97 109//109
f 109//109 164//164 113//113
f 109//109 114//114 10//10
f 113//113 164//164 112//112
f 113//113 114//114 109//109
f 95//95 98//98 13//13
f 89//89 12//12 86//86
f 13//13 98//98 99//99
f 96//96 13//13 101//101
f 96//96 101//101 102//102
f 106//106 108//108 172//172
f 108//108 96//96 102//102
f 108//108 102//102 103//103
f 13//13 99//99 101//101
f 89//89 90//90 12//12
f 100//100 101//101 99//99
f 103//103 172//172 108//108
f 169//169 165//165 173//173
f 174//174 164//164 166//166
f 174//174 111//111 112//112
f 174//174 175//175 111//111
f 164//164 174//174 112//112
f 104//104 173//173 172//172
f 109//109 110//110 164//164
f 105//105 170//170 169//169
f 169//169 104//104 105//105
f 104//104 169//169 173//173
f 167//167 170//170 105//105
f 161//161 175//175 167//167
f 163//163 175//175 162//162
f 161//161 162//162 175//175
f 161//161 167//167 105//105
f 111//111 175//175 163//163
f 104//104 172//172 103//103
f 54//54 6//6 53//53
f 183//183 255//255 246//246
f 304//304 257//257 256//256
f 246//246 255//255 304//304
f 256//256 246//246 304//304
f 255//255 305//305 306//306
f 255//255 306//306 304//304
f 304//304 306//306 298//298
f 304//304 298//298 257//257
f 300//300 299//299 297//297
f 257//257 298//298 300//300
f 297//297 257//257 300//300
f 298//298 301//301 303//303
f 298//298 303//303 300//300
f 300//300 303//303 302//302
f 300//300 302//302 299//299
f 299//299 302//302 308//308
f 299//299 308//308 307//307
f 185//185 210//210 184//184
f 210//210 222//222 224//224
f 210//210 224//224 184//184
f 315//315 317//317 316//316
f 315//315 316//316 314//314
f 314//314 316//316 320//320
f 314//314 320//320 318//318
f 318//318 320//320 319//319
f 318//318 319//319 313//313
f 318//318 313//313 220//220
f 312//312 314//314 318//318
f 220//220 312//312 318//318
f 220//220 313//313 323//323
f 220//220 323//323 321//321
f 321//321 323//323 322//322
f 321//321 322//322 219//219
f 321//321 219//219 211//211
f 218//218 220//220 321//321
f 211//211 218//218 321//321
f 211//211 219//219 223//223
f 211//211 223//223 221//221
f 221//221 223//223 222//222
f 221//221 222//222 210//210
f 221//221 210//210 185//185
f 204//204 211//211 221//221
f 185//185 204//204 221//221
f 204//204 185//185 184//184
f 184//184 186//186 204//204
f 284//284 187//187 183//183
f 188//188 200//200 186//186
f 308//308 294//294 295//295
f 295//295 296//296 308//308
f 258//258 308//308 296//296
f 302//302 294//294 308//308
f 254//254 301//301 253//253
f 254//254 302//302 303//303
f 302//302 254//254 294//294
f 303//303 301//301 254//254
f 259//259 297//297 307//307
f 307//307 297//297 299//299
f 259//259 307//307 258//258
f 306//306 301//301 298//298
f 253//253 301//301 306//306
f 257//257 297//297 256//256
f 307//307 308//308 258//258
f 305//305 253//253 306//306
f 250//250 251//251 183//183
f 248//248 249//249 250//250
f 240//240 184//184 239//239
f 238//238 184//184 237//237
f 184//184 238//238 239//239
f 251//251 252//252 183//183
f 183//183 305//305 255//255
f 248//248 183//183 247//247
f 248//248 250//250 183//183
f 183//183 245//245 247//247
f 183//183 252//252 305//305
f 305//305 252//252 253//253
f 184//184 240//240 241//241
f 297//297 260//260 256//256
f 256//256 261//261 262//262
f 256//256 260//260 261//261
f 183//183 246//246 256//256
f 264//264 183//183 263//263
f 262//262 183//183 256//256
f 183//183 262//262 263//263
f 183//183 264//264 265//265
f 266//266 183//183 265//265
f 268//268 183//183 267//267
f 270//270 183//183 269//269
f 269//269 183//183 268//268
f 267//267 183//183 266//266
f 271//271 183//183 270//270
f 184//184 244//244 245//245
f 245//245 183//183 184//184
f 184//184 243//243 244//244
f 241//241 242//242 184//184
f 242//242 243//243 184//184
f 183//183 271//271 272//272
f 259//259 260//260 297//297
f 184//184 236//236 237//237
f 235//235 184//184 234//234
f 184//184 233//233 234//234
f 217//217 225//225 216//216
f 215//215 216//216 224//224
f 215//215 224//224 222//222
f 232//232 233//233 184//184
f 232//232 184//184 231//231
f 226//226 227//227 224//224
f 222//222 223//223 214//214
f 222//222 214//214 215//215
f 224//224 225//225 226//226
f 184//184 230//230 231//231
f 224//224 216//216 225//225
f 235//235 236//236 184//184
f 323//323 319//319 213//213
f 212//212 213//213 319//319
f 322//322 213//213 214//214
f 320//320 212//212 319//319
f 316//316 311//311 212//212
f 311//311 317//317 310//310
f 310//310 317//317 309//309
f 212//212 320//320 316//316
f 319//319 323//323 313//313
f 322//322 323//323 213//213
f 309//309 317//317 209//209
f 315//315 209//209 317//317
f 314//314 312//312 315//315
f 208//208 209//209 315//315
f 311//311 316//316 317//317
f 322//322 214//214 223//223
f 219//219 322//322 223//223
f 229//229 230//230 184//184
f 227//227 184//184 224//224
f 228//228 184//184 227//227
f 184//184 228//228 229//229
f 218//218 211//211 204//204
f 218//218 312//312 220//220
f 218//218 207//207 312//312
f 208//208 312//312 207//207
f 315//315 312//312 208//208
f 218//218 206//206 207//207
f 204//204 205//205 218//218
f 205//205 206//206 218//218
f 186//186 202//202 203//203
f 202//202 186//186 201//201
f 203//203 204//204 186//186
f 183//183 272//272 273//273
f 183//183 274//274 275//275
f 183//183 273//273 274//274
f 183//183 275//275 276//276
f 278//278 183//183 277//277
f 276//276 277//277 183//183
f 183//183 278//278 279//279
f 281//281 279//279 280//280
f 282//282 284//284 183//183
f 183//183 281//281 282//282
f 281//281 183//183 279//279
f 282//282 283//283 284//284
f 284//284 283//283 187//187
f 183//183 187//187 184//184
f 285//285 184//184 187//187
f 184//184 285//285 286//286
f 184//184 286//286 287//287
f 287//287 288//288 184//184
f 288//288 289//289 184//184
f 184//184 289//289 324//324
f 190//190 184//184 292//292
f 293//293 190//190 292//292
f 184//184 290//290 291//291
f 292//292 184//184 291//291
f 290//290 184//184 324//324
f 198//198 184//184 189//189
f 198//198 186//186 184//184
f 201//201 186//186 200//200
f 188//188 197//197 200//200
f 197//197 199//199 200//200
f 189//189 184//184 192//192
f 189//189 192//192 193//193
f 189//189 193//193 194//194
f 189//189 194//194 195//195
f 189//189 191//191 196//196
f 195//195 191//191 189//189
f 191//191 141//141 140//140
f 191//191 140//140 196//196
f 191//191 143//143 142//142
f 191//191 144//144 143//143
f 191//191 142//142 141//141
f 191//191 145//145 144//144
f 191//191 2//2 145//145
f 327//327 329//329 328//328
f 327//327 328//328 326//326
f 326//326 328//328 331//331
f 326//326 331//331 330//330
f 331//331 325//325 254//254
f 328//328 325//325 331//331
f 331//331 253//253 330//330
f 253//253 331//331 254//254
f 67//67 325//325 328//328
f 67//67 328//328 329//329
f 69//69 327//327 326//326
f 68//68 67//67 329//329
f 68//68 329//329 327//327
f 326//326 330//330 252//252
f 252//252 69//69 326//326
f 251//251 250//250 71//71
f 251//251 71//71 70//70
f 250//250 249//249 72//72
f 250//250 72//72 71//71
f 252//252 251//251 70//70
f 252//252 70//70 69//69
f 69//69 68//68 327//327
f 253//253 252//252 330//330
f 77//77 72//72 249//249
f 77//77 249//249 248//248
f 247//247 78//78 77//77
f 247//247 77//77 248//248
f 78//78 247//247 245//245
f 78//78 245//245 79//79
f 85//85 240//240 239//239
f 85//85 239//239 12//12
f 12//12 238//238 237//237
f 12//12 239//239 238//238
f 236//236 12//12 237//237
f 12//12 235//235 234//234
f 12//12 233//233 232//232
f 12//12 232//232 86//86
f 12//12 234//234 233//233
f 235//235 12//12 236//236
f 338//338 337//337 333//333
f 338//338 333//333 334//334
f 334//334 333//333 335//335
f 334//334 335//335 336//336
f 217//217 216//216 101//101
f 217//217 101//101 100//100
f 214//214 103//103 102//102
f 214//214 102//102 215//215
f 216//216 215//215 102//102
f 216//216 102//102 101//101
f 213//213 335//335 214//214
f 214//214 333//333 103//103
f 333//333 337//337 103//103
f 332//332 336//336 212//212
f 213//213 336//336 335//335
f 336//336 213//213 212//212
f 332//332 334//334 336//336
f 338//338 104//104 337//337
f 337//337 104//104 103//103
f 334//334 332//332 338//338
f 105//105 338//338 332//332
f 104//104 338//338 105//105
f 335//335 333//333 214//214
f 190//190 25//25 1//1
f 190//190 27//27 26//26
f 190//190 26//26 25//25
f 28//28 27//27 190//190
f 190//190 30//30 29//29
f 190//190 293//293 30//30
f 29//29 28//28 190//190
f 339//339 258//258 296//296
f 147//147 146//146 296//296
f 147//147 296//296 295//295
f 66//66 339//339 146//146
f 296//296 146//146 339//339
f 325//325 294//294 254//254
f 148//148 294//294 325//325
f 148//148 147//147 295//295
f 148//148 295//295 294//294
f 325//325 67//67 148//148
f 345//345 344//344 340//340
f 345//345 340//340 341//341
f 341//341 340//340 342//342
f 341//341 342//342 343//343
f 280//280 279//279 45//45
f 280//280 45//45 44//44
f 279//279 278//278 46//46
f 279//279 46//46 45//45
f 276//276 48//48 47//47
f 276//276 47//47 277//277
f 275//275 49//49 48//48
f 275//275 48//48 276//276
f 278//278 277//277 47//47
f 278//278 47//47 46//46
f 273//273 51//51 50//50
f 273//273 50//50 274//274
f 273//273 272//272 52//52
f 273//273 52//52 51//51
f 270//270 54//54 53//53
f 270//270 53//53 271//271
f 268//268 56//56 55//55
f 268//268 55//55 269//269
f 269//269 55//55 54//54
f 269//269 54//54 270//270
f 272//272 271//271 53//53
f 272//272 53//53 52//52
f 274//274 50//50 49//49
f 274//274 49//49 275//275
f 56//56 268//268 267//267
f 56//56 267//267 57//57
f 266//266 58//58 57//57
f 266//266 57//57 267//267
f 265//265 59//59 58//58
f 265//265 58//58 266//266
f 263//263 61//61 60//60
f 263//263 60//60 264//264
f 262//262 62//62 61//61
f 262//262 61//61 263//263
f 264//264 60//60 59//59
f 264//264 59//59 265//265
f 260//260 64//64 63//63
f 260//260 63//63 261//261
f 340//340 260//260 259//259
f 259//259 342//342 340//340
f 258//258 339//339 341//341
f 258//258 341//341 343//343
f 259//259 343//343 342//342
f 343//343 259//259 258//258
f 261//261 63//63 62//62
f 261//261 62//62 262//262
f 340//340 64//64 260//260
f 344//344 65//65 340//340
f 339//339 345//345 341//341
f 64//64 340//340 65//65
f 66//66 65//65 344//344
f 66//66 344//344 345//345
f 339//339 66//66 345//345
f 332//332 212//212 311//311
f 311//311 310//310 162//162
f 311//311 162//162 161//161
f 105//105 332//332 161//161
f 311//311 161//161 332//332
f 346//346 309//309 209//209
f 163//163 309//309 346//346
f 163//163 162//162 310//310
f 163//163 310//310 309//309
f 346//346 111//111 163//163
f 348//348 350//350 349//349
f 348//348 349//349 347//347
f 347//347 349//349 352//352
f 347//347 352//352 351//351
f 209//209 208//208 351//351
f 209//209 351//351 352//352
f 347//347 351//351 208//208
f 352//352 349//349 346//346
f 209//209 352//352 346//346
f 208//208 207//207 347//347
f 207//207 206//206 114//114
f 207//207 114//114 113//113
f 205//205 10//10 114//114
f 205//205 114//114 206//206
f 204//204 10//10 205//205
f 10//10 204//204 115//115
f 111//111 346//346 349//349
f 111//111 349//349 350//350
f 112//112 111//111 350//350
f 112//112 350//350 348//348
f 347//347 112//112 348//348
f 112//112 347//347 113//113
f 207//207 113//113 347//347
f 203//203 116//116 204//204
f 202//202 116//116 203//203
f 200//200 116//116 201//201
f 201//201 116//116 202//202
f 200//200 118//118 117//117
f 200//200 119//119 118//118
f 200//200 121//121 120//120
f 199//199 123//123 122//122
f 199//199 122//122 200//200
f 200//200 122//122 121//121
f 200//200 120//120 119//119
f 200//200 117//117 116//116
f 204//204 116//116 115//115
f 2//2 191//191 195//195
f 2//2 194//194 193//193
f 2//2 193//193 14//14
f 2//2 195//195 194//194
f 15//15 192//192 184//184
f 15//15 184//184 16//16
f 17//17 184//184 18//18
f 18//18 184//184 3//3
f 17//17 16//16 184//184
f 14//14 193//193 192//192
f 14//14 192//192 15//15
f 3//3 184//184 190//190
f 3//3 190//190 1//1
f 137//137 189//189 138//138
f 138//138 189//189 139//139
f 140//140 139//139 189//189
f 140//140 189//189 196//196
f 136//136 198//198 189//189
f 136//136 189//189 176//176
f 176//176 189//189 177//177
f 177//177 189//189 137//137
f 130//130 186//186 131//131
f 131//131 186//186 132//132
f 132//132 186//186 133//133
f 134//134 186//186 135//135
f 135//135 186//186 198//198
f 135//135 198//198 136//136
f 186//186 134//134 133//133
f 128//128 188//188 178//178
f 186//186 130//130 178//178
f 186//186 178//178 188//188
f 123//123 199//199 197//197
f 123//123 197//197 126//126
f 126//126 197//197 127//127
f 127//127 197//197 188//188
f 127//127 188//188 128//128
f 34//34 289//289 288//288
f 34//34 288//288 35//35
f 35//35 288//288 287//287
f 35//35 287//287 36//36
f 36//36 287//287 286//286
f 36//36 286//286 37//37
f 38//38 285//285 187//187
f 38//38 187//187 39//39
f 40//40 39//39 187//187
f 285//285 38//38 37//37
f 285//285 37//37 286//286
f 324//324 32//32 290//290
f 32//32 324//324 289//289
f 32//32 289//289 34//34
f 30//30 293//293 292//292
f 30//30 292//292 291//291
f 30//30 291//291 31//31
f 32//32 31//31 291//291
f 32//32 291//291 290//290
f 41//41 283//283 282//282
f 41//41 282//282 42//42
f 42//42 282//282 281//281
f 42//42 281//281 43//43
f 43//43 281//281 280//280
f 43//43 280//280 44//44
f 187//187 182//182 40//40
f 41//41 182//182 187//187
f 41//41 187//187 283//283
f 241//241 84//84 82//82
f 241//241 82//82 242//242
f 84//84 241//241 240//240
f 84//84 240//240 85//85
f 79//79 245//245 244//244
f 79//79 244//244 80//80
f 243//243 81//81 80//80
f 243//243 80//80 244//244
f 82//82 81//81 243//243
f 82//82 243//243 242//242
f 95//95 227//227 226//226
f 95//95 226//226 98//98
f 225//225 99//99 98//98
f 225//225 98//98 226//226
f 100//100 99//99 225//225
f 100//100 225//225 217//217
f 90//90 230//230 229//229
f 90//90 229//229 93//93
f 228//228 94//94 93//93
f 228//228 93//93 229//229
f 94//94 228//228 227//227
f 94//94 227//227 95//95
f 231//231 89//89 86//86
f 231//231 86//86 232//232
f 89//89 231//231 230//230
f 89//89 230//230 90//90
