# Created by Open3D 
# object name: InfoWheels Bench DS 52in Rear
# number of vertices: 741
# number of triangles: 1494
v 75.3588 34.7975 -18.3713
vn -0.973986 -0.0288233 0.224766
v 75.3588 34.7975 -24.8713
vn -0.993382 -0.00734931 -0.114621
v 75.3588 85.485 -18.3713
vn -0.998313 0.00738579 0.057595
v 75.3588 85.485 -24.8713
vn -0.99298 0.0293853 -0.114575
v 76.1088 85.485 -18.3713
vn 0.973986 0.0288233 0.224766
v 76.1088 85.485 -24.8713
vn 0.993382 0.00734931 -0.114621
v 76.1088 34.7975 -18.3713
vn 0.998313 -0.00738579 0.057595
v 76.1088 34.7975 -24.8713
vn 0.99298 -0.0293853 -0.114575
v 75.3588 85.485 -23.6213
vn 0.0802428 0.0291882 0.996348
v 75.3588 34.7975 -23.6213
vn 0.020128 -0.0146431 0.99969
v 56.7338 85.485 -23.6213
vn -0.0201296 0.00739657 0.99977
v 56.7338 34.7975 -23.6213
vn -0.0802683 -0.0147472 0.996664
v 56.7338 85.485 -24.3713
vn -1 0 0
v 56.7338 34.7975 -24.3713
vn -1 0 0
v 57.1088 85.485 -24.3713
vn 0 0.0298838 -0.999553
v 57.1088 34.7975 -24.3713
vn 0 -0.0149469 -0.999888
v 75.3588 85.485 -24.3713
vn 0.020543 0.00739651 -0.999762
v 75.3588 34.7975 -24.3713
vn 0.0819067 -0.0147452 -0.996531
v 66.4838 85.485 -36.3713
vn 0.274693 0.0142258 -0.961427
v 66.4838 85.485 -35.6213
vn 0.141361 0.0292831 0.989525
v 61.2338 85.485 -36.3713
vn -0.0712393 0.0147573 -0.99735
v 61.2338 85.485 -35.6213
vn -0.141418 0.00732372 0.989923
v 61.2338 34.7975 -36.3713
vn -0.274693 -0.0142258 -0.961427
v 61.2338 34.7975 -35.6213
vn -0.141361 -0.0292831 0.989525
v 66.4838 34.7975 -36.3713
vn 0.0712393 -0.0147573 -0.99735
v 66.4838 34.7975 -35.6213
vn 0.141418 -0.00732372 0.989923
v 54.9211 34.7975 -20.4234
vn -0.933723 0.00377363 -0.357976
v 54.9211 60.1413 -20.4234
vn -0.931314 0 -0.364217
v 54.9211 85.485 -20.4234
vn -0.932502 -0.00689108 -0.361099
v 54.8298 85.485 -20.0764
vn -0.995644 0 -0.0932353
v 54.8248 34.7975 -19.7067
vn -0.999781 -0.0182454 -0.0102496
v 54.8248 85.485 -19.7067
vn -0.988617 0 0.150456
v 54.9104 34.7975 -19.347
vn -0.951293 3.99502e-18 0.308289
v 54.9104 85.485 -19.347
vn -0.923344 0 0.383973
v 55.0752 34.7975 -19.0282
vn -0.848766 0 0.528769
v 55.0752 85.485 -19.0282
vn -0.804165 0 0.594406
v 55.3109 34.7975 -18.7576
vn -0.696889 -1.51325e-18 0.717179
v 55.3109 85.485 -18.7576
vn -0.636687 1.4982e-18 0.771122
v 55.6139 34.7975 -18.5457
vn -0.503589 0 0.863944
v 55.6139 85.485 -18.5457
vn -0.43124 0 0.902237
v 55.9595 34.7975 -18.4143
vn -0.279856 0 0.960042
v 55.9595 85.485 -18.4143
vn -0.201635 0 0.979461
v 56.3158 34.7975 -18.3713
vn -0.00420967 6.16894e-05 0.999991
v 56.3158 60.1413 -18.3713
vn -0.00161774 0 0.999999
v 56.3158 85.485 -18.3713
vn -0.00215774 -2.1577e-17 0.999998
v 54.8298 60.1413 -20.0764
vn -0.988607 -0.000500172 -0.150522
v 54.8248 60.1413 -19.7067
vn -0.99395 0 0.109833
v 54.9104 60.1413 -19.347
vn -0.938152 0 0.346224
v 55.0752 60.1413 -19.0282
vn -0.827117 0 0.56203
v 55.3109 60.1413 -18.7576
vn -0.667183 0 0.744894
v 55.6139 60.1413 -18.5457
vn -0.467806 0 0.883831
v 55.9595 60.1413 -18.4143
vn -0.241136 0 0.970491
v 75.9838 34.7975 -18.3713
vn 0.00108046 9.44877e-18 0.999999
v 75.9838 85.485 -18.3713
vn 0.00108046 -9.44879e-18 0.999999
v 66.4838 34.7975 -36.4963
vn 0.00928187 -0.00959859 -0.999911
v 66.4838 85.485 -36.4963
vn 0.00664217 0.00686882 -0.999954
v 61.5736 34.7975 -36.4963
vn -0.00811612 -0.024477 -0.999667
v 61.5736 85.485 -36.4963
vn -0.00417355 0.0251738 -0.999674
v 61.5736 47.4694 -36.4963
vn -0.00211758 0 -0.999998
v 61.5736 60.1413 -36.4963
vn -0.00617441 0 -0.999981
v 61.5736 72.8132 -36.4963
vn -0.0061744 0 -0.999981
v 61.1087 34.7975 -36.1804
vn -0.654201 -0.711009 -0.257851
v 61.1087 85.485 -36.1804
vn -0.881506 0.320199 -0.347017
v 61.1087 72.8132 -36.1804
vn -0.930114 0 -0.367272
v 61.1087 60.1413 -36.1804
vn -0.930114 0 -0.367272
v 61.1087 47.4694 -36.1804
vn -0.930457 0 -0.3664
v 75.9838 34.7975 -24.8713
vn 0.474355 0 -0.880334
v 66.4838 34.7975 -24.8713
vn 0.882878 0.105455 -0.457609
v 61.4298 34.7975 -36.4752
vn -0.340859 -0.00115133 -0.940114
v 61.2925 34.7975 -36.4099
vn -0.603851 -0.00454798 -0.797084
v 61.1813 34.7975 -36.3063
vn -0.81094 -0.00992354 -0.585045
v 75.9838 85.485 -24.8713
vn 0.733057 0 -0.680167
v 66.4838 85.485 -24.8713
vn 0.691932 -0.0826404 -0.717217
v 61.4298 85.485 -36.4752
vn -0.245272 0.00116911 -0.969453
v 61.2925 85.485 -36.4099
vn -0.518915 0.00454745 -0.854814
v 61.1813 85.485 -36.3063
vn -0.748587 0.00977387 -0.662964
v 61.4298 72.8132 -36.4752
vn -0.314165 0 -0.949368
v 61.2925 72.8132 -36.4099
vn -0.603858 0 -0.797092
v 61.1813 72.8132 -36.3063
vn -0.798999 0 -0.601333
v 61.4298 60.1413 -36.4752
vn -0.293799 0 -0.955867
v 61.2925 60.1413 -36.4099
vn -0.562128 0 -0.82705
v 61.1813 60.1413 -36.3063
vn -0.780537 0 -0.62511
v 61.4298 47.4694 -36.4752
vn -0.264839 0 -0.964293
v 61.2925 47.4694 -36.4099
vn -0.51892 0 -0.854823
v 61.1813 47.4694 -36.3063
vn -0.767021 0 -0.641621
v 71.7914 34.485 -17.3156
vn -0.999673 -0.00401084 0.0252647
v 71.7914 60.1413 -17.3156
vn -0.998907 0 0.0467505
v 71.7914 85.7975 -17.3156
vn -0.999673 0.00401084 0.0252647
v 72.2613 85.7975 -10.3654
vn -0.996626 0.00046994 0.0820747
v 72.5585 34.485 -7.20349
vn -0.994336 -0.0015299 0.106275
v 72.9058 85.7975 -4.38692
vn -0.989845 0.00181459 0.142137
v 73.7767 34.485 -0.199242
vn -0.944077 -5.01361e-05 0.329726
v 74.6096 85.7975 1.27363
vn -0.648444 -0.00150455 0.761261
v 74.9258 34.485 1.37865
vn -0.036052 -0.00049452 0.99935
v 74.9258 85.7975 1.37865
vn -0.0427665 0.000934467 0.999085
v 74.7652 85.7975 1.35213
vn -0.315208 -0.000614341 0.949022
v 74.3132 85.7975 0.967115
vn -0.83609 -0.000379358 0.548592
v 74.0359 85.7975 0.47189
vn -0.915153 -0.000129807 0.403107
v 73.7767 85.7975 -0.199242
vn -0.948821 0.000116243 0.315813
v 73.5349 85.7975 -1.03349
vn -0.966599 -3.41032e-05 0.256293
v 73.4203 85.7975 -1.50778
vn -0.974816 0.00319056 0.222989
v 73.3097 85.7975 -2.01805
vn -0.979454 0.00133876 0.201664
v 73.2031 85.7975 -2.56269
vn -0.983031 0.00277444 0.183421
v 73.1003 85.7975 -3.14012
vn -0.985789 -0.000116622 0.16799
v 73.0012 85.7975 -3.74873
vn -0.988049 0.00129395 0.154135
v 72.8139 85.7975 -5.05309
vn -0.991281 0.00602441 0.131627
v 72.7255 85.7975 -5.74564
vn -0.992493 6.98341e-05 0.122299
v 72.6404 85.7975 -6.46297
vn -0.993502 0.00125806 0.113808
v 72.5585 85.7975 -7.20349
vn -0.994336 0.0015299 0.106275
v 72.4798 85.7975 -7.96558
vn -0.995037 0.00177441 0.0994927
v 72.4041 85.7975 -8.74766
vn -0.995604 0.00512054 0.0935216
v 72.3313 85.7975 -9.54813
vn -0.995781 0.000204791 0.0917645
v 72.1941 85.7975 -11.1978
vn -0.996987 0.000530452 0.077568
v 72.1295 85.7975 -12.0438
vn -0.997293 0.00176025 0.0735102
v 72.0674 85.7975 -12.9018
vn -0.997568 0.000462977 0.069702
v 72.0078 85.7975 -13.7702
vn -0.997796 0.000452866 0.0663486
v 71.9504 85.7975 -14.6474
vn -0.998145 0.000710902 0.06087
v 71.8953 85.7975 -15.5317
vn -0.998196 0.00144513 0.0600222
v 71.8423 85.7975 -16.4217
vn -0.998288 0.006448 0.0581348
v 71.7914 77.2455 -17.3156
vn -0.999929 -0.000231886 0.0119361
v 71.7914 68.6934 -17.3156
vn -0.999343 -0.000106773 0.0362313
v 71.7914 51.5892 -17.3156
vn -0.999764 9.84163e-05 0.0217236
v 71.7914 43.0371 -17.3156
vn -0.999929 0.000231885 0.0119361
v 71.8423 34.485 -16.4217
vn -0.998288 -0.00644805 0.0581348
v 71.8953 34.485 -15.5317
vn -0.998196 -0.00144513 0.0600222
v 71.9504 34.485 -14.6474
vn -0.9981 -0.000590438 0.0616201
v 72.0078 34.485 -13.7702
vn -0.997726 -0.000454355 0.0674044
v 72.0674 34.485 -12.9018
vn -0.997481 -0.000464795 0.0709384
v 72.1295 34.485 -12.0438
vn -0.997196 -0.00176831 0.0748165
v 72.1941 34.485 -11.1978
vn -0.996874 -0.000533258 0.0790081
v 72.2613 34.485 -10.3654
vn -0.996491 -0.000472752 0.083694
v 72.3313 34.485 -9.54813
vn -0.995644 -0.000251666 0.0932348
v 72.4041 34.485 -8.74766
vn -0.995604 -0.00512058 0.0935215
v 72.4798 34.485 -7.96558
vn -0.995037 -0.00177441 0.0994927
v 72.6404 34.485 -6.46297
vn -0.993502 -0.00125806 0.113808
v 72.7255 34.485 -5.74564
vn -0.992493 -6.98339e-05 0.122299
v 72.8139 34.485 -5.05309
vn -0.991281 -0.00602446 0.131627
v 72.9058 34.485 -4.38692
vn -0.989845 -0.00181459 0.142137
v 73.0012 34.485 -3.74873
vn -0.988049 -0.00129395 0.154135
v 73.1003 34.485 -3.14012
vn -0.985789 0.000116622 0.16799
v 73.2031 34.485 -2.56269
vn -0.983031 -0.00277445 0.183421
v 73.3097 34.485 -2.01805
vn -0.979454 -0.00133876 0.201664
v 73.4203 34.485 -1.50778
vn -0.974816 -0.00319058 0.222989
v 73.5349 34.485 -1.03349
vn -0.967034 2.67051e-05 0.254646
v 74.0359 34.485 0.47189
vn -0.898099 0.00012159 0.439793
v 74.3132 34.485 0.967115
vn -0.802969 0.000526247 0.596021
v 74.6096 34.485 1.27363
vn -0.648444 0.00118821 0.761262
v 74.7652 34.485 1.35213
vn -0.36252 0.000404347 0.931976
v 72.5585 60.1413 -7.20349
vn -0.994211 0 0.107444
v 72.9058 60.1413 -4.38692
vn -0.989717 0 0.14304
v 73.3097 60.1413 -2.01805
vn -0.97877 0 0.204963
v 73.7767 60.1413 -0.199242
vn -0.960095 0.000441138 0.279674
v 74.3132 60.1413 0.967115
vn -0.782433 -1.15492e-19 0.622734
v 74.0359 60.1413 0.47189
vn -0.9102 0 0.414168
v 74.6096 42.5026 1.27363
vn -0.648445 0.000596638 0.761261
v 74.7652 42.5026 1.35213
vn -0.315201 0 0.949025
v 74.7652 77.78 1.35213
vn -0.477881 -2.20312e-19 0.878424
v 73.7767 69.7624 -0.199242
vn -0.955922 -0.000468091 0.29362
v 75.9838 34.485 1.37865
vn 0.967076 -0.000345783 0.254489
v 75.9838 85.7975 1.37865
vn 0.687477 0.000495122 0.726206
v 75.4548 34.485 1.37865
vn 0 -0.000681794 1
v 75.7193 34.485 1.37865
vn 5.58657e-16 -0.000681794 1
v 75.7193 85.7975 1.37865
vn 2.79827e-16 0.000681792 1
v 75.4548 85.7975 1.37865
vn 0 0.000545824 1
v 75.9838 33.985 0.878651
vn 0.999997 -0.0025192 4.67011e-06
v 75.9838 33.985 -17.8713
vn 0.999703 -0.0243788 -5.42613e-05
v 75.9838 34.485 -18.3713
vn 0.299702 -0.000325716 -0.954033
v 75.9838 85.7975 -18.3713
vn 0.78407 0.00042305 -0.620673
v 75.9838 86.2975 -17.8713
vn 0.99992 0.0126676 -2.81951e-05
v 75.9838 86.2975 0.878651
vn 0.999988 0.0048492 8.98949e-06
v 75.9838 34.301 1.34354
vn 0.0938322 -0.440166 0.893
v 75.9838 34.1315 1.2322
vn 0.345386 -0.707623 0.616424
v 75.9838 34.0201 1.0627
vn 0.618313 -0.744597 0.251524
v 75.9838 86.2624 1.0627
vn 0.618436 0.744547 0.251369
v 75.9838 86.1511 1.2322
vn 0.345676 0.707698 0.616175
v 75.9838 85.9816 1.34354
vn 0.0938891 0.440095 0.893029
v 75.9838 34.0201 -18.0554
vn 0.245833 -0.869392 -0.42863
v 75.9838 34.1315 -18.2249
vn 0.121031 -0.651779 -0.74869
v 75.9838 34.301 -18.3362
vn 0.0320578 -0.319763 -0.946955
v 75.9838 85.9816 -18.3362
vn 0.0320717 0.319656 -0.946991
v 75.9838 86.1511 -18.2249
vn 0.121134 0.651853 -0.748608
v 75.9838 86.2624 -18.0554
vn 0.24593 0.869502 -0.428351
v 72.7898 34.485 -18.3713
vn -0.079372 -0.00303115 -0.99684
v 72.7898 85.7975 -18.3713
vn -0.0338519 0.00466529 -0.999416
v 73.5883 85.7975 -18.3713
vn 0 0.00401775 -0.999992
v 74.3868 85.7975 -18.3713
vn 0 0.000431051 -1
v 75.1853 85.7975 -18.3713
vn 0 0.000681598 -1
v 72.7898 47.3132 -18.3713
vn -0.0408692 0 -0.999165
v 72.7898 60.1413 -18.3713
vn -0.0226992 0 -0.999742
v 72.7898 72.9694 -18.3713
vn -0.060342 -0.000123707 -0.998178
v 75.1853 34.485 -18.3713
vn 0 -0.0006816 -1
v 74.3868 34.485 -18.3713
vn 0 -0.00054567 -1
v 73.5883 34.485 -18.3713
vn 0 -0.00401776 -0.999992
v 72.3943 47.3132 -18.2898
vn -0.372459 0.000329868 -0.928049
v 72.3943 60.1413 -18.2898
vn -0.39546 0 -0.918483
v 72.3943 72.9694 -18.2898
vn -0.426679 -0.000453265 -0.904403
v 72.0633 34.485 -18.0585
vn -0.783237 -0.000947203 -0.621723
v 72.0633 47.3132 -18.0585
vn -0.740115 0.000256254 -0.67248
v 72.0633 60.1413 -18.0585
vn -0.726491 0 -0.687176
v 72.0633 72.9694 -18.0585
vn -0.712584 -0.00025606 -0.701586
v 72.0633 85.7975 -18.0585
vn -0.664338 0.000946837 -0.747432
v 71.8507 47.3132 -17.7151
vn -0.935936 0.000410248 -0.35217
v 71.8507 60.1413 -17.7151
vn -0.934838 0 -0.355074
v 71.8507 72.9694 -17.7151
vn -0.942079 -0.000350329 -0.33539
v 72.522 34.485 -18.3348
vn -0.267091 -0.0045456 -0.963661
v 72.2738 34.485 -18.2279
vn -0.540701 -0.002623 -0.84121
v 71.9058 34.485 -17.8388
vn -0.883669 -0.00455408 -0.46809
v 71.8129 34.485 -17.585
vn -0.981532 -0.00305308 -0.191271
v 71.8129 85.7975 -17.585
vn -0.981532 0.00305308 -0.191271
v 71.9058 85.7975 -17.8388
vn -0.869982 0.00262506 -0.493076
v 72.2738 85.7975 -18.2279
vn -0.516566 0.00455063 -0.856236
v 72.522 85.7975 -18.3348
vn -0.239559 0.00262021 -0.970878
v 74.9261 33.985 0.878432
vn 0.00336097 -0.982365 0.186942
v 75.1903 33.985 0.878651
vn -2.80101e-07 -0.999999 0.00101571
v 75.4548 33.985 0.878651
vn 0 -0.999999 0.00111244
v 75.7193 33.985 0.878651
vn 0 -0.999996 0.00276725
v 75.1853 33.985 -17.8713
vn 0 -0.999999 -0.00131105
v 74.3868 33.985 -17.8713
vn 0 -0.999997 -0.00255183
v 72.7898 33.985 -17.8713
vn -0.000410956 -0.999926 -0.0121962
v 72.2906 33.985 -17.3435
vn -0.113444 -0.993527 0.00594309
v 72.5225 33.985 -13.5671
vn -0.0246138 -0.999696 0.00172276
v 72.8118 33.985 -9.79472
vn -0.0202816 -0.999793 0.00186457
v 73.1581 33.985 -6.34012
vn -0.0179668 -0.999836 0.00223292
v 73.5684 33.985 -3.37239
vn -0.00718888 -0.999974 0.00113369
v 73.7812 33.985 -2.20527
vn -0.0107138 -0.99994 0.00229871
v 74.0479 33.985 -1.04961
vn -0.00335278 -0.999994 0.000900392
v 74.2738 33.985 -0.288797
vn -0.058554 -0.998092 0.0196128
v 74.4126 33.985 0.0829208
vn -0.0706831 -0.997032 0.0305024
v 74.5786 33.985 0.443222
vn -0.0779544 -0.995874 0.0464531
v 74.7057 33.985 0.655762
vn -0.0231721 -0.999588 0.0169086
v 74.7802 33.985 0.75466
vn -0.0441432 -0.99821 0.0403568
v 74.8673 33.985 0.842563
vn -0.018246 -0.999626 0.0203826
v 74.8921 33.985 0.861036
vn -0.0105029 -0.999807 0.0166115
v 74.919 33.985 0.876186
vn -0.00819175 -0.999855 0.0149364
v 74.9223 33.985 0.877599
vn -0.00329401 -0.999872 0.0156475
v 74.9268 33.985 0.877828
vn -1.25678e-06 -1 5.7999e-06
v 72.592 33.985 -17.8306
vn -0.00664888 -0.9999 -0.012463
v 72.4265 33.985 -17.7149
vn -0.0127681 -0.999866 -0.0101964
v 72.3203 33.985 -17.5432
vn -0.16082 -0.986001 -0.0440277
v 75.1853 86.2975 -17.8713
vn 0 0.999999 -0.00131105
v 74.3868 86.2975 -17.8713
vn 0 0.999997 -0.00239664
v 73.5883 86.2975 -17.8713
vn 0 0.999985 -0.00539226
v 72.7898 86.2975 -17.8713
vn -0.000750893 0.999951 -0.0098581
v 74.9261 86.2975 0.878432
vn 0.00355226 0.982364 0.186943
v 75.1903 86.2975 0.878651
vn -2.80101e-07 0.999999 0.00101571
v 75.4548 86.2975 0.878651
vn 0 0.999999 0.00111244
v 75.7193 86.2975 0.878651
vn 0 0.999996 0.00276725
v 72.2906 86.2975 -17.3435
vn -0.113444 0.993527 0.00594309
v 72.5225 86.2975 -13.5671
vn -0.0364201 0.999333 0.00254911
v 72.8118 86.2975 -9.79472
vn -0.0171038 0.999852 0.00157243
v 73.1581 86.2975 -6.34012
vn -0.0179668 0.999836 0.00223292
v 73.5684 86.2975 -3.37239
vn -0.00718888 0.999974 0.00113369
v 73.7812 86.2975 -2.20527
vn -0.0107138 0.99994 0.00229871
v 74.0479 86.2975 -1.04961
vn -0.00335278 0.999994 0.000900392
v 74.2738 86.2975 -0.288797
vn -0.058554 0.998092 0.0196128
v 74.4126 86.2975 0.0829208
vn -0.0706831 0.997032 0.0305024
v 74.5786 86.2975 0.443222
vn -0.0779239 0.99588 0.0463825
v 74.7057 86.2975 0.655762
vn -0.0229959 0.999595 0.0167577
v 74.7802 86.2975 0.75466
vn -0.0418727 0.998387 0.0383331
v 74.8673 86.2975 0.842563
vn -0.0194324 0.999584 0.0213349
v 74.8921 86.2975 0.861036
vn -0.00623113 0.999942 0.00880598
v 74.919 86.2975 0.876186
vn 0 1 0
v 74.9223 86.2975 0.877599
vn 0 1 0
v 74.9268 86.2975 0.877828
vn 0 1 0
v 72.592 86.2975 -17.8306
vn -0.00664888 0.9999 -0.012463
v 72.4265 86.2975 -17.7149
vn -0.0127681 0.999866 -0.0101964
v 72.3203 86.2975 -17.5432
vn -0.16082 0.986001 -0.0440277
v 72.0586 34.301 -13.5356
vn -0.904274 -0.422123 0.0640434
v 72.1697 34.1315 -13.5431
vn -0.655201 -0.754017 0.0465891
v 72.3388 34.0201 -13.5546
vn -0.381783 -0.923853 0.0271486
v 72.3486 34.301 -9.75448
vn -0.91285 -0.400106 0.0813678
v 72.4595 34.1315 -9.76412
vn -0.706581 -0.704948 0.0615801
v 72.6284 34.0201 -9.77879
vn -0.381447 -0.923834 0.0320785
v 72.6963 34.301 -6.28619
vn -0.909553 -0.401127 0.108673
v 72.8069 34.1315 -6.2991
vn -0.705981 -0.703435 0.082274
v 72.9753 34.0201 -6.31877
vn -0.380489 -0.923809 0.0424931
v 73.1098 34.301 -3.29615
vn -0.91004 -0.389814 0.14097
v 73.2196 34.1315 -3.31441
vn -0.720042 -0.685525 0.10768
v 73.3868 34.0201 -3.34221
vn -0.379044 -0.923733 0.0551581
v 73.3254 34.301 -2.11334
vn -0.898655 -0.395814 0.189077
v 73.4346 34.1315 -2.13536
vn -0.692874 -0.706954 0.141918
v 73.6008 34.0201 -2.16888
vn -0.375758 -0.923714 0.0745542
v 73.5984 34.301 -0.930838
vn -0.892101 -0.385826 0.235148
v 73.7061 34.1315 -0.959283
vn -0.694674 -0.697158 0.177198
v 73.8699 34.0201 -1.00259
vn -0.372224 -0.923568 0.0920382
v 73.8337 34.301 -0.138871
vn -0.851987 -0.438738 0.285706
v 73.9391 34.1315 -0.174778
vn -0.689035 -0.690371 0.220496
v 74.0996 34.0201 -0.229443
vn -0.366544 -0.923341 0.114398
v 73.9823 34.301 0.258853
vn -0.82777 -0.430677 0.359601
v 74.0853 34.1315 0.216718
vn -0.654014 -0.706354 0.270795
v 74.2422 34.0201 0.152571
vn -0.356585 -0.92319 0.143411
v 74.1678 34.301 0.660849
vn -0.801509 -0.41122 0.434144
v 74.2662 34.1315 0.608728
vn -0.640712 -0.694985 0.326318
v 74.4159 34.0201 0.529378
vn -0.304099 -0.939747 0.156205
v 74.3225 34.301 0.918818
vn -0.758995 -0.398194 0.515139
v 74.4142 34.1315 0.855817
vn -0.608656 -0.689256 0.393018
v 74.554 34.0201 0.759903
vn -0.362497 -0.903446 0.228868
v 74.4245 34.301 1.05395
vn -0.674401 -0.390746 0.626498
v 74.5097 34.1315 0.982273
vn -0.535442 -0.705233 0.464703
v 74.6394 34.0201 0.873147
vn -0.348475 -0.890734 0.291818
v 74.5741 34.301 1.2033
vn -0.612266 -0.383206 0.691581
v 74.6443 34.1315 1.1169
vn -0.5057 -0.674494 0.53789
v 74.7512 34.0201 0.985375
vn -0.336581 -0.87441 0.349456
v 74.6339 34.301 1.24762
vn -0.467673 -0.376758 0.799585
v 74.6958 34.1315 1.15503
vn -0.378899 -0.704236 0.600406
v 74.7899 34.0201 1.01408
vn -0.267854 -0.873699 0.406085
v 74.7401 34.301 1.30512
vn -0.356951 -0.375694 0.855243
v 74.783 34.1315 1.20239
vn -0.320083 -0.671202 0.668607
v 74.8482 34.0201 1.046
vn -0.236547 -0.864377 0.443733
v 74.821 34.301 1.33214
vn -0.183986 -0.348979 0.918892
v 74.8462 34.1315 1.22332
vn -0.183796 -0.676987 0.712676
v 74.8847 34.0201 1.05766
vn -0.148623 -0.843126 0.516769
v 74.9258 34.301 1.34354
vn -0.0295716 -0.285359 0.957965
v 74.9258 34.1315 1.2322
vn -0.0501304 -0.73051 0.68106
v 74.9057 33.9934 0.966696
vn -0.0637912 -0.96767 0.244019
v 74.8955 34.0201 1.05969
vn -0.0450898 -0.931225 0.361645
v 74.9114 33.9934 0.967681
vn -0.0338543 -0.97407 0.223699
v 74.9193 33.9871 0.922151
vn -0.0207159 -0.992851 0.117546
v 74.917 33.9934 0.968478
vn 0.101834 -0.962753 0.250473
v 74.922 33.9871 0.922683
vn -0.0244904 -0.993375 0.112277
v 74.9244 33.9855 0.900197
vn -0.018262 -0.997858 0.0628218
v 74.9237 33.9871 0.923078
vn 0.604151 -0.77956 0.165189
v 74.9232 33.9855 0.899772
vn -0.054863 -0.996732 0.0592878
v 74.9205 33.9871 0.92238
vn -0.0203526 -0.991959 0.12491
v 74.9162 33.9871 0.921685
vn -0.0977381 -0.991018 0.0912701
v 74.908 33.9934 0.967125
vn -0.0447241 -0.968135 0.246404
v 74.9175 33.9871 0.92186
vn -0.0195647 -0.992646 0.119458
v 74.884 33.9934 0.96013
vn -0.150528 -0.981983 0.114238
v 74.8593 34.0201 1.05054
vn -0.15423 -0.865703 0.476206
v 74.8912 33.9934 0.96309
vn -0.0765099 -0.970355 0.229254
v 74.9256 33.9852 0.889215
vn 0.505287 -0.86203 0.0398707
v 74.9254 33.9855 0.900708
vn 0.919154 -0.386801 0.0744384
v 74.9259 33.9851 0.884028
vn -0.0105981 -0.999729 0.020741
v 74.9258 34.2114 1.29715
vn -0.023751 -0.548977 0.8355
v 74.9258 34.0665 1.15226
vn -0.00485643 -0.835588 0.549336
v 74.9258 34.0201 1.0627
vn 0.0193243 -0.95676 0.290236
v 72.1068 34.0201 -17.3332
vn -0.423822 -0.905659 0.012542
v 71.9376 34.1315 -17.3238
vn -0.736094 -0.676757 0.0128531
v 71.8264 34.301 -17.3176
vn -0.934278 -0.356546 0.000198957
v 71.8932 34.301 -16.1579
vn -0.924814 -0.376225 0.0563347
v 72.0044 34.1315 -16.1645
vn -0.724402 -0.687934 0.0445892
v 73.8041 34.4233 -0.128786
vn -0.939797 -0.18506 0.287288
v 74.2938 34.466 0.938477
vn -0.825703 -0.197523 0.528393
v 74.1381 34.4467 0.676595
vn -0.87915 -0.166668 0.44645
v 73.9533 34.4233 0.270688
vn -0.91472 -0.162289 0.370068
v 72.1736 34.0201 -16.1745
vn -0.364677 -0.930861 0.0225717
v 74.3979 34.466 1.07632
vn -0.75151 -0.155283 0.641187
v 74.552 34.4803 1.23052
vn -0.686649 -0.0934493 0.720958
v 74.7266 34.4839 1.33751
vn -0.425875 -0.176691 0.887362
v 74.813 34.4848 1.36645
vn -0.232123 -0.172149 0.957332
v 74.6145 34.4803 1.27679
vn -0.530291 -0.187715 0.826773
v 72.0586 85.9816 -13.5356
vn -0.904312 0.422041 0.064046
v 72.1697 86.1511 -13.5431
vn -0.655011 0.754183 0.0465756
v 72.3388 86.2624 -13.5546
vn -0.38156 0.923946 0.0271328
v 72.3486 85.9816 -9.75448
vn -0.912891 0.400012 0.0813708
v 72.4595 86.1511 -9.76412
vn -0.706458 0.705072 0.0615682
v 72.6284 86.2624 -9.77879
vn -0.381224 0.923926 0.0320599
v 72.6963 85.9816 -6.28619
vn -0.909596 0.401029 0.108677
v 72.8069 86.1511 -6.2991
vn -0.705861 0.703558 0.082258
v 72.9753 86.2624 -6.31877
vn -0.380267 0.923901 0.0424684
v 73.1098 85.9816 -3.29615
vn -0.910083 0.389711 0.140976
v 73.2196 86.1511 -3.31441
vn -0.719942 0.685632 0.107664
v 73.3868 86.2624 -3.34221
vn -0.378823 0.923826 0.0551259
v 73.3254 85.9816 -2.11334
vn -0.898695 0.395721 0.189084
v 73.4346 86.1511 -2.13536
vn -0.692752 0.70708 0.141891
v 73.6008 86.2624 -2.16888
vn -0.375539 0.923807 0.0745108
v 73.5984 85.9816 -0.930838
vn -0.892133 0.385748 0.235152
v 73.7061 86.1511 -0.959283
vn -0.694564 0.697275 0.177166
v 73.8699 86.2624 -1.00259
vn -0.372007 0.923661 0.0919845
v 73.8337 85.9816 -0.138871
vn -0.851987 0.438738 0.285706
v 73.9391 86.1511 -0.174778
vn -0.688935 0.690483 0.220461
v 74.0996 86.2624 -0.229443
vn -0.36633 0.923434 0.114332
v 73.9823 85.9816 0.258853
vn -0.827784 0.430638 0.359618
v 74.0853 86.1511 0.216718
vn -0.6539 0.706479 0.270743
v 74.2422 86.2624 0.152571
vn -0.356377 0.923284 0.143327
v 74.1678 85.9816 0.660849
vn -0.801546 0.411143 0.434148
v 74.2662 86.1511 0.608728
vn -0.640614 0.695101 0.326263
v 74.4159 86.2624 0.529378
vn -0.303987 0.939798 0.156116
v 74.3225 85.9816 0.918818
vn -0.758995 0.398194 0.515139
v 74.4142 86.1511 0.855817
vn -0.60857 0.689367 0.392957
v 74.554 86.2624 0.759903
vn -0.3624 0.9035 0.22881
v 74.4245 85.9816 1.05395
vn -0.674401 0.390746 0.626498
v 74.5097 86.1511 0.982273
vn -0.535353 0.705357 0.464617
v 74.6394 86.2624 0.873147
vn -0.348396 0.890784 0.291761
v 74.5741 85.9816 1.2033
vn -0.612266 0.383206 0.691581
v 74.6443 86.1511 1.1169
vn -0.505642 0.674592 0.537821
v 74.7512 86.2624 0.985375
vn -0.33648 0.874489 0.349356
v 74.6339 85.9816 1.24762
vn -0.467652 0.376721 0.799614
v 74.6958 86.1511 1.15503
vn -0.378839 0.70436 0.600299
v 74.7899 86.2624 1.01408
vn -0.26779 0.873757 0.406002
v 74.7401 85.9816 1.30512
vn -0.356997 0.375626 0.855253
v 74.783 86.1511 1.20239
vn -0.320049 0.671298 0.668527
v 74.8482 86.2624 1.046
vn -0.236471 0.864467 0.443597
v 74.821 85.9816 1.33214
vn -0.183845 0.348978 0.918921
v 74.8462 86.1511 1.22332
vn -0.200231 0.678917 0.706384
v 74.8847 86.2624 1.05766
vn -0.175808 0.863406 0.472887
v 74.9258 86.1511 1.2322
vn 0.00659911 0.642058 0.766628
v 74.9057 86.2892 0.966696
vn -0.0639967 0.96746 0.244795
v 74.8955 86.2624 1.05969
vn -0.0451518 0.931034 0.362129
v 74.9114 86.2892 0.967681
vn -0.0339485 0.973923 0.224326
v 74.9193 86.2955 0.922151
vn -0.0204825 0.992978 0.116512
v 74.917 86.2892 0.968478
vn 0.102638 0.962464 0.251252
v 74.922 86.2955 0.922683
vn -0.0241844 0.99354 0.110874
v 74.9244 86.297 0.900197
vn -0.0177458 0.998018 0.0603679
v 74.9237 86.2955 0.923078
vn 0.611136 0.774293 0.164264
v 74.9232 86.297 0.899772
vn -0.0531334 0.996929 0.057523
v 74.9205 86.2955 0.92238
vn -0.0202368 0.992035 0.124324
v 74.9162 86.2955 0.921685
vn -0.0967845 0.991219 0.090101
v 74.908 86.2892 0.967125
vn -0.0448669 0.967929 0.247185
v 74.9175 86.2955 0.92186
vn -0.0194242 0.992761 0.118522
v 74.884 86.2892 0.96013
vn -0.15071 0.98195 0.114285
v 74.8593 86.2624 1.05054
vn -0.154179 0.865788 0.476067
v 74.8912 86.2892 0.96309
vn -0.0767468 0.970171 0.229953
v 74.9256 86.2974 0.889215
vn 0.50426 0.862508 0.0424501
v 74.9254 86.297 0.900708
vn 0.919154 0.386801 0.0744384
v 74.9259 86.2975 0.884028
vn -0.00530011 0.999932 0.0103726
v 74.9258 85.9816 1.34354
vn -0.0295716 0.285359 0.957965
v 74.9258 86.0711 1.29715
vn -0.0377273 0.548807 0.835097
v 74.9258 86.216 1.15226
vn -0.0117586 0.835858 0.54882
v 74.9258 86.2624 1.0627
vn 0.019597 0.956742 0.290276
v 72.1068 86.2624 -17.3332
vn -0.423561 0.905781 0.0125323
v 71.9376 86.1511 -17.3238
vn -0.736002 0.676858 0.0128578
v 71.8264 85.9816 -17.3176
vn -0.934317 0.356443 0.000203341
v 71.8932 85.9816 -16.1579
vn -0.924853 0.376129 0.0563372
v 72.0044 86.1511 -16.1645
vn -0.724299 0.688043 0.0445831
v 73.8041 85.8593 -0.128786
vn -0.939816 0.184965 0.287288
v 74.2938 85.8166 0.938477
vn -0.825739 0.197405 0.528381
v 74.1381 85.8358 0.676595
vn -0.87916 0.166568 0.446467
v 73.9533 85.8593 0.270688
vn -0.914729 0.162203 0.370083
v 72.1736 86.2624 -16.1745
vn -0.36447 0.930942 0.0225589
v 74.3979 85.8166 1.07632
vn -0.751512 0.155225 0.641198
v 74.552 85.8023 1.23052
vn -0.686664 0.0933799 0.720953
v 74.7266 85.7986 1.33751
vn -0.425881 0.176583 0.88738
v 74.813 85.7978 1.36645
vn -0.232127 0.172058 0.957347
v 74.6145 85.8023 1.27679
vn -0.530235 0.18764 0.826826
v 75.1903 34.301 1.34354
vn 0.00557782 -0.363674 0.93151
v 75.1903 34.1315 1.2322
vn 0.0133254 -0.730809 0.682451
v 75.1903 34.0201 1.0627
vn 0.0075793 -0.934188 0.3567
v 75.4548 34.301 1.34354
vn 0 -0.38274 0.923856
v 75.4548 34.1315 1.2322
vn 0 -0.707031 0.707182
v 75.4548 34.0201 1.0627
vn 0 -0.923829 0.382807
v 75.7193 34.301 1.34354
vn 1.62329e-16 -0.345471 0.93843
v 75.7193 34.1315 1.2322
vn 0 -0.656682 0.754168
v 75.7193 34.0201 1.0627
vn 0 -0.91266 0.408719
v 75.1903 85.9816 1.34354
vn 0.00519057 0.382643 0.923882
v 75.1903 86.1511 1.2322
vn 0.00725186 0.739731 0.672864
v 75.1903 86.2624 1.0627
vn 0.00754756 0.934252 0.356534
v 75.4548 85.9816 1.34354
vn 0 0.382648 0.923894
v 75.4548 86.1511 1.2322
vn 0 0.707157 0.707056
v 75.4548 86.2624 1.0627
vn 0 0.923921 0.382584
v 75.7193 85.9816 1.34354
vn 1.62281e-16 0.345368 0.938467
v 75.7193 86.1511 1.2322
vn 0 0.656765 0.754096
v 75.7193 86.2624 1.0627
vn 0 0.912771 0.408472
v 75.1853 34.301 -18.3362
vn 0 -0.408513 -0.912753
v 75.1853 34.1315 -18.2249
vn 0 -0.753996 -0.656879
v 75.1853 34.0201 -18.0554
vn 0 -0.938437 -0.345452
v 74.3868 34.301 -18.3362
vn 0 -0.382629 -0.923902
v 74.3868 34.1315 -18.2249
vn 0 -0.706981 -0.707233
v 74.3868 34.0201 -18.0554
vn 0 -0.923848 -0.382759
v 73.5883 34.301 -18.3362
vn 0 -0.345369 -0.938467
v 73.5883 34.1315 -18.2249
vn 0 -0.656606 -0.754234
v 73.5883 34.0201 -18.0554
vn 0 -0.923848 -0.382759
v 72.7898 34.301 -18.3362
vn -0.0519704 -0.419004 -0.906496
v 72.7898 34.1315 -18.2249
vn -0.0478766 -0.723623 -0.688533
v 72.7898 34.0201 -18.0554
vn -0.0333994 -0.912692 -0.407281
v 75.1853 85.9816 -18.3362
vn 0 0.40843 -0.91279
v 75.1853 86.1511 -18.2249
vn 0 0.754162 -0.656689
v 75.1853 86.2624 -18.0554
vn 0 0.938505 -0.345266
v 74.3868 85.9816 -18.3362
vn 0 0.382536 -0.92394
v 74.3868 86.1511 -18.2249
vn 0 0.707107 -0.707107
v 74.3868 86.2624 -18.0554
vn 0 0.92394 -0.382536
v 73.5883 85.9816 -18.3362
vn 0 0.345266 -0.938505
v 73.5883 86.1511 -18.2249
vn 0 0.656689 -0.754162
v 73.5883 86.2624 -18.0554
vn 0 0.91279 -0.40843
v 72.7898 86.2624 -18.0554
vn -0.0255305 0.934021 -0.356304
v 72.7898 85.9816 -18.3362
vn -0.0519775 0.418921 -0.906534
v 72.7898 86.1511 -18.2249
vn -0.0478758 0.723764 -0.688385
v 72.4082 34.301 -18.2576
vn -0.356646 -0.432542 -0.828077
v 72.4522 34.1315 -18.1553
vn -0.262725 -0.747583 -0.609996
v 72.5192 34.0201 -17.9996
vn -0.134625 -0.935195 -0.327546
v 72.0888 34.301 -18.0343
vn -0.685036 -0.393936 -0.612813
v 72.1697 34.1315 -17.9578
vn -0.507393 -0.698649 -0.504423
v 72.2928 34.0201 -17.8414
vn -0.269193 -0.916714 -0.295248
v 71.8837 34.301 -17.703
vn -0.866867 -0.384473 -0.317368
v 71.9883 34.1315 -17.6647
vn -0.711726 -0.652344 -0.260564
v 72.1474 34.0201 -17.6065
vn -0.399444 -0.904364 -0.150236
v 72.4082 85.9816 -18.2576
vn -0.356662 0.432458 -0.828114
v 72.4522 86.1511 -18.1553
vn -0.262654 0.747743 -0.60983
v 72.5192 86.2624 -17.9996
vn -0.134548 0.935269 -0.327368
v 72.0888 85.9816 -18.0343
vn -0.685064 0.393835 -0.612847
v 72.1697 86.1511 -17.9578
vn -0.507296 0.698768 -0.504355
v 72.2928 86.2624 -17.8414
vn -0.269034 0.916817 -0.295071
v 71.8837 85.9816 -17.703
vn -0.866908 0.384367 -0.317383
v 71.9883 86.1511 -17.6647
vn -0.711662 0.652423 -0.260541
v 72.1474 86.2624 -17.6065
vn -0.399197 0.904488 -0.150146
v 54.9211 34.5475 -20.4234
vn -0.924082 -0.135935 -0.357203
v 54.9211 34.6725 -20.4234
vn -0.931364 8.06668e-05 -0.364089
v 54.8298 34.7975 -20.0764
vn -0.109803 0.993901 -0.0102384
v 56.3158 34.5475 -18.3713
vn -0.00450644 -0.113183 0.993564
v 56.3158 34.6725 -18.3713
vn -0.00252746 0.000396113 0.999997
v 54.8456 34.5475 -20.1691
vn -0.967919 -0.134765 -0.212064
v 54.8162 34.5475 -19.9055
vn -0.993649 -0.111004 -0.0184537
v 54.8336 34.5475 -19.6408
vn -0.976684 -0.110846 0.183852
v 54.8974 34.5475 -19.3834
vn -0.920955 -0.149458 0.359868
v 55.0055 34.5475 -19.1412
vn -0.872663 -0.0971132 0.47857
v 55.1546 34.5475 -18.9218
vn -0.760928 -0.113064 0.638909
v 55.34 34.5475 -18.7321
vn -0.615684 -0.111212 0.780106
v 55.5559 34.5475 -18.578
vn -0.503373 -0.112663 0.856693
v 55.7956 34.5475 -18.4644
vn -0.348432 -0.110868 0.930754
v 56.0516 34.5475 -18.3948
vn -0.152898 -0.113103 0.981748
v 54.8298 34.6725 -20.0764
vn -0.985801 0.0196099 -0.166767
v 54.9104 34.6725 -19.347
vn -0.945932 0.0215496 0.323648
v 54.8248 34.6725 -19.7067
vn -0.996363 0.020816 0.0826335
v 55.0752 34.6725 -19.0282
vn -0.838497 0.0220136 0.544461
v 55.3109 34.6725 -18.7576
vn -0.68909 0.0168653 0.72448
v 55.6139 34.6725 -18.5457
vn -0.493289 0.0223095 0.869579
v 55.9595 34.6725 -18.4143
vn -0.264337 0.0222751 0.964173
v 75.9838 34.5475 -18.3713
vn 0.679148 -0.0830771 0.729285
v 61.2328 34.5475 -18.3713
vn 0 -0.130544 0.991443
v 66.1498 34.5475 -18.3713
vn 0 -0.0628451 0.998023
v 71.0668 34.5475 -18.3713
vn 0 -0.0998783 0.995
v 75.9838 34.0475 -24.8713
vn 0.0779717 -0.993591 -0.0818401
v 75.9838 34.0475 -18.8713
vn 0.0293734 -0.999552 0.0056734
v 75.9838 34.3635 -18.4065
vn 0.92751 -0.165267 0.335279
v 75.9838 34.194 -18.5178
vn 0.554009 -0.62771 0.546859
v 75.9838 34.0826 -18.6873
vn 0.00521497 -0.947376 0.320081
v 66.4838 34.0475 -24.8713
vn 0.0387498 -0.998232 -0.0450706
v 66.4838 34.0475 -35.9963
vn 0.0217748 -0.999762 -0.00123235
v 66.4838 34.5475 -36.4963
vn 0.993541 -0.00914746 -0.113105
v 66.4838 34.0826 -36.1804
vn 0.0188272 -0.896758 -0.442122
v 66.4838 34.194 -36.3499
vn 0.976331 -0.142011 -0.163126
v 66.4838 34.3635 -36.4612
vn 0.99827 -0.0188103 -0.0557054
v 61.2338 34.5475 -36.4963
vn -0.895331 -0.0966639 -0.434785
v 61.2338 34.7975 -36.4963
vn -0.0320687 0.999253 -0.0215563
v 65.1581 34.5475 -36.4963
vn 0 -0.099598 -0.995028
v 63.8325 34.5475 -36.4963
vn 0 -0.0514957 -0.998673
v 62.5069 34.5475 -36.4963
vn 0.00110286 -0.0985065 -0.995136
v 58.109 34.5475 -28.5402
vn -0.929411 -0.0542859 -0.365032
v 56.515 34.5475 -24.4818
vn -0.922885 -0.130011 -0.362464
v 65.1581 34.0475 -35.9963
vn 0 -0.999907 -0.0136528
v 63.8325 34.0475 -35.9963
vn 0 -0.999921 -0.0125462
v 61.5736 34.0475 -35.9963
vn -0.00247354 -0.999938 -0.0108621
v 55.386 34.0475 -20.2394
vn -0.00474212 -0.999987 -0.00179201
v 55.3247 34.0475 -20.0044
vn -0.0390415 -0.999232 -0.00344304
v 55.3218 34.0475 -19.7616
vn -0.0466476 -0.998885 0.00730751
v 55.3776 34.0475 -19.5252
vn -0.0543397 -0.99826 0.0229069
v 55.4887 34.0475 -19.3092
vn -0.0611009 -0.997084 0.045709
v 55.6486 34.0475 -19.1264
vn -0.0642259 -0.994832 0.0786436
v 55.8479 34.0475 -18.9876
vn -0.0578647 -0.990787 0.122445
v 56.0747 34.0475 -18.9008
vn -0.0336274 -0.985288 0.167559
v 56.3158 34.0475 -18.8713
vn -0.000108016 -0.999319 0.0368906
v 61.2328 34.0475 -18.8713
vn 0 -0.999991 0.00435561
v 66.1498 34.0475 -18.8713
vn 0 -0.999965 0.00838881
v 71.0668 34.0475 -18.8713
vn 0 -0.99999 0.00436121
v 60.1678 34.0475 -32.4165
vn -0.00340732 -0.999993 -0.00132452
v 58.5739 34.0475 -28.3575
vn -0.00549835 -0.999983 -0.00215921
v 56.9799 34.0475 -24.2984
vn -0.00356177 -0.999993 -0.0013987
v 54.8639 34.3635 -20.0663
vn -0.898404 -0.422971 -0.118177
v 54.9742 34.194 -20.0514
vn -0.655489 -0.750065 -0.0879572
v 55.1422 34.0826 -20.0289
vn -0.346637 -0.93664 -0.0504752
v 54.8597 34.3635 -19.7105
vn -0.90983 -0.399454 0.112458
v 54.9704 34.194 -19.7227
vn -0.708895 -0.701895 0.0693717
v 55.1389 34.0826 -19.7413
vn -0.391316 -0.919877 0.0264219
v 54.9414 34.3635 -19.3643
vn -0.861807 -0.392054 0.321842
v 55.0459 34.194 -19.4028
vn -0.671231 -0.701928 0.238213
v 55.2049 34.0826 -19.4615
vn -0.373411 -0.919877 0.119963
v 55.1042 34.3635 -19.0479
vn -0.768528 -0.376701 0.517167
v 55.1963 34.194 -19.1105
vn -0.594045 -0.701918 0.392966
v 55.3365 34.0826 -19.2058
vn -0.333514 -0.919866 0.206434
v 55.3384 34.3635 -18.7801
vn -0.605296 -0.397737 0.689509
v 55.4127 34.194 -18.8631
vn -0.481807 -0.701913 0.524575
v 55.5258 34.0826 -18.9893
vn -0.273933 -0.91986 0.280746
v 55.6303 34.3635 -18.5767
vn -0.428082 -0.378223 0.820788
v 55.6824 34.194 -18.6751
vn -0.341111 -0.701903 0.62528
v 55.7617 34.0826 -18.8249
vn -0.19813 -0.91988 0.338475
v 55.9626 34.3635 -18.4497
vn -0.227264 -0.368565 0.901394
v 55.9895 34.194 -18.5577
vn -0.182349 -0.653841 0.73433
v 56.0303 34.0826 -18.7222
vn -0.103619 -0.907849 0.406292
v 56.3158 34.3635 -18.4065
vn -0.00867359 -0.327055 0.944966
v 56.3158 34.194 -18.5178
vn -0.00483617 -0.662507 0.74904
v 56.3158 34.0826 -18.6873
vn -0.00203595 -0.899669 0.436569
v 55.2148 34.0826 -20.3071
vn -0.307194 -0.944446 -0.116846
v 55.0572 34.194 -20.3695
vn -0.620868 -0.747265 -0.236891
v 54.9537 34.3635 -20.4105
vn -0.840363 -0.435624 -0.322525
v 61.2328 34.3635 -18.4065
vn 0 -0.408698 0.91267
v 61.2328 34.194 -18.5178
vn 0 -0.753996 0.656879
v 61.2328 34.0826 -18.6873
vn 0 -0.938399 0.345554
v 66.1498 34.3635 -18.4065
vn 0 -0.382852 0.92381
v 66.1498 34.194 -18.5178
vn 0 -0.706981 0.707233
v 66.1498 34.0826 -18.6873
vn 0 -0.92381 0.382852
v 71.0668 34.3635 -18.4065
vn 0 -0.345647 0.938365
v 71.0668 34.194 -18.5178
vn 0 -0.656606 0.754234
v 71.0668 34.0826 -18.6873
vn 0 -0.912642 0.40876
v 65.1581 34.3635 -36.4612
vn 0 -0.408514 -0.912752
v 65.1581 34.194 -36.3499
vn 0 -0.753996 -0.656879
v 65.1581 34.0826 -36.1804
vn 0 -0.938437 -0.34545
v 63.8325 34.3635 -36.4612
vn 0 -0.382629 -0.923902
v 63.8325 34.194 -36.3499
vn 0 -0.706981 -0.707233
v 63.8325 34.0826 -36.1804
vn 0 -0.923848 -0.382759
v 62.5069 34.3635 -36.4612
vn 0.00298257 -0.372059 -0.928204
v 62.5069 34.194 -36.3499
vn 0.00297305 -0.679347 -0.733811
v 62.5069 34.0826 -36.1804
vn 0.00211925 -0.930401 -0.366538
v 61.2382 34.4669 -36.4898
vn -0.663731 -0.201984 -0.720183
v 61.2524 34.3841 -36.4689
vn -0.756037 -0.368914 -0.540657
v 61.2772 34.303 -36.4325
vn -0.67001 -0.570244 -0.475298
v 61.3123 34.228 -36.3809
vn -0.596175 -0.685433 -0.41804
v 61.3564 34.163 -36.3159
vn -0.485694 -0.805055 -0.340571
v 61.4074 34.1114 -36.2409
vn -0.393168 -0.878763 -0.270546
v 61.4625 34.075 -36.1598
vn -0.245698 -0.954882 -0.166834
v 61.5188 34.0541 -36.077
vn -0.146719 -0.986223 -0.0764044
v 59.7356 34.3635 -32.5859
vn -0.8453 -0.419316 -0.331123
v 59.8391 34.194 -32.5453
vn -0.637249 -0.72921 -0.249332
v 59.9967 34.0826 -32.4836
vn -0.349397 -0.927018 -0.136231
v 58.1416 34.3635 -28.5274
vn -0.876566 -0.336318 -0.344271
v 58.2451 34.194 -28.4867
vn -0.658507 -0.706742 -0.25862
v 58.4028 34.0826 -28.4248
vn -0.356618 -0.923693 -0.140051
v 56.5477 34.3635 -24.469
vn -0.873523 -0.345339 -0.343073
v 56.6512 34.194 -24.4281
vn -0.702147 -0.656465 -0.275761
v 56.8088 34.0826 -24.366
vn -0.380595 -0.912582 -0.149469
v 54.9211 85.735 -20.4234
vn -0.923641 0.129614 -0.360677
v 61.2338 85.735 -36.4963
vn -0.543557 0.0730333 -0.836189
v 61.2338 85.485 -36.4963
vn -0.0320686 -0.999253 -0.0215563
v 58.109 85.735 -28.5402
vn -0.928472 0.0704688 -0.364655
v 59.7029 85.735 -32.5987
vn -0.9264 0.0982852 -0.363488
v 54.9211 85.61 -20.4234
vn -0.931797 -0.000466153 -0.362978
v 66.4838 85.735 -36.4963
vn 0.986949 0.0181694 -0.160004
v 63.8325 85.735 -36.4963
vn 0 0.0456226 -0.998959
v 65.1581 85.735 -36.4963
vn 0 0.0995687 -0.995031
v 66.4838 86.235 -24.8713
vn 0.0400164 0.998928 -0.023274
v 66.4838 86.235 -35.9963
vn 0.108951 0.994042 -0.0030852
v 66.4838 85.9191 -36.4612
vn 0.998173 0.0267024 -0.0542028
v 66.4838 86.0886 -36.3499
vn 0.976323 0.16314 -0.142054
v 66.4838 86.1999 -36.1804
vn 0.0193238 0.947301 -0.31976
v 75.9838 86.235 -24.8713
vn 0.0771933 0.983757 -0.16206
v 75.9838 86.235 -18.8713
vn 0.0285043 0.999533 0.0110187
v 75.9838 85.735 -18.3713
vn 0.797472 0.0487644 0.601382
v 75.9838 86.1999 -18.6873
vn 0.00506818 0.897007 0.441986
v 75.9838 86.0886 -18.5178
vn 0.553974 0.546715 0.627865
v 75.9838 85.9191 -18.4065
vn 0.930943 0.116902 0.345946
v 56.3158 85.735 -18.3713
vn -0.00490728 0.136853 0.990579
v 71.0668 85.735 -18.3713
vn 0 0.0998501 0.995002
v 66.1498 85.735 -18.3713
vn 0 0.0628339 0.998024
v 61.2328 85.735 -18.3713
vn 0 0.130496 0.991449
v 56.3158 85.61 -18.3713
vn -0.00144013 0 0.999999
v 56.0516 85.735 -18.3948
vn -0.159078 0.134851 0.978013
v 55.7956 85.735 -18.4644
vn -0.348434 0.110833 0.930758
v 55.5559 85.735 -18.578
vn -0.530384 0.11079 0.840487
v 55.34 85.735 -18.7321
vn -0.673626 0.14947 0.7238
v 55.1546 85.735 -18.9218
vn -0.766252 0.0971341 0.635156
v 55.0055 85.735 -19.1412
vn -0.874194 0.112986 0.472249
v 54.8974 85.735 -19.3834
vn -0.951955 0.111128 0.285362
v 54.8336 85.735 -19.6408
vn -0.981822 0.112733 0.152699
v 54.8162 85.735 -19.9055
vn -0.993653 0.110969 -0.0184537
v 54.8456 85.735 -20.1691
vn -0.969106 0.112952 -0.219261
v 55.9595 85.61 -18.4143
vn -0.207956 -0.0198694 0.977936
v 55.3109 85.61 -18.7576
vn -0.649046 -0.0215955 0.760443
v 55.6139 85.61 -18.5457
vn -0.443434 -0.0212167 0.896056
v 55.0752 85.61 -19.0282
vn -0.814966 -0.0220138 0.579091
v 54.9104 85.61 -19.347
vn -0.927256 -0.0169091 0.374045
v 54.8248 85.61 -19.7067
vn -0.990084 -0.0219633 0.138745
v 54.8298 85.61 -20.0764
vn -0.993782 -0.021984 -0.109154
v 61.5736 86.235 -35.9963
vn -0.0325039 0.999384 -0.0132414
v 62.5069 86.235 -35.9963
vn 9.08789e-05 0.999972 -0.00743321
v 63.8325 86.235 -35.9963
vn 0 0.999978 -0.00665182
v 65.1581 86.235 -35.9963
vn 0 0.999999 -0.00128087
v 55.386 86.235 -20.2394
vn -0.00847534 0.999959 -0.00329683
v 56.9799 86.235 -24.2984
vn -0.00356177 0.999993 -0.00139872
v 58.5739 86.235 -28.3575
vn -0.00364973 0.999992 -0.00143324
v 71.0668 86.235 -18.8713
vn 0 0.99999 0.00436121
v 66.1498 86.235 -18.8713
vn 0 0.999965 0.00838881
v 61.2328 86.235 -18.8713
vn 0 0.999991 0.00435561
v 56.3158 86.235 -18.8713
vn -0.000258944 0.99976 0.021888
v 56.0747 86.235 -18.9008
vn -0.0486998 0.985294 0.163778
v 55.8479 86.235 -18.9876
vn -0.0687403 0.990788 0.116682
v 55.6486 86.235 -19.1264
vn -0.0711182 0.99483 0.0724927
v 55.4887 86.235 -19.3092
vn -0.064993 0.997085 0.0399789
v 55.3776 86.235 -19.5252
vn -0.0561904 0.99826 0.0178732
v 55.3218 86.235 -19.7616
vn -0.0471235 0.998884 0.00304815
v 55.3247 86.235 -20.0044
vn -0.0385616 0.999232 -0.00697781
v 56.5477 85.9191 -24.469
vn -0.860047 0.382391 -0.33778
v 56.6512 86.0886 -24.4281
vn -0.611362 0.754048 -0.240101
v 56.8088 86.1999 -24.366
vn -0.321522 0.938445 -0.126268
v 58.1416 85.9191 -28.5274
vn -0.860115 0.382217 -0.337806
v 58.2451 86.0886 -28.4867
vn -0.658405 0.706853 -0.258576
v 58.4028 86.1999 -28.4248
vn -0.356316 0.923828 -0.13993
v 59.7356 85.9191 -32.5859
vn -0.864123 0.372504 -0.338426
v 59.8391 86.0886 -32.5453
vn -0.681414 0.681584 -0.266681
v 59.9967 86.1999 -32.4836
vn -0.337457 0.932059 -0.131866
v 55.2148 86.1999 -20.3071
vn -0.406276 0.900133 -0.157162
v 55.0572 86.0886 -20.3695
vn -0.698472 0.663302 -0.268639
v 54.9537 85.9191 -20.4105
vn -0.863852 0.384988 -0.324875
v 61.2382 85.8157 -36.4898
vn -0.862724 0.188399 -0.469268
v 61.2524 85.8985 -36.4689
vn -0.756037 0.368914 -0.540657
v 61.2772 85.9796 -36.4325
vn -0.67001 0.570244 -0.475298
v 61.3123 86.0546 -36.3809
vn -0.596175 0.685433 -0.41804
v 61.3564 86.1196 -36.3159
vn -0.485694 0.805055 -0.340571
v 61.4074 86.1712 -36.2409
vn -0.393013 0.878866 -0.270437
v 61.4625 86.2076 -36.1598
vn -0.245698 0.954882 -0.166834
v 61.5188 86.2285 -36.077
vn -0.100963 0.989729 -0.101209
v 62.5069 85.9191 -36.4612
vn 0.0026941 0.419282 -0.907852
v 62.5069 86.0886 -36.3499
vn 0.00298109 0.728698 -0.684829
v 62.5069 86.1999 -36.1804
vn 0.00328686 0.926039 -0.377413
v 63.8325 85.9191 -36.4612
vn 0 0.336487 -0.941688
v 63.8325 86.0886 -36.3499
vn 0 0.707107 -0.707107
v 63.8325 86.1999 -36.1804
vn 0 0.92394 -0.382536
v 65.1581 85.9191 -36.4612
vn 0 0.345265 -0.938505
v 65.1581 86.0886 -36.3499
vn 0 0.656689 -0.754162
v 65.1581 86.1999 -36.1804
vn 0 0.912789 -0.408431
v 71.0668 85.9191 -18.4065
vn 0 0.408615 0.912707
v 71.0668 86.0886 -18.5178
vn 0 0.754162 0.656689
v 71.0668 86.1999 -18.6873
vn 0 0.938467 0.345369
v 66.1498 85.9191 -18.4065
vn 0 0.382759 0.923848
v 66.1498 86.0886 -18.5178
vn 0 0.707107 0.707107
v 66.1498 86.1999 -18.6873
vn 0 0.923902 0.382629
v 61.2328 85.9191 -18.4065
vn 0 0.345544 0.938402
v 61.2328 86.0886 -18.5178
vn 0 0.656689 0.754162
v 61.2328 86.1999 -18.6873
vn 0 0.912753 0.408513
v 56.3158 85.9191 -18.4065
vn -0.00642344 0.436411 0.899724
v 56.3158 86.0886 -18.5178
vn -0.00591086 0.748195 0.663452
v 56.3158 86.1999 -18.6873
vn -0.00322358 0.944811 0.327599
v 55.9626 85.9191 -18.4497
vn -0.220687 0.422945 0.878871
v 55.9895 86.0886 -18.5577
vn -0.159364 0.750201 0.641717
v 56.0303 86.1999 -18.7222
vn -0.0805805 0.936668 0.340821
v 55.6303 85.9191 -18.5767
vn -0.439404 0.399501 0.804564
v 55.6824 86.0886 -18.6751
vn -0.325342 0.701977 0.633546
v 55.7617 86.1999 -18.8249
vn -0.168468 0.919978 0.353919
v 55.3384 85.9191 -18.7801
vn -0.616424 0.392073 0.682862
v 55.4127 86.0886 -18.8631
vn -0.46846 0.702043 0.536359
v 55.5258 86.1999 -18.9893
vn -0.248856 0.919968 0.30287
v 55.1042 85.9191 -19.0479
vn -0.763815 0.376585 0.524185
v 55.1963 86.0886 -19.1105
vn -0.583916 0.702068 0.407606
v 55.3365 86.1999 -19.2058
vn -0.314537 0.919959 0.233968
v 54.9414 85.9191 -19.3643
vn -0.863956 0.397584 0.30904
v 55.0459 86.0886 -19.4028
vn -0.664982 0.70203 0.254858
v 55.2049 86.1999 -19.4615
vn -0.361631 0.919971 0.151253
v 54.8597 85.9191 -19.7105
vn -0.920817 0.377994 0.096001
v 54.9704 86.0886 -19.7227
vn -0.706756 0.702078 0.0870803
v 55.1389 86.1999 -19.7413
vn -0.387425 0.919971 0.0596257
v 54.8639 85.9191 -20.0663
vn -0.921873 0.368326 -0.120356
v 54.9742 86.0886 -20.0514
vn -0.749799 0.653966 -0.100648
v 55.1422 86.1999 -20.0289
vn -0.415615 0.907989 -0.053113
f 2//2 1//1 3//3
f 2//2 3//3 4//4
f 4//4 3//3 5//5
f 4//4 5//5 6//6
f 6//6 5//5 7//7
f 6//6 7//7 8//8
f 8//8 7//7 1//1
f 8//8 1//1 2//2
f 5//5 3//3 1//1
f 5//5 1//1 7//7
f 6//6 8//8 2//2
f 6//6 2//2 4//4
f 10//10 9//9 11//11
f 10//10 11//11 12//12
f 12//12 11//11 13//13
f 12//12 13//13 14//14
f 16//16 15//15 17//17
f 16//16 17//17 18//18
f 18//18 17//17 9//9
f 18//18 9//9 10//10
f 15//15 11//11 9//9
f 15//15 9//9 17//17
f 16//16 18//18 10//10
f 16//16 10//10 12//12
f 20//20 19//19 21//21
f 20//20 21//21 22//22
f 22//22 21//21 23//23
f 22//22 23//23 24//24
f 24//24 23//23 25//25
f 24//24 25//25 26//26
f 26//26 25//25 19//19
f 26//26 19//19 20//20
f 21//21 19//19 25//25
f 21//21 25//25 23//23
f 22//22 24//24 26//26
f 22//22 26//26 20//20
f 28//28 27//27 46//46
f 31//31 46//46 27//27
f 46//46 30//30 29//29
f 46//46 29//29 28//28
f 47//47 46//46 31//31
f 33//33 48//48 47//47
f 33//33 47//47 31//31
f 35//35 49//49 48//48
f 35//35 48//48 33//33
f 30//30 46//46 47//47
f 30//30 47//47 32//32
f 34//34 48//48 49//49
f 34//34 49//49 36//36
f 48//48 34//34 32//32
f 48//48 32//32 47//47
f 49//49 35//35 37//37
f 49//49 37//37 50//50
f 50//50 37//37 39//39
f 50//50 39//39 51//51
f 36//36 49//49 50//50
f 36//36 50//50 38//38
f 41//41 52//52 51//51
f 41//41 51//51 39//39
f 43//43 44//44 52//52
f 43//43 52//52 41//41
f 51//51 40//40 38//38
f 51//51 38//38 50//50
f 44//44 45//45 42//42
f 44//44 42//42 52//52
f 52//52 42//42 40//40
f 52//52 40//40 51//51
f 53//53 44//44 43//43
f 45//45 44//44 54//54
f 53//53 54//54 44//44
f 56//56 55//55 59//59
f 56//56 59//59 60//60
f 57//57 59//59 55//55
f 56//56 61//61 58//58
f 56//56 60//60 61//61
f 27//27 66//66 62//62
f 28//28 64//64 65//65
f 65//65 66//66 28//28
f 28//28 29//29 63//63
f 28//28 63//63 64//64
f 27//27 28//28 66//66
f 43//43 39//39 37//37
f 39//39 43//43 41//41
f 35//35 43//43 37//37
f 43//43 35//35 33//33
f 27//27 43//43 31//31
f 43//43 33//33 31//31
f 27//27 68//68 43//43
f 68//68 62//62 55//55
f 27//27 62//62 68//68
f 68//68 67//67 53//53
f 53//53 43//43 68//68
f 57//57 71//71 70//70
f 69//69 57//57 70//70
f 57//57 62//62 71//71
f 57//57 55//55 62//62
f 45//45 38//38 40//40
f 40//40 42//42 45//45
f 36//36 38//38 45//45
f 32//32 34//34 45//45
f 45//45 30//30 32//32
f 29//29 30//30 45//45
f 36//36 45//45 34//34
f 29//29 45//45 73//73
f 73//73 56//56 63//63
f 29//29 73//73 63//63
f 73//73 54//54 72//72
f 54//54 73//73 45//45
f 58//58 75//75 76//76
f 74//74 75//75 58//58
f 58//58 76//76 63//63
f 58//58 63//63 56//56
f 81//81 78//78 77//77
f 81//81 77//77 80//80
f 82//82 79//79 78//78
f 82//82 78//78 81//81
f 84//84 81//81 80//80
f 84//84 80//80 83//83
f 85//85 82//82 81//81
f 85//85 81//81 84//84
f 74//74 58//58 61//61
f 74//74 61//61 77//77
f 60//60 80//80 77//77
f 60//60 77//77 61//61
f 80//80 60//60 59//59
f 80//80 59//59 83//83
f 77//77 78//78 75//75
f 77//77 75//75 74//74
f 76//76 75//75 78//78
f 76//76 78//78 79//79
f 63//63 76//76 79//79
f 63//63 79//79 64//64
f 64//64 79//79 82//82
f 64//64 82//82 65//65
f 83//83 59//59 57//57
f 83//83 57//57 69//69
f 84//84 83//83 69//69
f 84//84 69//69 70//70
f 70//70 71//71 85//85
f 70//70 85//85 84//84
f 65//65 82//82 85//85
f 65//65 85//85 66//66
f 71//71 62//62 66//66
f 71//71 66//66 85//85
f 123//123 86//86 124//124
f 122//122 125//125 126//126
f 123//123 124//124 125//125
f 122//122 123//123 125//125
f 126//126 127//127 116//116
f 126//126 116//116 117//117
f 126//126 87//87 122//122
f 127//127 128//128 115//115
f 127//127 115//115 116//116
f 87//87 126//126 117//117
f 128//128 129//129 114//114
f 128//128 114//114 115//115
f 130//130 131//131 89//89
f 130//130 89//89 113//113
f 129//129 130//130 113//113
f 129//129 113//113 114//114
f 133//133 149//149 132//132
f 90//90 149//149 134//134
f 135//135 149//149 90//90
f 134//134 149//149 133//133
f 131//131 132//132 112//112
f 131//131 112//112 89//89
f 136//136 149//149 135//135
f 118//118 119//119 120//120
f 120//120 119//119 88//88
f 118//118 120//120 121//121
f 121//121 117//117 118//118
f 117//117 121//121 87//87
f 111//111 112//112 149//149
f 149//149 110//110 111//111
f 149//149 108//108 109//109
f 149//149 107//107 108//108
f 109//109 110//110 149//149
f 150//150 107//107 149//149
f 112//112 132//132 149//149
f 150//150 149//149 136//136
f 150//150 137//137 138//138
f 150//150 139//139 140//140
f 150//150 138//138 139//139
f 150//150 140//140 151//151
f 141//141 151//151 140//140
f 143//143 151//151 142//142
f 141//141 142//142 151//151
f 144//144 151//151 143//143
f 150//150 151//151 104//104
f 150//150 104//104 105//105
f 107//107 150//150 106//106
f 152//152 144//144 92//92
f 145//145 146//146 153//153
f 145//145 153//153 154//154
f 92//92 145//145 154//154
f 92//92 154//154 152//152
f 148//148 155//155 147//147
f 146//146 147//147 155//155
f 156//156 148//148 94//94
f 94//94 95//95 157//157
f 94//94 157//157 156//156
f 155//155 148//148 156//156
f 146//146 155//155 153//153
f 151//151 144//144 152//152
f 156//156 157//157 155//155
f 91//91 106//106 150//150
f 150//150 105//105 91//91
f 158//158 151//151 152//152
f 103//103 104//104 151//151
f 101//101 102//102 151//151
f 151//151 100//100 101//101
f 103//103 151//151 102//102
f 151//151 158//158 100//100
f 100//100 158//158 99//99
f 158//158 98//98 99//99
f 154//154 153//153 97//97
f 154//154 97//97 98//98
f 155//155 157//157 153//153
f 98//98 158//158 154//154
f 154//154 158//158 152//152
f 157//157 93//93 153//153
f 157//157 96//96 93//93
f 157//157 95//95 96//96
f 93//93 97//97 153//153
f 137//137 150//150 136//136
f 94//94 161//161 164//164
f 94//94 164//164 95//95
f 161//161 162//162 163//163
f 161//161 163//163 164//164
f 162//162 159//159 160//160
f 162//162 160//160 163//163
f 172//172 159//159 171//171
f 159//159 173//173 165//165
f 172//172 173//173 159//159
f 170//170 159//159 165//165
f 175//175 176//176 160//160
f 175//175 160//160 174//174
f 170//170 174//174 160//160
f 170//170 160//160 159//159
f 165//165 166//166 169//169
f 165//165 169//169 170//170
f 167//167 166//166 177//177
f 167//167 178//178 179//179
f 177//177 178//178 167//167
f 168//168 166//166 167//167
f 168//168 182//182 169//169
f 180//180 181//181 168//168
f 182//182 168//168 181//181
f 168//168 169//169 166//166
f 167//167 191//191 187//187
f 167//167 187//187 168//168
f 191//191 192//192 186//186
f 191//191 186//186 187//187
f 186//186 192//192 189//189
f 188//188 193//193 183//183
f 192//192 188//188 189//189
f 185//185 186//186 190//190
f 190//190 186//186 189//189
f 185//185 190//190 184//184
f 188//188 192//192 193//193
f 199//199 195//195 194//194
f 199//199 194//194 198//198
f 200//200 196//196 195//195
f 200//200 195//195 199//199
f 203//203 199//199 198//198
f 203//203 198//198 202//202
f 204//204 200//200 199//199
f 204//204 199//199 203//203
f 183//183 205//205 194//194
f 183//183 194//194 188//188
f 206//206 197//197 198//198
f 206//206 198//198 194//194
f 197//197 207//207 202//202
f 197//197 202//202 198//198
f 205//205 206//206 194//194
f 194//194 195//195 189//189
f 194//194 189//189 188//188
f 190//190 196//196 212//212
f 190//190 212//212 184//184
f 190//190 189//189 195//195
f 190//190 195//195 196//196
f 201//201 211//211 196//196
f 201//201 196//196 200//200
f 212//212 196//196 211//211
f 208//208 202//202 207//207
f 203//203 202//202 122//122
f 203//203 122//122 87//87
f 123//123 208//208 86//86
f 123//123 122//122 202//202
f 208//208 123//123 202//202
f 210//210 201//201 200//200
f 210//210 200//200 204//204
f 204//204 209//209 210//210
f 209//209 204//204 120//120
f 204//204 203//203 87//87
f 204//204 87//87 121//121
f 209//209 120//120 88//88
f 204//204 121//121 120//120
f 166//166 216//216 215//215
f 166//166 215//215 217//217
f 230//230 214//214 236//236
f 236//236 235//235 234//234
f 236//236 234//234 233//233
f 217//217 214//214 226//226
f 165//165 216//216 166//166
f 214//214 217//217 215//215
f 214//214 213//213 236//236
f 221//221 218//218 222//222
f 218//218 223//223 222//222
f 221//221 219//219 218//218
f 224//224 223//223 218//218
f 221//221 238//238 237//237
f 221//221 220//220 238//238
f 239//239 238//238 220//220
f 219//219 221//221 237//237
f 230//230 236//236 231//231
f 233//233 232//232 236//236
f 232//232 231//231 236//236
f 230//230 229//229 214//214
f 214//214 227//227 226//226
f 214//214 229//229 228//228
f 214//214 228//228 227//227
f 217//217 226//226 225//225
f 217//217 225//225 224//224
f 217//217 224//224 218//218
f 169//169 240//240 246//246
f 169//169 246//246 247//247
f 258//258 264//264 245//245
f 264//264 262//262 263//263
f 264//264 261//261 262//262
f 240//240 254//254 245//245
f 170//170 169//169 247//247
f 245//245 246//246 240//240
f 245//245 264//264 244//244
f 250//250 241//241 242//242
f 251//251 241//241 250//250
f 242//242 249//249 250//250
f 243//243 249//249 242//242
f 252//252 241//241 251//251
f 249//249 265//265 266//266
f 249//249 266//266 248//248
f 267//267 248//248 266//266
f 243//243 265//265 249//249
f 258//258 259//259 264//264
f 261//261 264//264 260//260
f 260//260 264//264 259//259
f 258//258 245//245 257//257
f 245//245 254//254 255//255
f 245//245 256//256 257//257
f 245//245 255//255 256//256
f 240//240 253//253 254//254
f 240//240 252//252 253//253
f 240//240 241//241 252//252
f 272//272 271//271 268//268
f 272//272 268//268 269//269
f 273//273 272//272 269//269
f 273//273 269//269 270//270
f 275//275 274//274 271//271
f 275//275 271//271 272//272
f 276//276 275//275 272//272
f 276//276 272//272 273//273
f 278//278 277//277 274//274
f 278//278 274//274 275//275
f 279//279 278//278 275//275
f 279//279 275//275 276//276
f 281//281 280//280 277//277
f 281//281 277//277 278//278
f 282//282 281//281 278//278
f 282//282 278//278 279//279
f 284//284 283//283 280//280
f 284//284 280//280 281//281
f 285//285 284//284 281//281
f 285//285 281//281 282//282
f 287//287 286//286 283//283
f 287//287 283//283 284//284
f 288//288 287//287 284//284
f 288//288 284//284 285//285
f 290//290 289//289 286//286
f 290//290 286//286 287//287
f 291//291 290//290 287//287
f 291//291 287//287 288//288
f 293//293 292//292 289//289
f 293//293 289//289 290//290
f 294//294 293//293 290//290
f 294//294 290//290 291//291
f 296//296 295//295 292//292
f 296//296 292//292 293//293
f 297//297 296//296 293//293
f 297//297 293//293 294//294
f 299//299 298//298 295//295
f 299//299 295//295 296//296
f 300//300 299//299 296//296
f 300//300 296//296 297//297
f 302//302 301//301 298//298
f 302//302 298//298 299//299
f 303//303 302//302 299//299
f 303//303 299//299 300//300
f 305//305 304//304 301//301
f 305//305 301//301 302//302
f 306//306 305//305 302//302
f 306//306 302//302 303//303
f 308//308 307//307 304//304
f 308//308 304//304 305//305
f 309//309 308//308 305//305
f 309//309 305//305 306//306
f 311//311 310//310 307//307
f 311//311 307//307 308//308
f 329//329 308//308 309//309
f 311//311 329//329 312//312
f 308//308 329//329 311//311
f 330//330 329//329 309//309
f 330//330 309//309 328//328
f 315//315 312//312 329//329
f 315//315 329//329 330//330
f 331//331 332//332 321//321
f 320//320 321//321 322//322
f 321//321 324//324 318//318
f 321//321 318//318 323//323
f 324//324 321//321 320//320
f 324//324 317//317 318//318
f 319//319 324//324 320//320
f 317//317 324//324 319//319
f 327//327 326//326 315//315
f 327//327 315//315 325//325
f 318//318 317//317 326//326
f 318//318 326//326 327//327
f 326//326 312//312 315//315
f 316//316 326//326 317//317
f 312//312 326//326 316//316
f 124//124 86//86 339//339
f 340//340 126//126 125//125
f 340//340 125//125 124//124
f 268//268 128//128 127//127
f 271//271 130//130 129//129
f 271//271 129//129 268//268
f 268//268 129//129 128//128
f 268//268 127//127 126//126
f 340//340 268//268 126//126
f 271//271 131//131 130//130
f 271//271 132//132 131//131
f 268//268 340//340 341//341
f 268//268 341//341 269//269
f 271//271 133//133 132//132
f 274//274 134//134 133//133
f 274//274 133//133 271//271
f 90//90 134//134 274//274
f 340//340 124//124 339//339
f 274//274 136//136 135//135
f 277//277 138//138 137//137
f 277//277 137//137 274//274
f 274//274 137//137 136//136
f 139//139 138//138 277//277
f 142//142 141//141 280//280
f 140//140 139//139 277//277
f 141//141 140//140 277//277
f 92//92 144//144 342//342
f 144//144 143//143 283//283
f 142//142 280//280 143//143
f 343//343 146//146 344//344
f 145//145 344//344 146//146
f 92//92 342//342 345//345
f 344//344 145//145 345//345
f 344//344 345//345 289//289
f 344//344 289//289 292//292
f 342//342 144//144 283//283
f 343//343 344//344 292//292
f 343//343 292//292 295//295
f 145//145 92//92 345//345
f 345//345 342//342 286//286
f 345//345 286//286 289//289
f 90//90 274//274 135//135
f 338//338 341//341 340//340
f 338//338 340//340 339//339
f 337//337 346//346 341//341
f 337//337 341//341 338//338
f 346//346 270//270 269//269
f 346//346 269//269 341//341
f 273//273 270//270 221//221
f 273//273 221//221 222//222
f 346//346 220//220 221//221
f 346//346 221//221 270//270
f 220//220 346//346 337//337
f 279//279 276//276 223//223
f 279//279 223//223 224//224
f 224//224 225//225 282//282
f 224//224 282//282 279//279
f 276//276 273//273 222//222
f 276//276 222//222 223//223
f 143//143 280//280 283//283
f 285//285 282//282 225//225
f 285//285 225//225 226//226
f 286//286 342//342 283//283
f 226//226 227//227 288//288
f 226//226 288//288 285//285
f 227//227 228//228 291//291
f 227//227 291//291 288//288
f 294//294 291//291 228//228
f 294//294 228//228 229//229
f 294//294 229//229 328//328
f 297//297 294//294 328//328
f 280//280 141//141 277//277
f 347//347 343//343 295//295
f 347//347 295//295 298//298
f 347//347 348//348 146//146
f 147//147 146//146 348//348
f 298//298 301//301 348//348
f 298//298 348//348 347//347
f 307//307 310//310 350//350
f 307//307 350//350 349//349
f 351//351 349//349 147//147
f 148//148 147//147 349//349
f 351//351 348//348 301//301
f 351//351 301//301 304//304
f 349//349 351//351 304//304
f 349//349 304//304 307//307
f 147//147 348//348 351//351
f 312//312 335//335 314//314
f 312//312 314//314 311//311
f 328//328 306//306 303//303
f 328//328 303//303 300//300
f 325//325 330//330 328//328
f 306//306 328//328 309//309
f 230//230 328//328 229//229
f 297//297 328//328 300//300
f 310//310 313//313 94//94
f 310//310 94//94 350//350
f 94//94 148//148 350//350
f 311//311 334//334 310//310
f 311//311 314//314 334//334
f 310//310 334//334 313//313
f 323//323 327//327 325//325
f 315//315 330//330 325//325
f 336//336 335//335 316//316
f 312//312 316//316 335//335
f 317//317 319//319 316//316
f 336//336 316//316 319//319
f 322//322 336//336 319//319
f 350//350 148//148 349//349
f 325//325 328//328 230//230
f 230//230 231//231 325//325
f 323//323 318//318 327//327
f 231//231 232//232 323//323
f 231//231 323//323 325//325
f 331//331 321//321 323//323
f 233//233 331//331 232//232
f 232//232 331//331 323//323
f 233//233 333//333 331//331
f 233//233 234//234 333//333
f 235//235 236//236 333//333
f 333//333 234//234 235//235
f 319//319 320//320 322//322
f 322//322 321//321 332//332
f 332//332 336//336 322//322
f 213//213 333//333 236//236
f 213//213 331//331 333//333
f 213//213 336//336 331//331
f 331//331 336//336 332//332
f 347//347 146//146 343//343
f 356//356 353//353 352//352
f 356//356 352//352 355//355
f 357//357 354//354 353//353
f 357//357 353//353 356//356
f 359//359 356//356 355//355
f 359//359 355//355 358//358
f 360//360 357//357 356//356
f 360//360 356//356 359//359
f 362//362 359//359 358//358
f 362//362 358//358 361//361
f 363//363 360//360 359//359
f 363//363 359//359 362//362
f 365//365 362//362 361//361
f 365//365 361//361 364//364
f 366//366 363//363 362//362
f 366//366 362//362 365//365
f 368//368 365//365 364//364
f 368//368 364//364 367//367
f 369//369 366//366 365//365
f 369//369 365//365 368//368
f 371//371 368//368 367//367
f 371//371 367//367 370//370
f 372//372 369//369 368//368
f 372//372 368//368 371//371
f 374//374 371//371 370//370
f 374//374 370//370 373//373
f 375//375 372//372 371//371
f 375//375 371//371 374//374
f 377//377 374//374 373//373
f 377//377 373//373 376//376
f 378//378 375//375 374//374
f 378//378 374//374 377//377
f 380//380 377//377 376//376
f 380//380 376//376 379//379
f 381//381 378//378 377//377
f 381//381 377//377 380//380
f 383//383 380//380 379//379
f 383//383 379//379 382//382
f 384//384 381//381 380//380
f 384//384 380//380 383//383
f 386//386 383//383 382//382
f 386//386 382//382 385//385
f 387//387 384//384 383//383
f 387//387 383//383 386//386
f 389//389 386//386 385//385
f 389//389 385//385 388//388
f 390//390 387//387 386//386
f 390//390 386//386 389//389
f 392//392 389//389 388//388
f 392//392 388//388 391//391
f 393//393 390//390 389//389
f 393//393 389//389 392//392
f 395//395 392//392 391//391
f 395//395 391//391 394//394
f 412//412 393//393 392//392
f 395//395 396//396 412//412
f 392//392 395//395 412//412
f 413//413 411//411 393//393
f 413//413 393//393 412//412
f 398//398 413//413 412//412
f 398//398 412//412 396//396
f 414//414 404//404 415//415
f 403//403 405//405 404//404
f 404//404 406//406 401//401
f 404//404 401//401 407//407
f 407//407 403//403 404//404
f 407//407 401//401 400//400
f 402//402 403//403 407//407
f 400//400 402//402 407//407
f 410//410 408//408 398//398
f 410//410 398//398 409//409
f 401//401 410//410 409//409
f 401//401 409//409 400//400
f 409//409 398//398 396//396
f 399//399 400//400 409//409
f 396//396 399//399 409//409
f 119//119 423//423 88//88
f 424//424 118//118 117//117
f 424//424 119//119 118//118
f 352//352 116//116 115//115
f 355//355 352//352 114//114
f 355//355 114//114 113//113
f 352//352 115//115 114//114
f 352//352 117//117 116//116
f 424//424 117//117 352//352
f 355//355 113//113 89//89
f 355//355 89//89 112//112
f 352//352 353//353 425//425
f 352//352 425//425 424//424
f 355//355 112//112 111//111
f 358//358 355//355 111//111
f 358//358 111//111 110//110
f 109//109 358//358 110//110
f 424//424 423//423 119//119
f 358//358 108//108 107//107
f 361//361 358//358 106//106
f 361//361 106//106 91//91
f 358//358 107//107 106//106
f 105//105 361//361 91//91
f 102//102 364//364 103//103
f 104//104 361//361 105//105
f 103//103 361//361 104//104
f 99//99 426//426 100//100
f 100//100 367//367 101//101
f 102//102 101//101 364//364
f 427//427 428//428 97//97
f 98//98 97//97 428//428
f 429//429 426//426 99//99
f 429//429 99//99 98//98
f 428//428 429//429 98//98
f 428//428 376//376 373//373
f 428//428 373//373 429//429
f 426//426 367//367 100//100
f 427//427 379//379 376//376
f 427//427 376//376 428//428
f 429//429 373//373 370//370
f 429//429 370//370 426//426
f 109//109 108//108 358//358
f 422//422 423//423 424//424
f 422//422 424//424 425//425
f 421//421 422//422 425//425
f 421//421 425//425 430//430
f 430//430 425//425 353//353
f 430//430 353//353 354//354
f 357//357 250//250 249//249
f 357//357 249//249 354//354
f 430//430 354//354 249//249
f 430//430 249//249 248//248
f 248//248 421//421 430//430
f 363//363 252//252 251//251
f 363//363 251//251 360//360
f 252//252 363//363 366//366
f 252//252 366//366 253//253
f 360//360 251//251 250//250
f 360//360 250//250 357//357
f 101//101 367//367 364//364
f 369//369 254//254 253//253
f 369//369 253//253 366//366
f 370//370 367//367 426//426
f 254//254 369//369 372//372
f 254//254 372//372 255//255
f 255//255 372//372 375//375
f 255//255 375//375 256//256
f 378//378 257//257 256//256
f 378//378 256//256 375//375
f 378//378 411//411 257//257
f 381//381 411//411 378//378
f 364//364 361//361 103//103
f 431//431 382//382 379//379
f 431//431 379//379 427//427
f 431//431 97//97 432//432
f 93//93 432//432 97//97
f 382//382 431//431 432//432
f 382//382 432//432 385//385
f 391//391 433//433 434//434
f 391//391 434//434 394//394
f 435//435 93//93 433//433
f 96//96 433//433 93//93
f 435//435 388//388 385//385
f 435//435 385//385 432//432
f 433//433 391//391 388//388
f 433//433 388//388 435//435
f 93//93 435//435 432//432
f 396//396 395//395 419//419
f 411//411 387//387 390//390
f 411//411 384//384 387//387
f 408//408 411//411 413//413
f 390//390 393//393 411//411
f 258//258 257//257 411//411
f 381//381 384//384 411//411
f 394//394 434//434 95//95
f 394//394 95//95 417//417
f 95//95 434//434 96//96
f 395//395 394//394 418//418
f 395//395 418//418 397//397
f 394//394 417//417 418//418
f 419//419 395//395 397//397
f 406//406 408//408 410//410
f 398//398 408//408 413//413
f 420//420 399//399 419//419
f 396//396 419//419 399//399
f 400//400 399//399 402//402
f 420//420 402//402 399//399
f 405//405 402//402 420//420
f 434//434 433//433 96//96
f 408//408 258//258 411//411
f 258//258 408//408 259//259
f 406//406 410//410 401//401
f 259//259 406//406 260//260
f 259//259 408//408 406//406
f 414//414 406//406 404//404
f 261//261 260//260 414//414
f 260//260 406//406 414//414
f 261//261 414//414 416//416
f 261//261 416//416 262//262
f 263//263 416//416 264//264
f 416//416 263//263 262//262
f 402//402 405//405 403//403
f 405//405 415//415 404//404
f 405//405 420//420 415//415
f 244//244 264//264 416//416
f 244//244 416//416 414//414
f 414//414 415//415 420//420
f 420//420 244//244 414//414
f 431//431 427//427 97//97
f 440//440 439//439 436//436
f 440//440 436//436 437//437
f 441//441 440//440 437//437
f 441//441 437//437 438//438
f 443//443 442//442 439//439
f 443//443 439//439 440//440
f 444//444 443//443 440//440
f 444//444 440//440 441//441
f 436//436 94//94 313//313
f 436//436 313//313 334//334
f 94//94 436//436 161//161
f 334//334 437//437 436//436
f 314//314 437//437 334//334
f 335//335 437//437 314//314
f 438//438 335//335 336//336
f 213//213 214//214 438//438
f 213//213 438//438 336//336
f 214//214 215//215 441//441
f 214//214 441//441 438//438
f 335//335 438//438 437//437
f 436//436 439//439 161//161
f 162//162 161//161 439//439
f 162//162 439//439 442//442
f 442//442 171//171 159//159
f 442//442 159//159 162//162
f 443//443 172//172 171//171
f 443//443 171//171 442//442
f 215//215 216//216 444//444
f 215//215 444//444 441//441
f 216//216 165//165 173//173
f 216//216 173//173 444//444
f 172//172 443//443 444//444
f 172//172 444//444 173//173
f 449//449 446//446 445//445
f 449//449 445//445 448//448
f 450//450 447//447 446//446
f 450//450 446//446 449//449
f 452//452 449//449 448//448
f 452//452 448//448 451//451
f 453//453 450//450 449//449
f 453//453 449//449 452//452
f 445//445 417//417 95//95
f 445//445 418//418 417//417
f 445//445 446//446 397//397
f 445//445 397//397 418//418
f 95//95 164//164 445//445
f 447//447 420//420 419//419
f 244//244 420//420 447//447
f 244//244 447//447 245//245
f 419//419 446//446 447//447
f 245//245 447//447 450//450
f 245//245 450//450 246//246
f 446//446 419//419 397//397
f 445//445 164//164 448//448
f 163//163 451//451 448//448
f 163//163 448//448 164//164
f 451//451 163//163 160//160
f 451//451 160//160 176//176
f 452//452 451//451 176//176
f 452//452 176//176 175//175
f 246//246 450//450 453//453
f 246//246 453//453 247//247
f 247//247 453//453 174//174
f 247//247 174//174 170//170
f 175//175 174//174 453//453
f 175//175 453//453 452//452
f 458//458 457//457 454//454
f 458//458 454//454 455//455
f 459//459 458//458 455//455
f 459//459 455//455 456//456
f 461//461 460//460 457//457
f 461//461 457//457 458//458
f 462//462 461//461 458//458
f 462//462 458//458 459//459
f 179//179 454//454 191//191
f 179//179 191//191 167//167
f 454//454 457//457 192//192
f 454//454 192//192 191//191
f 454//454 179//179 178//178
f 454//454 178//178 455//455
f 177//177 456//456 455//455
f 177//177 455//455 178//178
f 166//166 217//217 456//456
f 166//166 456//456 177//177
f 217//217 218//218 459//459
f 217//217 459//459 456//456
f 193//193 192//192 457//457
f 193//193 457//457 460//460
f 460//460 463//463 183//183
f 460//460 183//183 193//193
f 461//461 464//464 463//463
f 461//461 463//463 460//460
f 218//218 462//462 459//459
f 219//219 462//462 218//218
f 464//464 461//461 462//462
f 464//464 462//462 465//465
f 462//462 219//219 465//465
f 470//470 467//467 466//466
f 470//470 466//466 469//469
f 471//471 468//468 467//467
f 471//471 467//467 470//470
f 473//473 470//470 469//469
f 473//473 469//469 472//472
f 474//474 471//471 470//470
f 474//474 470//470 473//473
f 180//180 168//168 187//187
f 180//180 187//187 466//466
f 186//186 469//469 466//466
f 186//186 466//466 187//187
f 469//469 186//186 185//185
f 469//469 185//185 472//472
f 466//466 467//467 181//181
f 466//466 181//181 180//180
f 182//182 181//181 467//467
f 182//182 467//467 468//468
f 169//169 182//182 468//468
f 169//169 468//468 240//240
f 240//240 468//468 471//471
f 240//240 471//471 241//241
f 472//472 185//185 184//184
f 472//472 184//184 476//476
f 473//473 472//472 476//476
f 473//473 476//476 477//477
f 474//474 473//473 477//477
f 474//474 477//477 475//475
f 241//241 471//471 474//474
f 241//241 474//474 242//242
f 475//475 243//243 242//242
f 475//475 242//242 474//474
f 482//482 481//481 478//478
f 482//482 478//478 479//479
f 483//483 482//482 479//479
f 483//483 479//479 480//480
f 485//485 484//484 481//481
f 485//485 481//481 482//482
f 486//486 485//485 482//482
f 486//486 482//482 483//483
f 463//463 205//205 183//183
f 478//478 205//205 463//463
f 481//481 197//197 206//206
f 481//481 206//206 478//478
f 205//205 478//478 206//206
f 478//478 463//463 464//464
f 478//478 464//464 479//479
f 465//465 480//480 479//479
f 465//465 479//479 464//464
f 219//219 237//237 480//480
f 219//219 480//480 465//465
f 237//237 238//238 483//483
f 237//237 483//483 480//480
f 481//481 207//207 197//197
f 484//484 208//208 207//207
f 339//339 208//208 484//484
f 208//208 339//339 86//86
f 339//339 484//484 485//485
f 339//339 485//485 338//338
f 238//238 239//239 486//486
f 238//238 486//486 483//483
f 337//337 486//486 239//239
f 337//337 239//239 220//220
f 486//486 337//337 338//338
f 486//486 338//338 485//485
f 207//207 481//481 484//484
f 491//491 488//488 487//487
f 491//491 487//487 490//490
f 492//492 489//489 488//488
f 492//492 488//488 491//491
f 494//494 491//491 490//490
f 494//494 490//490 493//493
f 495//495 492//492 491//491
f 495//495 491//491 494//494
f 476//476 184//184 212//212
f 487//487 476//476 212//212
f 490//490 487//487 211//211
f 490//490 211//211 201//201
f 212//212 211//211 487//487
f 487//487 488//488 477//477
f 487//487 477//477 476//476
f 475//475 477//477 488//488
f 475//475 488//488 489//489
f 243//243 475//475 489//489
f 243//243 489//489 265//265
f 265//265 489//489 492//492
f 265//265 492//492 266//266
f 490//490 201//201 210//210
f 493//493 210//210 209//209
f 423//423 493//493 209//209
f 209//209 88//88 423//423
f 423//423 422//422 494//494
f 423//423 494//494 493//493
f 266//266 492//492 495//495
f 266//266 495//495 267//267
f 421//421 248//248 267//267
f 421//421 267//267 495//495
f 495//495 494//494 422//422
f 495//495 422//422 421//421
f 210//210 493//493 490//490
f 496//496 501//501 511//511
f 496//496 511//511 497//497
f 502//502 511//511 501//501
f 503//503 504//504 512//512
f 503//503 512//512 513//513
f 503//503 513//513 502//502
f 505//505 512//512 504//504
f 498//498 511//511 513//513
f 498//498 513//513 31//31
f 502//502 513//513 511//511
f 511//511 498//498 27//27
f 511//511 27//27 497//497
f 33//33 512//512 514//514
f 33//33 514//514 35//35
f 505//505 514//514 512//512
f 512//512 33//33 31//31
f 512//512 31//31 513//513
f 514//514 505//505 506//506
f 515//515 506//506 507//507
f 507//507 508//508 516//516
f 507//507 516//516 515//515
f 35//35 514//514 515//515
f 35//35 515//515 37//37
f 510//510 517//517 509//509
f 509//509 516//516 508//508
f 510//510 499//499 500//500
f 510//510 500//500 517//517
f 37//37 515//515 516//516
f 37//37 516//516 39//39
f 39//39 516//516 517//517
f 39//39 517//517 41//41
f 500//500 43//43 41//41
f 500//500 41//41 517//517
f 517//517 516//516 509//509
f 506//506 515//515 514//514
f 500//500 499//499 519//519
f 500//500 53//53 43//43
f 520//520 500//500 519//519
f 53//53 520//520 521//521
f 521//521 518//518 53//53
f 500//500 520//520 53//53
f 67//67 518//518 524//524
f 518//518 67//67 53//53
f 525//525 522//522 524//524
f 523//523 522//522 525//525
f 523//523 525//525 526//526
f 67//67 524//524 522//522
f 67//67 522//522 527//527
f 67//67 527//527 68//68
f 528//528 531//531 527//527
f 528//528 530//530 531//531
f 68//68 527//527 532//532
f 68//68 532//532 529//529
f 529//529 55//55 68//68
f 532//532 527//527 531//531
f 55//55 529//529 535//535
f 536//536 55//55 535//535
f 534//534 536//536 537//537
f 537//537 533//533 534//534
f 55//55 536//536 534//534
f 534//534 533//533 538//538
f 497//497 534//534 538//538
f 497//497 539//539 496//496
f 497//497 27//27 534//534
f 539//539 497//497 538//538
f 551//551 548//548 547//547
f 551//551 550//550 549//549
f 548//548 551//551 549//549
f 546//546 551//551 547//547
f 544//544 551//551 545//545
f 551//551 546//546 545//545
f 544//544 543//543 551//551
f 552//552 543//543 557//557
f 556//556 527//527 557//557
f 551//551 543//543 552//552
f 527//527 553//553 552//552
f 554//554 527//527 522//522
f 553//553 527//527 554//554
f 523//523 554//554 522//522
f 556//556 555//555 527//527
f 542//542 541//541 555//555
f 540//540 555//555 541//541
f 540//540 528//528 555//555
f 528//528 527//527 555//555
f 552//552 557//557 527//527
f 37//37 43//43 35//35
f 43//43 33//33 35//35
f 43//43 498//498 31//31
f 31//31 33//33 43//43
f 27//27 498//498 43//43
f 39//39 43//43 37//37
f 68//68 27//27 43//43
f 53//53 68//68 43//43
f 55//55 534//534 68//68
f 68//68 534//534 27//27
f 67//67 68//68 53//53
f 43//43 39//39 41//41
f 562//562 561//561 558//558
f 562//562 558//558 559//559
f 563//563 562//562 559//559
f 563//563 559//559 560//560
f 565//565 564//564 561//561
f 565//565 561//561 562//562
f 566//566 565//565 562//562
f 566//566 562//562 563//563
f 568//568 567//567 564//564
f 568//568 564//564 565//565
f 569//569 568//568 565//565
f 569//569 565//565 566//566
f 571//571 570//570 567//567
f 571//571 567//567 568//568
f 572//572 571//571 568//568
f 572//572 568//568 569//569
f 574//574 573//573 570//570
f 574//574 570//570 571//571
f 575//575 574//574 571//571
f 575//575 571//571 572//572
f 577//577 576//576 573//573
f 577//577 573//573 574//574
f 578//578 577//577 574//574
f 578//578 574//574 575//575
f 501//501 496//496 584//584
f 561//561 503//503 502//502
f 561//561 502//502 558//558
f 501//501 558//558 502//502
f 558//558 501//501 584//584
f 503//503 561//561 564//564
f 503//503 564//564 504//504
f 567//567 505//505 504//504
f 567//567 504//504 564//564
f 506//506 505//505 567//567
f 583//583 559//559 558//558
f 583//583 558//558 584//584
f 582//582 560//560 559//559
f 582//582 559//559 583//583
f 543//543 544//544 560//560
f 543//543 560//560 582//582
f 563//563 560//560 544//544
f 563//563 544//544 545//545
f 566//566 563//563 545//545
f 566//566 545//545 546//546
f 546//546 547//547 569//569
f 546//546 569//569 566//566
f 570//570 507//507 506//506
f 573//573 508//508 507//507
f 573//573 507//507 570//570
f 509//509 508//508 573//573
f 576//576 510//510 509//509
f 579//579 499//499 510//510
f 577//577 580//580 579//579
f 577//577 579//579 576//576
f 510//510 576//576 579//579
f 509//509 573//573 576//576
f 572//572 569//569 547//547
f 572//572 547//547 548//548
f 548//548 549//549 575//575
f 548//548 575//575 572//572
f 580//580 577//577 578//578
f 580//580 578//578 581//581
f 550//550 551//551 581//581
f 550//550 581//581 578//578
f 578//578 575//575 549//549
f 578//578 549//549 550//550
f 506//506 567//567 570//570
f 589//589 588//588 585//585
f 589//589 585//585 586//586
f 590//590 589//589 586//586
f 590//590 586//586 587//587
f 592//592 591//591 588//588
f 592//592 588//588 589//589
f 593//593 592//592 589//589
f 593//593 589//589 590//590
f 579//579 585//585 519//519
f 579//579 519//519 499//499
f 520//520 519//519 585//585
f 520//520 585//585 588//588
f 588//588 591//591 521//521
f 588//588 521//521 520//520
f 580//580 586//586 585//585
f 580//580 585//585 579//579
f 581//581 587//587 586//586
f 581//581 586//586 580//580
f 551//551 552//552 587//587
f 551//551 587//587 581//581
f 552//552 553//553 590//590
f 552//552 590//590 587//587
f 591//591 524//524 518//518
f 591//591 518//518 521//521
f 592//592 525//525 524//524
f 592//592 524//524 591//591
f 525//525 592//592 593//593
f 525//525 593//593 526//526
f 553//553 554//554 593//593
f 553//553 593//593 590//590
f 526//526 593//593 554//554
f 526//526 554//554 523//523
f 598//598 597//597 594//594
f 598//598 594//594 595//595
f 599//599 598//598 595//595
f 599//599 595//595 596//596
f 601//601 600//600 597//597
f 601//601 597//597 598//598
f 602//602 601//601 598//598
f 602//602 598//598 599//599
f 532//532 594//594 535//535
f 532//532 535//535 529//529
f 531//531 595//595 594//594
f 531//531 594//594 532//532
f 536//536 535//535 594//594
f 536//536 594//594 597//597
f 597//597 600//600 537//537
f 597//597 537//537 536//536
f 528//528 540//540 596//596
f 528//528 596//596 530//530
f 530//530 596//596 595//595
f 530//530 595//595 531//531
f 599//599 596//596 540//540
f 599//599 540//540 541//541
f 541//541 602//602 599//599
f 605//605 600//600 601//601
f 537//537 600//600 603//603
f 606//606 605//605 601//601
f 603//603 600//600 604//604
f 604//604 600//600 605//605
f 533//533 537//537 603//603
f 542//542 610//610 602//602
f 601//601 602//602 608//608
f 541//541 542//542 602//602
f 602//602 609//609 608//608
f 609//609 602//602 610//610
f 608//608 607//607 601//601
f 607//607 606//606 601//601
f 615//615 614//614 611//611
f 615//615 611//611 612//612
f 616//616 615//615 612//612
f 616//616 612//612 613//613
f 618//618 617//617 614//614
f 618//618 614//614 615//615
f 619//619 618//618 615//615
f 619//619 615//615 616//616
f 604//604 611//611 603//603
f 533//533 603//603 611//611
f 612//612 611//611 605//605
f 604//604 605//605 611//611
f 607//607 612//612 606//606
f 605//605 606//606 612//612
f 609//609 613//613 608//608
f 612//612 607//607 608//608
f 555//555 613//613 610//610
f 609//609 610//610 613//613
f 610//610 542//542 555//555
f 555//555 556//556 616//616
f 555//555 616//616 613//613
f 608//608 613//613 612//612
f 614//614 617//617 539//539
f 614//614 539//539 538//538
f 617//617 584//584 496//496
f 617//617 496//496 539//539
f 584//584 617//617 618//618
f 584//584 618//618 583//583
f 556//556 557//557 619//619
f 556//556 619//619 616//616
f 582//582 619//619 557//557
f 582//582 557//557 543//543
f 619//619 582//582 583//583
f 619//619 583//583 618//618
f 611//611 614//614 533//533
f 614//614 538//538 533//533
f 623//623 625//625 620//620
f 622//622 29//29 625//625
f 622//622 623//623 624//624
f 624//624 621//621 622//622
f 625//625 623//623 622//622
f 622//622 621//621 627//627
f 56//56 622//622 627//627
f 56//56 627//627 628//628
f 56//56 628//628 626//626
f 73//73 626//626 631//631
f 626//626 73//73 56//56
f 632//632 629//629 631//631
f 630//630 629//629 632//632
f 630//630 632//632 633//633
f 73//73 631//631 629//629
f 73//73 629//629 634//634
f 73//73 634//634 72//72
f 635//635 638//638 634//634
f 635//635 637//637 638//638
f 72//72 634//634 639//639
f 72//72 639//639 636//636
f 636//636 54//54 72//72
f 639//639 634//634 638//638
f 54//54 636//636 641//641
f 644//644 54//54 642//642
f 641//641 642//642 54//54
f 644//644 643//643 640//640
f 644//644 45//45 54//54
f 643//643 644//644 642//642
f 640//640 645//645 655//655
f 640//640 655//655 644//644
f 646//646 655//655 645//645
f 647//647 648//648 656//656
f 647//647 656//656 657//657
f 647//647 657//657 646//646
f 649//649 656//656 648//648
f 42//42 655//655 657//657
f 42//42 657//657 40//40
f 646//646 657//657 655//655
f 655//655 42//42 45//45
f 655//655 45//45 644//644
f 38//38 656//656 658//658
f 38//38 658//658 36//36
f 649//649 658//658 656//656
f 656//656 38//38 40//40
f 656//656 40//40 657//657
f 658//658 649//649 650//650
f 659//659 650//650 651//651
f 651//651 652//652 660//660
f 651//651 660//660 659//659
f 36//36 658//658 659//659
f 36//36 659//659 34//34
f 654//654 661//661 653//653
f 653//653 660//660 652//652
f 654//654 620//620 625//625
f 654//654 625//625 661//661
f 34//34 659//659 660//660
f 34//34 660//660 32//32
f 32//32 660//660 661//661
f 32//32 661//661 30//30
f 625//625 29//29 30//30
f 625//625 30//30 661//661
f 661//661 660//660 653//653
f 650//650 659//659 658//658
f 669//669 635//635 634//634
f 671//671 670//670 629//629
f 669//669 629//629 670//670
f 668//668 629//629 665//665
f 629//629 669//669 634//634
f 630//630 665//665 629//629
f 668//668 665//665 664//664
f 668//668 664//664 663//663
f 662//662 668//668 663//663
f 667//667 671//671 629//629
f 674//674 673//673 672//672
f 672//672 676//676 675//675
f 674//674 672//672 675//675
f 677//677 676//676 672//672
f 668//668 667//667 629//629
f 667//667 666//666 671//671
f 672//672 666//666 679//679
f 679//679 678//678 672//672
f 677//677 672//672 678//678
f 666//666 672//672 671//671
f 45//45 73//73 54//54
f 45//45 29//29 73//73
f 54//54 73//73 72//72
f 73//73 622//622 56//56
f 29//29 622//622 73//73
f 42//42 40//40 45//45
f 45//45 38//38 36//36
f 45//45 36//36 34//34
f 32//32 30//30 45//45
f 32//32 45//45 34//34
f 30//30 29//29 45//45
f 38//38 45//45 40//40
f 684//684 683//683 680//680
f 684//684 680//680 681//681
f 685//685 684//684 681//681
f 685//685 681//681 682//682
f 687//687 686//686 683//683
f 687//687 683//683 684//684
f 688//688 687//687 684//684
f 688//688 684//684 685//685
f 680//680 620//620 691//691
f 690//690 681//681 680//680
f 690//690 680//680 691//691
f 683//683 623//623 680//680
f 620//620 680//680 623//623
f 683//683 686//686 624//624
f 683//683 624//624 623//623
f 666//666 667//667 682//682
f 666//666 682//682 689//689
f 689//689 682//682 681//681
f 689//689 681//681 690//690
f 685//685 682//682 667//667
f 685//685 667//667 668//668
f 668//668 688//688 685//685
f 694//694 686//686 687//687
f 624//624 686//686 692//692
f 695//695 694//694 687//687
f 692//692 686//686 693//693
f 693//693 686//686 694//694
f 621//621 624//624 692//692
f 662//662 699//699 688//688
f 687//687 688//688 697//697
f 668//668 662//662 688//688
f 688//688 698//698 697//697
f 698//698 688//688 699//699
f 697//697 696//696 687//687
f 696//696 695//695 687//687
f 704//704 703//703 700//700
f 704//704 700//700 701//701
f 705//705 704//704 701//701
f 705//705 701//701 702//702
f 707//707 706//706 703//703
f 707//707 703//703 704//704
f 708//708 707//707 704//704
f 708//708 704//704 705//705
f 693//693 700//700 692//692
f 621//621 692//692 700//700
f 701//701 700//700 694//694
f 693//693 694//694 700//700
f 696//696 701//701 695//695
f 694//694 695//695 701//701
f 621//621 700//700 703//703
f 621//621 703//703 627//627
f 698//698 702//702 697//697
f 701//701 696//696 697//697
f 663//663 702//702 699//699
f 698//698 699//699 702//702
f 699//699 662//662 663//663
f 663//663 664//664 705//705
f 663//663 705//705 702//702
f 697//697 702//702 701//701
f 703//703 706//706 628//628
f 703//703 628//628 627//627
f 626//626 628//628 706//706
f 626//626 706//706 631//631
f 631//631 706//706 707//707
f 631//631 707//707 632//632
f 664//664 665//665 708//708
f 664//664 708//708 705//705
f 665//665 630//630 633//633
f 665//665 633//633 708//708
f 632//632 707//707 708//708
f 632//632 708//708 633//633
f 713//713 712//712 709//709
f 713//713 709//709 710//710
f 714//714 713//713 710//710
f 714//714 710//710 711//711
f 716//716 715//715 712//712
f 716//716 712//712 713//713
f 717//717 716//716 713//713
f 717//717 713//713 714//714
f 639//639 709//709 641//641
f 639//639 641//641 636//636
f 642//642 641//641 709//709
f 642//642 709//709 712//712
f 712//712 715//715 643//643
f 712//712 643//643 642//642
f 709//709 639//639 638//638
f 709//709 638//638 710//710
f 637//637 711//711 710//710
f 637//637 710//710 638//638
f 635//635 669//669 711//711
f 635//635 711//711 637//637
f 669//669 670//670 714//714
f 669//669 714//714 711//711
f 715//715 718//718 640//640
f 715//715 640//640 643//643
f 716//716 719//719 718//718
f 716//716 718//718 715//715
f 719//719 716//716 717//717
f 719//719 717//717 720//720
f 670//670 671//671 717//717
f 670//670 717//717 714//714
f 671//671 672//672 720//720
f 671//671 720//720 717//717
f 725//725 724//724 721//721
f 725//725 721//721 722//722
f 726//726 725//725 722//722
f 726//726 722//722 723//723
f 728//728 727//727 724//724
f 728//728 724//724 725//725
f 729//729 728//728 725//725
f 729//729 725//725 726//726
f 731//731 730//730 727//727
f 731//731 727//727 728//728
f 732//732 731//731 728//728
f 732//732 728//728 729//729
f 734//734 733//733 730//730
f 734//734 730//730 731//731
f 735//735 734//734 731//731
f 735//735 731//731 732//732
f 737//737 736//736 733//733
f 737//737 733//733 734//734
f 738//738 737//737 734//734
f 738//738 734//734 735//735
f 740//740 739//739 736//736
f 740//740 736//736 737//737
f 741//741 740//740 737//737
f 741//741 737//737 738//738
f 645//645 640//640 718//718
f 724//724 647//647 646//646
f 724//724 646//646 721//721
f 645//645 721//721 646//646
f 721//721 645//645 718//718
f 647//647 724//724 727//727
f 647//647 727//727 648//648
f 730//730 649//649 648//648
f 730//730 648//648 727//727
f 650//650 649//649 730//730
f 719//719 722//722 721//721
f 719//719 721//721 718//718
f 720//720 723//723 722//722
f 720//720 722//722 719//719
f 672//672 673//673 723//723
f 672//672 723//723 720//720
f 726//726 723//723 673//673
f 726//726 673//673 674//674
f 729//729 726//726 674//674
f 729//729 674//674 675//675
f 675//675 676//676 732//732
f 675//675 732//732 729//729
f 650//650 730//730 733//733
f 650//650 733//733 651//651
f 736//736 652//652 651//651
f 736//736 651//651 733//733
f 653//653 652//652 736//736
f 739//739 654//654 653//653
f 691//691 620//620 654//654
f 740//740 690//690 691//691
f 740//740 691//691 739//739
f 654//654 739//739 691//691
f 653//653 736//736 739//739
f 735//735 732//732 676//676
f 735//735 676//676 677//677
f 677//677 678//678 738//738
f 677//677 738//738 735//735
f 690//690 740//740 741//741
f 690//690 741//741 689//689
f 679//679 666//666 689//689
f 679//679 689//689 741//741
f 741//741 738//738 678//678
f 741//741 678//678 679//679
