# Created by Open3D 
# object name: InfoWheels TV
# number of vertices: 1153
# number of triangles: 380
v 34.1391 -78.7496 20.0558
vn -0.509598 -0.856824 -0.0784999
v 34.0743 -78.7103 20.0491
vn -0.514331 -0.855938 -0.053237
v 34.1344 -78.7496 20.0749
vn -0.4786 -0.856904 -0.191464
v 34.1283 -78.7496 20.0861
vn -0.410547 -0.856889 -0.311757
v 34.1201 -78.7496 20.0958
vn -0.342638 -0.856876 -0.38518
v 34.1103 -78.7496 20.1038
vn -0.26198 -0.856879 -0.443988
v 34.0991 -78.7496 20.1097
vn -0.171554 -0.856877 -0.48614
v 34.0869 -78.7496 20.1133
vn -0.099215 -0.857146 -0.505428
v 34.0743 -78.7496 20.1145
vn 0.0145343 -0.856878 -0.515314
v 34.0609 -78.7496 20.1132
vn 0.129608 -0.856874 -0.498967
v 34.0485 -78.7496 20.1092
vn 0.225934 -0.856878 -0.463373
v 34.0373 -78.7496 20.1031
vn 0.31174 -0.856875 -0.410589
v 34.0276 -78.7496 20.0949
vn 0.385192 -0.856871 -0.342635
v 34.0197 -78.7496 20.0851
vn 0.444666 -0.856516 -0.262017
v 34.0138 -78.7496 20.0739
vn 0.486147 -0.856874 -0.171545
v 34.0101 -78.7496 20.0617
vn 0.50543 -0.857143 -0.0992232
v 34.0089 -78.7496 20.0491
vn 0.515027 -0.857046 0.0148362
v 34.0103 -78.7496 20.0357
vn 0.498944 -0.856881 0.129651
v 34.0142 -78.7496 20.0233
vn 0.463434 -0.85651 0.227199
v 34.0204 -78.7496 20.0121
vn 0.410564 -0.856878 0.311764
v 34.0285 -78.7496 20.0024
vn 0.342652 -0.856872 0.385175
v 34.0384 -78.7496 19.9944
vn 0.282999 -0.857146 0.430364
v 34.0496 -78.7496 19.9886
vn 0.183139 -0.857077 0.481538
v 34.0617 -78.7496 19.9849
vn 0.0746785 -0.856876 0.510085
v 34.0743 -78.7496 19.9837
vn -0.0274323 -0.856479 0.515452
v 34.0877 -78.7496 19.9851
vn -0.129679 -0.856882 0.498935
v 34.1001 -78.7496 19.989
vn -0.225869 -0.856879 0.463402
v 34.1113 -78.7496 19.9952
vn -0.311696 -0.856889 0.410593
v 34.121 -78.7496 20.0033
vn -0.36781 -0.857153 0.360561
v 34.129 -78.7496 20.0132
vn -0.437571 -0.8569 0.272494
v 34.1349 -78.7496 20.0244
vn -0.486144 -0.856876 0.171544
v 34.1391 -78.7496 20.0428
vn -0.510074 -0.856878 0.0747316
v 34.0743 -78.7103 20.0491
vn -0.514414 -0.856076 0.050126
v 34.1937 -78.7889 20.1015
vn -0.474005 -0.855632 -0.207877
v 33.9652 -78.7889 20.1204
vn 0.433335 -0.855623 -0.283073
v 34.0743 -78.7889 20.1795
vn 0 -0.855628 -0.517591
v 33.9549 -78.7889 19.9967
vn 0.473985 -0.855628 0.20794
v 34.0743 -78.7889 19.9187
vn 0 -0.855621 0.517602
v 34.1835 -78.7889 19.9778
vn -0.433285 -0.855629 0.283132
v 33.9453 -78.7889 20.0276
vn 0.988055 0.00250402 0.154078
v 33.9452 -78.8545 20.029
vn 0.988055 0.00250402 0.154078
v 33.9506 -78.7889 20.0066
vn 0.937507 0.0018658 0.347962
v 33.9518 -78.8545 20.0036
vn 0.937507 0.0018658 0.347962
v 33.9711 -78.7889 19.9687
vn 0.796209 0.00222851 0.605017
v 33.9703 -78.8545 19.97
vn 0.796209 0.00222851 0.605017
v 34.0556 -78.8545 19.921
vn 0.119169 0.000823105 0.992874
v 34.0529 -78.7889 19.9205
vn 0.160415 -0.00290282 0.987045
v 34.0191 -78.8545 19.9307
vn 0.422374 0.00181676 0.90642
v 34.0218 -78.7889 19.9293
vn 0.422374 0.00181676 0.90642
v 33.9875 -78.8545 19.9515
vn 0.664764 0.00206877 0.747051
v 33.9857 -78.7889 19.9528
vn 0.664764 0.00206877 0.747051
v 34.2034 -78.7889 20.0276
vn -0.98943 0.00194833 0.145
v 34.2036 -78.8545 20.0302
vn -0.98943 0.00194833 0.145
v 34.1064 -78.7889 19.9223
vn -0.252987 0.00239932 0.967467
v 34.1074 -78.8545 19.9227
vn -0.252987 0.00239932 0.967467
v 34.1459 -78.7889 19.9396
vn -0.524694 0.00172398 0.851289
v 34.1429 -78.8545 19.9379
vn -0.524694 0.00172398 0.851289
v 34.1776 -78.7889 19.9687
vn -0.807889 0.00134407 0.589333
v 34.1799 -78.8545 19.9721
vn -0.807889 0.00134407 0.589333
v 34.1976 -78.8545 20.0056
vn -0.942921 0.00223768 0.333008
v 34.1981 -78.7889 20.0066
vn -0.942921 0.00223768 0.333008
v 34.1631 -78.8545 19.9532
vn -0.679352 0.00231012 0.733809
v 34.1629 -78.7889 19.9528
vn -0.679352 0.00231012 0.733809
v 33.9444 -79.1826 20.0381
vn 0.995792 0.00383014 0.0915646
v 33.9449 -79.117 20.0357
vn 0.993524 -0.000598791 0.113625
v 33.9694 -79.1826 19.9782
vn 0.85434 0.00367191 0.519702
v 33.9709 -79.117 19.9785
vn 0.835746 -0.000250151 0.549117
v 34.0156 -79.1826 19.9327
vn 0.455947 0.00411713 0.889997
v 34.0136 -79.117 19.9339
vn 0.474823 -0.000153574 0.880081
v 34.0578 -79.1826 19.9198
vn 0.130365 0.00311345 0.991461
v 34.0556 -79.117 19.921
vn 0.170591 -0.000913115 0.985341
v 34.1121 -79.1826 19.9258
vn -0.269011 0.00382813 0.96313
v 34.1126 -79.117 19.9267
vn -0.287458 -5.59162e-05 0.957793
v 34.1728 -79.1826 19.9696
vn -0.746182 0.00373354 0.665732
v 34.1719 -79.117 19.9704
vn -0.767139 -0.000188166 0.641481
v 34.201 -79.1826 20.0161
vn -0.970818 -0.00216923 0.239808
v 34.2012 -79.117 20.0178
vn -0.970818 -0.00216923 0.239808
v 34.2047 -79.1826 20.0491
vn -0.999991 0.00407224 -0.000929186
v 34.2045 -79.117 20.0495
vn -0.999901 -0.000350214 -0.0140914
v 34.2038 -78.8545 20.0625
vn -0.993555 0.000725181 -0.11335
v 34.2043 -78.7889 20.0599
vn -0.995902 -0.00345415 -0.0903711
v 34.1968 -78.8545 20.0946
vn -0.937525 0.00187337 -0.347914
v 34.1981 -78.7889 20.0916
vn -0.937525 0.00187337 -0.347914
v 34.1629 -78.7889 20.1454
vn -0.664531 0.002028 -0.747258
v 34.1612 -78.8545 20.1468
vn -0.664531 0.002028 -0.747258
v 34.1784 -78.8545 20.1282
vn -0.796155 0.00217552 -0.605089
v 34.1776 -78.7889 20.1295
vn -0.796155 0.00217552 -0.605089
v 34.1269 -78.7889 20.1689
vn -0.422613 0.00183021 -0.906308
v 34.1295 -78.8545 20.1676
vn -0.422613 0.00183021 -0.906308
v 34.1064 -78.7889 20.176
vn -0.240057 0.00231864 -0.970756
v 34.1057 -78.8545 20.176
vn -0.240057 0.00231864 -0.970756
v 34.0851 -78.7889 20.1795
vn -0.048437 0.00118355 -0.998826
v 34.0807 -78.8545 20.1797
vn -0.048437 0.00118355 -0.998826
v 34.0422 -78.7889 20.176
vn 0.252987 0.00242744 -0.967467
v 34.0413 -78.8545 20.1755
vn 0.252987 0.00242744 -0.967467
v 34.0028 -78.7889 20.1587
vn 0.524694 0.00166874 -0.851289
v 34.0058 -78.8545 20.1604
vn 0.524694 0.00166874 -0.851289
v 33.9857 -78.7889 20.1454
vn 0.679271 0.00233955 -0.733884
v 33.9855 -78.8545 20.145
vn 0.679271 0.00233955 -0.733884
v 33.945 -78.8545 20.0681
vn 0.98947 0.0019065 -0.144727
v 33.9453 -78.7889 20.0707
vn 0.98947 0.0019065 -0.144727
v 33.9511 -78.8545 20.0926
vn 0.943016 0.00227962 -0.332741
v 33.9506 -78.7889 20.0916
vn 0.943016 0.00227962 -0.332741
v 33.9687 -78.8545 20.1261
vn 0.807889 0.00139104 -0.589333
v 33.9711 -78.7889 20.1295
vn 0.807889 0.00139104 -0.589333
v 34.1849 -79.1826 20.1109
vn -0.849254 0.00366204 -0.527972
v 34.1842 -79.117 20.1092
vn -0.884653 -0.000228596 -0.46625
v 34.1427 -79.1826 20.1601
vn -0.52119 0.00311813 -0.853435
v 34.1401 -79.117 20.1606
vn -0.485753 -0.000911286 -0.874096
v 34.1018 -79.1826 20.1766
vn -0.204128 0.00412501 -0.978936
v 34.0994 -79.117 20.1769
vn -0.182866 -0.000126888 -0.983138
v 34.0472 -79.1826 20.1752
vn 0.234204 0.00380374 -0.97218
v 34.0485 -79.117 20.1747
vn 0.192186 -0.000119985 -0.981359
v 33.9829 -79.1826 20.1367
vn 0.752503 0.00378213 -0.658578
v 33.9849 -79.117 20.1369
vn 0.727412 -0.000143017 -0.686201
v 33.951 -79.1826 20.0927
vn 0.943016 -0.0023429 -0.332741
v 33.9511 -79.117 20.0926
vn 0.943016 -0.0023429 -0.332741
v 33.9444 -79.1826 20.0602
vn 0.996015 0.00416017 -0.0890895
v 33.9447 -79.117 20.0617
vn 0.994222 -0.000164805 -0.10734
v 42.0131 -78.7496 20.0558
vn -0.509598 -0.856824 -0.0784999
v 41.9483 -78.7103 20.0491
vn -0.514331 -0.855938 -0.053237
v 42.0085 -78.7496 20.0749
vn -0.4786 -0.856904 -0.191464
v 42.0023 -78.7496 20.0861
vn -0.410547 -0.856889 -0.311757
v 41.9941 -78.7496 20.0958
vn -0.342638 -0.856876 -0.38518
v 41.9843 -78.7496 20.1038
vn -0.26198 -0.856879 -0.443988
v 41.9731 -78.7496 20.1097
vn -0.171554 -0.856877 -0.48614
v 41.9609 -78.7496 20.1133
vn -0.099215 -0.857146 -0.505428
v 41.9483 -78.7496 20.1145
vn 0.0145343 -0.856878 -0.515314
v 41.935 -78.7496 20.1132
vn 0.129608 -0.856874 -0.498967
v 41.9225 -78.7496 20.1092
vn 0.225934 -0.856878 -0.463373
v 41.9113 -78.7496 20.1031
vn 0.31174 -0.856875 -0.410589
v 41.9016 -78.7496 20.0949
vn 0.385192 -0.856871 -0.342635
v 41.8937 -78.7496 20.0851
vn 0.444666 -0.856516 -0.262017
v 41.8878 -78.7496 20.0739
vn 0.486147 -0.856874 -0.171545
v 41.8841 -78.7496 20.0617
vn 0.50543 -0.857143 -0.0992232
v 41.8829 -78.7496 20.0491
vn 0.515027 -0.857046 0.0148362
v 41.8843 -78.7496 20.0357
vn 0.498944 -0.856881 0.129651
v 41.8882 -78.7496 20.0233
vn 0.463434 -0.85651 0.227199
v 41.8944 -78.7496 20.0121
vn 0.410564 -0.856878 0.311764
v 41.9025 -78.7496 20.0024
vn 0.342652 -0.856872 0.385175
v 41.9124 -78.7496 19.9944
vn 0.282999 -0.857146 0.430364
v 41.9236 -78.7496 19.9886
vn 0.183139 -0.857077 0.481538
v 41.9357 -78.7496 19.9849
vn 0.0746785 -0.856876 0.510085
v 41.9483 -78.7496 19.9837
vn -0.0274399 -0.856479 0.515452
v 41.9617 -78.7496 19.9851
vn -0.129658 -0.85688 0.498945
v 41.9741 -78.7496 19.989
vn -0.225855 -0.85688 0.463408
v 41.9854 -78.7496 19.9952
vn -0.311696 -0.856889 0.410593
v 41.9951 -78.7496 20.0033
vn -0.36781 -0.857153 0.360561
v 42.003 -78.7496 20.0132
vn -0.437571 -0.8569 0.272494
v 42.0089 -78.7496 20.0244
vn -0.486144 -0.856876 0.171544
v 42.0132 -78.7496 20.0428
vn -0.510074 -0.856878 0.0747316
v 41.9483 -78.7103 20.0491
vn -0.514414 -0.856076 0.050126
v 42.0678 -78.7889 20.1015
vn -0.474005 -0.855632 -0.207877
v 41.8392 -78.7889 20.1204
vn 0.433335 -0.855623 -0.283073
v 41.9483 -78.7889 20.1795
vn 0 -0.855628 -0.517591
v 41.8289 -78.7889 19.9967
vn 0.473985 -0.855628 0.20794
v 41.9483 -78.7889 19.9187
vn 0 -0.855621 0.517602
v 42.0575 -78.7889 19.9778
vn -0.433285 -0.855629 0.283132
v 41.8193 -78.7889 20.0276
vn 0.988055 0.00256145 0.154078
v 41.8192 -78.8545 20.029
vn 0.988055 0.00256145 0.154078
v 41.8246 -78.7889 20.0066
vn 0.937507 0.0018658 0.347962
v 41.8258 -78.8545 20.0036
vn 0.937507 0.0018658 0.347962
v 41.8451 -78.7889 19.9687
vn 0.796209 0.00222851 0.605017
v 41.8443 -78.8545 19.97
vn 0.796209 0.00222851 0.605017
v 41.9363 -78.8545 19.9214
vn 0.0818494 7.54269e-05 0.996645
v 41.9377 -78.7889 19.9205
vn 0.0604706 -0.00355055 0.998164
v 41.8931 -78.8545 19.9307
vn 0.422374 0.00181676 0.90642
v 41.8958 -78.7889 19.9293
vn 0.422374 0.00181676 0.90642
v 41.8615 -78.8545 19.9515
vn 0.664764 0.00206877 0.747051
v 41.8597 -78.7889 19.9528
vn 0.664764 0.00206877 0.747051
v 42.0774 -78.7889 20.0276
vn -0.98943 0.00194833 0.145
v 42.0777 -78.8545 20.0302
vn -0.98943 0.00194833 0.145
v 41.9805 -78.7889 19.9223
vn -0.252987 0.00239932 0.967467
v 41.9814 -78.8545 19.9227
vn -0.252987 0.00239932 0.967467
v 42.0199 -78.7889 19.9396
vn -0.524694 0.00172398 0.851289
v 42.0169 -78.8545 19.9379
vn -0.524694 0.00172398 0.851289
v 42.0516 -78.7889 19.9687
vn -0.807889 0.00134407 0.589333
v 42.0539 -78.8545 19.9721
vn -0.807889 0.00134407 0.589333
v 42.0716 -78.8545 20.0056
vn -0.942921 0.00223768 0.333008
v 42.0721 -78.7889 20.0066
vn -0.942921 0.00223768 0.333008
v 42.0371 -78.8545 19.9532
vn -0.679352 0.00231012 0.733809
v 42.037 -78.7889 19.9528
vn -0.679352 0.00231012 0.733809
v 41.8184 -79.1826 20.0381
vn 0.995792 0.00383014 0.0915646
v 41.8189 -79.117 20.0357
vn 0.993524 -0.000598791 0.113625
v 41.8434 -79.1826 19.9782
vn 0.85434 0.00367191 0.519702
v 41.8449 -79.117 19.9785
vn 0.835746 -0.000250151 0.549117
v 41.8896 -79.1826 19.9327
vn 0.455947 0.00411713 0.889997
v 41.8877 -79.117 19.9339
vn 0.474823 -0.000153574 0.880081
v 41.9318 -79.1826 19.9198
vn 0.130365 0.00311345 0.991461
v 41.9296 -79.117 19.921
vn 0.170591 -0.000913115 0.985341
v 41.9861 -79.1826 19.9258
vn -0.269011 0.00382813 0.96313
v 41.9866 -79.117 19.9267
vn -0.287458 -5.59162e-05 0.957793
v 42.0469 -79.1826 19.9696
vn -0.746182 0.00373354 0.665732
v 42.0459 -79.117 19.9704
vn -0.767139 -0.000188166 0.641481
v 42.075 -79.1826 20.0161
vn -0.970818 -0.00216923 0.239808
v 42.0752 -79.117 20.0178
vn -0.970818 -0.00216923 0.239808
v 42.0787 -79.1826 20.0491
vn -0.999991 0.00407224 -0.000929186
v 42.0785 -79.117 20.0495
vn -0.999901 -0.000350214 -0.0140914
v 42.0778 -78.8545 20.0625
vn -0.993555 0.000725181 -0.11335
v 42.0783 -78.7889 20.0599
vn -0.995902 -0.00345415 -0.0903711
v 42.0709 -78.8545 20.0946
vn -0.937525 0.00187337 -0.347914
v 42.0721 -78.7889 20.0916
vn -0.937525 0.00187337 -0.347914
v 42.037 -78.7889 20.1454
vn -0.664531 0.002028 -0.747258
v 42.0352 -78.8545 20.1468
vn -0.664531 0.002028 -0.747258
v 42.0524 -78.8545 20.1282
vn -0.796155 0.00217552 -0.605089
v 42.0516 -78.7889 20.1295
vn -0.796155 0.00217552 -0.605089
v 42.0009 -78.7889 20.1689
vn -0.422613 0.00183021 -0.906308
v 42.0036 -78.8545 20.1676
vn -0.422613 0.00183021 -0.906308
v 41.9805 -78.7889 20.176
vn -0.240057 0.00231864 -0.970756
v 41.9797 -78.8545 20.176
vn -0.240057 0.00231864 -0.970756
v 41.9483 -78.7889 20.1795
vn 0.000914092 -0.00370045 -0.999993
v 41.9479 -78.8545 20.1793
vn 0.0140157 0.000558233 -0.999902
v 41.9162 -78.7889 20.176
vn 0.252987 0.00242744 -0.967467
v 41.9153 -78.8545 20.1755
vn 0.252987 0.00242744 -0.967467
v 41.8768 -78.7889 20.1587
vn 0.524694 0.00166874 -0.851289
v 41.8798 -78.8545 20.1604
vn 0.524694 0.00166874 -0.851289
v 41.8597 -78.7889 20.1454
vn 0.679271 0.00233955 -0.733884
v 41.8596 -78.8545 20.145
vn 0.679271 0.00233955 -0.733884
v 41.819 -78.8545 20.0681
vn 0.98947 0.00196402 -0.144727
v 41.8193 -78.7889 20.0707
vn 0.98947 0.00196402 -0.144727
v 41.8251 -78.8545 20.0926
vn 0.943016 0.00227962 -0.332741
v 41.8246 -78.7889 20.0916
vn 0.943016 0.00227962 -0.332741
v 41.8427 -78.8545 20.1261
vn 0.807889 0.00139104 -0.589333
v 41.8451 -78.7889 20.1295
vn 0.807889 0.00139104 -0.589333
v 42.0589 -79.1826 20.1109
vn -0.849254 0.00366204 -0.527972
v 42.0582 -79.117 20.1092
vn -0.884653 -0.000228596 -0.46625
v 42.0167 -79.1826 20.1601
vn -0.52119 0.00311813 -0.853435
v 42.0141 -79.117 20.1606
vn -0.485753 -0.000911286 -0.874096
v 41.9758 -79.1826 20.1766
vn -0.204128 0.00412501 -0.978936
v 41.9734 -79.117 20.1769
vn -0.182866 -0.000126888 -0.983138
v 41.9212 -79.1826 20.1752
vn 0.234204 0.00380374 -0.97218
v 41.9225 -79.117 20.1747
vn 0.192186 -0.000119985 -0.981359
v 41.8569 -79.1826 20.1367
vn 0.752503 0.00378213 -0.658578
v 41.8589 -79.117 20.1369
vn 0.727412 -0.000143017 -0.686201
v 41.825 -79.1826 20.0927
vn 0.943016 -0.0023429 -0.332741
v 41.8251 -79.117 20.0926
vn 0.943016 -0.0023429 -0.332741
v 41.8184 -79.1826 20.0602
vn 0.996015 0.00416017 -0.0890895
v 41.8187 -79.117 20.0617
vn 0.994222 -0.000164805 -0.10734
v 42.0131 -78.7496 27.9298
vn -0.509598 -0.856824 -0.0784999
v 41.9483 -78.7103 27.9231
vn -0.514331 -0.855938 -0.053237
v 42.0085 -78.7496 27.9489
vn -0.478601 -0.856903 -0.191462
v 42.0023 -78.7496 27.9601
vn -0.410547 -0.856889 -0.311757
v 41.9941 -78.7496 27.9698
vn -0.342638 -0.856876 -0.38518
v 41.9843 -78.7496 27.9778
vn -0.26198 -0.856879 -0.443988
v 41.9731 -78.7496 27.9837
vn -0.171554 -0.856877 -0.48614
v 41.9609 -78.7496 27.9873
vn -0.099215 -0.857146 -0.505428
v 41.9483 -78.7496 27.9886
vn 0.0145343 -0.856878 -0.515314
v 41.935 -78.7496 27.9872
vn 0.129608 -0.856874 -0.498967
v 41.9225 -78.7496 27.9833
vn 0.225934 -0.856878 -0.463373
v 41.9113 -78.7496 27.9771
vn 0.31174 -0.856875 -0.410589
v 41.9016 -78.7496 27.9689
vn 0.385192 -0.856871 -0.342635
v 41.8937 -78.7496 27.9591
vn 0.444666 -0.856516 -0.262017
v 41.8878 -78.7496 27.9479
vn 0.486147 -0.856874 -0.171545
v 41.8841 -78.7496 27.9357
vn 0.50543 -0.857143 -0.0992232
v 41.8829 -78.7496 27.9231
vn 0.515027 -0.857046 0.0148362
v 41.8843 -78.7496 27.9098
vn 0.498944 -0.856881 0.129651
v 41.8882 -78.7496 27.8973
vn 0.463434 -0.85651 0.227199
v 41.8944 -78.7496 27.8861
vn 0.410564 -0.856878 0.311764
v 41.9025 -78.7496 27.8764
vn 0.342652 -0.856872 0.385175
v 41.9124 -78.7496 27.8685
vn 0.282999 -0.857146 0.430364
v 41.9236 -78.7496 27.8626
vn 0.183139 -0.857077 0.481538
v 41.9357 -78.7496 27.8589
vn 0.0746785 -0.856876 0.510085
v 41.9483 -78.7496 27.8577
vn -0.0274399 -0.856479 0.515452
v 41.9617 -78.7496 27.8591
vn -0.129658 -0.85688 0.498945
v 41.9741 -78.7496 27.863
vn -0.225855 -0.85688 0.463408
v 41.9854 -78.7496 27.8692
vn -0.311696 -0.856889 0.410593
v 41.9951 -78.7496 27.8773
vn -0.36781 -0.857153 0.360561
v 42.003 -78.7496 27.8872
vn -0.437571 -0.8569 0.272494
v 42.0089 -78.7496 27.8984
vn -0.486144 -0.856876 0.171544
v 42.0132 -78.7496 27.9168
vn -0.510074 -0.856878 0.0747316
v 41.9483 -78.7103 27.9231
vn -0.514414 -0.856076 0.050126
v 42.0678 -78.7889 27.9755
vn -0.474014 -0.855631 -0.207861
v 41.8392 -78.7889 27.9945
vn 0.433335 -0.855623 -0.283073
v 41.9483 -78.7889 28.0535
vn 0 -0.855628 -0.517591
v 41.8289 -78.7889 27.8708
vn 0.473985 -0.855628 0.20794
v 41.9483 -78.7889 27.7927
vn 0 -0.855621 0.517602
v 42.0575 -78.7889 27.8518
vn -0.433285 -0.855629 0.283132
v 41.8193 -78.7889 27.9016
vn 0.988055 0.00256145 0.154078
v 41.8192 -78.8545 27.903
vn 0.988055 0.00256145 0.154078
v 41.8246 -78.7889 27.8806
vn 0.937507 0.0018658 0.347962
v 41.8258 -78.8545 27.8777
vn 0.937507 0.0018658 0.347962
v 41.8451 -78.7889 27.8428
vn 0.796209 0.00222851 0.605017
v 41.8443 -78.8545 27.8441
vn 0.796209 0.00222851 0.605017
v 41.9296 -78.8545 27.795
vn 0.119253 0.000820688 0.992864
v 41.9269 -78.7889 27.7945
vn 0.160435 -0.00290339 0.987042
v 41.8931 -78.8545 27.8047
vn 0.422374 0.00181676 0.90642
v 41.8958 -78.7889 27.8033
vn 0.422374 0.00181676 0.90642
v 41.8615 -78.8545 27.8255
vn 0.664764 0.00206877 0.747051
v 41.8597 -78.7889 27.8269
vn 0.664764 0.00206877 0.747051
v 42.0774 -78.7889 27.9016
vn -0.98943 0.00194833 0.145
v 42.0777 -78.8545 27.9042
vn -0.98943 0.00194833 0.145
v 41.9805 -78.7889 27.7963
vn -0.252987 0.00239932 0.967467
v 41.9814 -78.8545 27.7967
vn -0.252987 0.00239932 0.967467
v 42.0199 -78.7889 27.8136
vn -0.524694 0.00172398 0.851289
v 42.0169 -78.8545 27.8119
vn -0.524694 0.00172398 0.851289
v 42.0516 -78.7889 27.8428
vn -0.807889 0.00134407 0.589333
v 42.0539 -78.8545 27.8461
vn -0.807889 0.00134407 0.589333
v 42.0716 -78.8545 27.8796
vn -0.942921 0.00223768 0.333008
v 42.0721 -78.7889 27.8806
vn -0.942921 0.00223768 0.333008
v 42.0371 -78.8545 27.8272
vn -0.679352 0.00231012 0.733809
v 42.037 -78.7889 27.8269
vn -0.679352 0.00231012 0.733809
v 41.8184 -79.1826 27.9121
vn 0.995792 0.00383014 0.0915646
v 41.8189 -79.117 27.9098
vn 0.993524 -0.000598791 0.113625
v 41.8434 -79.1826 27.8522
vn 0.85434 0.00367191 0.519702
v 41.8449 -79.117 27.8525
vn 0.835746 -0.000250151 0.549117
v 41.8896 -79.1826 27.8067
vn 0.455947 0.00411713 0.889997
v 41.8877 -79.117 27.8079
vn 0.474823 -0.000153574 0.880081
v 41.9318 -79.1826 27.7938
vn 0.130392 0.0031164 0.991458
v 41.9296 -79.117 27.795
vn 0.170633 -0.000908471 0.985334
v 41.9861 -79.1826 27.7998
vn -0.268998 0.00381808 0.963133
v 41.9866 -79.117 27.8007
vn -0.287454 -6.43182e-05 0.957795
v 42.0469 -79.1826 27.8436
vn -0.746182 0.00373354 0.665732
v 42.0459 -79.117 27.8444
vn -0.767139 -0.000188166 0.641481
v 42.075 -79.1826 27.8902
vn -0.970818 -0.00216923 0.239808
v 42.0752 -79.117 27.8918
vn -0.970818 -0.00216923 0.239808
v 42.0787 -79.1826 27.9231
vn -0.999991 0.00407216 -0.000929707
v 42.0785 -79.117 27.9235
vn -0.999901 -0.000350877 -0.014095
v 42.0778 -78.8545 27.9365
vn -0.993556 0.000726477 -0.113341
v 42.0783 -78.7889 27.9339
vn -0.995902 -0.00345229 -0.09037
v 42.0709 -78.8545 27.9686
vn -0.937507 0.0018658 -0.347962
v 42.0721 -78.7889 27.9656
vn -0.937507 0.0018658 -0.347962
v 42.037 -78.7889 28.0194
vn -0.664531 0.002028 -0.747258
v 42.0352 -78.8545 28.0208
vn -0.664531 0.002028 -0.747258
v 42.0524 -78.8545 28.0022
vn -0.796155 0.00217552 -0.605089
v 42.0516 -78.7889 28.0035
vn -0.796155 0.00217552 -0.605089
v 42.0009 -78.7889 28.043
vn -0.422613 0.00183021 -0.906308
v 42.0036 -78.8545 28.0416
vn -0.422613 0.00183021 -0.906308
v 41.9805 -78.7889 28.05
vn -0.240057 0.00231864 -0.970756
v 41.9797 -78.8545 28.05
vn -0.240057 0.00231864 -0.970756
v 41.9591 -78.7889 28.0535
vn -0.048437 0.00118355 -0.998826
v 41.9547 -78.8545 28.0537
vn -0.048437 0.00118355 -0.998826
v 41.9162 -78.7889 28.05
vn 0.252987 0.00242744 -0.967467
v 41.9153 -78.8545 28.0496
vn 0.252987 0.00242744 -0.967467
v 41.8768 -78.7889 28.0327
vn 0.524694 0.00166874 -0.851289
v 41.8798 -78.8545 28.0344
vn 0.524694 0.00166874 -0.851289
v 41.8597 -78.7889 28.0194
vn 0.679271 0.00233955 -0.733884
v 41.8596 -78.8545 28.019
vn 0.679271 0.00233955 -0.733884
v 41.819 -78.8545 27.9421
vn 0.98947 0.00196402 -0.144727
v 41.8193 -78.7889 27.9447
vn 0.98947 0.00196402 -0.144727
v 41.8251 -78.8545 27.9666
vn 0.943016 0.00226995 -0.332741
v 41.8246 -78.7889 27.9656
vn 0.943016 0.00226995 -0.332741
v 41.8427 -78.8545 28.0001
vn 0.807889 0.00139104 -0.589333
v 41.8451 -78.7889 28.0035
vn 0.807889 0.00139104 -0.589333
v 42.0589 -79.1826 27.9849
vn -0.849254 0.00366151 -0.527972
v 42.0582 -79.117 27.9832
vn -0.884654 -0.000230836 -0.466249
v 42.0167 -79.1826 28.0342
vn -0.52119 0.00311813 -0.853435
v 42.0141 -79.117 28.0346
vn -0.485753 -0.000911286 -0.874096
v 41.9758 -79.1826 28.0506
vn -0.204128 0.00412501 -0.978936
v 41.9734 -79.117 28.0509
vn -0.182866 -0.000126888 -0.983138
v 41.9212 -79.1826 28.0492
vn 0.234204 0.00380374 -0.97218
v 41.9225 -79.117 28.0487
vn 0.192186 -0.000119985 -0.981359
v 41.8569 -79.1826 28.0107
vn 0.752503 0.00378213 -0.658578
v 41.8589 -79.117 28.0109
vn 0.727412 -0.000143017 -0.686201
v 41.825 -79.1826 27.9667
vn 0.943016 -0.0023429 -0.332741
v 41.8251 -79.117 27.9666
vn 0.943016 -0.0023429 -0.332741
v 41.8184 -79.1826 27.9342
vn 0.996015 0.00416017 -0.0890895
v 41.8187 -79.117 27.9357
vn 0.994222 -0.000164805 -0.10734
v 34.1391 -78.7496 27.9298
vn -0.509598 -0.856824 -0.0784999
v 34.0743 -78.7103 27.9231
vn -0.514331 -0.855938 -0.053237
v 34.1344 -78.7496 27.9489
vn -0.478601 -0.856903 -0.191462
v 34.1283 -78.7496 27.9601
vn -0.410547 -0.856889 -0.311757
v 34.1201 -78.7496 27.9698
vn -0.342638 -0.856876 -0.38518
v 34.1103 -78.7496 27.9778
vn -0.26198 -0.856879 -0.443988
v 34.0991 -78.7496 27.9837
vn -0.171554 -0.856877 -0.48614
v 34.0869 -78.7496 27.9873
vn -0.099215 -0.857146 -0.505428
v 34.0743 -78.7496 27.9886
vn 0.0145343 -0.856878 -0.515314
v 34.0609 -78.7496 27.9872
vn 0.129608 -0.856874 -0.498967
v 34.0485 -78.7496 27.9833
vn 0.225934 -0.856878 -0.463373
v 34.0373 -78.7496 27.9771
vn 0.31174 -0.856875 -0.410589
v 34.0276 -78.7496 27.9689
vn 0.385192 -0.856871 -0.342635
v 34.0197 -78.7496 27.9591
vn 0.444666 -0.856516 -0.262017
v 34.0138 -78.7496 27.9479
vn 0.486147 -0.856874 -0.171545
v 34.0101 -78.7496 27.9357
vn 0.50543 -0.857143 -0.0992232
v 34.0089 -78.7496 27.9231
vn 0.515027 -0.857046 0.0148362
v 34.0103 -78.7496 27.9098
vn 0.498944 -0.856881 0.129651
v 34.0142 -78.7496 27.8973
vn 0.463434 -0.85651 0.227199
v 34.0204 -78.7496 27.8861
vn 0.410564 -0.856878 0.311764
v 34.0285 -78.7496 27.8764
vn 0.342652 -0.856872 0.385175
v 34.0384 -78.7496 27.8685
vn 0.282999 -0.857146 0.430364
v 34.0496 -78.7496 27.8626
vn 0.183139 -0.857077 0.481538
v 34.0617 -78.7496 27.8589
vn 0.0746785 -0.856876 0.510085
v 34.0743 -78.7496 27.8577
vn -0.0274323 -0.856479 0.515452
v 34.0877 -78.7496 27.8591
vn -0.129679 -0.856882 0.498935
v 34.1001 -78.7496 27.863
vn -0.225869 -0.856879 0.463402
v 34.1113 -78.7496 27.8692
vn -0.311696 -0.856889 0.410593
v 34.121 -78.7496 27.8773
vn -0.36781 -0.857153 0.360561
v 34.129 -78.7496 27.8872
vn -0.437571 -0.8569 0.272494
v 34.1349 -78.7496 27.8984
vn -0.486144 -0.856876 0.171544
v 34.1391 -78.7496 27.9168
vn -0.510074 -0.856878 0.0747316
v 34.0743 -78.7103 27.9231
vn -0.514414 -0.856076 0.050126
v 34.1937 -78.7889 27.9755
vn -0.474014 -0.855631 -0.207861
v 33.9652 -78.7889 27.9945
vn 0.433335 -0.855623 -0.283073
v 34.0743 -78.7889 28.0535
vn 0 -0.855628 -0.517591
v 33.9549 -78.7889 27.8708
vn 0.473985 -0.855628 0.20794
v 34.0743 -78.7889 27.7927
vn 0 -0.855621 0.517602
v 34.1835 -78.7889 27.8518
vn -0.433285 -0.855629 0.283132
v 33.9453 -78.7889 27.9016
vn 0.988055 0.00250402 0.154078
v 33.9452 -78.8545 27.903
vn 0.988055 0.00250402 0.154078
v 33.9506 -78.7889 27.8806
vn 0.937507 0.0018658 0.347962
v 33.9518 -78.8545 27.8777
vn 0.937507 0.0018658 0.347962
v 33.9711 -78.7889 27.8428
vn 0.796209 0.00222851 0.605017
v 33.9703 -78.8545 27.8441
vn 0.796209 0.00222851 0.605017
v 34.0556 -78.8545 27.795
vn 0.119253 0.000820688 0.992864
v 34.0529 -78.7889 27.7945
vn 0.160435 -0.00290339 0.987042
v 34.0191 -78.8545 27.8047
vn 0.422374 0.00181676 0.90642
v 34.0218 -78.7889 27.8033
vn 0.422374 0.00181676 0.90642
v 33.9875 -78.8545 27.8255
vn 0.664764 0.00206877 0.747051
v 33.9857 -78.7889 27.8269
vn 0.664764 0.00206877 0.747051
v 34.2034 -78.7889 27.9016
vn -0.98943 0.00194833 0.145
v 34.2036 -78.8545 27.9042
vn -0.98943 0.00194833 0.145
v 34.1064 -78.7889 27.7963
vn -0.252987 0.00239932 0.967467
v 34.1074 -78.8545 27.7967
vn -0.252987 0.00239932 0.967467
v 34.1459 -78.7889 27.8136
vn -0.524694 0.00172398 0.851289
v 34.1429 -78.8545 27.8119
vn -0.524694 0.00172398 0.851289
v 34.1776 -78.7889 27.8428
vn -0.807889 0.00134407 0.589333
v 34.1799 -78.8545 27.8461
vn -0.807889 0.00134407 0.589333
v 34.1976 -78.8545 27.8796
vn -0.942921 0.00223768 0.333008
v 34.1981 -78.7889 27.8806
vn -0.942921 0.00223768 0.333008
v 34.1631 -78.8545 27.8272
vn -0.679352 0.00231012 0.733809
v 34.1629 -78.7889 27.8269
vn -0.679352 0.00231012 0.733809
v 33.9444 -79.1826 27.9121
vn 0.995792 0.00383014 0.0915646
v 33.9449 -79.117 27.9098
vn 0.993524 -0.000598791 0.113625
v 33.9694 -79.1826 27.8522
vn 0.85434 0.00367191 0.519702
v 33.9709 -79.117 27.8525
vn 0.835746 -0.000250151 0.549117
v 34.0156 -79.1826 27.8067
vn 0.455947 0.00411713 0.889997
v 34.0136 -79.117 27.8079
vn 0.474823 -0.000153574 0.880081
v 34.0578 -79.1826 27.7938
vn 0.130392 0.0031164 0.991458
v 34.0556 -79.117 27.795
vn 0.170633 -0.000908471 0.985334
v 34.1121 -79.1826 27.7998
vn -0.268998 0.00381808 0.963133
v 34.1126 -79.117 27.8007
vn -0.287454 -6.43182e-05 0.957795
v 34.1728 -79.1826 27.8436
vn -0.746182 0.00373354 0.665732
v 34.1719 -79.117 27.8444
vn -0.767139 -0.000188166 0.641481
v 34.201 -79.1826 27.8902
vn -0.970818 -0.00216923 0.239808
v 34.2012 -79.117 27.8918
vn -0.970818 -0.00216923 0.239808
v 34.2047 -79.1826 27.9231
vn -0.999991 0.00407216 -0.000929707
v 34.2045 -79.117 27.9235
vn -0.999901 -0.000350877 -0.014095
v 34.2038 -78.8545 27.9365
vn -0.993556 0.000726477 -0.113341
v 34.2043 -78.7889 27.9339
vn -0.995902 -0.00345229 -0.09037
v 34.1968 -78.8545 27.9686
vn -0.937507 0.0018658 -0.347962
v 34.1981 -78.7889 27.9656
vn -0.937507 0.0018658 -0.347962
v 34.1629 -78.7889 28.0194
vn -0.664531 0.002028 -0.747258
v 34.1612 -78.8545 28.0208
vn -0.664531 0.002028 -0.747258
v 34.1784 -78.8545 28.0022
vn -0.796155 0.00217552 -0.605089
v 34.1776 -78.7889 28.0035
vn -0.796155 0.00217552 -0.605089
v 34.1269 -78.7889 28.043
vn -0.422613 0.00183021 -0.906308
v 34.1295 -78.8545 28.0416
vn -0.422613 0.00183021 -0.906308
v 34.1064 -78.7889 28.05
vn -0.240057 0.00231864 -0.970756
v 34.1057 -78.8545 28.05
vn -0.240057 0.00231864 -0.970756
v 34.0851 -78.7889 28.0535
vn -0.048437 0.00118355 -0.998826
v 34.0807 -78.8545 28.0537
vn -0.048437 0.00118355 -0.998826
v 34.0422 -78.7889 28.05
vn 0.252987 0.00242744 -0.967467
v 34.0413 -78.8545 28.0496
vn 0.252987 0.00242744 -0.967467
v 34.0028 -78.7889 28.0327
vn 0.524694 0.00166874 -0.851289
v 34.0058 -78.8545 28.0344
vn 0.524694 0.00166874 -0.851289
v 33.9857 -78.7889 28.0194
vn 0.679271 0.00233955 -0.733884
v 33.9855 -78.8545 28.019
vn 0.679271 0.00233955 -0.733884
v 33.945 -78.8545 27.9421
vn 0.98947 0.0019065 -0.144727
v 33.9453 -78.7889 27.9447
vn 0.98947 0.0019065 -0.144727
v 33.9511 -78.8545 27.9666
vn 0.943016 0.00226995 -0.332741
v 33.9506 -78.7889 27.9656
vn 0.943016 0.00226995 -0.332741
v 33.9687 -78.8545 28.0001
vn 0.807889 0.00139104 -0.589333
v 33.9711 -78.7889 28.0035
vn 0.807889 0.00139104 -0.589333
v 34.1849 -79.1826 27.9849
vn -0.849254 0.00366151 -0.527972
v 34.1842 -79.117 27.9832
vn -0.884654 -0.000230836 -0.466249
v 34.1427 -79.1826 28.0342
vn -0.52119 0.00311813 -0.853435
v 34.1401 -79.117 28.0346
vn -0.485753 -0.000911286 -0.874096
v 34.1018 -79.1826 28.0506
vn -0.204128 0.00412501 -0.978936
v 34.0994 -79.117 28.0509
vn -0.182866 -0.000126888 -0.983138
v 34.0472 -79.1826 28.0492
vn 0.234204 0.00380374 -0.97218
v 34.0485 -79.117 28.0487
vn 0.192186 -0.000119985 -0.981359
v 33.9829 -79.1826 28.0107
vn 0.752503 0.00378213 -0.658578
v 33.9849 -79.117 28.0109
vn 0.727412 -0.000143017 -0.686201
v 33.951 -79.1826 27.9667
vn 0.943016 -0.0023429 -0.332741
v 33.9511 -79.117 27.9666
vn 0.943016 -0.0023429 -0.332741
v 33.9444 -79.1826 27.9342
vn 0.996015 0.00416017 -0.0890895
v 33.9447 -79.117 27.9357
vn 0.994222 -0.000164805 -0.10734
v 55.4787 -78.0999 34.4187
vn 0 1 0
v 20.5439 -78.0999 34.4187
vn 0 1 0
v 20.5439 -78.0999 14.6795
vn 0 1 0
v 20.5439 -78.0999 14.6795
vn 0 1 0
v 55.4787 -78.0999 14.6795
vn 0 1 0
v 19.3794 -78.0999 14.0216
vn 0 1 0
v 19.3794 -78.0999 14.0216
vn 0 1 0
v 19.9771 -78.0999 14.0791
vn 0 1 0
v 19.3794 -78.0999 15.0743
vn 0 1 0
v 19.9617 -78.0999 15.0085
vn 0 1 0
v 19.3794 -78.0999 15.2498
vn 0 1 0
v 19.9617 -78.0999 15.3375
vn 0 1 0
v 19.3794 -78.0999 17.7062
vn 0 1 0
v 19.9617 -78.0999 17.6404
vn 0 1 0
v 20.5439 -78.0999 14.3505
vn 0 1 0
v 20.2625 -78.0999 14.0216
vn 0 1 0
v 22.2907 -78.0999 14.3505
vn 0 1 0
v 22.5583 -78.0999 14.0216
vn 0 1 0
v 19.9617 -78.0999 18.2984
vn 0 1 0
v 19.3794 -78.0999 18.2326
vn 0 1 0
v 19.9617 -78.0999 20.2723
vn 0 1 0
v 19.3794 -78.0999 20.3381
vn 0 1 0
v 19.9617 -78.0999 20.6013
vn 0 1 0
v 19.3794 -78.0999 20.5136
vn 0 1 0
v 19.9617 -78.0999 23.2332
vn 0 1 0
v 19.3794 -78.0999 23.3209
vn 0 1 0
v 19.9617 -78.0999 23.5622
vn 0 1 0
v 19.3794 -78.0999 23.4964
vn 0 1 0
v 19.9617 -78.0999 24.2201
vn 0 1 0
v 19.3794 -78.0999 24.3737
vn 0 1 0
v 19.9617 -78.0999 17.9694
vn 0 1 0
v 19.3921 -78.0999 17.9694
vn 0 1 0
v 22.8729 -78.0999 14.3505
vn 0 1 0
v 22.735 -78.0999 14.0216
vn 0 1 0
v 36.8468 -78.0999 14.3505
vn 0 1 0
v 37.04 -78.0999 14.0216
vn 0 1 0
v 37.4524 -78.0999 14.1415
vn 0 1 0
v 37.2166 -78.0999 14.0216
vn 0 1 0
v 37.9682 -78.0999 14.19
vn 0 1 0
v 38.2762 -78.0999 14.0216
vn 0 1 0
v 19.9617 -78.0999 24.5491
vn 0 1 0
v 19.3794 -78.0999 24.5491
vn 0 1 0
v 19.9617 -78.0999 25.5361
vn 0 1 0
v 19.3794 -78.0999 25.6019
vn 0 1 0
v 19.9617 -78.0999 25.8651
vn 0 1 0
v 19.3794 -78.0999 25.7773
vn 0 1 0
v 19.9617 -78.0999 28.497
vn 0 1 0
v 19.3794 -78.0999 28.5847
vn 0 1 0
v 19.9617 -78.0999 28.8259
vn 0 1 0
v 19.3794 -78.0999 28.7601
vn 0 1 0
v 19.3794 -78.0999 30.5147
vn 0 1 0
v 19.9617 -78.0999 30.4709
vn 0 1 0
v 19.9617 -78.0999 30.7999
vn 0 1 0
v 19.3794 -78.0999 30.6902
vn 0 1 0
v 19.3794 -78.0999 35.0767
vn 0 1 0
v 19.9728 -78.0999 35.0537
vn 0 1 0
v 19.3794 -78.0999 35.0767
vn 0 1 0
v 20.2625 -78.0999 35.0767
vn 0 1 0
v 20.5849 -78.0999 34.9097
vn 0 1 0
v 20.9689 -78.0999 35.0767
vn 0 1 0
v 21.1701 -78.0999 34.9527
vn 0 1 0
v 21.4987 -78.0999 35.0767
vn 0 1 0
v 21.7084 -78.0999 34.7477
vn 0 1 0
v 23.618 -78.0999 35.0767
vn 0 1 0
v 23.4552 -78.0999 34.7477
vn 0 1 0
v 23.7946 -78.0999 35.0767
vn 0 1 0
v 24.0374 -78.0999 34.7477
vn 0 1 0
v 24.3244 -78.0999 35.0767
vn 0 1 0
v 24.6053 -78.0999 34.9591
vn 0 1 0
v 24.8542 -78.0999 35.0767
vn 0 1 0
v 25.2408 -78.0999 34.9534
vn 0 1 0
v 25.0308 -78.0999 35.0767
vn 0 1 0
v 25.7842 -78.0999 34.7477
vn 0 1 0
v 25.5606 -78.0999 35.0767
vn 0 1 0
v 26.6203 -78.0999 35.0767
vn 0 1 0
v 26.3664 -78.0999 34.7477
vn 0 1 0
v 27.8565 -78.0999 35.0767
vn 0 1 0
v 28.1573 -78.0999 34.9076
vn 0 1 0
v 26.9945 -78.0999 34.9525
vn 0 1 0
v 26.7969 -78.0999 35.0767
vn 0 1 0
v 27.6799 -78.0999 35.0767
vn 0 1 0
v 27.4841 -78.0999 34.9524
vn 0 1 0
v 28.6753 -78.0999 34.9576
vn 0 1 0
v 28.9161 -78.0999 35.0767
vn 0 1 0
v 29.2378 -78.0999 34.9532
vn 0 1 0
v 29.446 -78.0999 35.0767
vn 0 1 0
v 29.8011 -78.0999 34.9518
vn 0 1 0
v 29.9758 -78.0999 35.0767
vn 0 1 0
v 30.4421 -78.0999 34.7477
vn 0 1 0
v 30.1524 -78.0999 35.0767
vn 0 1 0
v 30.6822 -78.0999 35.0767
vn 0 1 0
v 30.9916 -78.0999 34.9545
vn 0 1 0
v 31.212 -78.0999 35.0767
vn 0 1 0
v 31.6278 -78.0999 34.9573
vn 0 1 0
v 31.3886 -78.0999 35.0767
vn 0 1 0
v 32.1451 -78.0999 34.9078
vn 0 1 0
v 32.4483 -78.0999 35.0767
vn 0 1 0
v 32.8189 -78.0999 34.9523
vn 0 1 0
v 32.6249 -78.0999 35.0767
vn 0 1 0
v 33.3085 -78.0999 34.9526
vn 0 1 0
v 33.5079 -78.0999 35.0767
vn 0 1 0
v 33.9356 -78.0999 34.7477
vn 0 1 0
v 33.6845 -78.0999 35.0767
vn 0 1 0
v 34.5 -78.0999 34.9582
vn 0 1 0
v 34.7441 -78.0999 35.0767
vn 0 1 0
v 35.136 -78.0999 34.9539
vn 0 1 0
v 34.9207 -78.0999 35.0767
vn 0 1 0
v 34.2143 -78.0999 35.0767
vn 0 1 0
v 35.6255 -78.0999 34.9518
vn 0 1 0
v 35.8038 -78.0999 35.0767
vn 0 1 0
v 36.2646 -78.0999 34.7477
vn 0 1 0
v 35.9804 -78.0999 35.0767
vn 0 1 0
v 36.5102 -78.0999 35.0767
vn 0 1 0
v 36.8161 -78.0999 34.955
vn 0 1 0
v 37.04 -78.0999 35.0767
vn 0 1 0
v 37.4291 -78.0999 34.7477
vn 0 1 0
v 37.2166 -78.0999 35.0767
vn 0 1 0
v 38.2762 -78.0999 35.0767
vn 0 1 0
v 38.0113 -78.0999 34.7477
vn 0 1 0
v 38.5936 -78.0999 14.3505
vn 0 1 0
v 52.2281 -78.0999 14.0216
vn 0 1 0
v 38.4529 -78.0999 14.0216
vn 0 1 0
v 51.9853 -78.0999 14.3505
vn 0 1 0
v 52.5675 -78.0999 14.3505
vn 0 1 0
v 56.6432 -78.0999 14.0216
vn 0 1 0
v 52.4047 -78.0999 14.0216
vn 0 1 0
v 56.6422 -78.0999 14.3539
vn 0 1 0
v 56.061 -78.0999 14.6795
vn 0 1 0
v 56.6309 -78.0999 14.6337
vn 0 1 0
v 56.6308 -78.0999 14.9805
vn 0 1 0
v 56.061 -78.0999 15.0085
vn 0 1 0
v 56.6308 -78.0999 15.3273
vn 0 1 0
v 56.061 -78.0999 15.3375
vn 0 1 0
v 56.6308 -78.0999 15.6741
vn 0 1 0
v 56.061 -78.0999 15.6665
vn 0 1 0
v 56.6309 -78.0999 16.3677
vn 0 1 0
v 56.061 -78.0999 16.3245
vn 0 1 0
v 56.6309 -78.0999 16.7146
vn 0 1 0
v 56.061 -78.0999 16.6534
vn 0 1 0
v 56.6308 -78.0999 16.0209
vn 0 1 0
v 56.061 -78.0999 15.9955
vn 0 1 0
v 56.6432 -78.0999 17.6758
vn 0 1 0
v 56.061 -78.0999 17.3114
vn 0 1 0
v 56.6432 -78.0999 17.1537
vn 0 1 0
v 56.061 -78.0999 17.6404
vn 0 1 0
v 56.061 -78.0999 17.9694
vn 0 1 0
v 56.6432 -78.0999 18.3718
vn 0 1 0
v 56.6432 -78.0999 17.8498
vn 0 1 0
v 56.061 -78.0999 18.2984
vn 0 1 0
v 56.061 -78.0999 18.6274
vn 0 1 0
v 56.6308 -78.0999 18.6325
vn 0 1 0
v 56.061 -78.0999 18.9564
vn 0 1 0
v 56.6308 -78.0999 18.9793
vn 0 1 0
v 56.061 -78.0999 19.2853
vn 0 1 0
v 56.6308 -78.0999 19.3261
vn 0 1 0
v 56.061 -78.0999 19.6143
vn 0 1 0
v 56.6309 -78.0999 19.6729
vn 0 1 0
v 56.061 -78.0999 20.2723
vn 0 1 0
v 56.631 -78.0999 20.2035
vn 0 1 0
v 56.061 -78.0999 20.6013
vn 0 1 0
v 56.6309 -78.0999 20.5504
vn 0 1 0
v 56.061 -78.0999 20.9303
vn 0 1 0
v 56.6308 -78.0999 20.8972
vn 0 1 0
v 56.061 -78.0999 21.5882
vn 0 1 0
v 56.6308 -78.0999 21.5908
vn 0 1 0
v 56.061 -78.0999 21.2593
vn 0 1 0
v 56.6308 -78.0999 21.244
vn 0 1 0
v 56.061 -78.0999 22.2462
vn 0 1 0
v 56.6308 -78.0999 22.2844
vn 0 1 0
v 56.061 -78.0999 22.5752
vn 0 1 0
v 56.6309 -78.0999 22.6312
vn 0 1 0
v 56.061 -78.0999 23.5622
vn 0 1 0
v 56.6309 -78.0999 23.5087
vn 0 1 0
v 56.061 -78.0999 24.2201
vn 0 1 0
v 56.6308 -78.0999 24.2023
vn 0 1 0
v 56.061 -78.0999 23.8911
vn 0 1 0
v 56.6308 -78.0999 23.8555
vn 0 1 0
v 56.061 -78.0999 23.2332
vn 0 1 0
v 56.631 -78.0999 23.1618
vn 0 1 0
v 56.061 -78.0999 21.9172
vn 0 1 0
v 56.6308 -78.0999 21.9376
vn 0 1 0
v 56.6432 -78.0999 24.9841
vn 0 1 0
v 56.6432 -78.0999 24.4621
vn 0 1 0
v 56.061 -78.0999 24.5491
vn 0 1 0
v 38.5703 -78.0999 34.9567
vn 0 1 0
v 38.8061 -78.0999 35.0767
vn 0 1 0
v 39.3359 -78.0999 35.0767
vn 0 1 0
v 39.133 -78.0999 34.9528
vn 0 1 0
v 39.7581 -78.0999 34.7477
vn 0 1 0
v 39.5125 -78.0999 35.0767
vn 0 1 0
v 40.0423 -78.0999 35.0767
vn 0 1 0
v 40.3248 -78.0999 34.9588
vn 0 1 0
v 40.5721 -78.0999 35.0767
vn 0 1 0
v 40.9604 -78.0999 34.9536
vn 0 1 0
v 40.7487 -78.0999 35.0767
vn 0 1 0
v 41.5048 -78.0999 34.7477
vn 0 1 0
v 41.2785 -78.0999 35.0767
vn 0 1 0
v 42.3382 -78.0999 35.0767
vn 0 1 0
v 43.277 -78.0999 34.9562
vn 0 1 0
v 43.0446 -78.0999 35.0767
vn 0 1 0
v 42.0871 -78.0999 34.7477
vn 0 1 0
v 42.7142 -78.0999 34.9526
vn 0 1 0
v 42.5148 -78.0999 35.0767
vn 0 1 0
v 43.8776 -78.0999 34.9078
vn 0 1 0
v 43.5744 -78.0999 35.0767
vn 0 1 0
v 44.3949 -78.0999 34.9573
vn 0 1 0
v 44.634 -78.0999 35.0767
vn 0 1 0
v 44.9574 -78.0999 34.9531
vn 0 1 0
v 45.1639 -78.0999 35.0767
vn 0 1 0
v 45.5805 -78.0999 34.7477
vn 0 1 0
v 45.3405 -78.0999 35.0767
vn 0 1 0
v 46.1495 -78.0999 34.9595
vn 0 1 0
v 46.4001 -78.0999 35.0767
vn 0 1 0
v 46.7849 -78.0999 34.9532
vn 0 1 0
v 46.5767 -78.0999 35.0767
vn 0 1 0
v 47.3473 -78.0999 34.9576
vn 0 1 0
v 47.1065 -78.0999 35.0767
vn 0 1 0
v 47.9516 -78.0999 34.909
vn 0 1 0
v 47.6363 -78.0999 35.0767
vn 0 1 0
v 45.8703 -78.0999 35.0767
vn 0 1 0
v 48.4652 -78.0999 34.9559
vn 0 1 0
v 48.696 -78.0999 35.0767
vn 0 1 0
v 49.0282 -78.0999 34.9525
vn 0 1 0
v 49.2258 -78.0999 35.0767
vn 0 1 0
v 49.6146 -78.0999 34.9092
vn 0 1 0
v 49.9322 -78.0999 35.0767
vn 0 1 0
v 50.2923 -78.0999 34.9519
vn 0 1 0
v 50.1088 -78.0999 35.0767
vn 0 1 0
v 50.8556 -78.0999 34.9541
vn 0 1 0
v 50.6386 -78.0999 35.0767
vn 0 1 0
v 51.3452 -78.0999 34.9518
vn 0 1 0
v 51.5217 -78.0999 35.0767
vn 0 1 0
v 51.9853 -78.0999 34.7477
vn 0 1 0
v 51.6983 -78.0999 35.0767
vn 0 1 0
v 52.2281 -78.0999 35.0767
vn 0 1 0
v 52.5357 -78.0999 34.9547
vn 0 1 0
v 52.7579 -78.0999 35.0767
vn 0 1 0
v 53.1497 -78.0999 34.7477
vn 0 1 0
v 52.9345 -78.0999 35.0767
vn 0 1 0
v 53.9941 -78.0999 35.0767
vn 0 1 0
v 56.061 -78.0999 24.8781
vn 0 1 0
v 56.061 -78.0999 25.2071
vn 0 1 0
v 56.6308 -78.0999 25.2427
vn 0 1 0
v 56.061 -78.0999 25.5361
vn 0 1 0
v 56.6309 -78.0999 25.5895
vn 0 1 0
v 56.061 -78.0999 25.8651
vn 0 1 0
v 56.631 -78.0999 25.9364
vn 0 1 0
v 56.061 -78.0999 26.523
vn 0 1 0
v 56.6309 -78.0999 26.467
vn 0 1 0
v 56.061 -78.0999 26.852
vn 0 1 0
v 56.6308 -78.0999 26.8138
vn 0 1 0
v 56.061 -78.0999 27.181
vn 0 1 0
v 56.6308 -78.0999 27.1606
vn 0 1 0
v 56.061 -78.0999 27.51
vn 0 1 0
v 56.6308 -78.0999 27.5074
vn 0 1 0
v 56.061 -78.0999 28.168
vn 0 1 0
v 56.6308 -78.0999 28.2011
vn 0 1 0
v 56.061 -78.0999 27.839
vn 0 1 0
v 56.6308 -78.0999 27.8542
vn 0 1 0
v 56.061 -78.0999 28.8259
vn 0 1 0
v 56.631 -78.0999 28.8947
vn 0 1 0
v 56.061 -78.0999 29.4839
vn 0 1 0
v 56.6309 -78.0999 29.4253
vn 0 1 0
v 56.061 -78.0999 30.1419
vn 0 1 0
v 56.6308 -78.0999 30.119
vn 0 1 0
v 56.061 -78.0999 30.7999
vn 0 1 0
v 56.6308 -78.0999 30.8126
vn 0 1 0
v 56.061 -78.0999 30.4709
vn 0 1 0
v 56.6308 -78.0999 30.4658
vn 0 1 0
v 56.061 -78.0999 29.8129
vn 0 1 0
v 56.6308 -78.0999 29.7722
vn 0 1 0
v 56.061 -78.0999 28.497
vn 0 1 0
v 56.6309 -78.0999 28.5479
vn 0 1 0
v 53.732 -78.0999 34.7477
vn 0 1 0
v 54.2898 -78.0999 34.9564
vn 0 1 0
v 54.524 -78.0999 35.0767
vn 0 1 0
v 54.8526 -78.0999 34.9527
vn 0 1 0
v 55.0538 -78.0999 35.0767
vn 0 1 0
v 55.4787 -78.0999 34.7477
vn 0 1 0
v 55.2304 -78.0999 35.0767
vn 0 1 0
v 55.7602 -78.0999 35.0767
vn 0 1 0
v 56.6309 -78.0999 31.5062
vn 0 1 0
v 56.061 -78.0999 31.4578
vn 0 1 0
v 56.6309 -78.0999 32.3837
vn 0 1 0
v 56.061 -78.0999 32.4448
vn 0 1 0
v 56.631 -78.0999 31.853
vn 0 1 0
v 56.061 -78.0999 31.7868
vn 0 1 0
v 56.6309 -78.0999 32.7305
vn 0 1 0
v 56.061 -78.0999 32.7738
vn 0 1 0
v 56.6308 -78.0999 33.4241
vn 0 1 0
v 56.061 -78.0999 33.4317
vn 0 1 0
v 56.6308 -78.0999 33.0773
vn 0 1 0
v 56.061 -78.0999 33.1028
vn 0 1 0
v 56.6308 -78.0999 33.7709
vn 0 1 0
v 56.061 -78.0999 33.7607
vn 0 1 0
v 55.9368 -78.0999 35.0767
vn 0 1 0
v 56.061 -78.0999 34.7477
vn 0 1 0
v 56.6432 -78.0999 35.0767
vn 0 1 0
v 56.061 -78.0999 34.0897
vn 0 1 0
v 56.6308 -78.0999 34.1177
vn 0 1 0
v 56.6432 -78.0999 35.0767
vn 0 1 0
v 56.6432 -78.0999 34.7287
vn 0 1 0
v 56.061 -78.0999 34.4187
vn 0 1 0
v 56.6309 -78.0999 34.4645
vn 0 1 0
v 56.6308 -78.0999 31.1594
vn 0 1 0
v 56.061 -78.0999 31.1288
vn 0 1 0
v 57.096 -78.0605 13.5688
vn 0 0 -1
v 57.096 -79.1826 13.5688
vn 0 0 -1
v 48.6139 -79.1826 13.5688
vn 0 0 -1
v 49.4621 -78.0605 13.5688
vn 0 0 -1
v 45.6452 -78.0605 13.5688
vn 0 0 -1
v 46.4934 -79.1826 13.5688
vn 0 0 -1
v 44.3729 -79.1826 13.5688
vn 0 0 -1
v 41.8283 -78.0605 13.5688
vn 0 0 -1
v 42.2524 -79.1826 13.5688
vn 0 0 -1
v 38.0113 -79.1826 13.5688
vn 0 0 -1
v 38.0113 -78.0605 13.5688
vn 0 0 -1
v 34.1944 -78.0605 13.5688
vn 0 0 -1
v 35.8908 -79.1826 13.5688
vn 0 0 -1
v 26.5605 -78.0605 13.5688
vn 0 0 -1
v 27.4088 -79.1826 13.5688
vn 0 0 -1
v 30.3775 -78.0605 13.5688
vn 0 0 -1
v 29.5293 -79.1826 13.5688
vn 0 0 -1
v 18.9267 -78.0605 13.5688
vn 0 0 -1
v 18.9267 -79.1826 13.5688
vn 0 0 -1
v 57.096 -78.0605 35.5294
vn 1 0 0
v 57.096 -79.1826 35.5294
vn 1 0 0
v 57.096 -78.0605 31.8693
vn 1 0 0
v 57.096 -79.1826 31.1373
vn 1 0 0
v 57.096 -79.1826 28.9412
vn 1 0 0
v 57.096 -79.1826 26.7452
vn 1 0 0
v 57.096 -78.0605 28.2092
vn 1 0 0
v 57.096 -78.0605 20.889
vn 1 0 0
v 57.096 -79.1826 22.3531
vn 1 0 0
v 57.096 -79.1826 20.157
vn 1 0 0
v 57.096 -78.0605 17.2289
vn 1 0 0
v 57.096 -79.1826 17.9609
vn 1 0 0
v 57.096 -79.1826 15.7649
vn 1 0 0
v 18.9267 -78.0605 35.5294
vn 0 0 1
v 18.9267 -79.1826 35.5294
vn 0 0 1
v 27.4088 -79.1826 35.5294
vn 0 0 1
v 26.5605 -78.0605 35.5294
vn 0 0 1
v 30.3775 -78.0605 35.5294
vn 0 0 1
v 29.5293 -79.1826 35.5294
vn 0 0 1
v 31.6498 -79.1826 35.5294
vn 0 0 1
v 34.1944 -78.0605 35.5294
vn 0 0 1
v 33.7703 -79.1826 35.5294
vn 0 0 1
v 35.8908 -79.1826 35.5294
vn 0 0 1
v 41.8283 -78.0605 35.5294
vn 0 0 1
v 40.1319 -79.1826 35.5294
vn 0 0 1
v 45.6452 -78.0605 35.5294
vn 0 0 1
v 46.4934 -79.1826 35.5294
vn 0 0 1
v 49.4621 -78.0605 35.5294
vn 0 0 1
v 48.6139 -79.1826 35.5294
vn 0 0 1
v 57.096 -79.1826 35.5294
vn 0 0 1
v 57.096 -78.0605 35.5294
vn 0 0 1
v 18.9267 -78.0605 13.5688
vn -1 0 0
v 18.9267 -79.1826 13.5688
vn -1 0 0
v 18.9267 -79.1826 17.9609
vn -1 0 0
v 18.9267 -78.0605 17.2289
vn -1 0 0
v 18.9267 -79.1826 20.157
vn -1 0 0
v 18.9267 -79.1826 22.3531
vn -1 0 0
v 18.9267 -78.0605 20.889
vn -1 0 0
v 18.9267 -78.0605 28.2092
vn -1 0 0
v 18.9267 -79.1826 26.7452
vn -1 0 0
v 18.9267 -79.1826 28.9412
vn -1 0 0
v 18.9267 -78.0605 31.8693
vn -1 0 0
v 18.9267 -79.1826 31.1373
vn -1 0 0
v 18.9267 -79.1826 33.3334
vn -1 0 0
v 56.6432 -78.0605 14.0216
vn 0 1 0
v 57.096 -78.0605 13.5688
vn 0 1 0
v 56.6432 -78.0605 22.548
vn 0 1 0
v 57.096 -78.0605 20.889
vn 0 1 0
v 56.6432 -78.0605 22.722
vn 0 1 0
v 57.096 -78.0605 24.5491
vn 0 1 0
v 45.6452 -78.0605 13.5688
vn 0 1 0
v 43.751 -78.0605 14.0216
vn 0 1 0
v 43.5744 -78.0605 14.0216
vn 0 1 0
v 41.8283 -78.0605 13.5688
vn 0 1 0
v 20.9689 -78.0605 14.0216
vn 0 1 0
v 56.6432 -78.0605 30.0304
vn 0 1 0
v 57.096 -78.0605 28.2092
vn 0 1 0
v 56.6432 -78.0605 30.2044
vn 0 1 0
v 57.096 -78.0605 31.8693
vn 0 1 0
v 56.6432 -78.0605 33.6846
vn 0 1 0
v 56.6432 -78.0605 33.8586
vn 0 1 0
v 57.096 -78.0605 35.5294
vn 0 1 0
v 56.6432 -78.0605 35.0767
vn 0 1 0
v 55.2304 -78.0605 35.0767
vn 0 1 0
v 53.2791 -78.0605 35.5294
vn 0 1 0
v 55.0538 -78.0605 35.0767
vn 0 1 0
v 51.5217 -78.0605 35.0767
vn 0 1 0
v 49.4621 -78.0605 35.5294
vn 0 1 0
v 51.3451 -78.0605 35.0767
vn 0 1 0
v 41.8283 -78.0605 35.5294
vn 0 1 0
v 40.0423 -78.0605 35.0767
vn 0 1 0
v 28.5629 -78.0605 35.0767
vn 0 1 0
v 38.0113 -78.0605 35.5294
vn 0 1 0
v 39.8657 -78.0605 35.0767
vn 0 1 0
v 22.7436 -78.0605 13.5688
vn 0 1 0
v 18.9267 -78.0605 13.5688
vn 0 1 0
v 20.7923 -78.0605 14.0216
vn 0 1 0
v 19.3794 -78.0605 14.0216
vn 0 1 0
v 19.3794 -78.0605 35.0767
vn 0 1 0
v 18.9267 -78.0605 35.5294
vn 0 1 0
v 30.3775 -78.0605 35.5294
vn 0 1 0
v 28.3863 -78.0605 35.0767
vn 0 1 0
v 26.5605 -78.0605 35.5294
vn 0 1 0
v 24.6776 -78.0605 35.0767
vn 0 1 0
v 22.7436 -78.0605 35.5294
vn 0 1 0
v 24.501 -78.0605 35.0767
vn 0 1 0
v 45.3516 -79.1826 17.6864
vn 0 -1 0
v 48.2877 -79.1826 16.3139
vn 0 -1 0
v 43.8835 -79.1826 19.059
vn 0 -1 0
v 45.3516 -79.1826 16.3139
vn 0 -1 0
v 43.8835 -79.1826 20.4315
vn 0 -1 0
v 45.3516 -79.1826 21.804
vn 0 -1 0
v 45.3516 -79.1826 25.9217
vn 0 -1 0
v 48.2877 -79.1826 32.7844
vn 0 -1 0
v 45.3516 -79.1826 30.0393
vn 0 -1 0
v 45.3516 -79.1826 32.7844
vn 0 -1 0
v 43.1495 -79.1826 19.059
vn 0 -1 0
v 43.1495 -79.1826 18.3727
vn 0 -1 0
v 40.9474 -79.1826 18.3727
vn 0 -1 0
v 42.4155 -79.1826 19.059
vn 0 -1 0
v 43.8835 -79.1826 17.6864
vn 0 -1 0
v 43.8835 -79.1826 16.3139
vn 0 -1 0
v 42.4155 -79.1826 16.3139
vn 0 -1 0
v 40.9474 -79.1826 17.6864
vn 0 -1 0
v 42.7825 -79.1826 20.4315
vn 0 -1 0
v 42.4155 -79.1826 20.7746
vn 0 -1 0
v 42.4155 -79.1826 20.3972
vn 0 -1 0
v 43.1495 -79.1826 21.1178
vn 0 -1 0
v 42.4155 -79.1826 21.1178
vn 0 -1 0
v 43.1495 -79.1826 20.4315
vn 0 -1 0
v 43.8835 -79.1826 21.804
vn 0 -1 0
v 42.232 -79.1826 19.6256
vn 0 -1 0
v 42.4155 -79.1826 19.4402
vn 0 -1 0
v 42.7825 -79.1826 19.4021
vn 0 -1 0
v 42.4155 -79.1826 21.804
vn 0 -1 0
v 40.5804 -79.1826 23.1766
vn 0 -1 0
v 43.8835 -79.1826 23.1766
vn 0 -1 0
v 42.4155 -79.1826 26.9511
vn 0 -1 0
v 42.7825 -79.1826 27.2942
vn 0 -1 0
v 42.4155 -79.1826 27.306
vn 0 -1 0
v 43.1495 -79.1826 26.6079
vn 0 -1 0
v 43.1495 -79.1826 27.2942
vn 0 -1 0
v 42.4155 -79.1826 26.6079
vn 0 -1 0
v 43.8835 -79.1826 25.9217
vn 0 -1 0
v 43.8835 -79.1826 27.2942
vn 0 -1 0
v 43.8835 -79.1826 24.5491
vn 0 -1 0
v 40.9474 -79.1826 24.5491
vn 0 -1 0
v 42.4155 -79.1826 25.9217
vn 0 -1 0
v 42.4155 -79.1826 28.6667
vn 0 -1 0
v 40.9474 -79.1826 29.353
vn 0 -1 0
v 43.1495 -79.1826 29.353
vn 0 -1 0
v 43.1495 -79.1826 28.6667
vn 0 -1 0
v 43.8835 -79.1826 28.6667
vn 0 -1 0
v 43.8835 -79.1826 30.0393
vn 0 -1 0
v 42.4014 -79.1826 28.3104
vn 0 -1 0
v 42.7825 -79.1826 28.3236
vn 0 -1 0
v 42.7825 -79.1826 27.9805
vn 0 -1 0
v 40.9474 -79.1826 30.0393
vn 0 -1 0
v 43.8835 -79.1826 31.4118
vn 0 -1 0
v 40.2134 -79.1826 19.059
vn 0 -1 0
v 40.9474 -79.1826 19.059
vn 0 -1 0
v 38.0113 -79.1826 17.6864
vn 0 -1 0
v 39.4794 -79.1826 19.059
vn 0 -1 0
v 41.6815 -79.1826 19.059
vn 0 -1 0
v 40.9474 -79.1826 16.3139
vn 0 -1 0
v 40.9474 -79.1826 21.1178
vn 0 -1 0
v 40.2134 -79.1826 21.1178
vn 0 -1 0
v 40.9474 -79.1826 20.4315
vn 0 -1 0
v 41.6815 -79.1826 21.1178
vn 0 -1 0
v 40.9474 -79.1826 21.804
vn 0 -1 0
v 42.0485 -79.1826 21.1178
vn 0 -1 0
v 41.6815 -79.1826 20.7746
vn 0 -1 0
v 42.0344 -79.1826 20.7174
vn 0 -1 0
v 42.1096 -79.1826 20.4164
vn 0 -1 0
v 41.7732 -79.1826 20.4237
vn 0 -1 0
v 41.6815 -79.1826 20.4315
vn 0 -1 0
v 41.3144 -79.1826 20.7746
vn 0 -1 0
v 41.3144 -79.1826 20.4315
vn 0 -1 0
v 41.3434 -79.1826 19.7452
vn 0 -1 0
v 40.9474 -79.1826 19.7452
vn 0 -1 0
v 41.6751 -79.1826 20.2291
vn 0 -1 0
v 41.6154 -79.1826 19.779
vn 0 -1 0
v 42.1634 -79.1826 20.2321
vn 0 -1 0
v 42.1288 -79.1826 19.8739
vn 0 -1 0
v 41.6815 -79.1826 19.4292
vn 0 -1 0
v 41.3144 -79.1826 19.4021
vn 0 -1 0
v 39.4794 -79.1826 21.804
vn 0 -1 0
v 40.2134 -79.1826 27.2942
vn 0 -1 0
v 40.9474 -79.1826 26.6079
vn 0 -1 0
v 40.9474 -79.1826 27.2942
vn 0 -1 0
v 40.9474 -79.1826 25.9217
vn 0 -1 0
v 39.4794 -79.1826 27.2942
vn 0 -1 0
v 41.3144 -79.1826 27.2942
vn 0 -1 0
v 41.6815 -79.1826 26.9511
vn 0 -1 0
v 41.6815 -79.1826 27.3514
vn 0 -1 0
v 41.6815 -79.1826 26.6079
vn 0 -1 0
v 41.6815 -79.1826 25.9217
vn 0 -1 0
v 40.2134 -79.1826 28.6667
vn 0 -1 0
v 40.9474 -79.1826 28.6667
vn 0 -1 0
v 39.4794 -79.1826 30.0393
vn 0 -1 0
v 39.4794 -79.1826 28.6667
vn 0 -1 0
v 41.6815 -79.1826 28.3236
vn 0 -1 0
v 41.3144 -79.1826 28.6667
vn 0 -1 0
v 41.3144 -79.1826 28.3236
vn 0 -1 0
v 41.5879 -79.1826 28.1349
vn 0 -1 0
v 40.9474 -79.1826 28.3236
vn 0 -1 0
v 42.1664 -79.1826 28.1138
vn 0 -1 0
v 41.7529 -79.1826 27.6884
vn 0 -1 0
v 42.1883 -79.1826 27.7152
vn 0 -1 0
v 42.232 -79.1826 27.4658
vn 0 -1 0
v 41.3645 -79.1826 27.6373
vn 0 -1 0
v 40.9474 -79.1826 27.6373
vn 0 -1 0
v 40.9474 -79.1826 31.4118
vn 0 -1 0
v 36.5433 -79.1826 21.804
vn 0 -1 0
v 36.5433 -79.1826 19.059
vn 0 -1 0
v 35.4422 -79.1826 23.1766
vn 0 -1 0
v 36.5433 -79.1826 27.2942
vn 0 -1 0
v 39.4794 -79.1826 28.6667
vn 0 -1 0
v 36.5433 -79.1826 28.6667
vn 0 -1 0
v 36.5433 -79.1826 31.4118
vn 0 -1 0
v 36.5433 -79.1826 30.0393
vn 0 -1 0
v 39.4794 -79.1826 31.4118
vn 0 -1 0
v 33.6072 -79.1826 19.059
vn 0 -1 0
v 35.0752 -79.1826 18.3727
vn 0 -1 0
v 34.3412 -79.1826 19.059
vn 0 -1 0
v 35.0752 -79.1826 19.059
vn 0 -1 0
v 35.8093 -79.1826 19.059
vn 0 -1 0
v 35.0752 -79.1826 17.6864
vn 0 -1 0
v 32.1391 -79.1826 17.6864
vn 0 -1 0
v 35.0752 -79.1826 16.3139
vn 0 -1 0
v 32.1391 -79.1826 16.3139
vn 0 -1 0
v 33.9742 -79.1826 21.1178
vn 0 -1 0
v 33.6072 -79.1826 21.804
vn 0 -1 0
v 33.6072 -79.1826 21.1178
vn 0 -1 0
v 34.3412 -79.1826 21.1178
vn 0 -1 0
v 35.0752 -79.1826 21.804
vn 0 -1 0
v 35.0752 -79.1826 21.1178
vn 0 -1 0
v 34.2953 -79.1826 20.4212
vn 0 -1 0
v 34.7082 -79.1826 20.7746
vn 0 -1 0
v 34.3412 -79.1826 20.7746
vn 0 -1 0
v 34.7082 -79.1826 20.4315
vn 0 -1 0
v 33.9883 -79.1826 20.7403
vn 0 -1 0
v 33.913 -79.1826 20.4258
vn 0 -1 0
v 33.6072 -79.1826 20.7746
vn 0 -1 0
v 33.6072 -79.1826 20.3972
vn 0 -1 0
v 35.0752 -79.1826 20.4315
vn 0 -1 0
v 35.8093 -79.1826 21.1178
vn 0 -1 0
v 35.0752 -79.1826 19.7452
vn 0 -1 0
v 33.8633 -79.1826 20.2252
vn 0 -1 0
v 33.2402 -79.1826 19.7452
vn 0 -1 0
v 34.3493 -79.1826 20.2374
vn 0 -1 0
v 34.3037 -79.1826 19.7933
vn 0 -1 0
v 34.6063 -79.1826 19.7452
vn 0 -1 0
v 33.8211 -79.1826 19.7707
vn 0 -1 0
v 33.6072 -79.1826 19.4223
vn 0 -1 0
v 34.3412 -79.1826 19.5737
vn 0 -1 0
v 34.7082 -79.1826 19.4021
vn 0 -1 0
v 34.3412 -79.1826 19.4021
vn 0 -1 0
v 33.6072 -79.1826 27.306
vn 0 -1 0
v 34.3412 -79.1826 26.9511
vn 0 -1 0
v 33.6072 -79.1826 26.9511
vn 0 -1 0
v 34.3412 -79.1826 27.4167
vn 0 -1 0
v 34.7082 -79.1826 27.2942
vn 0 -1 0
v 35.0752 -79.1826 26.6079
vn 0 -1 0
v 35.0752 -79.1826 27.2942
vn 0 -1 0
v 34.3412 -79.1826 26.6079
vn 0 -1 0
v 33.6072 -79.1826 26.6079
vn 0 -1 0
v 34.3412 -79.1826 25.9217
vn 0 -1 0
v 33.6072 -79.1826 25.9217
vn 0 -1 0
v 35.8093 -79.1826 27.2942
vn 0 -1 0
v 35.0752 -79.1826 25.9217
vn 0 -1 0
v 35.0752 -79.1826 24.5491
vn 0 -1 0
v 32.1391 -79.1826 24.5491
vn 0 -1 0
v 34.7082 -79.1826 28.6667
vn 0 -1 0
v 33.9742 -79.1826 29.353
vn 0 -1 0
v 35.0752 -79.1826 29.353
vn 0 -1 0
v 35.0752 -79.1826 28.6667
vn 0 -1 0
v 33.6072 -79.1826 28.6667
vn 0 -1 0
v 35.8093 -79.1826 28.6667
vn 0 -1 0
v 35.0752 -79.1826 30.0393
vn 0 -1 0
v 35.0752 -79.1826 28.3236
vn 0 -1 0
v 34.7082 -79.1826 28.3236
vn 0 -1 0
v 35.0752 -79.1826 27.6373
vn 0 -1 0
v 33.6213 -79.1826 28.3104
vn 0 -1 0
v 34.3963 -79.1826 28.2774
vn 0 -1 0
v 34.2212 -79.1826 27.9322
vn 0 -1 0
v 34.4723 -79.1826 27.6432
vn 0 -1 0
v 33.8415 -79.1826 28.1186
vn 0 -1 0
v 34.7082 -79.1826 27.6373
vn 0 -1 0
v 33.8442 -79.1826 27.6387
vn 0 -1 0
v 34.2036 -79.1826 27.7338
vn 0 -1 0
v 32.1391 -79.1826 30.0393
vn 0 -1 0
v 32.1391 -79.1826 31.4118
vn 0 -1 0
v 35.0752 -79.1826 31.4118
vn 0 -1 0
v 30.6711 -79.1826 17.6864
vn 0 -1 0
v 32.1391 -79.1826 19.059
vn 0 -1 0
v 32.8732 -79.1826 18.3727
vn 0 -1 0
v 32.8732 -79.1826 19.059
vn 0 -1 0
v 32.1391 -79.1826 21.804
vn 0 -1 0
v 30.6711 -79.1826 21.804
vn 0 -1 0
v 32.1391 -79.1826 20.4315
vn 0 -1 0
v 33.2402 -79.1826 20.4315
vn 0 -1 0
v 32.8732 -79.1826 21.1178
vn 0 -1 0
v 32.8732 -79.1826 20.4315
vn 0 -1 0
v 33.2402 -79.1826 19.4021
vn 0 -1 0
v 32.1391 -79.1826 23.1766
vn 0 -1 0
v 32.1391 -79.1826 25.9217
vn 0 -1 0
v 30.6711 -79.1826 25.9217
vn 0 -1 0
v 32.1391 -79.1826 27.2942
vn 0 -1 0
v 33.2402 -79.1826 27.2942
vn 0 -1 0
v 32.8732 -79.1826 26.6079
vn 0 -1 0
v 32.8732 -79.1826 27.2942
vn 0 -1 0
v 30.6711 -79.1826 30.0393
vn 0 -1 0
v 32.1391 -79.1826 28.6667
vn 0 -1 0
v 32.8732 -79.1826 28.6667
vn 0 -1 0
v 32.8732 -79.1826 29.353
vn 0 -1 0
v 33.2402 -79.1826 28.3236
vn 0 -1 0
v 27.735 -79.1826 16.3139
vn 0 -1 0
v 30.6711 -79.1826 16.3139
vn 0 -1 0
v 30.6711 -79.1826 32.7844
vn 0 -1 0
v 27.735 -79.1826 32.7844
vn 0 -1 0
v 57.096 -79.1826 20.157
vn 0 -1 0
v 57.096 -79.1826 13.5688
vn 0 -1 0
v 51.2238 -79.1826 16.3139
vn 0 -1 0
v 50.7344 -79.1826 13.5688
vn 0 -1 0
v 54.1599 -79.1826 16.3139
vn 0 -1 0
v 54.1599 -79.1826 19.059
vn 0 -1 0
v 44.3729 -79.1826 13.5688
vn 0 -1 0
v 48.6139 -79.1826 13.5688
vn 0 -1 0
v 42.2524 -79.1826 13.5688
vn 0 -1 0
v 39.4794 -79.1826 16.3139
vn 0 -1 0
v 38.0113 -79.1826 13.5688
vn 0 -1 0
v 57.096 -79.1826 31.1373
vn 0 -1 0
v 54.1599 -79.1826 27.2942
vn 0 -1 0
v 57.096 -79.1826 26.7452
vn 0 -1 0
v 54.1599 -79.1826 30.0393
vn 0 -1 0
v 57.096 -79.1826 35.5294
vn 0 -1 0
v 52.8549 -79.1826 35.5294
vn 0 -1 0
v 57.096 -79.1826 33.3334
vn 0 -1 0
v 54.1599 -79.1826 32.7844
vn 0 -1 0
v 44.3729 -79.1826 35.5294
vn 0 -1 0
v 46.4934 -79.1826 35.5294
vn 0 -1 0
v 43.8835 -79.1826 32.7844
vn 0 -1 0
v 42.4155 -79.1826 32.7844
vn 0 -1 0
v 42.2524 -79.1826 35.5294
vn 0 -1 0
v 35.8908 -79.1826 35.5294
vn 0 -1 0
v 35.0752 -79.1826 32.7844
vn 0 -1 0
v 35.8908 -79.1826 13.5688
vn 0 -1 0
v 36.5433 -79.1826 16.3139
vn 0 -1 0
v 31.6498 -79.1826 13.5688
vn 0 -1 0
v 29.5293 -79.1826 13.5688
vn 0 -1 0
v 21.8628 -79.1826 16.3139
vn 0 -1 0
v 18.9267 -79.1826 13.5688
vn 0 -1 0
v 18.9267 -79.1826 15.7649
vn 0 -1 0
v 24.7989 -79.1826 16.3139
vn 0 -1 0
v 25.2882 -79.1826 13.5688
vn 0 -1 0
v 18.9267 -79.1826 22.3531
vn 0 -1 0
v 18.9267 -79.1826 17.9609
vn 0 -1 0
v 21.8628 -79.1826 19.059
vn 0 -1 0
v 21.8628 -79.1826 21.804
vn 0 -1 0
v 33.9493 -79.1826 28.0166
vn 0 -1 0
v 18.9267 -79.1826 26.7452
vn 0 -1 0
v 21.8628 -79.1826 27.2942
vn 0 -1 0
v 29.5293 -79.1826 35.5294
vn 0 -1 0
v 31.6498 -79.1826 35.5294
vn 0 -1 0
v 32.1391 -79.1826 32.7844
vn 0 -1 0
v 21.8628 -79.1826 30.0393
vn 0 -1 0
v 18.9267 -79.1826 31.1373
vn 0 -1 0
v 18.9267 -79.1826 35.5294
vn 0 -1 0
v 18.9267 -79.1826 33.3334
vn 0 -1 0
v 23.1677 -79.1826 35.5294
vn 0 -1 0
v 21.8628 -79.1826 32.7844
vn 0 -1 0
f 477//477 479//479 478//478
f 479//479 477//477 481//481
f 485//485 484//484 482//482
f 488//488 487//487 489//489
f 484//484 485//485 486//486
f 491//491 493//493 492//492
f 492//492 493//493 494//494
f 489//489 490//490 488//488
f 497//497 496//496 498//498
f 502//502 501//501 500//500
f 495//495 496//496 497//497
f 499//499 500//500 501//501
f 503//503 504//504 505//505
f 505//505 504//504 506//506
f 511//511 512//512 510//510
f 511//511 510//510 509//509
f 519//519 518//518 520//520
f 523//523 522//522 524//524
f 521//521 522//522 523//523
f 525//525 526//526 527//527
f 525//525 527//527 528//528
f 517//517 518//518 519//519
f 529//529 530//530 531//531
f 531//531 532//532 529//529
f 540//540 539//539 538//538
f 539//539 540//540 541//541
f 543//543 542//542 544//544
f 550//550 551//551 552//552
f 552//552 549//549 550//550
f 567//567 565//565 566//566
f 584//584 578//578 579//579
f 587//587 588//588 589//589
f 593//593 594//594 595//595
f 592//592 593//593 595//595
f 596//596 597//597 598//598
f 599//599 597//597 596//596
f 602//602 600//600 601//601
f 601//601 600//600 603//603
f 620//620 619//619 618//618
f 622//622 623//623 624//624
f 619//619 621//621 618//618
f 622//622 625//625 623//623
f 658//658 659//659 660//660
f 665//665 666//666 667//667
f 672//672 673//673 674//674
f 672//672 674//674 677//677
f 696//696 686//686 687//687
f 711//711 709//709 710//710
f 715//715 716//716 714//714
f 660//660 717//717 658//658
f 750//750 714//714 716//716
f 757//757 755//755 756//756
f 774//774 773//773 772//772
f 773//773 774//774 778//778
f 783//783 784//784 785//785
f 787//787 788//788 789//789
f 786//786 783//783 785//785
f 790//790 791//791 792//792
f 790//790 792//792 793//793
f 798//798 795//795 799//799
f 794//794 795//795 798//798
f 800//800 797//797 801//801
f 797//797 800//800 796//796
f 804//804 803//803 805//805
f 804//804 802//802 803//803
f 806//806 807//807 808//808
f 809//809 810//810 811//811
f 812//812 813//813 814//814
f 815//815 816//816 817//817
f 819//819 820//820 821//821
f 818//818 815//815 817//817
f 822//822 823//823 824//824
f 827//827 826//826 828//828
f 829//829 830//830 831//831
f 825//825 826//826 827//827
f 831//831 832//832 829//829
f 833//833 834//834 835//835
f 836//836 833//833 835//835
f 837//837 838//838 839//839
f 840//840 841//841 842//842
f 843//843 844//844 845//845
f 849//849 847//847 846//846
f 846//846 848//848 849//849
f 847//847 852//852 846//846
f 852//852 853//853 846//846
f 856//856 854//854 855//855
f 851//851 857//857 858//858
f 861//861 860//860 859//859
f 850//850 857//857 851//851
f 864//864 863//863 862//862
f 864//864 865//865 863//863
f 866//866 867//867 868//868
f 869//869 870//870 871//871
f 871//871 870//870 872//872
f 873//873 874//874 875//875
f 856//856 855//855 876//876
f 879//879 878//878 877//877
f 879//879 877//877 880//880
f 881//881 880//880 877//877
f 874//874 873//873 882//882
f 885//885 884//884 883//883
f 880//880 886//886 887//887
f 880//880 881//881 886//886
f 888//888 889//889 890//890
f 889//889 888//888 891//891
f 892//892 889//889 893//893
f 889//889 892//892 890//890
f 889//889 894//894 893//893
f 895//895 894//894 889//889
f 894//894 895//895 896//896
f 895//895 897//897 896//896
f 900//900 898//898 901//901
f 899//899 898//898 900//900
f 890//890 902//902 888//888
f 904//904 902//902 905//905
f 903//903 902//902 904//904
f 906//906 907//907 908//908
f 907//907 909//909 910//910
f 909//909 906//906 911//911
f 906//906 909//909 907//907
f 892//892 893//893 912//912
f 906//906 908//908 913//913
f 906//906 913//913 914//914
f 898//898 892//892 911//911
f 892//892 898//898 890//890
f 906//906 914//914 915//915
f 918//918 916//916 912//912
f 917//917 916//916 918//918
f 919//919 920//920 921//921
f 920//920 922//922 923//923
f 922//922 919//919 924//924
f 919//919 922//922 920//920
f 925//925 894//894 926//926
f 928//928 925//925 929//929
f 927//927 925//925 928//928
f 932//932 930//930 933//933
f 931//931 930//930 932//932
f 934//934 896//896 935//935
f 896//896 934//934 894//894
f 894//894 934//934 926//926
f 937//937 936//936 938//938
f 923//923 934//934 933//933
f 934//934 923//923 926//926
f 920//920 938//938 921//921
f 940//940 939//939 935//935
f 941//941 900//900 942//942
f 900//900 943//943 905//905
f 943//943 941//941 944//944
f 941//941 943//943 900//900
f 942//942 900//900 945//945
f 945//945 900//900 901//901
f 904//904 905//905 946//946
f 947//947 948//948 949//949
f 950//950 951//951 947//947
f 951//951 950//950 917//917
f 952//952 917//917 950//950
f 916//916 952//952 910//910
f 917//917 952//952 916//916
f 952//952 953//953 954//954
f 950//950 953//953 952//952
f 907//907 955//955 908//908
f 955//955 907//907 954//954
f 955//955 954//954 956//956
f 957//957 958//958 959//959
f 958//958 957//957 953//953
f 949//949 960//960 959//959
f 961//961 960//960 949//949
f 964//964 956//956 962//962
f 956//956 964//964 955//955
f 908//908 964//964 913//913
f 965//965 913//913 964//964
f 913//913 963//963 966//966
f 966//966 901//901 914//914
f 901//901 966//966 945//945
f 960//960 966//966 963//963
f 960//960 967//967 966//966
f 948//948 961//961 949//949
f 941//941 961//961 948//948
f 961//961 941//941 942//942
f 917//917 968//968 951//951
f 969//969 970//970 971//971
f 972//972 969//969 973//973
f 969//969 972//972 970//970
f 974//974 975//975 976//976
f 975//975 970//970 977//977
f 970//970 974//974 971//971
f 974//974 970//970 975//975
f 975//975 921//921 976//976
f 919//919 921//921 975//975
f 978//978 924//924 977//977
f 929//929 924//924 978//978
f 978//978 928//928 929//929
f 928//928 978//978 972//972
f 931//931 979//979 980//980
f 979//979 981//981 982//982
f 981//981 931//931 939//939
f 931//931 981//981 979//979
f 936//936 931//931 983//983
f 931//931 936//936 930//930
f 984//984 931//931 980//980
f 931//931 984//984 983//983
f 983//983 984//984 985//985
f 936//936 988//988 938//938
f 936//936 986//986 988//988
f 983//983 986//986 936//936
f 938//938 988//988 990//990
f 938//938 990//990 921//921
f 989//989 991//991 990//990
f 991//991 989//989 976//976
f 993//993 992//992 985//985
f 986//986 992//992 989//989
f 992//992 976//976 989//989
f 992//992 974//974 976//976
f 987//987 969//969 985//985
f 979//979 987//987 980//980
f 969//969 987//987 979//979
f 993//993 969//969 971//971
f 969//969 993//993 985//985
f 994//994 939//939 940//940
f 943//943 995//995 996//996
f 995//995 943//943 944//944
f 968//968 995//995 944//944
f 997//997 995//995 917//917
f 917//917 995//995 968//968
f 998//998 972//972 973//973
f 999//999 998//998 973//973
f 998//998 999//999 1000//1000
f 1001//1001 1002//1002 1003//1003
f 1003//1003 1002//1002 981//981
f 1004//1004 1005//1005 1006//1006
f 1006//1006 1005//1005 1007//1007
f 1005//1005 1008//1008 1007//1007
f 1008//1008 943//943 996//996
f 943//943 1005//1005 1009//1009
f 1005//1005 943//943 1008//1008
f 1010//1010 1011//1011 1009//1009
f 1011//1011 1010//1010 1012//1012
f 1013//1013 1014//1014 1015//1015
f 997//997 1013//1013 1016//1016
f 1014//1014 1013//1013 997//997
f 1017//1017 1016//1016 1018//1018
f 997//997 1016//1016 1017//1017
f 1019//1019 1020//1020 1021//1021
f 1020//1020 1019//1019 1022//1022
f 1016//1016 1023//1023 1021//1021
f 1013//1013 1023//1023 1016//1016
f 1023//1023 1024//1024 1019//1019
f 1024//1024 1025//1025 1026//1026
f 1023//1023 1025//1025 1024//1024
f 1027//1027 1028//1028 1018//1018
f 1028//1028 1027//1027 1029//1029
f 1008//1008 1029//1029 1007//1007
f 1028//1028 1029//1029 1008//1008
f 1031//1031 1030//1030 1026//1026
f 1032//1032 1024//1024 1030//1030
f 1024//1024 1032//1032 1019//1019
f 1035//1035 1030//1030 1031//1031
f 1036//1036 1035//1035 1031//1031
f 1034//1034 1032//1032 1033//1033
f 1029//1029 1022//1022 1034//1034
f 1027//1027 1022//1022 1029//1029
f 1037//1037 1034//1034 1033//1033
f 1038//1038 1037//1037 1039//1039
f 1037//1037 1038//1038 1034//1034
f 1035//1035 1037//1037 1033//1033
f 1006//1006 1039//1039 1004//1004
f 1036//1036 1004//1004 1039//1039
f 995//995 997//997 1017//1017
f 1041//1041 1040//1040 1042//1042
f 1040//1040 1041//1041 1043//1043
f 1041//1041 1044//1044 1043//1043
f 1044//1044 1045//1045 1046//1046
f 1045//1045 1041//1041 1047//1047
f 1041//1041 1045//1045 1044//1044
f 1048//1048 1049//1049 1047//1047
f 1049//1049 1048//1048 1050//1050
f 1045//1045 1051//1051 1046//1046
f 1051//1051 972//972 998//998
f 972//972 1045//1045 1052//1052
f 1045//1045 972//972 1051//1051
f 1049//1049 1053//1053 1052//1052
f 1054//1054 1049//1049 1050//1050
f 1053//1053 1049//1049 1054//1054
f 1057//1057 1055//1055 1058//1058
f 1056//1056 1055//1055 1057//1057
f 1060//1060 1057//1057 1058//1058
f 1057//1057 1002//1002 1061//1061
f 1002//1002 1060//1060 1000//1000
f 1060//1060 1002//1002 1057//1057
f 1062//1062 1060//1060 1058//1058
f 1051//1051 1062//1062 1063//1063
f 1060//1060 1062//1062 1051//1051
f 1064//1064 1051//1051 1063//1063
f 1051//1051 1064//1064 1046//1046
f 1059//1059 1065//1065 1056//1056
f 1056//1056 1067//1067 1066//1066
f 1066//1066 1067//1067 1068//1068
f 1065//1065 1069//1069 1056//1056
f 1040//1040 1069//1069 1065//1065
f 1055//1055 1066//1066 1063//1063
f 1056//1056 1066//1066 1055//1055
f 1063//1063 1070//1070 1064//1064
f 1068//1068 1044//1044 1070//1070
f 1043//1043 1044//1044 1068//1068
f 1071//1071 1069//1069 1040//1040
f 1043//1043 1068//1068 1071//1071
f 1075//1075 1073//1073 1061//1061
f 1074//1074 1073//1073 1075//1075
f 1076//1076 1010//1010 1077//1077
f 1078//1078 1004//1004 1079//1079
f 1005//1005 1004//1004 1078//1078
f 1080//1080 1081//1081 1082//1082
f 1025//1025 1083//1083 1026//1026
f 1083//1083 1084//1084 1085//1085
f 1084//1084 1025//1025 1015//1015
f 1025//1025 1084//1084 1083//1083
f 1077//1077 1085//1085 1082//1082
f 1026//1026 1083//1083 1031//1031
f 1086//1086 1036//1036 1031//1031
f 1085//1085 1077//1077 1079//1079
f 1081//1081 1077//1077 1082//1082
f 1014//1014 1087//1087 1080//1080
f 1087//1087 1014//1014 997//997
f 1089//1089 1088//1088 1090//1090
f 1091//1091 1042//1042 1040//1040
f 1042//1042 1092//1092 1048//1048
f 1092//1092 1091//1091 1093//1093
f 1091//1091 1092//1092 1042//1042
f 1054//1054 1050//1050 1088//1088
f 1073//1073 1094//1094 1095//1095
f 1056//1056 1096//1096 1059//1059
f 1097//1097 1096//1096 1056//1056
f 1090//1090 1096//1096 1095//1095
f 1065//1065 1098//1098 1040//1040
f 1091//1091 1040//1040 1098//1098
f 1090//1090 1093//1093 1096//1096
f 1094//1094 1090//1090 1095//1095
f 1089//1089 1090//1090 1094//1094
f 1076//1076 1099//1099 1100//1100
f 1099//1099 1076//1076 1077//1077
f 1081//1081 1099//1099 1077//1077
f 1089//1089 1099//1099 1081//1081
f 1094//1094 1099//1099 1089//1089
f 1101//1101 1099//1099 1094//1094
f 1099//1099 1101//1101 1102//1102
f 1105//1105 1106//1106 1104//1104
f 1107//1107 1104//1104 1103//1103
f 1108//1108 1107//1107 1103//1103
f 1105//1105 1104//1104 1107//1107
f 889//889 1109//1109 1110//1110
f 889//889 891//891 1109//1109
f 891//891 903//903 1109//1109
f 904//904 946//946 1111//1111
f 946//946 1112//1112 1113//1113
f 1113//1113 1111//1111 946//946
f 963//963 965//965 962//962
f 1114//1114 1115//1115 1116//1116
f 1114//1114 1117//1117 1115//1115
f 1118//1118 1119//1119 1120//1120
f 1119//1119 1121//1121 1120//1120
f 1122//1122 897//897 1123//1123
f 1124//1124 897//897 1122//1122
f 986//986 989//989 988//988
f 1127//1127 1128//1128 1125//1125
f 1126//1126 1127//1127 1125//1125
f 1011//1011 1129//1129 1130//1130
f 1131//1131 1012//1012 1100//1100
f 1132//1132 1131//1131 1100//1100
f 1136//1136 1134//1134 1137//1137
f 1133//1133 1134//1134 1136//1136
f 1138//1138 1139//1139 1140//1140
f 1134//1134 1133//1133 1135//1135
f 1140//1140 1141//1141 1138//1138
f 1067//1067 1056//1056 1069//1069
f 1145//1145 1101//1101 1146//1146
f 1147//1147 1146//1146 1101//1101
f 1143//1143 1148//1148 1149//1149
f 1150//1150 1151//1151 1152//1152
f 1151//1151 1153//1153 1152//1152
f 1148//1148 1143//1143 1144//1144
