# Created by Open3D 
# object name: InfoWheels Upholstered Bench PS 38inL x 37.875inH x 21.25inD
# number of vertices: 1344
# number of triangles: 808
v -2.00877 58.2038 -19.1838
vn 1 0 0
v -2.00877 76.3913 -24.0588
vn 1 0 0
v -2.00877 76.3913 -18.3713
vn 1 0 0
v -2.00877 80.9382 -19.1838
vn 1 0 0
v -2.00877 85.485 -18.3713
vn 1 0 0
v -2.00877 79.8889 -18.3713
vn 1 0 0
v -2.00877 80.9382 -23.2463
vn 1 0 0
v -2.00877 85.485 -22.7047
vn 1 0 0
v -2.00877 76.3913 -19.1838
vn 1 0 0
v -2.00877 77.0908 -18.3713
vn 1 0 0
v -2.00877 80.9382 -24.0588
vn 1 0 0
v -2.00877 79.8889 -24.8713
vn 1 0 0
v -2.00877 85.485 -24.8713
vn 1 0 0
v -2.00877 77.0908 -24.8713
vn 1 0 0
v -2.00877 57.5043 -18.3713
vn 1 0 0
v -2.00877 49.11 -18.3713
vn 1 0 0
v -2.00877 53.6569 -19.1838
vn 1 0 0
v -2.00877 54.7062 -18.3713
vn 1 0 0
v -2.00877 49.11 -20.538
vn 1 0 0
v -2.00877 53.6569 -20.8088
vn 1 0 0
v -2.00877 53.6569 -19.9963
vn 1 0 0
v -2.00877 58.2038 -24.0588
vn 1 0 0
v -2.00877 57.5043 -24.8713
vn 1 0 0
v -2.00877 53.6569 -24.0588
vn 1 0 0
v -2.00877 53.6569 -21.6213
vn 1 0 0
v -2.00877 49.11 -22.7047
vn 1 0 0
v -2.00877 49.11 -24.8713
vn 1 0 0
v -2.00877 54.7062 -24.8713
vn 1 0 0
v -2.75877 76.3913 -24.0588
vn -1 0 0
v -2.75877 58.2038 -19.1838
vn -1 0 0
v -2.75877 58.2038 -24.0588
vn -1 0 0
v -2.75877 76.3913 -19.1838
vn -1 0 0
v -2.75877 53.6569 -19.1838
vn -1 0 0
v -2.75877 49.11 -18.3713
vn -1 0 0
v -2.75877 54.7062 -18.3713
vn -1 0 0
v -2.75877 49.11 -22.7047
vn -1 0 0
v -2.75877 53.6569 -23.2463
vn -1 0 0
v -2.75877 57.5043 -18.3713
vn -1 0 0
v -2.75877 53.6569 -24.0588
vn -1 0 0
v -2.75877 49.11 -24.8713
vn -1 0 0
v -2.75877 54.7062 -24.8713
vn -1 0 0
v -2.75877 77.0908 -24.8713
vn -1 0 0
v -2.75877 57.5043 -24.8713
vn -1 0 0
v -2.75877 77.0908 -18.3713
vn -1 0 0
v -2.75877 85.485 -18.3713
vn -1 0 0
v -2.75877 80.9382 -19.1838
vn -1 0 0
v -2.75877 79.8889 -18.3713
vn -1 0 0
v -2.75877 85.485 -20.538
vn -1 0 0
v -2.75877 80.9382 -19.9963
vn -1 0 0
v -2.75877 80.9382 -21.6213
vn -1 0 0
v -2.75877 80.9382 -22.4338
vn -1 0 0
v -2.75877 85.485 -22.7047
vn -1 0 0
v -2.75877 80.9382 -24.0588
vn -1 0 0
v -2.75877 79.8889 -24.8713
vn -1 0 0
v -2.75877 85.485 -24.8713
vn -1 0 0
v 3.31266 49.11 -23.6213
vn 0 0 1
v -2.00877 85.485 -23.6213
vn 0 0 1
v -2.00877 49.11 -23.6213
vn 0 0 1
v 2.64748 58.2038 -23.6213
vn 0 0 1
v 7.30373 58.2038 -23.6213
vn 0 0 1
v 5.97337 49.11 -23.6213
vn 0 0 1
v 8.63409 49.11 -23.6213
vn 0 0 1
v 2.64748 76.3913 -23.6213
vn 0 0 1
v 3.31266 85.485 -23.6213
vn 0 0 1
v 11.96 58.2038 -23.6213
vn 0 0 1
v 11.2948 49.11 -23.6213
vn 0 0 1
v 16.6162 60.3023 -23.6213
vn 0 0 1
v 16.6162 49.11 -23.6213
vn 0 0 1
v 11.96 67.2975 -23.6213
vn 0 0 1
v 16.6162 63.1004 -23.6213
vn 0 0 1
v 16.6162 71.4947 -23.6213
vn 0 0 1
v 16.6162 74.2927 -23.6213
vn 0 0 1
v 11.2948 85.485 -23.6213
vn 0 0 1
v 11.96 76.3913 -23.6213
vn 0 0 1
v 5.97337 85.485 -23.6213
vn 0 0 1
v 7.30373 76.3913 -23.6213
vn 0 0 1
v 8.63409 85.485 -23.6213
vn 0 0 1
v 16.6162 85.485 -23.6213
vn 0 0 1
v 16.6162 53.1517 -24.3713
vn 1 0 0
v 16.6162 57.5043 -23.6213
vn 1 0 0
v 16.6162 51.9081 -23.6213
vn 1 0 0
v 16.6162 61.235 -24.3713
vn 1 0 0
v 16.6162 60.3023 -23.6213
vn 1 0 0
v 16.6162 57.1934 -24.3713
vn 1 0 0
v 16.6162 69.3184 -24.3713
vn 1 0 0
v 16.6162 74.2927 -23.6213
vn 1 0 0
v 16.6162 68.6966 -23.6213
vn 1 0 0
v 16.6162 77.4017 -24.3713
vn 1 0 0
v 16.6162 77.0908 -23.6213
vn 1 0 0
v 16.6162 73.36 -24.3713
vn 1 0 0
v 16.6162 65.8985 -23.6213
vn 1 0 0
v 16.6162 65.2767 -24.3713
vn 1 0 0
v 16.6162 81.4434 -24.3713
vn 1 0 0
v 16.6162 82.687 -23.6213
vn 1 0 0
v 16.2412 58.2038 -24.3713
vn 0 0 -1
v 16.2412 49.11 -24.3713
vn 0 0 -1
v 11.0269 49.11 -24.3713
vn 0 0 -1
v 11.6787 58.2038 -24.3713
vn 0 0 -1
v 8.4198 49.11 -24.3713
vn 0 0 -1
v 5.81266 49.11 -24.3713
vn 0 0 -1
v 7.11623 58.2038 -24.3713
vn 0 0 -1
v 13.6341 85.485 -24.3713
vn 0 0 -1
v 11.6787 76.3913 -24.3713
vn 0 0 -1
v 11.0269 85.485 -24.3713
vn 0 0 -1
v 7.11623 76.3913 -24.3713
vn 0 0 -1
v 8.4198 85.485 -24.3713
vn 0 0 -1
v 2.55373 76.3913 -24.3713
vn 0 0 -1
v -2.00877 49.11 -24.3713
vn 0 0 -1
v -2.00877 49.11 -24.3713
vn 0 0 -1
v 2.55373 58.2038 -24.3713
vn 0 0 -1
v 3.20552 49.11 -24.3713
vn 0 0 -1
v 2.55373 67.2975 -24.3713
vn 0 0 -1
v -2.00877 71.4947 -24.3713
vn 0 0 -1
v -2.00877 74.2927 -24.3713
vn 0 0 -1
v -2.00877 85.485 -24.3713
vn 0 0 -1
v 12.1162 85.485 -36.3713
vn 0 0 -1
v 12.1162 79.8889 -36.3713
vn 0 0 -1
v 10.8037 76.3913 -36.3713
vn 0 0 -1
v 12.1162 77.0908 -36.3713
vn 0 0 -1
v 12.1162 58.2038 -36.3713
vn 0 0 -1
v 10.8037 80.9382 -36.3713
vn 0 0 -1
v 8.17873 80.9382 -36.3713
vn 0 0 -1
v 6.86623 85.485 -36.3713
vn 0 0 -1
v 8.17873 76.3913 -36.3713
vn 0 0 -1
v 10.8037 58.2038 -36.3713
vn 0 0 -1
v 12.1162 57.5043 -36.3713
vn 0 0 -1
v 10.8037 53.6569 -36.3713
vn 0 0 -1
v 12.1162 49.11 -36.3713
vn 0 0 -1
v 12.1162 54.7062 -36.3713
vn 0 0 -1
v 6.86623 79.8889 -36.3713
vn 0 0 -1
v 6.86623 77.0908 -36.3713
vn 0 0 -1
v 8.17873 58.2038 -36.3713
vn 0 0 -1
v 6.86623 49.11 -36.3713
vn 0 0 -1
v 8.17873 53.6569 -36.3713
vn 0 0 -1
v 6.86623 57.5043 -36.3713
vn 0 0 -1
v 6.86623 54.7062 -36.3713
vn 0 0 -1
v 12.1162 85.485 -35.6213
vn 0 0 1
v 12.1162 79.8889 -35.6213
vn 0 0 1
v 10.8037 76.3913 -35.6213
vn 0 0 1
v 12.1162 77.0908 -35.6213
vn 0 0 1
v 10.8037 80.9382 -35.6213
vn 0 0 1
v 6.86623 85.485 -35.6213
vn 0 0 1
v 10.8037 58.2038 -35.6213
vn 0 0 1
v 12.1162 57.5043 -35.6213
vn 0 0 1
v 10.8037 53.6569 -35.6213
vn 0 0 1
v 6.86623 49.11 -35.6213
vn 0 0 1
v 12.1162 54.7062 -35.6213
vn 0 0 1
v 12.1162 49.11 -35.6213
vn 0 0 1
v 6.86623 58.2038 -35.6213
vn 0 0 1
v 6.86623 79.8889 -35.6213
vn 0 0 1
v 8.17873 80.9382 -35.6213
vn 0 0 1
v 8.17873 76.3913 -35.6213
vn 0 0 1
v 6.86623 77.0908 -35.6213
vn 0 0 1
v 8.17873 58.2038 -35.6213
vn 0 0 1
v 8.17873 53.6569 -35.6213
vn 0 0 1
v 6.86623 57.5043 -35.6213
vn 0 0 1
v 6.86623 54.7062 -35.6213
vn 0 0 1
v 18.5647 83.3453 -19.6377
vn 0.969251 -0.000654454 0.246074
v 18.1824 81.2056 -18.839
vn 0.820633 -0.00346618 0.571446
v 18.5248 81.2056 -19.7032
vn 0.977004 -0.00352365 0.21319
v 18.5553 51.2497 -19.6022
vn 0.956796 0.000650069 0.290759
v 18.5248 53.3894 -19.7032
vn 0.977004 0.00352365 0.21319
v 18.1824 53.3894 -18.839
vn 0.820633 0.00346619 0.571446
v 18.0433 83.3453 -18.7499
vn 0.732849 -0.00128937 0.68039
v 18.0433 51.2497 -18.7499
vn 0.732849 0.00128937 0.68039
v 17.7304 83.3453 -18.523
vn 0.353941 -0.000663451 0.935267
v 17.7129 81.2056 -18.5082
vn 0.306715 -0.00349025 0.951795
v 17.7304 51.2497 -18.523
vn 0.353941 0.000663452 0.935267
v 17.7129 53.3894 -18.5082
vn 0.306715 0.00349025 0.951795
v 18.4657 83.3455 -20.4177
vn 0.981244 0.00522753 -0.192699
v 18.429 85.485 -20.4234
vn 0.98492 0.013938 -0.17245
v 18.5361 85.5187 -19.8578
vn 0.995386 0.087139 -0.0401671
v 18.5532 84.4152 -19.6275
vn 0.975751 0.00131561 0.218881
v 18.4133 85.5049 -19.2476
vn 0.923776 0.0298084 0.381772
v 18.0433 84.4152 -18.7499
vn 0.732847 0.00257873 0.680389
v 18.0296 85.5506 -18.746
vn 0.699287 0.0379048 0.713835
v 18.5208 53.3894 -20.072
vn 0.972419 0.0034229 -0.233215
v 18.5141 51.2498 -20.1332
vn 0.973908 0.00114754 -0.226941
v 18.429 53.3894 -20.4234
vn 0.956395 0.00172473 -0.29207
v 18.485 50.1799 -20.2525
vn 0.962182 -0.00344872 -0.272385
v 18.46 49.11 -20.3045
vn 0.966183 -0.00601552 -0.257786
v 18.1824 49.11 -18.839
vn 0.820618 -0.00693226 0.571435
v 18.5248 49.11 -19.7032
vn 0.976986 -0.00704719 0.213186
v 18.5553 50.1799 -19.6022
vn 0.956796 -0.00130013 0.290758
v 18.0433 50.1799 -18.7499
vn 0.732847 -0.00257872 0.680389
v 18.5208 50.1799 -20.072
vn 0.980939 0 -0.194317
v 17.6505 84.423 -18.5069
vn 0.410366 0 0.911921
v 17.7511 85.592 -18.5194
vn 0.426668 0.104468 0.898355
v 17.3888 84.4152 -18.4139
vn 0.177378 0 0.984143
v 17.2381 85.4857 -18.3717
vn 0.108066 0.016683 0.994004
v 17.2108 84.4152 -18.3818
vn 0.0991762 0.00333461 0.995064
v 17.2108 83.3453 -18.3818
vn 0.112438 -0.00221795 0.993656
v 17.0342 81.2056 -18.3713
vn 0.00121552 -2.04189e-05 0.999999
v 17.6505 50.1721 -18.5069
vn 0.410366 0 0.911921
v 17.733 49.11 -18.544
vn 0.410366 0 0.911921
v 17.2108 51.2497 -18.3818
vn 0.112438 0.00221795 0.993656
v 17.3009 50.1799 -18.3933
vn 0.138385 -0.0016686 0.990377
v 17.3888 49.11 -18.4139
vn 0.138702 -0.00661975 0.990312
v 17.0342 49.11 -18.3713
vn 0.00298044 -3.07599e-05 0.999996
v 17.0342 53.3894 -18.3713
vn 0.00485837 0.000163353 0.999988
v 12.1172 85.485 -18.3713
vn 0 0 1
v -2.63377 49.11 -18.3713
vn -0.00165349 -0.0533071 0.998577
v 14.5757 80.9382 -18.3713
vn 0 0 1
v 14.5757 53.6569 -18.3713
vn 0 0 1
v -2.63377 85.485 -18.3713
vn 0 0 1
v 12.1172 80.9382 -18.3713
vn 0 0 1
v 12.1172 53.6569 -18.3713
vn 0 0 1
v 10.5489 51.3835 -36.4963
vn 0 0 -1
v 6.86623 49.11 -36.4963
vn 0 0 -1
v 10.5489 83.2116 -36.4963
vn 0 0 -1
v 6.86623 85.4851 -36.4964
vn -0.00180319 0.0533041 -0.998577
v 11.8912 85.4824 -36.4958
vn 0.088946 0.00260163 -0.996033
v 11.1626 83.2116 -36.4963
vn 0 0 -1
v 11.7924 83.7106 -36.4949
vn 0.0958719 -0.00238088 -0.995391
v 11.7764 82.8234 -36.4963
vn 0 0 -1
v 11.7764 81.9363 -36.4963
vn 0 0 -1
v 11.7764 80.1619 -36.4963
vn 0 0 -1
v 11.1626 80.9382 -36.4963
vn 0 0 -1
v 11.8912 49.1127 -36.4958
vn 0.088946 -0.00260163 -0.996033
v 11.1626 51.3835 -36.4963
vn 0 0 -1
v 11.1626 78.6647 -36.4963
vn 0 0 -1
v 11.7764 79.2747 -36.4963
vn 0 0 -1
v 11.7764 78.3875 -36.4963
vn 0 0 -1
v 11.1626 76.3913 -36.4963
vn 0 0 -1
v 11.7764 77.5003 -36.4963
vn 0 0 -1
v 11.1626 74.1178 -36.4963
vn 0 0 -1
v 11.7764 73.0643 -36.4963
vn 0 0 -1
v 11.7764 74.8387 -36.4963
vn 0 0 -1
v 11.7764 75.7259 -36.4963
vn 0 0 -1
v 11.1626 71.8444 -36.4963
vn 0 0 -1
v 11.7764 72.1771 -36.4963
vn 0 0 -1
v 11.7764 71.2899 -36.4963
vn 0 0 -1
v 11.1626 69.571 -36.4963
vn 0 0 -1
v 11.7764 70.4027 -36.4963
vn 0 0 -1
v 11.7764 68.6283 -36.4963
vn 0 0 -1
v 11.1626 65.0241 -36.4963
vn 0 0 -1
v 11.7764 65.9667 -36.4963
vn 0 0 -1
v 11.7764 64.1924 -36.4963
vn 0 0 -1
v 11.1626 67.2975 -36.4963
vn 0 0 -1
v 11.7764 67.7411 -36.4963
vn 0 0 -1
v 11.7764 66.8539 -36.4963
vn 0 0 -1
v 11.1626 62.7507 -36.4963
vn 0 0 -1
v 11.7764 63.3052 -36.4963
vn 0 0 -1
v 11.7764 62.418 -36.4963
vn 0 0 -1
v 11.1626 60.4772 -36.4963
vn 0 0 -1
v 11.7764 61.5308 -36.4963
vn 0 0 -1
v 11.7764 59.7564 -36.4963
vn 0 0 -1
v 11.1626 58.2038 -36.4963
vn 0 0 -1
v 11.7764 58.8692 -36.4963
vn 0 0 -1
v 11.7764 57.0948 -36.4963
vn 0 0 -1
v 11.1626 55.9303 -36.4963
vn 0 0 -1
v 11.7764 56.2076 -36.4963
vn 0 0 -1
v 11.7764 55.3204 -36.4963
vn 0 0 -1
v 11.1626 53.6569 -36.4963
vn 0 0 -1
v 11.7764 54.4332 -36.4963
vn 0 0 -1
v 11.7764 52.6588 -36.4963
vn 0 0 -1
v 11.7924 50.8844 -36.4949
vn 0.095872 0.00238087 -0.995391
v 11.7764 51.7716 -36.4963
vn 0 0 -1
v 16.882 53.6569 -24.3627
vn 0.930803 7.13167e-09 -0.36552
v 15.3351 49.11 -28.3019
vn 0.930803 3.18083e-08 -0.36552
v 13.0148 83.2116 -34.2108
vn 0.930803 -5.66413e-09 -0.36552
v 13.0148 51.3835 -34.2108
vn 0.930803 8.36562e-08 -0.36552
v 12.628 83.2116 -35.1956
vn 0.930804 -5.48247e-08 -0.36552
v 12.2413 49.11 -36.1804
vn 0.930804 5.93933e-09 -0.36552
v 12.2413 85.485 -36.1804
vn 0.930803 -1.41218e-07 -0.36552
v 12.628 51.3835 -35.1956
vn 0.930804 2.74123e-08 -0.36552
v 17.6555 80.9382 -22.393
vn 0.930803 6.35761e-08 -0.36552
v 16.882 80.9382 -24.3627
vn 0.930803 -5.70533e-08 -0.36552
v 18.429 85.485 -20.4234
vn 0.930803 -1.1472e-07 -0.36552
v 18.429 79.0659 -20.4234
vn 0.930803 0 -0.36552
v 18.429 76.9262 -20.4234
vn 0.930803 0 -0.36552
v 18.429 74.7865 -20.4234
vn 0.930803 0 -0.36552
v 17.6555 76.3913 -22.393
vn 0.930803 0 -0.36552
v 18.429 72.6468 -20.4234
vn 0.930803 0 -0.36552
v 18.429 70.5071 -20.4234
vn 0.930803 0 -0.36552
v 17.6555 71.8444 -22.393
vn 0.930803 0 -0.36552
v 17.6555 67.2975 -22.393
vn 0.930803 0 -0.36552
v 18.429 68.3674 -20.4234
vn 0.930803 0 -0.36552
v 17.6555 62.7507 -22.393
vn 0.930803 0 -0.36552
v 18.429 61.9483 -20.4234
vn 0.930803 0 -0.36552
v 18.429 49.11 -20.4234
vn 0.930803 7.17001e-09 -0.36552
v 17.6555 58.2038 -22.393
vn 0.930803 0 -0.36552
v 18.429 59.8086 -20.4234
vn 0.930803 0 -0.36552
v 17.6555 53.6569 -22.393
vn 0.930803 -4.49417e-08 -0.36552
v 12.2999 85.485 -36.0157
vn 0 1 0
v 11.2577 85.485 -35.3635
vn 0 1 0
v 11.2577 85.485 -36.0513
vn 0 1 0
v 10.5962 85.485 -34.2307
vn 0 1 0
v 10.5962 85.485 -35.3635
vn 0 1 0
v 7.95024 85.485 -34.2307
vn 0 1 0
v 9.27324 85.485 -29.6995
vn 0 1 0
v 15.8882 85.485 -20.637
vn 0 1 0
v 15.8882 85.485 -20.637
vn 0 1 0
v 13.2422 85.485 -22.9026
vn 0 1 0
v 13.2422 85.485 -20.637
vn 0 1 0
v 15.8882 85.485 -22.9026
vn 0 1 0
v 17.2112 85.485 -20.637
vn 0 1 0
v 15.8882 85.485 -19.5042
vn 0 1 0
v 17.2112 85.485 -19.5042
vn 0 1 0
v 17.8727 85.485 -18.9378
vn 0 1 0
v 17.3355 85.485 -18.3726
vn 0 1 0
v 18.5025 85.485 -19.347
vn 0 1 0
v 17.8727 85.485 -20.637
vn 0 1 0
v 15.8882 85.485 -18.9378
vn 0 1 0
v 13.2422 85.485 -19.5042
vn 0 1 0
v -2.63377 85.485 -18.3713
vn 0 1 0
v 18.429 85.485 -20.4234
vn 0 1 0
v 17.2112 85.485 -22.9026
vn 0 1 0
v 15.8882 85.485 -25.1682
vn 0 1 0
v 13.2422 85.485 -25.1682
vn 0 1 0
v 7.95024 85.485 -20.637
vn 0 1 0
v 6.86623 85.485 -24.8713
vn 0 1 0
v 7.95024 85.485 -22.9026
vn 0 1 0
v -2.63377 85.485 -18.3713
vn 0 1 0
v -2.63377 85.485 -24.8713
vn 0 1 0
v 6.86623 85.485 -36.4963
vn 0 1 0
v 11.9208 85.485 -36.495
vn 0 1 0
v 7.95024 85.485 -35.3635
vn 0 1 0
v 10.5962 85.485 -35.9299
vn 0 1 0
v 11.2577 49.11 -35.9614
vn 0 -1 0
v 11.9192 49.11 -36.0999
vn 0 -1 0
v 13.2422 49.11 -25.1682
vn 0 -1 0
v 11.2577 49.11 -35.3635
vn 0 -1 0
v 10.5962 49.11 -34.2307
vn 0 -1 0
v 10.5962 49.11 -35.3635
vn 0 -1 0
v 6.86623 49.11 -24.8713
vn 0 -1 0
v 7.95024 49.11 -34.2307
vn 0 -1 0
v 15.8882 49.11 -22.9026
vn 0 -1 0
v 15.8882 49.11 -20.637
vn 0 -1 0
v 13.2422 49.11 -20.637
vn 0 -1 0
v 13.2422 49.11 -22.9026
vn 0 -1 0
v 17.2112 49.11 -19.5042
vn 0 -1 0
v 17.2112 49.11 -19.5042
vn 0 -1 0
v 15.8882 49.11 -19.5042
vn 0 -1 0
v 17.2112 49.11 -20.637
vn 0 -1 0
v 17.8727 49.11 -18.9378
vn 0 -1 0
v 18.4404 49.11 -19.2327
vn 0 -1 0
v 17.3355 49.11 -18.3726
vn 0 -1 0
v 17.8727 49.11 -20.637
vn 0 -1 0
v 15.8882 49.11 -18.9378
vn 0 -1 0
v 13.2422 49.11 -19.5042
vn 0 -1 0
v -2.63377 49.11 -18.3713
vn 0 -1 0
v 18.5051 49.11 -20.2198
vn 0 -1 0
v 17.2112 49.11 -22.9026
vn 0 -1 0
v 12.1195 49.11 -36.4877
vn 0 -1 0
v 15.8882 49.11 -25.1682
vn 0 -1 0
v 7.95024 49.11 -20.637
vn 0 -1 0
v 7.95024 49.11 -22.9026
vn 0 -1 0
v -2.63377 49.11 -24.8713
vn 0 -1 0
v 6.86623 49.11 -36.4963
vn 0 -1 0
v 7.95024 49.11 -35.3635
vn 0 -1 0
v 10.5962 49.11 -35.9299
vn 0 -1 0
v 12.1275 49.9972 -36.3606
vn 0.786541 0.00173927 -0.617536
v 12.1618 50.8844 -36.3091
vn 0.755704 0.00421355 -0.654899
v 12.1275 84.5978 -36.3606
vn 0.786541 -0.00173928 -0.617536
v 12.1618 83.7106 -36.3091
vn 0.755704 -0.00421357 -0.654899
v 11.8988 49.9972 -36.4826
vn 0.17995 0.00138285 -0.983675
v 12.2052 49.3018 -36.2524
vn 0.80532 -0.00430276 -0.592825
v 11.8988 84.5978 -36.4826
vn 0.17995 -0.00138286 -0.983675
v 12.2052 85.2932 -36.2524
vn 0.80532 0.00430277 -0.592825
v 15.8773 85.8408 -18.3548
vn -0.0014902 0.443474 0.896286
v 14.8766 85.5747 -18.3713
vn 0 0 1
v 13.9445 85.5035 -18.3713
vn 0 0 1
v 9.54333 85.7084 -18.3713
vn 0 0 1
v 8.78798 85.596 -18.3713
vn 0 0 1
v 8.35718 85.735 -18.3713
vn 0 0 1
v 7.73965 85.5747 -18.3713
vn 0 0 1
v 5.51297 85.6691 -18.3713
vn 0 0 1
v 0.471707 85.485 -18.3713
vn 0 0 1
v 4.78397 85.6416 -18.3713
vn 0 0 1
v 0.258586 85.735 -18.3713
vn 0 0 1
v -2.02256 85.6401 -18.3547
vn 0.000321909 0.143228 0.98969
v -1.47683 85.7594 -18.3676
vn 0.00162354 0.202429 0.979296
v -0.476135 85.5747 -18.3713
vn 0 0 1
v -2.63377 85.6626 -19.0979
vn -1 0 0
v -2.63377 86.2184 -19.8416
vn -1 0 0
v -2.63377 85.735 -19.8158
vn -1 0 0
v -2.63377 86.2461 -18.6806
vn -1 0 0
v -2.63377 86.1612 -20.4698
vn -1 0 0
v -2.63377 86.1944 -21.3352
vn -1 0 0
v -2.63377 85.5962 -18.4123
vn -1 0 0
v -2.63377 85.5642 -19.8539
vn -1 0 0
v -2.63377 85.485 -19.4547
vn -1 0 0
v -2.63377 86.1612 -21.937
vn -1 0 0
v -2.63377 86.1944 -22.8172
vn -1 0 0
v -2.63377 86.207 -23.3838
vn -1 0 0
v -2.63377 85.9258 -24.1544
vn -1 0 0
v -2.63377 86.235 -24.8713
vn -1 0 0
v -2.63377 85.86 -24.8713
vn -1 0 0
v -2.63377 85.5235 -22.1075
vn -1 0 0
v -2.63377 85.5565 -21.1829
vn -1 0 0
v -2.63377 85.5113 -24.7193
vn -1 0 0
v -2.63377 85.5565 -23.3495
vn -1 0 0
v -1.8421 86.0475 -24.8713
vn 0 0 -1
v -2.63377 85.485 -24.8713
vn 0 0 -1
v -2.63377 86.235 -24.8713
vn 0 0 -1
v -1.8421 85.6725 -24.8713
vn 0 0 -1
v 2.11623 86.235 -24.8713
vn 0 0 -1
v -1.05044 86.0475 -24.8713
vn 0 0 -1
v -1.02969 85.5288 -24.8713
vn 0 0 -1
v 2.11623 85.485 -24.8713
vn 0 0 -1
v 6.86623 85.61 -35.5276
vn -1 0 0
v 6.86623 85.9308 -34.5588
vn -1 0 0
v 6.86623 85.7529 -35.9955
vn -1 0 0
v 6.86623 86.2191 -36.0865
vn -1 0 0
v 6.86623 85.9642 -32.6213
vn -1 0 0
v 6.86623 86.235 -30.4338
vn -1 0 0
v 6.86623 85.485 -30.6838
vn -1 0 0
v 6.86623 85.4868 -36.512
vn -1 0 0
v 7.89335 85.6076 -36.5114
vn 0.00174024 0.202302 -0.979322
v 8.58658 85.6012 -36.4963
vn 0 0 -1
v 8.98723 85.735 -36.4963
vn 0 0 -1
v 10.4016 85.5941 -36.4963
vn 0 0 -1
v 10.0477 85.735 -36.4963
vn 0 0 -1
v 12.1174 85.4857 -36.4976
vn 0.000803554 0.0322238 -0.99948
v 11.1741 85.5189 -36.5132
vn -0.000721963 0.0554033 -0.998464
v 12.5108 85.485 -35.4918
vn 0.930784 -1.08013e-05 -0.36557
v 12.4782 85.735 -35.5748
vn 0.930784 -1.01194e-05 -0.36557
v 14.1203 85.5726 -31.3938
vn 0.930784 -7.52272e-06 -0.36557
v 14.9307 85.5726 -29.3303
vn 0.930784 -7.07982e-06 -0.365569
v 14.416 85.6673 -30.6409
vn 0.930784 -8.27142e-06 -0.36557
v 15.259 85.5925 -28.4944
vn 0.930784 -5.84437e-06 -0.36557
v 16.9067 85.6395 -24.2993
vn 0.930784 -1.83544e-06 -0.36557
v 17.6929 85.5726 -22.2975
vn 0.930784 -3.08584e-06 -0.36557
v 17.1786 85.6673 -23.607
vn 0.930784 -1.8083e-06 -0.36557
v 18.0409 85.7605 -21.523
vn 0.907266 0.22203 -0.357171
v 18.4292 85.4851 -20.4235
vn 0.930806 0.00204891 -0.365507
v 10.9296 86.235 -35.5249
vn 0 1 0
v 12.2261 86.235 -34.8521
vn 0.0503161 0.998562 -0.0185079
v 11.59 86.235 -35.6117
vn 0 1 0
v 10.9296 86.235 -34.926
vn 0 1 0
v 11.5755 86.235 -33.8557
vn 0 1 0
v 10.2837 86.235 -33.8557
vn 0 1 0
v 10.2837 86.235 -34.926
vn 0 1 0
v 11.5755 86.235 -31.7151
vn 0 1 0
v 7.64754 86.235 -33.8586
vn 0 1 0
v 10.2837 86.235 -31.7151
vn 0 1 0
v 14.159 86.235 -28.5042
vn 0 1 0
v 10.2837 86.235 -29.5745
vn 0 1 0
v 12.8672 86.235 -28.5042
vn 0 1 0
v 10.2837 86.235 -25.2932
vn 0 1 0
v 12.8672 86.235 -25.2932
vn 0 1 0
v 10.2837 86.235 -23.1526
vn 0 1 0
v 14.159 86.235 -25.2932
vn 0 1 0
v 15.4507 86.235 -22.0823
vn 0 1 0
v 12.8672 86.235 -23.1526
vn 0 1 0
v -0.0502674 86.235 -21.012
vn 0 1 0
v 15.4507 86.235 -21.012
vn 0 1 0
v 16.7425 86.235 -22.0823
vn 0 1 0
v 16.7425 86.235 -21.012
vn 0 1 0
v 15.4507 86.235 -19.9417
vn 0 1 0
v 6.86623 86.235 -24.8713
vn 0 1 0
v -0.0502674 86.235 -24.2229
vn 0 1 0
v 17.3884 86.235 -19.4065
vn 0 1 0
v 17.4225 86.2398 -18.7944
vn 0.114061 0.948712 0.294849
v 18.1406 86.2505 -19.9167
vn 0.319295 0.947653 -0.00219558
v 17.469 86.239 -21.263
vn 0.064813 0.997561 -0.0259012
v 16.7425 86.235 -19.4065
vn 0 1 0
v 15.8773 86.238 -18.8658
vn -0.000837735 0.990162 0.139922
v 18.2246 86.1889 -20.5351
vn 0.60953 0.756034 -0.238509
v 16.8782 86.235 -23.0046
vn 0 1 0
v 4.88635 86.235 -18.8713
vn 0 1 0
v 5.11674 86.235 -19.9417
vn 0 1 0
v 14.1917 86.235 -29.8458
vn 0 1 0
v 11.9113 86.2341 -36.0372
vn 0.458272 0.851933 -0.253371
v 4.30788 86.235 -18.8713
vn 0 1 0
v 3.82498 86.235 -19.9417
vn 0 1 0
v -1.34202 86.235 -19.9417
vn 0 1 0
v -2.07237 86.2402 -18.8376
vn 0.000180214 0.949134 0.314872
v -2.63157 86.237 -20.334
vn -0.00123741 0.999619 0.0275841
v -1.34202 86.235 -21.012
vn 0 1 0
v -2.63377 86.235 -21.3713
vn 0 1 0
v -2.63377 86.235 -20.8713
vn 0 1 0
v 6.86623 86.235 -30.4338
vn 0 1 0
v 10.2837 86.235 -35.4612
vn 0 1 0
v 8.99199 86.235 -34.926
vn 0 1 0
v 6.88159 86.2329 -36.1471
vn -0.00179976 0.983395 -0.18147
v 8.45698 86.235 -35.9963
vn 0 1 0
v 7.94977 86.2189 -36.1874
vn 0.00242976 0.943133 -0.332407
v -1.34202 86.235 -22.0823
vn 0 1 0
v -2.63377 86.235 -22.3713
vn 0 1 0
v -2.63377 86.235 -21.8713
vn 0 1 0
v -1.34202 86.235 -23.1526
vn 0 1 0
v -2.63377 86.235 -22.8713
vn 0 1 0
v -1.34202 86.235 -24.2229
vn 0 1 0
v -2.63377 86.235 -24.8713
vn 0 1 0
v 13.2422 85.485 -22.9026
vn 0 -1 0
v 15.8882 85.485 -21.7698
vn 0 -1 0
v 15.8882 85.485 -20.637
vn 0 -1 0
v 13.2422 85.485 -20.637
vn 0 -1 0
v 17.2112 85.485 -21.7698
vn 0 -1 0
v 17.2112 85.485 -20.637
vn 0 -1 0
v 17.2112 85.485 -19.5042
vn 0 -1 0
v 15.8882 85.485 -19.5042
vn 0 -1 0
v 0.011071 85.485 -24.0943
vn 0 -1 0
v 2.65823 85.485 -22.9026
vn 0 -1 0
v 2.65823 85.485 -20.637
vn 0 -1 0
v 17.8727 85.485 -18.9378
vn 0 -1 0
v 18.4404 85.485 -19.2327
vn 0 -1 0
v 17.1125 85.485 -18.3205
vn 0 -1 0
v 16.5497 85.485 -18.9378
vn 0 -1 0
v 17.8727 85.485 -20.637
vn 0 -1 0
v 18.5082 85.485 -20.1899
vn 0 -1 0
v 18.0344 85.485 -21.428
vn 0 -1 0
v 15.953 85.485 -18.3875
vn 0 -1 0
v -0.563452 85.485 -18.3713
vn 0 -1 0
v 13.2422 85.485 -19.5042
vn 0 -1 0
v 16.259 85.485 -25.9485
vn 0 -1 0
v 10.5962 85.485 -31.9651
vn 0 -1 0
v 12.1162 85.485 -36.4963
vn 0 -1 0
v 6.86623 85.485 -24.8713
vn 0 -1 0
v 10.5962 85.485 -34.2307
vn 0 -1 0
v 12.1162 85.485 -36.4963
vn 0 -1 0
v 0.0122326 85.485 -19.5042
vn 0 -1 0
v -1.59861 85.485 -18.3713
vn 0 -1 0
v -2.63377 85.485 -18.3713
vn 0 -1 0
v -1.31077 85.485 -19.5042
vn 0 -1 0
v -1.31077 85.485 -20.637
vn 0 -1 0
v -2.63377 85.485 -20.538
vn 0 -1 0
v -2.63377 85.485 -21.0797
vn 0 -1 0
v -2.63377 85.485 -19.9963
vn 0 -1 0
v 7.95024 85.485 -31.9651
vn 0 -1 0
v 7.95024 85.485 -34.2307
vn 0 -1 0
v 6.86623 85.485 -36.4963
vn 0 -1 0
v -1.31077 85.485 -22.9026
vn 0 -1 0
v -2.63377 85.485 -21.6213
vn 0 -1 0
v -2.63377 85.485 -23.2463
vn 0 -1 0
v -1.31077 85.485 -21.7698
vn 0 -1 0
v -2.63377 85.485 -23.788
vn 0 -1 0
v -2.63377 85.485 -24.8713
vn 0 -1 0
v 18.428 85.7575 -20.423
vn 0.952311 0.0233402 -0.304235
v 18.271 85.7828 -19.0308
vn 0.76458 0.126964 0.6319
v 17.0342 86.233 -18.8264
vn 0.00323479 0.998475 0.0551124
v 16.745 86.1255 -18.4777
vn -0.00103386 0.741221 0.671261
v -1.47591 86.1781 -18.6361
vn 0.00275852 0.866972 0.498348
v 17.0342 85.8958 -18.3986
vn 0.00219684 0.318911 0.947782
v 16.8896 85.8896 -18.3973
vn -0.000287297 0.297174 0.954823
v 17.0342 85.826 -18.3797
vn -0.000653992 0.166834 0.985985
v 16.8896 85.8184 -18.3785
vn -0.000653992 0.166834 0.985985
v 17.0342 85.9647 -18.4272
vn -0.000842436 0.448303 0.893881
v 16.8896 85.9591 -18.4245
vn -0.000842436 0.448303 0.893881
v 17.0342 86.0502 -18.4832
vn -0.000790956 0.619467 0.785022
v 16.8896 86.0447 -18.479
vn -0.000790956 0.619467 0.785022
v 17.0342 86.0086 -18.4529
vn -0.000848305 0.536614 0.843827
v 16.8896 86.0032 -18.4496
vn -0.000848305 0.536614 0.843827
v 16.8896 86.0831 -18.5126
vn -0.000739317 0.696353 0.717699
v 17.0342 86.0886 -18.5178
vn -0.000739317 0.696353 0.717699
v 17.0342 86.1232 -18.5562
vn -0.000629217 0.765856 0.643011
v 16.8896 86.1179 -18.55
vn -0.000629217 0.765856 0.643011
v 17.0342 86.1535 -18.5977
vn -0.0005922 0.827317 0.561735
v 16.8896 86.1485 -18.5905
vn -0.0005922 0.827317 0.561735
v 17.0342 86.1792 -18.6417
vn -0.000479436 0.87951 0.47588
v 16.8896 86.1747 -18.6335
vn -0.000479436 0.87951 0.47588
v 17.0342 86.2078 -18.7105
vn 0.00237801 0.94466 0.328043
v 16.8896 86.2038 -18.7012
vn 1.162e-05 0.935771 0.352607
v 17.0342 86.2267 -18.7804
vn -0.000188923 0.979258 0.202616
v 16.8896 86.2245 -18.77
vn -0.000188923 0.979258 0.202616
v 16.8896 86.2318 -18.8157
vn -7.46867e-05 0.993791 0.111259
v -2.50902 85.8243 -18.3802
vn -0.00353864 0.201354 0.979512
v -2.63377 86.014 -18.4564
vn 0 0.514992 0.857195
v -2.34453 85.9922 -18.4433
vn 0 0.514992 0.857195
v -2.63377 86.1465 -18.6056
vn -0.00557014 0.828618 0.559787
v -2.34658 86.1654 -18.6159
vn -0.00111134 0.866292 0.499536
v 7.30246 85.9088 -36.4703
vn -0.00111366 0.255786 -0.966733
v 7.39649 86.1845 -36.238
vn 0.000970724 0.885866 -0.463941
v 11.8963 86.0225 -36.4296
vn -0.000445994 0.596842 -0.802359
v 11.1082 86.1479 -36.3179
vn -0.00272856 0.85186 -0.523762
v 6.86623 86.014 -36.4113
vn 0 0.514992 -0.857195
v 7.13136 85.9922 -36.4244
vn 0 0.514992 -0.857195
v 12.1185 85.8522 -36.4953
vn 0.888968 0.296455 -0.349069
v 12.3421 86.1241 -35.5216
vn 0.74184 0.605164 -0.288878
v 12.5142 86.1238 -34.9647
vn 0.581998 0.781334 -0.225377
v 17.1943 48.9708 -23.5669
vn 0.930784 2.38533e-06 -0.36557
v 18.05 48.9624 -21.5094
vn 0.924314 -0.115378 -0.363773
v 16.8897 49.0026 -24.3426
vn 0.930784 2.08607e-06 -0.36557
v 15.2531 48.9556 -28.5095
vn 0.930784 5.83383e-06 -0.36557
v 14.9307 49.0225 -29.3303
vn 0.930784 7.16709e-06 -0.36557
v 14.416 48.9277 -30.6409
vn 0.930784 6.99563e-06 -0.36557
v 14.1203 49.0225 -31.3938
vn 0.930784 8.97342e-06 -0.36557
v 12.9037 48.9124 -34.4915
vn 0.930784 1.12312e-05 -0.36557
v 12.6219 48.9556 -35.2088
vn 0.930784 1.11527e-05 -0.36557
v 12.1162 48.9689 -36.4963
vn 0.930783 4.83671e-06 -0.365572
v 10.5028 48.9488 -36.4963
vn 0 0 -1
v 9.50114 49.0157 -36.4963
vn 0 0 -1
v 8.58658 48.9939 -36.4963
vn 0 0 -1
v 8.98723 48.86 -36.4963
vn 0 0 -1
v 7.86729 48.974 -36.5252
vn 0.00106653 -0.105645 -0.994403
v 7.38232 48.7904 -36.4964
vn 0.0007028 -0.286785 -0.957995
v 6.86623 49.0563 -36.1832
vn -1 0 0
v 6.86623 48.5805 -34.5588
vn -1 0 0
v 6.86623 48.985 -35.5276
vn -1 0 0
v 6.86623 48.3879 -36.0062
vn -1 0 0
v 6.86623 48.36 -30.4338
vn -1 0 0
v 6.86623 48.7038 -32.6213
vn -1 0 0
v 6.86623 49.11 -30.6838
vn -1 0 0
v 2.11623 48.36 -24.8713
vn 0 0 -1
v -1.05044 48.5475 -24.8713
vn 0 0 -1
v 2.11623 49.11 -24.8713
vn 0 0 -1
v -0.991289 49.0684 -24.8713
vn 0 0 -1
v -1.8421 48.5475 -24.8713
vn 0 0 -1
v -2.63377 48.36 -24.8713
vn 0 0 -1
v -2.63377 49.11 -24.8713
vn 0 0 -1
v -1.8421 48.9225 -24.8713
vn 0 0 -1
v -2.63377 48.9319 -19.0902
vn -1 0 0
v -2.63377 48.4731 -19.8166
vn -1 0 0
v -2.63377 48.6693 -24.1544
vn -1 0 0
v -2.63377 48.4419 -24.8795
vn -1 0 0
v -2.63377 48.4339 -23.4042
vn -1 0 0
v -2.63377 48.4339 -22.7729
vn -1 0 0
v -2.63377 48.4007 -21.9075
vn -1 0 0
v -2.63377 48.4339 -21.3057
vn -1 0 0
v -2.63377 48.4007 -20.4255
vn -1 0 0
v -2.63377 48.985 -24.1491
vn -1 0 0
v -2.63377 49.11 -23.8713
vn -1 0 0
v -2.63377 49.0316 -22.7395
vn -1 0 0
v -2.63377 49.11 -22.3713
vn -1 0 0
v -2.63377 49.0694 -21.3352
vn -1 0 0
v -2.63377 49.0362 -20.4698
vn -1 0 0
v -2.63377 48.4988 -18.692
vn -1 0 0
v -2.63377 49.0938 -18.3504
vn -1 0 0
v -1.47683 48.802 -18.371
vn 0.00162294 -0.203712 0.97903
v -0.476135 49.0204 -18.3713
vn 0 0 1
v 0.471707 49.11 -18.3713
vn 0 0 1
v 0.258586 48.86 -18.3713
vn 0 0 1
v 4.71057 49.0204 -18.3713
vn 0 0 1
v 5.6125 48.9991 -18.3713
vn 0 0 1
v 6.04329 48.86 -18.3713
vn 0 0 1
v 6.66083 49.0204 -18.3713
vn 0 0 1
v 8.8875 48.9259 -18.3713
vn 0 0 1
v 9.78813 49.11 -18.3713
vn 0 0 1
v 9.51412 48.86 -18.3713
vn 0 0 1
v 14.0052 49.0204 -18.3713
vn 0 0 1
v 15.9311 48.9702 -18.3449
vn -0.000558746 -0.112962 0.993599
v 14.8766 49.0204 -18.3713
vn 0 0 1
v 17.4061 49.001 -18.3955
vn 0.310502 -0.0207405 0.950346
v 17.8995 48.9211 -18.6266
vn 0.518463 -0.157578 0.840455
v 18.4658 49.0184 -19.3779
vn 0.959158 -0.026724 0.281605
v 18.558 48.9842 -19.8879
vn 0.992355 -0.122138 -0.0176918
v 11.567 48.36 -34.9263
vn 0 -1 0
v 10.2837 48.36 -33.8557
vn 0 -1 0
v 10.2569 48.36 -34.9482
vn 0 -1 0
v 11.5755 48.36 -33.8557
vn 0 -1 0
v 7.64754 48.36 -33.8586
vn 0 -1 0
v 10.2837 48.36 -31.7151
vn 0 -1 0
v 11.5755 48.36 -31.7151
vn 0 -1 0
v 10.2837 48.36 -29.5745
vn 0 -1 0
v 12.8672 48.36 -28.5042
vn 0 -1 0
v 10.2837 48.36 -25.2932
vn 0 -1 0
v -0.0502674 48.36 -24.8713
vn 0 -1 0
v 15.4507 48.36 -21.012
vn 0 -1 0
v -0.0502674 48.36 -21.012
vn 0 -1 0
v 10.2837 48.36 -23.1526
vn 0 -1 0
v 12.8672 48.36 -23.1526
vn 0 -1 0
v 14.159 48.36 -25.2932
vn 0 -1 0
v 12.8672 48.36 -25.2932
vn 0 -1 0
v 15.4507 48.36 -22.0823
vn 0 -1 0
v 16.7425 48.36 -19.4065
vn 0 -1 0
v 16.7425 48.36 -21.012
vn 0 -1 0
v 15.4507 48.36 -19.9417
vn 0 -1 0
v -2.63377 48.36 -24.8713
vn 0 -1 0
v -1.47683 48.3596 -18.8703
vn 0.00221734 -0.92609 0.377295
v -2.59457 48.3626 -18.7937
vn -0.00100115 -0.996575 0.0826919
v -1.34202 48.36 -19.9417
vn 0 -1 0
v 10.2837 48.36 -19.9417
vn 0 -1 0
v -1.34202 48.36 -24.2229
vn 0 -1 0
v 10.6711 48.36 -18.8713
vn 0 -1 0
v -0.0502674 48.36 -24.2229
vn 0 -1 0
v 6.86623 48.36 -24.8713
vn 0 -1 0
v 6.86623 48.36 -30.4338
vn 0 -1 0
v 6.88405 48.3633 -36.1728
vn -0.00212364 -0.980104 -0.198474
v 10.578 48.36 -35.9963
vn 0 -1 0
v 8.99199 48.36 -34.926
vn 0 -1 0
v 8.45698 48.36 -35.9963
vn 0 -1 0
v 7.94977 48.3762 -36.1874
vn 0.00242798 -0.943134 -0.332404
v 11.5755 48.36 -19.9417
vn 0 -1 0
v 11.2495 48.36 -18.8713
vn 0 -1 0
v 15.8772 48.3491 -18.8264
vn -0.00100254 -0.973514 0.228625
v 17.4297 48.3556 -18.7949
vn 0.122307 -0.942721 0.310352
v 16.4498 48.36 -24.0955
vn 0 -1 0
v 17.3884 48.36 -19.4065
vn 0 -1 0
v 18.1421 48.3513 -19.9243
vn 0.317502 -0.948253 -0.00302201
v 17.3884 48.36 -21.012
vn 0 -1 0
v 16.7425 48.36 -22.0823
vn 0 -1 0
v 17.5569 48.3482 -21.329
vn 0.21258 -0.973478 -0.0845614
v 14.2979 48.36 -29.5752
vn 0 -1 0
v 11.7311 48.3601 -36.1119
vn 0.0240215 -0.946701 -0.321217
v 14.159 48.36 -28.5042
vn 0 -1 0
v 0.0117448 49.11 -24.0727
vn 0 1 0
v 2.65823 49.11 -20.637
vn 0 1 0
v 2.65823 49.11 -22.9026
vn 0 1 0
v 6.86623 49.11 -31.4104
vn 0 1 0
v 13.2422 49.11 -22.9026
vn 0 1 0
v 15.8882 49.11 -21.7698
vn 0 1 0
v 17.2112 49.11 -21.7698
vn 0 1 0
v 13.2422 49.11 -20.637
vn 0 1 0
v 15.8882 49.11 -20.637
vn 0 1 0
v 15.8882 49.11 -19.5042
vn 0 1 0
v 17.2112 49.11 -19.5042
vn 0 1 0
v 17.2112 49.11 -20.637
vn 0 1 0
v -2.63377 49.11 -18.3713
vn 0 1 0
v -2.63377 49.11 -18.3713
vn 0 1 0
v -1.31077 49.11 -19.5042
vn 0 1 0
v 0.0122326 49.11 -19.5042
vn 0 1 0
v -1.31077 49.11 -22.9026
vn 0 1 0
v 5.6475 49.11 -18.3713
vn 0 1 0
v 5.30424 49.11 -20.637
vn 0 1 0
v 7.95024 49.11 -20.637
vn 0 1 0
v 6.68266 49.11 -18.3713
vn 0 1 0
v -2.63377 49.11 -23.3713
vn 0 1 0
v -2.63377 49.11 -23.8713
vn 0 1 0
v -2.63377 49.11 -24.8713
vn 0 1 0
v 6.86623 49.11 -24.8713
vn 0 1 0
v 10.5962 49.11 -31.9651
vn 0 1 0
v 7.95024 49.11 -31.9651
vn 0 1 0
v 6.86623 49.11 -36.4963
vn 0 1 0
v 7.95024 49.11 -34.2307
vn 0 1 0
v 8.61623 49.11 -36.4963
vn 0 1 0
v 13.2422 49.11 -19.5042
vn 0 1 0
v 15.8882 49.11 -18.9378
vn 0 1 0
v 17.3537 49.11 -18.379
vn 0 1 0
v 17.8727 49.11 -18.9378
vn 0 1 0
v 18.6152 49.11 -19.6122
vn 0 1 0
v 17.8727 49.11 -20.637
vn 0 1 0
v 15.6671 49.11 -27.4553
vn 0 1 0
v 12.1162 49.11 -36.4963
vn 0 1 0
v 9.49123 49.11 -36.4963
vn 0 1 0
v 10.5962 49.11 -34.2307
vn 0 1 0
v 12.1162 49.11 -36.4963
vn 0 1 0
v 18.0344 49.11 -21.428
vn 0 1 0
v 18.245 48.4986 -20.6519
vn 0.682417 -0.67987 -0.268483
v 12.3666 48.4897 -35.5312
vn 0.75716 -0.583001 -0.29465
v 12.5142 48.4712 -34.9647
vn 0.581997 -0.781334 -0.22538
v 12.1137 48.5109 -36.2141
vn 0.790281 -0.52825 -0.310496
v 18.4037 48.6992 -20.4134
vn 0.882978 -0.31892 -0.344442
v 18.3517 48.7055 -20.5492
vn 0.888639 -0.297143 -0.349324
v 18.4212 48.7691 -20.4203
vn 0.91751 -0.166823 -0.361033
v 18.3692 48.7767 -20.5561
vn 0.91751 -0.166823 -0.361033
v 18.377 48.6304 -20.4029
vn 0.831723 -0.448272 -0.327551
v 18.3264 48.636 -20.5391
vn 0.831723 -0.448272 -0.327551
v 18.3089 48.5257 -20.3759
vn 0.694643 -0.666717 -0.270109
v 18.2596 48.5316 -20.5127
vn 0.708375 -0.648579 -0.278478
v 18.3532 48.5864 -20.3934
vn 0.785143 -0.536569 -0.309263
v 18.3031 48.5918 -20.5299
vn 0.785143 -0.536569 -0.309263
v 18.2571 48.4719 -20.3554
vn 0.598272 -0.765857 -0.235656
v 18.2097 48.4772 -20.493
vn 0.598272 -0.765857 -0.235656
v 18.1776 48.4159 -20.3239
vn 0.442626 -0.879595 -0.174342
v 18.1321 48.4204 -20.4622
vn 0.442626 -0.879595 -0.174342
v 18.2184 48.4415 -20.3401
vn 0.52275 -0.827245 -0.205908
v 18.172 48.4466 -20.4781
vn 0.52275 -0.827245 -0.205908
v 18.0904 48.399 -20.4458
vn 0.359476 -0.922354 -0.141564
v 18.1352 48.3951 -20.3071
vn 0.359476 -0.922354 -0.141564
v 18.092 48.3793 -20.29
vn 0.274195 -0.955593 -0.107982
v 18.0479 48.3824 -20.4289
vn 0.274195 -0.955593 -0.107982
v 18.0486 48.3684 -20.2729
vn 0.18852 -0.97926 -0.0742353
v 18.0051 48.3705 -20.412
vn 0.18852 -0.97926 -0.0742353
v 18.0058 48.3621 -20.2559
vn 0.103529 -0.993791 -0.0407632
v 17.9627 48.3633 -20.3952
vn 0.103529 -0.993791 -0.0407632
v 11.9747 48.6766 -36.4771
vn 0.00182141 -0.310223 -0.950662
v 11.1082 48.5314 -36.4067
vn -0.00269462 -0.532076 -0.846692
v 7.39649 48.4106 -36.238
vn 0.000969856 -0.885871 -0.46393
v 6.98737 48.7269 -36.4798
vn -0.00368249 -0.277012 -0.960859
v -2.23252 48.6603 -18.4068
vn -0.000986285 -0.316501 0.948592
v -2.05529 48.4106 -18.6297
vn 0.000889217 -0.885865 0.463942
v 16.8502 48.4673 -18.4898
vn 0.00190942 -0.764808 0.644256
v -2.34453 48.4859 -18.5406
vn 0 -0.749192 0.662353
v -2.63377 48.5028 -18.5215
vn 0 -0.749192 0.662353
v -2.63377 48.4168 -18.6453
vn -0.00571423 -0.890831 0.454299
v -2.34453 48.4168 -18.6453
vn -0.00107233 -0.885234 0.465145
v 18.271 48.8123 -19.0308
vn 0.868947 -0.126964 0.478342
v 18.428 48.8376 -20.423
vn 0.955548 -0.0187494 -0.29424
v 1.47777 79.9642 -15.914
vn 0.998154 -1.9491e-05 0.0607288
v 1.37083 84.7142 -14.1696
vn 0.998036 -1.83228e-05 0.0626432
v 1.3688 51.4642 -14.1703
vn 0.997884 1.95665e-05 0.0650169
v 1.51879 79.9642 -16.6137
vn 0.998375 -1.29955e-05 0.0569826
v 1.55767 84.7382 -17.276
vn 0.99999 -0.00100367 -0.00439105
v 1.56003 82.7456 -17.3603
vn 0.999671 -1.64382e-05 0.0256626
v 1.36139 49.8813 -14.0182
vn 0.997928 6.14276e-07 0.0643404
v 1.47786 54.6309 -15.914
vn 0.998163 5.02369e-05 0.0605892
v 1.55767 49.8568 -17.276
vn 0.99999 0.00100367 -0.00439107
v 1.51878 54.6309 -16.6137
vn 0.998367 1.60907e-05 0.05713
v 1.55934 51.8485 -17.3459
vn 0.999671 1.45275e-05 0.0256603
v 1.13732 83.1309 -10.8954
vn 0.996912 -3.75768e-05 0.0785218
v 1.07826 73.6309 -10.1963
vn 0.996339 -0.000153143 0.0854951
v 1.29729 73.6309 -13.1119
vn 0.997679 -5.29314e-05 0.0680876
v 1.36904 83.1309 -14.1692
vn 0.997821 -5.09963e-05 0.0659769
v 1.29729 60.9642 -13.1119
vn 0.997679 5.29315e-05 0.0680876
v 1.13732 51.4642 -10.8954
vn 0.996912 3.75767e-05 0.0785218
v 1.07826 60.9642 -10.1963
vn 0.996339 0.000153143 0.0854951
v 0.840476 84.7142 -7.64421
vn 0.994294 -5.52253e-05 0.106677
v 0.754066 73.6309 -6.83791
vn 0.994005 -0.000200218 0.109334
v 0.8392 83.1309 -7.64563
vn 0.995009 -6.11489e-05 0.0997803
v 0.506533 84.7142 -4.80061
vn 0.990496 -0.000101513 0.137541
v 0.840476 49.8809 -7.64421
vn 0.994294 5.52253e-05 0.106677
v 0.506533 49.8809 -4.80061
vn 0.990496 0.000101513 0.137541
v 0.754066 60.9642 -6.83791
vn 0.994005 0.000200218 0.109334
v 0.8392 51.4642 -7.64563
vn 0.995009 6.11489e-05 0.0997803
v 0.309556 73.6309 -3.50331
vn 0.98714 -0.00031473 0.159861
v 0.507836 73.6309 -4.84273
vn 0.99009 -0.000206461 0.140435
v 0.507836 60.9642 -4.84273
vn 0.99009 0.000206461 0.140435
v 0.309672 60.9642 -3.50329
vn 0.987653 0.000184251 0.156659
v -0.00516147 84.7142 -1.73965
vn 0.975478 -0.000447937 0.220095
v -0.272366 79.9642 -0.702971
vn 0.966774 -0.00080253 0.255631
v 0.0323973 73.6309 -1.97978
vn 0.974635 -0.000335239 0.2238
v -0.272514 54.6309 -0.703003
vn 0.966866 0.000727732 0.255282
v 0.0323973 60.9642 -1.97978
vn 0.976686 0.00067045 0.214671
v -0.00516147 49.8809 -1.73965
vn 0.975478 0.000447937 0.220095
v -1.39031 51.4642 1.34352
vn 0.48862 0.00163559 0.872495
v -1.21038 83.1309 1.23947
vn 0.67587 -0.00132806 0.737019
v -1.38998 83.1308 1.34404
vn 0.48862 -0.00163559 0.872495
v -0.874131 83.1306 0.831928
vn 0.881855 -0.00114534 0.471519
v -0.561949 79.9642 0.17792
vn 0.902906 -5.73352e-05 0.429837
v -0.709115 84.7142 0.595029
vn 0.8639 -0.00111488 0.503662
v -0.988869 85.7287 1.02504
vn 0.729886 0.00353587 0.683559
v -1.273 84.7142 1.30002
vn 0.447279 -0.00074095 0.894394
v -1.21571 83.9226 1.25091
vn 0.559542 -0.0021288 0.828799
v -1.36191 85.4946 1.34344
vn 0.285681 0.000997762 0.958324
v -1.5758 83.9225 1.37867
vn 0.0946278 -0.000932799 0.995512
v -1.30059 85.11 1.29731
vn 0.514533 -0.000810787 0.85747
v -1.41334 85.5059 1.35095
vn 0.325213 -0.000167805 0.945641
v -1.41334 85.11 1.35095
vn 0.320068 -0.000894813 0.947394
v -1.41334 49.0892 1.35095
vn 0.325213 0.000167807 0.945641
v -1.41334 49.485 1.35095
vn 0.320068 0.000894822 0.947394
v -1.72329 48.9582 1.38017
vn 0.0400784 -0.0212474 0.998971
v -1.13445 48.9523 1.17761
vn 0.692158 -0.00288381 0.72174
v -1.30059 49.485 1.29731
vn 0.514533 0.000810795 0.85747
v -1.21387 49.8809 1.24908
vn 0.501244 0.000648116 0.865305
v -1.21571 50.6725 1.25091
vn 0.559542 0.00212882 0.828799
v -1.99758 49.8809 1.3862
vn 0.0215859 0.000128949 0.999767
v -1.57394 50.6725 1.38055
vn 0.100281 0.0010728 0.994959
v -0.709115 49.8809 0.59503
vn 0.8639 0.00111488 0.503662
v -0.87228 51.4644 0.832772
vn 0.88099 0.00156427 0.473131
v -1.20408 51.4642 1.24235
vn 0.67587 0.00132806 0.737019
v -0.561949 54.6309 0.17792
vn 0.912028 0.000917579 0.410127
v 1.54935 85.7277 -17.1499
vn 0.998428 3.78024e-05 0.0560408
v 1.56465 85.9319 -17.5131
vn 0.975538 0.182417 -0.122673
v 1.45614 85.6088 -15.5534
vn 0.998191 2.15823e-05 0.0601199
v 1.50808 85.7041 -16.4271
vn 0.998281 1.14742e-05 0.058602
v 1.53376 85.5283 -16.8747
vn 0.99838 -3.52367e-05 0.0568994
v 1.5334 85.7975 -16.8682
vn 0.99838 -3.52367e-05 0.0568994
v 1.43402 85.8149 -15.1957
vn 0.998088 2.07776e-05 0.0618041
v 1.43504 85.5234 -15.2121
vn 0.998094 -2.79417e-05 0.061708
v 1.41372 85.7041 -14.8686
vn 0.997983 1.63979e-05 0.063482
v 1.3687 85.5059 -14.1692
vn 0.997873 1.36402e-05 0.0651956
v 1.34231 85.7975 -13.7702
vn 0.997835 5.32879e-05 0.0657705
v 1.55867 79.1617 -17.3301
vn 0.998631 0 0.0523049
v 1.55859 75.5761 -17.3266
vn 0.998631 0 0.0523049
v 1.55956 72.0012 -17.3525
vn 0.99885 0 0.0479379
v 1.34525 84.7142 -13.8153
vn 0.997817 1.70944e-05 0.0660375
v 1.55867 68.4177 -17.3292
vn 0.998761 0 0.0497707
v 1.5586 66.1786 -17.326
vn 0.998599 0 0.0529157
v 1.3134 85.7975 -13.3348
vn 0.997539 3.23663e-05 0.0701147
v 1.32166 84.7142 -13.4628
vn 0.997612 -2.65308e-05 0.0690671
v 1.22289 84.7142 -12.0692
vn 0.997407 9.64744e-06 0.0719723
v 1.19683 84.7142 -11.7255
vn 0.997042 -2.85382e-05 0.0768536
v 1.1888 85.7975 -11.6192
vn 0.996989 4.1804e-05 0.077546
v 1.22051 85.7975 -12.0438
vn 0.997321 3.32654e-05 0.0731439
v 1.12263 85.7975 -10.7798
vn 0.996824 3.37706e-05 0.0796306
v 1.11693 84.7142 -10.7069
vn 0.996829 -2.33783e-05 0.0795727
v 1.05503 85.7975 -9.95465
vn 0.99615 4.82111e-05 0.0876625
v 1.06153 84.7142 -10.0396
vn 0.996274 -2.9391e-05 0.0862393
v 0.94218 84.7142 -8.69903
vn 0.995819 -2.60535e-05 0.0913509
v 0.907815 84.7142 -8.3437
vn 0.995139 9.83675e-06 0.0984789
v 0.903128 85.8024 -8.29116
vn 0.994651 0.0309718 0.0985361
v 0.838916 85.5059 -7.64479
vn 0.994358 0.000163408 0.106078
v 0.945947 85.7975 -8.74766
vn 0.995743 2.29303e-05 0.0921686
v 0.661715 85.7147 -6.03681
vn 0.992722 0.0343967 0.115415
v 0.503425 85.5865 -4.80782
vn 0.990461 0.000199695 0.137795
v 0.344161 85.6569 -3.70762
vn 0.988914 0.000278037 0.148492
v 0.562047 85.5314 -5.25163
vn 0.991832 -2.56603e-05 0.127554
v 0.555241 85.8226 -5.19994
vn 0.991673 0.00038451 0.128783
v 1.559 62.5938 -17.3525
vn 0.999634 0 0.0270429
v 1.55859 59.019 -17.3266
vn 0.998631 0 0.0523049
v 1.55958 55.432 -17.3536
vn 0.99885 0 0.0479379
v 1.5334 48.7975 -16.8682
vn 0.99838 3.52363e-05 0.0568994
v 1.53376 49.0668 -16.8747
vn 0.99838 3.52363e-05 0.0568994
v 1.48801 48.78 -16.0872
vn 0.998252 -1.94988e-05 0.0591032
v 1.48809 49.0714 -16.0884
vn 0.998256 2.56569e-05 0.0590383
v 1.54935 48.8673 -17.1499
vn 0.998428 -3.78019e-05 0.0560408
v 1.56177 48.6787 -17.6033
vn 0.942681 -0.18951 -0.27466
v 1.43402 48.7802 -15.1957
vn 0.998088 -2.07773e-05 0.0618041
v 1.43504 49.0716 -15.2121
vn 0.998094 2.79414e-05 0.061708
v 1.39263 48.7795 -14.5392
vn 0.997946 -2.11732e-05 0.0640684
v 1.39168 49.0709 -14.5244
vn 0.997939 3.24394e-05 0.0641674
v 1.36984 48.8027 -14.1871
vn 0.997818 -6.33996e-05 0.0660233
v 1.34224 48.7975 -13.7702
vn 0.997816 -4.45815e-05 0.0660512
v 1.27273 49.8809 -12.7626
vn 0.997536 5.68851e-05 0.0701494
v 1.29771 48.7764 -13.1192
vn 0.997588 -2.4571e-05 0.0694147
v 1.32166 49.8809 -13.4628
vn 0.997612 2.65306e-05 0.0690671
v 1.19683 49.8809 -11.7255
vn 0.997042 2.8538e-05 0.0768536
v 1.17239 48.7775 -11.4107
vn 0.997013 -2.86694e-05 0.0772382
v 0.974968 49.8809 -9.05821
vn 0.995984 3.24594e-05 0.0895291
v 1.0006 48.7791 -9.34556
vn 0.996025 -3.45126e-05 0.0890708
v 1.03289 49.8809 -9.70974
vn 0.996133 8.10216e-05 0.0878579
v 1.14379 49.8809 -11.0442
vn 0.99694 6.87604e-05 0.0781741
v 0.872905 49.8809 -7.99231
vn 0.994911 2.01571e-05 0.100758
v 0.846873 49.0892 -7.64289
vn 0.993809 -0.000151247 0.111105
v 0.870692 48.7902 -7.9655
vn 0.993106 -0.0623305 0.0992746
v 0.6701 48.7941 -6.10427
vn 0.991204 -0.0593463 0.118292
v 0.393254 48.9656 -4.0218
vn 0.989889 -0.000268974 0.141841
v 0.27448 85.8147 -3.28884
vn 0.986461 0.000432148 0.163993
v 0.276461 85.5231 -3.3002
vn 0.986578 -0.000186939 0.163292
v 0.172753 85.8131 -2.70434
vn 0.983823 0.000474329 0.179141
v 0.174527 85.5215 -2.71352
vn 0.983965 -0.000204271 0.178361
v -0.0273982 85.6448 -1.69432
vn 0.978211 0.000159917 0.207611
v 0.101205 85.6026 -2.32122
vn 0.980762 0.000218701 0.195207
v -0.0726667 85.6049 -1.48189
vn 0.971908 0.000561418 0.235361
v -0.838821 85.6586 0.786339
vn 0.889234 0.00226001 0.457447
v -2.62048 85.8004 1.38512
vn 0.10963 0.164811 0.980214
v -0.314973 85.6918 -0.547618
vn 0.962646 -0.000546999 0.270763
v -0.557963 85.6128 0.170987
vn 0.923285 0.0040554 0.384094
v -0.426676 85.7975 -0.199242
vn 0.946461 -0.00137187 0.322815
v -0.443197 85.5379 -0.151908
vn 0.946461 -0.00137187 0.322815
v 0.355231 48.9378 -3.78593
vn 0.987571 -0.000225691 0.157175
v 0.24547 48.9921 -3.11394
vn 0.986292 -0.000212959 0.165008
v 0.172753 48.782 -2.70434
vn 0.983823 -0.000474323 0.179141
v 0.174527 49.0736 -2.71352
vn 0.983965 0.000204269 0.178361
v 0.0672073 48.7836 -2.15207
vn 0.980471 -0.000522722 0.196662
v 0.0687548 49.0752 -2.15923
vn 0.980646 0.000223867 0.195787
v -0.0422585 48.7852 -1.63365
vn 0.976145 -0.000578672 0.217118
v -0.040957 49.0768 -1.63894
vn 0.976365 0.000246301 0.216129
v -0.155746 48.7867 -1.15068
vn 0.970461 -0.000644452 0.241257
v -0.15471 49.0784 -1.15428
vn 0.970741 0.000272107 0.240127
v -0.226999 48.9996 -0.828634
vn 0.958496 -0.00125934 0.285104
v -0.678848 48.8987 0.49268
vn 0.924674 -0.00195976 0.380754
v -0.796862 49.0138 0.708166
vn 0.853923 -0.00262426 0.520393
v -1.21981 48.8444 1.24327
vn 0.53072 -0.0048036 0.847534
v -1.41334 48.8913 1.35095
vn 0.325213 -0.000153157 0.945641
v -1.41518 48.7975 1.35213
vn 0.32008 -3.80128e-05 0.947391
v -1.49485 48.7975 1.37199
vn 0.141924 -0.00124689 0.989877
v -1.50557 48.8913 1.37308
vn 0.14774 -0.000570472 0.989026
v -2.63361 48.7785 1.37871
vn -0.00185968 -0.304531 0.952501
v -2.05189 51.4642 1.37865
vn 0 0 1
v -2.63377 84.8711 0.144276
vn -1 0 0
v -2.63377 84.8711 -1.0901
vn -1 0 0
v -2.63377 83.4066 -1.0901
vn -1 0 0
v -2.63377 83.4066 0.144276
vn -1 0 0
v -2.63377 84.8711 0.772893
vn -1 0 0
v -2.63377 85.6088 0.925113
vn -1 0 0
v -2.63377 85.644 0.144276
vn -1 0 0
v -2.63377 86.1567 0.585926
vn -1 0 0
v -2.63377 85.856 1.36444
vn -1 0 0
v -2.63377 48.4523 0.559501
vn -1 0 0
v -2.63377 48.9918 0.727175
vn -1 0 0
v -2.63377 48.8614 1.32234
vn -1 0 0
v -2.63377 49.724 0.801715
vn -1 0 0
v -2.63377 49.724 0.144276
vn -1 0 0
v -2.63377 48.9511 0.144276
vn -1 0 0
v -2.63377 49.724 -1.0901
vn -1 0 0
v -2.63377 51.1885 0.144276
vn -1 0 0
v -2.63377 51.1885 -1.0901
vn -1 0 0
v -2.63377 83.4066 -1.0901
vn -1 0 0
v -2.63377 83.4066 -3.55885
vn -1 0 0
v -2.63377 80.4777 -3.55885
vn -1 0 0
v -2.63377 80.4777 -1.0901
vn -1 0 0
v -2.63377 51.1885 -3.55885
vn -1 0 0
v -2.63377 54.1174 -1.0901
vn -1 0 0
v -2.63377 54.1174 -3.55885
vn -1 0 0
v -2.63377 83.4066 -13.4338
vn -1 0 0
v -2.63377 83.4066 -15.9026
vn -1 0 0
v -2.63377 80.4777 -15.9026
vn -1 0 0
v -2.63377 80.4777 -13.4338
vn -1 0 0
v -2.63377 51.1885 -15.9026
vn -1 0 0
v -2.63377 51.1885 -13.4338
vn -1 0 0
v -2.63377 54.1174 -13.4338
vn -1 0 0
v -2.63377 54.1174 -15.9026
vn -1 0 0
v -2.63377 84.8711 -15.9026
vn -1 0 0
v -2.63377 84.8711 -17.137
vn -1 0 0
v -2.63377 83.4066 -17.137
vn -1 0 0
v -2.63377 85.7957 -17.5484
vn -1 0 0
v -2.63377 84.8711 -17.7861
vn -1 0 0
v -2.63377 85.6211 -17.137
vn -1 0 0
v -2.63377 86.2123 -18.0267
vn -1 0 0
v -2.63377 85.6441 -18.3241
vn -1 0 0
v -2.63377 48.8203 -18.2867
vn -1 0 0
v -2.63377 48.4564 -17.5379
vn -1 0 0
v -2.63377 48.9918 -17.7199
vn -1 0 0
v -2.63377 48.9511 -17.137
vn -1 0 0
v -2.63377 49.724 -17.137
vn -1 0 0
v -2.63377 49.724 -17.7689
vn -1 0 0
v -2.63377 51.1885 -17.137
vn -1 0 0
v -2.63377 49.724 -15.9026
vn -1 0 0
v -2.63377 77.0917 1.37865
vn -1 0 0
v -2.63377 80.4777 0.144276
vn -1 0 0
v -2.63377 83.4066 0.761463
vn -1 0 0
v -2.63377 77.5488 -1.0901
vn -1 0 0
v -2.63377 72.7387 1.37865
vn -1 0 0
v -2.63377 71.6909 -1.0901
vn -1 0 0
v -2.63377 68.3858 1.37865
vn -1 0 0
v -2.63377 68.762 -1.0901
vn -1 0 0
v -2.63377 85.6033 -1.0901
vn -1 0 0
v -2.63377 86.2975 -6.62135
vn -1 0 0
v -2.63377 84.8711 -3.55885
vn -1 0 0
v -2.63377 83.4066 -6.0276
vn -1 0 0
v -2.63377 57.5034 1.37865
vn -1 0 0
v -2.63377 54.1174 0.144276
vn -1 0 0
v -2.63377 51.1885 0.761463
vn -1 0 0
v -2.63377 57.0463 -1.0901
vn -1 0 0
v -2.63377 66.2093 1.37865
vn -1 0 0
v -2.63377 62.9041 -1.0901
vn -1 0 0
v -2.63377 61.8564 1.37865
vn -1 0 0
v -2.63377 65.8331 -1.0901
vn -1 0 0
v -2.63377 48.9918 -1.0901
vn -1 0 0
v -2.63377 51.1885 -6.0276
vn -1 0 0
v -2.63377 48.2975 -6.62135
vn -1 0 0
v -2.63377 49.724 -3.55885
vn -1 0 0
v -2.63377 86.2975 -10.3713
vn -1 0 0
v -2.63377 84.8711 -13.4338
vn -1 0 0
v -2.63377 83.4066 -10.9651
vn -1 0 0
v -2.63377 85.6033 -15.9026
vn -1 0 0
v -2.63377 77.5488 -15.9026
vn -1 0 0
v -2.63377 80.4777 -17.137
vn -1 0 0
v -2.63377 77.0917 -18.3713
vn -1 0 0
v -2.63377 83.4066 -17.7542
vn -1 0 0
v -2.63377 70.5622 -18.3713
vn -1 0 0
v -2.63377 71.6909 -15.9026
vn -1 0 0
v -2.63377 72.7387 -18.3713
vn -1 0 0
v -2.63377 57.5034 -18.3713
vn -1 0 0
v -2.63377 54.1174 -17.137
vn -1 0 0
v -2.63377 57.0463 -15.9026
vn -1 0 0
v -2.63377 49.724 -13.4338
vn -1 0 0
v -2.63377 51.1885 -10.9651
vn -1 0 0
v -2.63377 48.2975 -10.3713
vn -1 0 0
v -2.63377 51.1885 -17.7542
vn -1 0 0
v -2.63377 48.9918 -15.9026
vn -1 0 0
v -2.63377 62.9041 -15.9026
vn -1 0 0
v -2.63377 64.0328 -18.3713
vn -1 0 0
v -2.63377 61.8564 -18.3713
vn -1 0 0
v -1.23641 81.5475 -18.3713
vn 0 0 -1
v -0.238294 76.7975 -18.3713
vn 0 0 -1
v -1.83528 76.7975 -18.3713
vn 0 0 -1
v -2.63077 83.8927 -18.3713
vn 0 0 -1
v -1.43603 83.9225 -18.3713
vn 0 0 -1
v 0.560199 83.9225 -18.3713
vn 0 0 -1
v -1.03679 83.9225 -18.3713
vn 0 0 -1
v 0.360576 50.6725 -18.3713
vn 0 0 -1
v -0.63754 50.6725 -18.3713
vn 0 0 -1
v -0.837163 53.0475 -18.3713
vn 0 0 -1
v -1.83528 57.7975 -18.3713
vn 0 0 -1
v -0.238294 57.7975 -18.3713
vn 0 0 -1
v -1.03679 50.6725 -18.3713
vn 0 0 -1
v -2.43415 50.6725 -18.3713
vn 0 0 -1
v -2.28319 86.2459 -18.2981
vn 0.00047433 0.656286 -0.754512
v -1.83528 85.11 -18.3713
vn 0 0 -1
v -2.44383 85.1316 -18.372
vn -0.000602032 0.0138728 -0.999904
v 0.560199 85.11 -18.3713
vn 0 0 -1
v -1.56907 85.7986 -18.374
vn 0.00110024 0.101569 -0.994828
v -0.504461 85.798 -18.3719
vn -0.000937056 0.0973907 -0.995246
v -1.63566 85.11 -18.3713
vn 0 0 -1
v -2.62847 49.4849 -18.3714
vn -1.72543e-06 -4.81541e-05 -1
v -1.31882 48.7968 -18.372
vn 0.000479374 -0.0489574 -0.998801
v -1.03679 49.485 -18.3713
vn 0 0 -1
v 0.441069 85.8903 -18.3713
vn 0.0072471 0.141716 -0.989881
v 0.560199 70.86 -18.3713
vn 0 0 -1
v -0.238294 72.0475 -18.3713
vn 0 0 -1
v 0.560199 64.9225 -18.3713
vn 0 0 -1
v -0.238294 67.2975 -18.3713
vn 0 0 -1
v 0.560199 69.6725 -18.3713
vn 0 0 -1
v 0.560199 58.985 -18.3713
vn 0 0 -1
v -0.586738 49.4709 -18.3834
vn -0.000495354 -0.0493964 -0.998779
v 0.360576 49.485 -18.3713
vn 0 0 -1
v 0.620722 48.52 -18.3603
vn 0.104155 -0.431836 -0.895918
v -0.238294 62.5475 -18.3713
vn 0 0 -1
v 0.560199 60.1725 -18.3713
vn 0 0 -1
v 0.560199 63.735 -18.3713
vn 0 0 -1
v 0.873929 85.8925 -18.334
vn 0.3913 0.186254 -0.901218
v 1.23032 83.9225 -18.1476
vn 0.653767 -0.00298519 -0.75669
v 0.76169 83.9225 -18.3508
vn 0.284342 -0.00295157 -0.958718
v 1.03643 48.7443 -18.2651
vn 0.507763 -0.0551483 -0.85973
v 0.972415 50.6725 -18.3213
vn 0.456353 0.00257187 -0.889795
v 1.31604 85.2532 -18.0369
vn 0.762228 0.000484276 -0.647308
v 1.56091 50.6725 -17.5917
vn 0.942547 0.0029662 -0.334061
v 1.55909 83.9225 -17.5315
vn 0.958283 -0.00295236 -0.285805
v 1.54974 79.1725 -17.5156
vn 0.999011 0 -0.0444676
v 1.54974 72.0475 -17.5156
vn 0.999011 0 -0.0444676
v 1.54974 75.61 -17.5156
vn 0.999011 0 -0.0444676
v 1.54974 68.485 -17.5156
vn 0.999011 0 -0.0444676
v 1.54974 58.985 -17.5156
vn 0.999011 0 -0.0444676
v 1.54974 55.4225 -17.5156
vn 0.999011 0 -0.0444676
v 1.54974 66.11 -17.5156
vn 0.999011 0 -0.0444676
v -2.36992 86.2975 -15.1928
vn 0 1 0
v 0.00477859 86.2975 -12.5142
vn 0 1 0
v -2.10606 86.2975 -12.5142
vn 0 1 0
v -2.19401 86.2975 -1.79992
vn 0 1 0
v -2.10606 86.2975 -4.47849
vn 0 1 0
v -1.05064 86.2975 -4.47849
vn 0 1 0
v -1.68326 86.3034 0.36266
vn 0.00162851 0.999963 0.00839191
v -1.82755 86.2975 -0.460635
vn 0 1 0
v -1.22655 86.2975 -0.460635
vn 0 1 0
v -1.05815 86.2971 0.436561
vn 0.0662996 0.996882 0.0427797
v -0.522932 86.2975 -7.15706
vn 0 1 0
v -0.522932 86.2975 -4.47849
vn 0 1 0
v -1.05064 86.2975 -7.15706
vn 0 1 0
v 0.268634 86.2975 -15.1928
vn 0 1 0
v 0.00477859 86.2975 -8.49635
vn 0 1 0
v 0.00477859 86.2975 -7.15706
vn 0 1 0
v -0.522932 86.2975 -9.83564
vn 0 1 0
v 0.00477859 86.2975 -9.83564
vn 0 1 0
v 0.297951 86.2975 -16.5321
vn 0 1 0
v 0.268634 86.2975 -9.83564
vn 0 1 0
v 0.438031 86.3042 -17.2137
vn 0.0794817 0.996829 0.00392946
v -2.58371 86.2976 -16.5643
vn 0 0.999985 -0.00549187
v -2.63377 86.2975 -12.2463
vn 0 1 0
v -1.84221 86.2975 -16.5321
vn 0 1 0
v -2.10606 86.2975 -9.83564
vn 0 1 0
v -2.63377 86.2975 -10.3713
vn 0 1 0
v -2.63377 86.2975 -4.74635
vn 0 1 0
v -2.63377 86.2975 -6.62135
vn 0 1 0
v -2.10606 86.2975 -7.15706
vn 0 1 0
v -2.36992 86.2975 -0.460635
vn 0 1 0
v -2.52162 86.2812 1.19005
vn -0.00140156 0.82214 0.569284
v -1.4499 86.2975 -16.5447
vn 0 1 0
v -1.58113 86.2635 -18.1359
vn 0.0016736 0.870314 -0.492494
v 0.685615 86.2975 -17.5401
vn 0 1 0
v 0.417604 86.2885 -18.066
vn 0.0122131 0.941639 -0.336402
v -0.503223 86.2838 -18.1295
vn -0.00178846 0.847471 -0.530839
v -0.92206 86.2975 -16.5447
vn 0 1 0
v -1.03679 86.2975 -17.8713
vn 0 1 0
v -0.522932 86.2975 -16.5321
vn 0 1 0
v 1.02741 86.3081 -16.1746
vn 0.229365 0.973234 0.0143638
v -0.0704241 86.2975 -4.44492
vn 0 1 0
v -0.140771 86.2975 -5.81778
vn 0 1 0
v 0.414782 86.2975 -8.48765
vn 0 1 0
v -2.36992 48.2975 -15.1928
vn 0 -1 0
v 0.00477859 48.2975 -12.5142
vn 0 -1 0
v -2.10606 48.2975 -12.5142
vn 0 -1 0
v -2.19401 48.2975 -1.79992
vn 0 -1 0
v -2.10606 48.2975 -4.47849
vn 0 -1 0
v -1.05064 48.2975 -4.47849
vn 0 -1 0
v -1.7026 48.2974 0.345226
vn 9.8153e-06 -1 0.000125087
v -1.82755 48.2975 -0.460635
vn 0 -1 0
v 0.268634 48.2975 -15.1928
vn 0 -1 0
v -1.22655 48.2975 -0.460635
vn 0 -1 0
v -1.06162 48.2977 0.4411
vn 0.0982381 -0.993154 0.0631952
v -0.522932 48.2975 -7.15706
vn 0 -1 0
v -0.522932 48.2975 -4.47849
vn 0 -1 0
v -1.05064 48.2975 -7.15706
vn 0 -1 0
v 0.00477859 48.2975 -8.49635
vn 0 -1 0
v 0.00477859 48.2975 -7.15706
vn 0 -1 0
v -0.522932 48.2975 -9.83564
vn 0 -1 0
v 0.0398078 48.2975 -9.83564
vn 0 -1 0
v 0.163279 48.2975 -16.5329
vn 0 -1 0
v 1.02883 48.2942 -16.1745
vn 0.229367 -0.973234 0.0143638
v 0.774065 48.2549 -17.1884
vn 0.0921123 -0.995735 0.00515777
v -2.52533 48.2975 -16.543
vn 0 -0.999984 -0.00556841
v -2.63377 48.2975 -12.2463
vn 0 -1 0
v -2.27977 48.329 -18.2146
vn 0.000360018 -0.939463 -0.34265
v -2.10606 48.2975 -9.83564
vn 0 -1 0
v -2.63377 48.2975 -6.62135
vn 0 -1 0
v -2.63377 48.2975 -10.3713
vn 0 -1 0
v -2.63377 48.2975 -4.74635
vn 0 -1 0
v -2.10606 48.2975 -7.15706
vn 0 -1 0
v -2.36992 48.2975 -0.460635
vn 0 -1 0
v -2.63413 48.298 1.00781
vn -0.00269335 -0.884352 0.466813
v -1.84221 48.2975 -16.5321
vn 0 -1 0
v -1.4499 48.2975 -16.5447
vn 0 -1 0
v -1.5812 48.3313 -18.1375
vn 0.00134097 -0.928264 -0.371919
v -1.85665 48.3148 1.19868
vn -0.000386365 -0.839632 0.543155
v -1.38109 48.4161 1.27081
vn 0.449008 -0.618211 0.645141
v 0.147269 48.2963 -17.6143
vn 0.000995294 -0.999964 -0.00840738
v 1.05156 48.2975 -17.6156
vn 0 -1 0
v -0.92206 48.2975 -16.5447
vn 0 -1 0
v -1.03679 48.2975 -17.8713
vn 0 -1 0
v -0.394221 48.2975 -16.5447
vn 0 -1 0
v -0.515638 48.3314 -18.1377
vn -0.00134097 -0.928264 -0.371919
v -0.0704241 48.2975 -4.44492
vn 0 -1 0
v -0.140771 48.2975 -5.81778
vn 0 -1 0
v 0.414782 48.2975 -8.48765
vn 0 -1 0
v 1.50871 86.0757 -17.0362
vn 0.68618 0.726329 0.040036
v 1.48505 85.904 -16.0965
vn 0.977321 0.202903 0.0606133
v -1.29217 86.1318 1.2318
vn 0.459528 0.659255 0.595161
v -0.736994 85.8496 0.625081
vn 0.825463 0.245899 0.508079
v 1.54901 85.8663 -17.3161
vn 0.99209 0.113415 0.0537963
v 1.25352 85.8453 -12.5574
vn 0.993081 0.0938497 0.0705886
v 1.30775 85.8272 -13.3014
vn 0.993105 0.0944044 0.0695054
v 1.12275 85.8278 -10.8154
vn 0.992271 0.0961061 0.0784991
v 1.17846 85.8453 -11.5476
vn 0.992468 0.0951062 0.0772154
v 0.979634 85.8295 -9.14439
vn 0.991222 0.0984314 0.0882665
v 1.04062 85.8453 -9.85349
vn 0.991457 0.0974412 0.0867062
v 0.93238 85.8453 -8.65336
vn 0.990792 0.0964317 0.0950382
v 0.80868 85.8761 -7.42808
vn 0.989661 0.0968306 0.105809
v 0.620187 85.8216 -5.72135
vn 0.987247 0.0975117 0.125836
v 0.448967 85.8583 -4.45228
vn 0.985883 0.0985279 0.135379
v 0.396207 85.8543 -3.91818
vn 0.979447 0.100064 0.175128
v -0.488842 85.8361 0.101161
vn 0.955267 0.103626 0.276997
v -1.41349 85.9185 1.31692
vn 0.186253 0.294514 0.937321
v -1.57581 85.9061 1.35147
vn 0.157605 0.395174 0.904985
v 1.51323 86.0044 -17.3181
vn 0.910115 0.411434 0.0491165
v 1.50677 85.9984 -17.1719
vn 0.919027 0.390723 0.0522072
v 1.47727 86.0711 -17.3201
vn 0.842426 0.536634 0.0484087
v 1.4723 86.0657 -17.1739
vn 0.842426 0.536634 0.0484087
v 1.41242 86.1511 -17.3238
vn 0.716506 0.696364 0.0411776
v 1.40936 86.1456 -17.1774
vn 0.716506 0.696364 0.0411776
v 1.44699 86.1127 -17.3218
vn 0.783597 0.619636 0.0450207
v 1.44291 86.1072 -17.1755
vn 0.783597 0.619636 0.0450207
v 1.3326 86.216 -17.3282
vn 0.560827 0.827304 0.0322704
v 1.33158 86.211 -17.1818
vn 0.560827 0.827304 0.0322704
v 1.28871 86.2417 -17.3307
vn 0.475073 0.879522 0.0273208
v 1.28863 86.2372 -17.1842
vn 0.475073 0.879522 0.0273208
v 1.37408 86.1857 -17.3259
vn 0.641929 0.765876 0.0368951
v 1.37205 86.1804 -17.1795
vn 0.641929 0.765876 0.0368951
v -1.52003 86.1649 1.19827
vn 0.113777 0.747594 0.654338
v 1.56525 48.7203 -17.0399
vn 0.960459 -0.272844 0.0554426
v 1.48505 48.6911 -16.0966
vn 0.977321 -0.202905 0.0606131
v -0.736996 48.7454 0.625081
vn 0.825461 -0.245906 0.508079
v 1.54901 48.7287 -17.3161
vn 0.992089 -0.113421 0.0537994
v 1.25352 48.7498 -12.5574
vn 0.99308 -0.0938571 0.0705886
v 1.30775 48.7679 -13.3014
vn 0.993104 -0.0944119 0.0695054
v 1.12275 48.7672 -10.8154
vn 0.99227 -0.0961137 0.078499
v 1.17846 48.7498 -11.5476
vn 0.992467 -0.0951137 0.0772153
v 0.979634 48.7655 -9.14439
vn 0.991221 -0.0984392 0.0882664
v 1.04062 48.7498 -9.85349
vn 0.991456 -0.0974489 0.0867062
v 0.93238 48.7498 -8.65336
vn 0.990791 -0.0964393 0.0950381
v 0.80868 48.719 -7.42808
vn 0.98966 -0.0968382 0.105809
v 0.620187 48.7735 -5.72135
vn 0.987246 -0.0975194 0.125836
v 0.448967 48.7368 -4.45228
vn 0.985882 -0.0985357 0.135378
v 0.396206 48.7408 -3.91817
vn 0.979447 -0.100072 0.175128
v -0.488841 48.759 0.101159
vn 0.955266 -0.103634 0.276997
v -1.40524 48.7322 1.33973
vn 0.173232 -0.34319 0.923153
v -1.57581 48.6889 1.35147
vn 0.157602 -0.395176 0.904985
v 1.51323 48.5907 -17.3181
vn 0.910119 -0.411427 0.0490956
v 1.50677 48.5966 -17.1719
vn 0.91904 -0.390694 0.0521888
v 1.47727 48.5239 -17.3201
vn 0.842469 -0.536566 0.0484007
v 1.4723 48.5293 -17.1739
vn 0.842469 -0.536566 0.0484007
v 1.41242 48.444 -17.3238
vn 0.716506 -0.696364 0.0411776
v 1.40936 48.4495 -17.1774
vn 0.716506 -0.696364 0.0411776
v 1.44699 48.4824 -17.3218
vn 0.783654 -0.619563 0.0450276
v 1.44291 48.4879 -17.1755
vn 0.783654 -0.619563 0.0450276
v 1.3326 48.379 -17.3282
vn 0.560932 -0.827234 0.0322365
v 1.33158 48.384 -17.1818
vn 0.560932 -0.827234 0.0322365
v 1.28871 48.3534 -17.3307
vn 0.475075 -0.879522 0.0272979
v 1.28863 48.3579 -17.1842
vn 0.475075 -0.879522 0.0272979
v 1.37408 48.4094 -17.3259
vn 0.641929 -0.765876 0.0368951
v 1.37205 48.4147 -17.1795
vn 0.641929 -0.765876 0.0368951
v -1.8389 86.1473 1.27252
vn -0.000309653 0.693218 0.720728
v -1.70805 85.8809 1.3715
vn -0.000696856 0.166778 0.985994
v -1.57581 85.8885 1.3703
vn -0.000696856 0.166778 0.985994
v -1.70805 85.9285 1.36103
vn -0.000786093 0.262087 0.965044
v -1.57581 85.9351 1.35935
vn -0.000786093 0.262087 0.965044
v -1.57581 85.9816 1.34354
vn -0.000908881 0.356587 0.934262
v -1.70805 85.9757 1.34564
vn -0.000908881 0.356587 0.934262
v -1.57581 86.0272 1.32279
vn -0.000923693 0.448273 0.893896
v -1.70805 86.0216 1.32545
vn -0.000923693 0.448273 0.893896
v -1.57581 86.1319 1.24952
vn 0.00276999 0.666714 0.745308
v -1.70805 86.126 1.2537
vn -0.000276174 0.648654 0.761084
v -1.57581 86.0711 1.29715
vn -0.000929945 0.536614 0.843827
v -1.70805 86.0657 1.30044
vn -0.000929945 0.536614 0.843827
v -1.57581 86.2009 1.17303
vn 0.00277867 0.804769 0.593581
v -1.70805 86.1951 1.17941
vn -0.000165587 0.78951 0.613737
v -1.57581 86.2417 1.1083
vn -0.000529531 0.879525 0.475852
v -1.70805 86.2372 1.11648
vn -0.000529531 0.879525 0.475852
v -1.57581 86.2624 1.0627
vn -0.000447846 0.922466 0.386077
v -1.70805 86.2586 1.07172
vn -0.000447846 0.922466 0.386077
v -1.57581 86.2782 1.01623
vn -0.000282813 0.955594 0.294687
v -1.70805 86.2752 1.02597
vn -0.000282813 0.955594 0.294687
v -1.57581 86.2892 0.969632
vn -0.000206709 0.97926 0.202609
v -1.70805 86.287 0.979951
vn -0.000206709 0.97926 0.202609
v -1.57581 86.2955 0.923578
vn -8.07284e-05 0.993791 0.111261
v -1.70805 86.2943 0.934317
vn -8.07284e-05 0.993791 0.111261
v -2.50153 86.2412 1.04075
vn -0.000948085 0.926543 0.376188
v -2.36903 48.429 1.27194
vn 0.000378533 -0.724327 0.689457
v -1.70805 48.7142 1.3715
vn -0.000700764 -0.166804 0.98599
v -1.57581 48.7066 1.3703
vn -0.000700764 -0.166804 0.98599
v -1.70805 48.6665 1.36103
vn -0.000791962 -0.262126 0.965033
v -1.57581 48.66 1.35935
vn -0.000791962 -0.262126 0.965033
v -1.57581 48.6135 1.34354
vn -0.000901203 -0.356536 0.934281
v -1.70805 48.6193 1.34564
vn -0.000901203 -0.356536 0.934281
v -1.57581 48.5679 1.32279
vn -0.000910763 -0.448273 0.893896
v -1.70805 48.5735 1.32545
vn -0.000910763 -0.448273 0.893896
v -1.57581 48.4632 1.24952
vn 0.00276805 -0.666724 0.7453
v -1.70805 48.4691 1.2537
vn -0.000274085 -0.648601 0.761129
v -1.57581 48.5239 1.29715
vn -0.000918372 -0.536547 0.84387
v -1.70805 48.5293 1.30044
vn -0.000918372 -0.536547 0.84387
v -1.57581 48.3942 1.17303
vn 0.0027868 -0.804805 0.593532
v -1.70805 48.3999 1.17941
vn -0.000186106 -0.789523 0.613721
v -1.57581 48.3534 1.1083
vn -0.000529531 -0.879525 0.475852
v -1.70805 48.3579 1.11648
vn -0.000529531 -0.879525 0.475852
v -1.57581 48.3326 1.0627
vn -0.000423935 -0.922411 0.386209
v -1.70805 48.3365 1.07172
vn -0.000423935 -0.922411 0.386209
v -1.57581 48.3168 1.01623
vn -0.000310378 -0.955594 0.294687
v -1.70805 48.3199 1.02597
vn -0.000310378 -0.955594 0.294687
v -1.57581 48.3059 0.969632
vn -0.000179892 -0.979227 0.202765
v -1.70805 48.308 0.979951
vn -0.000179892 -0.979227 0.202765
v -1.57581 48.2996 0.923578
vn -8.14528e-05 -0.993773 0.111426
v -1.70805 48.3008 0.934317
vn -8.14528e-05 -0.993773 0.111426
v -2.50153 48.3585 1.11626
vn -0.0010539 -0.93965 0.342136
v -2.63377 85.9118 -18.3575
vn -0.00229233 0.224869 -0.974386
v -2.50069 85.9046 -18.3584
vn 0.000266794 0.202136 -0.979358
v -2.50069 85.9757 -18.3383
vn 0.000900435 0.356607 -0.934254
v -2.63377 85.9816 -18.3362
vn 0.000900435 0.356607 -0.934254
v -2.63377 86.0272 -18.3155
vn 0.000915454 0.448303 -0.893881
v -2.50069 86.0216 -18.3182
vn 0.000915454 0.448303 -0.893881
v -2.63377 86.1319 -18.2422
vn -0.00275124 0.666706 -0.745316
v -2.50069 86.126 -18.2464
vn 0.000273358 0.648642 -0.761093
v -2.63377 86.0711 -18.2898
vn 0.000921832 0.536614 -0.843827
v -2.50069 86.0657 -18.2931
vn 0.000921832 0.536614 -0.843827
v -2.63377 86.1857 -18.1865
vn 0.000683754 0.765856 -0.643011
v -2.50069 86.1804 -18.1927
vn 0.000683754 0.765856 -0.643011
v -2.63377 86.2289 -18.123
vn -0.00271854 0.860986 -0.508621
v -2.50069 86.2235 -18.1304
vn 0.000138873 0.847592 -0.530648
v -2.63377 86.2624 -18.0554
vn 0.000446344 0.922468 -0.386074
v -2.50069 86.2586 -18.0644
vn 0.000446344 0.922468 -0.386074
v -2.63377 86.2782 -18.0089
vn 0.000282619 0.955594 -0.294687
v -2.50069 86.2752 -18.0187
vn 0.000282619 0.955594 -0.294687
v -2.63377 86.2892 -17.9623
vn 0.000205151 0.979262 -0.2026
v -2.50069 86.287 -17.9726
vn 0.000205151 0.979262 -0.2026
v -2.63377 86.2955 -17.9163
vn 8.11602e-05 0.993791 -0.111259
v -2.50069 86.2943 -17.927
vn 8.11602e-05 0.993791 -0.111259
v 0.338066 48.4101 -18.2568
vn 0.00288682 -0.675463 -0.737389
v -2.63377 48.6833 -18.3575
vn -0.00228862 -0.224889 -0.974382
v -2.50069 48.6905 -18.3584
vn 0.000271352 -0.202162 -0.979352
v -2.50069 48.6193 -18.3383
vn 0.000892804 -0.356557 -0.934273
v -2.63377 48.6135 -18.3362
vn 0.000892804 -0.356557 -0.934273
v -2.63377 48.5679 -18.3155
vn 0.000902604 -0.448303 -0.893881
v -2.50069 48.5735 -18.3182
vn 0.000902604 -0.448303 -0.893881
v -2.63377 48.5239 -18.2898
vn 0.000910332 -0.536547 -0.84387
v -2.50069 48.5293 -18.2931
vn 0.000910332 -0.536547 -0.84387
v -2.63377 48.4632 -18.2422
vn -0.00274931 -0.666715 -0.745307
v -2.50069 48.4691 -18.2464
vn 0.000271282 -0.64859 -0.761138
v -2.63377 48.4094 -18.1865
vn 0.00072766 -0.765856 -0.643011
v -2.50069 48.4147 -18.1927
vn 0.00072766 -0.765856 -0.643011
v -2.63377 48.3662 -18.123
vn -0.0027313 -0.860975 -0.508639
v -2.50069 48.3716 -18.1304
vn 0.00012051 -0.847628 -0.530592
v -2.63377 48.3326 -18.0554
vn 0.000422584 -0.922413 -0.386206
v -2.50069 48.3365 -18.0644
vn 0.000422584 -0.922413 -0.386206
v -2.63377 48.3168 -18.0089
vn 0.000310011 -0.955594 -0.294687
v -2.50069 48.3199 -18.0187
vn 0.000310011 -0.955594 -0.294687
v -2.63377 48.3059 -17.9623
vn 0.000178501 -0.979229 -0.202756
v -2.50069 48.308 -17.9726
vn 0.000178501 -0.979229 -0.202756
v -2.63377 48.2996 -17.9163
vn 8.18815e-05 -0.993773 -0.111425
v -2.50069 48.3008 -17.927
vn 8.18815e-05 -0.993773 -0.111425
v 1.42567 86.1284 -17.323
vn 0.758105 0.652032 -0.0114714
v 1.32227 86.2181 -17.4841
vn 0.505253 0.862694 -0.0218793
v 1.31066 86.2289 -17.3294
vn 0.505253 0.862694 -0.0218793
v 1.21998 86.2703 -17.3345
vn 0.32304 0.946283 -0.0139118
v 1.23458 86.2633 -17.4711
vn 0.32304 0.946283 -0.0139118
v 1.12727 86.2923 -17.3397
vn 0.136579 0.990612 -0.00578181
v 1.14366 86.2894 -17.4577
vn 0.136579 0.990612 -0.00578181
v 1.42567 48.4666 -17.323
vn 0.758127 -0.652006 -0.0114542
v 1.32227 48.3769 -17.4841
vn 0.505309 -0.862662 -0.0218622
v 1.31066 48.3662 -17.3294
vn 0.505309 -0.862662 -0.0218622
v 1.21998 48.3247 -17.3345
vn 0.323108 -0.94626 -0.0138901
v 1.23458 48.3317 -17.4711
vn 0.323108 -0.94626 -0.0138901
v 1.12727 48.3027 -17.3397
vn 0.136577 -0.990613 -0.00575003
v 1.14366 48.3057 -17.4577
vn 0.136577 -0.990613 -0.00575003
f 2//2 3//3 1//1
f 4//4 5//5 6//6
f 7//7 8//8 4//4
f 5//5 4//4 8//8
f 9//9 10//10 3//3
f 11//11 12//12 13//13
f 15//15 1//1 3//3
f 18//18 16//16 17//17
f 19//19 20//20 21//21
f 22//22 2//2 1//1
f 14//14 2//2 22//22
f 23//23 14//14 22//22
f 24//24 25//25 26//26
f 27//27 28//28 24//24
f 27//27 24//24 26//26
f 29//29 31//31 30//30
f 32//32 29//29 30//30
f 33//33 34//34 35//35
f 34//34 33//33 36//36
f 37//37 36//36 33//33
f 38//38 32//32 30//30
f 41//41 40//40 39//39
f 31//31 29//29 42//42
f 31//31 42//42 43//43
f 44//44 32//32 38//38
f 47//47 45//45 46//46
f 49//49 48//48 50//50
f 53//53 51//51 52//52
f 53//53 55//55 54//54
f 55//55 53//53 52//52
f 56//56 57//57 58//58
f 60//60 61//61 62//62
f 56//56 59//59 57//57
f 57//57 63//63 64//64
f 59//59 63//63 57//57
f 65//65 66//66 67//67
f 66//66 68//68 67//67
f 69//69 70//70 71//71
f 72//72 73//73 74//74
f 75//75 76//76 77//77
f 73//73 72//72 78//78
f 79//79 80//80 81//81
f 85//85 86//86 87//87
f 91//91 83//83 92//92
f 79//79 84//84 80//80
f 85//85 90//90 86//86
f 82//82 92//92 83//83
f 93//93 89//89 88//88
f 89//89 93//93 94//94
f 95//95 96//96 97//97
f 97//97 98//98 95//95
f 99//99 100//100 101//101
f 102//102 103//103 104//104
f 105//105 107//107 106//106
f 111//111 108//108 110//110
f 112//112 110//110 108//108
f 108//108 113//113 112//112
f 114//114 106//106 107//107
f 106//106 114//114 115//115
f 118//118 119//119 120//120
f 122//122 116//116 121//121
f 123//123 116//116 122//122
f 124//124 118//118 120//120
f 116//116 117//117 121//121
f 125//125 120//120 126//126
f 127//127 129//129 128//128
f 123//123 122//122 130//130
f 120//120 131//131 124//124
f 132//132 131//131 120//120
f 133//133 134//134 127//127
f 128//128 133//133 127//127
f 132//132 135//135 131//131
f 134//134 133//133 136//136
f 142//142 141//141 137//137
f 137//137 141//141 138//138
f 143//143 144//144 140//140
f 148//148 147//147 146//146
f 145//145 146//146 147//147
f 143//143 140//140 149//149
f 139//139 149//149 140//140
f 142//142 150//150 151//151
f 152//152 149//149 139//139
f 152//152 153//153 149//149
f 146//146 145//145 155//155
f 154//154 149//149 156//156
f 155//155 157//157 146//146
f 151//151 141//141 142//142
f 159//159 160//160 158//158
f 162//162 163//163 161//161
f 159//159 158//158 164//164
f 165//165 161//161 163//163
f 170//170 171//171 172//172
f 174//174 173//173 172//172
f 173//173 158//158 170//170
f 174//174 175//175 173//173
f 175//175 174//174 176//176
f 172//172 173//173 170//170
f 177//177 178//178 179//179
f 180//180 179//179 178//178
f 179//179 180//180 181//181
f 182//182 183//183 184//184
f 185//185 182//182 184//184
f 180//180 186//186 181//181
f 189//189 190//190 191//191
f 167//167 166//166 192//192
f 193//193 192//192 191//191
f 190//190 193//193 191//191
f 193//193 167//167 192//192
f 196//196 168//168 169//169
f 196//196 199//199 197//197
f 198//198 197//197 199//199
f 200//200 199//199 196//196
f 196//196 169//169 200//200
f 203//203 193//193 190//190
f 204//204 200//200 193//193
f 204//204 199//199 200//200
f 193//193 203//203 204//204
f 190//190 206//206 203//203
f 206//206 190//190 201//201
f 205//205 202//202 201//201
f 202//202 207//207 201//201
f 199//199 207//207 202//202
f 204//204 207//207 199//199
f 210//210 208//208 209//209
f 209//209 211//211 210//210
f 210//210 212//212 213//213
f 212//212 210//210 211//211
f 212//212 214//214 213//213
f 214//214 215//215 213//213
f 216//216 217//217 218//218
f 208//208 219//219 209//209
f 220//220 219//219 208//208
f 221//221 222//222 223//223
f 226//226 228//228 227//227
f 224//224 225//225 229//229
f 230//230 231//231 232//232
f 233//233 234//234 235//235
f 236//236 237//237 238//238
f 239//239 240//240 241//241
f 242//242 243//243 244//244
f 245//245 246//246 247//247
f 248//248 249//249 250//250
f 251//251 252//252 253//253
f 254//254 255//255 256//256
f 220//220 257//257 219//219
f 220//220 258//258 257//257
f 260//260 261//261 259//259
f 262//262 261//261 260//260
f 263//263 264//264 265//265
f 264//264 263//263 266//266
f 263//263 265//265 261//261
f 267//267 268//268 269//269
f 265//265 269//269 268//268
f 268//268 261//261 265//265
f 268//268 259//259 261//261
f 271//271 272//272 273//273
f 274//274 275//275 276//276
f 269//269 270//270 267//267
f 262//262 260//260 264//264
f 266//266 262//262 264//264
f 279//279 278//278 280//280
f 281//281 282//282 283//283
f 284//284 282//282 281//281
f 281//281 259//259 284//284
f 260//260 259//259 281//281
f 279//279 277//277 278//278
f 286//286 285//285 287//287
f 288//288 286//286 289//289
f 285//285 286//286 288//288
f 288//288 290//290 291//291
f 288//288 291//291 285//285
f 292//292 294//294 295//295
f 294//294 292//292 296//296
f 297//297 298//298 299//299
f 297//297 293//293 298//298
f 300//300 301//301 302//302
f 300//300 302//302 303//303
f 300//300 304//304 301//301
f 305//305 304//304 298//298
f 305//305 301//301 304//304
f 305//305 306//306 301//301
f 302//302 307//307 303//303
f 308//308 303//303 307//307
f 303//303 308//308 297//297
f 309//309 296//296 308//308
f 285//285 308//308 307//307
f 291//291 310//310 309//309
f 309//309 285//285 291//291
f 308//308 285//285 309//309
f 306//306 295//295 311//311
f 291//291 294//294 310//310
f 294//294 312//312 313//313
f 313//313 306//306 311//311
f 294//294 291//291 312//312
f 312//312 306//306 313//313
f 315//315 306//306 312//312
f 316//316 312//312 291//291
f 290//290 316//316 291//291
f 306//306 305//305 295//295
f 287//287 285//285 317//317
f 318//318 289//289 319//319
f 317//317 316//316 287//287
f 287//287 316//316 319//319
f 318//318 319//319 316//316
f 316//316 290//290 318//318
f 320//320 321//321 322//322
f 322//322 323//323 320//320
f 324//324 325//325 323//323
f 322//322 324//324 323//323
f 326//326 327//327 324//324
f 322//322 326//326 324//324
f 328//328 329//329 330//330
f 328//328 330//330 331//331
f 332//332 334//334 329//329
f 329//329 335//335 332//332
f 336//336 337//337 338//338
f 336//336 339//339 337//337
f 340//340 336//336 338//338
f 340//340 341//341 334//334
f 341//341 340//340 338//338
f 341//341 338//338 342//342
f 337//337 339//339 343//343
f 344//344 339//339 335//335
f 339//339 344//344 343//343
f 345//345 343//343 344//344
f 344//344 328//328 346//346
f 345//345 346//346 322//322
f 344//344 346//346 345//345
f 330//330 341//341 347//347
f 331//331 348//348 326//326
f 348//348 347//347 349//349
f 331//331 326//326 322//322
f 326//326 348//348 349//349
f 327//327 326//326 350//350
f 349//349 347//347 342//342
f 342//342 347//347 341//341
f 321//321 345//345 322//322
f 351//351 352//352 325//325
f 345//345 320//320 350//350
f 320//320 352//352 350//350
f 351//351 350//350 352//352
f 321//321 320//320 345//345
f 350//350 351//351 327//327
f 257//257 357//357 219//219
f 353//353 354//354 358//358
f 359//359 214//214 212//212
f 355//355 360//360 356//356
f 362//362 190//190 361//361
f 369//369 370//370 371//371
f 372//372 374//374 373//373
f 376//376 377//377 375//375
f 378//378 376//376 375//375
f 387//387 386//386 388//388
f 388//388 389//389 387//387
f 394//394 395//395 396//396
f 397//397 395//395 394//394
f 394//394 398//398 399//399
f 398//398 394//394 396//396
f 400//400 399//399 398//398
f 400//400 398//398 401//401
f 402//402 403//403 404//404
f 407//407 405//405 403//403
f 403//403 406//406 407//407
f 406//406 408//408 407//407
f 408//408 406//406 403//403
f 403//403 402//402 408//408
f 409//409 408//408 402//402
f 405//405 409//409 404//404
f 402//402 404//404 409//409
f 419//419 417//417 418//418
f 428//428 429//429 430//430
f 429//429 428//428 431//431
f 431//431 432//432 429//429
f 433//433 431//431 434//434
f 432//432 431//431 433//433
f 436//436 437//437 433//433
f 438//438 439//439 440//440
f 439//439 435//435 437//437
f 440//440 441//441 442//442
f 441//441 440//440 439//439
f 446//446 444//444 442//442
f 444//444 446//446 445//445
f 445//445 447//447 448//448
f 445//445 446//446 447//447
f 451//451 450//450 448//448
f 443//443 447//447 446//446
f 452//452 447//447 443//443
f 447//447 452//452 453//453
f 455//455 456//456 454//454
f 455//455 454//454 458//458
f 456//456 457//457 454//454
f 458//458 459//459 455//455
f 460//460 457//457 456//456
f 461//461 449//449 457//457
f 450//450 451//451 458//458
f 458//458 451//451 459//459
f 451//451 462//462 459//459
f 449//449 461//461 445//445
f 457//457 449//449 450//450
f 463//463 462//462 451//451
f 445//445 461//461 444//444
f 461//461 464//464 444//444
f 444//444 464//464 438//438
f 464//464 429//429 435//435
f 464//464 439//439 438//438
f 464//464 435//435 439//439
f 435//435 429//429 432//432
f 465//465 430//430 429//429
f 465//465 428//428 430//430
f 468//468 469//469 466//466
f 467//467 468//468 466//466
f 471//471 472//472 473//473
f 470//470 469//469 468//468
f 439//439 437//437 474//474
f 475//475 476//476 434//434
f 436//436 474//474 437//437
f 443//443 441//441 452//452
f 428//428 478//478 475//475
f 465//465 478//478 428//428
f 476//476 475//475 478//478
f 479//479 477//477 436//436
f 480//480 481//481 482//482
f 485//485 484//484 483//483
f 436//436 477//477 474//474
f 485//485 453//453 486//486
f 484//484 485//485 486//486
f 452//452 486//486 453//453
f 489//489 490//490 487//487
f 488//488 489//489 487//487
f 491//491 488//488 487//487
f 492//492 493//493 494//494
f 492//492 494//494 489//489
f 496//496 497//497 495//495
f 500//500 498//498 499//499
f 498//498 500//500 501//501
f 502//502 503//503 499//499
f 504//504 503//503 502//502
f 498//498 502//502 499//499
f 506//506 507//507 494//494
f 494//494 505//505 506//506
f 507//507 506//506 497//497
f 504//504 502//502 492//492
f 491//491 508//508 504//504
f 491//491 487//487 508//508
f 504//504 492//492 491//491
f 508//508 509//509 510//510
f 509//509 508//508 511//511
f 508//508 487//487 511//511
f 497//497 490//490 507//507
f 512//512 510//510 509//509
f 497//497 506//506 514//514
f 517//517 515//515 516//516
f 518//518 519//519 520//520
f 521//521 517//517 516//516
f 497//497 514//514 495//495
f 496//496 511//511 487//487
f 522//522 509//509 511//511
f 523//523 524//524 510//510
f 523//523 510//510 512//512
f 522//522 524//524 523//523
f 524//524 522//522 511//511
f 525//525 526//526 527//527
f 528//528 526//526 525//525
f 496//496 495//495 511//511
f 495//495 529//529 530//530
f 511//511 495//495 530//530
f 190//190 188//188 455//455
f 361//361 534//534 459//459
f 534//534 361//361 190//190
f 459//459 534//534 455//455
f 567//567 566//566 416//416
f 567//567 465//465 566//566
f 410//410 211//211 564//564
f 477//477 479//479 565//565
f 566//566 415//415 416//416
f 465//465 571//571 570//570
f 457//457 460//460 426//426
f 465//465 429//429 571//571
f 427//427 426//426 460//460
f 590//590 591//591 589//589
f 592//592 590//590 589//589
f 593//593 590//590 592//592
f 594//594 590//590 593//593
f 594//594 595//595 590//590
f 589//589 591//591 595//595
f 590//590 595//595 591//591
f 595//595 594//594 593//593
f 596//596 597//597 598//598
f 598//598 597//597 599//599
f 596//596 600//600 597//597
f 600//600 596//596 601//601
f 601//601 602//602 600//600
f 600//600 602//602 603//603
f 608//608 606//606 607//607
f 604//604 605//605 619//619
f 619//619 620//620 604//604
f 622//622 202//202 621//621
f 625//625 623//623 624//624
f 630//630 631//631 632//632
f 639//639 640//640 641//641
f 640//640 639//639 642//642
f 643//643 640//640 644//644
f 645//645 646//646 644//644
f 646//646 643//643 644//644
f 646//646 647//647 648//648
f 649//649 650//650 651//651
f 652//652 650//650 649//649
f 654//654 653//653 655//655
f 648//648 647//647 655//655
f 653//653 650//650 652//652
f 650//650 653//653 656//656
f 657//657 650//650 658//658
f 650//650 657//657 659//659
f 660//660 661//661 662//662
f 663//663 660//660 665//665
f 660//660 663//663 661//661
f 664//664 661//661 663//663
f 664//664 666//666 661//661
f 649//649 665//665 660//660
f 649//649 667//667 665//665
f 668//668 652//652 649//649
f 646//646 669//669 643//643
f 648//648 652//652 668//668
f 670//670 643//643 669//669
f 671//671 672//672 673//673
f 670//670 674//674 643//643
f 672//672 671//671 641//641
f 659//659 677//677 676//676
f 659//659 676//676 675//675
f 678//678 677//677 657//657
f 656//656 653//653 679//679
f 659//659 657//657 677//677
f 681//681 680//680 682//682
f 680//680 681//681 678//678
f 683//683 684//684 658//658
f 679//679 684//684 683//683
f 656//656 679//679 683//683
f 684//684 681//681 682//682
f 658//658 684//684 682//682
f 680//680 678//678 657//657
f 642//642 686//686 645//645
f 645//645 685//685 646//646
f 685//685 645//645 686//686
f 687//687 647//647 646//646
f 686//686 642//642 639//639
f 654//654 679//679 653//653
f 646//646 685//685 687//687
f 685//685 654//654 687//687
f 679//679 654//654 685//685
f 689//689 690//690 688//688
f 691//691 693//693 694//694
f 695//695 696//696 693//693
f 693//693 691//691 692//692
f 695//695 693//693 692//692
f 697//697 698//698 699//699
f 697//697 699//699 696//696
f 703//703 702//702 700//700
f 704//704 700//700 702//702
f 703//703 700//700 705//705
f 705//705 689//689 703//703
f 688//688 703//703 689//689
f 706//706 689//689 705//705
f 700//700 704//704 709//709
f 688//688 711//711 710//710
f 690//690 712//712 688//688
f 711//711 688//688 712//712
f 690//690 692//692 712//712
f 691//691 713//713 714//714
f 691//691 716//716 715//715
f 691//691 714//714 716//716
f 715//715 716//716 717//717
f 695//695 707//707 718//718
f 708//708 718//718 707//707
f 708//708 719//719 697//697
f 708//708 697//697 718//718
f 708//708 720//720 719//719
f 719//719 720//720 721//721
f 720//720 722//722 721//721
f 721//721 722//722 723//723
f 713//713 724//724 725//725
f 691//691 724//724 713//713
f 725//725 726//726 727//727
f 725//725 727//727 713//713
f 712//712 692//692 691//691
f 729//729 694//694 699//699
f 724//724 691//691 694//694
f 694//694 729//729 724//724
f 722//722 729//729 723//723
f 729//729 699//699 723//723
f 574//574 730//730 684//684
f 733//733 731//731 686//686
f 681//681 684//684 730//730
f 759//759 758//758 686//686
f 674//674 670//670 760//760
f 677//677 764//764 633//633
f 762//762 621//621 202//202
f 661//661 763//763 662//662
f 635//635 633//633 764//764
f 678//678 764//764 677//677
f 636//636 635//635 678//678
f 771//771 772//772 773//773
f 771//771 774//774 772//772
f 774//774 776//776 775//775
f 774//774 775//775 772//772
f 777//777 779//779 780//780
f 781//781 780//780 779//779
f 780//780 778//778 777//777
f 778//778 771//771 773//773
f 777//777 778//778 773//773
f 783//783 784//784 782//782
f 785//785 782//782 784//784
f 773//773 772//772 785//785
f 784//784 773//773 785//785
f 784//784 786//786 773//773
f 786//786 787//787 773//773
f 786//786 788//788 787//787
f 790//790 791//791 789//789
f 783//783 782//782 791//791
f 790//790 783//783 791//791
f 790//790 789//789 792//792
f 793//793 795//795 794//794
f 796//796 787//787 788//788
f 788//788 795//795 796//796
f 793//793 796//796 795//795
f 797//797 798//798 792//792
f 798//798 790//790 792//792
f 799//799 798//798 800//800
f 798//798 797//797 800//800
f 795//795 799//799 794//794
f 799//799 800//800 794//794
f 801//801 802//802 803//803
f 803//803 797//797 801//801
f 797//797 792//792 801//801
f 805//805 803//803 804//804
f 802//802 804//804 803//803
f 806//806 794//794 800//800
f 800//800 805//805 806//806
f 804//804 806//806 805//805
f 808//808 809//809 807//807
f 812//812 810//810 811//811
f 802//802 801//801 812//812
f 811//811 802//802 812//812
f 813//813 814//814 815//815
f 808//808 812//812 813//813
f 813//813 815//815 808//808
f 808//808 810//810 812//812
f 813//813 816//816 814//814
f 817//817 815//815 814//814
f 828//828 826//826 827//827
f 827//827 829//829 828//828
f 831//831 832//832 830//830
f 827//827 826//826 824//824
f 824//824 830//830 832//832
f 827//827 824//824 832//832
f 830//830 806//806 804//804
f 804//804 833//833 830//830
f 831//831 830//830 833//833
f 810//810 831//831 833//833
f 833//833 811//811 810//810
f 832//832 808//808 807//807
f 843//843 842//842 844//844
f 774//774 845//845 776//776
f 774//774 846//846 845//845
f 847//847 846//846 774//774
f 772//772 843//843 848//848
f 774//774 849//849 847//847
f 849//849 774//774 850//850
f 851//851 856//856 853//853
f 855//855 857//857 858//858
f 861//861 859//859 865//865
f 863//863 864//864 862//862
f 866//866 864//864 863//863
f 853//853 852//852 851//851
f 861//861 860//860 859//859
f 854//854 855//855 858//858
f 862//862 864//864 789//789
f 843//843 844//844 848//848
f 774//774 871//871 850//850
f 780//780 873//873 872//872
f 780//780 781//781 873//873
f 872//872 871//871 774//774
f 774//774 780//780 872//872
f 886//886 887//887 888//888
f 891//891 892//892 893//893
f 894//894 890//890 889//889
f 895//895 793//793 896//896
f 895//895 896//896 897//897
f 897//897 896//896 898//898
f 896//896 899//899 898//898
f 884//884 777//777 885//885
f 816//816 813//813 908//908
f 817//817 816//816 908//908
f 816//816 817//817 814//814
f 908//908 931//931 817//817
f 932//932 829//829 817//817
f 829//829 932//932 828//828
f 817//817 931//931 932//932
f 931//931 828//828 932//932
f 931//931 823//823 828//828
f 933//933 934//934 935//935
f 935//935 936//936 933//933
f 938//938 939//939 933//933
f 937//937 938//938 933//933
f 940//940 938//938 941//941
f 944//944 943//943 942//942
f 943//943 945//945 946//946
f 946//946 947//947 943//943
f 948//948 946//946 949//949
f 948//948 949//949 950//950
f 951//951 952//952 953//953
f 953//953 954//954 951//951
f 950//950 956//956 957//957
f 955//955 950//950 957//957
f 958//958 959//959 960//960
f 958//958 960//960 961//961
f 962//962 963//963 964//964
f 964//964 965//965 962//962
f 967//967 968//968 959//959
f 966//966 967//967 959//959
f 967//967 971//971 969//969
f 969//969 970//970 967//967
f 972//972 973//973 969//969
f 974//974 975//975 976//976
f 976//976 977//977 978//978
f 978//978 979//979 976//976
f 978//978 981//981 962//962
f 980//980 978//978 962//962
f 937//937 982//982 941//941
f 986//986 987//987 988//988
f 937//937 941//941 938//938
f 991//991 939//939 940//940
f 939//939 991//991 990//990
f 983//983 984//984 936//936
f 985//985 983//983 954//954
f 982//982 983//983 985//985
f 937//937 984//984 982//982
f 991//991 934//934 990//990
f 992//992 993//993 952//952
f 992//992 991//991 993//993
f 987//987 989//989 988//988
f 934//934 991//991 992//992
f 983//983 982//982 984//984
f 994//994 945//945 944//944
f 998//998 999//999 1000//1000
f 994//994 949//949 996//996
f 949//949 994//994 995//995
f 999//999 998//998 1001//1001
f 994//994 997//997 995//995
f 995//995 997//997 956//956
f 1003//1003 1004//1004 1005//1005
f 955//955 1003//1003 1005//1005
f 1004//1004 948//948 1005//1005
f 1004//1004 947//947 1002//1002
f 1004//1004 942//942 947//947
f 1004//1004 1002//1002 948//948
f 996//996 945//945 994//994
f 971//971 1009//1009 1006//1006
f 971//971 1006//1006 969//969
f 966//966 1006//1006 1009//1009
f 1006//1006 972//972 969//969
f 1007//1007 958//958 1008//1008
f 1006//1006 1007//1007 1008//1008
f 1007//1007 1006//1006 966//966
f 1010//1010 960//960 1011//1011
f 1012//1012 1011//1011 968//968
f 1012//1012 1010//1010 1011//1011
f 968//968 1013//1013 1012//1012
f 1012//1012 1013//1013 970//970
f 970//970 973//973 1012//1012
f 1014//1014 1015//1015 1016//1016
f 1017//1017 1018//1018 1019//1019
f 1020//1020 1021//1021 963//963
f 981//981 1022//1022 1020//1020
f 1022//1022 1021//1021 1020//1020
f 1019//1019 1018//1018 965//965
f 1023//1023 980//980 1017//1017
f 1018//1018 1017//1017 980//980
f 1024//1024 1022//1022 981//981
f 977//977 1022//1022 1024//1024
f 1022//1022 977//977 975//975
f 1017//1017 979//979 1023//1023
f 1025//1025 1026//1026 1027//1027
f 979//979 1017//1017 974//974
f 1029//1029 1030//1030 1028//1028
f 1031//1031 1032//1032 1030//1030
f 1028//1028 1030//1030 1032//1032
f 1029//1029 1034//1034 1033//1033
f 1029//1029 1028//1028 1034//1034
f 1035//1035 1036//1036 1037//1037
f 1039//1039 1035//1035 1037//1037
f 1038//1038 1039//1039 1037//1037
f 1040//1040 1041//1041 1038//1038
f 1038//1038 1037//1037 1040//1040
f 1042//1042 1043//1043 1044//1044
f 1045//1045 1046//1046 1047//1047
f 1046//1046 1045//1045 1048//1048
f 1030//1030 1038//1038 1031//1031
f 1038//1038 1049//1049 1031//1031
f 1049//1049 1051//1051 1050//1050
f 1041//1041 1049//1049 1038//1038
f 1045//1045 1047//1047 1052//1052
f 1029//1029 1053//1053 1054//1054
f 1029//1029 1033//1033 1053//1053
f 1055//1055 1056//1056 1057//1057
f 1039//1039 1058//1058 1035//1035
f 1061//1061 1059//1059 1060//1060
f 1058//1058 1060//1060 1035//1035
f 1062//1062 1064//1064 1063//1063
f 1060//1060 1058//1058 1061//1061
f 1066//1066 1067//1067 1065//1065
f 1068//1068 1061//1061 1069//1069
f 1066//1066 1065//1065 1070//1070
f 1069//1069 1071//1071 879//879
f 1066//1066 1070//1070 835//835
f 1072//1072 1066//1066 835//835
f 835//835 775//775 1072//1072
f 1071//1071 779//779 879//879
f 1068//1068 1069//1069 879//879
f 1081//1081 1080//1080 1082//1082
f 1084//1084 1083//1083 1085//1085
f 1087//1087 1086//1086 1085//1085
f 1083//1083 1087//1087 1085//1085
f 1088//1088 1086//1086 1089//1089
f 1085//1085 1086//1086 1088//1088
f 1090//1090 1085//1085 1091//1091
f 1085//1085 1090//1090 1092//1092
f 1080//1080 1081//1081 1093//1093
f 1094//1094 1090//1090 1095//1095
f 1096//1096 1094//1094 1097//1097
f 1094//1094 1096//1096 1090//1090
f 1099//1099 1098//1098 1093//1093
f 1093//1093 1081//1081 1099//1099
f 1099//1099 1100//1100 1098//1098
f 1102//1102 1080//1080 1101//1101
f 1101//1101 1103//1103 1042//1042
f 1102//1102 1082//1082 1080//1080
f 1084//1084 1106//1106 1083//1083
f 1107//1107 1108//1108 1105//1105
f 1109//1109 1083//1083 1106//1106
f 1110//1110 1109//1109 1106//1106
f 1104//1104 1105//1105 1108//1108
f 1086//1086 1087//1087 1109//1109
f 1110//1110 1086//1086 1109//1109
f 1089//1089 1085//1085 1088//1088
f 1100//1100 1114//1114 1115//1115
f 1114//1114 1100//1100 1113//1113
f 1098//1098 1115//1115 1118//1118
f 1098//1098 1100//1100 1115//1115
f 1100//1100 1099//1099 1119//1119
f 1099//1099 1081//1081 1097//1097
f 1122//1122 1094//1094 1095//1095
f 1089//1089 1120//1120 1091//1091
f 1085//1085 1089//1089 1091//1091
f 1119//1119 1099//1099 1122//1122
f 1095//1095 1121//1121 1122//1122
f 1122//1122 1121//1121 1120//1120
f 1124//1124 1125//1125 1123//1123
f 1127//1127 1128//1128 1126//1126
f 1130//1130 1128//1128 1129//1129
f 1126//1126 1128//1128 1130//1130
f 1124//1124 1123//1123 1131//1131
f 1132//1132 1133//1133 1129//1129
f 1128//1128 1132//1132 1129//1129
f 1134//1134 1135//1135 1128//1128
f 1128//1128 1136//1136 1134//1134
f 1138//1138 1134//1134 1139//1139
f 1139//1139 1140//1140 1137//1137
f 1137//1137 1138//1138 1139//1139
f 1142//1142 1131//1131 1141//1141
f 1131//1131 1142//1142 1124//1124
f 1142//1142 1141//1141 1143//1143
f 1145//1145 1123//1123 1125//1125
f 1145//1145 1144//1144 1123//1123
f 1147//1147 1148//1148 1149//1149
f 1127//1127 1126//1126 1150//1150
f 1152//1152 1150//1150 1126//1126
f 1153//1153 1150//1150 1152//1152
f 1147//1147 1151//1151 1148//1148
f 1146//1146 1154//1154 1144//1144
f 1129//1129 1157//1157 1130//1130
f 1133//1133 1132//1132 1128//1128
f 1157//1157 1152//1152 1130//1130
f 1153//1153 1152//1152 1157//1157
f 1158//1158 1129//1129 1133//1133
f 1167//1167 1138//1138 1137//1137
f 1167//1167 1166//1166 1138//1138
f 1133//1133 1135//1135 1165//1165
f 1128//1128 1135//1135 1133//1133
f 1142//1142 1167//1167 1124//1124
f 1124//1124 1167//1167 1140//1140
f 1165//1165 1166//1166 1167//1167
f 1169//1169 1168//1168 1119//1119
f 1089//1089 1170//1170 1171//1171
f 1089//1089 1086//1086 1170//1170
f 1100//1100 1119//1119 1168//1168
f 1143//1143 1202//1202 1142//1142
f 1203//1203 1142//1142 1202//1202
f 1133//1133 1204//1204 1158//1158
f 1110//1110 1234//1234 1086//1086
f 1046//1046 1042//1042 1112//1112
f 1115//1115 1052//1052 1047//1047
f 1052//1052 1115//1115 1114//1114
f 1050//1050 1156//1156 1146//1146
f 1164//1164 1059//1059 1308//1308
f 1049//1049 1050//1050 1146//1146
f 1061//1061 1308//1308 1059//1059
f 1164//1164 1308//1308 1159//1159
f 1061//1061 1159//1159 1308//1308
