# Created by Open3D 
# object name: InfoWheels Bench DS 52in Forward
# number of vertices: 740
# number of triangles: 1490
v 75.3588 -69.8274 -18.3713
vn -0.973986 -0.0288233 0.224766
v 75.3588 -69.8274 -24.8713
vn -0.993382 -0.00734933 -0.114621
v 75.3588 -19.14 -18.3713
vn -0.998313 0.00738581 0.057595
v 75.3588 -19.14 -24.8713
vn -0.99298 0.0293854 -0.114575
v 76.1088 -19.14 -18.3713
vn 0.973986 0.0288233 0.224766
v 76.1088 -19.14 -24.8713
vn 0.993382 0.00734933 -0.114621
v 76.1088 -69.8274 -18.3713
vn 0.998313 -0.00738581 0.057595
v 76.1088 -69.8274 -24.8713
vn 0.99298 -0.0293854 -0.114575
v 75.3588 -19.14 -23.6213
vn 0.0802428 0.0291882 0.996348
v 75.3588 -69.8274 -23.6213
vn 0.020128 -0.0146431 0.99969
v 56.7338 -19.14 -23.6213
vn -0.0201296 0.00739659 0.99977
v 56.7338 -69.8274 -23.6213
vn -0.0802683 -0.0147472 0.996664
v 56.7338 -19.14 -24.3713
vn -1 0 0
v 56.7338 -69.8274 -24.3713
vn -1 0 0
v 57.1088 -19.14 -24.3713
vn 0 0.0298838 -0.999553
v 57.1088 -69.8274 -24.3713
vn 0 -0.0149469 -0.999888
v 75.3588 -19.14 -24.3713
vn 0.020543 0.00739652 -0.999762
v 75.3588 -69.8274 -24.3713
vn 0.0819067 -0.0147452 -0.996531
v 66.4838 -19.14 -36.3713
vn 0.274693 0.0142258 -0.961427
v 66.4838 -19.14 -35.6213
vn 0.141361 0.0292832 0.989525
v 61.2338 -19.14 -36.3713
vn -0.0712393 0.0147574 -0.99735
v 61.2338 -19.14 -35.6213
vn -0.141418 0.00732374 0.989923
v 61.2338 -69.8274 -36.3713
vn -0.274693 -0.0142258 -0.961427
v 61.2338 -69.8274 -35.6213
vn -0.141361 -0.0292832 0.989525
v 66.4838 -69.8274 -36.3713
vn 0.0712393 -0.0147574 -0.99735
v 66.4838 -69.8274 -35.6213
vn 0.141418 -0.00732374 0.989923
v 54.9211 -69.8274 -20.4234
vn -0.933723 0.00377365 -0.357976
v 54.9211 -44.4837 -20.4234
vn -0.931314 0 -0.364217
v 54.9211 -19.14 -20.4234
vn -0.932502 -0.00689108 -0.361099
v 54.8298 -19.14 -20.0764
vn -0.995644 0 -0.0932353
v 54.8248 -69.8274 -19.7067
vn -0.999781 -0.0182454 -0.0102496
v 54.8248 -19.14 -19.7067
vn -0.988617 0 0.150456
v 54.9104 -69.8274 -19.347
vn -0.951293 3.99503e-18 0.308289
v 54.9104 -19.14 -19.347
vn -0.923344 0 0.383973
v 55.0752 -69.8274 -19.0282
vn -0.848766 0 0.528769
v 55.0752 -19.14 -19.0282
vn -0.804165 0 0.594406
v 55.3109 -69.8274 -18.7576
vn -0.696889 -1.51325e-18 0.717179
v 55.3109 -19.14 -18.7576
vn -0.636687 1.4982e-18 0.771122
v 55.6139 -69.8274 -18.5457
vn -0.503589 0 0.863944
v 55.6139 -19.14 -18.5457
vn -0.43124 0 0.902237
v 55.9595 -69.8274 -18.4143
vn -0.279856 0 0.960042
v 55.9595 -19.14 -18.4143
vn -0.201635 0 0.979461
v 56.3158 -69.8274 -18.3713
vn -0.00420967 6.16896e-05 0.999991
v 56.3158 -44.4837 -18.3713
vn -0.00161774 0 0.999999
v 56.3158 -19.14 -18.3713
vn -0.00215774 -2.1577e-17 0.999998
v 54.8298 -44.4837 -20.0764
vn -0.988607 -0.000500173 -0.150522
v 54.8248 -44.4837 -19.7067
vn -0.99395 0 0.109833
v 54.9104 -44.4837 -19.347
vn -0.938152 0 0.346224
v 55.0752 -44.4837 -19.0282
vn -0.827117 0 0.56203
v 55.3109 -44.4837 -18.7576
vn -0.667183 0 0.744894
v 55.6139 -44.4837 -18.5457
vn -0.467806 0 0.883831
v 55.9595 -44.4837 -18.4143
vn -0.241136 0 0.970491
v 75.9838 -69.8274 -18.3713
vn 0.00108046 9.4488e-18 0.999999
v 75.9838 -19.14 -18.3713
vn 0.00108046 -9.4488e-18 0.999999
v 66.4838 -69.8274 -36.4963
vn 0.00928189 -0.00959862 -0.999911
v 66.4838 -19.14 -36.4963
vn 0.00664218 0.00686883 -0.999954
v 61.5736 -69.8274 -36.4963
vn -0.00811612 -0.0244772 -0.999667
v 61.5736 -19.14 -36.4963
vn -0.00417355 0.0251738 -0.999674
v 61.5736 -57.1556 -36.4963
vn -0.00211758 0 -0.999998
v 61.5736 -44.4837 -36.4963
vn -0.00617441 0 -0.999981
v 61.5736 -31.8118 -36.4963
vn -0.0061744 0 -0.999981
v 61.1087 -69.8274 -36.1804
vn -0.654198 -0.711012 -0.25785
v 61.1087 -19.14 -36.1804
vn -0.881506 0.320199 -0.347017
v 61.1087 -31.8118 -36.1804
vn -0.930114 0 -0.367272
v 61.1087 -44.4837 -36.1804
vn -0.930114 0 -0.367272
v 61.1087 -57.1556 -36.1804
vn -0.930457 0 -0.3664
v 75.9838 -69.8274 -24.8713
vn 0.474386 0 -0.880317
v 66.4838 -69.8274 -24.8713
vn 0.882894 0.105448 -0.457579
v 61.4298 -69.8274 -36.4752
vn -0.340859 -0.00115134 -0.940114
v 61.2925 -69.8274 -36.4099
vn -0.603851 -0.00454802 -0.797084
v 61.1813 -69.8274 -36.3063
vn -0.81094 -0.00992362 -0.585045
v 75.9838 -19.14 -24.8713
vn 0.733057 0 -0.680167
v 66.4838 -19.14 -24.8713
vn 0.691932 -0.0826404 -0.717217
v 61.4298 -19.14 -36.4752
vn -0.245272 0.00116911 -0.969453
v 61.2925 -19.14 -36.4099
vn -0.518915 0.00454745 -0.854814
v 61.1813 -19.14 -36.3063
vn -0.748587 0.00977387 -0.662964
v 61.4298 -31.8118 -36.4752
vn -0.314165 0 -0.949368
v 61.2925 -31.8118 -36.4099
vn -0.603858 0 -0.797092
v 61.1813 -31.8118 -36.3063
vn -0.798999 0 -0.601333
v 61.4298 -44.4837 -36.4752
vn -0.293799 0 -0.955867
v 61.2925 -44.4837 -36.4099
vn -0.562128 0 -0.82705
v 61.1813 -44.4837 -36.3063
vn -0.780537 0 -0.62511
v 61.4298 -57.1556 -36.4752
vn -0.264839 0 -0.964293
v 61.2925 -57.1556 -36.4099
vn -0.51892 0 -0.854823
v 61.1813 -57.1556 -36.3063
vn -0.767021 0 -0.641621
v 71.7914 -70.1399 -17.3156
vn -0.999673 -0.00401084 0.0252647
v 71.7914 -44.4837 -17.3156
vn -0.998907 0 0.0467505
v 71.7914 -18.8275 -17.3156
vn -0.999673 0.00401084 0.0252647
v 72.2613 -18.8275 -10.3654
vn -0.996626 0.000469941 0.0820747
v 72.9058 -18.8275 -4.38692
vn -0.989845 0.00181459 0.142137
v 73.7767 -70.1399 -0.199242
vn -0.944077 -5.01361e-05 0.329726
v 74.6096 -70.1399 1.27363
vn -0.648444 0.00150455 0.761261
v 74.6096 -18.8275 1.27363
vn -0.648444 -0.00150455 0.761261
v 74.9258 -70.1399 1.37865
vn -0.036052 -0.00049452 0.99935
v 74.9258 -18.8275 1.37865
vn -0.0427665 0.000934468 0.999085
v 74.7652 -18.8275 1.35213
vn -0.315208 -0.000614341 0.949022
v 74.3132 -18.8275 0.967115
vn -0.83609 -0.000379358 0.548592
v 74.0359 -18.8275 0.47189
vn -0.915153 -0.000129807 0.403107
v 73.7767 -18.8275 -0.199242
vn -0.948821 0.000116243 0.315813
v 73.5349 -18.8275 -1.03349
vn -0.966599 -3.41032e-05 0.256293
v 73.4203 -18.8275 -1.50778
vn -0.974816 0.00319056 0.222989
v 73.3097 -18.8275 -2.01805
vn -0.979454 0.00133876 0.201664
v 73.2031 -18.8275 -2.56269
vn -0.983031 0.00277444 0.183421
v 73.1003 -18.8275 -3.14012
vn -0.985789 -0.000116622 0.16799
v 73.0012 -18.8275 -3.74873
vn -0.988049 0.00129395 0.154135
v 72.8139 -18.8275 -5.05309
vn -0.9921 0.00166183 0.125439
v 72.7255 -18.8275 -5.74564
vn -0.992513 0.000957047 0.122139
v 72.6404 -18.8275 -6.46297
vn -0.993502 0.00125806 0.113808
v 72.5585 -18.8275 -7.20349
vn -0.994336 0.0015299 0.106275
v 72.4798 -18.8275 -7.96558
vn -0.995037 0.00177441 0.0994927
v 72.4041 -18.8275 -8.74766
vn -0.995604 0.00512054 0.0935216
v 72.3313 -18.8275 -9.54813
vn -0.995781 0.000204792 0.0917645
v 72.1941 -18.8275 -11.1978
vn -0.996987 0.000530453 0.077568
v 72.1295 -18.8275 -12.0438
vn -0.997293 0.00176025 0.0735102
v 72.0674 -18.8275 -12.9018
vn -0.997568 0.000462978 0.069702
v 72.0078 -18.8275 -13.7702
vn -0.997796 0.000452867 0.0663486
v 71.9504 -18.8275 -14.6474
vn -0.998145 0.000710903 0.06087
v 71.8953 -18.8275 -15.5317
vn -0.998196 0.00144513 0.0600222
v 71.8423 -18.8275 -16.4217
vn -0.998288 0.006448 0.0581348
v 71.7914 -27.3795 -17.3156
vn -0.999929 -0.000231886 0.0119361
v 71.7914 -35.9316 -17.3156
vn -0.999343 -0.000106773 0.0362313
v 71.7914 -53.0358 -17.3156
vn -0.999764 9.84164e-05 0.0217236
v 71.7914 -61.5879 -17.3156
vn -0.999929 0.000231886 0.0119361
v 71.8423 -70.1399 -16.4217
vn -0.998288 -0.006448 0.0581348
v 71.8953 -70.1399 -15.5317
vn -0.998196 -0.00144513 0.0600222
v 71.9504 -70.1399 -14.6474
vn -0.9981 -0.000590438 0.0616201
v 72.0078 -70.1399 -13.7702
vn -0.997726 -0.000454356 0.0674044
v 72.0674 -70.1399 -12.9018
vn -0.997481 -0.000464796 0.0709384
v 72.1295 -70.1399 -12.0438
vn -0.997196 -0.0017683 0.0748165
v 72.1941 -70.1399 -11.1978
vn -0.996874 -0.000533259 0.0790081
v 72.2613 -70.1399 -10.3654
vn -0.996491 -0.000472752 0.083694
v 72.3313 -70.1399 -9.54813
vn -0.995644 -0.000251667 0.0932348
v 72.4041 -70.1399 -8.74766
vn -0.995604 -0.00512054 0.0935216
v 72.4798 -70.1399 -7.96558
vn -0.995037 -0.00177441 0.0994927
v 72.5585 -70.1399 -7.20349
vn -0.994336 -0.0015299 0.106275
v 72.6404 -70.1399 -6.46297
vn -0.993502 -0.00125806 0.113808
v 72.7255 -70.1399 -5.74564
vn -0.992493 -6.98341e-05 0.122299
v 72.8139 -70.1399 -5.05309
vn -0.991281 -0.00602441 0.131627
v 72.9058 -70.1399 -4.38692
vn -0.989845 -0.00181459 0.142137
v 73.0012 -70.1399 -3.74873
vn -0.988049 -0.00129395 0.154135
v 73.1003 -70.1399 -3.14012
vn -0.985789 0.000116622 0.16799
v 73.2031 -70.1399 -2.56269
vn -0.983031 -0.00277444 0.183421
v 73.3097 -70.1399 -2.01805
vn -0.979454 -0.00133876 0.201664
v 73.4203 -70.1399 -1.50778
vn -0.974816 -0.00319056 0.222989
v 73.5349 -70.1399 -1.03349
vn -0.967034 2.67051e-05 0.254646
v 74.0359 -70.1399 0.47189
vn -0.898099 0.00012159 0.439793
v 74.3132 -70.1399 0.967115
vn -0.813279 0.000596585 0.581873
v 74.7652 -70.1399 1.35213
vn -0.315208 0.000614341 0.949022
v 72.5585 -44.4837 -7.20349
vn -0.994134 -9.89711e-06 0.108159
v 72.9058 -44.4837 -4.38692
vn -0.989607 3.42423e-05 0.143801
v 73.3097 -44.4837 -2.01805
vn -0.97877 -1.64146e-19 0.204963
v 73.7767 -44.4837 -0.199242
vn -0.960095 0.00044114 0.279674
v 74.0359 -44.4837 0.47189
vn -0.9102 0 0.414168
v 74.3132 -44.4837 0.967115
vn -0.760364 -1.03629e-19 0.649497
v 74.7652 -62.1224 1.35213
vn -0.544929 0.000671189 0.838482
v 74.7652 -26.845 1.35213
vn -0.479775 -0.000552994 0.877391
v 73.7767 -34.8626 -0.199242
vn -0.955922 -0.000468091 0.29362
v 75.9838 -70.1399 1.37865
vn 0.967075 -0.000345783 0.25449
v 75.9838 -18.8275 1.37865
vn 0.687477 0.000495123 0.726206
v 75.4548 -70.1399 1.37865
vn 0 -0.000681794 1
v 75.7193 -70.1399 1.37865
vn 5.58655e-16 -0.000681794 1
v 75.7193 -18.8275 1.37865
vn 2.79827e-16 0.000681794 1
v 75.4548 -18.8275 1.37865
vn 0 0.000545825 1
v 75.9838 -70.6399 0.878651
vn 0.999997 -0.0025192 4.67012e-06
v 75.9838 -70.6399 -17.8713
vn 0.999703 -0.0243789 -5.42614e-05
v 75.9838 -70.1399 -18.3713
vn 0.299702 -0.000325716 -0.954033
v 75.9838 -18.8275 -18.3713
vn 0.78407 0.00042305 -0.620673
v 75.9838 -18.3275 -17.8713
vn 0.99992 0.0126677 -2.81951e-05
v 75.9838 -18.3275 0.878651
vn 0.999988 0.00484921 8.98951e-06
v 75.9838 -70.324 1.34354
vn 0.0938891 -0.440095 0.893029
v 75.9838 -70.4935 1.2322
vn 0.345676 -0.707698 0.616175
v 75.9838 -70.6048 1.0627
vn 0.618436 -0.744547 0.251369
v 75.9838 -18.3626 1.0627
vn 0.618436 0.744547 0.251369
v 75.9838 -18.4739 1.2322
vn 0.345676 0.707698 0.616175
v 75.9838 -18.6434 1.34354
vn 0.0938891 0.440095 0.893029
v 75.9838 -70.6048 -18.0554
vn 0.24593 -0.869502 -0.428351
v 75.9838 -70.4935 -18.2249
vn 0.121134 -0.651853 -0.748608
v 75.9838 -70.324 -18.3362
vn 0.0320717 -0.319656 -0.946991
v 75.9838 -18.6434 -18.3362
vn 0.0320717 0.319656 -0.946991
v 75.9838 -18.4739 -18.2249
vn 0.121134 0.651853 -0.748608
v 75.9838 -18.3626 -18.0554
vn 0.24593 0.869502 -0.428351
v 72.7898 -70.1399 -18.3713
vn -0.0793714 -0.00303115 -0.996841
v 72.7898 -18.8275 -18.3713
vn -0.0338519 0.00466529 -0.999416
v 73.5883 -18.8275 -18.3713
vn 0 0.00401775 -0.999992
v 74.3868 -18.8275 -18.3713
vn 0 0.000431052 -1
v 75.1853 -18.8275 -18.3713
vn 0 0.0006816 -1
v 72.7898 -57.3118 -18.3713
vn -0.0408692 0 -0.999165
v 72.7898 -44.4837 -18.3713
vn -0.0226993 0 -0.999742
v 72.7898 -31.6556 -18.3713
vn -0.060342 -0.000123707 -0.998178
v 75.1853 -70.1399 -18.3713
vn 0 -0.0006816 -1
v 74.3868 -70.1399 -18.3713
vn 0 -0.00054567 -1
v 73.5883 -70.1399 -18.3713
vn 0 -0.00401775 -0.999992
v 72.3943 -57.3118 -18.2898
vn -0.372459 0.000329869 -0.928049
v 72.3943 -44.4837 -18.2898
vn -0.39546 0 -0.918483
v 72.3943 -31.6556 -18.2898
vn -0.426679 -0.000453265 -0.904403
v 72.0633 -70.1399 -18.0585
vn -0.783661 -0.00263006 -0.621183
v 72.0633 -57.3118 -18.0585
vn -0.740115 0.000256255 -0.67248
v 72.0633 -44.4837 -18.0585
vn -0.726491 0 -0.687176
v 72.0633 -31.6556 -18.0585
vn -0.712584 -0.00025606 -0.701586
v 72.0633 -18.8275 -18.0585
vn -0.664338 0.000946837 -0.747432
v 71.8507 -57.3118 -17.7151
vn -0.935936 0.00041025 -0.35217
v 71.8507 -44.4837 -17.7151
vn -0.934838 0 -0.355074
v 71.8507 -31.6556 -17.7151
vn -0.942079 -0.000350329 -0.33539
v 72.522 -70.1399 -18.3348
vn -0.26709 -0.00454557 -0.963661
v 72.2738 -70.1399 -18.2279
vn -0.540701 -0.002623 -0.84121
v 71.9058 -70.1399 -17.8388
vn -0.883998 -0.0026766 -0.467483
v 71.8129 -70.1399 -17.585
vn -0.981532 -0.00305308 -0.191271
v 71.8129 -18.8275 -17.585
vn -0.981532 0.00305308 -0.191271
v 71.9058 -18.8275 -17.8388
vn -0.869982 0.00262506 -0.493076
v 72.2738 -18.8275 -18.2279
vn -0.516566 0.00455063 -0.856236
v 72.522 -18.8275 -18.3348
vn -0.239559 0.00262021 -0.970878
v 75.1903 -70.6399 0.878651
vn 0 -0.999999 0.00101615
v 75.4548 -70.6399 0.878651
vn 0 -0.999999 0.00111244
v 75.7193 -70.6399 0.878651
vn 0 -0.999996 0.00276725
v 75.1853 -70.6399 -17.8713
vn 0 -0.999999 -0.00131105
v 74.3868 -70.6399 -17.8713
vn 0 -0.999997 -0.00255183
v 72.7898 -70.6399 -17.8713
vn -0.000410956 -0.999926 -0.0121962
v 72.2906 -70.6399 -17.3435
vn -0.113444 -0.993527 0.00594309
v 72.5225 -70.6399 -13.5671
vn -0.0246138 -0.999696 0.00172276
v 72.8118 -70.6399 -9.79472
vn -0.0202816 -0.999793 0.00186457
v 73.1581 -70.6399 -6.34012
vn -0.0179668 -0.999836 0.00223292
v 73.5684 -70.6399 -3.37239
vn -0.00718888 -0.999974 0.00113369
v 73.7812 -70.6399 -2.20527
vn -0.0107138 -0.99994 0.00229871
v 74.0479 -70.6399 -1.04961
vn -0.00335278 -0.999994 0.000900392
v 74.2738 -70.6399 -0.288797
vn -0.058554 -0.998092 0.0196128
v 74.4126 -70.6399 0.0829208
vn -0.0706831 -0.997032 0.0305024
v 74.5786 -70.6399 0.443222
vn -0.0779239 -0.99588 0.0463825
v 74.7057 -70.6399 0.655762
vn -0.0229842 -0.999596 0.0167491
v 74.7802 -70.6399 0.75466
vn -0.0428316 -0.998321 0.0389901
v 74.8673 -70.6399 0.842563
vn -0.0154743 -0.999735 0.0170601
v 74.8921 -70.6399 0.861036
vn -0.00635702 -0.999939 0.00898389
v 74.919 -70.6399 0.876186
vn 0 -1 0
v 74.9223 -70.6399 0.877599
vn 0 -1 0
v 74.9266 -70.6399 0.877968
vn 0 -1 0
v 72.592 -70.6399 -17.8306
vn -0.00664888 -0.9999 -0.012463
v 72.4265 -70.6399 -17.7149
vn -0.0127681 -0.999866 -0.0101964
v 72.3203 -70.6399 -17.5432
vn -0.16082 -0.986001 -0.0440277
v 75.1853 -18.3275 -17.8713
vn 0 0.999999 -0.00131105
v 74.3868 -18.3275 -17.8713
vn 0 0.999997 -0.00239664
v 73.5883 -18.3275 -17.8713
vn 0 0.999985 -0.00539226
v 72.7898 -18.3275 -17.8713
vn -0.000750893 0.999951 -0.0098581
v 75.1903 -18.3275 0.878651
vn 5.77808e-17 0.999999 0.00101615
v 75.4548 -18.3275 0.878651
vn 0 0.999999 0.00111244
v 75.7193 -18.3275 0.878651
vn 0 0.999996 0.00276725
v 72.2906 -18.3275 -17.3435
vn -0.113444 0.993527 0.00594309
v 72.5225 -18.3275 -13.5671
vn -0.0364201 0.999333 0.00254911
v 72.8118 -18.3275 -9.79472
vn -0.0171038 0.999852 0.00157243
v 73.1581 -18.3275 -6.34012
vn -0.0179668 0.999836 0.00223292
v 73.5684 -18.3275 -3.37239
vn -0.00718888 0.999974 0.00113369
v 73.7812 -18.3275 -2.20527
vn -0.0107138 0.99994 0.00229871
v 74.0479 -18.3275 -1.04961
vn -0.00335278 0.999994 0.000900392
v 74.2738 -18.3275 -0.288797
vn -0.058554 0.998092 0.0196128
v 74.4126 -18.3275 0.0829208
vn -0.0706831 0.997032 0.0305024
v 74.5786 -18.3275 0.443222
vn -0.0779239 0.99588 0.0463825
v 74.7057 -18.3275 0.655762
vn -0.0229842 0.999596 0.0167491
v 74.7802 -18.3275 0.75466
vn -0.0428316 0.998321 0.0389901
v 74.8673 -18.3275 0.842563
vn -0.0154743 0.999735 0.0170601
v 74.8921 -18.3275 0.861036
vn -0.00635702 0.999939 0.00898389
v 74.919 -18.3275 0.876186
vn -6.03499e-13 1 1.10038e-12
v 74.9223 -18.3275 0.877599
vn -1.17341e-12 1 1.03239e-12
v 74.9266 -18.3275 0.877968
vn 0 1 -2.83992e-14
v 72.592 -18.3275 -17.8306
vn -0.00664888 0.9999 -0.012463
v 72.4265 -18.3275 -17.7149
vn -0.0127681 0.999866 -0.0101964
v 72.3203 -18.3275 -17.5432
vn -0.16082 0.986001 -0.0440277
v 72.0586 -70.324 -13.5356
vn -0.904312 -0.422041 0.064046
v 72.1697 -70.4935 -13.5431
vn -0.655011 -0.754183 0.0465756
v 72.3388 -70.6048 -13.5546
vn -0.38156 -0.923946 0.0271328
v 72.3486 -70.324 -9.75448
vn -0.912891 -0.400012 0.0813708
v 72.4595 -70.4935 -9.76412
vn -0.706458 -0.705072 0.0615682
v 72.6284 -70.6048 -9.77879
vn -0.381224 -0.923926 0.0320599
v 72.6963 -70.324 -6.28619
vn -0.909596 -0.401029 0.108677
v 72.8069 -70.4935 -6.2991
vn -0.705861 -0.703558 0.082258
v 72.9753 -70.6048 -6.31877
vn -0.380267 -0.923901 0.0424684
v 73.1098 -70.324 -3.29615
vn -0.910083 -0.389711 0.140976
v 73.2196 -70.4935 -3.31441
vn -0.719942 -0.685632 0.107664
v 73.3868 -70.6048 -3.34221
vn -0.378823 -0.923826 0.0551259
v 73.3254 -70.324 -2.11334
vn -0.898695 -0.395721 0.189084
v 73.4346 -70.4935 -2.13536
vn -0.692752 -0.70708 0.141891
v 73.6008 -70.6048 -2.16888
vn -0.375539 -0.923807 0.0745108
v 73.5984 -70.324 -0.930838
vn -0.892133 -0.385748 0.235152
v 73.7061 -70.4935 -0.959283
vn -0.694564 -0.697275 0.177166
v 73.8699 -70.6048 -1.00259
vn -0.372007 -0.923661 0.0919845
v 73.8337 -70.324 -0.138871
vn -0.851987 -0.438738 0.285706
v 73.9391 -70.4935 -0.174778
vn -0.688935 -0.690483 0.220461
v 74.0996 -70.6048 -0.229443
vn -0.36633 -0.923434 0.114332
v 73.9823 -70.324 0.258853
vn -0.827784 -0.430638 0.359618
v 74.0853 -70.4935 0.216718
vn -0.6539 -0.706479 0.270743
v 74.2422 -70.6048 0.152571
vn -0.356377 -0.923284 0.143327
v 74.1678 -70.324 0.660849
vn -0.801546 -0.411143 0.434148
v 74.2662 -70.4935 0.608728
vn -0.640614 -0.695101 0.326263
v 74.4159 -70.6048 0.529378
vn -0.303987 -0.939798 0.156116
v 74.3225 -70.324 0.918818
vn -0.758995 -0.398194 0.515139
v 74.4142 -70.4935 0.855817
vn -0.60857 -0.689367 0.392957
v 74.554 -70.6048 0.759903
vn -0.3624 -0.9035 0.22881
v 74.4245 -70.324 1.05395
vn -0.674401 -0.390746 0.626498
v 74.5097 -70.4935 0.982273
vn -0.535353 -0.705357 0.464617
v 74.6394 -70.6048 0.873147
vn -0.348396 -0.890784 0.291761
v 74.5741 -70.324 1.2033
vn -0.612266 -0.383206 0.691581
v 74.6443 -70.4935 1.1169
vn -0.505642 -0.674592 0.537821
v 74.7512 -70.6048 0.985375
vn -0.33648 -0.874489 0.349356
v 74.6339 -70.324 1.24762
vn -0.467652 -0.376721 0.799614
v 74.6958 -70.4935 1.15503
vn -0.378839 -0.70436 0.600299
v 74.7899 -70.6048 1.01408
vn -0.26779 -0.873757 0.406002
v 74.7401 -70.324 1.30512
vn -0.356997 -0.375626 0.855253
v 74.783 -70.4935 1.20239
vn -0.320049 -0.671298 0.668527
v 74.8482 -70.6048 1.046
vn -0.236471 -0.864467 0.443597
v 74.821 -70.324 1.33214
vn -0.183946 -0.348945 0.918913
v 74.8462 -70.4935 1.22332
vn -0.200347 -0.678956 0.706315
v 74.8847 -70.6048 1.05766
vn -0.175808 -0.863406 0.472887
v 74.9258 -70.324 1.34354
vn -0.0295725 -0.285263 0.957993
v 74.9258 -70.4935 1.2322
vn -0.0182392 -0.707209 0.706769
v 74.9258 -70.6048 1.0627
vn 0.019573 -0.956663 0.29054
v 74.9258 -70.6399 0.878651
vn 0.00355989 -0.982288 0.187344
v 74.9057 -70.6316 0.966696
vn -0.0639967 -0.96746 0.244795
v 74.8955 -70.6048 1.05969
vn -0.0451518 -0.931034 0.362129
v 74.9114 -70.6316 0.967681
vn -0.0339485 -0.973923 0.224326
v 74.9193 -70.6379 0.922151
vn -0.0207159 -0.992851 0.117546
v 74.917 -70.6316 0.968478
vn 0.102638 -0.962464 0.251252
v 74.922 -70.6379 0.922683
vn -0.0244904 -0.993375 0.112277
v 74.9244 -70.6395 0.900197
vn -0.018262 -0.997858 0.0628218
v 74.9237 -70.6379 0.923078
vn 0.606401 -0.777796 0.165264
v 74.9232 -70.6395 0.899772
vn -0.0537806 -0.996902 0.0573965
v 74.9205 -70.6379 0.92238
vn -0.0203526 -0.991959 0.12491
v 74.9162 -70.6379 0.921685
vn -0.0975623 -0.991084 0.0907383
v 74.908 -70.6316 0.967125
vn -0.0448669 -0.967929 0.247185
v 74.9175 -70.6379 0.92186
vn -0.0195647 -0.992646 0.119458
v 74.884 -70.6316 0.96013
vn -0.15071 -0.98195 0.114285
v 74.8593 -70.6048 1.05054
vn -0.154179 -0.865788 0.476067
v 74.8912 -70.6316 0.96309
vn -0.0767468 -0.970171 0.229953
v 74.9256 -70.6398 0.889215
vn 0.53348 -0.845287 0.0298102
v 74.9254 -70.6395 0.900708
vn 0.919697 -0.385516 0.0743974
v 74.9259 -70.6399 0.884028
vn -0.00543893 -0.999931 0.0104055
v 74.9258 -70.4136 1.29715
vn -0.023751 -0.548977 0.8355
v 74.9258 -70.5584 1.15226
vn -0.0117586 -0.835858 0.54882
v 72.1068 -70.6048 -17.3332
vn -0.423561 -0.905781 0.0125323
v 71.9376 -70.4935 -17.3238
vn -0.736002 -0.676858 0.0128578
v 71.8264 -70.324 -17.3176
vn -0.934317 -0.356443 0.000203341
v 71.8932 -70.324 -16.1579
vn -0.924853 -0.376129 0.0563372
v 72.0044 -70.4935 -16.1645
vn -0.724299 -0.688043 0.0445831
v 73.8041 -70.2017 -0.128786
vn -0.939816 -0.184965 0.287288
v 74.2938 -70.159 0.938477
vn -0.825739 -0.197405 0.528381
v 74.1381 -70.1782 0.676595
vn -0.87916 -0.166568 0.446467
v 73.9533 -70.2017 0.270688
vn -0.914729 -0.162203 0.370083
v 72.1736 -70.6048 -16.1745
vn -0.36447 -0.930942 0.0225589
v 74.3979 -70.159 1.07632
vn -0.751512 -0.155225 0.641198
v 74.552 -70.1447 1.23052
vn -0.686664 -0.0933799 0.720953
v 74.7266 -70.141 1.33751
vn -0.425881 -0.176583 0.88738
v 74.813 -70.1402 1.36645
vn -0.232127 -0.172058 0.957347
v 74.6145 -70.1447 1.27679
vn -0.530235 -0.18764 0.826826
v 72.0586 -18.6434 -13.5356
vn -0.904312 0.422041 0.064046
v 72.1697 -18.4739 -13.5431
vn -0.655011 0.754183 0.0465756
v 72.3388 -18.3626 -13.5546
vn -0.38156 0.923946 0.0271328
v 72.3486 -18.6434 -9.75448
vn -0.912891 0.400012 0.0813708
v 72.4595 -18.4739 -9.76412
vn -0.706458 0.705072 0.0615682
v 72.6284 -18.3626 -9.77879
vn -0.381224 0.923926 0.0320599
v 72.6963 -18.6434 -6.28619
vn -0.909596 0.401029 0.108677
v 72.8069 -18.4739 -6.2991
vn -0.705861 0.703558 0.082258
v 72.9753 -18.3626 -6.31877
vn -0.380267 0.923901 0.0424684
v 73.1098 -18.6434 -3.29615
vn -0.910083 0.389711 0.140976
v 73.2196 -18.4739 -3.31441
vn -0.719942 0.685632 0.107664
v 73.3868 -18.3626 -3.34221
vn -0.378823 0.923826 0.0551259
v 73.3254 -18.6434 -2.11334
vn -0.898695 0.395721 0.189084
v 73.4346 -18.4739 -2.13536
vn -0.692752 0.70708 0.141891
v 73.6008 -18.3626 -2.16888
vn -0.375539 0.923807 0.0745108
v 73.5984 -18.6434 -0.930838
vn -0.892133 0.385748 0.235152
v 73.7061 -18.4739 -0.959283
vn -0.694564 0.697275 0.177166
v 73.8699 -18.3626 -1.00259
vn -0.372007 0.923661 0.0919845
v 73.8337 -18.6434 -0.138871
vn -0.851987 0.438738 0.285706
v 73.9391 -18.4739 -0.174778
vn -0.688935 0.690483 0.220461
v 74.0996 -18.3626 -0.229443
vn -0.36633 0.923434 0.114332
v 73.9823 -18.6434 0.258853
vn -0.827784 0.430638 0.359618
v 74.0853 -18.4739 0.216718
vn -0.6539 0.706479 0.270743
v 74.2422 -18.3626 0.152571
vn -0.356377 0.923284 0.143327
v 74.1678 -18.6434 0.660849
vn -0.801546 0.411143 0.434148
v 74.2662 -18.4739 0.608728
vn -0.640614 0.695101 0.326263
v 74.4159 -18.3626 0.529378
vn -0.303987 0.939798 0.156116
v 74.3225 -18.6434 0.918818
vn -0.758995 0.398194 0.515139
v 74.4142 -18.4739 0.855817
vn -0.60857 0.689367 0.392957
v 74.554 -18.3626 0.759903
vn -0.3624 0.9035 0.22881
v 74.4245 -18.6434 1.05395
vn -0.674401 0.390746 0.626498
v 74.5097 -18.4739 0.982273
vn -0.535353 0.705357 0.464617
v 74.6394 -18.3626 0.873147
vn -0.348396 0.890784 0.291761
v 74.5741 -18.6434 1.2033
vn -0.612266 0.383206 0.691581
v 74.6443 -18.4739 1.1169
vn -0.505642 0.674592 0.537821
v 74.7512 -18.3626 0.985375
vn -0.33648 0.874489 0.349356
v 74.6339 -18.6434 1.24762
vn -0.467652 0.376721 0.799614
v 74.6958 -18.4739 1.15503
vn -0.378839 0.70436 0.600299
v 74.7899 -18.3626 1.01408
vn -0.26779 0.873757 0.406002
v 74.7401 -18.6434 1.30512
vn -0.356997 0.375626 0.855253
v 74.783 -18.4739 1.20239
vn -0.320049 0.671298 0.668527
v 74.8482 -18.3626 1.046
vn -0.236471 0.864467 0.443597
v 74.821 -18.6434 1.33214
vn -0.183946 0.348945 0.918913
v 74.8462 -18.4739 1.22332
vn -0.200347 0.678956 0.706315
v 74.8847 -18.3626 1.05766
vn -0.175808 0.863406 0.472887
v 74.9258 -18.3275 0.878651
vn 0.00355989 0.982288 0.187344
v 74.9057 -18.3358 0.966696
vn -0.0639967 0.96746 0.244795
v 74.8955 -18.3626 1.05969
vn -0.0451518 0.931034 0.362129
v 74.9114 -18.3358 0.967681
vn -0.0339485 0.973923 0.224326
v 74.9193 -18.3295 0.922151
vn -0.0207159 0.992851 0.117546
v 74.917 -18.3358 0.968478
vn 0.102638 0.962464 0.251252
v 74.922 -18.3295 0.922683
vn -0.0244904 0.993375 0.112277
v 74.9244 -18.3279 0.900197
vn -0.018262 0.997858 0.0628218
v 74.9237 -18.3295 0.923078
vn 0.606401 0.777796 0.165264
v 74.9232 -18.3279 0.899772
vn -0.0537806 0.996902 0.0573965
v 74.9205 -18.3295 0.92238
vn -0.0203526 0.991959 0.12491
v 74.9162 -18.3295 0.921685
vn -0.0975623 0.991084 0.0907383
v 74.908 -18.3358 0.967125
vn -0.0448669 0.967929 0.247185
v 74.9175 -18.3295 0.92186
vn -0.0195647 0.992646 0.119458
v 74.884 -18.3358 0.96013
vn -0.15071 0.98195 0.114285
v 74.8593 -18.3626 1.05054
vn -0.154179 0.865788 0.476067
v 74.8912 -18.3358 0.96309
vn -0.0767468 0.970171 0.229953
v 74.9256 -18.3276 0.889215
vn 0.53348 0.845287 0.0298102
v 74.9254 -18.3279 0.900708
vn 0.919697 0.385516 0.0743974
v 74.9259 -18.3275 0.884028
vn -0.00543893 0.999931 0.0104055
v 74.9258 -18.6434 1.34354
vn -0.0295725 0.285263 0.957993
v 74.9258 -18.5538 1.29715
vn -0.023751 0.548977 0.8355
v 74.9258 -18.4739 1.2322
vn -0.0182392 0.707209 0.706769
v 74.9258 -18.409 1.15226
vn -0.0117586 0.835858 0.54882
v 74.9258 -18.3626 1.0627
vn 0.019573 0.956663 0.29054
v 72.1068 -18.3626 -17.3332
vn -0.423561 0.905781 0.0125323
v 71.9376 -18.4739 -17.3238
vn -0.736002 0.676858 0.0128578
v 71.8264 -18.6434 -17.3176
vn -0.934317 0.356443 0.000203341
v 71.8932 -18.6434 -16.1579
vn -0.924853 0.376129 0.0563372
v 72.0044 -18.4739 -16.1645
vn -0.724299 0.688043 0.0445831
v 73.8041 -18.7657 -0.128786
vn -0.939816 0.184965 0.287288
v 74.2938 -18.8084 0.938477
vn -0.825739 0.197405 0.528381
v 74.1381 -18.7892 0.676595
vn -0.87916 0.166568 0.446467
v 73.9533 -18.7657 0.270688
vn -0.914729 0.162203 0.370083
v 72.1736 -18.3626 -16.1745
vn -0.36447 0.930942 0.0225589
v 74.3979 -18.8084 1.07632
vn -0.751512 0.155225 0.641198
v 74.552 -18.8227 1.23052
vn -0.686664 0.0933799 0.720953
v 74.7266 -18.8264 1.33751
vn -0.425881 0.176583 0.88738
v 74.813 -18.8272 1.36645
vn -0.232127 0.172058 0.957347
v 74.6145 -18.8227 1.27679
vn -0.530235 0.18764 0.826826
v 75.1903 -70.324 1.34354
vn 0.00557637 -0.363579 0.931547
v 75.1903 -70.4935 1.2322
vn 0.0133002 -0.730976 0.682273
v 75.1903 -70.6048 1.0627
vn 0.00757495 -0.93424 0.356565
v 75.4548 -70.324 1.34354
vn 0 -0.382648 0.923894
v 75.4548 -70.4935 1.2322
vn 0 -0.707157 0.707056
v 75.4548 -70.6048 1.0627
vn 0 -0.923921 0.382584
v 75.7193 -70.324 1.34354
vn 1.62281e-16 -0.345368 0.938467
v 75.7193 -70.4935 1.2322
vn 0 -0.656765 0.754096
v 75.7193 -70.6048 1.0627
vn 0 -0.912771 0.408472
v 75.1903 -18.6434 1.34354
vn 0.00557637 0.363579 0.931547
v 75.1903 -18.4739 1.2322
vn 0.0133002 0.730976 0.682273
v 75.1903 -18.3626 1.0627
vn 0.00757495 0.93424 0.356565
v 75.4548 -18.6434 1.34354
vn 0 0.382648 0.923894
v 75.4548 -18.4739 1.2322
vn 0 0.707157 0.707056
v 75.4548 -18.3626 1.0627
vn 0 0.923921 0.382584
v 75.7193 -18.6434 1.34354
vn 1.62281e-16 0.345368 0.938467
v 75.7193 -18.4739 1.2322
vn 0 0.656765 0.754096
v 75.7193 -18.3626 1.0627
vn 0 0.912771 0.408472
v 75.1853 -70.324 -18.3362
vn 0 -0.40843 -0.91279
v 75.1853 -70.4935 -18.2249
vn 0 -0.754162 -0.656689
v 75.1853 -70.6048 -18.0554
vn 0 -0.938505 -0.345266
v 74.3868 -70.324 -18.3362
vn 0 -0.382536 -0.92394
v 74.3868 -70.4935 -18.2249
vn 0 -0.707107 -0.707107
v 74.3868 -70.6048 -18.0554
vn 0 -0.92394 -0.382536
v 73.5883 -70.324 -18.3362
vn 0 -0.345266 -0.938505
v 73.5883 -70.4935 -18.2249
vn 0 -0.656689 -0.754162
v 73.5883 -70.6048 -18.0554
vn 0 -0.92394 -0.382536
v 72.7898 -70.324 -18.3362
vn -0.0519775 -0.418921 -0.906534
v 72.7898 -70.4935 -18.2249
vn -0.0478758 -0.723764 -0.688385
v 72.7898 -70.6048 -18.0554
vn -0.0333772 -0.912802 -0.407036
v 75.1853 -18.6434 -18.3362
vn 0 0.40843 -0.91279
v 75.1853 -18.4739 -18.2249
vn 0 0.754162 -0.656689
v 75.1853 -18.3626 -18.0554
vn 0 0.938505 -0.345266
v 74.3868 -18.6434 -18.3362
vn 0 0.382536 -0.92394
v 74.3868 -18.4739 -18.2249
vn 0 0.707107 -0.707107
v 74.3868 -18.3626 -18.0554
vn 0 0.92394 -0.382536
v 73.5883 -18.6434 -18.3362
vn 0 0.345266 -0.938505
v 73.5883 -18.4739 -18.2249
vn 0 0.656689 -0.754162
v 73.5883 -18.3626 -18.0554
vn 0 0.91279 -0.40843
v 72.7898 -18.6434 -18.3362
vn -0.0519775 0.418921 -0.906534
v 72.7898 -18.4739 -18.2249
vn -0.0478758 0.723764 -0.688385
v 72.7898 -18.3626 -18.0554
vn -0.0255305 0.934021 -0.356304
v 72.4082 -70.324 -18.2576
vn -0.356662 -0.432458 -0.828114
v 72.4522 -70.4935 -18.1553
vn -0.262654 -0.747743 -0.60983
v 72.5192 -70.6048 -17.9996
vn -0.134548 -0.935269 -0.327368
v 72.0888 -70.324 -18.0343
vn -0.673227 -0.403362 -0.619729
v 72.1697 -70.4935 -17.9578
vn -0.507296 -0.698768 -0.504355
v 72.2928 -70.6048 -17.8414
vn -0.269034 -0.916817 -0.295071
v 71.8837 -70.324 -17.703
vn -0.86345 -0.361236 -0.352084
v 71.9883 -70.4935 -17.6647
vn -0.711662 -0.652423 -0.260541
v 72.1474 -70.6048 -17.6065
vn -0.399197 -0.904488 -0.150146
v 72.4082 -18.6434 -18.2576
vn -0.356662 0.432458 -0.828114
v 72.4522 -18.4739 -18.1553
vn -0.262654 0.747743 -0.60983
v 72.5192 -18.3626 -17.9996
vn -0.134548 0.935269 -0.327368
v 72.0888 -18.6434 -18.0343
vn -0.685064 0.393835 -0.612847
v 72.1697 -18.4739 -17.9578
vn -0.507296 0.698768 -0.504355
v 72.2928 -18.3626 -17.8414
vn -0.269034 0.916817 -0.295071
v 71.8837 -18.6434 -17.703
vn -0.866908 0.384367 -0.317383
v 71.9883 -18.4739 -17.6647
vn -0.711662 0.652423 -0.260541
v 72.1474 -18.3626 -17.6065
vn -0.399197 0.904488 -0.150146
v 54.9211 -70.0774 -20.4234
vn -0.924088 -0.135882 -0.357207
v 54.9211 -69.9524 -20.4234
vn -0.931364 8.06668e-05 -0.364089
v 54.8298 -69.8274 -20.0764
vn -0.109803 0.993901 -0.0102384
v 56.3158 -70.0774 -18.3713
vn -0.00450646 -0.113147 0.993568
v 56.3158 -69.9524 -18.3713
vn -0.00252746 0.000396113 0.999997
v 54.8456 -70.0774 -20.1691
vn -0.967925 -0.134713 -0.212067
v 54.8162 -70.0774 -19.9055
vn -0.993653 -0.110969 -0.0184537
v 54.8336 -70.0774 -19.6408
vn -0.976688 -0.110811 0.183853
v 54.8974 -70.0774 -19.3834
vn -0.92096 -0.149401 0.359877
v 55.0055 -70.0774 -19.1412
vn -0.872664 -0.0970888 0.478572
v 55.1546 -70.0774 -18.9218
vn -0.760931 -0.113028 0.638912
v 55.34 -70.0774 -18.7321
vn -0.615686 -0.111176 0.780109
v 55.5559 -70.0774 -18.578
vn -0.503375 -0.112627 0.856696
v 55.7956 -70.0774 -18.4644
vn -0.348434 -0.110833 0.930758
v 56.0516 -70.0774 -18.3948
vn -0.152899 -0.113067 0.981752
v 54.8298 -69.9524 -20.0764
vn -0.985801 0.0196099 -0.166767
v 54.9104 -69.9524 -19.347
vn -0.945932 0.0215496 0.323648
v 54.8248 -69.9524 -19.7067
vn -0.996363 0.020816 0.0826335
v 55.0752 -69.9524 -19.0282
vn -0.838497 0.0220136 0.544461
v 55.3109 -69.9524 -18.7576
vn -0.68909 0.0168653 0.72448
v 55.6139 -69.9524 -18.5457
vn -0.493289 0.0223095 0.869579
v 55.9595 -69.9524 -18.4143
vn -0.264337 0.0222751 0.964173
v 75.9838 -70.0774 -18.3713
vn 0.679115 -0.083054 0.729318
v 61.2328 -70.0774 -18.3713
vn 0 -0.130496 0.991449
v 66.1498 -70.0774 -18.3713
vn 0 -0.0628339 0.998024
v 71.0668 -70.0774 -18.3713
vn 0 -0.0998501 0.995002
v 75.9838 -70.5774 -24.8713
vn 0.0779649 -0.993591 -0.0818402
v 75.9838 -70.5774 -18.8713
vn 0.0293531 -0.999553 0.0056734
v 75.9838 -70.2615 -18.4065
vn 0.927502 -0.165251 0.335309
v 75.9838 -70.431 -18.5178
vn 0.553974 -0.627865 0.546715
v 75.9838 -70.5423 -18.6873
vn 0.00520866 -0.947429 0.319923
v 66.4838 -70.5774 -24.8713
vn 0.0387463 -0.998232 -0.0450706
v 66.4838 -70.5774 -35.9963
vn 0.0217598 -0.999762 -0.00123236
v 66.4838 -70.0774 -36.4963
vn 0.993541 -0.00914536 -0.113105
v 66.4838 -70.5423 -36.1804
vn 0.0188062 -0.896894 -0.441846
v 66.4838 -70.431 -36.3499
vn 0.976323 -0.142054 -0.16314
v 66.4838 -70.2615 -36.4612
vn 0.998269 -0.0188085 -0.055721
v 61.2338 -70.0774 -36.4963
vn -0.895336 -0.0966304 -0.434783
v 61.2338 -69.8274 -36.4963
vn -0.0320687 0.999253 -0.0215563
v 65.1581 -70.0774 -36.4963
vn 0 -0.0995698 -0.995031
v 63.8325 -70.0774 -36.4963
vn 0 -0.0514882 -0.998674
v 62.5069 -70.0774 -36.4963
vn 0.00110441 -0.0984722 -0.995139
v 58.109 -70.0774 -28.5402
vn -0.929411 -0.0542775 -0.365032
v 56.515 -70.0774 -24.4818
vn -0.922891 -0.129963 -0.362466
v 65.1581 -70.5774 -35.9963
vn 0 -0.999907 -0.0136528
v 63.8325 -70.5774 -35.9963
vn 0 -0.999921 -0.0125462
v 61.5736 -70.5774 -35.9963
vn -0.00243124 -0.999938 -0.0108358
v 55.386 -70.5774 -20.2394
vn -0.00474212 -0.999987 -0.00179201
v 55.3247 -70.5774 -20.0044
vn -0.0390415 -0.999232 -0.00344304
v 55.3218 -70.5774 -19.7616
vn -0.0466476 -0.998885 0.00730751
v 55.3776 -70.5774 -19.5252
vn -0.0543397 -0.99826 0.0229069
v 55.4887 -70.5774 -19.3092
vn -0.0611009 -0.997084 0.045709
v 55.6486 -70.5774 -19.1264
vn -0.0642259 -0.994832 0.0786436
v 55.8479 -70.5774 -18.9876
vn -0.0578647 -0.990787 0.122445
v 56.0747 -70.5774 -18.9008
vn -0.0336274 -0.985288 0.167559
v 56.3158 -70.5774 -18.8713
vn -0.000108016 -0.999319 0.0368906
v 61.2328 -70.5774 -18.8713
vn 0 -0.999991 0.00435561
v 66.1498 -70.5774 -18.8713
vn 0 -0.999965 0.00838881
v 71.0668 -70.5774 -18.8713
vn 0 -0.99999 0.00436121
v 60.1678 -70.5774 -32.4165
vn -0.00340458 -0.999993 -0.00132329
v 58.5739 -70.5774 -28.3575
vn -0.00549835 -0.999983 -0.00215921
v 56.9799 -70.5774 -24.2984
vn -0.00356177 -0.999993 -0.0013987
v 54.8639 -70.2615 -20.0663
vn -0.898442 -0.422888 -0.118182
v 54.9742 -70.431 -20.0514
vn -0.655306 -0.750228 -0.0879326
v 55.1422 -70.5423 -20.0289
vn -0.346449 -0.936711 -0.0504502
v 54.8597 -70.2615 -19.7105
vn -0.90987 -0.399362 0.112456
v 54.9704 -70.431 -19.7227
vn -0.708777 -0.702016 0.069348
v 55.1389 -70.5423 -19.7413
vn -0.391085 -0.919976 0.0264068
v 54.9414 -70.2615 -19.3643
vn -0.861846 -0.391963 0.321848
v 55.0459 -70.431 -19.4028
vn -0.671122 -0.70205 0.238162
v 55.2049 -70.5423 -19.4615
vn -0.37319 -0.919976 0.119892
v 55.1042 -70.2615 -19.0479
vn -0.768567 -0.376602 0.517181
v 55.1963 -70.431 -19.1105
vn -0.593952 -0.702039 0.39289
v 55.3365 -70.5423 -19.2058
vn -0.333317 -0.919965 0.206312
v 55.3384 -70.2615 -18.7801
vn -0.605327 -0.397645 0.689534
v 55.4127 -70.431 -18.8631
vn -0.481735 -0.702035 0.524479
v 55.5258 -70.5423 -18.9893
vn -0.273771 -0.919959 0.28058
v 55.6303 -70.2615 -18.5767
vn -0.428107 -0.378123 0.820821
v 55.6824 -70.431 -18.6751
vn -0.341065 -0.702024 0.625169
v 55.7617 -70.5423 -18.8249
vn -0.198012 -0.919979 0.338275
v 55.9626 -70.2615 -18.4497
vn -0.227275 -0.368461 0.901434
v 55.9895 -70.431 -18.5577
vn -0.182332 -0.653922 0.734262
v 56.0303 -70.5423 -18.7222
vn -0.103557 -0.907968 0.406043
v 56.3158 -70.2615 -18.4065
vn -0.00867297 -0.326948 0.945002
v 56.3158 -70.431 -18.5178
vn -0.00483441 -0.662594 0.748963
v 56.3158 -70.5423 -18.6873
vn -0.00203509 -0.8998 0.436298
v 55.2148 -70.5423 -20.3071
vn -0.307037 -0.944505 -0.116787
v 55.0572 -70.431 -20.3695
vn -0.620701 -0.747425 -0.236825
v 54.9537 -70.2615 -20.4105
vn -0.840396 -0.435552 -0.322536
v 61.2328 -70.2615 -18.4065
vn 0 -0.408615 0.912707
v 61.2328 -70.431 -18.5178
vn 0 -0.754162 0.656689
v 61.2328 -70.5423 -18.6873
vn 0 -0.938467 0.345369
v 66.1498 -70.2615 -18.4065
vn 0 -0.382759 0.923848
v 66.1498 -70.431 -18.5178
vn 0 -0.707107 0.707107
v 66.1498 -70.5423 -18.6873
vn 0 -0.923902 0.382629
v 71.0668 -70.2615 -18.4065
vn 0 -0.345544 0.938402
v 71.0668 -70.431 -18.5178
vn 0 -0.656689 0.754162
v 71.0668 -70.5423 -18.6873
vn 0 -0.912753 0.408513
v 65.1581 -70.2615 -36.4612
vn 0 -0.408431 -0.912789
v 65.1581 -70.431 -36.3499
vn 0 -0.754162 -0.656689
v 65.1581 -70.5423 -36.1804
vn 0 -0.938505 -0.345265
v 63.8325 -70.2615 -36.4612
vn 0 -0.382536 -0.92394
v 63.8325 -70.431 -36.3499
vn 0 -0.707107 -0.707107
v 63.8325 -70.5423 -36.1804
vn 0 -0.92394 -0.382536
v 62.5069 -70.2615 -36.4612
vn 0.00298436 -0.371984 -0.928234
v 62.5069 -70.431 -36.3499
vn 0.00298033 -0.679424 -0.73374
v 62.5069 -70.5423 -36.1804
vn 0.00214681 -0.930494 -0.366301
v 61.2382 -70.1581 -36.4898
vn -0.663756 -0.201868 -0.720193
v 61.2524 -70.2409 -36.4689
vn -0.756037 -0.368914 -0.540657
v 61.2772 -70.322 -36.4325
vn -0.67001 -0.570244 -0.475298
v 61.3123 -70.397 -36.3809
vn -0.596175 -0.685433 -0.41804
v 61.3564 -70.462 -36.3159
vn -0.485694 -0.805055 -0.340571
v 61.4074 -70.5136 -36.2409
vn -0.393013 -0.878866 -0.270437
v 61.4625 -70.55 -36.1598
vn -0.245698 -0.954882 -0.166834
v 61.5188 -70.5709 -36.077
vn -0.146487 -0.98627 -0.076246
v 59.7356 -70.2615 -32.5859
vn -0.845332 -0.419242 -0.331135
v 59.8391 -70.431 -32.5453
vn -0.637131 -0.72933 -0.249284
v 59.9967 -70.5423 -32.4836
vn -0.34923 -0.927092 -0.136153
v 58.1416 -70.2615 -28.5274
vn -0.876601 -0.336214 -0.344284
v 58.2451 -70.431 -28.4867
vn -0.658389 -0.706868 -0.258574
v 58.4028 -70.5423 -28.4248
vn -0.35641 -0.923786 -0.13997
v 56.5477 -70.2615 -24.469
vn -0.873558 -0.345236 -0.343087
v 56.6512 -70.431 -24.4281
vn -0.70208 -0.656548 -0.275734
v 56.8088 -70.5423 -24.366
vn -0.380365 -0.912693 -0.149379
v 54.9211 -18.89 -20.4234
vn -0.923641 0.129614 -0.360677
v 61.2338 -18.89 -36.4963
vn -0.543557 0.0730333 -0.836189
v 61.2338 -19.14 -36.4963
vn -0.0320686 -0.999253 -0.0215563
v 58.109 -18.89 -28.5402
vn -0.928472 0.0704688 -0.364655
v 59.7029 -18.89 -32.5987
vn -0.9264 0.0982852 -0.363488
v 54.9211 -19.015 -20.4234
vn -0.931797 -0.000466153 -0.362978
v 66.4838 -18.89 -36.4963
vn 0.986949 0.0181694 -0.160004
v 63.8325 -18.89 -36.4963
vn 0 0.0456226 -0.998959
v 65.1581 -18.89 -36.4963
vn 0 0.0995687 -0.995031
v 66.4838 -18.39 -24.8713
vn 0.0400164 0.998928 -0.023274
v 66.4838 -18.39 -35.9963
vn 0.108951 0.994042 -0.0030852
v 66.4838 -18.7059 -36.4612
vn 0.998173 0.0267024 -0.0542028
v 66.4838 -18.5364 -36.3499
vn 0.976323 0.16314 -0.142054
v 66.4838 -18.4251 -36.1804
vn 0.0193238 0.947301 -0.31976
v 75.9838 -18.39 -24.8713
vn 0.0771933 0.983757 -0.16206
v 75.9838 -18.39 -18.8713
vn 0.0285043 0.999533 0.0110187
v 75.9838 -18.89 -18.3713
vn 0.797472 0.0487644 0.601382
v 75.9838 -18.4251 -18.6873
vn 0.00506818 0.897007 0.441986
v 75.9838 -18.5364 -18.5178
vn 0.553974 0.546715 0.627865
v 75.9838 -18.7059 -18.4065
vn 0.930943 0.116902 0.345946
v 56.3158 -18.89 -18.3713
vn -0.00490728 0.136853 0.990579
v 71.0668 -18.89 -18.3713
vn 0 0.0998501 0.995002
v 66.1498 -18.89 -18.3713
vn 0 0.0628339 0.998024
v 61.2328 -18.89 -18.3713
vn 0 0.130496 0.991449
v 56.3158 -19.015 -18.3713
vn -0.00144013 0 0.999999
v 56.0516 -18.89 -18.3948
vn -0.159078 0.134851 0.978013
v 55.7956 -18.89 -18.4644
vn -0.348434 0.110833 0.930758
v 55.5559 -18.89 -18.578
vn -0.530384 0.11079 0.840487
v 55.34 -18.89 -18.7321
vn -0.673626 0.14947 0.7238
v 55.1546 -18.89 -18.9218
vn -0.766252 0.0971341 0.635156
v 55.0055 -18.89 -19.1412
vn -0.874194 0.112986 0.472249
v 54.8974 -18.89 -19.3834
vn -0.951955 0.111128 0.285362
v 54.8336 -18.89 -19.6408
vn -0.981822 0.112733 0.152699
v 54.8162 -18.89 -19.9055
vn -0.993653 0.110969 -0.0184537
v 54.8456 -18.89 -20.1691
vn -0.969106 0.112952 -0.219261
v 55.9595 -19.015 -18.4143
vn -0.207956 -0.0198694 0.977936
v 55.3109 -19.015 -18.7576
vn -0.649046 -0.0215955 0.760443
v 55.6139 -19.015 -18.5457
vn -0.443434 -0.0212167 0.896056
v 55.0752 -19.015 -19.0282
vn -0.814966 -0.0220138 0.579091
v 54.9104 -19.015 -19.347
vn -0.927256 -0.0169091 0.374045
v 54.8248 -19.015 -19.7067
vn -0.990084 -0.0219633 0.138745
v 54.8298 -19.015 -20.0764
vn -0.993782 -0.021984 -0.109154
v 61.5736 -18.39 -35.9963
vn -0.0325039 0.999384 -0.0132414
v 62.5069 -18.39 -35.9963
vn 9.08789e-05 0.999972 -0.00743321
v 63.8325 -18.39 -35.9963
vn 0 0.999978 -0.00665182
v 65.1581 -18.39 -35.9963
vn 0 0.999999 -0.00128087
v 55.386 -18.39 -20.2394
vn -0.00847534 0.999959 -0.00329683
v 56.9799 -18.39 -24.2984
vn -0.00356177 0.999993 -0.00139872
v 58.5739 -18.39 -28.3575
vn -0.00364973 0.999992 -0.00143324
v 71.0668 -18.39 -18.8713
vn 0 0.99999 0.00436121
v 66.1498 -18.39 -18.8713
vn 0 0.999965 0.00838881
v 61.2328 -18.39 -18.8713
vn 0 0.999991 0.00435561
v 56.3158 -18.39 -18.8713
vn -0.000258944 0.99976 0.021888
v 56.0747 -18.39 -18.9008
vn -0.0486998 0.985294 0.163778
v 55.8479 -18.39 -18.9876
vn -0.0687403 0.990788 0.116682
v 55.6486 -18.39 -19.1264
vn -0.0711182 0.99483 0.0724927
v 55.4887 -18.39 -19.3092
vn -0.064993 0.997085 0.0399789
v 55.3776 -18.39 -19.5252
vn -0.0561904 0.99826 0.0178732
v 55.3218 -18.39 -19.7616
vn -0.0471235 0.998884 0.00304815
v 55.3247 -18.39 -20.0044
vn -0.0385616 0.999232 -0.00697781
v 56.5477 -18.7059 -24.469
vn -0.860047 0.382391 -0.33778
v 56.6512 -18.5364 -24.4281
vn -0.611362 0.754048 -0.240101
v 56.8088 -18.4251 -24.366
vn -0.321522 0.938445 -0.126268
v 58.1416 -18.7059 -28.5274
vn -0.860115 0.382217 -0.337806
v 58.2451 -18.5364 -28.4867
vn -0.658405 0.706853 -0.258576
v 58.4028 -18.4251 -28.4248
vn -0.356316 0.923828 -0.13993
v 59.7356 -18.7059 -32.5859
vn -0.864123 0.372504 -0.338426
v 59.8391 -18.5364 -32.5453
vn -0.681414 0.681584 -0.266681
v 59.9967 -18.4251 -32.4836
vn -0.337457 0.932059 -0.131866
v 55.2148 -18.4251 -20.3071
vn -0.406276 0.900133 -0.157162
v 55.0572 -18.5364 -20.3695
vn -0.698472 0.663302 -0.268639
v 54.9537 -18.7059 -20.4105
vn -0.863852 0.384988 -0.324875
v 61.2382 -18.8093 -36.4898
vn -0.862724 0.188399 -0.469268
v 61.2524 -18.7265 -36.4689
vn -0.756037 0.368914 -0.540657
v 61.2772 -18.6454 -36.4325
vn -0.67001 0.570244 -0.475298
v 61.3123 -18.5704 -36.3809
vn -0.596175 0.685433 -0.41804
v 61.3564 -18.5054 -36.3159
vn -0.485694 0.805055 -0.340571
v 61.4074 -18.4538 -36.2409
vn -0.393013 0.878866 -0.270437
v 61.4625 -18.4174 -36.1598
vn -0.245698 0.954882 -0.166834
v 61.5188 -18.3965 -36.077
vn -0.100963 0.989729 -0.101209
v 62.5069 -18.7059 -36.4612
vn 0.0026941 0.419282 -0.907852
v 62.5069 -18.5364 -36.3499
vn 0.00298109 0.728698 -0.684829
v 62.5069 -18.4251 -36.1804
vn 0.00328686 0.926039 -0.377413
v 63.8325 -18.7059 -36.4612
vn 0 0.336487 -0.941688
v 63.8325 -18.5364 -36.3499
vn 0 0.707107 -0.707107
v 63.8325 -18.4251 -36.1804
vn 0 0.92394 -0.382536
v 65.1581 -18.7059 -36.4612
vn 0 0.345265 -0.938505
v 65.1581 -18.5364 -36.3499
vn 0 0.656689 -0.754162
v 65.1581 -18.4251 -36.1804
vn 0 0.912789 -0.408431
v 71.0668 -18.7059 -18.4065
vn 0 0.408615 0.912707
v 71.0668 -18.5364 -18.5178
vn 0 0.754162 0.656689
v 71.0668 -18.4251 -18.6873
vn 0 0.938467 0.345369
v 66.1498 -18.7059 -18.4065
vn 0 0.382759 0.923848
v 66.1498 -18.5364 -18.5178
vn 0 0.707107 0.707107
v 66.1498 -18.4251 -18.6873
vn 0 0.923902 0.382629
v 61.2328 -18.7059 -18.4065
vn 0 0.345544 0.938402
v 61.2328 -18.5364 -18.5178
vn 0 0.656689 0.754162
v 61.2328 -18.4251 -18.6873
vn 0 0.912753 0.408513
v 56.3158 -18.7059 -18.4065
vn -0.00642344 0.436411 0.899724
v 56.3158 -18.5364 -18.5178
vn -0.00591086 0.748195 0.663452
v 56.3158 -18.4251 -18.6873
vn -0.00322358 0.944811 0.327599
v 55.9626 -18.7059 -18.4497
vn -0.220687 0.422945 0.878871
v 55.9895 -18.5364 -18.5577
vn -0.159364 0.750201 0.641717
v 56.0303 -18.4251 -18.7222
vn -0.0805805 0.936668 0.340821
v 55.6303 -18.7059 -18.5767
vn -0.439404 0.399501 0.804564
v 55.6824 -18.5364 -18.6751
vn -0.325342 0.701977 0.633546
v 55.7617 -18.4251 -18.8249
vn -0.168468 0.919978 0.353919
v 55.3384 -18.7059 -18.7801
vn -0.616424 0.392073 0.682862
v 55.4127 -18.5364 -18.8631
vn -0.46846 0.702043 0.536359
v 55.5258 -18.4251 -18.9893
vn -0.248856 0.919968 0.30287
v 55.1042 -18.7059 -19.0479
vn -0.763815 0.376585 0.524185
v 55.1963 -18.5364 -19.1105
vn -0.583916 0.702068 0.407606
v 55.3365 -18.4251 -19.2058
vn -0.314537 0.919959 0.233968
v 54.9414 -18.7059 -19.3643
vn -0.863956 0.397584 0.30904
v 55.0459 -18.5364 -19.4028
vn -0.664982 0.70203 0.254858
v 55.2049 -18.4251 -19.4615
vn -0.361631 0.919971 0.151253
v 54.8597 -18.7059 -19.7105
vn -0.920817 0.377994 0.096001
v 54.9704 -18.5364 -19.7227
vn -0.706756 0.702078 0.0870803
v 55.1389 -18.4251 -19.7413
vn -0.387425 0.919971 0.0596257
v 54.8639 -18.7059 -20.0663
vn -0.921873 0.368326 -0.120356
v 54.9742 -18.5364 -20.0514
vn -0.749799 0.653966 -0.100648
v 55.1422 -18.4251 -20.0289
vn -0.415615 0.907989 -0.053113
f 2//2 1//1 3//3
f 2//2 3//3 4//4
f 4//4 3//3 5//5
f 4//4 5//5 6//6
f 6//6 5//5 7//7
f 6//6 7//7 8//8
f 8//8 7//7 1//1
f 8//8 1//1 2//2
f 5//5 3//3 1//1
f 5//5 1//1 7//7
f 6//6 8//8 2//2
f 6//6 2//2 4//4
f 10//10 9//9 11//11
f 10//10 11//11 12//12
f 12//12 11//11 13//13
f 12//12 13//13 14//14
f 16//16 15//15 17//17
f 16//16 17//17 18//18
f 18//18 17//17 9//9
f 18//18 9//9 10//10
f 15//15 11//11 9//9
f 15//15 9//9 17//17
f 16//16 18//18 10//10
f 16//16 10//10 12//12
f 20//20 19//19 21//21
f 20//20 21//21 22//22
f 22//22 21//21 23//23
f 22//22 23//23 24//24
f 24//24 23//23 25//25
f 24//24 25//25 26//26
f 26//26 25//25 19//19
f 26//26 19//19 20//20
f 21//21 19//19 25//25
f 21//21 25//25 23//23
f 22//22 24//24 26//26
f 22//22 26//26 20//20
f 28//28 27//27 46//46
f 31//31 46//46 27//27
f 46//46 30//30 29//29
f 46//46 29//29 28//28
f 47//47 46//46 31//31
f 33//33 48//48 47//47
f 33//33 47//47 31//31
f 35//35 49//49 48//48
f 35//35 48//48 33//33
f 30//30 46//46 47//47
f 30//30 47//47 32//32
f 34//34 48//48 49//49
f 34//34 49//49 36//36
f 48//48 34//34 32//32
f 48//48 32//32 47//47
f 49//49 35//35 37//37
f 49//49 37//37 50//50
f 50//50 37//37 39//39
f 50//50 39//39 51//51
f 36//36 49//49 50//50
f 36//36 50//50 38//38
f 41//41 52//52 51//51
f 41//41 51//51 39//39
f 43//43 44//44 52//52
f 43//43 52//52 41//41
f 51//51 40//40 38//38
f 51//51 38//38 50//50
f 44//44 45//45 42//42
f 44//44 42//42 52//52
f 52//52 42//42 40//40
f 52//52 40//40 51//51
f 53//53 44//44 43//43
f 45//45 44//44 54//54
f 53//53 54//54 44//44
f 56//56 55//55 59//59
f 56//56 59//59 60//60
f 57//57 59//59 55//55
f 56//56 61//61 58//58
f 56//56 60//60 61//61
f 27//27 66//66 62//62
f 28//28 64//64 65//65
f 65//65 66//66 28//28
f 28//28 29//29 63//63
f 28//28 63//63 64//64
f 27//27 28//28 66//66
f 43//43 39//39 37//37
f 39//39 43//43 41//41
f 35//35 43//43 37//37
f 43//43 35//35 33//33
f 27//27 43//43 31//31
f 43//43 33//33 31//31
f 27//27 68//68 43//43
f 68//68 62//62 55//55
f 27//27 62//62 68//68
f 68//68 67//67 53//53
f 53//53 43//43 68//68
f 57//57 71//71 70//70
f 69//69 57//57 70//70
f 57//57 62//62 71//71
f 57//57 55//55 62//62
f 45//45 38//38 40//40
f 40//40 42//42 45//45
f 36//36 38//38 45//45
f 32//32 34//34 45//45
f 45//45 30//30 32//32
f 29//29 30//30 45//45
f 36//36 45//45 34//34
f 29//29 45//45 73//73
f 73//73 56//56 63//63
f 29//29 73//73 63//63
f 73//73 54//54 72//72
f 54//54 73//73 45//45
f 58//58 75//75 76//76
f 74//74 75//75 58//58
f 58//58 76//76 63//63
f 58//58 63//63 56//56
f 81//81 78//78 77//77
f 81//81 77//77 80//80
f 82//82 79//79 78//78
f 82//82 78//78 81//81
f 84//84 81//81 80//80
f 84//84 80//80 83//83
f 85//85 82//82 81//81
f 85//85 81//81 84//84
f 74//74 58//58 61//61
f 74//74 61//61 77//77
f 60//60 80//80 77//77
f 60//60 77//77 61//61
f 80//80 60//60 59//59
f 80//80 59//59 83//83
f 77//77 78//78 75//75
f 77//77 75//75 74//74
f 76//76 75//75 78//78
f 76//76 78//78 79//79
f 63//63 76//76 79//79
f 63//63 79//79 64//64
f 64//64 79//79 82//82
f 64//64 82//82 65//65
f 83//83 59//59 57//57
f 83//83 57//57 69//69
f 84//84 83//83 69//69
f 84//84 69//69 70//70
f 70//70 71//71 85//85
f 70//70 85//85 84//84
f 65//65 82//82 85//85
f 65//65 85//85 66//66
f 71//71 62//62 66//66
f 71//71 66//66 85//85
f 123//123 86//86 124//124
f 122//122 125//125 126//126
f 123//123 124//124 125//125
f 122//122 123//123 125//125
f 126//126 127//127 116//116
f 126//126 116//116 117//117
f 126//126 87//87 122//122
f 127//127 128//128 115//115
f 127//127 115//115 116//116
f 87//87 126//126 117//117
f 128//128 129//129 114//114
f 128//128 114//114 115//115
f 130//130 131//131 89//89
f 130//130 89//89 113//113
f 129//129 130//130 113//113
f 129//129 113//113 114//114
f 133//133 149//149 132//132
f 135//135 149//149 134//134
f 136//136 149//149 135//135
f 134//134 149//149 133//133
f 131//131 132//132 112//112
f 131//131 112//112 89//89
f 137//137 149//149 136//136
f 118//118 119//119 120//120
f 120//120 119//119 88//88
f 118//118 120//120 121//121
f 121//121 117//117 118//118
f 117//117 121//121 87//87
f 111//111 112//112 149//149
f 149//149 110//110 111//111
f 149//149 108//108 109//109
f 149//149 107//107 108//108
f 109//109 110//110 149//149
f 149//149 150//150 106//106
f 149//149 106//106 107//107
f 112//112 132//132 149//149
f 150//150 149//149 137//137
f 150//150 138//138 139//139
f 150//150 140//140 141//141
f 150//150 139//139 140//140
f 150//150 141//141 151//151
f 142//142 151//151 141//141
f 144//144 151//151 143//143
f 142//142 143//143 151//151
f 145//145 151//151 144//144
f 150//150 151//151 104//104
f 150//150 104//104 105//105
f 152//152 145//145 91//91
f 153//153 152//152 91//91
f 153//153 91//91 146//146
f 146//146 147//147 154//154
f 146//146 154//154 153//153
f 147//147 92//92 154//154
f 94//94 155//155 148//148
f 92//92 148//148 155//155
f 94//94 95//95 156//156
f 94//94 156//156 155//155
f 92//92 155//155 154//154
f 151//151 145//145 152//152
f 157//157 151//151 152//152
f 157//157 100//100 151//151
f 150//150 105//105 90//90
f 90//90 106//106 150//150
f 103//103 104//104 151//151
f 101//101 102//102 151//151
f 100//100 101//101 151//151
f 103//103 151//151 102//102
f 100//100 157//157 99//99
f 98//98 99//99 157//157
f 153//153 98//98 157//157
f 153//153 154//154 97//97
f 153//153 97//97 98//98
f 155//155 156//156 154//154
f 156//156 93//93 154//154
f 156//156 96//96 93//93
f 156//156 95//95 96//96
f 93//93 97//97 154//154
f 152//152 153//153 157//157
f 138//138 150//150 137//137
f 94//94 160//160 163//163
f 94//94 163//163 95//95
f 160//160 161//161 162//162
f 160//160 162//162 163//163
f 161//161 158//158 159//159
f 161//161 159//159 162//162
f 171//171 158//158 170//170
f 158//158 172//172 164//164
f 171//171 172//172 158//158
f 169//169 158//158 164//164
f 174//174 175//175 159//159
f 174//174 159//159 173//173
f 169//169 173//173 159//159
f 169//169 159//159 158//158
f 164//164 165//165 168//168
f 164//164 168//168 169//169
f 166//166 165//165 176//176
f 166//166 177//177 178//178
f 176//176 177//177 166//166
f 167//167 165//165 166//166
f 167//167 181//181 168//168
f 179//179 180//180 167//167
f 181//181 167//167 180//180
f 167//167 168//168 165//165
f 166//166 190//190 186//186
f 166//166 186//186 167//167
f 190//190 191//191 185//185
f 190//190 185//185 186//186
f 185//185 191//191 188//188
f 187//187 192//192 182//182
f 191//191 187//187 188//188
f 184//184 185//185 189//189
f 189//189 185//185 188//188
f 184//184 189//189 183//183
f 187//187 191//191 192//192
f 198//198 194//194 193//193
f 198//198 193//193 197//197
f 199//199 195//195 194//194
f 199//199 194//194 198//198
f 202//202 198//198 197//197
f 202//202 197//197 201//201
f 203//203 199//199 198//198
f 203//203 198//198 202//202
f 182//182 204//204 193//193
f 182//182 193//193 187//187
f 205//205 196//196 197//197
f 205//205 197//197 193//193
f 196//196 206//206 201//201
f 196//196 201//201 197//197
f 204//204 205//205 193//193
f 193//193 194//194 188//188
f 193//193 188//188 187//187
f 189//189 195//195 211//211
f 189//189 211//211 183//183
f 189//189 188//188 194//194
f 189//189 194//194 195//195
f 200//200 210//210 195//195
f 200//200 195//195 199//199
f 211//211 195//195 210//210
f 207//207 201//201 206//206
f 202//202 201//201 122//122
f 202//202 122//122 87//87
f 123//123 207//207 86//86
f 123//123 122//122 201//201
f 207//207 123//123 201//201
f 209//209 200//200 199//199
f 209//209 199//199 203//203
f 203//203 208//208 209//209
f 208//208 203//203 120//120
f 203//203 202//202 87//87
f 203//203 87//87 121//121
f 208//208 120//120 88//88
f 203//203 121//121 120//120
f 165//165 214//214 213//213
f 165//165 213//213 215//215
f 228//228 212//212 234//234
f 234//234 233//233 232//232
f 234//234 232//232 231//231
f 215//215 212//212 224//224
f 164//164 214//214 165//165
f 212//212 215//215 213//213
f 219//219 216//216 220//220
f 216//216 221//221 220//220
f 219//219 217//217 216//216
f 222//222 221//221 216//216
f 219//219 236//236 235//235
f 219//219 218//218 236//236
f 237//237 236//236 218//218
f 217//217 219//219 235//235
f 228//228 234//234 229//229
f 231//231 230//230 234//234
f 230//230 229//229 234//234
f 228//228 227//227 212//212
f 212//212 225//225 224//224
f 212//212 227//227 226//226
f 212//212 226//226 225//225
f 215//215 224//224 223//223
f 215//215 223//223 222//222
f 215//215 222//222 216//216
f 168//168 238//238 243//243
f 168//168 243//243 244//244
f 255//255 261//261 242//242
f 261//261 259//259 260//260
f 261//261 258//258 259//259
f 238//238 251//251 242//242
f 169//169 168//168 244//244
f 242//242 243//243 238//238
f 247//247 239//239 240//240
f 248//248 239//239 247//247
f 240//240 246//246 247//247
f 241//241 246//246 240//240
f 249//249 239//239 248//248
f 246//246 262//262 263//263
f 246//246 263//263 245//245
f 264//264 245//245 263//263
f 241//241 262//262 246//246
f 255//255 256//256 261//261
f 258//258 261//261 257//257
f 257//257 261//261 256//256
f 255//255 242//242 254//254
f 242//242 251//251 252//252
f 242//242 253//253 254//254
f 242//242 252//252 253//253
f 238//238 250//250 251//251
f 238//238 249//249 250//250
f 238//238 239//239 249//249
f 269//269 268//268 265//265
f 269//269 265//265 266//266
f 270//270 269//269 266//266
f 270//270 266//266 267//267
f 272//272 271//271 268//268
f 272//272 268//268 269//269
f 273//273 272//272 269//269
f 273//273 269//269 270//270
f 275//275 274//274 271//271
f 275//275 271//271 272//272
f 276//276 275//275 272//272
f 276//276 272//272 273//273
f 278//278 277//277 274//274
f 278//278 274//274 275//275
f 279//279 278//278 275//275
f 279//279 275//275 276//276
f 281//281 280//280 277//277
f 281//281 277//277 278//278
f 282//282 281//281 278//278
f 282//282 278//278 279//279
f 284//284 283//283 280//280
f 284//284 280//280 281//281
f 285//285 284//284 281//281
f 285//285 281//281 282//282
f 287//287 286//286 283//283
f 287//287 283//283 284//284
f 288//288 287//287 284//284
f 288//288 284//284 285//285
f 290//290 289//289 286//286
f 290//290 286//286 287//287
f 291//291 290//290 287//287
f 291//291 287//287 288//288
f 293//293 292//292 289//289
f 293//293 289//289 290//290
f 294//294 293//293 290//290
f 294//294 290//290 291//291
f 296//296 295//295 292//292
f 296//296 292//292 293//293
f 297//297 296//296 293//293
f 297//297 293//293 294//294
f 299//299 298//298 295//295
f 299//299 295//295 296//296
f 300//300 299//299 296//296
f 300//300 296//296 297//297
f 302//302 301//301 298//298
f 302//302 298//298 299//299
f 303//303 302//302 299//299
f 303//303 299//299 300//300
f 305//305 304//304 301//301
f 305//305 301//301 302//302
f 306//306 305//305 302//302
f 306//306 302//302 303//303
f 308//308 307//307 304//304
f 308//308 304//304 305//305
f 328//328 305//305 306//306
f 308//308 328//328 309//309
f 305//305 328//328 308//308
f 329//329 328//328 306//306
f 329//329 306//306 327//327
f 314//314 309//309 328//328
f 314//314 328//328 329//329
f 330//330 331//331 320//320
f 319//319 320//320 321//321
f 320//320 323//323 317//317
f 320//320 317//317 322//322
f 323//323 320//320 319//319
f 323//323 316//316 317//317
f 318//318 323//323 319//319
f 316//316 323//323 318//318
f 326//326 325//325 314//314
f 326//326 314//314 324//324
f 317//317 316//316 325//325
f 317//317 325//325 326//326
f 325//325 309//309 314//314
f 315//315 325//325 316//316
f 309//309 325//325 315//315
f 124//124 86//86 337//337
f 338//338 126//126 125//125
f 338//338 125//125 124//124
f 265//265 128//128 127//127
f 268//268 130//130 129//129
f 268//268 129//129 265//265
f 265//265 129//129 128//128
f 265//265 127//127 126//126
f 338//338 265//265 126//126
f 268//268 131//131 130//130
f 268//268 132//132 131//131
f 265//265 338//338 339//339
f 265//265 339//339 266//266
f 268//268 133//133 132//132
f 271//271 134//134 133//133
f 271//271 133//133 268//268
f 135//135 134//134 271//271
f 338//338 124//124 337//337
f 271//271 137//137 136//136
f 274//274 139//139 138//138
f 274//274 138//138 271//271
f 271//271 138//138 137//137
f 140//140 139//139 274//274
f 143//143 142//142 277//277
f 141//141 140//140 274//274
f 142//142 141//141 274//274
f 91//91 145//145 340//340
f 145//145 144//144 280//280
f 143//143 277//277 144//144
f 341//341 147//147 342//342
f 146//146 342//342 147//147
f 91//91 340//340 343//343
f 342//342 146//146 343//343
f 342//342 343//343 286//286
f 342//342 286//286 289//289
f 340//340 145//145 280//280
f 341//341 342//342 289//289
f 341//341 289//289 292//292
f 146//146 91//91 343//343
f 343//343 340//340 283//283
f 343//343 283//283 286//286
f 135//135 271//271 136//136
f 336//336 339//339 338//338
f 336//336 338//338 337//337
f 335//335 344//344 339//339
f 335//335 339//339 336//336
f 344//344 267//267 266//266
f 344//344 266//266 339//339
f 270//270 267//267 219//219
f 270//270 219//219 220//220
f 344//344 218//218 219//219
f 344//344 219//219 267//267
f 218//218 344//344 335//335
f 276//276 273//273 221//221
f 276//276 221//221 222//222
f 222//222 223//223 279//279
f 222//222 279//279 276//276
f 273//273 270//270 220//220
f 273//273 220//220 221//221
f 144//144 277//277 280//280
f 282//282 279//279 223//223
f 282//282 223//223 224//224
f 283//283 340//340 280//280
f 224//224 225//225 285//285
f 224//224 285//285 282//282
f 225//225 226//226 288//288
f 225//225 288//288 285//285
f 291//291 288//288 226//226
f 291//291 226//226 227//227
f 291//291 227//227 327//327
f 294//294 291//291 327//327
f 277//277 142//142 274//274
f 345//345 341//341 292//292
f 345//345 292//292 295//295
f 345//345 346//346 147//147
f 92//92 147//147 346//346
f 295//295 298//298 346//346
f 295//295 346//346 345//345
f 304//304 307//307 348//348
f 304//304 348//348 347//347
f 349//349 347//347 92//92
f 148//148 92//92 347//347
f 349//349 346//346 298//298
f 349//349 298//298 301//301
f 347//347 349//349 301//301
f 347//347 301//301 304//304
f 92//92 346//346 349//349
f 309//309 334//334 308//308
f 327//327 303//303 300//300
f 327//327 300//300 297//297
f 324//324 329//329 327//327
f 303//303 327//327 306//306
f 228//228 327//327 227//227
f 294//294 327//327 297//297
f 307//307 310//310 94//94
f 307//307 94//94 348//348
f 94//94 148//148 348//348
f 308//308 333//333 307//307
f 308//308 311//311 333//333
f 307//307 333//333 310//310
f 334//334 311//311 308//308
f 322//322 326//326 324//324
f 314//314 329//329 324//324
f 312//312 334//334 315//315
f 309//309 315//315 334//334
f 316//316 318//318 315//315
f 312//312 315//315 318//318
f 321//321 312//312 318//318
f 348//348 148//148 347//347
f 324//324 327//327 228//228
f 228//228 229//229 324//324
f 322//322 317//317 326//326
f 229//229 230//230 322//322
f 229//229 322//322 324//324
f 330//330 320//320 322//322
f 231//231 330//330 230//230
f 230//230 330//330 322//322
f 231//231 332//332 330//330
f 231//231 232//232 332//332
f 233//233 234//234 332//332
f 332//332 232//232 233//233
f 318//318 319//319 321//321
f 321//321 320//320 331//331
f 331//331 312//312 321//321
f 313//313 330//330 332//332
f 332//332 234//234 313//313
f 313//313 312//312 330//330
f 330//330 312//312 331//331
f 345//345 147//147 341//341
f 354//354 351//351 350//350
f 354//354 350//350 353//353
f 355//355 352//352 351//351
f 355//355 351//351 354//354
f 357//357 354//354 353//353
f 357//357 353//353 356//356
f 358//358 355//355 354//354
f 358//358 354//354 357//357
f 360//360 357//357 356//356
f 360//360 356//356 359//359
f 361//361 358//358 357//357
f 361//361 357//357 360//360
f 363//363 360//360 359//359
f 363//363 359//359 362//362
f 364//364 361//361 360//360
f 364//364 360//360 363//363
f 366//366 363//363 362//362
f 366//366 362//362 365//365
f 367//367 364//364 363//363
f 367//367 363//363 366//366
f 369//369 366//366 365//365
f 369//369 365//365 368//368
f 370//370 367//367 366//366
f 370//370 366//366 369//369
f 372//372 369//369 368//368
f 372//372 368//368 371//371
f 373//373 370//370 369//369
f 373//373 369//369 372//372
f 375//375 372//372 371//371
f 375//375 371//371 374//374
f 376//376 373//373 372//372
f 376//376 372//372 375//375
f 378//378 375//375 374//374
f 378//378 374//374 377//377
f 379//379 376//376 375//375
f 379//379 375//375 378//378
f 381//381 378//378 377//377
f 381//381 377//377 380//380
f 382//382 379//379 378//378
f 382//382 378//378 381//381
f 384//384 381//381 380//380
f 384//384 380//380 383//383
f 385//385 382//382 381//381
f 385//385 381//381 384//384
f 387//387 384//384 383//383
f 387//387 383//383 386//386
f 388//388 385//385 384//384
f 388//388 384//384 387//387
f 390//390 387//387 386//386
f 390//390 386//386 389//389
f 391//391 388//388 387//387
f 391//391 387//387 390//390
f 393//393 390//390 389//389
f 393//393 389//389 392//392
f 410//410 391//391 390//390
f 393//393 394//394 410//410
f 390//390 393//393 410//410
f 411//411 409//409 391//391
f 411//411 391//391 410//410
f 396//396 411//411 410//410
f 396//396 410//410 394//394
f 412//412 402//402 413//413
f 401//401 403//403 402//402
f 402//402 404//404 399//399
f 402//402 399//399 405//405
f 405//405 401//401 402//402
f 405//405 399//399 398//398
f 400//400 401//401 405//405
f 398//398 400//400 405//405
f 408//408 406//406 396//396
f 408//408 396//396 407//407
f 399//399 408//408 407//407
f 399//399 407//407 398//398
f 407//407 396//396 394//394
f 397//397 398//398 407//407
f 394//394 397//397 407//407
f 119//119 422//422 88//88
f 423//423 118//118 117//117
f 423//423 119//119 118//118
f 350//350 116//116 115//115
f 353//353 350//350 114//114
f 353//353 114//114 113//113
f 350//350 115//115 114//114
f 350//350 117//117 116//116
f 423//423 117//117 350//350
f 353//353 113//113 89//89
f 353//353 89//89 112//112
f 350//350 351//351 424//424
f 350//350 424//424 423//423
f 353//353 112//112 111//111
f 356//356 353//353 111//111
f 356//356 111//111 110//110
f 109//109 356//356 110//110
f 423//423 422//422 119//119
f 356//356 108//108 107//107
f 359//359 356//356 106//106
f 359//359 106//106 90//90
f 356//356 107//107 106//106
f 105//105 359//359 90//90
f 102//102 362//362 103//103
f 104//104 359//359 105//105
f 103//103 359//359 104//104
f 99//99 425//425 100//100
f 100//100 365//365 101//101
f 102//102 101//101 362//362
f 426//426 427//427 97//97
f 98//98 97//97 427//427
f 428//428 425//425 99//99
f 428//428 99//99 98//98
f 427//427 428//428 98//98
f 427//427 374//374 371//371
f 427//427 371//371 428//428
f 425//425 365//365 100//100
f 426//426 377//377 374//374
f 426//426 374//374 427//427
f 428//428 371//371 368//368
f 428//428 368//368 425//425
f 109//109 108//108 356//356
f 421//421 422//422 423//423
f 421//421 423//423 424//424
f 420//420 421//421 424//424
f 420//420 424//424 429//429
f 429//429 424//424 351//351
f 429//429 351//351 352//352
f 355//355 247//247 246//246
f 355//355 246//246 352//352
f 429//429 352//352 246//246
f 429//429 246//246 245//245
f 245//245 420//420 429//429
f 361//361 249//249 248//248
f 361//361 248//248 358//358
f 249//249 361//361 364//364
f 249//249 364//364 250//250
f 358//358 248//248 247//247
f 358//358 247//247 355//355
f 101//101 365//365 362//362
f 367//367 251//251 250//250
f 367//367 250//250 364//364
f 368//368 365//365 425//425
f 251//251 367//367 370//370
f 251//251 370//370 252//252
f 252//252 370//370 373//373
f 252//252 373//373 253//253
f 376//376 254//254 253//253
f 376//376 253//253 373//373
f 376//376 409//409 254//254
f 379//379 409//409 376//376
f 362//362 359//359 103//103
f 430//430 380//380 377//377
f 430//430 377//377 426//426
f 430//430 97//97 431//431
f 93//93 431//431 97//97
f 380//380 430//430 431//431
f 380//380 431//431 383//383
f 389//389 432//432 433//433
f 389//389 433//433 392//392
f 434//434 93//93 432//432
f 96//96 432//432 93//93
f 434//434 386//386 383//383
f 434//434 383//383 431//431
f 432//432 389//389 386//386
f 432//432 386//386 434//434
f 93//93 434//434 431//431
f 394//394 393//393 418//418
f 409//409 385//385 388//388
f 409//409 382//382 385//385
f 406//406 409//409 411//411
f 388//388 391//391 409//409
f 255//255 254//254 409//409
f 379//379 382//382 409//409
f 392//392 433//433 95//95
f 392//392 95//95 415//415
f 95//95 433//433 96//96
f 393//393 392//392 416//416
f 393//393 416//416 417//417
f 392//392 415//415 416//416
f 418//418 393//393 417//417
f 404//404 406//406 408//408
f 396//396 406//406 411//411
f 397//397 418//418 419//419
f 398//398 397//397 400//400
f 419//419 400//400 397//397
f 400//400 419//419 403//403
f 394//394 418//418 397//397
f 433//433 432//432 96//96
f 406//406 255//255 409//409
f 255//255 406//406 256//256
f 404//404 408//408 399//399
f 256//256 404//404 257//257
f 256//256 406//406 404//404
f 412//412 404//404 402//402
f 258//258 257//257 412//412
f 257//257 404//404 412//412
f 258//258 412//412 414//414
f 258//258 414//414 259//259
f 260//260 414//414 261//261
f 414//414 260//260 259//259
f 400//400 403//403 401//401
f 403//403 413//413 402//402
f 403//403 419//419 413//413
f 395//395 414//414 412//412
f 414//414 395//395 261//261
f 412//412 413//413 419//419
f 419//419 395//395 412//412
f 430//430 426//426 97//97
f 439//439 438//438 435//435
f 439//439 435//435 436//436
f 440//440 439//439 436//436
f 440//440 436//436 437//437
f 442//442 441//441 438//438
f 442//442 438//438 439//439
f 443//443 442//442 439//439
f 443//443 439//439 440//440
f 435//435 94//94 310//310
f 435//435 310//310 333//333
f 435//435 333//333 436//436
f 311//311 436//436 333//333
f 94//94 435//435 160//160
f 437//437 334//334 312//312
f 313//313 212//212 437//437
f 313//313 437//437 312//312
f 334//334 437//437 436//436
f 212//212 213//213 440//440
f 212//212 440//440 437//437
f 436//436 311//311 334//334
f 435//435 438//438 160//160
f 161//161 160//160 438//438
f 161//161 438//438 441//441
f 441//441 170//170 158//158
f 441//441 158//158 161//161
f 442//442 171//171 170//170
f 442//442 170//170 441//441
f 213//213 214//214 443//443
f 213//213 443//443 440//440
f 214//214 164//164 172//172
f 214//214 172//172 443//443
f 171//171 442//442 443//443
f 171//171 443//443 172//172
f 448//448 445//445 444//444
f 448//448 444//444 447//447
f 449//449 446//446 445//445
f 449//449 445//445 448//448
f 451//451 448//448 447//447
f 451//451 447//447 450//450
f 452//452 449//449 448//448
f 452//452 448//448 451//451
f 444//444 415//415 95//95
f 444//444 416//416 415//415
f 95//95 163//163 444//444
f 416//416 444//444 445//445
f 417//417 416//416 445//445
f 418//418 417//417 445//445
f 446//446 419//419 418//418
f 446//446 242//242 395//395
f 446//446 395//395 419//419
f 242//242 446//446 449//449
f 242//242 449//449 243//243
f 418//418 445//445 446//446
f 444//444 163//163 447//447
f 162//162 450//450 447//447
f 162//162 447//447 163//163
f 450//450 162//162 159//159
f 450//450 159//159 175//175
f 451//451 450//450 175//175
f 451//451 175//175 174//174
f 243//243 449//449 452//452
f 243//243 452//452 244//244
f 244//244 452//452 173//173
f 244//244 173//173 169//169
f 174//174 173//173 452//452
f 174//174 452//452 451//451
f 457//457 456//456 453//453
f 457//457 453//453 454//454
f 458//458 457//457 454//454
f 458//458 454//454 455//455
f 460//460 459//459 456//456
f 460//460 456//456 457//457
f 461//461 460//460 457//457
f 461//461 457//457 458//458
f 178//178 453//453 190//190
f 178//178 190//190 166//166
f 453//453 456//456 191//191
f 453//453 191//191 190//190
f 453//453 178//178 177//177
f 453//453 177//177 454//454
f 176//176 455//455 454//454
f 176//176 454//454 177//177
f 165//165 215//215 455//455
f 165//165 455//455 176//176
f 215//215 216//216 458//458
f 215//215 458//458 455//455
f 192//192 191//191 456//456
f 192//192 456//456 459//459
f 459//459 462//462 182//182
f 459//459 182//182 192//192
f 460//460 463//463 462//462
f 460//460 462//462 459//459
f 216//216 461//461 458//458
f 217//217 461//461 216//216
f 463//463 460//460 461//461
f 463//463 461//461 464//464
f 461//461 217//217 464//464
f 469//469 466//466 465//465
f 469//469 465//465 468//468
f 470//470 467//467 466//466
f 470//470 466//466 469//469
f 472//472 469//469 468//468
f 472//472 468//468 471//471
f 473//473 470//470 469//469
f 473//473 469//469 472//472
f 179//179 167//167 186//186
f 179//179 186//186 465//465
f 185//185 468//468 465//465
f 185//185 465//465 186//186
f 468//468 185//185 184//184
f 468//468 184//184 471//471
f 465//465 466//466 180//180
f 465//465 180//180 179//179
f 181//181 180//180 466//466
f 181//181 466//466 467//467
f 168//168 181//181 467//467
f 168//168 467//467 238//238
f 238//238 467//467 470//470
f 238//238 470//470 239//239
f 471//471 184//184 183//183
f 471//471 183//183 474//474
f 472//472 471//471 474//474
f 472//472 474//474 475//475
f 473//473 472//472 475//475
f 473//473 475//475 476//476
f 239//239 470//470 473//473
f 239//239 473//473 240//240
f 476//476 241//241 240//240
f 476//476 240//240 473//473
f 481//481 480//480 477//477
f 481//481 477//477 478//478
f 482//482 481//481 478//478
f 482//482 478//478 479//479
f 484//484 483//483 480//480
f 484//484 480//480 481//481
f 485//485 484//484 481//481
f 485//485 481//481 482//482
f 462//462 204//204 182//182
f 477//477 204//204 462//462
f 480//480 196//196 205//205
f 480//480 205//205 477//477
f 204//204 477//477 205//205
f 477//477 462//462 463//463
f 477//477 463//463 478//478
f 464//464 479//479 478//478
f 464//464 478//478 463//463
f 217//217 235//235 479//479
f 217//217 479//479 464//464
f 235//235 236//236 482//482
f 235//235 482//482 479//479
f 196//196 480//480 483//483
f 196//196 483//483 206//206
f 483//483 207//207 206//206
f 337//337 207//207 483//483
f 207//207 337//337 86//86
f 337//337 483//483 484//484
f 337//337 484//484 336//336
f 236//236 237//237 485//485
f 236//236 485//485 482//482
f 335//335 485//485 237//237
f 335//335 237//237 218//218
f 485//485 335//335 336//336
f 485//485 336//336 484//484
f 490//490 487//487 486//486
f 490//490 486//486 489//489
f 491//491 488//488 487//487
f 491//491 487//487 490//490
f 493//493 490//490 489//489
f 493//493 489//489 492//492
f 494//494 491//491 490//490
f 494//494 490//490 493//493
f 474//474 183//183 211//211
f 486//486 474//474 211//211
f 489//489 486//486 210//210
f 489//489 210//210 200//200
f 211//211 210//210 486//486
f 475//475 474//474 486//486
f 475//475 486//486 487//487
f 476//476 475//475 487//487
f 476//476 487//487 488//488
f 241//241 476//476 488//488
f 241//241 488//488 262//262
f 262//262 488//488 491//491
f 262//262 491//491 263//263
f 489//489 200//200 209//209
f 492//492 209//209 208//208
f 422//422 492//492 208//208
f 208//208 88//88 422//422
f 422//422 421//421 493//493
f 422//422 493//493 492//492
f 263//263 491//491 494//494
f 263//263 494//494 264//264
f 420//420 245//245 264//264
f 420//420 264//264 494//494
f 494//494 493//493 421//421
f 494//494 421//421 420//420
f 209//209 492//492 489//489
f 495//495 500//500 510//510
f 495//495 510//510 496//496
f 501//501 510//510 500//500
f 502//502 503//503 511//511
f 502//502 511//511 512//512
f 502//502 512//512 501//501
f 504//504 511//511 503//503
f 497//497 510//510 512//512
f 497//497 512//512 31//31
f 501//501 512//512 510//510
f 510//510 497//497 27//27
f 510//510 27//27 496//496
f 33//33 511//511 513//513
f 33//33 513//513 35//35
f 504//504 513//513 511//511
f 511//511 33//33 31//31
f 511//511 31//31 512//512
f 513//513 504//504 505//505
f 514//514 505//505 506//506
f 506//506 507//507 515//515
f 506//506 515//515 514//514
f 35//35 513//513 514//514
f 35//35 514//514 37//37
f 509//509 516//516 508//508
f 508//508 515//515 507//507
f 509//509 498//498 499//499
f 509//509 499//499 516//516
f 37//37 514//514 515//515
f 37//37 515//515 39//39
f 39//39 515//515 516//516
f 39//39 516//516 41//41
f 499//499 43//43 41//41
f 499//499 41//41 516//516
f 516//516 515//515 508//508
f 505//505 514//514 513//513
f 499//499 498//498 518//518
f 499//499 53//53 43//43
f 519//519 499//499 518//518
f 53//53 519//519 520//520
f 520//520 517//517 53//53
f 499//499 519//519 53//53
f 67//67 517//517 523//523
f 517//517 67//67 53//53
f 524//524 521//521 523//523
f 522//522 521//521 524//524
f 522//522 524//524 525//525
f 67//67 523//523 521//521
f 67//67 521//521 526//526
f 67//67 526//526 68//68
f 527//527 530//530 526//526
f 527//527 529//529 530//530
f 68//68 526//526 531//531
f 68//68 531//531 528//528
f 528//528 55//55 68//68
f 531//531 526//526 530//530
f 55//55 528//528 534//534
f 535//535 55//55 534//534
f 533//533 535//535 536//536
f 536//536 532//532 533//533
f 55//55 535//535 533//533
f 533//533 532//532 537//537
f 496//496 533//533 537//537
f 496//496 538//538 495//495
f 496//496 27//27 533//533
f 538//538 496//496 537//537
f 550//550 547//547 546//546
f 550//550 549//549 548//548
f 547//547 550//550 548//548
f 545//545 550//550 546//546
f 543//543 550//550 544//544
f 550//550 545//545 544//544
f 543//543 542//542 550//550
f 551//551 542//542 556//556
f 555//555 526//526 556//556
f 550//550 542//542 551//551
f 526//526 552//552 551//551
f 553//553 526//526 521//521
f 552//552 526//526 553//553
f 522//522 553//553 521//521
f 555//555 554//554 526//526
f 541//541 540//540 554//554
f 539//539 554//554 540//540
f 539//539 527//527 554//554
f 527//527 526//526 554//554
f 551//551 556//556 526//526
f 37//37 43//43 35//35
f 43//43 33//33 35//35
f 43//43 497//497 31//31
f 31//31 33//33 43//43
f 27//27 497//497 43//43
f 39//39 43//43 37//37
f 68//68 27//27 43//43
f 53//53 68//68 43//43
f 55//55 533//533 68//68
f 68//68 533//533 27//27
f 67//67 68//68 53//53
f 43//43 39//39 41//41
f 561//561 560//560 557//557
f 561//561 557//557 558//558
f 562//562 561//561 558//558
f 562//562 558//558 559//559
f 564//564 563//563 560//560
f 564//564 560//560 561//561
f 565//565 564//564 561//561
f 565//565 561//561 562//562
f 567//567 566//566 563//563
f 567//567 563//563 564//564
f 568//568 567//567 564//564
f 568//568 564//564 565//565
f 570//570 569//569 566//566
f 570//570 566//566 567//567
f 571//571 570//570 567//567
f 571//571 567//567 568//568
f 573//573 572//572 569//569
f 573//573 569//569 570//570
f 574//574 573//573 570//570
f 574//574 570//570 571//571
f 576//576 575//575 572//572
f 576//576 572//572 573//573
f 577//577 576//576 573//573
f 577//577 573//573 574//574
f 500//500 495//495 583//583
f 560//560 502//502 501//501
f 560//560 501//501 557//557
f 500//500 557//557 501//501
f 557//557 500//500 583//583
f 502//502 560//560 563//563
f 502//502 563//563 503//503
f 566//566 504//504 503//503
f 566//566 503//503 563//563
f 505//505 504//504 566//566
f 582//582 558//558 557//557
f 582//582 557//557 583//583
f 581//581 559//559 558//558
f 581//581 558//558 582//582
f 542//542 543//543 559//559
f 542//542 559//559 581//581
f 562//562 559//559 543//543
f 562//562 543//543 544//544
f 565//565 562//562 544//544
f 565//565 544//544 545//545
f 545//545 546//546 568//568
f 545//545 568//568 565//565
f 569//569 506//506 505//505
f 572//572 507//507 506//506
f 572//572 506//506 569//569
f 508//508 507//507 572//572
f 575//575 509//509 508//508
f 578//578 498//498 509//509
f 576//576 579//579 578//578
f 576//576 578//578 575//575
f 509//509 575//575 578//578
f 508//508 572//572 575//575
f 571//571 568//568 546//546
f 571//571 546//546 547//547
f 547//547 548//548 574//574
f 547//547 574//574 571//571
f 579//579 576//576 577//577
f 579//579 577//577 580//580
f 549//549 550//550 580//580
f 549//549 580//580 577//577
f 577//577 574//574 548//548
f 577//577 548//548 549//549
f 505//505 566//566 569//569
f 588//588 587//587 584//584
f 588//588 584//584 585//585
f 589//589 588//588 585//585
f 589//589 585//585 586//586
f 591//591 590//590 587//587
f 591//591 587//587 588//588
f 592//592 591//591 588//588
f 592//592 588//588 589//589
f 578//578 584//584 518//518
f 578//578 518//518 498//498
f 519//519 518//518 584//584
f 519//519 584//584 587//587
f 587//587 590//590 520//520
f 587//587 520//520 519//519
f 579//579 585//585 584//584
f 579//579 584//584 578//578
f 580//580 586//586 585//585
f 580//580 585//585 579//579
f 550//550 551//551 586//586
f 550//550 586//586 580//580
f 551//551 552//552 589//589
f 551//551 589//589 586//586
f 590//590 523//523 517//517
f 590//590 517//517 520//520
f 591//591 524//524 523//523
f 591//591 523//523 590//590
f 524//524 591//591 592//592
f 524//524 592//592 525//525
f 552//552 553//553 592//592
f 552//552 592//592 589//589
f 525//525 592//592 553//553
f 525//525 553//553 522//522
f 597//597 596//596 593//593
f 597//597 593//593 594//594
f 598//598 597//597 594//594
f 598//598 594//594 595//595
f 600//600 599//599 596//596
f 600//600 596//596 597//597
f 601//601 600//600 597//597
f 601//601 597//597 598//598
f 531//531 593//593 534//534
f 531//531 534//534 528//528
f 530//530 594//594 593//593
f 530//530 593//593 531//531
f 535//535 534//534 593//593
f 535//535 593//593 596//596
f 596//596 599//599 536//536
f 596//596 536//536 535//535
f 527//527 539//539 595//595
f 527//527 595//595 529//529
f 529//529 595//595 594//594
f 529//529 594//594 530//530
f 598//598 595//595 539//539
f 598//598 539//539 540//540
f 540//540 601//601 598//598
f 604//604 599//599 600//600
f 536//536 599//599 602//602
f 605//605 604//604 600//600
f 602//602 599//599 603//603
f 603//603 599//599 604//604
f 532//532 536//536 602//602
f 541//541 609//609 601//601
f 600//600 601//601 607//607
f 540//540 541//541 601//601
f 601//601 608//608 607//607
f 608//608 601//601 609//609
f 607//607 606//606 600//600
f 606//606 605//605 600//600
f 614//614 613//613 610//610
f 614//614 610//610 611//611
f 615//615 614//614 611//611
f 615//615 611//611 612//612
f 617//617 616//616 613//613
f 617//617 613//613 614//614
f 618//618 617//617 614//614
f 618//618 614//614 615//615
f 603//603 610//610 602//602
f 532//532 602//602 610//610
f 611//611 610//610 604//604
f 603//603 604//604 610//610
f 606//606 611//611 605//605
f 604//604 605//605 611//611
f 608//608 612//612 607//607
f 611//611 606//606 607//607
f 554//554 612//612 609//609
f 608//608 609//609 612//612
f 609//609 541//541 554//554
f 554//554 555//555 615//615
f 554//554 615//615 612//612
f 607//607 612//612 611//611
f 613//613 616//616 538//538
f 613//613 538//538 537//537
f 616//616 583//583 495//495
f 616//616 495//495 538//538
f 583//583 616//616 617//617
f 583//583 617//617 582//582
f 555//555 556//556 618//618
f 555//555 618//618 615//615
f 581//581 618//618 556//556
f 581//581 556//556 542//542
f 618//618 581//581 582//582
f 618//618 582//582 617//617
f 610//610 613//613 532//532
f 613//613 537//537 532//532
f 622//622 624//624 619//619
f 621//621 29//29 624//624
f 621//621 622//622 623//623
f 623//623 620//620 621//621
f 624//624 622//622 621//621
f 621//621 620//620 626//626
f 56//56 621//621 626//626
f 56//56 626//626 627//627
f 56//56 627//627 625//625
f 73//73 625//625 630//630
f 625//625 73//73 56//56
f 631//631 628//628 630//630
f 629//629 628//628 631//631
f 629//629 631//631 632//632
f 73//73 630//630 628//628
f 73//73 628//628 633//633
f 73//73 633//633 72//72
f 634//634 637//637 633//633
f 634//634 636//636 637//637
f 72//72 633//633 638//638
f 72//72 638//638 635//635
f 635//635 54//54 72//72
f 638//638 633//633 637//637
f 54//54 635//635 640//640
f 643//643 54//54 641//641
f 640//640 641//641 54//54
f 643//643 642//642 639//639
f 643//643 45//45 54//54
f 642//642 643//643 641//641
f 639//639 644//644 654//654
f 639//639 654//654 643//643
f 645//645 654//654 644//644
f 646//646 647//647 655//655
f 646//646 655//655 656//656
f 646//646 656//656 645//645
f 648//648 655//655 647//647
f 42//42 654//654 656//656
f 42//42 656//656 40//40
f 645//645 656//656 654//654
f 654//654 42//42 45//45
f 654//654 45//45 643//643
f 38//38 655//655 657//657
f 38//38 657//657 36//36
f 648//648 657//657 655//655
f 655//655 38//38 40//40
f 655//655 40//40 656//656
f 657//657 648//648 649//649
f 658//658 649//649 650//650
f 650//650 651//651 659//659
f 650//650 659//659 658//658
f 36//36 657//657 658//658
f 36//36 658//658 34//34
f 653//653 660//660 652//652
f 652//652 659//659 651//651
f 653//653 619//619 624//624
f 653//653 624//624 660//660
f 34//34 658//658 659//659
f 34//34 659//659 32//32
f 32//32 659//659 660//660
f 32//32 660//660 30//30
f 624//624 29//29 30//30
f 624//624 30//30 660//660
f 660//660 659//659 652//652
f 649//649 658//658 657//657
f 668//668 634//634 633//633
f 670//670 669//669 628//628
f 668//668 628//628 669//669
f 667//667 628//628 664//664
f 628//628 668//668 633//633
f 629//629 664//664 628//628
f 667//667 664//664 663//663
f 667//667 663//663 662//662
f 661//661 667//667 662//662
f 666//666 670//670 628//628
f 673//673 672//672 671//671
f 671//671 675//675 674//674
f 673//673 671//671 674//674
f 676//676 675//675 671//671
f 667//667 666//666 628//628
f 666//666 665//665 670//670
f 671//671 665//665 678//678
f 678//678 677//677 671//671
f 676//676 671//671 677//677
f 665//665 671//671 670//670
f 45//45 73//73 54//54
f 45//45 29//29 73//73
f 54//54 73//73 72//72
f 73//73 621//621 56//56
f 29//29 621//621 73//73
f 42//42 40//40 45//45
f 45//45 38//38 36//36
f 45//45 36//36 34//34
f 32//32 30//30 45//45
f 32//32 45//45 34//34
f 30//30 29//29 45//45
f 38//38 45//45 40//40
f 683//683 682//682 679//679
f 683//683 679//679 680//680
f 684//684 683//683 680//680
f 684//684 680//680 681//681
f 686//686 685//685 682//682
f 686//686 682//682 683//683
f 687//687 686//686 683//683
f 687//687 683//683 684//684
f 679//679 619//619 690//690
f 689//689 680//680 679//679
f 689//689 679//679 690//690
f 682//682 622//622 679//679
f 619//619 679//679 622//622
f 682//682 685//685 623//623
f 682//682 623//623 622//622
f 665//665 666//666 681//681
f 665//665 681//681 688//688
f 688//688 681//681 680//680
f 688//688 680//680 689//689
f 684//684 681//681 666//666
f 684//684 666//666 667//667
f 667//667 687//687 684//684
f 693//693 685//685 686//686
f 623//623 685//685 691//691
f 694//694 693//693 686//686
f 691//691 685//685 692//692
f 692//692 685//685 693//693
f 620//620 623//623 691//691
f 661//661 698//698 687//687
f 686//686 687//687 696//696
f 667//667 661//661 687//687
f 687//687 697//697 696//696
f 697//697 687//687 698//698
f 696//696 695//695 686//686
f 695//695 694//694 686//686
f 703//703 702//702 699//699
f 703//703 699//699 700//700
f 704//704 703//703 700//700
f 704//704 700//700 701//701
f 706//706 705//705 702//702
f 706//706 702//702 703//703
f 707//707 706//706 703//703
f 707//707 703//703 704//704
f 692//692 699//699 691//691
f 620//620 691//691 699//699
f 700//700 699//699 693//693
f 692//692 693//693 699//699
f 695//695 700//700 694//694
f 693//693 694//694 700//700
f 620//620 699//699 702//702
f 620//620 702//702 626//626
f 697//697 701//701 696//696
f 700//700 695//695 696//696
f 662//662 701//701 698//698
f 697//697 698//698 701//701
f 698//698 661//661 662//662
f 662//662 663//663 704//704
f 662//662 704//704 701//701
f 696//696 701//701 700//700
f 702//702 705//705 627//627
f 702//702 627//627 626//626
f 625//625 627//627 705//705
f 625//625 705//705 630//630
f 630//630 705//705 706//706
f 630//630 706//706 631//631
f 663//663 664//664 707//707
f 663//663 707//707 704//704
f 664//664 629//629 632//632
f 664//664 632//632 707//707
f 631//631 706//706 707//707
f 631//631 707//707 632//632
f 712//712 711//711 708//708
f 712//712 708//708 709//709
f 713//713 712//712 709//709
f 713//713 709//709 710//710
f 715//715 714//714 711//711
f 715//715 711//711 712//712
f 716//716 715//715 712//712
f 716//716 712//712 713//713
f 638//638 708//708 640//640
f 638//638 640//640 635//635
f 641//641 640//640 708//708
f 641//641 708//708 711//711
f 711//711 714//714 642//642
f 711//711 642//642 641//641
f 708//708 638//638 637//637
f 708//708 637//637 709//709
f 636//636 710//710 709//709
f 636//636 709//709 637//637
f 634//634 668//668 710//710
f 634//634 710//710 636//636
f 668//668 669//669 713//713
f 668//668 713//713 710//710
f 714//714 717//717 639//639
f 714//714 639//639 642//642
f 715//715 718//718 717//717
f 715//715 717//717 714//714
f 718//718 715//715 716//716
f 718//718 716//716 719//719
f 669//669 670//670 716//716
f 669//669 716//716 713//713
f 670//670 671//671 719//719
f 670//670 719//719 716//716
f 724//724 723//723 720//720
f 724//724 720//720 721//721
f 725//725 724//724 721//721
f 725//725 721//721 722//722
f 727//727 726//726 723//723
f 727//727 723//723 724//724
f 728//728 727//727 724//724
f 728//728 724//724 725//725
f 730//730 729//729 726//726
f 730//730 726//726 727//727
f 731//731 730//730 727//727
f 731//731 727//727 728//728
f 733//733 732//732 729//729
f 733//733 729//729 730//730
f 734//734 733//733 730//730
f 734//734 730//730 731//731
f 736//736 735//735 732//732
f 736//736 732//732 733//733
f 737//737 736//736 733//733
f 737//737 733//733 734//734
f 739//739 738//738 735//735
f 739//739 735//735 736//736
f 740//740 739//739 736//736
f 740//740 736//736 737//737
f 644//644 639//639 717//717
f 723//723 646//646 645//645
f 723//723 645//645 720//720
f 644//644 720//720 645//645
f 720//720 644//644 717//717
f 646//646 723//723 726//726
f 646//646 726//726 647//647
f 729//729 648//648 647//647
f 729//729 647//647 726//726
f 649//649 648//648 729//729
f 718//718 721//721 720//720
f 718//718 720//720 717//717
f 719//719 722//722 721//721
f 719//719 721//721 718//718
f 671//671 672//672 722//722
f 671//671 722//722 719//719
f 725//725 722//722 672//672
f 725//725 672//672 673//673
f 728//728 725//725 673//673
f 728//728 673//673 674//674
f 674//674 675//675 731//731
f 674//674 731//731 728//728
f 649//649 729//729 732//732
f 649//649 732//732 650//650
f 735//735 651//651 650//650
f 735//735 650//650 732//732
f 652//652 651//651 735//735
f 738//738 653//653 652//652
f 690//690 619//619 653//653
f 739//739 689//689 690//690
f 739//739 690//690 738//738
f 653//653 738//738 690//690
f 652//652 735//735 738//738
f 734//734 731//731 675//675
f 734//734 675//675 676//676
f 676//676 677//677 737//737
f 676//676 737//737 734//734
f 689//689 739//739 740//740
f 689//689 740//740 688//688
f 678//678 665//665 688//688
f 678//678 688//688 740//740
f 740//740 737//737 677//677
f 740//740 677//677 678//678
