# Rhino

mtllib InfoWheels Cabinet DS Center 34.5in High.mtl
usemtl Custom
v 63.2963 34.0475 -35.3713
v 62.7963 34.0475 -35.3713
v 63.2963 -16.7024 -35.3713
v 62.7963 -16.7024 -35.3713
v 62.7963 -16.7024 -35.3713
v 62.7963 34.0475 -35.3713
v 62.7963 -16.7024 -23.7463
v 62.7963 34.0475 -23.7463
v 62.7963 34.0475 -23.7463
v 63.2963 34.0475 -23.7463
v 62.7963 -16.7024 -23.7463
v 63.2963 -16.7024 -23.7463
v 63.2963 -16.7024 -23.7463
v 63.2963 34.0475 -23.7463
v 63.2963 -16.7024 -35.3713
v 63.2963 34.0475 -35.3713
v 62.7963 -16.7024 -23.7463
v 62.7963 -16.7024 -35.3713
v 63.2963 -16.7024 -23.7463
v 63.2963 -16.7024 -35.3713
v 62.7963 34.0475 -23.7463
v 62.7963 34.0475 -35.3713
v 63.2963 34.0475 -23.7463
v 63.2963 34.0475 -35.3713
vt 0.0178588 0
vt 0.00966184 0
vt 0.0178588 0.979212
vt 0.00966184 0.979212
vt 0.998535 0.0404403
vt 0.0193237 0.0404403
vt 0.998535 0.265078
vt 0.0193237 0.265078
vt 0.00819699 0
vt 0 0
vt 0.00819699 0.979212
vt 0 0.979212
vt 0.998535 0.510558
vt 0.0193237 0.510558
vt 0.998535 0.735196
vt 0.0193237 0.735196
vt 0.243961 0.0202201
vt 0.0193237 0.0202201
vt 0.243961 0.029882
vt 0.0193237 0.029882
vt 0.243961 0
vt 0.0193237 0
vt 0.243961 0.00966184
vt 0.0193237 0.00966184
vn 0 0 -1
vn 0 0 -1
vn 0 0 -1
vn 0 0 -1
vn -1 -2.35346E-07 0
vn -1 -2.35346E-07 0
vn -1 -2.35346E-07 0
vn -1 -2.35346E-07 0
vn 0 0 1
vn 0 0 1
vn 0 0 1
vn 0 0 1
vn 1 2.35346E-07 0
vn 1 2.35346E-07 0
vn 1 2.35346E-07 0
vn 1 2.35346E-07 0
vn 2.35346E-07 -1 0
vn 2.35346E-07 -1 0
vn 2.35346E-07 -1 0
vn 2.35346E-07 -1 0
vn -2.35346E-07 1 0
vn -2.35346E-07 1 0
vn -2.35346E-07 1 0
vn -2.35346E-07 1 0
f 2/2/2 1/1/1 3/3/3 4/4/4
f 6/6/6 5/5/5 7/7/7 8/8/8
f 10/10/10 9/9/9 11/11/11 12/12/12
f 14/14/14 13/13/13 15/15/15 16/16/16
f 18/18/18 20/20/20 19/19/19 17/17/17
f 22/22/22 21/21/21 23/23/23 24/24/24
usemtl Custom
v 58.7963 -16.7024 0.628651
v 58.7963 -16.7024 0.191151
v 58.7963 34.0475 0.628651
v 58.7963 34.0475 0.191151
v 75.9838 -16.7024 0.628651
v 75.9838 -16.7024 -0.121349
v 75.9838 34.0475 0.628651
v 75.9838 34.0475 -0.121349
v 58.7963 34.0475 0.628651
v 75.9838 34.0475 0.628651
v 75.9838 34.0475 -0.121349
v 58.7963 34.0475 0.191151
v 59.5463 34.0475 0.191151
v 59.5463 34.0475 -0.121349
v 75.9838 -16.7024 -0.121349
v 58.7963 -16.7024 0.628651
v 75.9838 -16.7024 0.628651
v 59.5463 -16.7024 -0.121349
v 59.5463 -16.7024 0.191151
v 58.7963 -16.7024 0.191151
v 75.9838 -16.7024 0.628651
v 75.9838 34.0475 0.628651
v 58.7963 -16.7024 0.628651
v 58.7963 34.0475 0.628651
v 59.5463 34.0475 -0.121349
v 75.9838 34.0475 -0.121349
v 59.5463 -16.7024 -0.121349
v 75.9838 -16.7024 -0.121349
v 59.5463 -16.7024 -0.121349
v 59.5463 -16.7024 0.191151
v 59.5463 34.0475 -0.121349
v 59.5463 34.0475 0.191151
v 59.5463 34.0475 0.191151
v 59.5463 -16.7024 0.191151
v 58.7963 34.0475 0.191151
v 58.7963 -16.7024 0.191151
vt 0.0287081 0.0490721
vt 0.0287081 0.0574454
vt 0.998535 0.0490721
vt 0.998535 0.0574454
vt 0.0272433 0
vt 0.0143541 0
vt 0.0272433 0.969827
vt 0.0143541 0.969827
vt 0.357656 0
vt 0.0287081 0
vt 0.0287081 0.0143541
vt 0.357656 0.00837321
vt 0.343302 0.00837321
vt 0.343302 0.0143541
vt 0.0287081 0.0203057
vt 0.357656 0.0346598
vt 0.0287081 0.0346598
vt 0.343302 0.0203057
vt 0.343302 0.0262866
vt 0.357656 0.0262866
vt 0.998535 0.505952
vt 0.0287081 0.505952
vt 0.998535 0.8349
vt 0.0287081 0.8349
vt 0.0287081 0.0609172
vt 0.0287081 0.375511
vt 0.998535 0.0609172
vt 0.998535 0.375511
vt 0.0287081 0.0406114
vt 0.0287081 0.0465923
vt 0.998535 0.0406114
vt 0.998535 0.0465923
vt 0 0
vt 0 0.969827
vt 0.0128892 0
vt 0.0128892 0.969827
vn -1 -2.35346E-07 0
vn -1 -2.35346E-07 0
vn -1 -2.35346E-07 0
vn -1 -2.35346E-07 0
vn 1 2.35346E-07 0
vn 1 2.35346E-07 0
vn 1 2.35346E-07 0
vn 1 2.35346E-07 0
vn -2.35346E-07 1 0
vn -2.35346E-07 1 0
vn -2.35346E-07 1 0
vn -2.35346E-07 1 0
vn -2.35346E-07 1 0
vn -2.35346E-07 1 0
vn 2.35346E-07 -1 0
vn 2.35346E-07 -1 0
vn 2.35346E-07 -1 0
vn 2.35346E-07 -1 0
vn 2.35346E-07 -1 0
vn 2.35346E-07 -1 0
vn 0 0 1
vn 0 0 1
vn 0 0 1
vn 0 0 1
vn 0 0 -1
vn 0 0 -1
vn 0 0 -1
vn 0 0 -1
vn -1 -2.35346E-07 0
vn -1 -2.35346E-07 0
vn -1 -2.35346E-07 0
vn -1 -2.35346E-07 0
vn 0 0 -1
vn 0 0 -1
vn 0 0 -1
vn 0 0 -1
f 26/26/26 25/25/25 27/27/27 28/28/28
f 30/30/30 32/32/32 31/31/31 29/29/29
f 37/37/37 33/33/33 34/34/34
f 36/36/36 33/33/33 37/37/37
f 35/35/35 38/38/38 37/37/37
f 34/34/34 35/35/35 37/37/37
f 39/39/39 43/43/43 42/42/42
f 41/41/41 43/43/43 39/39/39
f 43/43/43 41/41/41 40/40/40
f 44/44/44 43/43/43 40/40/40
f 46/46/46 48/48/48 47/47/47 45/45/45
f 50/50/50 52/52/52 51/51/51 49/49/49
f 54/54/54 56/56/56 55/55/55 53/53/53
f 58/58/58 60/60/60 59/59/59 57/57/57
usemtl Custom
v 58.7963 -16.6399 0.628651
v 58.7963 33.985 0.628651
v 58.0463 -16.6399 1.37865
v 58.0463 33.985 1.37865
v 58.0463 33.985 1.37865
v 75.9838 33.985 1.37865
v 75.9838 33.985 0.628651
v 58.7963 33.985 0.628651
v 75.9838 33.985 1.37865
v 75.9838 33.985 0.628651
v 75.9838 -16.6399 1.37865
v 75.9838 -16.6399 0.628651
v 75.9838 -16.6399 1.37865
v 75.9838 -16.6399 0.628651
v 58.0463 -16.6399 1.37865
v 58.7963 -16.6399 0.628651
v 75.9838 -16.6399 1.37865
v 75.9838 33.985 1.37865
v 58.0463 -16.6399 1.37865
v 58.0463 33.985 1.37865
v 75.9838 -16.6399 0.628651
v 75.9838 33.985 0.628651
v 58.7963 -16.6399 0.628651
v 58.7963 33.985 0.628651
vt 0.0143032 0
vt 0.0143032 0.964004
vt 0.0330662 0
vt 0.0330662 0.964004
vt 0.0345311 0.0197707
vt 0.376618 0.0197707
vt 0.376618 0.0340739
vt 0.0488343 0.0340739
vt 0.0128384 0
vt 0 0
vt 0.0128384 0.964004
vt 0 0.964004
vt 0.0345311 0
vt 0.0345311 0.0143032
vt 0.376618 0
vt 0.362314 0.0143032
vt 0.998535 0.0395413
vt 0.0345311 0.0395413
vt 0.998535 0.381628
vt 0.0345311 0.381628
vt 0.998535 0.51239
vt 0.0345311 0.51239
vt 0.998535 0.840174
vt 0.0345311 0.840174
vn -0.707107 -1.12998E-07 -0.707107
vn -0.707107 -1.12998E-07 -0.707107
vn -0.707107 -1.12998E-07 -0.707107
vn -0.707107 -1.12998E-07 -0.707107
vn -2.35346E-07 1 0
vn -2.35346E-07 1 0
vn -2.35346E-07 1 0
vn -2.35346E-07 1 0
vn 1 2.35346E-07 0
vn 1 2.35346E-07 0
vn 1 2.35346E-07 0
vn 1 2.35346E-07 0
vn 2.35346E-07 -1 0
vn 2.35346E-07 -1 0
vn 2.35346E-07 -1 0
vn 2.35346E-07 -1 0
vn 0 0 1
vn 0 0 1
vn 0 0 1
vn 0 0 1
vn 0 0 -1
vn 0 0 -1
vn 0 0 -1
vn 0 0 -1
f 62/62/62 61/61/61 63/63/63 64/64/64
f 65/65/65 66/66/66 67/67/67 68/68/68
f 70/70/70 69/69/69 71/71/71 72/72/72
f 76/76/76 74/74/74 73/73/73 75/75/75
f 78/78/78 80/80/80 79/79/79 77/77/77
f 82/82/82 81/81/81 83/83/83 84/84/84
usemtl Emission COLOR LED
v 58.7963 -16.7024 -0.121349
v 58.7963 -16.7024 0.191151
v 59.5463 -16.7024 -0.121349
v 59.5463 -16.7024 0.191151
v 59.5463 -16.7024 -0.121349
v 59.5463 -16.7024 0.191151
v 59.5463 34.0475 -0.121349
v 59.5463 34.0475 0.191151
v 59.5463 34.0475 -0.121349
v 59.5463 34.0475 0.191151
v 58.7963 34.0475 -0.121349
v 58.7963 34.0475 0.191151
v 58.7963 34.0475 -0.121349
v 58.7963 34.0475 0.191151
v 58.7963 -16.7024 -0.121349
v 58.7963 -16.7024 0.191151
v 58.7963 34.0475 -0.121349
v 59.5463 34.0475 -0.121349
v 58.7963 -16.7024 -0.121349
v 59.5463 -16.7024 -0.121349
v 58.7963 34.0475 0.191151
v 59.5463 34.0475 0.191151
v 58.7963 -16.7024 0.191151
v 59.5463 -16.7024 0.191151
vt 0.0121655 0
vt 0.0121655 0.00608273
vt 0.026764 0
vt 0.026764 0.00608273
vt 0.0121655 0
vt 0.00608273 0
vt 0.0121655 0.98637
vt 0.00608273 0.98637
vt 0.0121655 0.14527
vt 0.0121655 0.151353
vt 0.026764 0.14527
vt 0.026764 0.151353
vt 0.00608273 0
vt 0 0
vt 0.00608273 0.98637
vt 0 0.98637
vt 0.0121655 0.639187
vt 0.0121655 0.653786
vt 0.998535 0.639187
vt 0.998535 0.653786
vt 0.0121655 0.29054
vt 0.0121655 0.305138
vt 0.998535 0.29054
vt 0.998535 0.305138
vn 2.35346E-07 -1 0
vn 2.35346E-07 -1 0
vn 2.35346E-07 -1 0
vn 2.35346E-07 -1 0
vn 1 2.35346E-07 0
vn 1 2.35346E-07 0
vn 1 2.35346E-07 0
vn 1 2.35346E-07 0
vn -2.35346E-07 1 0
vn -2.35346E-07 1 0
vn -2.35346E-07 1 0
vn -2.35346E-07 1 0
vn -1 -2.35346E-07 0
vn -1 -2.35346E-07 0
vn -1 -2.35346E-07 0
vn -1 -2.35346E-07 0
vn 0 0 -1
vn 0 0 -1
vn 0 0 -1
vn 0 0 -1
vn 0 0 1
vn 0 0 1
vn 0 0 1
vn 0 0 1
f 86/86/86 85/85/85 87/87/87 88/88/88
f 90/90/90 89/89/89 91/91/91 92/92/92
f 94/94/94 93/93/93 95/95/95 96/96/96
f 98/98/98 97/97/97 99/99/99 100/100/100
f 102/102/102 104/104/104 103/103/103 101/101/101
f 106/106/106 105/105/105 107/107/107 108/108/108
usemtl Custom
v 60.2963 -16.7024 -0.121349
v 60.2963 34.0475 -0.121349
v 60.2963 -16.7024 -1.49635
v 60.2963 34.0475 -1.49635
v 60.2963 34.0475 -1.49635
v 59.5463 34.0475 -1.49635
v 60.2963 -16.7024 -1.49635
v 59.5463 -16.7024 -1.49635
v 59.5463 -16.7024 -1.49635
v 59.5463 34.0475 -1.49635
v 59.5463 -16.7024 -0.121349
v 59.5463 34.0475 -0.121349
v 59.5463 34.0475 -0.121349
v 60.2963 34.0475 -0.121349
v 59.5463 -16.7024 -0.121349
v 60.2963 -16.7024 -0.121349
v 60.2963 -16.7024 -1.49635
v 60.2963 -16.7024 -0.121349
v 59.5463 -16.7024 -1.49635
v 59.5463 -16.7024 -0.121349
v 60.2963 34.0475 -1.49635
v 60.2963 34.0475 -0.121349
v 59.5463 34.0475 -1.49635
v 59.5463 34.0475 -0.121349
vt 0.998535 0.314995
vt 0.0263789 0.314995
vt 0.998535 0.341374
vt 0.0263789 0.341374
vt 0.0263789 0.801806
vt 0.0263789 0.816194
vt 0.998535 0.801806
vt 0.998535 0.816194
vt 0 0
vt 0 0.972156
vt 0.0249141 0
vt 0.0249141 0.972156
vt 0.0263789 0.62999
vt 0.0263789 0.644379
vt 0.998535 0.62999
vt 0.998535 0.644379
vt 0.513189 0
vt 0.513189 0.0263789
vt 0.527578 0
vt 0.527578 0.0263789
vt 0.0263789 0
vt 0.0263789 0.0263789
vt 0.0407674 0
vt 0.0407674 0.0263789
vn 1 2.35346E-07 0
vn 1 2.35346E-07 0
vn 1 2.35346E-07 0
vn 1 2.35346E-07 0
vn 0 0 -1
vn 0 0 -1
vn 0 0 -1
vn 0 0 -1
vn -1 -2.35346E-07 0
vn -1 -2.35346E-07 0
vn -1 -2.35346E-07 0
vn -1 -2.35346E-07 0
vn 0 0 1
vn 0 0 1
vn 0 0 1
vn 0 0 1
vn 2.35346E-07 -1 0
vn 2.35346E-07 -1 0
vn 2.35346E-07 -1 0
vn 2.35346E-07 -1 0
vn -2.35346E-07 1 0
vn -2.35346E-07 1 0
vn -2.35346E-07 1 0
vn -2.35346E-07 1 0
f 110/110/110 109/109/109 111/111/111 112/112/112
f 114/114/114 113/113/113 115/115/115 116/116/116
f 118/118/118 117/117/117 119/119/119 120/120/120
f 122/122/122 121/121/121 123/123/123 124/124/124
f 126/126/126 128/128/128 127/127/127 125/125/125
f 130/130/130 129/129/129 131/131/131 132/132/132
usemtl Custom
v 60.2963 34.0475 -2.24635
v 58.7963 34.0475 -2.24635
v 60.2963 -16.7024 -2.24635
v 58.7963 -16.7024 -2.24635
v 58.7963 -16.7024 -2.24635
v 58.7963 34.0475 -2.24635
v 58.7963 -16.7024 -1.49635
v 58.7963 34.0475 -1.49635
v 58.7963 34.0475 -1.49635
v 60.2963 34.0475 -1.49635
v 58.7963 -16.7024 -1.49635
v 60.2963 -16.7024 -1.49635
v 60.2963 -16.7024 -1.49635
v 60.2963 34.0475 -1.49635
v 60.2963 -16.7024 -2.24635
v 60.2963 34.0475 -2.24635
v 58.7963 -16.7024 -2.24635
v 60.2963 -16.7024 -2.24635
v 58.7963 -16.7024 -1.49635
v 60.2963 -16.7024 -1.49635
v 58.7963 34.0475 -2.24635
v 60.2963 34.0475 -2.24635
v 58.7963 34.0475 -1.49635
v 60.2963 34.0475 -1.49635
vt 0.0287081 0.647528
vt 0.0287081 0.676236
vt 0.998535 0.647528
vt 0.998535 0.676236
vt 0.998535 0.323764
vt 0.0287081 0.323764
vt 0.998535 0.338118
vt 0.0287081 0.338118
vt 0.0272433 0
vt 0 0
vt 0.0272433 0.969827
vt 0 0.969827
vt 0.998535 0.485646
vt 0.0287081 0.485646
vt 0.998535 0.5
vt 0.0287081 0.5
vt 0.514354 0
vt 0.514354 0.0287081
vt 0.528708 0
vt 0.528708 0.0287081
vt 0.0287081 0
vt 0.0287081 0.0287081
vt 0.0430622 0
vt 0.0430622 0.0287081
vn 0 0 -1
vn 0 0 -1
vn 0 0 -1
vn 0 0 -1
vn -1 -2.35346E-07 0
vn -1 -2.35346E-07 0
vn -1 -2.35346E-07 0
vn -1 -2.35346E-07 0
vn 0 0 1
vn 0 0 1
vn 0 0 1
vn 0 0 1
vn 1 2.35346E-07 0
vn 1 2.35346E-07 0
vn 1 2.35346E-07 0
vn 1 2.35346E-07 0
vn 2.35346E-07 -1 0
vn 2.35346E-07 -1 0
vn 2.35346E-07 -1 0
vn 2.35346E-07 -1 0
vn -2.35346E-07 1 0
vn -2.35346E-07 1 0
vn -2.35346E-07 1 0
vn -2.35346E-07 1 0
f 134/134/134 133/133/133 135/135/135 136/136/136
f 138/138/138 137/137/137 139/139/139 140/140/140
f 142/142/142 141/141/141 143/143/143 144/144/144
f 146/146/146 145/145/145 147/147/147 148/148/148
f 150/150/150 152/152/152 151/151/151 149/149/149
f 154/154/154 153/153/153 155/155/155 156/156/156
usemtl Custom
v 58.0463 33.985 -0.121349
v 58.0463 33.985 1.37865
v 58.0463 -16.6399 -0.121349
v 58.0463 -16.6399 1.37865
v 58.0463 -16.6399 -0.121349
v 58.0463 -16.6399 1.37865
v 58.7963 -16.6399 -0.121349
v 58.7963 -16.6399 0.628651
v 58.7963 -16.6399 -0.121349
v 58.7963 -16.6399 0.628651
v 58.7963 33.985 -0.121349
v 58.7963 33.985 0.628651
v 58.7963 33.985 -0.121349
v 58.0463 33.985 -0.121349
v 58.0463 33.985 1.37865
v 58.7963 33.985 0.628651
v 58.7963 33.985 -0.121349
v 58.7963 -16.6399 -0.121349
v 58.0463 33.985 -0.121349
v 58.0463 -16.6399 -0.121349
v 58.0463 33.985 1.37865
v 58.7963 33.985 0.628651
v 58.0463 -16.6399 1.37865
v 58.7963 -16.6399 0.628651
vt 0.0205214 0.326493
vt 0.0205214 0.355514
vt 0.998535 0.326493
vt 0.998535 0.355514
vt 0.510261 0
vt 0.510261 0.0290216
vt 0.524771 0
vt 0.524771 0.0145108
vt 0.0205214 0.652986
vt 0.0205214 0.667497
vt 0.998535 0.652986
vt 0.998535 0.667497
vt 0.0205214 0
vt 0.0350322 0
vt 0.0350322 0.0290216
vt 0.0205214 0.0145108
vt 0.998535 0.816232
vt 0.0205214 0.816232
vt 0.998535 0.830743
vt 0.0205214 0.830743
vt 0.0190565 0
vt 0 0
vt 0.0190565 0.978014
vt 0 0.978014
vn -1 -2.35346E-07 0
vn -1 -2.35346E-07 0
vn -1 -2.35346E-07 0
vn -1 -2.35346E-07 0
vn 2.35346E-07 -1 0
vn 2.35346E-07 -1 0
vn 2.35346E-07 -1 0
vn 2.35346E-07 -1 0
vn 1 2.35346E-07 0
vn 1 2.35346E-07 0
vn 1 2.35346E-07 0
vn 1 2.35346E-07 0
vn -2.35346E-07 1 0
vn -2.35346E-07 1 0
vn -2.35346E-07 1 0
vn -2.35346E-07 1 0
vn 0 0 -1
vn 0 0 -1
vn 0 0 -1
vn 0 0 -1
vn 0.707107 1.12998E-07 0.707107
vn 0.707107 1.12998E-07 0.707107
vn 0.707107 1.12998E-07 0.707107
vn 0.707107 1.12998E-07 0.707107
f 158/158/158 157/157/157 159/159/159 160/160/160
f 164/164/164 162/162/162 161/161/161
f 161/161/161 163/163/163 164/164/164
f 166/166/166 165/165/165 167/167/167 168/168/168
f 170/170/170 172/172/172 169/169/169
f 172/172/172 170/170/170 171/171/171
f 174/174/174 176/176/176 175/175/175 173/173/173
f 178/178/178 177/177/177 179/179/179 180/180/180
usemtl Custom
v 75.9838 -16.7024 -0.121349
v 75.9838 34.0475 -0.121349
v 75.9838 -16.7024 -23.8713
v 75.9838 34.0475 -23.8713
v 75.9838 34.0475 -23.8713
v 75.2338 34.0475 -23.8713
v 75.9838 -16.7024 -23.8713
v 75.2338 -16.7024 -23.8713
v 75.2338 -16.7024 -23.8713
v 75.2338 34.0475 -23.8713
v 75.2338 -16.7024 -0.121349
v 75.2338 34.0475 -0.121349
v 75.2338 34.0475 -0.121349
v 75.9838 34.0475 -0.121349
v 75.2338 -16.7024 -0.121349
v 75.9838 -16.7024 -0.121349
v 75.9838 -16.7024 -23.8713
v 75.9838 -16.7024 -0.121349
v 75.2338 -16.7024 -23.8713
v 75.2338 -16.7024 -0.121349
v 75.9838 34.0475 -23.8713
v 75.9838 34.0475 -0.121349
v 75.2338 34.0475 -23.8713
v 75.2338 34.0475 -0.121349
vt 0.0591133 0
vt 0.0591133 0.998535
vt 0.525629 0
vt 0.525629 0.998535
vt 0.0576485 0
vt 0.044335 0
vt 0.0576485 0.998535
vt 0.044335 0.998535
vt 0.527094 0
vt 0.527094 0.998535
vt 0.993609 0
vt 0.993609 0.998535
vt 0.0428701 0
vt 0.0295567 0
vt 0.0428701 0.998535
vt 0.0295567 0.998535
vt 0.0147783 0
vt 0.0147783 0.46798
vt 0.0280918 0
vt 0.0280918 0.46798
vt 0 0
vt 0 0.46798
vt 0.0133135 0
vt 0.0133135 0.46798
vn 1 2.35346E-07 0
vn 1 2.35346E-07 0
vn 1 2.35346E-07 0
vn 1 2.35346E-07 0
vn 0 0 -1
vn 0 0 -1
vn 0 0 -1
vn 0 0 -1
vn -1 -2.35346E-07 0
vn -1 -2.35346E-07 0
vn -1 -2.35346E-07 0
vn -1 -2.35346E-07 0
vn 0 0 1
vn 0 0 1
vn 0 0 1
vn 0 0 1
vn 2.35346E-07 -1 0
vn 2.35346E-07 -1 0
vn 2.35346E-07 -1 0
vn 2.35346E-07 -1 0
vn -2.35346E-07 1 0
vn -2.35346E-07 1 0
vn -2.35346E-07 1 0
vn -2.35346E-07 1 0
f 182/182/182 181/181/181 183/183/183 184/184/184
f 186/186/186 185/185/185 187/187/187 188/188/188
f 190/190/190 189/189/189 191/191/191 192/192/192
f 194/194/194 193/193/193 195/195/195 196/196/196
f 198/198/198 200/200/200 199/199/199 197/197/197
f 202/202/202 201/201/201 203/203/203 204/204/204
usemtl Custom
v 62.0463 -16.7024 -35.3713
v 62.7963 -16.7024 -35.3713
v 62.0463 -16.7024 -38.3713
v 62.7963 -16.7024 -38.3713
v 62.7963 -16.7024 -38.3713
v 62.7963 34.0475 -38.3713
v 62.0463 -16.7024 -38.3713
v 62.0463 34.0475 -38.3713
v 62.0463 34.0475 -38.3713
v 62.7963 34.0475 -38.3713
v 62.0463 34.0475 -35.3713
v 62.7963 34.0475 -35.3713
v 62.7963 34.0475 -35.3713
v 62.7963 -16.7024 -35.3713
v 62.0463 34.0475 -35.3713
v 62.0463 -16.7024 -35.3713
v 62.0463 -16.7024 -38.3713
v 62.0463 -16.7024 -35.3713
v 62.0463 34.0475 -38.3713
v 62.0463 34.0475 -35.3713
v 62.7963 -16.7024 -38.3713
v 62.7963 -16.7024 -35.3713
v 62.7963 34.0475 -38.3713
v 62.7963 34.0475 -35.3713
vt 0.0287081 0
vt 0.0287081 0.0143541
vt 0.0861244 0
vt 0.0861244 0.0143541
vt 0.0143541 0
vt 0.0143541 0.969827
vt 0.0272433 0
vt 0.0272433 0.969827
vt 0.0287081 0.0971292
vt 0.0287081 0.111483
vt 0.0861244 0.0971292
vt 0.0861244 0.111483
vt 0 0
vt 0 0.969827
vt 0.0128892 0
vt 0.0128892 0.969827
vt 0.0287081 0.582775
vt 0.0287081 0.640191
vt 0.998535 0.582775
vt 0.998535 0.640191
vt 0.0287081 0.194258
vt 0.0287081 0.251675
vt 0.998535 0.194258
vt 0.998535 0.251675
vn 2.35346E-07 -1 0
vn 2.35346E-07 -1 0
vn 2.35346E-07 -1 0
vn 2.35346E-07 -1 0
vn 0 0 -1
vn 0 0 -1
vn 0 0 -1
vn 0 0 -1
vn -2.35346E-07 1 0
vn -2.35346E-07 1 0
vn -2.35346E-07 1 0
vn -2.35346E-07 1 0
vn 0 0 1
vn 0 0 1
vn 0 0 1
vn 0 0 1
vn -1 -2.35346E-07 0
vn -1 -2.35346E-07 0
vn -1 -2.35346E-07 0
vn -1 -2.35346E-07 0
vn 1 2.35346E-07 0
vn 1 2.35346E-07 0
vn 1 2.35346E-07 0
vn 1 2.35346E-07 0
f 206/206/206 205/205/205 207/207/207 208/208/208
f 210/210/210 209/209/209 211/211/211 212/212/212
f 214/214/214 213/213/213 215/215/215 216/216/216
f 218/218/218 217/217/217 219/219/219 220/220/220
f 222/222/222 224/224/224 223/223/223 221/221/221
f 226/226/226 225/225/225 227/227/227 228/228/228
usemtl Custom
v 58.0463 8.61006 -1.49635
v 58.0463 8.61006 -35.3713
v 58.7963 8.61006 -1.49635
v 58.7963 8.61006 -35.3713
v 58.7963 8.61006 -1.49635
v 58.7963 -16.7024 -1.49635
v 58.0463 8.61006 -1.49635
v 58.0463 -16.7024 -1.49635
v 58.7963 8.61006 -35.3713
v 58.7963 -16.7024 -35.3713
v 58.7963 8.61006 -1.49635
v 58.7963 -16.7024 -1.49635
v 58.0463 8.61006 -35.3713
v 58.0463 -16.7024 -35.3713
v 58.7963 8.61006 -35.3713
v 58.7963 -16.7024 -35.3713
v 58.0463 8.61006 -1.49635
v 58.0463 -16.7024 -1.49635
v 58.0463 8.61006 -35.3713
v 58.0463 -16.7024 -35.3713
v 58.0463 -16.7024 -1.49635
v 58.0463 -16.7024 -35.3713
v 58.7963 -16.7024 -1.49635
v 58.7963 -16.7024 -35.3713
vt 0.0444444 0
vt 0.0444444 0.669136
vt 0.0577944 0
vt 0.0577944 0.669136
vt 0.0148148 0
vt 0.0148148 0.5
vt 0.0281648 0
vt 0.0281648 0.5
vt 0.0592592 0.5
vt 0.0592592 0.998535
vt 0.72693 0.5
vt 0.72693 0.998535
vt 0 0
vt 0 0.5
vt 0.01335 0
vt 0.01335 0.5
vt 0.0592592 0
vt 0.0592592 0.498535
vt 0.72693 0
vt 0.72693 0.498535
vt 0.0296296 0
vt 0.0296296 0.669136
vt 0.0429796 0
vt 0.0429796 0.669136
vn -2.35346E-07 1 0
vn -2.35346E-07 1 0
vn -2.35346E-07 1 0
vn -2.35346E-07 1 0
vn 0 0 1
vn 0 0 1
vn 0 0 1
vn 0 0 1
vn 1 2.35346E-07 0
vn 1 2.35346E-07 0
vn 1 2.35346E-07 0
vn 1 2.35346E-07 0
vn 0 0 -1
vn 0 0 -1
vn 0 0 -1
vn 0 0 -1
vn -1 -2.35346E-07 0
vn -1 -2.35346E-07 0
vn -1 -2.35346E-07 0
vn -1 -2.35346E-07 0
vn 2.35346E-07 -1 0
vn 2.35346E-07 -1 0
vn 2.35346E-07 -1 0
vn 2.35346E-07 -1 0
f 230/230/230 229/229/229 231/231/231 232/232/232
f 234/234/234 233/233/233 235/235/235 236/236/236
f 238/238/238 237/237/237 239/239/239 240/240/240
f 242/242/242 241/241/241 243/243/243 244/244/244
f 246/246/246 245/245/245 247/247/247 248/248/248
f 250/250/250 252/252/252 251/251/251 249/249/249
usemtl Custom
v 58.0463 8.73506 -1.49635
v 58.0463 8.73506 -35.3713
v 58.7963 8.73506 -1.49635
v 58.7963 8.73506 -35.3713
v 58.7963 8.73506 -1.49635
v 58.7963 33.985 -1.49635
v 58.0463 8.73506 -1.49635
v 58.0463 33.985 -1.49635
v 58.7963 8.73506 -35.3713
v 58.7963 33.985 -35.3713
v 58.7963 8.73506 -1.49635
v 58.7963 33.985 -1.49635
v 58.0463 8.73506 -35.3713
v 58.0463 33.985 -35.3713
v 58.7963 8.73506 -35.3713
v 58.7963 33.985 -35.3713
v 58.0463 8.73506 -1.49635
v 58.0463 33.985 -1.49635
v 58.0463 8.73506 -35.3713
v 58.0463 33.985 -35.3713
v 58.0463 33.985 -1.49635
v 58.0463 33.985 -35.3713
v 58.7963 33.985 -1.49635
v 58.7963 33.985 -35.3713
vt 0.0445545 0
vt 0.0445545 0.670792
vt 0.0579411 0
vt 0.0579411 0.670792
vt 0.0148515 0
vt 0.0148515 0.5
vt 0.0282381 0
vt 0.0282381 0.5
vt 0.059406 0.5
vt 0.059406 0.998535
vt 0.728734 0.5
vt 0.728734 0.998535
vt 0 0
vt 0 0.5
vt 0.0133866 0
vt 0.0133866 0.5
vt 0.059406 0
vt 0.059406 0.498535
vt 0.728734 0
vt 0.728734 0.498535
vt 0.029703 0
vt 0.029703 0.670792
vt 0.0430896 0
vt 0.0430896 0.670792
vn 2.35346E-07 -1 0
vn 2.35346E-07 -1 0
vn 2.35346E-07 -1 0
vn 2.35346E-07 -1 0
vn 0 0 1
vn 0 0 1
vn 0 0 1
vn 0 0 1
vn 1 2.35346E-07 0
vn 1 2.35346E-07 0
vn 1 2.35346E-07 0
vn 1 2.35346E-07 0
vn 0 0 -1
vn 0 0 -1
vn 0 0 -1
vn 0 0 -1
vn -1 -2.35346E-07 0
vn -1 -2.35346E-07 0
vn -1 -2.35346E-07 0
vn -1 -2.35346E-07 0
vn -2.35346E-07 1 0
vn -2.35346E-07 1 0
vn -2.35346E-07 1 0
vn -2.35346E-07 1 0
f 254/254/254 256/256/256 255/255/255 253/253/253
f 258/258/258 260/260/260 259/259/259 257/257/257
f 262/262/262 264/264/264 263/263/263 261/261/261
f 266/266/266 268/268/268 267/267/267 265/265/265
f 270/270/270 272/272/272 271/271/271 269/269/269
f 274/274/274 273/273/273 275/275/275 276/276/276
usemtl Custom
v 59.2963 33.2975 -23.1213
v 59.2963 33.2975 -23.8713
v 75.2338 33.2975 -23.1213
v 75.2338 33.2975 -23.8713
v 75.2338 33.2975 -23.1213
v 75.2338 33.2975 -23.8713
v 75.2338 -15.9524 -23.1213
v 75.2338 -15.9524 -23.8713
v 75.2338 -15.9524 -23.1213
v 75.2338 -15.9524 -23.8713
v 59.2963 -15.9524 -23.1213
v 59.2963 -15.9524 -23.8713
v 59.2963 -15.9524 -23.1213
v 59.2963 -15.9524 -23.8713
v 59.2963 33.2975 -23.1213
v 59.2963 33.2975 -23.8713
v 75.2338 -15.9524 -23.1213
v 75.2338 33.2975 -23.1213
v 59.2963 -15.9524 -23.1213
v 59.2963 33.2975 -23.1213
v 75.2338 -15.9524 -23.8713
v 75.2338 33.2975 -23.8713
v 59.2963 -15.9524 -23.8713
v 59.2963 33.2975 -23.8713
vt 0.0295567 0.0218077
vt 0.0295567 0.036586
vt 0.343596 0.0218077
vt 0.343596 0.036586
vt 0.0133135 0
vt 0 0
vt 0.0133135 0.968979
vt 0 0.968979
vt 0.0295567 0
vt 0.0295567 0.0147783
vt 0.343596 0
vt 0.343596 0.0147783
vt 0.0280918 0
vt 0.0147783 0
vt 0.0280918 0.968979
vt 0.0147783 0.968979
vt 0.998535 0.507029
vt 0.0295567 0.507029
vt 0.998535 0.821069
vt 0.0295567 0.821069
vt 0.998535 0.0436154
vt 0.0295567 0.0436154
vt 0.998535 0.357655
vt 0.0295567 0.357655
vn -2.35346E-07 1 0
vn -2.35346E-07 1 0
vn -2.35346E-07 1 0
vn -2.35346E-07 1 0
vn 1 2.35346E-07 0
vn 1 2.35346E-07 0
vn 1 2.35346E-07 0
vn 1 2.35346E-07 0
vn 2.35346E-07 -1 0
vn 2.35346E-07 -1 0
vn 2.35346E-07 -1 0
vn 2.35346E-07 -1 0
vn -1 -2.35346E-07 0
vn -1 -2.35346E-07 0
vn -1 -2.35346E-07 0
vn -1 -2.35346E-07 0
vn 0 0 1
vn 0 0 1
vn 0 0 1
vn 0 0 1
vn 0 0 -1
vn 0 0 -1
vn 0 0 -1
vn 0 0 -1
f 278/278/278 277/277/277 279/279/279 280/280/280
f 282/282/282 281/281/281 283/283/283 284/284/284
f 286/286/286 285/285/285 287/287/287 288/288/288
f 290/290/290 289/289/289 291/291/291 292/292/292
f 294/294/294 296/296/296 295/295/295 293/293/293
f 298/298/298 297/297/297 299/299/299 300/300/300
usemtl Custom
v 58.8369 34.0475 -34.6213
v 58.8369 34.0475 -35.3713
v 62.7963 34.0475 -34.6213
v 62.7963 34.0475 -35.3713
v 62.7963 34.0475 -34.6213
v 62.7963 34.0475 -35.3713
v 62.7963 -16.7024 -34.6213
v 62.7963 -16.7024 -35.3713
v 62.7963 -16.7024 -34.6213
v 62.7963 -16.7024 -35.3713
v 58.8369 -16.7024 -34.6213
v 58.8369 -16.7024 -35.3713
v 58.8369 -16.7024 -34.6213
v 58.8369 -16.7024 -35.3713
v 58.8369 34.0475 -34.6213
v 58.8369 34.0475 -35.3713
v 61.7338 31.2975 -34.6213
v 61.7338 31.2975 -35.3713
v 61.7206 31.3666 -34.6213
v 61.7206 31.3666 -35.3713
v 61.6789 31.4301 -34.6213
v 61.6789 31.4301 -35.3713
v 61.6153 31.4719 -34.6213
v 61.6153 31.4719 -35.3713
v 61.5463 31.485 -34.6213
v 61.5463 31.485 -35.3713
v 61.4773 31.4719 -34.6213
v 61.4773 31.4719 -35.3713
v 61.4137 31.4301 -34.6213
v 61.4137 31.4301 -35.3713
v 61.3719 31.3666 -34.6213
v 61.3719 31.3666 -35.3713
v 61.3588 31.2975 -34.6213
v 61.3588 31.2975 -35.3713
v 61.3719 31.2285 -34.6213
v 61.3719 31.2285 -35.3713
v 61.4137 31.165 -34.6213
v 61.4137 31.165 -35.3713
v 61.4773 31.1232 -34.6213
v 61.4773 31.1232 -35.3713
v 61.5463 31.11 -34.6213
v 61.5463 31.11 -35.3713
v 61.6153 31.1232 -34.6213
v 61.6153 31.1232 -35.3713
v 61.6789 31.165 -34.6213
v 61.6789 31.165 -35.3713
v 61.7206 31.2285 -34.6213
v 61.7206 31.2285 -35.3713
v 61.7338 31.2975 -34.6213
v 61.7338 31.2975 -35.3713
v 61.7338 29.7975 -34.6213
v 61.7338 29.7975 -35.3713
v 61.7206 29.8666 -34.6213
v 61.7206 29.8666 -35.3713
v 61.6789 29.9301 -34.6213
v 61.6789 29.9301 -35.3713
v 61.6153 29.9719 -34.6213
v 61.6153 29.9719 -35.3713
v 61.5463 29.985 -34.6213
v 61.5463 29.985 -35.3713
v 61.4773 29.9719 -34.6213
v 61.4773 29.9719 -35.3713
v 61.4137 29.9301 -34.6213
v 61.4137 29.9301 -35.3713
v 61.3719 29.8666 -34.6213
v 61.3719 29.8666 -35.3713
v 61.3588 29.7975 -34.6213
v 61.3588 29.7975 -35.3713
v 61.3719 29.7285 -34.6213
v 61.3719 29.7285 -35.3713
v 61.4137 29.665 -34.6213
v 61.4137 29.665 -35.3713
v 61.4773 29.6232 -34.6213
v 61.4773 29.6232 -35.3713
v 61.5463 29.61 -34.6213
v 61.5463 29.61 -35.3713
v 61.6153 29.6232 -34.6213
v 61.6153 29.6232 -35.3713
v 61.6789 29.665 -34.6213
v 61.6789 29.665 -35.3713
v 61.7206 29.7285 -34.6213
v 61.7206 29.7285 -35.3713
v 61.7338 29.7975 -34.6213
v 61.7338 29.7975 -35.3713
v 61.7338 30.5475 -34.6213
v 61.7338 30.5475 -35.3713
v 61.7206 30.6166 -34.6213
v 61.7206 30.6166 -35.3713
v 61.6789 30.6801 -34.6213
v 61.6789 30.6801 -35.3713
v 61.6153 30.7219 -34.6213
v 61.6153 30.7219 -35.3713
v 61.5463 30.735 -34.6213
v 61.5463 30.735 -35.3713
v 61.4773 30.7219 -34.6213
v 61.4773 30.7219 -35.3713
v 61.4137 30.6801 -34.6213
v 61.4137 30.6801 -35.3713
v 61.3719 30.6166 -34.6213
v 61.3719 30.6166 -35.3713
v 61.3588 30.5475 -34.6213
v 61.3588 30.5475 -35.3713
v 61.3719 30.4785 -34.6213
v 61.3719 30.4785 -35.3713
v 61.4137 30.415 -34.6213
v 61.4137 30.415 -35.3713
v 61.4773 30.3732 -34.6213
v 61.4773 30.3732 -35.3713
v 61.5463 30.36 -34.6213
v 61.5463 30.36 -35.3713
v 61.6153 30.3732 -34.6213
v 61.6153 30.3732 -35.3713
v 61.6789 30.415 -34.6213
v 61.6789 30.415 -35.3713
v 61.7206 30.4785 -34.6213
v 61.7206 30.4785 -35.3713
v 61.7338 30.5475 -34.6213
v 61.7338 30.5475 -35.3713
v 61.7338 -13.9524 -34.6213
v 61.7338 -13.9524 -35.3713
v 61.7206 -13.8834 -34.6213
v 61.7206 -13.8834 -35.3713
v 61.6789 -13.8199 -34.6213
v 61.6789 -13.8199 -35.3713
v 61.6153 -13.7781 -34.6213
v 61.6153 -13.7781 -35.3713
v 61.5463 -13.7649 -34.6213
v 61.5463 -13.7649 -35.3713
v 61.4773 -13.7781 -34.6213
v 61.4773 -13.7781 -35.3713
v 61.4137 -13.8199 -34.6213
v 61.4137 -13.8199 -35.3713
v 61.3719 -13.8834 -34.6213
v 61.3719 -13.8834 -35.3713
v 61.3588 -13.9524 -34.6213
v 61.3588 -13.9524 -35.3713
v 61.3719 -14.0215 -34.6213
v 61.3719 -14.0215 -35.3713
v 61.4137 -14.085 -34.6213
v 61.4137 -14.085 -35.3713
v 61.4773 -14.1268 -34.6213
v 61.4773 -14.1268 -35.3713
v 61.5463 -14.1399 -34.6213
v 61.5463 -14.1399 -35.3713
v 61.6153 -14.1268 -34.6213
v 61.6153 -14.1268 -35.3713
v 61.6789 -14.085 -34.6213
v 61.6789 -14.085 -35.3713
v 61.7206 -14.0215 -34.6213
v 61.7206 -14.0215 -35.3713
v 61.7338 -13.9524 -34.6213
v 61.7338 -13.9524 -35.3713
v 61.7338 -12.4524 -34.6213
v 61.7338 -12.4524 -35.3713
v 61.7206 -12.3834 -34.6213
v 61.7206 -12.3834 -35.3713
v 61.6789 -12.3199 -34.6213
v 61.6789 -12.3199 -35.3713
v 61.6153 -12.2781 -34.6213
v 61.6153 -12.2781 -35.3713
v 61.5463 -12.2649 -34.6213
v 61.5463 -12.2649 -35.3713
v 61.4773 -12.2781 -34.6213
v 61.4773 -12.2781 -35.3713
v 61.4137 -12.3199 -34.6213
v 61.4137 -12.3199 -35.3713
v 61.3719 -12.3834 -34.6213
v 61.3719 -12.3834 -35.3713
v 61.3588 -12.4524 -34.6213
v 61.3588 -12.4524 -35.3713
v 61.3719 -12.5215 -34.6213
v 61.3719 -12.5215 -35.3713
v 61.4137 -12.585 -34.6213
v 61.4137 -12.585 -35.3713
v 61.4773 -12.6268 -34.6213
v 61.4773 -12.6268 -35.3713
v 61.5463 -12.6399 -34.6213
v 61.5463 -12.6399 -35.3713
v 61.6153 -12.6268 -34.6213
v 61.6153 -12.6268 -35.3713
v 61.6789 -12.585 -34.6213
v 61.6789 -12.585 -35.3713
v 61.7206 -12.5215 -34.6213
v 61.7206 -12.5215 -35.3713
v 61.7338 -12.4524 -34.6213
v 61.7338 -12.4524 -35.3713
v 61.7338 -13.2024 -34.6213
v 61.7338 -13.2024 -35.3713
v 61.7206 -13.1334 -34.6213
v 61.7206 -13.1334 -35.3713
v 61.6789 -13.0699 -34.6213
v 61.6789 -13.0699 -35.3713
v 61.6153 -13.0281 -34.6213
v 61.6153 -13.0281 -35.3713
v 61.5463 -13.0149 -34.6213
v 61.5463 -13.0149 -35.3713
v 61.4773 -13.0281 -34.6213
v 61.4773 -13.0281 -35.3713
v 61.4137 -13.0699 -34.6213
v 61.4137 -13.0699 -35.3713
v 61.3719 -13.1334 -34.6213
v 61.3719 -13.1334 -35.3713
v 61.3588 -13.2024 -34.6213
v 61.3588 -13.2024 -35.3713
v 61.3719 -13.2715 -34.6213
v 61.3719 -13.2715 -35.3713
v 61.4137 -13.335 -34.6213
v 61.4137 -13.335 -35.3713
v 61.4773 -13.3768 -34.6213
v 61.4773 -13.3768 -35.3713
v 61.5463 -13.3899 -34.6213
v 61.5463 -13.3899 -35.3713
v 61.6153 -13.3768 -34.6213
v 61.6153 -13.3768 -35.3713
v 61.6789 -13.335 -34.6213
v 61.6789 -13.335 -35.3713
v 61.7206 -13.2715 -34.6213
v 61.7206 -13.2715 -35.3713
v 61.7338 -13.2024 -34.6213
v 61.7338 -13.2024 -35.3713
v 62.7963 34.0475 -34.6213
v 58.8369 -16.7024 -34.6213
v 58.8369 34.0475 -34.6213
v 62.7963 -16.7024 -34.6213
v 61.7338 31.2975 -34.6213
v 61.7206 31.3666 -34.6213
v 61.6789 31.4301 -34.6213
v 61.6153 31.4719 -34.6213
v 61.5463 31.485 -34.6213
v 61.4773 31.4719 -34.6213
v 61.4137 31.4301 -34.6213
v 61.3719 31.3666 -34.6213
v 61.3588 31.2975 -34.6213
v 61.3719 31.2285 -34.6213
v 61.4137 31.165 -34.6213
v 61.4773 31.1232 -34.6213
v 61.5463 31.11 -34.6213
v 61.6153 31.1232 -34.6213
v 61.6789 31.165 -34.6213
v 61.7206 31.2285 -34.6213
v 61.7338 29.7975 -34.6213
v 61.7206 29.8666 -34.6213
v 61.6789 29.9301 -34.6213
v 61.6153 29.9719 -34.6213
v 61.5463 29.985 -34.6213
v 61.4773 29.9719 -34.6213
v 61.4137 29.9301 -34.6213
v 61.3719 29.8666 -34.6213
v 61.3588 29.7975 -34.6213
v 61.3719 29.7285 -34.6213
v 61.4137 29.665 -34.6213
v 61.4773 29.6232 -34.6213
v 61.5463 29.61 -34.6213
v 61.6153 29.6232 -34.6213
v 61.6789 29.665 -34.6213
v 61.7206 29.7285 -34.6213
v 61.7338 30.5475 -34.6213
v 61.7206 30.6166 -34.6213
v 61.6789 30.6801 -34.6213
v 61.6153 30.7219 -34.6213
v 61.5463 30.735 -34.6213
v 61.4773 30.7219 -34.6213
v 61.4137 30.6801 -34.6213
v 61.3719 30.6166 -34.6213
v 61.3588 30.5475 -34.6213
v 61.3719 30.4785 -34.6213
v 61.4137 30.415 -34.6213
v 61.4773 30.3732 -34.6213
v 61.5463 30.36 -34.6213
v 61.6153 30.3732 -34.6213
v 61.6789 30.415 -34.6213
v 61.7206 30.4785 -34.6213
v 61.7338 -13.9524 -34.6213
v 61.7206 -13.8834 -34.6213
v 61.6789 -13.8199 -34.6213
v 61.6153 -13.7781 -34.6213
v 61.5463 -13.7649 -34.6213
v 61.4773 -13.7781 -34.6213
v 61.4137 -13.8199 -34.6213
v 61.3719 -13.8834 -34.6213
v 61.3588 -13.9524 -34.6213
v 61.3719 -14.0215 -34.6213
v 61.4137 -14.085 -34.6213
v 61.4773 -14.1268 -34.6213
v 61.5463 -14.1399 -34.6213
v 61.6153 -14.1268 -34.6213
v 61.6789 -14.085 -34.6213
v 61.7206 -14.0215 -34.6213
v 61.7338 -12.4524 -34.6213
v 61.7206 -12.3834 -34.6213
v 61.6789 -12.3199 -34.6213
v 61.6153 -12.2781 -34.6213
v 61.5463 -12.2649 -34.6213
v 61.4773 -12.2781 -34.6213
v 61.4137 -12.3199 -34.6213
v 61.3719 -12.3834 -34.6213
v 61.3588 -12.4524 -34.6213
v 61.3719 -12.5215 -34.6213
v 61.4137 -12.585 -34.6213
v 61.4773 -12.6268 -34.6213
v 61.5463 -12.6399 -34.6213
v 61.6153 -12.6268 -34.6213
v 61.6789 -12.585 -34.6213
v 61.7206 -12.5215 -34.6213
v 61.7338 -13.2024 -34.6213
v 61.7206 -13.1334 -34.6213
v 61.6789 -13.0699 -34.6213
v 61.6153 -13.0281 -34.6213
v 61.5463 -13.0149 -34.6213
v 61.4773 -13.0281 -34.6213
v 61.4137 -13.0699 -34.6213
v 61.3719 -13.1334 -34.6213
v 61.3588 -13.2024 -34.6213
v 61.3719 -13.2715 -34.6213
v 61.4137 -13.335 -34.6213
v 61.4773 -13.3768 -34.6213
v 61.5463 -13.3899 -34.6213
v 61.6153 -13.3768 -34.6213
v 61.6789 -13.335 -34.6213
v 61.7206 -13.2715 -34.6213
v 62.7963 34.0475 -35.3713
v 58.8369 -16.7024 -35.3713
v 58.8369 34.0475 -35.3713
v 62.7963 -16.7024 -35.3713
v 61.7338 31.2975 -35.3713
v 61.7206 31.3666 -35.3713
v 61.6789 31.4301 -35.3713
v 61.6153 31.4719 -35.3713
v 61.5463 31.485 -35.3713
v 61.4773 31.4719 -35.3713
v 61.4137 31.4301 -35.3713
v 61.3719 31.3666 -35.3713
v 61.3588 31.2975 -35.3713
v 61.3719 31.2285 -35.3713
v 61.4137 31.165 -35.3713
v 61.4773 31.1232 -35.3713
v 61.5463 31.11 -35.3713
v 61.6153 31.1232 -35.3713
v 61.6789 31.165 -35.3713
v 61.7206 31.2285 -35.3713
v 61.7338 29.7975 -35.3713
v 61.7206 29.8666 -35.3713
v 61.6789 29.9301 -35.3713
v 61.6153 29.9719 -35.3713
v 61.5463 29.985 -35.3713
v 61.4773 29.9719 -35.3713
v 61.4137 29.9301 -35.3713
v 61.3719 29.8666 -35.3713
v 61.3588 29.7975 -35.3713
v 61.3719 29.7285 -35.3713
v 61.4137 29.665 -35.3713
v 61.4773 29.6232 -35.3713
v 61.5463 29.61 -35.3713
v 61.6153 29.6232 -35.3713
v 61.6789 29.665 -35.3713
v 61.7206 29.7285 -35.3713
v 61.7338 30.5475 -35.3713
v 61.7206 30.6166 -35.3713
v 61.6789 30.6801 -35.3713
v 61.6153 30.7219 -35.3713
v 61.5463 30.735 -35.3713
v 61.4773 30.7219 -35.3713
v 61.4137 30.6801 -35.3713
v 61.3719 30.6166 -35.3713
v 61.3588 30.5475 -35.3713
v 61.3719 30.4785 -35.3713
v 61.4137 30.415 -35.3713
v 61.4773 30.3732 -35.3713
v 61.5463 30.36 -35.3713
v 61.6153 30.3732 -35.3713
v 61.6789 30.415 -35.3713
v 61.7206 30.4785 -35.3713
v 61.7338 -13.9524 -35.3713
v 61.7206 -13.8834 -35.3713
v 61.6789 -13.8199 -35.3713
v 61.6153 -13.7781 -35.3713
v 61.5463 -13.7649 -35.3713
v 61.4773 -13.7781 -35.3713
v 61.4137 -13.8199 -35.3713
v 61.3719 -13.8834 -35.3713
v 61.3588 -13.9524 -35.3713
v 61.3719 -14.0215 -35.3713
v 61.4137 -14.085 -35.3713
v 61.4773 -14.1268 -35.3713
v 61.5463 -14.1399 -35.3713
v 61.6153 -14.1268 -35.3713
v 61.6789 -14.085 -35.3713
v 61.7206 -14.0215 -35.3713
v 61.7338 -12.4524 -35.3713
v 61.7206 -12.3834 -35.3713
v 61.6789 -12.3199 -35.3713
v 61.6153 -12.2781 -35.3713
v 61.5463 -12.2649 -35.3713
v 61.4773 -12.2781 -35.3713
v 61.4137 -12.3199 -35.3713
v 61.3719 -12.3834 -35.3713
v 61.3588 -12.4524 -35.3713
v 61.3719 -12.5215 -35.3713
v 61.4137 -12.585 -35.3713
v 61.4773 -12.6268 -35.3713
v 61.5463 -12.6399 -35.3713
v 61.6153 -12.6268 -35.3713
v 61.6789 -12.585 -35.3713
v 61.7206 -12.5215 -35.3713
v 61.7338 -13.2024 -35.3713
v 61.7206 -13.1334 -35.3713
v 61.6789 -13.0699 -35.3713
v 61.6153 -13.0281 -35.3713
v 61.5463 -13.0149 -35.3713
v 61.4773 -13.0281 -35.3713
v 61.4137 -13.0699 -35.3713
v 61.3719 -13.1334 -35.3713
v 61.3588 -13.2024 -35.3713
v 61.3719 -13.2715 -35.3713
v 61.4137 -13.335 -35.3713
v 61.4773 -13.3768 -35.3713
v 61.5463 -13.3899 -35.3713
v 61.6153 -13.3768 -35.3713
v 61.6789 -13.335 -35.3713
v 61.7206 -13.2715 -35.3713
vt 0.839682 0
vt 0.825328 0
vt 0.839682 0.0757782
vt 0.825328 0.0757782
vt 0.0128892 0
vt 0 0
vt 0.0128892 0.969827
vt 0 0.969827
vt 0.665011 0
vt 0.650657 0
vt 0.665011 0.0757782
vt 0.650657 0.0757782
vt 0.0272433 0
vt 0.0143541 0
vt 0.0272433 0.969827
vt 0.0143541 0.969827
vt 0.0430622 0
vt 0.0287081 0
vt 0.0430622 0.00140013
vt 0.0287081 0.00140013
vt 0.0430622 0.00280025
vt 0.0287081 0.00280025
vt 0.0430622 0.00420038
vt 0.0287081 0.00420038
vt 0.0430622 0.00560051
vt 0.0287081 0.00560051
vt 0.0430622 0.00700063
vt 0.0287081 0.00700063
vt 0.0430622 0.00840076
vt 0.0287081 0.00840076
vt 0.0430622 0.00980089
vt 0.0287081 0.00980089
vt 0.0430622 0.011201
vt 0.0287081 0.011201
vt 0.0430622 0.0126011
vt 0.0287081 0.0126011
vt 0.0430622 0.0140013
vt 0.0287081 0.0140013
vt 0.0430622 0.0154014
vt 0.0287081 0.0154014
vt 0.0430622 0.0168015
vt 0.0287081 0.0168015
vt 0.0430622 0.0182016
vt 0.0287081 0.0182016
vt 0.0430622 0.0196018
vt 0.0287081 0.0196018
vt 0.0430622 0.0210019
vt 0.0287081 0.0210019
vt 0.0430622 0.022402
vt 0.0287081 0.022402
vt 0.217734 0.161882
vt 0.20338 0.161882
vt 0.217734 0.163282
vt 0.20338 0.163282
vt 0.217734 0.164682
vt 0.20338 0.164682
vt 0.217734 0.166082
vt 0.20338 0.166082
vt 0.217734 0.167482
vt 0.20338 0.167482
vt 0.217734 0.168883
vt 0.20338 0.168883
vt 0.217734 0.170283
vt 0.20338 0.170283
vt 0.217734 0.171683
vt 0.20338 0.171683
vt 0.217734 0.173083
vt 0.20338 0.173083
vt 0.217734 0.174483
vt 0.20338 0.174483
vt 0.217734 0.175883
vt 0.20338 0.175883
vt 0.217734 0.177283
vt 0.20338 0.177283
vt 0.217734 0.178683
vt 0.20338 0.178683
vt 0.217734 0.180084
vt 0.20338 0.180084
vt 0.217734 0.181484
vt 0.20338 0.181484
vt 0.217734 0.182884
vt 0.20338 0.182884
vt 0.217734 0.184284
vt 0.20338 0.184284
vt 0.217734 0
vt 0.20338 0
vt 0.217734 0.00140013
vt 0.20338 0.00140013
vt 0.217734 0.00280025
vt 0.20338 0.00280025
vt 0.217734 0.00420038
vt 0.20338 0.00420038
vt 0.217734 0.00560051
vt 0.20338 0.00560051
vt 0.217734 0.00700063
vt 0.20338 0.00700063
vt 0.217734 0.00840076
vt 0.20338 0.00840076
vt 0.217734 0.00980089
vt 0.20338 0.00980089
vt 0.217734 0.011201
vt 0.20338 0.011201
vt 0.217734 0.0126011
vt 0.20338 0.0126011
vt 0.217734 0.0140013
vt 0.20338 0.0140013
vt 0.217734 0.0154014
vt 0.20338 0.0154014
vt 0.217734 0.0168015
vt 0.20338 0.0168015
vt 0.217734 0.0182016
vt 0.20338 0.0182016
vt 0.217734 0.0196018
vt 0.20338 0.0196018
vt 0.217734 0.0210019
vt 0.20338 0.0210019
vt 0.217734 0.022402
vt 0.20338 0.022402
vt 0.0430622 0.161882
vt 0.0287081 0.161882
vt 0.0430622 0.163282
vt 0.0287081 0.163282
vt 0.0430622 0.164682
vt 0.0287081 0.164682
vt 0.0430622 0.166082
vt 0.0287081 0.166082
vt 0.0430622 0.167482
vt 0.0287081 0.167482
vt 0.0430622 0.168883
vt 0.0287081 0.168883
vt 0.0430622 0.170283
vt 0.0287081 0.170283
vt 0.0430622 0.171683
vt 0.0287081 0.171683
vt 0.0430622 0.173083
vt 0.0287081 0.173083
vt 0.0430622 0.174483
vt 0.0287081 0.174483
vt 0.0430622 0.175883
vt 0.0287081 0.175883
vt 0.0430622 0.177283
vt 0.0287081 0.177283
vt 0.0430622 0.178683
vt 0.0287081 0.178683
vt 0.0430622 0.180084
vt 0.0287081 0.180084
vt 0.0430622 0.181484
vt 0.0287081 0.181484
vt 0.0430622 0.182884
vt 0.0287081 0.182884
vt 0.0430622 0.184284
vt 0.0287081 0.184284
vt 0.378051 0.161882
vt 0.378051 0.176236
vt 0.379451 0.161882
vt 0.379451 0.176236
vt 0.380852 0.161882
vt 0.380852 0.176236
vt 0.382252 0.161882
vt 0.382252 0.176236
vt 0.383652 0.161882
vt 0.383652 0.176236
vt 0.385052 0.161882
vt 0.385052 0.176236
vt 0.386452 0.161882
vt 0.386452 0.176236
vt 0.387852 0.161882
vt 0.387852 0.176236
vt 0.389252 0.161882
vt 0.389252 0.176236
vt 0.390652 0.161882
vt 0.390652 0.176236
vt 0.392053 0.161882
vt 0.392053 0.176236
vt 0.393453 0.161882
vt 0.393453 0.176236
vt 0.394853 0.161882
vt 0.394853 0.176236
vt 0.396253 0.161882
vt 0.396253 0.176236
vt 0.397653 0.161882
vt 0.397653 0.176236
vt 0.399053 0.161882
vt 0.399053 0.176236
vt 0.400453 0.161882
vt 0.400453 0.176236
vt 0.378051 0
vt 0.378051 0.0143541
vt 0.379451 0
vt 0.379451 0.0143541
vt 0.380852 0
vt 0.380852 0.0143541
vt 0.382252 0
vt 0.382252 0.0143541
vt 0.383652 0
vt 0.383652 0.0143541
vt 0.385052 0
vt 0.385052 0.0143541
vt 0.386452 0
vt 0.386452 0.0143541
vt 0.387852 0
vt 0.387852 0.0143541
vt 0.389252 0
vt 0.389252 0.0143541
vt 0.390652 0
vt 0.390652 0.0143541
vt 0.392053 0
vt 0.392053 0.0143541
vt 0.393453 0
vt 0.393453 0.0143541
vt 0.394853 0
vt 0.394853 0.0143541
vt 0.396253 0
vt 0.396253 0.0143541
vt 0.397653 0
vt 0.397653 0.0143541
vt 0.399053 0
vt 0.399053 0.0143541
vt 0.400453 0
vt 0.400453 0.0143541
vt 0.0287081 0.647528
vt 0.998535 0.723306
vt 0.0287081 0.723306
vt 0.998535 0.647528
vt 0.0812603 0.667863
vt 0.0799414 0.668115
vt 0.0787267 0.668914
vt 0.0779288 0.67013
vt 0.0776773 0.671451
vt 0.0779288 0.672772
vt 0.0787267 0.673989
vt 0.0799414 0.674788
vt 0.0812603 0.67504
vt 0.0825793 0.674788
vt 0.083794 0.673989
vt 0.0845919 0.672772
vt 0.0848434 0.671451
vt 0.0845919 0.67013
vt 0.083794 0.668914
vt 0.0825793 0.668115
vt 0.109925 0.667863
vt 0.108606 0.668115
vt 0.107392 0.668914
vt 0.106594 0.67013
vt 0.106342 0.671451
vt 0.106594 0.672772
vt 0.107392 0.673989
vt 0.108606 0.674788
vt 0.109925 0.67504
vt 0.111244 0.674788
vt 0.112459 0.673989
vt 0.113257 0.672772
vt 0.113508 0.671451
vt 0.113257 0.67013
vt 0.112459 0.668914
vt 0.111244 0.668115
vt 0.0955928 0.667863
vt 0.0942738 0.668115
vt 0.0930592 0.668914
vt 0.0922613 0.67013
vt 0.0920097 0.671451
vt 0.0922613 0.672772
vt 0.0930592 0.673989
vt 0.0942738 0.674788
vt 0.0955928 0.67504
vt 0.0969117 0.674788
vt 0.0981264 0.673989
vt 0.0989243 0.672772
vt 0.0991759 0.671451
vt 0.0989243 0.67013
vt 0.0981264 0.668914
vt 0.0969117 0.668115
vt 0.945983 0.667863
vt 0.944664 0.668115
vt 0.943449 0.668914
vt 0.942651 0.67013
vt 0.9424 0.671451
vt 0.942651 0.672772
vt 0.943449 0.673989
vt 0.944664 0.674788
vt 0.945983 0.67504
vt 0.947302 0.674788
vt 0.948517 0.673989
vt 0.949314 0.672772
vt 0.949566 0.671451
vt 0.949314 0.67013
vt 0.948517 0.668914
vt 0.947302 0.668115
vt 0.917318 0.667863
vt 0.915999 0.668115
vt 0.914784 0.668914
vt 0.913987 0.67013
vt 0.913735 0.671451
vt 0.913987 0.672772
vt 0.914784 0.673989
vt 0.915999 0.674788
vt 0.917318 0.67504
vt 0.918637 0.674788
vt 0.919852 0.673989
vt 0.92065 0.672772
vt 0.920901 0.671451
vt 0.92065 0.67013
vt 0.919852 0.668914
vt 0.918637 0.668115
vt 0.931651 0.667863
vt 0.930332 0.668115
vt 0.929117 0.668914
vt 0.928319 0.67013
vt 0.928067 0.671451
vt 0.928319 0.672772
vt 0.929117 0.673989
vt 0.930332 0.674788
vt 0.931651 0.67504
vt 0.932969 0.674788
vt 0.934184 0.673989
vt 0.934982 0.672772
vt 0.935234 0.671451
vt 0.934982 0.67013
vt 0.934184 0.668914
vt 0.932969 0.668115
vt 0.0287081 0.323764
vt 0.998535 0.399542
vt 0.0287081 0.399542
vt 0.998535 0.323764
vt 0.0812603 0.344099
vt 0.0799414 0.344351
vt 0.0787267 0.34515
vt 0.0779288 0.346366
vt 0.0776773 0.347687
vt 0.0779288 0.349008
vt 0.0787267 0.350225
vt 0.0799414 0.351024
vt 0.0812603 0.351276
vt 0.0825793 0.351024
vt 0.083794 0.350225
vt 0.0845919 0.349008
vt 0.0848434 0.347687
vt 0.0845919 0.346366
vt 0.083794 0.34515
vt 0.0825793 0.344351
vt 0.109925 0.344099
vt 0.108606 0.344351
vt 0.107392 0.34515
vt 0.106594 0.346366
vt 0.106342 0.347687
vt 0.106594 0.349008
vt 0.107392 0.350225
vt 0.108606 0.351024
vt 0.109925 0.351276
vt 0.111244 0.351024
vt 0.112459 0.350225
vt 0.113257 0.349008
vt 0.113508 0.347687
vt 0.113257 0.346366
vt 0.112459 0.34515
vt 0.111244 0.344351
vt 0.0955928 0.344099
vt 0.0942738 0.344351
vt 0.0930592 0.34515
vt 0.0922613 0.346366
vt 0.0920097 0.347687
vt 0.0922613 0.349008
vt 0.0930592 0.350225
vt 0.0942738 0.351024
vt 0.0955928 0.351276
vt 0.0969117 0.351024
vt 0.0981264 0.350225
vt 0.0989243 0.349008
vt 0.0991759 0.347687
vt 0.0989243 0.346366
vt 0.0981264 0.34515
vt 0.0969117 0.344351
vt 0.945983 0.344099
vt 0.944664 0.344351
vt 0.943449 0.34515
vt 0.942651 0.346366
vt 0.9424 0.347687
vt 0.942651 0.349008
vt 0.943449 0.350225
vt 0.944664 0.351024
vt 0.945983 0.351276
vt 0.947302 0.351024
vt 0.948517 0.350225
vt 0.949314 0.349008
vt 0.949566 0.347687
vt 0.949314 0.346366
vt 0.948517 0.34515
vt 0.947302 0.344351
vt 0.917318 0.344099
vt 0.915999 0.344351
vt 0.914784 0.34515
vt 0.913987 0.346366
vt 0.913735 0.347687
vt 0.913987 0.349008
vt 0.914784 0.350225
vt 0.915999 0.351024
vt 0.917318 0.351276
vt 0.918637 0.351024
vt 0.919852 0.350225
vt 0.92065 0.349008
vt 0.920901 0.347687
vt 0.92065 0.346366
vt 0.919852 0.34515
vt 0.918637 0.344351
vt 0.931651 0.344099
vt 0.930332 0.344351
vt 0.929117 0.34515
vt 0.928319 0.346366
vt 0.928067 0.347687
vt 0.928319 0.349008
vt 0.929117 0.350225
vt 0.930332 0.351024
vt 0.931651 0.351276
vt 0.932969 0.351024
vt 0.934184 0.350225
vt 0.934982 0.349008
vt 0.935234 0.347687
vt 0.934982 0.346366
vt 0.934184 0.34515
vt 0.932969 0.344351
vn -2.35346E-07 1 0
vn -2.35346E-07 1 0
vn -2.35346E-07 1 0
vn -2.35346E-07 1 0
vn 1 2.35346E-07 0
vn 1 2.35346E-07 0
vn 1 2.35346E-07 0
vn 1 2.35346E-07 0
vn 2.35346E-07 -1 0
vn 2.35346E-07 -1 0
vn 2.35346E-07 -1 0
vn 2.35346E-07 -1 0
vn -1 -2.35346E-07 0
vn -1 -2.35346E-07 0
vn -1 -2.35346E-07 0
vn -1 -2.35346E-07 0
vn -1 -2.35345E-07 0
vn -1 -2.35348E-07 0
vn -0.929788 -0.368095 0
vn -0.929788 -0.368095 0
vn -0.707107 -0.707107 0
vn -0.707107 -0.707107 0
vn -0.368095 -0.929788 0
vn -0.368095 -0.929788 0
vn 2.35347E-07 -1 0
vn 2.35347E-07 -1 0
vn 0.368095 -0.929788 0
vn 0.368095 -0.929788 0
vn 0.707107 -0.707107 0
vn 0.707107 -0.707107 0
vn 0.929788 -0.368095 0
vn 0.929788 -0.368095 0
vn 1 2.35348E-07 0
vn 1 2.35348E-07 0
vn 0.929788 0.368095 0
vn 0.929788 0.368095 0
vn 0.707107 0.707107 0
vn 0.707107 0.707107 0
vn 0.368095 0.929788 0
vn 0.368095 0.929788 0
vn -2.35347E-07 1 0
vn -2.35347E-07 1 0
vn -0.368095 0.929788 0
vn -0.368095 0.929788 0
vn -0.707107 0.707107 0
vn -0.707107 0.707107 0
vn -0.929788 0.368095 0
vn -0.929788 0.368095 0
vn -1 -2.35345E-07 0
vn -1 -2.35348E-07 0
vn -1 -2.35345E-07 0
vn -1 -2.35348E-07 0
vn -0.929788 -0.368095 0
vn -0.929788 -0.368095 0
vn -0.707107 -0.707107 0
vn -0.707107 -0.707107 0
vn -0.368095 -0.929788 0
vn -0.368095 -0.929788 0
vn 2.35347E-07 -1 0
vn 2.35347E-07 -1 0
vn 0.368095 -0.929788 0
vn 0.368095 -0.929788 0
vn 0.707107 -0.707107 0
vn 0.707107 -0.707107 0
vn 0.929788 -0.368095 0
vn 0.929788 -0.368095 0
vn 1 2.35348E-07 0
vn 1 2.35348E-07 0
vn 0.929788 0.368095 0
vn 0.929788 0.368095 0
vn 0.707107 0.707107 0
vn 0.707107 0.707107 0
vn 0.368095 0.929788 0
vn 0.368095 0.929788 0
vn -2.35346E-07 1 0
vn -2.35346E-07 1 0
vn -0.368095 0.929788 0
vn -0.368095 0.929788 0
vn -0.707107 0.707107 0
vn -0.707107 0.707107 0
vn -0.929788 0.368095 0
vn -0.929788 0.368095 0
vn -1 -2.35345E-07 0
vn -1 -2.35348E-07 0
vn -1 -2.35345E-07 0
vn -1 -2.35348E-07 0
vn -0.929788 -0.368095 0
vn -0.929788 -0.368095 0
vn -0.707107 -0.707107 0
vn -0.707107 -0.707107 0
vn -0.368095 -0.929788 0
vn -0.368095 -0.929788 0
vn 2.35348E-07 -1 0
vn 2.35348E-07 -1 0
vn 0.368095 -0.929788 0
vn 0.368095 -0.929788 0
vn 0.707107 -0.707107 0
vn 0.707107 -0.707107 0
vn 0.929788 -0.368095 0
vn 0.929788 -0.368095 0
vn 1 2.35348E-07 0
vn 1 2.35348E-07 0
vn 0.929788 0.368095 0
vn 0.929788 0.368095 0
vn 0.707107 0.707107 0
vn 0.707107 0.707107 0
vn 0.368095 0.929788 0
vn 0.368095 0.929788 0
vn -2.35346E-07 1 0
vn -2.35346E-07 1 0
vn -0.368095 0.929788 0
vn -0.368095 0.929788 0
vn -0.707107 0.707107 0
vn -0.707107 0.707107 0
vn -0.929788 0.368095 0
vn -0.929788 0.368095 0
vn -1 -2.35345E-07 0
vn -1 -2.35348E-07 0
vn -1 -2.35347E-07 0
vn -1 -2.35346E-07 0
vn -0.929788 -0.368095 0
vn -0.929788 -0.368095 0
vn -0.707107 -0.707107 0
vn -0.707107 -0.707107 0
vn -0.368095 -0.929788 0
vn -0.368095 -0.929788 0
vn 2.35347E-07 -1 0
vn 2.35347E-07 -1 0
vn 0.368095 -0.929788 0
vn 0.368095 -0.929788 0
vn 0.707107 -0.707107 0
vn 0.707107 -0.707107 0
vn 0.929788 -0.368095 0
vn 0.929788 -0.368095 0
vn 1 2.35346E-07 0
vn 1 2.35346E-07 0
vn 0.929788 0.368095 0
vn 0.929788 0.368095 0
vn 0.707107 0.707107 0
vn 0.707107 0.707107 0
vn 0.368095 0.929788 0
vn 0.368095 0.929788 0
vn -2.35347E-07 1 0
vn -2.35347E-07 1 0
vn -0.368095 0.929788 0
vn -0.368095 0.929788 0
vn -0.707107 0.707107 0
vn -0.707107 0.707107 0
vn -0.929788 0.368095 0
vn -0.929788 0.368095 0
vn -1 -2.35347E-07 0
vn -1 -2.35346E-07 0
vn -1 -2.35346E-07 0
vn -1 -2.35347E-07 0
vn -0.929788 -0.368095 0
vn -0.929788 -0.368095 0
vn -0.707107 -0.707107 0
vn -0.707107 -0.707107 0
vn -0.368095 -0.929788 0
vn -0.368095 -0.929788 0
vn 2.35346E-07 -1 0
vn 2.35346E-07 -1 0
vn 0.368095 -0.929788 0
vn 0.368095 -0.929788 0
vn 0.707107 -0.707107 0
vn 0.707107 -0.707107 0
vn 0.929788 -0.368095 0
vn 0.929788 -0.368095 0
vn 1 2.35348E-07 0
vn 1 2.35348E-07 0
vn 0.929788 0.368095 0
vn 0.929788 0.368095 0
vn 0.707107 0.707107 0
vn 0.707107 0.707107 0
vn 0.368095 0.929788 0
vn 0.368095 0.929788 0
vn -2.35345E-07 1 0
vn -2.35345E-07 1 0
vn -0.368095 0.929788 0
vn -0.368095 0.929788 0
vn -0.707107 0.707107 0
vn -0.707107 0.707107 0
vn -0.929788 0.368095 0
vn -0.929788 0.368095 0
vn -1 -2.35346E-07 0
vn -1 -2.35347E-07 0
vn -1 -2.35347E-07 0
vn -1 -2.35346E-07 0
vn -0.929788 -0.368095 0
vn -0.929788 -0.368095 0
vn -0.707107 -0.707107 0
vn -0.707107 -0.707107 0
vn -0.368095 -0.929788 0
vn -0.368095 -0.929788 0
vn 2.35346E-07 -1 0
vn 2.35346E-07 -1 0
vn 0.368095 -0.929788 0
vn 0.368095 -0.929788 0
vn 0.707107 -0.707107 0
vn 0.707107 -0.707107 0
vn 0.929788 -0.368095 0
vn 0.929788 -0.368095 0
vn 1 2.35346E-07 0
vn 1 2.35346E-07 0
vn 0.929788 0.368095 0
vn 0.929788 0.368095 0
vn 0.707107 0.707107 0
vn 0.707107 0.707107 0
vn 0.368095 0.929788 0
vn 0.368095 0.929788 0
vn -2.35346E-07 1 0
vn -2.35346E-07 1 0
vn -0.368095 0.929788 0
vn -0.368095 0.929788 0
vn -0.707107 0.707107 0
vn -0.707107 0.707107 0
vn -0.929788 0.368095 0
vn -0.929788 0.368095 0
vn -1 -2.35347E-07 0
vn -1 -2.35346E-07 0
vn 0 0 1
vn 0 0 1
vn 0 0 1
vn 0 0 1
vn 0 0 1
vn 0 0 1
vn 0 0 1
vn 0 0 1
vn 0 0 1
vn 0 0 1
vn 0 0 1
vn 0 0 1
vn 0 0 1
vn 0 0 1
vn 0 0 1
vn 0 0 1
vn 0 0 1
vn 0 0 1
vn 0 0 1
vn 0 0 1
vn 0 0 1
vn 0 0 1
vn 0 0 1
vn 0 0 1
vn 0 0 1
vn 0 0 1
vn 0 0 1
vn 0 0 1
vn 0 0 1
vn 0 0 1
vn 0 0 1
vn 0 0 1
vn 0 0 1
vn 0 0 1
vn 0 0 1
vn 0 0 1
vn 0 0 1
vn 0 0 1
vn 0 0 1
vn 0 0 1
vn 0 0 1
vn 0 0 1
vn 0 0 1
vn 0 0 1
vn 0 0 1
vn 0 0 1
vn 0 0 1
vn 0 0 1
vn 0 0 1
vn 0 0 1
vn 0 0 1
vn 0 0 1
vn 0 0 1
vn 0 0 1
vn 0 0 1
vn 0 0 1
vn 0 0 1
vn 0 0 1
vn 0 0 1
vn 0 0 1
vn 0 0 1
vn 0 0 1
vn 0 0 1
vn 0 0 1
vn 0 0 1
vn 0 0 1
vn 0 0 1
vn 0 0 1
vn 0 0 1
vn 0 0 1
vn 0 0 1
vn 0 0 1
vn 0 0 1
vn 0 0 1
vn 0 0 1
vn 0 0 1
vn 0 0 1
vn 0 0 1
vn 0 0 1
vn 0 0 1
vn 0 0 1
vn 0 0 1
vn 0 0 1
vn 0 0 1
vn 0 0 1
vn 0 0 1
vn 0 0 1
vn 0 0 1
vn 0 0 1
vn 0 0 1
vn 0 0 1
vn 0 0 1
vn 0 0 1
vn 0 0 1
vn 0 0 1
vn 0 0 1
vn 0 0 1
vn 0 0 1
vn 0 0 1
vn 0 0 1
vn 0 0 -1
vn 0 0 -1
vn 0 0 -1
vn 0 0 -1
vn 0 0 -1
vn 0 0 -1
vn 0 0 -1
vn 0 0 -1
vn 0 0 -1
vn 0 0 -1
vn 0 0 -1
vn 0 0 -1
vn 0 0 -1
vn 0 0 -1
vn 0 0 -1
vn 0 0 -1
vn 0 0 -1
vn 0 0 -1
vn 0 0 -1
vn 0 0 -1
vn 0 0 -1
vn 0 0 -1
vn 0 0 -1
vn 0 0 -1
vn 0 0 -1
vn 0 0 -1
vn 0 0 -1
vn 0 0 -1
vn 0 0 -1
vn 0 0 -1
vn 0 0 -1
vn 0 0 -1
vn 0 0 -1
vn 0 0 -1
vn 0 0 -1
vn 0 0 -1
vn 0 0 -1
vn 0 0 -1
vn 0 0 -1
vn 0 0 -1
vn 0 0 -1
vn 0 0 -1
vn 0 0 -1
vn 0 0 -1
vn 0 0 -1
vn 0 0 -1
vn 0 0 -1
vn 0 0 -1
vn 0 0 -1
vn 0 0 -1
vn 0 0 -1
vn 0 0 -1
vn 0 0 -1
vn 0 0 -1
vn 0 0 -1
vn 0 0 -1
vn 0 0 -1
vn 0 0 -1
vn 0 0 -1
vn 0 0 -1
vn 0 0 -1
vn 0 0 -1
vn 0 0 -1
vn 0 0 -1
vn 0 0 -1
vn 0 0 -1
vn 0 0 -1
vn 0 0 -1
vn 0 0 -1
vn 0 0 -1
vn 0 0 -1
vn 0 0 -1
vn 0 0 -1
vn 0 0 -1
vn 0 0 -1
vn 0 0 -1
vn 0 0 -1
vn 0 0 -1
vn 0 0 -1
vn 0 0 -1
vn 0 0 -1
vn 0 0 -1
vn 0 0 -1
vn 0 0 -1
vn 0 0 -1
vn 0 0 -1
vn 0 0 -1
vn 0 0 -1
vn 0 0 -1
vn 0 0 -1
vn 0 0 -1
vn 0 0 -1
vn 0 0 -1
vn 0 0 -1
vn 0 0 -1
vn 0 0 -1
vn 0 0 -1
vn 0 0 -1
vn 0 0 -1
vn 0 0 -1
f 302/302/302 301/301/301 303/303/303 304/304/304
f 306/306/306 305/305/305 307/307/307 308/308/308
f 310/310/310 309/309/309 311/311/311 312/312/312
f 314/314/314 313/313/313 315/315/315 316/316/316
f 319/319/319 320/320/320 318/318/318 317/317/317
f 323/323/323 324/324/324 322/322/322 321/321/321
f 321/321/321 322/322/322 320/320/320 319/319/319
f 327/327/327 328/328/328 326/326/326 325/325/325
f 331/331/331 332/332/332 330/330/330 329/329/329
f 329/329/329 330/330/330 328/328/328 327/327/327
f 325/325/325 326/326/326 324/324/324 323/323/323
f 333/333/333 334/334/334 332/332/332 331/331/331
f 337/337/337 338/338/338 336/336/336 335/335/335
f 341/341/341 342/342/342 340/340/340 339/339/339
f 339/339/339 340/340/340 338/338/338 337/337/337
f 345/345/345 346/346/346 344/344/344 343/343/343
f 349/349/349 350/350/350 348/348/348 347/347/347
f 347/347/347 348/348/348 346/346/346 345/345/345
f 343/343/343 344/344/344 342/342/342 341/341/341
f 335/335/335 336/336/336 334/334/334 333/333/333
f 353/353/353 354/354/354 352/352/352 351/351/351
f 357/357/357 358/358/358 356/356/356 355/355/355
f 355/355/355 356/356/356 354/354/354 353/353/353
f 361/361/361 362/362/362 360/360/360 359/359/359
f 365/365/365 366/366/366 364/364/364 363/363/363
f 363/363/363 364/364/364 362/362/362 361/361/361
f 359/359/359 360/360/360 358/358/358 357/357/357
f 367/367/367 368/368/368 366/366/366 365/365/365
f 371/371/371 372/372/372 370/370/370 369/369/369
f 375/375/375 376/376/376 374/374/374 373/373/373
f 373/373/373 374/374/374 372/372/372 371/371/371
f 379/379/379 380/380/380 378/378/378 377/377/377
f 383/383/383 384/384/384 382/382/382 381/381/381
f 381/381/381 382/382/382 380/380/380 379/379/379
f 377/377/377 378/378/378 376/376/376 375/375/375
f 369/369/369 370/370/370 368/368/368 367/367/367
f 387/387/387 388/388/388 386/386/386 385/385/385
f 391/391/391 392/392/392 390/390/390 389/389/389
f 389/389/389 390/390/390 388/388/388 387/387/387
f 395/395/395 396/396/396 394/394/394 393/393/393
f 399/399/399 400/400/400 398/398/398 397/397/397
f 397/397/397 398/398/398 396/396/396 395/395/395
f 393/393/393 394/394/394 392/392/392 391/391/391
f 401/401/401 402/402/402 400/400/400 399/399/399
f 405/405/405 406/406/406 404/404/404 403/403/403
f 409/409/409 410/410/410 408/408/408 407/407/407
f 407/407/407 408/408/408 406/406/406 405/405/405
f 413/413/413 414/414/414 412/412/412 411/411/411
f 417/417/417 418/418/418 416/416/416 415/415/415
f 415/415/415 416/416/416 414/414/414 413/413/413
f 411/411/411 412/412/412 410/410/410 409/409/409
f 403/403/403 404/404/404 402/402/402 401/401/401
f 421/421/421 422/422/422 420/420/420 419/419/419
f 425/425/425 426/426/426 424/424/424 423/423/423
f 423/423/423 424/424/424 422/422/422 421/421/421
f 429/429/429 430/430/430 428/428/428 427/427/427
f 433/433/433 434/434/434 432/432/432 431/431/431
f 431/431/431 432/432/432 430/430/430 429/429/429
f 427/427/427 428/428/428 426/426/426 425/425/425
f 435/435/435 436/436/436 434/434/434 433/433/433
f 439/439/439 440/440/440 438/438/438 437/437/437
f 443/443/443 444/444/444 442/442/442 441/441/441
f 441/441/441 442/442/442 440/440/440 439/439/439
f 447/447/447 448/448/448 446/446/446 445/445/445
f 451/451/451 452/452/452 450/450/450 449/449/449
f 449/449/449 450/450/450 448/448/448 447/447/447
f 445/445/445 446/446/446 444/444/444 443/443/443
f 437/437/437 438/438/438 436/436/436 435/435/435
f 455/455/455 456/456/456 454/454/454 453/453/453
f 459/459/459 460/460/460 458/458/458 457/457/457
f 457/457/457 458/458/458 456/456/456 455/455/455
f 463/463/463 464/464/464 462/462/462 461/461/461
f 467/467/467 468/468/468 466/466/466 465/465/465
f 465/465/465 466/466/466 464/464/464 463/463/463
f 461/461/461 462/462/462 460/460/460 459/459/459
f 469/469/469 470/470/470 468/468/468 467/467/467
f 473/473/473 474/474/474 472/472/472 471/471/471
f 477/477/477 478/478/478 476/476/476 475/475/475
f 475/475/475 476/476/476 474/474/474 473/473/473
f 481/481/481 482/482/482 480/480/480 479/479/479
f 485/485/485 486/486/486 484/484/484 483/483/483
f 483/483/483 484/484/484 482/482/482 481/481/481
f 479/479/479 480/480/480 478/478/478 477/477/477
f 471/471/471 472/472/472 470/470/470 469/469/469
f 489/489/489 490/490/490 488/488/488 487/487/487
f 493/493/493 494/494/494 492/492/492 491/491/491
f 491/491/491 492/492/492 490/490/490 489/489/489
f 497/497/497 498/498/498 496/496/496 495/495/495
f 501/501/501 502/502/502 500/500/500 499/499/499
f 499/499/499 500/500/500 498/498/498 497/497/497
f 495/495/495 496/496/496 494/494/494 493/493/493
f 503/503/503 504/504/504 502/502/502 501/501/501
f 507/507/507 508/508/508 506/506/506 505/505/505
f 511/511/511 512/512/512 510/510/510 509/509/509
f 509/509/509 510/510/510 508/508/508 507/507/507
f 515/515/515 516/516/516 514/514/514 513/513/513
f 519/519/519 520/520/520 518/518/518 517/517/517
f 517/517/517 518/518/518 516/516/516 515/515/515
f 513/513/513 514/514/514 512/512/512 511/511/511
f 505/505/505 506/506/506 504/504/504 503/503/503
f 573/573/573 588/588/588 524/524/524
f 587/587/587 524/524/524 588/588/588
f 573/573/573 524/524/524 605/605/605
f 619/619/619 574/574/574 620/620/620
f 573/573/573 620/620/620 574/574/574
f 574/574/574 619/619/619 575/575/575
f 620/620/620 573/573/573 605/605/605
f 589/589/589 606/606/606 605/605/605
f 604/604/604 606/606/606 589/589/589
f 524/524/524 589/589/589 605/605/605
f 606/606/606 604/604/604 607/607/607
f 556/556/556 590/590/590 589/589/589
f 590/590/590 555/555/555 591/591/591
f 541/541/541 589/589/589 524/524/524
f 590/590/590 556/556/556 555/555/555
f 576/576/576 575/575/575 619/619/619
f 618/618/618 577/577/577 576/576/576
f 576/576/576 619/619/619 618/618/618
f 586/586/586 524/524/524 587/587/587
f 554/554/554 592/592/592 591/591/591
f 555/555/555 554/554/554 591/591/591
f 554/554/554 553/553/553 592/592/592
f 592/592/592 553/553/553 593/593/593
f 608/608/608 602/602/602 609/609/609
f 608/608/608 603/603/603 602/602/602
f 608/608/608 607/607/607 603/603/603
f 607/607/607 604/604/604 603/603/603
f 586/586/586 585/585/585 524/524/524
f 541/541/541 557/557/557 572/572/572
f 525/525/525 558/558/558 557/557/557
f 521/521/521 557/557/557 541/541/541
f 541/541/541 572/572/572 542/542/542
f 542/542/542 572/572/572 571/571/571
f 541/541/541 524/524/524 521/521/521
f 526/526/526 525/525/525 521/521/521
f 525/525/525 557/557/557 521/521/521
f 527/527/527 526/526/526 521/521/521
f 558/558/558 525/525/525 540/540/540
f 559/559/559 540/540/540 539/539/539
f 558/558/558 540/540/540 559/559/559
f 528/528/528 527/527/527 521/521/521
f 556/556/556 589/589/589 541/541/541
f 571/571/571 544/544/544 543/543/543
f 570/570/570 544/544/544 571/571/571
f 542/542/542 571/571/571 543/543/543
f 569/569/569 545/545/545 570/570/570
f 544/544/544 570/570/570 545/545/545
f 545/545/545 569/569/569 546/546/546
f 560/560/560 559/559/559 539/539/539
f 560/560/560 539/539/539 538/538/538
f 538/538/538 537/537/537 561/561/561
f 561/561/561 537/537/537 562/562/562
f 560/560/560 538/538/538 561/561/561
f 521/521/521 529/529/529 528/528/528
f 530/530/530 529/529/529 521/521/521
f 578/578/578 577/577/577 617/617/617
f 616/616/616 578/578/578 617/617/617
f 579/579/579 578/578/578 615/615/615
f 615/615/615 578/578/578 616/616/616
f 585/585/585 584/584/584 524/524/524
f 601/601/601 610/610/610 609/609/609
f 600/600/600 610/610/610 601/601/601
f 600/600/600 611/611/611 610/610/610
f 599/599/599 611/611/611 600/600/600
f 577/577/577 618/618/618 617/617/617
f 580/580/580 579/579/579 614/614/614
f 581/581/581 522/522/522 582/582/582
f 583/583/583 582/582/582 522/522/522
f 614/614/614 581/581/581 580/580/580
f 583/583/583 524/524/524 584/584/584
f 581/581/581 613/613/613 522/522/522
f 611/611/611 599/599/599 612/612/612
f 598/598/598 612/612/612 599/599/599
f 597/597/597 613/613/613 598/598/598
f 612/612/612 598/598/598 613/613/613
f 597/597/597 596/596/596 549/549/549
f 597/597/597 522/522/522 613/613/613
f 613/613/613 581/581/581 614/614/614
f 523/523/523 522/522/522 597/597/597
f 614/614/614 579/579/579 615/615/615
f 524/524/524 583/583/583 522/522/522
f 594/594/594 593/593/593 552/552/552
f 569/569/569 568/568/568 546/546/546
f 568/568/568 547/547/547 546/546/546
f 594/594/594 552/552/552 551/551/551
f 562/562/562 537/537/537 536/536/536
f 562/562/562 536/536/536 535/535/535
f 563/563/563 562/562/562 535/535/535
f 534/534/534 563/563/563 535/535/535
f 521/521/521 523/523/523 531/531/531
f 567/567/567 547/547/547 568/568/568
f 552/552/552 593/593/593 553/553/553
f 567/567/567 548/548/548 547/547/547
f 594/594/594 551/551/551 595/595/595
f 595/595/595 551/551/551 550/550/550
f 596/596/596 595/595/595 550/550/550
f 566/566/566 548/548/548 567/567/567
f 596/596/596 550/550/550 549/549/549
f 549/549/549 548/548/548 566/566/566
f 534/534/534 564/564/564 563/563/563
f 533/533/533 565/565/565 534/534/534
f 564/564/564 534/534/534 565/565/565
f 532/532/532 523/523/523 533/533/533
f 565/565/565 533/533/533 523/523/523
f 565/565/565 549/549/549 566/566/566
f 565/565/565 523/523/523 549/549/549
f 531/531/531 523/523/523 532/532/532
f 549/549/549 523/523/523 597/597/597
f 530/530/530 521/521/521 531/531/531
f 609/609/609 602/602/602 601/601/601
f 673/673/673 624/624/624 688/688/688
f 687/687/687 688/688/688 624/624/624
f 673/673/673 705/705/705 624/624/624
f 719/719/719 720/720/720 674/674/674
f 673/673/673 674/674/674 720/720/720
f 674/674/674 675/675/675 719/719/719
f 720/720/720 705/705/705 673/673/673
f 689/689/689 705/705/705 706/706/706
f 704/704/704 689/689/689 706/706/706
f 624/624/624 705/705/705 689/689/689
f 706/706/706 707/707/707 704/704/704
f 656/656/656 689/689/689 690/690/690
f 690/690/690 691/691/691 655/655/655
f 641/641/641 624/624/624 689/689/689
f 690/690/690 655/655/655 656/656/656
f 676/676/676 719/719/719 675/675/675
f 718/718/718 676/676/676 677/677/677
f 676/676/676 718/718/718 719/719/719
f 686/686/686 687/687/687 624/624/624
f 654/654/654 691/691/691 692/692/692
f 655/655/655 691/691/691 654/654/654
f 654/654/654 692/692/692 653/653/653
f 692/692/692 693/693/693 653/653/653
f 708/708/708 709/709/709 702/702/702
f 708/708/708 702/702/702 703/703/703
f 708/708/708 703/703/703 707/707/707
f 707/707/707 703/703/703 704/704/704
f 686/686/686 624/624/624 685/685/685
f 641/641/641 672/672/672 657/657/657
f 625/625/625 657/657/657 658/658/658
f 621/621/621 641/641/641 657/657/657
f 641/641/641 642/642/642 672/672/672
f 642/642/642 671/671/671 672/672/672
f 641/641/641 621/621/621 624/624/624
f 626/626/626 621/621/621 625/625/625
f 625/625/625 621/621/621 657/657/657
f 627/627/627 621/621/621 626/626/626
f 658/658/658 640/640/640 625/625/625
f 659/659/659 639/639/639 640/640/640
f 658/658/658 659/659/659 640/640/640
f 628/628/628 621/621/621 627/627/627
f 656/656/656 641/641/641 689/689/689
f 671/671/671 643/643/643 644/644/644
f 670/670/670 671/671/671 644/644/644
f 642/642/642 643/643/643 671/671/671
f 669/669/669 670/670/670 645/645/645
f 644/644/644 645/645/645 670/670/670
f 645/645/645 646/646/646 669/669/669
f 660/660/660 639/639/639 659/659/659
f 660/660/660 638/638/638 639/639/639
f 638/638/638 661/661/661 637/637/637
f 661/661/661 662/662/662 637/637/637
f 660/660/660 661/661/661 638/638/638
f 621/621/621 628/628/628 629/629/629
f 630/630/630 621/621/621 629/629/629
f 678/678/678 717/717/717 677/677/677
f 716/716/716 717/717/717 678/678/678
f 679/679/679 715/715/715 678/678/678
f 715/715/715 716/716/716 678/678/678
f 685/685/685 624/624/624 684/684/684
f 701/701/701 709/709/709 710/710/710
f 700/700/700 701/701/701 710/710/710
f 700/700/700 710/710/710 711/711/711
f 699/699/699 700/700/700 711/711/711
f 677/677/677 717/717/717 718/718/718
f 680/680/680 714/714/714 679/679/679
f 681/681/681 682/682/682 622/622/622
f 683/683/683 622/622/622 682/682/682
f 714/714/714 680/680/680 681/681/681
f 683/683/683 684/684/684 624/624/624
f 681/681/681 622/622/622 713/713/713
f 711/711/711 712/712/712 699/699/699
f 698/698/698 699/699/699 712/712/712
f 697/697/697 698/698/698 713/713/713
f 712/712/712 713/713/713 698/698/698
f 697/697/697 649/649/649 696/696/696
f 697/697/697 713/713/713 622/622/622
f 713/713/713 714/714/714 681/681/681
f 623/623/623 697/697/697 622/622/622
f 714/714/714 715/715/715 679/679/679
f 624/624/624 622/622/622 683/683/683
f 694/694/694 652/652/652 693/693/693
f 669/669/669 646/646/646 668/668/668
f 668/668/668 646/646/646 647/647/647
f 694/694/694 651/651/651 652/652/652
f 662/662/662 636/636/636 637/637/637
f 662/662/662 635/635/635 636/636/636
f 663/663/663 635/635/635 662/662/662
f 634/634/634 635/635/635 663/663/663
f 621/621/621 631/631/631 623/623/623
f 667/667/667 668/668/668 647/647/647
f 652/652/652 653/653/653 693/693/693
f 667/667/667 647/647/647 648/648/648
f 694/694/694 695/695/695 651/651/651
f 695/695/695 650/650/650 651/651/651
f 696/696/696 650/650/650 695/695/695
f 666/666/666 667/667/667 648/648/648
f 696/696/696 649/649/649 650/650/650
f 649/649/649 666/666/666 648/648/648
f 634/634/634 663/663/663 664/664/664
f 633/633/633 634/634/634 665/665/665
f 664/664/664 665/665/665 634/634/634
f 632/632/632 633/633/633 623/623/623
f 665/665/665 623/623/623 633/633/633
f 665/665/665 666/666/666 649/649/649
f 665/665/665 649/649/649 623/623/623
f 631/631/631 632/632/632 623/623/623
f 649/649/649 697/697/697 623/623/623
f 630/630/630 631/631/631 621/621/621
f 709/709/709 701/701/701 702/702/702
usemtl Custom
v 63.2963 -15.9524 -23.7463
v 63.2963 -16.7024 -23.7463
v 63.2963 -15.9524 -23.8713
v 63.2963 -16.7024 -23.8713
v 63.2963 -16.3274 -23.7463
v 63.2963 -15.9524 -23.8713
v 63.2963 -16.7024 -23.8713
v 75.2338 -15.9524 -23.8713
v 75.2338 -16.7024 -23.8713
v 75.2338 -15.9524 -23.8713
v 75.2338 -16.7024 -23.8713
v 75.2338 -15.9524 -0.121349
v 75.2338 -16.7024 -0.121349
v 75.2338 -16.7024 -0.121349
v 60.2963 -16.7024 -0.121349
v 75.2338 -15.9524 -0.121349
v 60.2963 -15.9524 -0.121349
v 60.2963 -15.9524 -0.121349
v 60.2963 -16.7024 -0.121349
v 60.2963 -15.9524 -2.24635
v 60.2963 -16.7024 -2.24635
v 60.2963 -15.9524 -2.24635
v 60.2963 -16.7024 -2.24635
v 58.7963 -15.9524 -2.24635
v 58.7963 -16.7024 -2.24635
v 58.7963 -15.9524 -2.24635
v 58.7963 -16.7024 -2.24635
v 58.7963 -15.9524 -34.6213
v 58.7963 -16.7024 -34.6213
v 58.7963 -16.7024 -34.6213
v 62.7963 -16.7024 -34.6213
v 58.7963 -15.9524 -34.6213
v 62.7963 -15.9524 -34.6213
v 62.7963 -15.9524 -34.6213
v 62.7963 -16.7024 -34.6213
v 62.7963 -15.9524 -23.7463
v 62.7963 -16.7024 -23.7463
v 62.7963 -16.3274 -23.7463
v 62.7963 -15.9524 -23.7463
v 62.7963 -16.3274 -23.7463
v 62.7963 -16.7024 -23.7463
v 62.8005 -15.9524 -23.7236
v 62.8005 -16.7024 -23.7236
v 62.8138 -15.9524 -23.7003
v 62.8138 -16.7024 -23.7003
v 62.8695 -15.9524 -23.658
v 62.8695 -16.7024 -23.658
v 63.0463 -15.9524 -23.6213
v 63.0463 -16.7024 -23.6213
v 63.2231 -15.9524 -23.658
v 63.2231 -16.7024 -23.658
v 63.2787 -15.9524 -23.7003
v 63.2787 -16.7024 -23.7003
v 63.2921 -15.9524 -23.7236
v 63.2921 -16.7024 -23.7236
v 63.2963 -15.9524 -23.7463
v 63.2963 -16.3274 -23.7463
v 63.2963 -16.7024 -23.7463
v 62.8138 -16.3274 -23.7003
v 62.8695 -16.3274 -23.658
v 63.0463 -16.3274 -23.6213
v 63.2231 -16.3274 -23.658
v 63.2787 -16.3274 -23.7003
v 63.2921 -16.3274 -23.7236
v 58.7963 -15.9524 -34.6213
v 75.2338 -15.9524 -0.121349
v 63.2963 -15.9524 -23.7463
v 63.2963 -15.9524 -23.8713
v 75.2338 -15.9524 -23.8713
v 60.2963 -15.9524 -0.121349
v 60.2963 -15.9524 -2.24635
v 58.7963 -15.9524 -2.24635
v 62.7963 -15.9524 -34.6213
v 62.7963 -15.9524 -23.7463
v 62.8005 -15.9524 -23.7236
v 62.8138 -15.9524 -23.7003
v 62.8695 -15.9524 -23.658
v 63.0463 -15.9524 -23.6213
v 63.2231 -15.9524 -23.658
v 63.2787 -15.9524 -23.7003
v 63.2921 -15.9524 -23.7236
v 58.7963 -16.7024 -34.6213
v 75.2338 -16.7024 -0.121349
v 63.2963 -16.7024 -23.7463
v 63.2963 -16.7024 -23.8713
v 75.2338 -16.7024 -23.8713
v 60.2963 -16.7024 -0.121349
v 60.2963 -16.7024 -2.24635
v 58.7963 -16.7024 -2.24635
v 62.7963 -16.7024 -34.6213
v 62.7963 -16.7024 -23.7463
v 62.8005 -16.7024 -23.7236
v 62.8138 -16.7024 -23.7003
v 62.8695 -16.7024 -23.658
v 63.0463 -16.7024 -23.6213
v 63.2231 -16.7024 -23.658
v 63.2787 -16.7024 -23.7003
v 63.2921 -16.7024 -23.7236
vt 0.0604026 0
vt 0.0604026 0.0201342
vt 0.0637583 0
vt 0.0637583 0.0201342
vt 0.0604026 0.0100671
vt 0.0186694 0
vt 0 0
vt 0.0186694 0.320469
vt 0 0.320469
vt 0.0604026 0.0973153
vt 0.0604026 0.115985
vt 0.697986 0.0973153
vt 0.697986 0.115985
vt 0.0201342 0
vt 0.0201342 0.401007
vt 0.0388036 0
vt 0.0388036 0.401007
vt 0.694645 0
vt 0.674511 0
vt 0.694645 0.0555821
vt 0.674511 0.0555821
vt 0.38258 0
vt 0.362446 0
vt 0.38258 0.0402684
vt 0.362446 0.0402684
vt 0.0589378 0
vt 0.0402684 0
vt 0.0589378 0.869127
vt 0.0402684 0.869127
vt 0.167786 0.0570469
vt 0.0604026 0.0570469
vt 0.167786 0.0757163
vt 0.0604026 0.0757163
vt 0.0604026 0.0771811
vt 0.0604026 0.0958505
vt 0.352349 0.0771811
vt 0.352349 0.0958505
vt 0.352349 0.0865158
vt 0.112414 0
vt 0.112414 0.0100671
vt 0.112414 0.0201342
vt 0.113422 0
vt 0.113422 0.0201342
vt 0.11443 0
vt 0.11443 0.0201342
vt 0.116446 0
vt 0.116446 0.0201342
vt 0.120479 0
vt 0.120479 0.0201342
vt 0.124512 0
vt 0.124512 0.0201342
vt 0.126529 0
vt 0.126529 0.0201342
vt 0.127537 0
vt 0.127537 0.0201342
vt 0.128545 0
vt 0.128545 0.0100671
vt 0.128545 0.0201342
vt 0.11443 0.0100671
vt 0.116446 0.0100671
vt 0.120479 0.0100671
vt 0.124512 0.0100671
vt 0.126529 0.0100671
vt 0.127537 0.0100671
vt 0.985111 0.558725
vt 0.0604026 0.998535
vt 0.693627 0.67913
vt 0.696977 0.67913
vt 0.696977 0.998535
vt 0.0604026 0.598859
vt 0.117359 0.598859
vt 0.117359 0.558725
vt 0.985111 0.665751
vt 0.693627 0.665751
vt 0.693017 0.665863
vt 0.692394 0.666221
vt 0.691258 0.66771
vt 0.690277 0.67244
vt 0.691258 0.67717
vt 0.692394 0.67866
vt 0.693017 0.679018
vt 0.985111 0.11745
vt 0.0604026 0.55726
vt 0.693627 0.237854
vt 0.696977 0.237854
vt 0.696977 0.55726
vt 0.0604026 0.157584
vt 0.117359 0.157584
vt 0.117359 0.11745
vt 0.985111 0.224476
vt 0.693627 0.224476
vt 0.693017 0.224588
vt 0.692394 0.224946
vt 0.691258 0.226435
vt 0.690277 0.231165
vt 0.691258 0.235895
vt 0.692394 0.237385
vt 0.693017 0.237743
vn -1 -2.35346E-07 0
vn -1 -2.35346E-07 0
vn -1 -2.35346E-07 0
vn -1 -2.35346E-07 0
vn -1 -2.35346E-07 0
vn 0 0 -1
vn 0 0 -1
vn 0 0 -1
vn 0 0 -1
vn 1 2.35346E-07 0
vn 1 2.35346E-07 0
vn 1 2.35346E-07 0
vn 1 2.35346E-07 0
vn 0 0 1
vn 0 0 1
vn 0 0 1
vn 0 0 1
vn -1 -2.35346E-07 0
vn -1 -2.35346E-07 0
vn -1 -2.35346E-07 0
vn -1 -2.35346E-07 0
vn 0 0 1
vn 0 0 1
vn 0 0 1
vn 0 0 1
vn -1 -2.35346E-07 0
vn -1 -2.35346E-07 0
vn -1 -2.35346E-07 0
vn -1 -2.35346E-07 0
vn 0 0 -1
vn 0 0 -1
vn 0 0 -1
vn 0 0 -1
vn 1 2.35346E-07 0
vn 1 2.35346E-07 0
vn 1 2.35346E-07 0
vn 1 2.35346E-07 0
vn 1 2.35346E-07 0
vn 1 2.35346E-07 0
vn 1 2.35346E-07 0
vn 1 2.35346E-07 0
vn 0.93783 2.20715E-07 -0.347095
vn 0.93783 2.20715E-07 -0.347095
vn 0.784002 1.84512E-07 -0.620758
vn 0.784002 1.84512E-07 -0.620758
vn 0.447214 1.0525E-07 -0.894427
vn 0.447214 1.0525E-07 -0.894427
vn 0 0 -1
vn 0 0 -1
vn -0.447214 -1.0525E-07 -0.894427
vn -0.447214 -1.0525E-07 -0.894427
vn -0.784002 -1.84512E-07 -0.620758
vn -0.784002 -1.84512E-07 -0.620758
vn -0.93783 -2.20715E-07 -0.347095
vn -0.93783 -2.20715E-07 -0.347095
vn -1 -2.35346E-07 0
vn -1 -2.35346E-07 0
vn -1 -2.35346E-07 0
vn 0.784002 1.84512E-07 -0.620758
vn 0.447214 1.0525E-07 -0.894427
vn 0 0 -1
vn -0.447214 -1.0525E-07 -0.894427
vn -0.784002 -1.84512E-07 -0.620758
vn -0.93783 -2.20715E-07 -0.347095
vn -2.35346E-07 1 0
vn -2.35346E-07 1 0
vn -2.35346E-07 1 0
vn -2.35346E-07 1 0
vn -2.35346E-07 1 0
vn -2.35346E-07 1 0
vn -2.35346E-07 1 0
vn -2.35346E-07 1 0
vn -2.35346E-07 1 0
vn -2.35346E-07 1 0
vn -2.35346E-07 1 0
vn -2.35346E-07 1 0
vn -2.35346E-07 1 0
vn -2.35346E-07 1 0
vn -2.35346E-07 1 0
vn -2.35346E-07 1 0
vn -2.35346E-07 1 0
vn 2.35346E-07 -1 0
vn 2.35346E-07 -1 0
vn 2.35346E-07 -1 0
vn 2.35346E-07 -1 0
vn 2.35346E-07 -1 0
vn 2.35346E-07 -1 0
vn 2.35346E-07 -1 0
vn 2.35346E-07 -1 0
vn 2.35346E-07 -1 0
vn 2.35346E-07 -1 0
vn 2.35346E-07 -1 0
vn 2.35346E-07 -1 0
vn 2.35346E-07 -1 0
vn 2.35346E-07 -1 0
vn 2.35346E-07 -1 0
vn 2.35346E-07 -1 0
vn 2.35346E-07 -1 0
f 723/723/723 725/725/725 721/721/721
f 722/722/722 725/725/725 724/724/724
f 723/723/723 724/724/724 725/725/725
f 727/727/727 726/726/726 728/728/728 729/729/729
f 731/731/731 730/730/730 732/732/732 733/733/733
f 735/735/735 734/734/734 736/736/736 737/737/737
f 739/739/739 738/738/738 740/740/740 741/741/741
f 743/743/743 742/742/742 744/744/744 745/745/745
f 747/747/747 746/746/746 748/748/748 749/749/749
f 751/751/751 750/750/750 752/752/752 753/753/753
f 755/755/755 754/754/754 756/756/756 758/758/758
f 755/755/755 758/758/758 757/757/757
f 760/760/760 759/759/759 762/762/762
f 779/779/779 760/760/760 762/762/762 764/764/764
f 766/766/766 780/780/780 779/779/779 764/764/764
f 768/768/768 781/781/781 780/780/780 766/766/766
f 761/761/761 760/760/760 763/763/763
f 760/760/760 779/779/779 765/765/765 763/763/763
f 767/767/767 780/780/780 781/781/781 769/769/769
f 780/780/780 767/767/767 765/765/765 779/779/779
f 781/781/781 768/768/768 770/770/770 782/782/782
f 782/782/782 770/770/770 772/772/772 783/783/783
f 769/769/769 781/781/781 782/782/782 771/771/771
f 774/774/774 784/784/784 783/783/783 772/772/772
f 776/776/776 777/777/777 784/784/784 774/774/774
f 783/783/783 773/773/773 771/771/771 782/782/782
f 777/777/777 778/778/778 775/775/775 784/784/784
f 784/784/784 775/775/775 773/773/773 783/783/783
f 794/794/794 793/793/793 785/785/785
f 792/792/792 794/794/794 785/785/785
f 795/795/795 794/794/794 791/791/791
f 791/791/791 794/794/794 792/792/792
f 796/796/796 791/791/791 797/797/797
f 790/790/790 801/801/801 791/791/791
f 791/791/791 796/796/796 795/795/795
f 786/786/786 787/787/787 801/801/801
f 788/788/788 787/787/787 789/789/789
f 789/789/789 787/787/787 786/786/786
f 798/798/798 791/791/791 799/799/799
f 800/800/800 791/791/791 801/801/801
f 786/786/786 801/801/801 790/790/790
f 800/800/800 799/799/799 791/791/791
f 797/797/797 791/791/791 798/798/798
f 811/811/811 802/802/802 810/810/810
f 809/809/809 802/802/802 811/811/811
f 812/812/812 808/808/808 811/811/811
f 808/808/808 809/809/809 811/811/811
f 813/813/813 814/814/814 808/808/808
f 807/807/807 808/808/808 818/818/818
f 808/808/808 812/812/812 813/813/813
f 803/803/803 818/818/818 804/804/804
f 805/805/805 806/806/806 804/804/804
f 806/806/806 803/803/803 804/804/804
f 815/815/815 816/816/816 808/808/808
f 817/817/817 818/818/818 808/808/808
f 803/803/803 807/807/807 818/818/818
f 817/817/817 808/808/808 816/816/816
f 814/814/814 815/815/815 808/808/808
usemtl Custom
v 63.2963 34.0475 -23.7463
v 63.2963 33.2975 -23.7463
v 63.2963 34.0475 -23.8713
v 63.2963 33.2975 -23.8713
v 63.2963 33.6725 -23.7463
v 63.2963 34.0475 -23.8713
v 63.2963 33.2975 -23.8713
v 75.2338 34.0476 -23.8713
v 75.2338 33.2976 -23.8713
v 75.2338 34.0476 -23.8713
v 75.2338 33.2976 -23.8713
v 75.2338 34.0476 -0.121349
v 75.2338 33.2976 -0.121349
v 75.2338 33.2976 -0.121349
v 60.2963 33.2975 -0.121349
v 75.2338 34.0476 -0.121349
v 60.2963 34.0475 -0.121349
v 60.2963 34.0475 -0.121349
v 60.2963 33.2975 -0.121349
v 60.2963 34.0475 -2.24635
v 60.2963 33.2975 -2.24635
v 60.2963 34.0475 -2.24635
v 60.2963 33.2975 -2.24635
v 58.7963 34.0475 -2.24635
v 58.7963 33.2975 -2.24635
v 58.7963 34.0475 -2.24635
v 58.7963 33.2975 -2.24635
v 58.7963 34.0475 -34.6213
v 58.7963 33.2975 -34.6213
v 58.7963 33.2975 -34.6213
v 62.7963 33.2975 -34.6213
v 58.7963 34.0475 -34.6213
v 62.7963 34.0475 -34.6213
v 62.7963 34.0475 -34.6213
v 62.7963 33.2975 -34.6213
v 62.7963 34.0475 -23.7463
v 62.7963 33.2975 -23.7463
v 62.7963 33.6725 -23.7463
v 62.7963 34.0475 -23.7463
v 62.7963 33.6725 -23.7463
v 62.7963 33.2975 -23.7463
v 62.8005 34.0475 -23.7236
v 62.8005 33.2975 -23.7236
v 62.8138 34.0475 -23.7003
v 62.8138 33.2975 -23.7003
v 62.8695 34.0475 -23.658
v 62.8695 33.2975 -23.658
v 63.0463 34.0475 -23.6213
v 63.0463 33.2975 -23.6213
v 63.2231 34.0475 -23.658
v 63.2231 33.2975 -23.658
v 63.2787 34.0475 -23.7003
v 63.2787 33.2975 -23.7003
v 63.2921 34.0475 -23.7236
v 63.2921 33.2975 -23.7236
v 63.2963 34.0475 -23.7463
v 63.2963 33.6725 -23.7463
v 63.2963 33.2975 -23.7463
v 62.8138 33.6725 -23.7003
v 62.8695 33.6725 -23.658
v 63.0463 33.6725 -23.6213
v 63.2231 33.6725 -23.658
v 63.2787 33.6725 -23.7003
v 63.2921 33.6725 -23.7236
v 58.7963 34.0475 -34.6213
v 75.2338 34.0476 -0.121349
v 63.2963 34.0475 -23.7463
v 63.2963 34.0475 -23.8713
v 75.2338 34.0476 -23.8713
v 60.2963 34.0475 -0.121349
v 60.2963 34.0475 -2.24635
v 58.7963 34.0475 -2.24635
v 62.7963 34.0475 -34.6213
v 62.7963 34.0475 -23.7463
v 62.8005 34.0475 -23.7236
v 62.8138 34.0475 -23.7003
v 62.8695 34.0475 -23.658
v 63.0463 34.0475 -23.6213
v 63.2231 34.0475 -23.658
v 63.2787 34.0475 -23.7003
v 63.2921 34.0475 -23.7236
v 58.7963 33.2975 -34.6213
v 75.2338 33.2976 -0.121349
v 63.2963 33.2975 -23.7463
v 63.2963 33.2975 -23.8713
v 75.2338 33.2976 -23.8713
v 60.2963 33.2975 -0.121349
v 60.2963 33.2975 -2.24635
v 58.7963 33.2975 -2.24635
v 62.7963 33.2975 -34.6213
v 62.7963 33.2975 -23.7463
v 62.8005 33.2975 -23.7236
v 62.8138 33.2975 -23.7003
v 62.8695 33.2975 -23.658
v 63.0463 33.2975 -23.6213
v 63.2231 33.2975 -23.658
v 63.2787 33.2975 -23.7003
v 63.2921 33.2975 -23.7236
vt 0.0604026 0
vt 0.0604026 0.0201342
vt 0.0637583 0
vt 0.0637583 0.0201342
vt 0.0604026 0.0100671
vt 0.0186694 0
vt 0 0
vt 0.0186694 0.320469
vt 0 0.320469
vt 0.0604026 0.0973153
vt 0.0604026 0.115985
vt 0.697986 0.0973153
vt 0.697986 0.115985
vt 0.0201342 0
vt 0.0201342 0.401007
vt 0.0388036 0
vt 0.0388036 0.401007
vt 0.694645 0
vt 0.674511 0
vt 0.694645 0.0555821
vt 0.674511 0.0555821
vt 0.38258 0
vt 0.362446 0
vt 0.38258 0.0402684
vt 0.362446 0.0402684
vt 0.0589378 0
vt 0.0402684 0
vt 0.0589378 0.869127
vt 0.0402684 0.869127
vt 0.167786 0.0570469
vt 0.0604026 0.0570469
vt 0.167786 0.0757163
vt 0.0604026 0.0757163
vt 0.0604026 0.0771811
vt 0.0604026 0.0958505
vt 0.352349 0.0771811
vt 0.352349 0.0958505
vt 0.352349 0.0865158
vt 0.112414 0
vt 0.112414 0.0100671
vt 0.112414 0.0201342
vt 0.113422 0
vt 0.113422 0.0201342
vt 0.11443 0
vt 0.11443 0.0201342
vt 0.116446 0
vt 0.116446 0.0201342
vt 0.120479 0
vt 0.120479 0.0201342
vt 0.124512 0
vt 0.124512 0.0201342
vt 0.126529 0
vt 0.126529 0.0201342
vt 0.127537 0
vt 0.127537 0.0201342
vt 0.128545 0
vt 0.128545 0.0100671
vt 0.128545 0.0201342
vt 0.11443 0.0100671
vt 0.116446 0.0100671
vt 0.120479 0.0100671
vt 0.124512 0.0100671
vt 0.126529 0.0100671
vt 0.127537 0.0100671
vt 0.985111 0.558725
vt 0.0604026 0.998535
vt 0.693627 0.67913
vt 0.696977 0.67913
vt 0.696977 0.998535
vt 0.0604026 0.598859
vt 0.117359 0.598859
vt 0.117359 0.558725
vt 0.985111 0.665751
vt 0.693627 0.665751
vt 0.693017 0.665863
vt 0.692394 0.666221
vt 0.691258 0.66771
vt 0.690277 0.67244
vt 0.691258 0.67717
vt 0.692394 0.67866
vt 0.693017 0.679018
vt 0.985111 0.11745
vt 0.0604026 0.55726
vt 0.693627 0.237854
vt 0.696977 0.237854
vt 0.696977 0.55726
vt 0.0604026 0.157584
vt 0.117359 0.157584
vt 0.117359 0.11745
vt 0.985111 0.224476
vt 0.693627 0.224476
vt 0.693017 0.224588
vt 0.692394 0.224946
vt 0.691258 0.226435
vt 0.690277 0.231165
vt 0.691258 0.235895
vt 0.692394 0.237385
vt 0.693017 0.237743
vn -1 -2.35346E-07 0
vn -1 -2.35346E-07 0
vn -1 -2.35346E-07 0
vn -1 -2.35346E-07 0
vn -1 -2.35346E-07 0
vn 0 0 -1
vn 0 0 -1
vn 0 0 -1
vn 0 0 -1
vn 1 2.35346E-07 0
vn 1 2.35346E-07 0
vn 1 2.35346E-07 0
vn 1 2.35346E-07 0
vn 0 0 1
vn 0 0 1
vn 0 0 1
vn 0 0 1
vn -1 -2.35346E-07 0
vn -1 -2.35346E-07 0
vn -1 -2.35346E-07 0
vn -1 -2.35346E-07 0
vn 0 0 1
vn 0 0 1
vn 0 0 1
vn 0 0 1
vn -1 -2.35346E-07 0
vn -1 -2.35346E-07 0
vn -1 -2.35346E-07 0
vn -1 -2.35346E-07 0
vn 0 0 -1
vn 0 0 -1
vn 0 0 -1
vn 0 0 -1
vn 1 2.35346E-07 0
vn 1 2.35346E-07 0
vn 1 2.35346E-07 0
vn 1 2.35346E-07 0
vn 1 2.35346E-07 0
vn 1 2.35346E-07 0
vn 1 2.35346E-07 0
vn 1 2.35346E-07 0
vn 0.93783 2.20715E-07 -0.347095
vn 0.93783 2.20715E-07 -0.347095
vn 0.784002 1.84512E-07 -0.620758
vn 0.784002 1.84512E-07 -0.620758
vn 0.447214 1.0525E-07 -0.894427
vn 0.447214 1.0525E-07 -0.894427
vn 0 0 -1
vn 0 0 -1
vn -0.447214 -1.0525E-07 -0.894427
vn -0.447214 -1.0525E-07 -0.894427
vn -0.784002 -1.84512E-07 -0.620758
vn -0.784002 -1.84512E-07 -0.620758
vn -0.93783 -2.20715E-07 -0.347095
vn -0.93783 -2.20715E-07 -0.347095
vn -1 -2.35346E-07 0
vn -1 -2.35346E-07 0
vn -1 -2.35346E-07 0
vn 0.784002 1.84512E-07 -0.620758
vn 0.447214 1.0525E-07 -0.894427
vn 0 0 -1
vn -0.447214 -1.0525E-07 -0.894427
vn -0.784002 -1.84512E-07 -0.620758
vn -0.93783 -2.20715E-07 -0.347095
vn -2.35346E-07 1 0
vn -2.35346E-07 1 0
vn -2.35346E-07 1 0
vn -2.35346E-07 1 0
vn -2.35346E-07 1 0
vn -2.35346E-07 1 0
vn -2.35346E-07 1 0
vn -2.35346E-07 1 0
vn -2.35346E-07 1 0
vn -2.35346E-07 1 0
vn -2.35346E-07 1 0
vn -2.35346E-07 1 0
vn -2.35346E-07 1 0
vn -2.35346E-07 1 0
vn -2.35346E-07 1 0
vn -2.35346E-07 1 0
vn -2.35346E-07 1 0
vn 2.35346E-07 -1 0
vn 2.35346E-07 -1 0
vn 2.35346E-07 -1 0
vn 2.35346E-07 -1 0
vn 2.35346E-07 -1 0
vn 2.35346E-07 -1 0
vn 2.35346E-07 -1 0
vn 2.35346E-07 -1 0
vn 2.35346E-07 -1 0
vn 2.35346E-07 -1 0
vn 2.35346E-07 -1 0
vn 2.35346E-07 -1 0
vn 2.35346E-07 -1 0
vn 2.35346E-07 -1 0
vn 2.35346E-07 -1 0
vn 2.35346E-07 -1 0
vn 2.35346E-07 -1 0
f 821/821/821 823/823/823 819/819/819
f 820/820/820 823/823/823 822/822/822
f 821/821/821 822/822/822 823/823/823
f 825/825/825 824/824/824 826/826/826 827/827/827
f 829/829/829 828/828/828 830/830/830 831/831/831
f 833/833/833 832/832/832 834/834/834 835/835/835
f 837/837/837 836/836/836 838/838/838 839/839/839
f 841/841/841 840/840/840 842/842/842 843/843/843
f 845/845/845 844/844/844 846/846/846 847/847/847
f 849/849/849 848/848/848 850/850/850 851/851/851
f 853/853/853 852/852/852 854/854/854 856/856/856
f 853/853/853 856/856/856 855/855/855
f 858/858/858 857/857/857 860/860/860
f 877/877/877 858/858/858 860/860/860 862/862/862
f 864/864/864 878/878/878 877/877/877 862/862/862
f 866/866/866 879/879/879 878/878/878 864/864/864
f 859/859/859 858/858/858 861/861/861
f 858/858/858 877/877/877 863/863/863 861/861/861
f 865/865/865 878/878/878 879/879/879 867/867/867
f 878/878/878 865/865/865 863/863/863 877/877/877
f 879/879/879 866/866/866 868/868/868 880/880/880
f 880/880/880 868/868/868 870/870/870 881/881/881
f 867/867/867 879/879/879 880/880/880 869/869/869
f 872/872/872 882/882/882 881/881/881 870/870/870
f 874/874/874 875/875/875 882/882/882 872/872/872
f 881/881/881 871/871/871 869/869/869 880/880/880
f 875/875/875 876/876/876 873/873/873 882/882/882
f 882/882/882 873/873/873 871/871/871 881/881/881
f 892/892/892 891/891/891 883/883/883
f 890/890/890 892/892/892 883/883/883
f 893/893/893 892/892/892 889/889/889
f 889/889/889 892/892/892 890/890/890
f 894/894/894 889/889/889 895/895/895
f 888/888/888 899/899/899 889/889/889
f 889/889/889 894/894/894 893/893/893
f 884/884/884 885/885/885 899/899/899
f 886/886/886 885/885/885 887/887/887
f 887/887/887 885/885/885 884/884/884
f 896/896/896 889/889/889 897/897/897
f 898/898/898 889/889/889 899/899/899
f 884/884/884 899/899/899 888/888/888
f 898/898/898 897/897/897 889/889/889
f 895/895/895 889/889/889 896/896/896
f 909/909/909 900/900/900 908/908/908
f 907/907/907 900/900/900 909/909/909
f 910/910/910 906/906/906 909/909/909
f 906/906/906 907/907/907 909/909/909
f 911/911/911 912/912/912 906/906/906
f 905/905/905 906/906/906 916/916/916
f 906/906/906 910/910/910 911/911/911
f 901/901/901 916/916/916 902/902/902
f 903/903/903 904/904/904 902/902/902
f 904/904/904 901/901/901 902/902/902
f 913/913/913 914/914/914 906/906/906
f 915/915/915 916/916/916 906/906/906
f 901/901/901 905/905/905 916/916/916
f 915/915/915 906/906/906 914/914/914
f 912/912/912 913/913/913 906/906/906
