# Created by Open3D 
# object name: InfoWheels Bench PS 38in Rear
# number of vertices: 744
# number of triangles: 1498
v -2.00877 85.485 -18.3713
vn 0.973606 0.0401487 0.224678
v -2.00877 85.485 -24.8713
vn 0.993357 0.0102408 -0.114618
v -2.00877 49.11 -18.3713
vn 0.998287 -0.0102916 0.0575935
v -2.00877 49.11 -24.8713
vn 0.992576 -0.040931 -0.114528
v -2.75877 49.11 -18.3713
vn -0.973606 -0.0401487 0.224678
v -2.75877 49.11 -24.8713
vn -0.993357 -0.0102408 -0.114618
v -2.75877 85.485 -18.3713
vn -0.998287 0.0102916 0.0575935
v -2.75877 85.485 -24.8713
vn -0.992576 0.040931 -0.114528
v -2.00877 49.11 -23.6213
vn -0.0802107 -0.0406566 0.995948
v -2.00877 85.485 -23.6213
vn -0.020126 0.0204026 0.999589
v 16.6162 49.11 -23.6213
vn 0.0201291 -0.0103066 0.999744
v 16.6162 85.485 -23.6213
vn 0.0802602 0.0205477 0.996562
v 16.6162 49.11 -24.3713
vn 1 0 0
v 16.6162 85.485 -24.3713
vn 1 0 0
v 16.2412 49.11 -24.3713
vn 8.02065e-18 -0.0416247 -0.999133
v 16.2412 85.485 -24.3713
vn 0 0.0208259 -0.999783
v -2.00877 49.11 -24.3713
vn -0.0205426 -0.0103066 -0.999736
v -2.00877 85.485 -24.3713
vn -0.0818984 0.0205449 -0.996429
v 6.86623 49.11 -36.3713
vn -0.274669 -0.0198213 -0.961335
v 6.86623 49.11 -35.6213
vn -0.141304 -0.0407887 0.989126
v 12.1162 49.11 -36.3713
vn 0.0712324 -0.0205618 -0.997248
v 12.1162 49.11 -35.6213
vn 0.141415 -0.0102051 0.989898
v 12.1162 85.485 -36.3713
vn 0.274669 0.0198213 -0.961335
v 12.1162 85.485 -35.6213
vn 0.141304 0.0407887 0.989126
v 6.86623 85.485 -36.3713
vn -0.0712324 0.0205618 -0.997248
v 6.86623 85.485 -35.6213
vn -0.141415 0.0102051 0.989898
v 18.429 85.485 -20.4234
vn 0.933181 -0.00539006 -0.359367
v 18.429 67.2975 -20.4234
vn 0.93459 3.30216e-05 -0.355727
v 18.429 49.11 -20.4234
vn 0.931378 0.00658043 -0.363994
v 18.5202 49.11 -20.0764
vn 0.991083 0.00120965 -0.13324
v 18.5252 85.485 -19.7067
vn 0.998093 0.0194804 -0.0585678
v 18.5252 49.11 -19.7067
vn 0.988641 -5.50308e-18 0.150299
v 18.4396 85.485 -19.347
vn 0.951245 -5.55636e-18 0.308436
v 18.4396 49.11 -19.347
vn 0.923405 0 0.383828
v 18.2748 85.485 -19.0282
vn 0.848685 0 0.528899
v 18.2748 49.11 -19.0282
vn 0.804256 0 0.594283
v 18.0391 85.485 -18.7576
vn 0.696776 -1.40305e-18 0.717289
v 18.0391 49.11 -18.7576
vn 0.636807 1.38915e-18 0.771023
v 17.7361 85.485 -18.5457
vn 0.503452 0 0.864023
v 17.7361 49.11 -18.5457
vn 0.431383 0 0.902169
v 17.3905 85.485 -18.4143
vn 0.279708 3.47271e-19 0.960085
v 17.3905 49.11 -18.4143
vn 0.201789 -3.50734e-19 0.979429
v 17.0342 85.485 -18.3713
vn 0.00420577 -8.57008e-05 0.999991
v 17.0342 67.2975 -18.3713
vn 0.00161774 0 0.999999
v 17.0342 49.11 -18.3713
vn 0.00216178 6.88705e-18 0.999998
v 18.5252 67.2975 -19.7067
vn 0.999788 0.000609974 0.0206049
v 18.4396 67.2975 -19.347
vn 0.938152 0 0.346224
v 18.2748 67.2975 -19.0282
vn 0.827117 0 0.56203
v 18.0391 67.2975 -18.7576
vn 0.667183 0 0.744894
v 17.7361 67.2975 -18.5457
vn 0.467806 0 0.883831
v 17.3905 67.2975 -18.4143
vn 0.241136 0 0.970491
v -2.63377 85.485 -18.3713
vn -0.00150221 -1.3137e-17 0.999999
v -2.63377 49.11 -18.3713
vn -0.00150221 1.3137e-17 0.999999
v 6.86623 85.485 -36.4963
vn -0.012901 0.0133412 -0.999828
v 6.86623 49.11 -36.4963
vn -0.00923891 -0.00955414 -0.999912
v 11.7764 85.485 -36.4963
vn 0.00811388 0.0340991 -0.999386
v 11.7764 49.11 -36.4963
vn 0.00417233 -0.0350686 -0.999376
v 11.7764 76.3913 -36.4963
vn 0.00211759 0 -0.999998
v 11.7764 67.2975 -36.4963
vn 0.00617443 0 -0.999981
v 11.7764 58.2038 -36.4963
vn 0.00617445 0 -0.999981
v 12.2413 85.485 -36.1804
vn 0.538458 0.815488 -0.212232
v 12.2413 49.11 -36.1804
vn 0.541199 -0.813186 -0.214086
v 12.2413 58.2038 -36.1804
vn 0.930457 0 -0.366401
v 12.2413 67.2975 -36.1804
vn 0.930115 0 -0.367269
v 12.2413 76.3913 -36.1804
vn 0.930457 0 -0.366401
v -2.63377 85.485 -24.8713
vn -0.474386 0 -0.880317
v 6.86623 85.485 -24.8713
vn -0.882894 -0.105449 -0.457579
v 11.9202 85.485 -36.4752
vn 0.340858 0.00160436 -0.940113
v 12.0575 85.485 -36.4099
vn 0.603632 0.00633312 -0.797238
v 12.1688 85.485 -36.3063
vn 0.811011 0.0138352 -0.584868
v -2.63377 49.11 -24.8713
vn -0.733029 0 -0.680198
v 6.86623 49.11 -24.8713
vn -0.691901 0.0826449 -0.717246
v 11.9202 49.11 -36.4752
vn 0.245272 -0.0016291 -0.969453
v 12.0575 49.11 -36.4099
vn 0.518812 -0.0063333 -0.854865
v 12.1688 49.11 -36.3063
vn 0.748442 -0.0136225 -0.66306
v 11.9202 58.2038 -36.4752
vn 0.314165 0 -0.949368
v 12.0575 58.2038 -36.4099
vn 0.603644 0 -0.797254
v 12.1688 58.2038 -36.3063
vn 0.799065 0 -0.601245
v 11.9202 67.2975 -36.4752
vn 0.293799 0 -0.955867
v 12.0575 67.2975 -36.4099
vn 0.561973 0 -0.827155
v 12.1688 67.2975 -36.3063
vn 0.780537 0 -0.62511
v 11.9202 76.3913 -36.4752
vn 0.264839 0 -0.964293
v 12.0575 76.3913 -36.4099
vn 0.518822 0 -0.854882
v 12.1688 76.3913 -36.3063
vn 0.766974 0 -0.641678
v 18.429 85.735 -20.4234
vn 0.924066 0.136071 -0.357193
v 18.429 85.61 -20.4234
vn 0.931363 0.000101752 -0.364093
v 18.5202 85.485 -20.0764
vn 0.109818 -0.993899 -0.0102297
v 17.0342 85.735 -18.3713
vn 0.00450637 0.113147 0.993568
v 17.0342 85.61 -18.3713
vn 0.00252746 -0.000396684 0.999997
v 18.5044 85.735 -20.1691
vn 0.967906 0.13486 -0.212063
v 18.5339 85.735 -19.9055
vn 0.993653 0.110969 -0.0184537
v 18.5164 85.735 -19.6408
vn 0.976688 0.110806 0.183853
v 18.4527 85.735 -19.3834
vn 0.92096 0.149401 0.359877
v 18.3445 85.735 -19.1412
vn 0.872614 0.0969403 0.478693
v 18.1954 85.735 -18.9218
vn 0.760931 0.113028 0.638912
v 18.01 85.735 -18.7321
vn 0.615686 0.111176 0.780109
v 17.7941 85.735 -18.578
vn 0.503375 0.112627 0.856696
v 17.5544 85.735 -18.4644
vn 0.34847 0.110832 0.930744
v 17.2985 85.735 -18.3948
vn 0.152899 0.113067 0.981752
v 18.5202 85.61 -20.0764
vn 0.98582 -0.0197372 -0.166641
v 18.4396 85.61 -19.347
vn 0.945929 -0.0217201 0.323647
v 18.5252 85.61 -19.7067
vn 0.996355 -0.0209818 0.0826805
v 18.2748 85.61 -19.0282
vn 0.838497 -0.0220136 0.544461
v 18.0391 85.61 -18.7576
vn 0.68909 -0.0168653 0.72448
v 17.7361 85.61 -18.5457
vn 0.493289 -0.0223095 0.869579
v 17.3905 85.61 -18.4143
vn 0.264349 -0.0223119 0.964169
v -2.63377 85.735 -18.3713
vn -0.679115 0.083054 0.729318
v 12.1172 85.735 -18.3713
vn 0 0.130496 0.991449
v 7.20024 85.735 -18.3713
vn 0 0.0628338 0.998024
v 2.28323 85.735 -18.3713
vn 0 0.0998501 0.995002
v -2.63377 86.235 -24.8713
vn -0.0779649 0.993591 -0.0818402
v -2.63377 86.235 -18.8713
vn -0.0293531 0.999553 0.0056734
v -2.63377 85.9191 -18.4065
vn -0.927502 0.165251 0.335309
v -2.63377 86.0886 -18.5178
vn -0.553974 0.627865 0.546715
v -2.63377 86.1999 -18.6873
vn -0.00520866 0.947429 0.319923
v 6.86623 86.235 -24.8713
vn -0.0387465 0.998232 -0.0450707
v 6.86623 86.235 -35.9963
vn -0.02176 0.999762 -0.0012323
v 6.86623 85.735 -36.4963
vn -0.993542 0.00914488 -0.1131
v 6.86623 86.1999 -36.1804
vn -0.0188072 0.896894 -0.441846
v 6.86623 86.0886 -36.3499
vn -0.976325 0.142047 -0.163132
v 6.86623 85.9191 -36.4612
vn -0.998269 0.0188076 -0.055718
v 12.1162 85.735 -36.4963
vn 0.895336 0.0966304 -0.434783
v 12.1162 85.485 -36.4963
vn 0.0320688 -0.999253 -0.0215566
v 8.19186 85.735 -36.4963
vn 0 0.0995693 -0.995031
v 9.51748 85.735 -36.4963
vn 0 0.0514887 -0.998674
v 10.8431 85.735 -36.4963
vn -0.0011044 0.0984723 -0.995139
v 15.241 85.735 -28.5402
vn 0.929403 0.0544214 -0.365032
v 16.835 85.735 -24.4818
vn 0.922874 0.130076 -0.362468
v 8.19186 86.235 -35.9963
vn 0 0.999907 -0.0136529
v 9.51748 86.235 -35.9963
vn 0 0.999921 -0.0125462
v 11.7764 86.235 -35.9963
vn 0.00243122 0.999938 -0.0108358
v 17.964 86.235 -20.2394
vn 0.00474211 0.999987 -0.00179211
v 18.0254 86.235 -20.0044
vn 0.0390415 0.999232 -0.00344304
v 18.0282 86.235 -19.7616
vn 0.0466547 0.998884 0.00731476
v 17.9724 86.235 -19.5252
vn 0.0543397 0.99826 0.0229069
v 17.8613 86.235 -19.3092
vn 0.0611009 0.997084 0.045709
v 17.7014 86.235 -19.1264
vn 0.064227 0.994833 0.0786319
v 17.5022 86.235 -18.9876
vn 0.0578647 0.990787 0.122445
v 17.2753 86.235 -18.9008
vn 0.0336241 0.985288 0.167565
v 17.0342 86.235 -18.8713
vn 0.000108015 0.999319 0.0368904
v 12.1172 86.235 -18.8713
vn 0 0.999991 0.0043556
v 7.20024 86.235 -18.8713
vn 0 0.999965 0.00838882
v 2.28323 86.235 -18.8713
vn 0 0.99999 0.00436121
v 13.1822 86.235 -32.4165
vn 0.00340458 0.999993 -0.00132332
v 14.7761 86.235 -28.3575
vn 0.00549831 0.999983 -0.00215915
v 16.3701 86.235 -24.2984
vn 0.00356178 0.999993 -0.00139871
v 18.4861 85.9191 -20.0663
vn 0.898399 0.42297 -0.118217
v 18.3758 86.0886 -20.0514
vn 0.655306 0.750228 -0.0879326
v 18.2078 86.1999 -20.0289
vn 0.34651 0.936688 -0.0504724
v 18.4903 85.9191 -19.7105
vn 0.909825 0.399452 0.112498
v 18.3796 86.0886 -19.7227
vn 0.708777 0.702016 0.069348
v 18.2111 86.1999 -19.7413
vn 0.391114 0.919963 0.0264195
v 18.4086 85.9191 -19.3643
vn 0.861808 0.392099 0.321785
v 18.3041 86.0886 -19.4028
vn 0.671122 0.70205 0.238162
v 18.1451 86.1999 -19.4615
vn 0.37319 0.919976 0.119892
v 18.2458 85.9191 -19.0479
vn 0.768535 0.376638 0.517202
v 18.1537 86.0886 -19.1105
vn 0.593952 0.702039 0.39289
v 18.0135 86.1999 -19.2058
vn 0.333317 0.919965 0.206312
v 18.0116 85.9191 -18.7801
vn 0.605327 0.397645 0.689534
v 17.9373 86.0886 -18.8631
vn 0.481735 0.702035 0.524479
v 17.8242 86.1999 -18.9893
vn 0.273771 0.919959 0.28058
v 17.7197 85.9191 -18.5767
vn 0.428107 0.378123 0.820821
v 17.6676 86.0886 -18.6751
vn 0.341065 0.702024 0.625169
v 17.5883 86.1999 -18.8249
vn 0.198035 0.919963 0.338304
v 17.3874 85.9191 -18.4497
vn 0.227285 0.368496 0.901417
v 17.3605 86.0886 -18.5577
vn 0.182332 0.653922 0.734262
v 17.3197 86.1999 -18.7222
vn 0.103555 0.907968 0.406043
v 17.0342 85.9191 -18.4065
vn 0.00867291 0.326949 0.945002
v 17.0342 86.0886 -18.5178
vn 0.00483441 0.662594 0.748963
v 17.0342 86.1999 -18.6873
vn 0.00203509 0.8998 0.436298
v 18.1352 86.1999 -20.3071
vn 0.307037 0.944505 -0.116787
v 18.2928 86.0886 -20.3695
vn 0.620701 0.747425 -0.236825
v 18.3963 85.9191 -20.4105
vn 0.84034 0.435681 -0.322508
v 12.1172 85.9191 -18.4065
vn 0 0.408615 0.912707
v 12.1172 86.0886 -18.5178
vn 0 0.754162 0.656689
v 12.1172 86.1999 -18.6873
vn 0 0.938467 0.345368
v 7.20024 85.9191 -18.4065
vn 0 0.382759 0.923848
v 7.20024 86.0886 -18.5178
vn 0 0.707107 0.707107
v 7.20024 86.1999 -18.6873
vn 0 0.923902 0.382629
v 2.28323 85.9191 -18.4065
vn 0 0.345544 0.938402
v 2.28323 86.0886 -18.5178
vn 0 0.656689 0.754162
v 2.28323 86.1999 -18.6873
vn 0 0.912753 0.408512
v 8.19186 85.9191 -36.4612
vn 0 0.40843 -0.91279
v 8.19186 86.0886 -36.3499
vn 0 0.754162 -0.656689
v 8.19186 86.1999 -36.1804
vn 0 0.938505 -0.345266
v 9.51748 85.9191 -36.4612
vn 0 0.382536 -0.92394
v 9.51748 86.0886 -36.3499
vn 0 0.707107 -0.707107
v 9.51748 86.1999 -36.1804
vn 0 0.92394 -0.382536
v 10.8431 85.9191 -36.4612
vn -0.00298434 0.371984 -0.928234
v 10.8431 86.0886 -36.3499
vn -0.00298027 0.679423 -0.733741
v 10.8431 86.1999 -36.1804
vn -0.00214679 0.930494 -0.366301
v 12.1118 85.8157 -36.4898
vn 0.663756 0.201868 -0.720193
v 12.0976 85.8985 -36.4689
vn 0.756037 0.368914 -0.540657
v 12.0728 85.9796 -36.4325
vn 0.670088 0.570107 -0.475354
v 12.0378 86.0546 -36.3809
vn 0.596175 0.685433 -0.41804
v 11.9936 86.1196 -36.3159
vn 0.485531 0.805201 -0.340456
v 11.9426 86.1712 -36.2409
vn 0.393013 0.878866 -0.270437
v 11.8875 86.2076 -36.1598
vn 0.245698 0.954882 -0.166834
v 11.8312 86.2285 -36.077
vn 0.146487 0.98627 -0.076246
v 13.6144 85.9191 -32.5859
vn 0.845332 0.419242 -0.331135
v 13.5109 86.0886 -32.5453
vn 0.637167 0.729294 -0.249297
v 13.3533 86.1999 -32.4836
vn 0.349229 0.927092 -0.136156
v 15.2084 85.9191 -28.5274
vn 0.876601 0.336214 -0.344284
v 15.1049 86.0886 -28.4867
vn 0.658463 0.70679 -0.258601
v 14.9473 86.1999 -28.4248
vn 0.35641 0.923786 -0.13997
v 16.8023 85.9191 -24.469
vn 0.873527 0.345322 -0.343079
v 16.6988 86.0886 -24.4281
vn 0.70208 0.656548 -0.275734
v 16.5412 86.1999 -24.366
vn 0.380366 0.912693 -0.149377
v 18.429 48.86 -20.4234
vn 0.923607 -0.129889 -0.360663
v 12.1162 48.86 -36.4963
vn 0.543569 -0.0730574 -0.836179
v 12.1162 49.11 -36.4963
vn 0.0320686 0.999253 -0.0215565
v 15.241 48.86 -28.5402
vn 0.92846 -0.070621 -0.364657
v 13.6471 48.86 -32.5987
vn 0.926396 -0.0983195 -0.363487
v 18.429 48.985 -20.4234
vn 0.931798 0.000345369 -0.362978
v 6.86623 48.86 -36.4963
vn -0.986953 -0.0181727 -0.159981
v 9.51748 48.86 -36.4963
vn 0 -0.0456288 -0.998958
v 8.19186 48.86 -36.4963
vn 1.77949e-16 -0.0995973 -0.995028
v 6.86623 48.36 -24.8713
vn -0.0400202 -0.998928 -0.0232741
v 6.86623 48.36 -35.9963
vn -0.109031 -0.994034 -0.00308518
v 6.86623 48.676 -36.4612
vn -0.998173 -0.0267035 -0.0541945
v 6.86623 48.5065 -36.3499
vn -0.976329 -0.163081 -0.142076
v 6.86623 48.3951 -36.1804
vn -0.0193482 -0.947248 -0.319918
v -2.63377 48.36 -24.8713
vn -0.0771999 -0.983756 -0.16206
v -2.63377 48.36 -18.8713
vn -0.0285241 -0.999532 0.0110187
v -2.63377 48.86 -18.3713
vn -0.797472 -0.0487756 0.601381
v -2.63377 48.3951 -18.6873
vn -0.00507383 -0.896871 0.442262
v -2.63377 48.5065 -18.5178
vn -0.554045 -0.546615 0.62789
v -2.63377 48.676 -18.4065
vn -0.930973 -0.116917 0.345861
v 17.0342 48.86 -18.3713
vn 0.00490822 -0.136904 0.990572
v 2.28323 48.86 -18.3713
vn 4.80507e-17 -0.0998783 0.995
v 7.20024 48.86 -18.3713
vn 0 -0.0628451 0.998023
v 12.1172 48.86 -18.3713
vn 0 -0.130544 0.991443
v 17.0342 48.985 -18.3713
vn 0.00144014 0 0.999999
v 17.2985 48.86 -18.3948
vn 0.15908 -0.134902 0.978006
v 17.5544 48.86 -18.4644
vn 0.348469 -0.110867 0.93074
v 17.7941 48.86 -18.578
vn 0.530382 -0.110825 0.840484
v 18.01 48.86 -18.7321
vn 0.673616 -0.149526 0.723798
v 18.1954 48.86 -18.9218
vn 0.766249 -0.0971585 0.635156
v 18.3445 48.86 -19.1412
vn 0.874143 -0.113022 0.472334
v 18.4527 48.86 -19.3834
vn 0.951952 -0.111163 0.285361
v 18.5164 48.86 -19.6408
vn 0.981818 -0.112769 0.152698
v 18.5339 48.86 -19.9055
vn 0.993649 -0.111004 -0.0184537
v 18.5044 48.86 -20.1691
vn 0.969098 -0.113113 -0.219213
v 17.3905 48.985 -18.4143
vn 0.207956 0.0199013 0.977936
v 18.0391 48.985 -18.7576
vn 0.649046 0.0215955 0.760443
v 17.7361 48.985 -18.5457
vn 0.443434 0.0212167 0.896056
v 18.2748 48.985 -19.0282
vn 0.814966 0.0220138 0.579091
v 18.4396 48.985 -19.347
vn 0.927236 0.0171274 0.374085
v 18.5252 48.985 -19.7067
vn 0.990079 0.0222101 0.138745
v 18.5202 48.985 -20.0764
vn 0.993784 0.0221263 -0.109106
v 11.7764 48.36 -35.9963
vn 0.0325427 -0.999382 -0.0132691
v 10.8431 48.36 -35.9963
vn -8.98554e-05 -0.999972 -0.0074384
v 9.51748 48.36 -35.9963
vn 0 -0.999978 -0.00665182
v 8.19186 48.36 -35.9963
vn 1.23537e-15 -0.999999 -0.00128084
v 17.964 48.36 -20.2394
vn 0.0084753 -0.999959 -0.00329691
v 16.3701 48.36 -24.2984
vn 0.00356177 -0.999993 -0.00139869
v 14.7761 48.36 -28.3575
vn 0.00364971 -0.999992 -0.00143325
v 2.28323 48.36 -18.8713
vn 3.70116e-16 -0.99999 0.00436122
v 7.20024 48.36 -18.8713
vn 0 -0.999965 0.00838879
v 12.1172 48.36 -18.8713
vn -9.27751e-17 -0.999991 0.00435561
v 17.0342 48.36 -18.8713
vn 0.000258942 -0.99976 0.0218879
v 17.2753 48.36 -18.9008
vn 0.0486982 -0.985292 0.163795
v 17.5022 48.36 -18.9876
vn 0.0687403 -0.990788 0.116682
v 17.7014 48.36 -19.1264
vn 0.0711151 -0.994832 0.0724764
v 17.8613 48.36 -19.3092
vn 0.064993 -0.997085 0.0399789
v 17.9724 48.36 -19.5252
vn 0.0561904 -0.99826 0.0178732
v 18.0282 48.36 -19.7616
vn 0.047133 -0.998884 0.00305492
v 18.0254 48.36 -20.0044
vn 0.0385616 -0.999232 -0.00697781
v 16.8023 48.676 -24.469
vn 0.859971 -0.382587 -0.337753
v 16.6988 48.5065 -24.4281
vn 0.611576 -0.753848 -0.240183
v 16.5412 48.3951 -24.366
vn 0.321696 -0.938377 -0.126332
v 15.2084 48.676 -28.5274
vn 0.860079 -0.38231 -0.337792
v 15.1049 48.5065 -28.4867
vn 0.658594 -0.706649 -0.258652
v 14.9473 48.3951 -28.4248
vn 0.356523 -0.923736 -0.140012
v 13.6144 48.676 -32.5859
vn 0.864095 -0.372578 -0.338416
v 13.5109 48.5065 -32.5453
vn 0.681483 -0.681505 -0.266707
v 13.3533 48.3951 -32.4836
vn 0.337682 -0.931964 -0.131966
v 18.1352 48.3951 -20.3071
vn 0.406531 -0.9 -0.157262
v 18.2928 48.5065 -20.3695
vn 0.698545 -0.663214 -0.268666
v 18.3963 48.676 -20.4105
vn 0.863744 -0.385273 -0.324825
v 12.1118 48.7794 -36.4898
vn 0.862709 -0.188504 -0.469255
v 12.0976 48.6966 -36.4689
vn 0.756037 -0.368914 -0.540657
v 12.0728 48.6155 -36.4325
vn 0.670088 -0.570107 -0.475354
v 12.0378 48.5405 -36.3809
vn 0.596175 -0.685433 -0.41804
v 11.9936 48.4755 -36.3159
vn 0.485531 -0.805201 -0.340456
v 11.9426 48.4239 -36.2409
vn 0.393168 -0.878763 -0.270546
v 11.8875 48.3875 -36.1598
vn 0.245698 -0.954882 -0.166834
v 11.8312 48.3666 -36.077
vn 0.101326 -0.989667 -0.101452
v 10.8431 48.676 -36.4612
vn -0.00269241 -0.419356 -0.907818
v 10.8431 48.5065 -36.3499
vn -0.00297361 -0.728578 -0.684957
v 10.8431 48.3951 -36.1804
vn -0.0032447 -0.925965 -0.377595
v 9.51748 48.676 -36.4612
vn 0 -0.336592 -0.941651
v 9.51748 48.5065 -36.3499
vn 0 -0.706981 -0.707233
v 9.51748 48.3951 -36.1804
vn 0 -0.923848 -0.382759
v 8.19186 48.676 -36.4612
vn 1.98161e-16 -0.345368 -0.938467
v 8.19186 48.5065 -36.3499
vn 0 -0.656606 -0.754234
v 8.19186 48.3951 -36.1804
vn 0 -0.912679 -0.408677
v 2.28323 48.676 -18.4065
vn 0 -0.408698 0.91267
v 2.28323 48.5065 -18.5178
vn 0 -0.753996 0.656879
v 2.28323 48.3951 -18.6873
vn 2.80038e-16 -0.938399 0.345554
v 7.20024 48.676 -18.4065
vn 0 -0.382852 0.92381
v 7.20024 48.5065 -18.5178
vn 0 -0.706981 0.707233
v 7.20024 48.3951 -18.6873
vn 0 -0.92381 0.382852
v 12.1172 48.676 -18.4065
vn 0 -0.345647 0.938365
v 12.1172 48.5065 -18.5178
vn 0 -0.656606 0.754234
v 12.1172 48.3951 -18.6873
vn 0 -0.912642 0.40876
v 17.0342 48.676 -18.4065
vn 0.00642226 -0.436482 0.89969
v 17.0342 48.5065 -18.5178
vn 0.00591086 -0.748034 0.663634
v 17.0342 48.3951 -18.6873
vn 0.0032259 -0.944754 0.327765
v 17.3874 48.676 -18.4497
vn 0.220683 -0.423053 0.87882
v 17.3605 48.5065 -18.5577
vn 0.159408 -0.750039 0.641896
v 17.3197 48.3951 -18.7222
vn 0.0806267 -0.936597 0.341006
v 17.7197 48.676 -18.5767
vn 0.439391 -0.399593 0.804526
v 17.6676 48.5065 -18.6751
vn 0.325407 -0.701856 0.633647
v 17.5883 48.3951 -18.8249
vn 0.168571 -0.919871 0.354147
v 18.0116 48.676 -18.7801
vn 0.616404 -0.392164 0.682828
v 17.9373 48.5065 -18.8631
vn 0.468548 -0.701922 0.536441
v 17.8242 48.3951 -18.9893
vn 0.249025 -0.919858 0.303065
v 18.2458 48.676 -19.0479
vn 0.763787 -0.376684 0.524154
v 18.1537 48.5065 -19.1105
vn 0.584021 -0.701946 0.407665
v 18.0135 48.3951 -19.2058
vn 0.314723 -0.919861 0.234107
v 18.4086 48.676 -19.3643
vn 0.863858 -0.397795 0.309045
v 18.3041 48.5065 -19.4028
vn 0.665098 -0.701909 0.25489
v 18.1451 48.3951 -19.4615
vn 0.361844 -0.919872 0.151343
v 18.4903 48.676 -19.7105
vn 0.920721 -0.378232 0.0959838
v 18.3796 48.5065 -19.7227
vn 0.706876 -0.701956 0.087083
v 18.2111 48.3951 -19.7413
vn 0.387654 -0.919872 0.0596615
v 18.4861 48.676 -20.0663
vn 0.921778 -0.36855 -0.120402
v 18.3758 48.5065 -20.0514
vn 0.749868 -0.653885 -0.100657
v 18.2078 48.3951 -20.0289
vn 0.415921 -0.907846 -0.0531452
v -1.57581 48.7975 1.37865
vn 0.0252951 -0.00074244 0.99968
v -1.41518 48.7975 1.35213
vn 0.315201 0.000690536 0.949025
v -1.2596 48.7975 1.27363
vn 0.633451 0.000237032 0.773783
v -0.963218 48.7975 0.967115
vn 0.836054 0.000526755 0.548647
v -0.685846 48.7975 0.47189
vn 0.917642 0.000154387 0.397409
v -0.426676 48.7975 -0.199242
vn 0.953108 -6.79233e-05 0.30263
v -0.184898 48.7975 -1.03349
vn 0.964848 -0.00212842 0.262799
v -0.0702766 48.7975 -1.50778
vn 0.97482 -0.00222452 0.222983
v 0.0403006 48.7975 -2.01805
vn 0.979451 -0.00185333 0.201674
v 0.146935 48.7975 -2.56269
vn 0.983025 -0.00382863 0.183433
v 0.249729 48.7975 -3.14012
vn 0.985791 0.000162482 0.167974
v 0.348782 48.7975 -3.74873
vn 0.988052 -0.00178951 0.15411
v 0.444197 48.7975 -4.38692
vn 0.989845 -0.00250842 0.142131
v 0.536074 48.7975 -5.05309
vn 0.991259 -0.00827759 0.13167
v 0.624516 48.7975 -5.74564
vn 0.992492 -9.61382e-05 0.122309
v 0.709622 48.7975 -6.46297
vn 0.993503 -0.00173798 0.113794
v 0.791496 48.7975 -7.20349
vn 0.994333 -0.00211278 0.106285
v 0.870237 48.7975 -7.96558
vn 0.995032 -0.00244981 0.0995251
v 0.945947 48.7975 -8.74766
vn 0.995589 -0.00704217 0.0935523
v 1.01873 48.7975 -9.54813
vn 0.99613 -0.000809291 0.0878884
v 1.08868 48.7975 -10.3654
vn 0.996513 0.00123966 0.0834328
v 1.15591 48.7975 -11.1978
vn 0.996929 -0.00135715 0.0783038
v 1.22051 48.7975 -12.0438
vn 0.997221 -0.00682599 0.0741805
v 1.28258 48.7975 -12.9018
vn 0.997522 -0.00183275 0.0703361
v 1.34224 48.7975 -13.7702
vn 0.99776 -0.00187692 0.0668698
v 1.39957 48.7975 -14.6474
vn 0.997958 -0.00481916 0.0636909
v 1.45468 48.7975 -15.5317
vn 0.998161 -0.000510233 0.0606116
v 1.50767 48.7975 -16.4217
vn 0.998296 -0.00452132 0.0581711
v 1.55864 48.7975 -17.3156
vn 0.999665 -0.00552519 0.0252988
v -1.57581 85.7975 1.37865
vn 0.0581908 0.00112836 0.998305
v 1.55864 54.9642 -17.3156
vn 0.999869 0.000402108 -0.0161732
v 1.55864 61.1309 -17.3156
vn 0.998763 0.000198318 0.0497333
v 1.55864 67.2975 -17.3156
vn 0.999658 0 0.026167
v 1.55864 73.4642 -17.3156
vn 0.999102 -0.00019099 0.042361
v 1.55864 79.6309 -17.3156
vn 0.999869 -0.000402111 -0.0161732
v 1.55864 85.7975 -17.3156
vn 0.999665 0.00552519 0.0252988
v 1.50767 85.7975 -16.4217
vn 0.998296 0.0045213 0.0581711
v 1.45468 85.7975 -15.5317
vn 0.998161 0.000510234 0.0606116
v 1.39957 85.7975 -14.6474
vn 0.997958 0.0048191 0.0636909
v 1.34224 85.7975 -13.7702
vn 0.99776 0.00187691 0.0668698
v 1.28258 85.7975 -12.9018
vn 0.997522 0.00183274 0.0703361
v 1.22051 85.7975 -12.0438
vn 0.997221 0.00682587 0.0741805
v 1.15591 85.7975 -11.1978
vn 0.996929 0.00135714 0.0783038
v 1.08868 85.7975 -10.3654
vn 0.996513 -0.00123966 0.0834328
v 1.01873 85.7975 -9.54813
vn 0.99613 0.000809286 0.0878884
v 0.945947 85.7975 -8.74766
vn 0.995589 0.00704205 0.0935524
v 0.870237 85.7975 -7.96558
vn 0.995032 0.0024498 0.0995251
v 0.791496 85.7975 -7.20349
vn 0.994333 0.00211277 0.106285
v 0.709622 85.7975 -6.46297
vn 0.993503 0.00173797 0.113794
v 0.624516 85.7975 -5.74564
vn 0.992492 9.6138e-05 0.122309
v 0.536074 85.7975 -5.05309
vn 0.991259 0.00827745 0.13167
v 0.444197 85.7975 -4.38692
vn 0.989845 0.00250841 0.142131
v 0.348782 85.7975 -3.74873
vn 0.988052 0.0017895 0.15411
v 0.249729 85.7975 -3.14012
vn 0.985791 -0.000162482 0.167974
v 0.146935 85.7975 -2.56269
vn 0.983025 0.00382858 0.183433
v 0.0403006 85.7975 -2.01805
vn 0.979451 0.00185332 0.201674
v -0.0702766 85.7975 -1.50778
vn 0.97482 0.00222451 0.222983
v -0.184898 85.7975 -1.03349
vn 0.963185 0.00130371 0.268838
v -0.426676 85.7975 -0.199242
vn 0.94409 7.23082e-05 0.329689
v -0.685846 85.7975 0.47189
vn 0.898086 -0.000167051 0.43982
v -0.963218 85.7975 0.967115
vn 0.786618 -0.000579865 0.617439
v -1.2596 85.7975 1.27363
vn 0.629998 -0.000464491 0.776597
v -1.41518 85.7975 1.35213
vn 0.315201 -0.000690536 0.949025
v 1.34224 67.2975 -13.7702
vn 0.997305 -4.7132e-20 0.0733728
v 0.791496 67.2975 -7.20349
vn 0.995302 -2.66594e-20 0.0968223
v 0.444197 67.2975 -4.38692
vn 0.989717 4.05002e-19 0.143038
v 0.0403006 67.2975 -2.01805
vn 0.982359 5.17314e-19 0.187004
v -0.184898 67.2975 -1.03349
vn 0.968011 -1.33966e-19 0.250908
v -1.2596 67.2975 1.27363
vn 0.667685 0 0.744443
v -1.41518 78.6725 1.35213
vn 0.369318 0 0.929303
v -0.426676 67.2975 -0.199242
vn 0.948843 0 0.315748
v -0.685846 67.2975 0.47189
vn 0.908485 0 0.417917
v -0.963218 67.2975 0.967115
vn 0.813214 0 0.581965
v -1.41518 55.9225 1.35213
vn 0.258523 0 0.966005
v -2.10479 85.7975 1.37865
vn 0 0.000630521 1
v -2.36928 85.7975 1.37865
vn -4.18717e-16 0.00141283 0.999999
v -2.63377 85.7975 1.37865
vn -0.687792 0.000685417 0.725908
v -2.63377 48.7975 1.37865
vn -0.967207 -0.000477284 0.25399
v -2.36928 48.7975 1.37865
vn -4.12902e-16 -0.000709044 1
v -2.10479 48.7975 1.37865
vn 0 -0.00125689 0.999999
v -2.63377 86.2975 0.878651
vn -0.999994 0.00342399 6.34742e-06
v -2.63377 86.2975 -17.8713
vn -0.999437 0.0335565 -7.46893e-05
v -2.63377 85.7975 -18.3713
vn -0.300059 0.000451345 -0.95392
v -2.63377 48.7975 -18.3713
vn -0.785075 -0.000584686 -0.619401
v -2.63377 48.2975 -17.8713
vn -0.999848 -0.0174369 -3.88108e-05
v -2.63377 48.2975 0.878651
vn -0.999977 -0.00684517 1.26896e-05
v -2.63377 85.9816 1.34354
vn -0.071309 0.284757 0.955944
v -2.63377 86.0711 1.29715
vn -0.13437 0.544042 0.828229
v -2.63377 86.1511 1.2322
vn -0.484445 0.618571 0.618614
v -2.63377 86.216 1.15226
vn -0.376816 0.774284 0.508423
v -2.63377 86.2624 1.0627
vn -0.63044 0.752209 0.191644
v -2.63377 48.3326 1.0627
vn -0.63044 -0.752209 0.191644
v -2.63377 48.379 1.15226
vn -0.376494 -0.774183 0.508814
v -2.63377 48.444 1.2322
vn -0.484266 -0.618641 0.618684
v -2.63377 48.5239 1.29715
vn -0.261558 -0.529908 0.806713
v -2.63377 48.6135 1.34354
vn -0.0256301 -0.398922 0.916627
v -2.63377 86.2624 -18.0554
vn -0.245933 0.869501 -0.428351
v -2.63377 86.1511 -18.2249
vn -0.121135 0.651853 -0.748608
v -2.63377 85.9816 -18.3362
vn -0.0320721 0.319656 -0.946991
v -2.63377 48.6135 -18.3362
vn -0.0320582 -0.319763 -0.946955
v -2.63377 48.444 -18.2249
vn -0.121032 -0.651779 -0.748689
v -2.63377 48.3326 -18.0554
vn -0.245836 -0.869391 -0.428629
v 0.560199 48.7975 -18.3713
vn 0.0911295 -0.0020218 -0.995837
v -0.238294 48.7975 -18.3713
vn 0 -0.0028041 -0.999996
v -1.03679 48.7975 -18.3713
vn 0 -0.000630342 -1
v -1.83528 48.7975 -18.3713
vn 2.80444e-18 -0.000943954 -1
v 0.560199 85.7975 -18.3713
vn 0.0789191 0.00428783 -0.996872
v 0.560199 76.7975 -18.3713
vn 0.0680982 0 -0.997679
v 0.560199 67.2975 -18.3713
vn 0.0242829 0 -0.999705
v -1.83528 85.7975 -18.3713
vn 0 0.000943951 -1
v -1.03679 85.7975 -18.3713
vn 0 0.000809673 -1
v -0.238294 85.7975 -18.3713
vn 0 0.00280408 -0.999996
v 0.955729 76.7975 -18.2898
vn 0.373118 -0.000455931 -0.927784
v 0.955729 67.2975 -18.2898
vn 0.369466 0 -0.929244
v 0.955729 57.7975 -18.2898
vn 0.432138 0.000674382 -0.901807
v 1.28675 76.7975 -18.0585
vn 0.741076 -0.000354564 -0.671421
v 1.28675 67.2975 -18.0585
vn 0.726522 0 -0.687144
v 1.28675 57.7975 -18.0585
vn 0.711633 0.00035481 -0.702551
v 1.49928 76.7975 -17.7151
vn 0.93626 -0.000572418 -0.351308
v 1.49928 67.2975 -17.7151
vn 0.934605 0 -0.355688
v 1.49928 57.7975 -17.7151
vn 0.941835 0.000485317 -0.336075
v 0.827987 85.7975 -18.3348
vn 0.266808 0.00641286 -0.963728
v 1.07621 85.7975 -18.2279
vn 0.540657 0.00371639 -0.841235
v 1.28675 85.7975 -18.0585
vn 0.783683 0.00372659 -0.62115
v 1.44422 85.7975 -17.8388
vn 0.884026 0.00378939 -0.467423
v 1.53711 85.7975 -17.585
vn 0.981599 0.00428342 -0.190905
v 1.53711 48.7975 -17.585
vn 0.981599 -0.00428345 -0.190905
v 1.44422 48.7975 -17.8388
vn 0.870031 -0.0037184 -0.492983
v 1.28675 48.7975 -18.0585
vn 0.664544 -0.00134605 -0.747248
v 1.07621 48.7975 -18.2279
vn 0.516752 -0.00641969 -0.856111
v 0.827987 48.7975 -18.3348
vn 0.266809 -0.00641298 -0.963728
v -1.8403 86.2975 0.878651
vn 1.1556e-16 0.999999 0.0010161
v -2.10479 86.2975 0.878651
vn 0 0.999999 0.00111243
v -2.36928 86.2975 0.878651
vn 0 0.999996 0.00276725
v -1.83528 86.2975 -17.8713
vn 0 0.999999 -0.00131103
v -1.03679 86.2975 -17.8713
vn 0 0.999997 -0.00255181
v 1.05942 86.2975 -17.3435
vn 0.113435 0.993528 0.00594145
v 0.827541 86.2975 -13.5671
vn 0.0246145 0.999696 0.00172279
v 0.538255 86.2975 -9.79472
vn 0.0202813 0.999793 0.0018645
v 0.191921 86.2975 -6.34012
vn 0.0179666 0.999836 0.00223302
v -0.218348 86.2975 -3.37239
vn 0.00718867 0.999974 0.00113372
v -0.431242 86.2975 -2.20527
vn 0.0107137 0.99994 0.00229886
v -0.697863 86.2975 -1.04961
vn 0.00335287 0.999994 0.000900223
v -0.923761 86.2975 -0.288797
vn 0.0585542 0.998091 0.0196175
v -1.0626 86.2975 0.0829208
vn 0.0706916 0.997032 0.0305072
v -1.22858 86.2975 0.443222
vn 0.0779304 0.995879 0.0463857
v -1.35571 86.2975 0.655762
vn 0.0229842 0.999596 0.0167493
v -1.43021 86.2975 0.75466
vn 0.0420951 0.99837 0.0385302
v -1.51726 86.2975 0.842563
vn 0.0196419 0.999575 0.0215596
v -1.5421 86.2975 0.861036
vn 0.00634333 0.99994 0.00897295
v -1.56902 86.2975 0.876186
vn -1.2102e-12 1 -2.20661e-12
v -1.5723 86.2975 0.877599
vn -2.36047e-12 1 -2.07529e-12
v -1.57661 86.2975 0.877968
vn 0 1 5.67935e-14
v 0.560199 86.2975 -17.8713
vn 0.000410966 0.999926 -0.0121962
v 0.757964 86.2975 -17.8306
vn 0.00664933 0.9999 -0.0124639
v 0.923475 86.2975 -17.7149
vn 0.0127662 0.999867 -0.0101963
v 1.02974 86.2975 -17.5432
vn 0.16084 0.985997 -0.0440469
v -1.83528 48.2975 -17.8713
vn 2.09773e-15 -0.999999 -0.00131103
v -1.03679 48.2975 -17.8713
vn 0 -0.999997 -0.00239663
v -0.238294 48.2975 -17.8713
vn -2.04521e-15 -0.999985 -0.00539222
v -1.8403 48.2975 0.878651
vn 5.77798e-17 -0.999999 0.0010161
v -2.10479 48.2975 0.878651
vn 5.32138e-15 -0.999999 0.00111243
v -2.36928 48.2975 0.878651
vn 1.33673e-14 -0.999996 0.00276725
v 1.05942 48.2975 -17.3435
vn 0.113435 -0.993528 0.00594145
v 0.827541 48.2975 -13.5671
vn 0.0364216 -0.999333 0.00254918
v 0.538255 48.2975 -9.79472
vn 0.0171037 -0.999852 0.00157237
v 0.191921 48.2975 -6.34012
vn 0.0179666 -0.999836 0.00223302
v -0.218348 48.2975 -3.37239
vn 0.00718867 -0.999974 0.00113372
v -0.431242 48.2975 -2.20527
vn 0.0107137 -0.99994 0.00229886
v -0.697863 48.2975 -1.04961
vn 0.00335287 -0.999994 0.000900223
v -0.923761 48.2975 -0.288797
vn 0.0585542 -0.998091 0.0196175
v -1.0626 48.2975 0.0829208
vn 0.0706916 -0.997032 0.0305072
v -1.22858 48.2975 0.443222
vn 0.0779609 -0.995873 0.0464564
v -1.35571 48.2975 0.655762
vn 0.0231603 -0.999589 0.0169001
v -1.43021 48.2975 0.75466
vn 0.0443776 -0.998191 0.0405642
v -1.51726 48.2975 0.842563
vn 0.0184427 -0.999618 0.0205977
v -1.5421 48.2975 0.861036
vn 0.010692 -0.999799 0.0169347
v -1.56902 48.2975 0.876186
vn 0.00851469 -0.999843 0.0155252
v -1.5723 48.2975 0.877599
vn 0.00377342 -0.999864 0.0160668
v -1.57661 48.2975 0.877968
vn 1.58959e-06 -1 5.30366e-06
v 0.560199 48.2975 -17.8713
vn 0.000750926 -0.999951 -0.0098579
v 0.757964 48.2975 -17.8306
vn 0.00664933 -0.9999 -0.0124639
v 0.923475 48.2975 -17.7149
vn 0.0127662 -0.999867 -0.0101963
v 1.02974 48.2975 -17.5432
vn 0.16084 -0.985997 -0.0440469
v 1.29137 85.9816 -13.5356
vn 0.912814 0.403077 0.0655781
v 1.18028 86.1511 -13.5431
vn 0.679603 0.73204 0.0475096
v 1.01117 86.2624 -13.5546
vn 0.381616 0.923922 0.0271382
v 1.00139 85.9816 -9.75448
vn 0.912851 0.400105 0.0813564
v 0.890472 86.1511 -9.76412
vn 0.706483 0.705047 0.0615646
v 0.721607 86.2624 -9.77879
vn 0.381294 0.923898 0.0320629
v 0.653745 85.9816 -6.28619
vn 0.909601 0.401017 0.108679
v 0.543139 86.1511 -6.2991
vn 0.705859 0.70356 0.082255
v 0.374753 86.2624 -6.31877
vn 0.380283 0.923895 0.0424689
v 0.240226 85.9816 -3.29615
vn 0.910097 0.389676 0.140985
v 0.130399 86.1511 -3.31441
vn 0.719916 0.685659 0.107665
v -0.0368026 86.2624 -3.34221
vn 0.378844 0.923817 0.0551325
v 0.0245672 85.9816 -2.11334
vn 0.898695 0.395717 0.189092
v -0.0845977 86.1511 -2.13536
vn 0.692745 0.707087 0.141891
v -0.250791 86.2624 -2.16888
vn 0.375527 0.923811 0.0745137
v -0.248418 85.9816 -0.930838
vn 0.892144 0.385712 0.23517
v -0.356059 86.1511 -0.959283
vn 0.69459 0.697249 0.177169
v -0.519932 86.2624 -1.00259
vn 0.371993 0.923668 0.0919713
v -0.483733 85.9816 -0.138871
vn 0.852002 0.438717 0.285693
v -0.589118 86.1511 -0.174778
vn 0.689006 0.69039 0.22053
v -0.749558 86.2624 -0.229443
vn 0.366354 0.923422 0.114349
v -0.632276 85.9816 0.258853
vn 0.827811 0.430661 0.359527
v -0.735338 86.1511 0.216718
vn 0.653847 0.706557 0.270668
v -0.892241 86.2624 0.152571
vn 0.356401 0.923268 0.14337
v -0.817768 85.9816 0.660849
vn 0.801513 0.411181 0.434173
v -0.916156 86.1511 0.608728
vn 0.640565 0.695167 0.32622
v -1.06594 86.2624 0.529378
vn 0.303994 0.939801 0.156085
v -0.972451 85.9816 0.918818
vn 0.759 0.398231 0.515104
v -1.06424 86.1511 0.855817
vn 0.60855 0.689384 0.392959
v -1.20398 86.2624 0.759903
vn 0.362368 0.903517 0.228795
v -1.07448 85.9816 1.05395
vn 0.67432 0.390757 0.626579
v -1.15968 86.1511 0.982273
vn 0.53532 0.705383 0.464616
v -1.28938 86.2624 0.873147
vn 0.348418 0.890776 0.291759
v -1.22412 85.9816 1.2033
vn 0.612242 0.383243 0.691581
v -1.29433 86.1511 1.1169
vn 0.50564 0.67458 0.537838
v -1.40121 86.2624 0.985375
vn 0.336458 0.874474 0.349415
v -1.28394 85.9816 1.24762
vn 0.4677 0.376701 0.799595
v -1.34577 86.1511 1.15503
vn 0.378968 0.704338 0.600242
v -1.4399 86.2624 1.01408
vn 0.267878 0.873774 0.405906
v -1.39009 85.9816 1.30512
vn 0.356928 0.375583 0.855301
v -1.43294 86.1511 1.20239
vn 0.320009 0.671298 0.668546
v -1.49818 86.2624 1.046
vn 0.23652 0.864477 0.443552
v -1.471 85.9816 1.33214
vn 0.183884 0.34892 0.918935
v -1.49623 86.1511 1.22332
vn 0.183618 0.677019 0.712692
v -1.53465 86.2624 1.05766
vn 0.148356 0.843294 0.51657
v -1.57581 86.2624 1.0627
vn -0.0195319 0.956664 0.290539
v -1.57581 86.2975 0.878651
vn -0.00355977 0.982288 0.187345
v -1.55574 86.2892 0.966696
vn 0.0639397 0.967481 0.244729
v -1.54549 86.2624 1.05969
vn 0.0450821 0.931041 0.362119
v -1.56142 86.2892 0.967681
vn 0.0339007 0.973907 0.224403
v -1.56931 86.2955 0.922151
vn 0.0205067 0.99297 0.116574
v -1.56702 86.2892 0.968478
vn -0.102638 0.962464 0.251253
v -1.57194 86.2955 0.922683
vn 0.0241138 0.993539 0.110896
v -1.57438 86.297 0.900197
vn 0.0176341 0.998023 0.0603272
v -1.5737 86.2955 0.923078
vn -0.609682 0.775453 0.164195
v -1.57318 86.297 0.899772
vn 0.0531848 0.996924 0.0575745
v -1.57049 86.2955 0.92238
vn 0.0204552 0.992015 0.124448
v -1.56618 86.2955 0.921685
vn 0.0967858 0.991218 0.0901123
v -1.558 86.2892 0.967125
vn 0.0448409 0.967914 0.247248
v -1.56751 86.2955 0.92186
vn 0.0194133 0.992776 0.118401
v -1.534 86.2892 0.96013
vn 0.150719 0.981949 0.114279
v -1.50929 86.2624 1.05054
vn 0.154081 0.865798 0.476081
v -1.54115 86.2892 0.96309
vn 0.0766388 0.970171 0.229989
v -1.57561 86.2974 0.889215
vn -0.520323 0.85327 0.0345626
v -1.57542 86.297 0.900708
vn -0.920592 0.383536 0.0735609
v -1.57591 86.2975 0.884028
vn 0.00542336 0.999931 0.0103787
v -1.57581 85.9816 1.34354
vn 0.0295716 0.285359 0.957965
v -1.57581 86.0711 1.29715
vn 0.0237519 0.548979 0.835499
v -1.57581 86.1511 1.2322
vn 0.0500193 0.730536 0.68104
v -1.57581 86.216 1.15226
vn 0.00485304 0.835814 0.548991
v 1.24318 86.2624 -17.3332
vn 0.423558 0.905782 0.0125182
v 1.41242 86.1511 -17.3238
vn 0.695376 0.718646 1.51954e-06
v 1.52359 85.9816 -17.3176
vn 0.916945 0.398879 0.0104016
v 1.4568 85.9816 -16.1579
vn 0.91516 0.399119 0.0564492
v 1.34565 86.1511 -16.1645
vn 0.705759 0.707163 0.0427047
v -0.454133 85.8593 -0.128786
vn 0.939775 0.185171 0.287287
v -0.943807 85.8166 0.938477
vn 0.825746 0.197267 0.528421
v -0.788044 85.8358 0.676595
vn 0.879168 0.166543 0.44646
v -0.603328 85.8593 0.270688
vn 0.914735 0.16238 0.369989
v 1.17643 86.2624 -16.1745
vn 0.364485 0.930936 0.0225629
v -1.04789 85.8166 1.07632
vn 0.751518 0.155056 0.641231
v -1.202 85.8023 1.23052
vn 0.686662 0.0933247 0.720962
v -1.37658 85.7986 1.33751
vn 0.425795 0.176653 0.887407
v -1.46304 85.7977 1.36645
vn 0.232095 0.172072 0.957352
v -1.26446 85.8023 1.27679
vn 0.530225 0.187736 0.826811
v 1.29137 48.6135 -13.5356
vn 0.904267 -0.422137 0.0640451
v 1.18028 48.444 -13.5431
vn 0.655211 -0.754008 0.0465962
v 1.01117 48.3326 -13.5546
vn 0.381839 -0.92383 0.027154
v 1.00139 48.6135 -9.75448
vn 0.91281 -0.400199 0.0813534
v 0.890472 48.444 -9.76412
vn 0.706606 -0.704923 0.0615765
v 0.721607 48.3326 -9.77879
vn 0.381516 -0.923805 0.0320816
v 0.653745 48.6135 -6.28619
vn 0.909558 -0.401115 0.108675
v 0.543139 48.444 -6.2991
vn 0.705979 -0.703438 0.082271
v 0.374753 48.3326 -6.31877
vn 0.380504 -0.923802 0.0424936
v 0.240226 48.6135 -3.29615
vn 0.910053 -0.389779 0.140979
v 0.130399 48.444 -3.31441
vn 0.720016 -0.685552 0.107681
v -0.0368026 48.3326 -3.34221
vn 0.379065 -0.923724 0.0551647
v 0.0245672 48.6135 -2.11334
vn 0.898655 -0.39581 0.189085
v -0.0845977 48.444 -2.13536
vn 0.692868 -0.706961 0.141919
v -0.250791 48.3326 -2.16888
vn 0.375746 -0.923719 0.0745571
v -0.248418 48.6135 -0.930838
vn 0.892101 -0.385819 0.235158
v -0.356059 48.444 -0.959283
vn 0.6947 -0.697131 0.1772
v -0.519932 48.3326 -1.00259
vn 0.37221 -0.923575 0.092025
v -0.483733 48.6135 -0.138871
vn 0.851945 -0.438839 0.285674
v -0.589118 48.444 -0.174778
vn 0.689106 -0.690278 0.220565
v -0.749558 48.3326 -0.229443
vn 0.366568 -0.923329 0.114416
v -0.632276 48.6135 0.258853
vn 0.827759 -0.430779 0.359505
v -0.735338 48.444 0.216718
vn 0.653961 -0.706432 0.270719
v -0.892241 48.3326 0.152571
vn 0.356609 -0.923174 0.143454
v -0.817768 48.6135 0.660849
vn 0.801476 -0.411258 0.434169
v -0.916156 48.444 0.608728
vn 0.640662 -0.695051 0.326275
v -1.06594 48.3326 0.529378
vn 0.304106 -0.939749 0.156174
v -0.972451 48.6135 0.918818
vn 0.759 -0.398231 0.515104
v -1.06424 48.444 0.855817
vn 0.608636 -0.689274 0.39302
v -1.20398 48.3326 0.759903
vn 0.362465 -0.903463 0.228853
v -1.07448 48.6135 1.05395
vn 0.67432 -0.390757 0.626579
v -1.15968 48.444 0.982273
vn 0.53541 -0.705258 0.464702
v -1.28938 48.3326 0.873147
vn 0.348496 -0.890726 0.291817
v -1.22412 48.6135 1.2033
vn 0.612242 -0.383243 0.691581
v -1.29433 48.444 1.1169
vn 0.505699 -0.674481 0.537907
v -1.40121 48.3326 0.985375
vn 0.336559 -0.874395 0.349515
v -1.28394 48.6135 1.24762
vn 0.467721 -0.376738 0.799566
v -1.34577 48.444 1.15503
vn 0.379028 -0.704215 0.600349
v -1.4399 48.3326 1.01408
vn 0.267942 -0.873717 0.405988
v -1.39009 48.6135 1.30512
vn 0.356914 -0.375678 0.855265
v -1.43294 48.444 1.20239
vn 0.320042 -0.671202 0.668626
v -1.49818 48.3326 1.046
vn 0.236597 -0.864386 0.443688
v -1.471 48.6135 1.33214
vn 0.183986 -0.348984 0.91889
v -1.49623 48.444 1.22332
vn 0.200391 -0.678821 0.706432
v -1.53465 48.3326 1.05766
vn 0.176221 -0.863261 0.472998
v -1.57581 48.6135 1.34354
vn 0.0295716 -0.285359 0.957965
v -1.57581 48.444 1.2322
vn 0.0182471 -0.706965 0.707013
v -1.57581 48.2975 0.878651
vn -0.00336822 -0.982289 0.187344
v -1.55574 48.3059 0.966696
vn 0.0637343 -0.967691 0.243952
v -1.54549 48.3326 1.05969
vn 0.0450202 -0.931232 0.361635
v -1.56142 48.3059 0.967681
vn 0.0338066 -0.974054 0.223775
v -1.56931 48.2996 0.922151
vn 0.0207404 -0.992844 0.117605
v -1.56702 48.3059 0.968478
vn -0.101834 -0.962753 0.250474
v -1.57194 48.2996 0.922683
vn 0.0244189 -0.993374 0.112299
v -1.57438 48.298 0.900197
vn 0.018147 -0.997864 0.0627601
v -1.5737 48.2996 0.923078
vn -0.602694 -0.780702 0.16512
v -1.57318 48.298 0.899772
vn 0.0549161 -0.996726 0.0593406
v -1.57049 48.2996 0.92238
vn 0.0205723 -0.99194 0.125025
v -1.56618 48.2996 0.921685
vn 0.0977394 -0.991017 0.0912813
v -1.558 48.3059 0.967125
vn 0.0446982 -0.96812 0.246467
v -1.56751 48.2996 0.92186
vn 0.0195538 -0.99266 0.119346
v -1.534 48.3059 0.96013
vn 0.150537 -0.981983 0.114232
v -1.50929 48.3326 1.05054
vn 0.154132 -0.865713 0.47622
v -1.54115 48.3059 0.96309
vn 0.0764022 -0.970355 0.22929
v -1.57561 48.2977 0.889215
vn -0.521375 -0.852731 0.0318995
v -1.57542 48.298 0.900708
vn -0.920592 -0.383536 0.0735609
v -1.57591 48.2976 0.884028
vn 0.0108445 -0.999726 0.0207532
v -1.57581 48.5239 1.29715
vn 0.0237519 -0.548979 0.835499
v -1.57581 48.379 1.15226
vn 0.0117657 -0.835631 0.549166
v -1.57581 48.3326 1.0627
vn -0.0192591 -0.956681 0.2905
v 1.24318 48.3326 -17.3332
vn 0.423819 -0.90566 0.0125279
v 1.41242 48.444 -17.3238
vn 0.736106 -0.676745 0.0128501
v 1.52359 48.6135 -17.3176
vn 0.93429 -0.356514 0.000217211
v 1.4568 48.6135 -16.1579
vn 0.92487 -0.376087 0.0563391
v 1.34565 48.444 -16.1645
vn 0.724423 -0.687912 0.0445953
v -0.454133 48.7357 -0.128786
vn 0.939759 -0.185269 0.287279
v -0.943807 48.7785 0.938477
vn 0.825711 -0.197385 0.528433
v -0.788044 48.7592 0.676595
vn 0.879146 -0.16666 0.446461
v -0.603328 48.7357 0.270688
vn 0.914722 -0.162462 0.369986
v 1.17643 48.3326 -16.1745
vn 0.364691 -0.930855 0.0225758
v -1.04789 48.7785 1.07632
vn 0.751516 -0.155114 0.64122
v -1.202 48.7928 1.23052
vn 0.686647 -0.093394 0.720967
v -1.37658 48.7964 1.33751
vn 0.425835 -0.176749 0.887369
v -1.46304 48.7973 1.36645
vn 0.232091 -0.172162 0.957337
v -1.26446 48.7928 1.27679
vn 0.530281 -0.187811 0.826758
v -1.8403 85.9816 1.34354
vn -0.00554756 0.363603 0.931538
v -1.8403 86.1511 1.2322
vn -0.0132648 0.730935 0.682318
v -1.8403 86.2624 1.0627
vn -0.00757524 0.93424 0.356565
v -2.10479 85.9816 1.34354
vn 0 0.382648 0.923894
v -2.10479 86.1511 1.2322
vn 0 0.707157 0.707056
v -2.10479 86.2624 1.0627
vn 0 0.923921 0.382584
v -2.36928 85.9816 1.34354
vn 0.0075693 0.356619 0.934219
v -2.36928 86.1511 1.2322
vn 0.0132646 0.682396 0.730862
v -2.36928 86.2624 1.0627
vn 0.00636906 0.921243 0.388935
v -1.8403 48.6135 1.34354
vn -0.00557803 -0.363674 0.93151
v -1.8403 48.444 1.2322
vn -0.0133259 -0.730809 0.682451
v -1.8403 48.3326 1.0627
vn -0.00760697 -0.934176 0.356731
v -2.10479 48.6135 1.34354
vn 0 -0.38274 0.923856
v -2.10479 48.444 1.2322
vn 0 -0.707031 0.707182
v -2.10479 48.3326 1.0627
vn 0 -0.923829 0.382807
v -2.36928 48.6135 1.34354
vn 8.28946e-16 -0.345471 0.93843
v -2.36928 48.444 1.2322
vn 0.0123246 -0.666814 0.745122
v -2.36928 48.3326 1.0627
vn 0.00639558 -0.921157 0.389139
v -1.83528 85.9816 -18.3362
vn 0 0.40843 -0.91279
v -1.83528 86.1511 -18.2249
vn 0 0.754162 -0.656689
v -1.83528 86.2624 -18.0554
vn 0 0.938505 -0.345266
v -1.03679 85.9816 -18.3362
vn 0 0.382536 -0.92394
v -1.03679 86.1511 -18.2249
vn 0 0.707107 -0.707107
v -1.03679 86.2624 -18.0554
vn 0 0.92394 -0.382536
v -0.238294 85.9816 -18.3362
vn 0 0.345266 -0.938505
v -0.238294 86.1511 -18.2249
vn 0 0.656689 -0.754162
v -0.238294 86.2624 -18.0554
vn 0 0.92394 -0.382536
v 0.560199 86.1511 -18.2249
vn 0.0478752 0.723764 -0.688385
v 0.560199 85.9816 -18.3362
vn 0.0519767 0.418918 -0.906535
v 0.560199 86.2624 -18.0554
vn 0.0333781 0.912803 -0.407034
v -1.83528 48.6135 -18.3362
vn 0 -0.408513 -0.912753
v -1.83528 48.444 -18.2249
vn 0 -0.753996 -0.656879
v -1.83528 48.3326 -18.0554
vn 1.72487e-15 -0.938437 -0.345452
v -1.03679 48.6135 -18.3362
vn 0 -0.382629 -0.923902
v -1.03679 48.444 -18.2249
vn 0 -0.706981 -0.707232
v -1.03679 48.3326 -18.0554
vn 0 -0.923848 -0.382759
v -0.238294 48.6135 -18.3362
vn 0 -0.345369 -0.938467
v -0.238294 48.444 -18.2249
vn 0 -0.656606 -0.754234
v -0.238294 48.3326 -18.0554
vn 0 -0.912679 -0.408677
v 0.560199 48.6135 -18.3362
vn 0.0519697 -0.419001 -0.906497
v 0.560199 48.444 -18.2249
vn 0.047876 -0.723623 -0.688533
v 0.560199 48.3326 -18.0554
vn 0.0255491 -0.933946 -0.356499
v 0.941843 85.9816 -18.2576
vn 0.356643 0.432447 -0.828128
v 0.897805 86.1511 -18.1553
vn 0.262626 0.747776 -0.609802
v 0.83076 86.2624 -17.9996
vn 0.134549 0.935271 -0.327359
v 1.26124 85.9816 -18.0343
vn 0.673246 0.403321 -0.619735
v 1.18035 86.1511 -17.9578
vn 0.507237 0.698835 -0.504321
v 1.05719 86.2624 -17.8414
vn 0.268993 0.916837 -0.295048
v 1.46631 85.9816 -17.703
vn 0.86349 0.361186 -0.352037
v 1.36175 86.1511 -17.6647
vn 0.711663 0.652438 -0.260501
v 1.20257 86.2624 -17.6065
vn 0.399153 0.904511 -0.150123
v 0.941843 48.6135 -18.2576
vn 0.356627 -0.43253 -0.828091
v 0.897805 48.444 -18.1553
vn 0.262698 -0.747615 -0.609968
v 0.83076 48.3326 -17.9996
vn 0.134626 -0.935198 -0.327537
v 1.26124 48.6135 -18.0343
vn 0.685059 -0.393898 -0.612812
v 1.18035 48.444 -17.9578
vn 0.507334 -0.698716 -0.504389
v 1.05719 48.3326 -17.8414
vn 0.269152 -0.916733 -0.295225
v 1.46631 48.6135 -17.703
vn 0.866909 -0.384411 -0.317327
v 1.36175 48.444 -17.6647
vn 0.711727 -0.652358 -0.260525
v 1.20257 48.3326 -17.6065
vn 0.399401 -0.904387 -0.150213
f 2//2 1//1 3//3
f 2//2 3//3 4//4
f 4//4 3//3 5//5
f 4//4 5//5 6//6
f 6//6 5//5 7//7
f 6//6 7//7 8//8
f 8//8 7//7 1//1
f 8//8 1//1 2//2
f 5//5 3//3 1//1
f 5//5 1//1 7//7
f 6//6 8//8 2//2
f 6//6 2//2 4//4
f 10//10 9//9 11//11
f 10//10 11//11 12//12
f 12//12 11//11 13//13
f 12//12 13//13 14//14
f 16//16 15//15 17//17
f 16//16 17//17 18//18
f 18//18 17//17 9//9
f 18//18 9//9 10//10
f 15//15 11//11 9//9
f 15//15 9//9 17//17
f 16//16 18//18 10//10
f 16//16 10//10 12//12
f 20//20 19//19 21//21
f 20//20 21//21 22//22
f 22//22 21//21 23//23
f 22//22 23//23 24//24
f 24//24 23//23 25//25
f 24//24 25//25 26//26
f 26//26 25//25 19//19
f 26//26 19//19 20//20
f 21//21 19//19 25//25
f 21//21 25//25 23//23
f 22//22 24//24 26//26
f 22//22 26//26 20//20
f 28//28 27//27 31//31
f 28//28 31//31 46//46
f 33//33 47//47 46//46
f 33//33 46//46 31//31
f 35//35 48//48 47//47
f 35//35 47//47 33//33
f 30//30 28//28 46//46
f 30//30 29//29 28//28
f 32//32 30//30 46//46
f 34//34 47//47 48//48
f 34//34 48//48 36//36
f 47//47 34//34 32//32
f 47//47 32//32 46//46
f 48//48 35//35 37//37
f 48//48 37//37 49//49
f 49//49 37//37 39//39
f 49//49 39//39 50//50
f 36//36 48//48 49//49
f 36//36 49//49 38//38
f 41//41 51//51 50//50
f 41//41 50//50 39//39
f 43//43 44//44 51//51
f 43//43 51//51 41//41
f 50//50 40//40 38//38
f 50//50 38//38 49//49
f 44//44 45//45 42//42
f 44//44 42//42 51//51
f 51//51 42//42 40//40
f 51//51 40//40 50//50
f 52//52 44//44 43//43
f 45//45 44//44 53//53
f 52//52 53//53 44//44
f 55//55 54//54 58//58
f 55//55 58//58 59//59
f 56//56 58//58 54//54
f 55//55 60//60 57//57
f 55//55 59//59 60//60
f 27//27 65//65 61//61
f 28//28 63//63 64//64
f 64//64 65//65 28//28
f 28//28 29//29 63//63
f 29//29 62//62 63//63
f 27//27 28//28 65//65
f 43//43 39//39 37//37
f 39//39 43//43 41//41
f 35//35 43//43 37//37
f 43//43 35//35 33//33
f 27//27 43//43 31//31
f 43//43 33//33 31//31
f 27//27 67//67 43//43
f 67//67 61//61 54//54
f 27//27 61//61 67//67
f 67//67 66//66 52//52
f 52//52 43//43 67//67
f 56//56 70//70 69//69
f 68//68 56//56 69//69
f 56//56 61//61 70//70
f 56//56 54//54 61//61
f 45//45 38//38 40//40
f 40//40 42//42 45//45
f 36//36 38//38 45//45
f 32//32 34//34 45//45
f 45//45 30//30 32//32
f 29//29 30//30 45//45
f 36//36 45//45 34//34
f 29//29 45//45 72//72
f 72//72 55//55 62//62
f 29//29 72//72 62//62
f 72//72 53//53 71//71
f 53//53 72//72 45//45
f 57//57 74//74 75//75
f 73//73 74//74 57//57
f 57//57 75//75 62//62
f 57//57 62//62 55//55
f 80//80 77//77 76//76
f 80//80 76//76 79//79
f 81//81 78//78 77//77
f 81//81 77//77 80//80
f 83//83 80//80 79//79
f 83//83 79//79 82//82
f 84//84 81//81 80//80
f 84//84 80//80 83//83
f 73//73 57//57 60//60
f 73//73 60//60 76//76
f 59//59 79//79 76//76
f 59//59 76//76 60//60
f 79//79 59//59 58//58
f 79//79 58//58 82//82
f 76//76 77//77 74//74
f 76//76 74//74 73//73
f 75//75 74//74 77//77
f 75//75 77//77 78//78
f 62//62 75//75 78//78
f 62//62 78//78 63//63
f 63//63 78//78 81//81
f 63//63 81//81 64//64
f 82//82 58//58 56//56
f 82//82 56//56 68//68
f 83//83 82//82 68//68
f 83//83 68//68 69//69
f 69//69 70//70 84//84
f 69//69 84//84 83//83
f 64//64 81//81 84//84
f 64//64 84//84 65//65
f 70//70 61//61 65//65
f 70//70 65//65 84//84
f 85//85 90//90 100//100
f 85//85 100//100 86//86
f 91//91 100//100 90//90
f 92//92 93//93 101//101
f 92//92 101//101 102//102
f 92//92 102//102 91//91
f 94//94 101//101 93//93
f 87//87 100//100 102//102
f 87//87 102//102 31//31
f 91//91 102//102 100//100
f 100//100 87//87 27//27
f 100//100 27//27 86//86
f 33//33 101//101 103//103
f 33//33 103//103 35//35
f 94//94 103//103 101//101
f 101//101 33//33 31//31
f 101//101 31//31 102//102
f 103//103 94//94 95//95
f 104//104 95//95 96//96
f 96//96 97//97 105//105
f 96//96 105//105 104//104
f 35//35 103//103 104//104
f 35//35 104//104 37//37
f 99//99 106//106 98//98
f 98//98 105//105 97//97
f 99//99 88//88 89//89
f 99//99 89//89 106//106
f 37//37 104//104 105//105
f 37//37 105//105 39//39
f 39//39 105//105 106//106
f 39//39 106//106 41//41
f 89//89 43//43 41//41
f 89//89 41//41 106//106
f 106//106 105//105 98//98
f 95//95 104//104 103//103
f 89//89 88//88 108//108
f 89//89 52//52 43//43
f 109//109 89//89 108//108
f 52//52 109//109 110//110
f 110//110 107//107 52//52
f 89//89 109//109 52//52
f 66//66 107//107 113//113
f 107//107 66//66 52//52
f 114//114 111//111 113//113
f 112//112 111//111 114//114
f 112//112 114//114 115//115
f 66//66 113//113 111//111
f 66//66 111//111 116//116
f 66//66 116//116 67//67
f 117//117 120//120 116//116
f 117//117 119//119 120//120
f 67//67 116//116 121//121
f 67//67 121//121 118//118
f 118//118 54//54 67//67
f 121//121 116//116 120//120
f 54//54 118//118 124//124
f 125//125 54//54 124//124
f 123//123 125//125 126//126
f 126//126 122//122 123//123
f 54//54 125//125 123//123
f 123//123 122//122 127//127
f 86//86 123//123 127//127
f 86//86 128//128 85//85
f 86//86 27//27 123//123
f 128//128 86//86 127//127
f 140//140 137//137 136//136
f 140//140 139//139 138//138
f 137//137 140//140 138//138
f 135//135 140//140 136//136
f 133//133 140//140 134//134
f 140//140 135//135 134//134
f 133//133 132//132 140//140
f 141//141 132//132 146//146
f 145//145 116//116 146//146
f 140//140 132//132 141//141
f 116//116 142//142 141//141
f 143//143 116//116 111//111
f 142//142 116//116 143//143
f 112//112 143//143 111//111
f 145//145 144//144 116//116
f 131//131 130//130 144//144
f 129//129 144//144 130//130
f 129//129 117//117 144//144
f 117//117 116//116 144//144
f 141//141 146//146 116//116
f 37//37 43//43 35//35
f 43//43 33//33 35//35
f 43//43 87//87 31//31
f 31//31 33//33 43//43
f 27//27 87//87 43//43
f 39//39 43//43 37//37
f 67//67 27//27 43//43
f 52//52 67//67 43//43
f 54//54 123//123 67//67
f 67//67 123//123 27//27
f 66//66 67//67 52//52
f 43//43 39//39 41//41
f 151//151 150//150 147//147
f 151//151 147//147 148//148
f 152//152 151//151 148//148
f 152//152 148//148 149//149
f 154//154 153//153 150//150
f 154//154 150//150 151//151
f 155//155 154//154 151//151
f 155//155 151//151 152//152
f 157//157 156//156 153//153
f 157//157 153//153 154//154
f 158//158 157//157 154//154
f 158//158 154//154 155//155
f 160//160 159//159 156//156
f 160//160 156//156 157//157
f 161//161 160//160 157//157
f 161//161 157//157 158//158
f 163//163 162//162 159//159
f 163//163 159//159 160//160
f 164//164 163//163 160//160
f 164//164 160//160 161//161
f 166//166 165//165 162//162
f 166//166 162//162 163//163
f 167//167 166//166 163//163
f 167//167 163//163 164//164
f 90//90 85//85 173//173
f 150//150 92//92 91//91
f 150//150 91//91 147//147
f 90//90 147//147 91//91
f 147//147 90//90 173//173
f 92//92 150//150 153//153
f 92//92 153//153 93//93
f 156//156 94//94 93//93
f 156//156 93//93 153//153
f 95//95 94//94 156//156
f 172//172 148//148 147//147
f 172//172 147//147 173//173
f 171//171 149//149 148//148
f 171//171 148//148 172//172
f 132//132 133//133 149//149
f 132//132 149//149 171//171
f 152//152 149//149 133//133
f 152//152 133//133 134//134
f 155//155 152//152 134//134
f 155//155 134//134 135//135
f 135//135 136//136 158//158
f 135//135 158//158 155//155
f 159//159 96//96 95//95
f 162//162 97//97 96//96
f 162//162 96//96 159//159
f 98//98 97//97 162//162
f 165//165 99//99 98//98
f 168//168 88//88 99//99
f 166//166 169//169 168//168
f 166//166 168//168 165//165
f 99//99 165//165 168//168
f 98//98 162//162 165//165
f 161//161 158//158 136//136
f 161//161 136//136 137//137
f 137//137 138//138 164//164
f 137//137 164//164 161//161
f 169//169 166//166 167//167
f 169//169 167//167 170//170
f 139//139 140//140 170//170
f 139//139 170//170 167//167
f 167//167 164//164 138//138
f 167//167 138//138 139//139
f 95//95 156//156 159//159
f 178//178 177//177 174//174
f 178//178 174//174 175//175
f 179//179 178//178 175//175
f 179//179 175//175 176//176
f 181//181 180//180 177//177
f 181//181 177//177 178//178
f 182//182 181//181 178//178
f 182//182 178//178 179//179
f 168//168 174//174 108//108
f 168//168 108//108 88//88
f 109//109 108//108 174//174
f 109//109 174//174 177//177
f 177//177 180//180 110//110
f 177//177 110//110 109//109
f 169//169 175//175 174//174
f 169//169 174//174 168//168
f 170//170 176//176 175//175
f 170//170 175//175 169//169
f 140//140 141//141 176//176
f 140//140 176//176 170//170
f 141//141 142//142 179//179
f 141//141 179//179 176//176
f 180//180 113//113 107//107
f 180//180 107//107 110//110
f 181//181 114//114 113//113
f 181//181 113//113 180//180
f 114//114 181//181 182//182
f 114//114 182//182 115//115
f 142//142 143//143 182//182
f 142//142 182//182 179//179
f 115//115 182//182 143//143
f 115//115 143//143 112//112
f 187//187 186//186 183//183
f 187//187 183//183 184//184
f 188//188 187//187 184//184
f 188//188 184//184 185//185
f 190//190 189//189 186//186
f 190//190 186//186 187//187
f 191//191 190//190 187//187
f 191//191 187//187 188//188
f 121//121 183//183 124//124
f 121//121 124//124 118//118
f 120//120 184//184 183//183
f 120//120 183//183 121//121
f 125//125 124//124 183//183
f 125//125 183//183 186//186
f 186//186 189//189 126//126
f 186//186 126//126 125//125
f 117//117 129//129 185//185
f 117//117 185//185 119//119
f 119//119 185//185 184//184
f 119//119 184//184 120//120
f 188//188 185//185 129//129
f 188//188 129//129 130//130
f 130//130 191//191 188//188
f 194//194 189//189 190//190
f 126//126 189//189 192//192
f 195//195 194//194 190//190
f 192//192 189//189 193//193
f 193//193 189//189 194//194
f 122//122 126//126 192//192
f 131//131 199//199 191//191
f 190//190 191//191 197//197
f 130//130 131//131 191//191
f 191//191 198//198 197//197
f 198//198 191//191 199//199
f 197//197 196//196 190//190
f 196//196 195//195 190//190
f 204//204 203//203 200//200
f 204//204 200//200 201//201
f 205//205 204//204 201//201
f 205//205 201//201 202//202
f 207//207 206//206 203//203
f 207//207 203//203 204//204
f 208//208 207//207 204//204
f 208//208 204//204 205//205
f 193//193 200//200 192//192
f 122//122 192//192 200//200
f 201//201 200//200 194//194
f 193//193 194//194 200//200
f 196//196 201//201 195//195
f 194//194 195//195 201//201
f 198//198 202//202 197//197
f 201//201 196//196 197//197
f 144//144 202//202 199//199
f 198//198 199//199 202//202
f 199//199 131//131 144//144
f 144//144 145//145 205//205
f 144//144 205//205 202//202
f 197//197 202//202 201//201
f 203//203 206//206 128//128
f 203//203 128//128 127//127
f 206//206 173//173 85//85
f 206//206 85//85 128//128
f 173//173 206//206 207//207
f 173//173 207//207 172//172
f 145//145 146//146 208//208
f 145//145 208//208 205//205
f 171//171 208//208 146//146
f 171//171 146//146 132//132
f 208//208 171//171 172//172
f 208//208 172//172 207//207
f 200//200 203//203 122//122
f 203//203 127//127 122//122
f 212//212 214//214 209//209
f 211//211 29//29 214//214
f 211//211 212//212 213//213
f 213//213 210//210 211//211
f 214//214 212//212 211//211
f 211//211 210//210 216//216
f 55//55 211//211 216//216
f 55//55 216//216 217//217
f 55//55 217//217 215//215
f 72//72 215//215 220//220
f 215//215 72//72 55//55
f 221//221 218//218 220//220
f 219//219 218//218 221//221
f 219//219 221//221 222//222
f 72//72 220//220 218//218
f 72//72 218//218 223//223
f 72//72 223//223 71//71
f 224//224 227//227 223//223
f 224//224 226//226 227//227
f 71//71 223//223 228//228
f 71//71 228//228 225//225
f 225//225 53//53 71//71
f 228//228 223//223 227//227
f 53//53 225//225 230//230
f 233//233 53//53 231//231
f 230//230 231//231 53//53
f 233//233 232//232 229//229
f 233//233 45//45 53//53
f 232//232 233//233 231//231
f 229//229 234//234 244//244
f 229//229 244//244 233//233
f 235//235 244//244 234//234
f 236//236 237//237 245//245
f 236//236 245//245 246//246
f 236//236 246//246 235//235
f 238//238 245//245 237//237
f 42//42 244//244 246//246
f 42//42 246//246 40//40
f 235//235 246//246 244//244
f 244//244 42//42 45//45
f 244//244 45//45 233//233
f 38//38 245//245 247//247
f 38//38 247//247 36//36
f 238//238 247//247 245//245
f 245//245 38//38 40//40
f 245//245 40//40 246//246
f 247//247 238//238 239//239
f 248//248 239//239 240//240
f 240//240 241//241 249//249
f 240//240 249//249 248//248
f 36//36 247//247 248//248
f 36//36 248//248 34//34
f 243//243 250//250 242//242
f 242//242 249//249 241//241
f 243//243 209//209 214//214
f 243//243 214//214 250//250
f 34//34 248//248 249//249
f 34//34 249//249 32//32
f 32//32 249//249 250//250
f 32//32 250//250 30//30
f 214//214 29//29 30//30
f 214//214 30//30 250//250
f 250//250 249//249 242//242
f 239//239 248//248 247//247
f 258//258 224//224 223//223
f 260//260 259//259 218//218
f 258//258 218//218 259//259
f 257//257 218//218 254//254
f 218//218 258//258 223//223
f 219//219 254//254 218//218
f 257//257 254//254 253//253
f 257//257 253//253 252//252
f 251//251 257//257 252//252
f 256//256 260//260 218//218
f 263//263 262//262 261//261
f 261//261 265//265 264//264
f 263//263 261//261 264//264
f 266//266 265//265 261//261
f 257//257 256//256 218//218
f 256//256 255//255 260//260
f 261//261 255//255 268//268
f 268//268 267//267 261//261
f 266//266 261//261 267//267
f 255//255 261//261 260//260
f 45//45 72//72 53//53
f 45//45 29//29 72//72
f 53//53 72//72 71//71
f 72//72 211//211 55//55
f 29//29 211//211 72//72
f 42//42 40//40 45//45
f 45//45 38//38 36//36
f 45//45 36//36 34//34
f 32//32 30//30 45//45
f 32//32 45//45 34//34
f 30//30 29//29 45//45
f 38//38 45//45 40//40
f 273//273 272//272 269//269
f 273//273 269//269 270//270
f 274//274 273//273 270//270
f 274//274 270//270 271//271
f 276//276 275//275 272//272
f 276//276 272//272 273//273
f 277//277 276//276 273//273
f 277//277 273//273 274//274
f 269//269 209//209 280//280
f 279//279 270//270 269//269
f 279//279 269//269 280//280
f 272//272 212//212 269//269
f 209//209 269//269 212//212
f 272//272 275//275 213//213
f 272//272 213//213 212//212
f 255//255 256//256 271//271
f 255//255 271//271 278//278
f 278//278 271//271 270//270
f 278//278 270//270 279//279
f 274//274 271//271 256//256
f 274//274 256//256 257//257
f 257//257 277//277 274//274
f 283//283 275//275 276//276
f 213//213 275//275 281//281
f 284//284 283//283 276//276
f 281//281 275//275 282//282
f 282//282 275//275 283//283
f 210//210 213//213 281//281
f 251//251 288//288 277//277
f 276//276 277//277 286//286
f 257//257 251//251 277//277
f 277//277 287//287 286//286
f 287//287 277//277 288//288
f 286//286 285//285 276//276
f 285//285 284//284 276//276
f 293//293 292//292 289//289
f 293//293 289//289 290//290
f 294//294 293//293 290//290
f 294//294 290//290 291//291
f 296//296 295//295 292//292
f 296//296 292//292 293//293
f 297//297 296//296 293//293
f 297//297 293//293 294//294
f 282//282 289//289 281//281
f 210//210 281//281 289//289
f 290//290 289//289 283//283
f 282//282 283//283 289//289
f 285//285 290//290 284//284
f 283//283 284//284 290//290
f 210//210 289//289 292//292
f 210//210 292//292 216//216
f 287//287 291//291 286//286
f 290//290 285//285 286//286
f 252//252 291//291 288//288
f 287//287 288//288 291//291
f 288//288 251//251 252//252
f 252//252 253//253 294//294
f 252//252 294//294 291//291
f 286//286 291//291 290//290
f 292//292 295//295 217//217
f 292//292 217//217 216//216
f 215//215 217//217 295//295
f 215//215 295//295 220//220
f 220//220 295//295 296//296
f 220//220 296//296 221//221
f 253//253 254//254 297//297
f 253//253 297//297 294//294
f 254//254 219//219 222//222
f 254//254 222//222 297//297
f 221//221 296//296 297//297
f 221//221 297//297 222//222
f 302//302 301//301 298//298
f 302//302 298//298 299//299
f 303//303 302//302 299//299
f 303//303 299//299 300//300
f 305//305 304//304 301//301
f 305//305 301//301 302//302
f 306//306 305//305 302//302
f 306//306 302//302 303//303
f 228//228 298//298 230//230
f 228//228 230//230 225//225
f 231//231 230//230 298//298
f 231//231 298//298 301//301
f 301//301 304//304 232//232
f 301//301 232//232 231//231
f 298//298 228//228 227//227
f 298//298 227//227 299//299
f 226//226 300//300 299//299
f 226//226 299//299 227//227
f 224//224 258//258 300//300
f 224//224 300//300 226//226
f 258//258 259//259 303//303
f 258//258 303//303 300//300
f 304//304 307//307 229//229
f 304//304 229//229 232//232
f 305//305 308//308 307//307
f 305//305 307//307 304//304
f 308//308 305//305 306//306
f 308//308 306//306 309//309
f 259//259 260//260 306//306
f 259//259 306//306 303//303
f 260//260 261//261 309//309
f 260//260 309//309 306//306
f 314//314 313//313 310//310
f 314//314 310//310 311//311
f 315//315 314//314 311//311
f 315//315 311//311 312//312
f 317//317 316//316 313//313
f 317//317 313//313 314//314
f 318//318 317//317 314//314
f 318//318 314//314 315//315
f 320//320 319//319 316//316
f 320//320 316//316 317//317
f 321//321 320//320 317//317
f 321//321 317//317 318//318
f 323//323 322//322 319//319
f 323//323 319//319 320//320
f 324//324 323//323 320//320
f 324//324 320//320 321//321
f 326//326 325//325 322//322
f 326//326 322//322 323//323
f 327//327 326//326 323//323
f 327//327 323//323 324//324
f 329//329 328//328 325//325
f 329//329 325//325 326//326
f 330//330 329//329 326//326
f 330//330 326//326 327//327
f 234//234 229//229 307//307
f 313//313 236//236 235//235
f 313//313 235//235 310//310
f 234//234 310//310 235//235
f 310//310 234//234 307//307
f 236//236 313//313 316//316
f 236//236 316//316 237//237
f 319//319 238//238 237//237
f 319//319 237//237 316//316
f 239//239 238//238 319//319
f 308//308 311//311 310//310
f 308//308 310//310 307//307
f 309//309 312//312 311//311
f 309//309 311//311 308//308
f 261//261 262//262 312//312
f 261//261 312//312 309//309
f 315//315 312//312 262//262
f 315//315 262//262 263//263
f 318//318 315//315 263//263
f 318//318 263//263 264//264
f 264//264 265//265 321//321
f 264//264 321//321 318//318
f 239//239 319//319 322//322
f 239//239 322//322 240//240
f 325//325 241//241 240//240
f 325//325 240//240 322//322
f 242//242 241//241 325//325
f 328//328 243//243 242//242
f 280//280 209//209 243//243
f 329//329 279//279 280//280
f 329//329 280//280 328//328
f 243//243 328//328 280//280
f 242//242 325//325 328//328
f 324//324 321//321 265//265
f 324//324 265//265 266//266
f 266//266 267//267 327//327
f 266//266 327//327 324//324
f 279//279 329//329 330//330
f 279//279 330//330 278//278
f 268//268 255//255 278//278
f 268//268 278//278 330//330
f 330//330 327//327 267//267
f 330//330 267//267 268//268
f 367//367 365//365 366//366
f 368//368 394//394 364//364
f 368//368 364//364 367//367
f 364//364 365//365 367//367
f 369//369 370//370 394//394
f 364//364 394//394 363//363
f 370//370 371//371 394//394
f 394//394 368//368 369//369
f 372//372 394//394 371//371
f 374//374 375//375 395//395
f 394//394 374//374 395//395
f 376//376 377//377 395//395
f 395//395 378//378 379//379
f 377//377 378//378 395//395
f 395//395 375//375 376//376
f 394//394 372//372 373//373
f 380//380 395//395 379//379
f 362//362 358//358 361//361
f 362//362 394//394 357//357
f 359//359 361//361 358//358
f 394//394 362//362 363//363
f 362//362 357//357 358//358
f 394//394 355//355 356//356
f 394//394 354//354 355//355
f 356//356 357//357 394//394
f 354//354 394//394 353//353
f 352//352 353//353 394//394
f 394//394 395//395 351//351
f 394//394 351//351 352//352
f 374//374 394//394 373//373
f 349//349 350//350 395//395
f 395//395 348//348 349//349
f 395//395 346//346 347//347
f 395//395 345//345 346//346
f 347//347 348//348 395//395
f 396//396 345//345 395//395
f 350//350 351//351 395//395
f 396//396 395//395 380//380
f 382//382 396//396 381//381
f 396//396 383//383 384//384
f 383//383 396//396 382//382
f 396//396 384//384 397//397
f 385//385 397//397 384//384
f 387//387 397//397 386//386
f 385//385 386//386 397//397
f 398//398 397//397 387//387
f 341//341 396//396 397//397
f 345//345 396//396 344//344
f 392//392 399//399 391//391
f 400//400 393//393 360//360
f 400//400 392//392 393//393
f 401//401 398//398 388//388
f 401//401 388//388 389//389
f 387//387 388//388 398//398
f 402//402 389//389 390//390
f 390//390 391//391 403//403
f 392//392 400//400 399//399
f 360//360 331//331 404//404
f 360//360 404//404 400//400
f 397//397 398//398 338//338
f 397//397 338//338 339//339
f 343//343 344//344 396//396
f 342//342 396//396 341//341
f 396//396 342//342 343//343
f 398//398 401//401 336//336
f 398//398 336//336 337//337
f 340//340 341//341 397//397
f 337//337 338//338 398//398
f 340//340 397//397 339//339
f 335//335 336//336 401//401
f 335//335 401//401 402//402
f 403//403 399//399 333//333
f 403//403 333//333 334//334
f 391//391 399//399 403//403
f 400//400 404//404 333//333
f 400//400 333//333 399//399
f 402//402 403//403 334//334
f 402//402 334//334 335//335
f 403//403 402//402 390//390
f 404//404 332//332 333//333
f 404//404 331//331 332//332
f 402//402 401//401 389//389
f 381//381 396//396 380//380
f 331//331 360//360 405//405
f 405//405 410//410 331//331
f 405//405 406//406 409//409
f 405//405 409//409 410//410
f 409//409 406//406 407//407
f 407//407 408//408 409//409
f 418//418 407//407 417//417
f 419//419 407//407 418//418
f 407//407 420//420 421//421
f 419//419 420//420 407//407
f 407//407 411//411 408//408
f 426//426 408//408 425//425
f 424//424 425//425 408//408
f 424//424 408//408 423//423
f 422//422 423//423 408//408
f 416//416 422//422 408//408
f 411//411 407//407 421//421
f 411//411 412//412 415//415
f 411//411 415//415 416//416
f 427//427 413//413 412//412
f 413//413 428//428 429//429
f 427//427 428//428 413//413
f 413//413 414//414 412//412
f 432//432 415//415 414//414
f 430//430 431//431 414//414
f 432//432 414//414 431//431
f 415//415 412//412 414//414
f 408//408 411//411 416//416
f 440//440 436//436 413//413
f 441//441 435//435 440//440
f 413//413 436//436 414//414
f 440//440 435//435 436//436
f 435//435 441//441 439//439
f 438//438 442//442 437//437
f 439//439 442//442 438//438
f 433//433 434//434 439//439
f 439//439 434//434 435//435
f 442//442 439//439 441//441
f 447//447 444//444 443//443
f 447//447 443//443 446//446
f 448//448 445//445 444//444
f 448//448 444//444 447//447
f 450//450 447//447 446//446
f 450//450 446//446 449//449
f 451//451 448//448 447//447
f 451//451 447//447 450//450
f 437//437 452//452 443//443
f 437//437 443//443 438//438
f 453//453 454//454 446//446
f 453//453 446//446 443//443
f 454//454 455//455 449//449
f 454//454 449//449 446//446
f 452//452 453//453 443//443
f 443//443 444//444 439//439
f 443//443 439//439 438//438
f 461//461 433//433 445//445
f 433//433 439//439 444//444
f 433//433 444//444 445//445
f 459//459 460//460 445//445
f 459//459 445//445 448//448
f 461//461 445//445 460//460
f 449//449 455//455 456//456
f 365//365 449//449 456//456
f 456//456 366//366 365//365
f 450//450 449//449 364//364
f 450//450 364//364 363//363
f 449//449 365//365 364//364
f 448//448 451//451 458//458
f 448//448 458//458 459//459
f 451//451 450//450 363//363
f 451//451 363//363 362//362
f 458//458 451//451 457//457
f 451//451 361//361 457//457
f 361//361 359//359 457//457
f 362//362 361//361 451//451
f 412//412 464//464 463//463
f 412//412 463//463 465//465
f 477//477 462//462 483//483
f 483//483 482//482 481//481
f 483//483 481//481 480//480
f 465//465 462//462 473//473
f 411//411 464//464 412//412
f 462//462 465//465 463//463
f 468//468 466//466 469//469
f 466//466 470//470 469//469
f 468//468 484//484 466//466
f 471//471 470//470 466//466
f 468//468 486//486 485//485
f 468//468 467//467 486//486
f 487//487 486//486 467//467
f 484//484 468//468 485//485
f 477//477 483//483 478//478
f 480//480 479//479 483//483
f 479//479 478//478 483//483
f 477//477 476//476 462//462
f 462//462 474//474 473//473
f 462//462 476//476 475//475
f 474//474 462//462 475//475
f 465//465 473//473 472//472
f 465//465 472//472 471//471
f 466//466 465//465 471//471
f 415//415 488//488 492//492
f 415//415 492//492 493//493
f 504//504 510//510 491//491
f 510//510 508//508 509//509
f 510//510 507//507 508//508
f 488//488 500//500 491//491
f 416//416 415//415 493//493
f 491//491 492//492 488//488
f 496//496 489//489 490//490
f 497//497 489//489 496//496
f 490//490 495//495 496//496
f 511//511 495//495 490//490
f 498//498 489//489 497//497
f 495//495 512//512 513//513
f 495//495 513//513 494//494
f 514//514 494//494 513//513
f 511//511 512//512 495//495
f 504//504 505//505 510//510
f 507//507 510//510 506//506
f 506//506 510//510 505//505
f 504//504 491//491 503//503
f 491//491 500//500 501//501
f 491//491 502//502 503//503
f 501//501 502//502 491//491
f 488//488 499//499 500//500
f 488//488 498//498 499//499
f 489//489 498//498 488//488
f 519//519 518//518 515//515
f 519//519 515//515 516//516
f 520//520 519//519 516//516
f 520//520 516//516 517//517
f 522//522 521//521 518//518
f 522//522 518//518 519//519
f 523//523 522//522 519//519
f 523//523 519//519 520//520
f 525//525 524//524 521//521
f 525//525 521//521 522//522
f 526//526 525//525 522//522
f 526//526 522//522 523//523
f 528//528 527//527 524//524
f 528//528 524//524 525//525
f 529//529 528//528 525//525
f 529//529 525//525 526//526
f 531//531 530//530 527//527
f 531//531 527//527 528//528
f 532//532 531//531 528//528
f 532//532 528//528 529//529
f 534//534 533//533 530//530
f 534//534 530//530 531//531
f 535//535 534//534 531//531
f 535//535 531//531 532//532
f 537//537 536//536 533//533
f 537//537 533//533 534//534
f 538//538 537//537 534//534
f 538//538 534//534 535//535
f 540//540 539//539 536//536
f 540//540 536//536 537//537
f 541//541 540//540 537//537
f 541//541 537//537 538//538
f 543//543 542//542 539//539
f 543//543 539//539 540//540
f 544//544 543//543 540//540
f 544//544 540//540 541//541
f 546//546 545//545 542//542
f 546//546 542//542 543//543
f 547//547 546//546 543//543
f 547//547 543//543 544//544
f 549//549 548//548 545//545
f 549//549 545//545 546//546
f 550//550 549//549 546//546
f 550//550 546//546 547//547
f 552//552 551//551 548//548
f 552//552 548//548 549//549
f 553//553 552//552 549//549
f 553//553 549//549 550//550
f 555//555 554//554 551//551
f 555//555 551//551 552//552
f 556//556 555//555 552//552
f 556//556 552//552 553//553
f 558//558 557//557 554//554
f 558//558 554//554 555//555
f 576//576 555//555 556//556
f 558//558 576//576 559//559
f 555//555 576//576 558//558
f 577//577 576//576 556//556
f 577//577 556//556 575//575
f 562//562 559//559 576//576
f 562//562 576//576 577//577
f 578//578 579//579 568//568
f 567//567 568//568 569//569
f 568//568 571//571 565//565
f 568//568 565//565 570//570
f 571//571 568//568 567//567
f 571//571 564//564 565//565
f 566//566 571//571 567//567
f 564//564 571//571 566//566
f 574//574 573//573 562//562
f 574//574 562//562 572//572
f 565//565 564//564 573//573
f 565//565 573//573 574//574
f 573//573 559//559 562//562
f 563//563 573//573 564//564
f 559//559 573//573 563//563
f 367//367 366//366 587//587
f 588//588 369//369 368//368
f 588//588 368//368 367//367
f 515//515 371//371 370//370
f 518//518 373//373 372//372
f 518//518 372//372 515//515
f 515//515 372//372 371//371
f 515//515 370//370 369//369
f 588//588 515//515 369//369
f 518//518 374//374 373//373
f 518//518 375//375 374//374
f 588//588 589//589 516//516
f 588//588 516//516 515//515
f 518//518 376//376 375//375
f 521//521 377//377 376//376
f 521//521 376//376 518//518
f 378//378 377//377 521//521
f 588//588 367//367 587//587
f 521//521 380//380 379//379
f 524//524 382//382 381//381
f 524//524 381//381 521//521
f 521//521 381//381 380//380
f 383//383 382//382 524//524
f 386//386 385//385 527//527
f 384//384 383//383 524//524
f 385//385 384//384 524//524
f 389//389 388//388 590//590
f 388//388 387//387 530//530
f 386//386 527//527 387//387
f 591//591 391//391 592//592
f 390//390 592//592 391//391
f 389//389 590//590 593//593
f 592//592 390//390 593//593
f 592//592 593//593 536//536
f 592//592 536//536 539//539
f 590//590 388//388 530//530
f 591//591 592//592 539//539
f 591//591 539//539 542//542
f 390//390 389//389 593//593
f 593//593 590//590 533//533
f 593//593 533//533 536//536
f 378//378 521//521 379//379
f 586//586 589//589 587//587
f 589//589 588//588 587//587
f 585//585 594//594 589//589
f 585//585 589//589 586//586
f 594//594 517//517 516//516
f 594//594 516//516 589//589
f 520//520 517//517 468//468
f 520//520 468//468 469//469
f 594//594 467//467 468//468
f 594//594 468//468 517//517
f 467//467 594//594 585//585
f 526//526 523//523 470//470
f 526//526 470//470 471//471
f 471//471 472//472 529//529
f 471//471 529//529 526//526
f 523//523 520//520 469//469
f 523//523 469//469 470//470
f 387//387 527//527 530//530
f 532//532 529//529 472//472
f 532//532 472//472 473//473
f 533//533 590//590 530//530
f 473//473 474//474 535//535
f 473//473 535//535 532//532
f 474//474 475//475 538//538
f 474//474 538//538 535//535
f 541//541 538//538 475//475
f 541//541 475//475 476//476
f 541//541 476//476 575//575
f 544//544 541//541 575//575
f 527//527 385//385 524//524
f 595//595 591//591 542//542
f 595//595 542//542 545//545
f 595//595 596//596 391//391
f 392//392 391//391 596//596
f 545//545 548//548 596//596
f 545//545 596//596 595//595
f 554//554 557//557 598//598
f 554//554 598//598 597//597
f 599//599 597//597 392//392
f 393//393 392//392 597//597
f 599//599 596//596 548//548
f 599//599 548//548 551//551
f 597//597 599//599 551//551
f 597//597 551//551 554//554
f 392//392 596//596 599//599
f 559//559 584//584 583//583
f 559//559 583//583 558//558
f 575//575 553//553 550//550
f 575//575 550//550 547//547
f 572//572 577//577 575//575
f 553//553 575//575 556//556
f 477//477 575//575 476//476
f 544//544 575//575 547//547
f 557//557 581//581 360//360
f 557//557 360//360 598//598
f 360//360 393//393 598//598
f 558//558 582//582 557//557
f 558//558 583//583 582//582
f 557//557 582//582 581//581
f 570//570 574//574 572//572
f 562//562 577//577 572//572
f 560//560 584//584 563//563
f 559//559 563//563 584//584
f 564//564 566//566 563//563
f 560//560 563//563 566//566
f 569//569 560//560 566//566
f 598//598 393//393 597//597
f 572//572 575//575 477//477
f 477//477 478//478 572//572
f 570//570 565//565 574//574
f 478//478 479//479 570//570
f 478//478 570//570 572//572
f 578//578 568//568 570//570
f 480//480 578//578 479//479
f 479//479 578//578 570//570
f 480//480 580//580 578//578
f 480//480 481//481 580//580
f 482//482 483//483 580//580
f 580//580 481//481 482//482
f 566//566 567//567 569//569
f 569//569 568//568 579//579
f 579//579 560//560 569//569
f 561//561 578//578 580//580
f 580//580 483//483 561//561
f 561//561 560//560 578//578
f 578//578 560//560 579//579
f 595//595 391//391 591//591
f 604//604 601//601 600//600
f 604//604 600//600 603//603
f 605//605 602//602 601//601
f 605//605 601//601 604//604
f 607//607 604//604 603//603
f 607//607 603//603 606//606
f 608//608 605//605 604//604
f 608//608 604//604 607//607
f 610//610 607//607 606//606
f 610//610 606//606 609//609
f 611//611 608//608 607//607
f 611//611 607//607 610//610
f 613//613 610//610 609//609
f 613//613 609//609 612//612
f 614//614 611//611 610//610
f 614//614 610//610 613//613
f 616//616 613//613 612//612
f 616//616 612//612 615//615
f 617//617 614//614 613//613
f 617//617 613//613 616//616
f 619//619 616//616 615//615
f 619//619 615//615 618//618
f 620//620 617//617 616//616
f 620//620 616//616 619//619
f 622//622 619//619 618//618
f 622//622 618//618 621//621
f 623//623 620//620 619//619
f 623//623 619//619 622//622
f 625//625 622//622 621//621
f 625//625 621//621 624//624
f 626//626 623//623 622//622
f 626//626 622//622 625//625
f 628//628 625//625 624//624
f 628//628 624//624 627//627
f 629//629 626//626 625//625
f 629//629 625//625 628//628
f 631//631 628//628 627//627
f 631//631 627//627 630//630
f 632//632 629//629 628//628
f 632//632 628//628 631//631
f 634//634 631//631 630//630
f 634//634 630//630 633//633
f 635//635 632//632 631//631
f 635//635 631//631 634//634
f 637//637 634//634 633//633
f 637//637 633//633 636//636
f 638//638 635//635 634//634
f 638//638 634//634 637//637
f 640//640 637//637 636//636
f 640//640 636//636 639//639
f 641//641 638//638 637//637
f 641//641 637//637 640//640
f 643//643 640//640 639//639
f 643//643 639//639 642//642
f 662//662 641//641 640//640
f 643//643 644//644 662//662
f 640//640 643//643 662//662
f 663//663 661//661 641//641
f 663//663 641//641 662//662
f 648//648 663//663 662//662
f 648//648 662//662 644//644
f 664//664 654//654 665//665
f 653//653 655//655 654//654
f 654//654 656//656 651//651
f 654//654 651//651 657//657
f 657//657 653//653 654//654
f 657//657 651//651 650//650
f 652//652 653//653 657//657
f 650//650 652//652 657//657
f 660//660 658//658 648//648
f 660//660 648//648 659//659
f 651//651 660//660 659//659
f 651//651 659//659 650//650
f 659//659 648//648 644//644
f 649//649 650//650 659//659
f 644//644 649//649 659//659
f 358//358 672//672 359//359
f 673//673 357//357 356//356
f 673//673 358//358 357//357
f 600//600 355//355 354//354
f 603//603 600//600 353//353
f 603//603 353//353 352//352
f 600//600 354//354 353//353
f 600//600 356//356 355//355
f 673//673 356//356 600//600
f 603//603 352//352 351//351
f 603//603 351//351 350//350
f 600//600 601//601 674//674
f 600//600 674//674 673//673
f 603//603 350//350 349//349
f 606//606 603//603 349//349
f 606//606 349//349 348//348
f 347//347 606//606 348//348
f 673//673 672//672 358//358
f 606//606 346//346 345//345
f 609//609 606//606 344//344
f 609//609 344//344 343//343
f 606//606 345//345 344//344
f 342//342 609//609 343//343
f 339//339 612//612 340//340
f 341//341 609//609 342//342
f 340//340 609//609 341//341
f 336//336 675//675 337//337
f 337//337 615//615 338//338
f 339//339 338//338 612//612
f 676//676 677//677 334//334
f 335//335 334//334 677//677
f 678//678 675//675 336//336
f 678//678 336//336 335//335
f 677//677 678//678 335//335
f 677//677 624//624 621//621
f 677//677 621//621 678//678
f 675//675 615//615 337//337
f 676//676 627//627 624//624
f 676//676 624//624 677//677
f 678//678 621//621 618//618
f 678//678 618//618 675//675
f 347//347 346//346 606//606
f 671//671 672//672 673//673
f 671//671 673//673 674//674
f 670//670 671//671 674//674
f 670//670 674//674 679//679
f 679//679 674//674 601//601
f 679//679 601//601 602//602
f 605//605 496//496 495//495
f 605//605 495//495 602//602
f 679//679 602//602 495//495
f 679//679 495//495 494//494
f 494//494 670//670 679//679
f 611//611 498//498 497//497
f 611//611 497//497 608//608
f 498//498 611//611 614//614
f 498//498 614//614 499//499
f 608//608 497//497 496//496
f 608//608 496//496 605//605
f 338//338 615//615 612//612
f 617//617 500//500 499//499
f 617//617 499//499 614//614
f 618//618 615//615 675//675
f 500//500 617//617 620//620
f 500//500 620//620 501//501
f 501//501 620//620 623//623
f 501//501 623//623 502//502
f 626//626 503//503 502//502
f 626//626 502//502 623//623
f 626//626 661//661 503//503
f 629//629 661//661 626//626
f 612//612 609//609 340//340
f 680//680 630//630 627//627
f 680//680 627//627 676//676
f 680//680 334//334 681//681
f 333//333 681//681 334//334
f 630//630 680//680 681//681
f 630//630 681//681 633//633
f 639//639 682//682 683//683
f 639//639 683//683 642//642
f 684//684 333//333 682//682
f 332//332 682//682 333//333
f 684//684 636//636 633//633
f 684//684 633//633 681//681
f 682//682 639//639 636//636
f 682//682 636//636 684//684
f 333//333 684//684 681//681
f 644//644 643//643 668//668
f 661//661 635//635 638//638
f 661//661 632//632 635//635
f 658//658 661//661 663//663
f 638//638 641//641 661//661
f 504//504 503//503 661//661
f 629//629 632//632 661//661
f 642//642 683//683 331//331
f 642//642 331//331 645//645
f 331//331 683//683 332//332
f 643//643 642//642 667//667
f 643//643 667//667 646//646
f 642//642 645//645 667//667
f 668//668 643//643 646//646
f 656//656 658//658 660//660
f 648//648 658//658 663//663
f 649//649 668//668 669//669
f 650//650 649//649 652//652
f 669//669 652//652 649//649
f 652//652 669//669 655//655
f 644//644 668//668 649//649
f 683//683 682//682 332//332
f 658//658 504//504 661//661
f 504//504 658//658 505//505
f 656//656 660//660 651//651
f 505//505 656//656 506//506
f 505//505 658//658 656//656
f 664//664 656//656 654//654
f 507//507 506//506 664//664
f 506//506 656//656 664//664
f 507//507 664//664 666//666
f 507//507 666//666 508//508
f 509//509 666//666 510//510
f 666//666 509//509 508//508
f 652//652 655//655 653//653
f 655//655 665//665 654//654
f 655//655 669//669 665//665
f 647//647 666//666 664//664
f 666//666 647//647 510//510
f 664//664 665//665 669//669
f 669//669 647//647 664//664
f 680//680 676//676 334//334
f 689//689 688//688 685//685
f 689//689 685//685 686//686
f 690//690 689//689 686//686
f 690//690 686//686 687//687
f 692//692 691//691 688//688
f 692//692 688//688 689//689
f 693//693 692//692 689//689
f 693//693 689//689 690//690
f 685//685 360//360 581//581
f 685//685 581//581 582//582
f 688//688 405//405 685//685
f 360//360 685//685 405//405
f 688//688 691//691 406//406
f 688//688 406//406 405//405
f 686//686 685//685 582//582
f 686//686 583//583 584//584
f 687//687 584//584 560//560
f 561//561 462//462 687//687
f 561//561 687//687 560//560
f 462//462 463//463 690//690
f 462//462 690//690 687//687
f 686//686 584//584 687//687
f 686//686 582//582 583//583
f 691//691 417//417 407//407
f 691//691 407//407 406//406
f 418//418 691//691 692//692
f 692//692 419//419 418//418
f 691//691 418//418 417//417
f 420//420 419//419 692//692
f 463//463 464//464 693//693
f 463//463 693//693 690//690
f 464//464 411//411 421//421
f 464//464 421//421 693//693
f 420//420 693//693 421//421
f 693//693 420//420 692//692
f 698//698 695//695 694//694
f 698//698 694//694 697//697
f 699//699 696//696 695//695
f 699//699 695//695 698//698
f 701//701 698//698 697//697
f 701//701 697//697 700//700
f 702//702 699//699 698//698
f 702//702 698//698 701//701
f 694//694 645//645 331//331
f 694//694 667//667 645//645
f 697//697 694//694 410//410
f 331//331 410//410 694//694
f 697//697 410//410 409//409
f 697//697 409//409 700//700
f 695//695 667//667 694//694
f 695//695 668//668 646//646
f 696//696 669//669 668//668
f 647//647 669//669 696//696
f 647//647 696//696 491//491
f 491//491 696//696 699//699
f 491//491 699//699 492//492
f 695//695 696//696 668//668
f 695//695 646//646 667//667
f 700//700 409//409 408//408
f 700//700 408//408 426//426
f 701//701 700//700 426//426
f 701//701 426//426 425//425
f 701//701 425//425 424//424
f 423//423 701//701 424//424
f 492//492 699//699 702//702
f 492//492 702//702 493//493
f 493//493 702//702 422//422
f 493//493 422//422 416//416
f 423//423 422//422 702//702
f 702//702 701//701 423//423
f 707//707 706//706 703//703
f 707//707 703//703 704//704
f 708//708 707//707 704//704
f 708//708 704//704 705//705
f 710//710 709//709 706//706
f 710//710 706//706 707//707
f 711//711 710//710 707//707
f 711//711 707//707 708//708
f 429//429 703//703 440//440
f 429//429 440//440 413//413
f 703//703 706//706 441//441
f 703//703 441//441 440//440
f 703//703 429//429 428//428
f 703//703 428//428 704//704
f 427//427 705//705 704//704
f 427//427 704//704 428//428
f 412//412 465//465 705//705
f 412//412 705//705 427//427
f 465//465 466//466 708//708
f 465//465 708//708 705//705
f 442//442 441//441 706//706
f 442//442 706//706 709//709
f 709//709 713//713 437//437
f 709//709 437//437 442//442
f 710//710 712//712 713//713
f 710//710 713//713 709//709
f 466//466 711//711 708//708
f 484//484 711//711 466//466
f 712//712 710//710 711//711
f 712//712 711//711 714//714
f 711//711 484//484 714//714
f 719//719 716//716 715//715
f 719//719 715//715 718//718
f 720//720 717//717 716//716
f 720//720 716//716 719//719
f 722//722 719//719 718//718
f 722//722 718//718 721//721
f 723//723 720//720 719//719
f 723//723 719//719 722//722
f 430//430 414//414 436//436
f 430//430 436//436 715//715
f 435//435 718//718 715//715
f 435//435 715//715 436//436
f 718//718 435//435 434//434
f 718//718 434//434 721//721
f 715//715 716//716 431//431
f 715//715 431//431 430//430
f 432//432 431//431 716//716
f 432//432 716//716 717//717
f 415//415 432//432 717//717
f 415//415 717//717 488//488
f 488//488 717//717 720//720
f 488//488 720//720 489//489
f 721//721 434//434 433//433
f 721//721 433//433 724//724
f 722//722 721//721 724//724
f 722//722 724//724 725//725
f 723//723 722//722 725//725
f 723//723 725//725 726//726
f 489//489 720//720 723//723
f 489//489 723//723 490//490
f 726//726 511//511 490//490
f 726//726 490//490 723//723
f 731//731 730//730 727//727
f 731//731 727//727 728//728
f 732//732 731//731 728//728
f 732//732 728//728 729//729
f 734//734 733//733 730//730
f 734//734 730//730 731//731
f 735//735 734//734 731//731
f 735//735 731//731 732//732
f 713//713 452//452 437//437
f 727//727 452//452 713//713
f 730//730 454//454 453//453
f 730//730 453//453 727//727
f 452//452 727//727 453//453
f 712//712 728//728 727//727
f 712//712 727//727 713//713
f 714//714 729//729 728//728
f 714//714 728//728 712//712
f 484//484 485//485 729//729
f 484//484 729//729 714//714
f 485//485 486//486 732//732
f 485//485 732//732 729//729
f 454//454 730//730 733//733
f 454//454 733//733 455//455
f 733//733 456//456 455//455
f 587//587 456//456 733//733
f 456//456 587//587 366//366
f 587//587 733//733 734//734
f 587//587 734//734 586//586
f 486//486 487//487 735//735
f 486//486 735//735 732//732
f 585//585 735//735 487//487
f 585//585 487//487 467//467
f 735//735 585//585 586//586
f 735//735 586//586 734//734
f 740//740 737//737 736//736
f 740//740 736//736 739//739
f 741//741 738//738 737//737
f 741//741 737//737 740//740
f 743//743 740//740 739//739
f 743//743 739//739 742//742
f 744//744 741//741 740//740
f 744//744 740//740 743//743
f 724//724 433//433 461//461
f 736//736 724//724 461//461
f 739//739 736//736 460//460
f 739//739 460//460 459//459
f 461//461 460//460 736//736
f 725//725 724//724 736//736
f 725//725 736//736 737//737
f 726//726 725//725 737//737
f 726//726 737//737 738//738
f 511//511 726//726 738//738
f 511//511 738//738 512//512
f 512//512 738//738 741//741
f 512//512 741//741 513//513
f 739//739 459//459 458//458
f 742//742 458//458 457//457
f 672//672 742//742 457//457
f 457//457 359//359 672//672
f 672//672 671//671 743//743
f 672//672 743//743 742//742
f 513//513 741//741 744//744
f 513//513 744//744 514//514
f 670//670 494//494 514//514
f 670//670 514//514 744//744
f 744//744 743//743 671//671
f 744//744 671//671 670//670
f 458//458 742//742 739//739
