# Created by Open3D 
# object name: InfoWheels Bench DS 52in Center
# number of vertices: 742
# number of triangles: 1496
v 75.3588 -17.515 -18.3713
vn -0.973986 -0.0288233 0.224766
v 75.3588 -17.515 -24.8713
vn -0.993382 -0.00734931 -0.114621
v 75.3588 33.1725 -18.3713
vn -0.998313 0.00738579 0.057595
v 75.3588 33.1725 -24.8713
vn -0.99298 0.0293853 -0.114575
v 76.1088 33.1725 -18.3713
vn 0.973986 0.0288233 0.224766
v 76.1088 33.1725 -24.8713
vn 0.993382 0.00734931 -0.114621
v 76.1088 -17.515 -18.3713
vn 0.998313 -0.00738579 0.057595
v 76.1088 -17.515 -24.8713
vn 0.99298 -0.0293853 -0.114575
v 75.3588 33.1725 -23.6213
vn 0.0802428 0.0291882 0.996348
v 75.3588 -17.515 -23.6213
vn 0.020128 -0.0146431 0.99969
v 56.7338 33.1725 -23.6213
vn -0.0201296 0.00739657 0.99977
v 56.7338 -17.515 -23.6213
vn -0.0802683 -0.0147472 0.996664
v 56.7338 33.1725 -24.3713
vn -1 0 0
v 56.7338 -17.515 -24.3713
vn -1 0 0
v 57.1088 33.1725 -24.3713
vn 0 0.0298838 -0.999553
v 57.1088 -17.515 -24.3713
vn 0 -0.0149469 -0.999888
v 75.3588 33.1725 -24.3713
vn 0.020543 0.00739651 -0.999762
v 75.3588 -17.515 -24.3713
vn 0.0819067 -0.0147452 -0.996531
v 66.4838 33.1725 -36.3713
vn 0.274693 0.0142258 -0.961427
v 66.4838 33.1725 -35.6213
vn 0.141361 0.0292831 0.989525
v 61.2338 33.1725 -36.3713
vn -0.0712393 0.0147573 -0.99735
v 61.2338 33.1725 -35.6213
vn -0.141418 0.00732372 0.989923
v 61.2338 -17.515 -36.3713
vn -0.274693 -0.0142258 -0.961427
v 61.2338 -17.515 -35.6213
vn -0.141361 -0.0292831 0.989525
v 66.4838 -17.515 -36.3713
vn 0.0712393 -0.0147573 -0.99735
v 66.4838 -17.515 -35.6213
vn 0.141418 -0.00732372 0.989923
v 54.9211 -17.515 -20.4234
vn -0.933723 0.00377363 -0.357976
v 54.9211 7.82879 -20.4234
vn -0.931314 0 -0.364217
v 54.9211 33.1725 -20.4234
vn -0.932502 -0.00689108 -0.361099
v 54.8298 33.1725 -20.0764
vn -0.995644 0 -0.0932353
v 54.8248 -17.515 -19.7067
vn -0.999781 -0.0182454 -0.0102496
v 54.8248 33.1725 -19.7067
vn -0.988617 0 0.150456
v 54.9104 -17.515 -19.347
vn -0.951293 3.99502e-18 0.308289
v 54.9104 33.1725 -19.347
vn -0.923344 0 0.383973
v 55.0752 -17.515 -19.0282
vn -0.848766 0 0.528769
v 55.0752 33.1725 -19.0282
vn -0.804165 0 0.594406
v 55.3109 -17.515 -18.7576
vn -0.696889 -1.51325e-18 0.717179
v 55.3109 33.1725 -18.7576
vn -0.636687 1.4982e-18 0.771122
v 55.6139 -17.515 -18.5457
vn -0.503589 0 0.863944
v 55.6139 33.1725 -18.5457
vn -0.43124 0 0.902237
v 55.9595 -17.515 -18.4143
vn -0.279856 0 0.960042
v 55.9595 33.1725 -18.4143
vn -0.201635 0 0.979461
v 56.3158 -17.515 -18.3713
vn -0.00420967 6.16894e-05 0.999991
v 56.3158 7.82879 -18.3713
vn -0.00161774 0 0.999999
v 56.3158 33.1725 -18.3713
vn -0.00215774 -2.1577e-17 0.999998
v 54.8298 7.82879 -20.0764
vn -0.988607 -0.000500172 -0.150522
v 54.8248 7.82879 -19.7067
vn -0.99395 0 0.109833
v 54.9104 7.82879 -19.347
vn -0.938152 0 0.346224
v 55.0752 7.82879 -19.0282
vn -0.827117 0 0.56203
v 55.3109 7.82879 -18.7576
vn -0.667183 0 0.744894
v 55.6139 7.82879 -18.5457
vn -0.467806 0 0.883831
v 55.9595 7.82879 -18.4143
vn -0.241136 0 0.970491
v 75.9838 -17.515 -18.3713
vn 0.00108046 9.44878e-18 0.999999
v 75.9838 33.1725 -18.3713
vn 0.00108046 -9.44879e-18 0.999999
v 66.4838 -17.515 -36.4963
vn 0.00928186 -0.00959859 -0.999911
v 66.4838 33.1725 -36.4963
vn 0.00664217 0.00686882 -0.999954
v 61.5736 -17.515 -36.4963
vn -0.00811612 -0.0244769 -0.999667
v 61.5736 33.1725 -36.4963
vn -0.00417355 0.0251738 -0.999674
v 61.5736 -4.84308 -36.4963
vn -0.00211758 0 -0.999998
v 61.5736 7.82879 -36.4963
vn -0.00617441 0 -0.999981
v 61.5736 20.5007 -36.4963
vn -0.0061744 0 -0.999981
v 61.1087 -17.515 -36.1804
vn -0.654201 -0.711009 -0.257852
v 61.1087 33.1725 -36.1804
vn -0.881506 0.320199 -0.347017
v 61.1087 20.5007 -36.1804
vn -0.930114 0 -0.367272
v 61.1087 7.82879 -36.1804
vn -0.930114 0 -0.367272
v 61.1087 -4.84308 -36.1804
vn -0.930457 0 -0.3664
v 75.9838 -17.515 -24.8713
vn 0.474355 0 -0.880334
v 66.4838 -17.515 -24.8713
vn 0.882878 0.105455 -0.457609
v 61.4298 -17.515 -36.4752
vn -0.340859 -0.00115133 -0.940114
v 61.2925 -17.515 -36.4099
vn -0.603851 -0.00454797 -0.797084
v 61.1813 -17.515 -36.3063
vn -0.81094 -0.00992353 -0.585045
v 75.9838 33.1725 -24.8713
vn 0.733057 0 -0.680167
v 66.4838 33.1725 -24.8713
vn 0.691932 -0.0826404 -0.717217
v 61.4298 33.1725 -36.4752
vn -0.245272 0.00116911 -0.969453
v 61.2925 33.1725 -36.4099
vn -0.518915 0.00454745 -0.854814
v 61.1813 33.1725 -36.3063
vn -0.748587 0.00977387 -0.662964
v 61.4298 20.5007 -36.4752
vn -0.314165 0 -0.949368
v 61.2925 20.5007 -36.4099
vn -0.603858 0 -0.797092
v 61.1813 20.5007 -36.3063
vn -0.798999 0 -0.601333
v 61.4298 7.82879 -36.4752
vn -0.293799 0 -0.955867
v 61.2925 7.82879 -36.4099
vn -0.562128 0 -0.82705
v 61.1813 7.82879 -36.3063
vn -0.780537 0 -0.62511
v 61.4298 -4.84308 -36.4752
vn -0.264839 0 -0.964293
v 61.2925 -4.84308 -36.4099
vn -0.51892 0 -0.854823
v 61.1813 -4.84308 -36.3063
vn -0.767021 0 -0.641622
v 71.7914 -17.8275 -17.3156
vn -0.999673 -0.00401082 0.0252647
v 71.7914 7.8288 -17.3156
vn -0.998907 0 0.0467505
v 71.7914 33.485 -17.3156
vn -0.999673 0.00401084 0.0252647
v 72.2613 33.485 -10.3654
vn -0.996626 0.00046994 0.0820747
v 72.9058 33.485 -4.38692
vn -0.989845 0.00181459 0.142137
v 73.7767 -17.8275 -0.199242
vn -0.944077 -5.01361e-05 0.329726
v 74.9258 -17.8275 1.37865
vn -0.036052 -0.00049452 0.99935
v 74.9258 33.485 1.37865
vn -0.0427665 0.000934467 0.999085
v 74.7652 33.485 1.35213
vn -0.315208 -0.000614341 0.949022
v 74.6096 33.485 1.27363
vn -0.606546 -0.00092331 0.795048
v 74.3132 33.485 0.967115
vn -0.827888 -0.000349825 0.560894
v 74.0359 33.485 0.47189
vn -0.915153 -0.000129807 0.403107
v 73.7767 33.485 -0.199242
vn -0.948821 0.000116243 0.315813
v 73.5349 33.485 -1.03349
vn -0.966599 -3.41032e-05 0.256293
v 73.4203 33.485 -1.50778
vn -0.974816 0.00319056 0.222989
v 73.3097 33.485 -2.01805
vn -0.979454 0.00133876 0.201664
v 73.2031 33.485 -2.56269
vn -0.983031 0.00277444 0.183421
v 73.1003 33.485 -3.14012
vn -0.985789 -0.000116622 0.16799
v 73.0012 33.485 -3.74873
vn -0.988049 0.00129395 0.154135
v 72.8139 33.485 -5.05309
vn -0.9921 0.00166183 0.125439
v 72.7255 33.485 -5.74564
vn -0.992513 0.000957047 0.122139
v 72.6404 33.485 -6.46297
vn -0.993502 0.00125806 0.113808
v 72.5585 33.485 -7.20349
vn -0.994336 0.0015299 0.106275
v 72.4798 33.485 -7.96558
vn -0.995037 0.00177441 0.0994927
v 72.4041 33.485 -8.74766
vn -0.995604 0.00512054 0.0935216
v 72.3313 33.485 -9.54813
vn -0.995781 0.000204791 0.0917645
v 72.1941 33.485 -11.1978
vn -0.996931 0.000796826 0.0782861
v 72.1295 33.485 -12.0438
vn -0.997246 0.00132573 0.0741589
v 72.0674 33.485 -12.9018
vn -0.997568 0.000462977 0.069702
v 72.0078 33.485 -13.7702
vn -0.997796 0.000452866 0.0663486
v 71.9504 33.485 -14.6474
vn -0.998145 0.000710902 0.06087
v 71.8953 33.485 -15.5317
vn -0.998196 0.00144513 0.0600222
v 71.8423 33.485 -16.4217
vn -0.998288 0.006448 0.0581348
v 71.7914 24.933 -17.3156
vn -0.999929 -0.000231886 0.0119361
v 71.7914 16.3809 -17.3156
vn -0.999343 -0.000106773 0.0362313
v 71.7914 -0.723287 -17.3156
vn -0.999764 9.84163e-05 0.0217236
v 71.7914 -9.27537 -17.3156
vn -0.999929 0.000231885 0.0119361
v 71.8423 -17.8275 -16.4217
vn -0.998288 -0.00644802 0.0581348
v 71.8953 -17.8275 -15.5317
vn -0.998196 -0.00144513 0.0600222
v 71.9504 -17.8275 -14.6474
vn -0.9981 -0.000590438 0.0616201
v 72.0078 -17.8275 -13.7702
vn -0.997726 -0.000454355 0.0674044
v 72.0674 -17.8275 -12.9018
vn -0.997481 -0.000464795 0.0709384
v 72.1295 -17.8275 -12.0438
vn -0.997242 -0.00263634 0.0741678
v 72.1941 -17.8275 -11.1978
vn -0.996931 -0.000399127 0.0782862
v 72.2613 -17.8275 -10.3654
vn -0.996491 -0.000472752 0.083694
v 72.3313 -17.8275 -9.54813
vn -0.995644 -0.000251666 0.0932348
v 72.4041 -17.8275 -8.74766
vn -0.995604 -0.00512058 0.0935215
v 72.4798 -17.8275 -7.96558
vn -0.995037 -0.00177441 0.0994927
v 72.5585 -17.8275 -7.20349
vn -0.994336 -0.0015299 0.106275
v 72.6404 -17.8275 -6.46297
vn -0.993502 -0.00125806 0.113808
v 72.7255 -17.8275 -5.74564
vn -0.992493 -6.98339e-05 0.122299
v 72.8139 -17.8275 -5.05309
vn -0.991281 -0.00602446 0.131627
v 72.9058 -17.8275 -4.38692
vn -0.989845 -0.00181459 0.142137
v 73.0012 -17.8275 -3.74873
vn -0.988049 -0.00129395 0.154135
v 73.1003 -17.8275 -3.14012
vn -0.985789 0.000116622 0.16799
v 73.2031 -17.8275 -2.56269
vn -0.983031 -0.00277445 0.183421
v 73.3097 -17.8275 -2.01805
vn -0.979454 -0.00133876 0.201664
v 73.4203 -17.8275 -1.50778
vn -0.974816 -0.00319058 0.222989
v 73.5349 -17.8275 -1.03349
vn -0.967034 2.67051e-05 0.254646
v 74.0359 -17.8275 0.47189
vn -0.898099 0.00012159 0.439793
v 74.3132 -17.8275 0.967115
vn -0.802968 0.000526248 0.596021
v 74.6096 -17.8275 1.27363
vn -0.606546 0.000923307 0.795048
v 74.7652 -17.8275 1.35213
vn -0.315208 0.000614341 0.949022
v 72.5585 7.8288 -7.20349
vn -0.994134 -9.89709e-06 0.108159
v 72.9058 7.8288 -4.38692
vn -0.989607 3.42422e-05 0.143801
v 73.3097 7.8288 -2.01805
vn -0.97877 0 0.204963
v 73.7767 7.8288 -0.199242
vn -0.960095 0.000441138 0.279674
v 74.0359 7.8288 0.47189
vn -0.9102 0 0.414168
v 74.6096 -9.80987 1.27363
vn -0.670123 0 0.74225
v 74.3132 7.8288 0.967115
vn -0.808827 0 0.588047
v 74.7652 -9.80987 1.35213
vn -0.362519 0 0.931976
v 74.7652 25.4675 1.35213
vn -0.271444 0 0.962454
v 74.6096 25.4675 1.27363
vn -0.641339 0 0.767258
v 73.7767 17.4499 -0.199242
vn -0.955922 -0.000468091 0.29362
v 75.9838 -17.8275 1.37865
vn 0.967076 -0.000345783 0.254489
v 75.9838 33.485 1.37865
vn 0.687477 0.000495122 0.726206
v 75.4548 -17.8275 1.37865
vn 0 -0.000681794 1
v 75.7193 -17.8275 1.37865
vn 5.58657e-16 -0.000681794 1
v 75.7193 33.485 1.37865
vn 2.79827e-16 0.000681792 1
v 75.4548 33.485 1.37865
vn 0 0.000545824 1
v 75.9838 -18.3275 0.878651
vn 0.999997 -0.0025192 4.68342e-06
v 75.9838 -18.3275 -17.8713
vn 0.999703 -0.0243788 -5.44159e-05
v 75.9838 -17.8275 -18.3713
vn 0.299702 -0.000325716 -0.954033
v 75.9838 33.485 -18.3713
vn 0.78407 0.00042305 -0.620673
v 75.9838 33.985 -17.8713
vn 0.99992 0.0126676 -2.81951e-05
v 75.9838 33.985 0.878651
vn 0.999988 0.0048492 8.98949e-06
v 75.9838 -18.0115 1.34354
vn 0.0938322 -0.440166 0.893
v 75.9838 -18.181 1.2322
vn 0.345529 -0.707739 0.616211
v 75.9838 -18.2923 1.0627
vn 0.618177 -0.744657 0.251683
v 75.9838 33.9499 1.0627
vn 0.618436 0.744547 0.251369
v 75.9838 33.8386 1.2322
vn 0.345676 0.707698 0.616175
v 75.9838 33.6691 1.34354
vn 0.0938891 0.440095 0.893029
v 75.9838 -18.2923 -18.0554
vn 0.245781 -0.86947 -0.428502
v 75.9838 -18.181 -18.2249
vn 0.121076 -0.651857 -0.748614
v 75.9838 -18.0115 -18.3362
vn 0.0320578 -0.319763 -0.946955
v 75.9838 33.6691 -18.3362
vn 0.0320717 0.319656 -0.946991
v 75.9838 33.8386 -18.2249
vn 0.121134 0.651853 -0.748608
v 75.9838 33.9499 -18.0554
vn 0.24593 0.869502 -0.428351
v 72.7898 -17.8275 -18.3713
vn -0.079372 -0.00303116 -0.99684
v 72.7898 33.485 -18.3713
vn -0.0338519 0.00466529 -0.999416
v 73.5883 33.485 -18.3713
vn 0 0.00401775 -0.999992
v 74.3868 33.485 -18.3713
vn 0 0.000431051 -1
v 75.1853 33.485 -18.3713
vn 0 0.000681598 -1
v 72.7898 -4.99933 -18.3713
vn -0.0408692 0 -0.999165
v 72.7898 7.8288 -18.3713
vn -0.0226993 0 -0.999742
v 72.7898 20.6569 -18.3713
vn -0.060342 -0.000123707 -0.998178
v 75.1853 -17.8275 -18.3713
vn 0 -0.0006816 -1
v 74.3868 -17.8275 -18.3713
vn 0 -0.000545669 -1
v 73.5883 -17.8275 -18.3713
vn 0 -0.00401777 -0.999992
v 72.3943 -4.99933 -18.2898
vn -0.372459 0.000329867 -0.928049
v 72.3943 7.8288 -18.2898
vn -0.39546 0 -0.918483
v 72.3943 20.6569 -18.2898
vn -0.426679 -0.000453265 -0.904403
v 72.0633 -17.8275 -18.0585
vn -0.783661 -0.00263007 -0.621183
v 72.0633 -4.99933 -18.0585
vn -0.740115 0.000256254 -0.67248
v 72.0633 7.8288 -18.0585
vn -0.726491 0 -0.687176
v 72.0633 20.6569 -18.0585
vn -0.712584 -0.00025606 -0.701586
v 72.0633 33.485 -18.0585
vn -0.664338 0.000946837 -0.747432
v 71.8507 -4.99933 -17.7151
vn -0.935936 0.000410249 -0.35217
v 71.8507 7.8288 -17.7151
vn -0.934838 0 -0.355074
v 71.8507 20.6569 -17.7151
vn -0.942079 -0.000350329 -0.33539
v 72.522 -17.8275 -18.3348
vn -0.267091 -0.00454561 -0.963661
v 72.2738 -17.8275 -18.2279
vn -0.540701 -0.002623 -0.84121
v 71.9058 -17.8275 -17.8388
vn -0.883998 -0.00267661 -0.467483
v 71.8129 -17.8275 -17.585
vn -0.981532 -0.00305308 -0.191271
v 71.8129 33.485 -17.585
vn -0.981532 0.00305308 -0.191271
v 71.9058 33.485 -17.8388
vn -0.869982 0.00262506 -0.493076
v 72.2738 33.485 -18.2279
vn -0.516566 0.00455063 -0.856236
v 72.522 33.485 -18.3348
vn -0.239559 0.00262021 -0.970878
v 74.9261 -18.3275 0.878432
vn 0.00337127 -0.982267 0.187456
v 75.1903 -18.3275 0.878651
vn -2.80899e-07 -0.999999 0.0010186
v 75.4548 -18.3275 0.878651
vn 0 -0.999999 0.00111561
v 75.7193 -18.3275 0.878651
vn 0 -0.999996 0.00277514
v 75.1853 -18.3275 -17.8713
vn 0 -0.999999 -0.00131479
v 74.3868 -18.3275 -17.8713
vn 0 -0.999997 -0.0025591
v 72.7898 -18.3275 -17.8713
vn -0.000412126 -0.999925 -0.012231
v 72.2906 -18.3275 -17.3435
vn -0.113764 -0.99349 0.0059598
v 72.5225 -18.3275 -13.5671
vn -0.0246838 -0.999694 0.00172767
v 72.8118 -18.3275 -9.79472
vn -0.0203394 -0.999791 0.00186988
v 73.1581 -18.3275 -6.34012
vn -0.0180179 -0.999835 0.00223928
v 73.5684 -18.3275 -3.37239
vn -0.00720936 -0.999973 0.00113692
v 73.7812 -18.3275 -2.20527
vn -0.0107443 -0.99994 0.00230526
v 74.0479 -18.3275 -1.04961
vn -0.00336233 -0.999994 0.000902957
v 74.2738 -18.3275 -0.288797
vn -0.0587201 -0.998081 0.0196684
v 74.4126 -18.3275 0.0829208
vn -0.0708833 -0.997015 0.0305888
v 74.5786 -18.3275 0.443222
vn -0.0781673 -0.995852 0.0465675
v 74.7057 -18.3275 0.655762
vn -0.0231721 -0.999588 0.0169086
v 74.7802 -18.3275 0.75466
vn -0.0441432 -0.99821 0.0403568
v 74.8673 -18.3275 0.842563
vn -0.018246 -0.999626 0.0203826
v 74.8921 -18.3275 0.861036
vn -0.0105029 -0.999807 0.0166115
v 74.919 -18.3275 0.876186
vn -0.00819175 -0.999855 0.0149364
v 74.9223 -18.3275 0.877599
vn -0.00329401 -0.999872 0.0156475
v 74.9268 -18.3275 0.877828
vn -1.25678e-06 -1 5.7999e-06
v 72.592 -18.3275 -17.8306
vn -0.00666782 -0.9999 -0.0124985
v 72.4265 -18.3275 -17.7149
vn -0.0128045 -0.999866 -0.0102254
v 72.3203 -18.3275 -17.5432
vn -0.161265 -0.985923 -0.0441496
v 75.1853 33.985 -17.8713
vn 0 0.999999 -0.00131105
v 74.3868 33.985 -17.8713
vn 0 0.999997 -0.00239664
v 73.5883 33.985 -17.8713
vn 0 0.999985 -0.00539226
v 72.7898 33.985 -17.8713
vn -0.000750893 0.999951 -0.0098581
v 74.9261 33.985 0.878432
vn 0.00355226 0.982364 0.186943
v 75.1903 33.985 0.878651
vn -2.80101e-07 0.999999 0.00101571
v 75.4548 33.985 0.878651
vn 0 0.999999 0.00111244
v 75.7193 33.985 0.878651
vn 0 0.999996 0.00276725
v 72.2906 33.985 -17.3435
vn -0.113444 0.993527 0.00594309
v 72.5225 33.985 -13.5671
vn -0.0364201 0.999333 0.00254911
v 72.8118 33.985 -9.79472
vn -0.0171038 0.999852 0.00157243
v 73.1581 33.985 -6.34012
vn -0.0179668 0.999836 0.00223292
v 73.5684 33.985 -3.37239
vn -0.00718888 0.999974 0.00113369
v 73.7812 33.985 -2.20527
vn -0.0107138 0.99994 0.00229871
v 74.0479 33.985 -1.04961
vn -0.00335278 0.999994 0.000900392
v 74.2738 33.985 -0.288797
vn -0.058554 0.998092 0.0196128
v 74.4126 33.985 0.0829208
vn -0.0706831 0.997032 0.0305024
v 74.5786 33.985 0.443222
vn -0.0779239 0.99588 0.0463825
v 74.7057 33.985 0.655762
vn -0.0229959 0.999595 0.0167577
v 74.7802 33.985 0.75466
vn -0.0418727 0.998387 0.0383331
v 74.8673 33.985 0.842563
vn -0.0194324 0.999584 0.0213349
v 74.8921 33.985 0.861036
vn -0.00623113 0.999942 0.00880598
v 74.919 33.985 0.876186
vn -5.82144e-13 1 1.06145e-12
v 74.9223 33.985 0.877599
vn -1.11803e-12 1 9.83663e-13
v 74.9268 33.985 0.877828
vn -5.76294e-16 1 -2.83351e-14
v 72.592 33.985 -17.8306
vn -0.00664888 0.9999 -0.012463
v 72.4265 33.985 -17.7149
vn -0.0127681 0.999866 -0.0101964
v 72.3203 33.985 -17.5432
vn -0.16082 0.986001 -0.0440277
v 72.0586 -18.0115 -13.5356
vn -0.904274 -0.422123 0.0640434
v 72.1697 -18.181 -13.5431
vn -0.655011 -0.754183 0.0465756
v 72.3388 -18.2923 -13.5546
vn -0.381783 -0.923853 0.0271486
v 72.3486 -18.0115 -9.75448
vn -0.91285 -0.400106 0.0813678
v 72.4595 -18.181 -9.76412
vn -0.706458 -0.705072 0.0615682
v 72.6284 -18.2923 -9.77879
vn -0.381447 -0.923834 0.0320785
v 72.6963 -18.0115 -6.28619
vn -0.909553 -0.401127 0.108673
v 72.8069 -18.181 -6.2991
vn -0.705861 -0.703558 0.082258
v 72.9753 -18.2923 -6.31877
vn -0.380488 -0.923809 0.0424931
v 73.1098 -18.0115 -3.29615
vn -0.91004 -0.389814 0.14097
v 73.2196 -18.181 -3.31441
vn -0.719942 -0.685632 0.107664
v 73.3868 -18.2923 -3.34221
vn -0.379044 -0.923734 0.055158
v 73.3254 -18.0115 -2.11334
vn -0.898655 -0.395814 0.189077
v 73.4346 -18.181 -2.13536
vn -0.692752 -0.70708 0.141891
v 73.6008 -18.2923 -2.16888
vn -0.375757 -0.923714 0.0745541
v 73.5984 -18.0115 -0.930838
vn -0.892101 -0.385826 0.235148
v 73.7061 -18.181 -0.959283
vn -0.694564 -0.697275 0.177166
v 73.8699 -18.2923 -1.00259
vn -0.372223 -0.923569 0.0920379
v 73.8337 -18.0115 -0.138871
vn -0.851987 -0.438738 0.285706
v 73.9391 -18.181 -0.174778
vn -0.688935 -0.690483 0.220461
v 74.0996 -18.2923 -0.229443
vn -0.366541 -0.923342 0.114398
v 73.9823 -18.0115 0.258853
vn -0.827784 -0.430638 0.359618
v 74.0853 -18.181 0.216718
vn -0.6539 -0.706479 0.270743
v 74.2422 -18.2923 0.152571
vn -0.356581 -0.923192 0.14341
v 74.1678 -18.0115 0.660849
vn -0.801546 -0.411143 0.434148
v 74.2662 -18.181 0.608728
vn -0.640614 -0.695101 0.326263
v 74.4159 -18.2923 0.529378
vn -0.30418 -0.939712 0.156254
v 74.3225 -18.0115 0.918818
vn -0.758995 -0.398194 0.515139
v 74.4142 -18.181 0.855817
vn -0.60857 -0.689367 0.392957
v 74.554 -18.2923 0.759903
vn -0.3624 -0.9035 0.22881
v 74.4245 -18.0115 1.05395
vn -0.674401 -0.390746 0.626498
v 74.5097 -18.181 0.982273
vn -0.535353 -0.705357 0.464617
v 74.6394 -18.2923 0.873147
vn -0.348396 -0.890784 0.291761
v 74.5741 -18.0115 1.2033
vn -0.612266 -0.383206 0.691581
v 74.6443 -18.181 1.1169
vn -0.505642 -0.674592 0.537821
v 74.7512 -18.2923 0.985375
vn -0.33648 -0.874489 0.349356
v 74.6339 -18.0115 1.24762
vn -0.467652 -0.376721 0.799614
v 74.6958 -18.181 1.15503
vn -0.378839 -0.70436 0.600299
v 74.7899 -18.2923 1.01408
vn -0.26779 -0.873757 0.406002
v 74.7401 -18.0115 1.30512
vn -0.356997 -0.375626 0.855253
v 74.783 -18.181 1.20239
vn -0.320049 -0.671298 0.668527
v 74.8482 -18.2923 1.046
vn -0.236471 -0.864467 0.443597
v 74.821 -18.0115 1.33214
vn -0.183986 -0.348979 0.918892
v 74.8462 -18.181 1.22332
vn -0.183781 -0.677081 0.712591
v 74.8847 -18.2923 1.05766
vn -0.148328 -0.843319 0.516538
v 74.9258 -18.0115 1.34354
vn -0.0295716 -0.285359 0.957965
v 74.9258 -18.181 1.2322
vn -0.0500213 -0.730746 0.680814
v 74.9057 -18.3191 0.966696
vn -0.0639967 -0.96746 0.244795
v 74.8955 -18.2923 1.05969
vn -0.0451518 -0.931034 0.362129
v 74.9114 -18.3191 0.967681
vn -0.0339485 -0.973923 0.224326
v 74.9193 -18.3254 0.922151
vn -0.0207159 -0.992851 0.117546
v 74.917 -18.3191 0.968478
vn 0.102638 -0.962464 0.251252
v 74.922 -18.3254 0.922683
vn -0.0244904 -0.993375 0.112277
v 74.9244 -18.327 0.900197
vn -0.018262 -0.997858 0.0628218
v 74.9237 -18.3254 0.923078
vn 0.606401 -0.777796 0.165264
v 74.9232 -18.327 0.899772
vn -0.054863 -0.996732 0.0592878
v 74.9205 -18.3254 0.92238
vn -0.0203526 -0.991959 0.12491
v 74.9162 -18.3254 0.921685
vn -0.0977381 -0.991018 0.0912701
v 74.908 -18.3191 0.967125
vn -0.0448669 -0.967929 0.247185
v 74.9175 -18.3254 0.92186
vn -0.0195647 -0.992646 0.119458
v 74.884 -18.3191 0.96013
vn -0.150962 -0.98188 0.114549
v 74.8593 -18.2923 1.05054
vn -0.154179 -0.865788 0.476067
v 74.8912 -18.3191 0.96309
vn -0.0767468 -0.970171 0.229953
v 74.9256 -18.3273 0.889215
vn 0.50653 -0.861299 0.0398929
v 74.9254 -18.327 0.900708
vn 0.919697 -0.385516 0.0743974
v 74.9259 -18.3274 0.884028
vn -0.0105981 -0.999729 0.020741
v 74.9258 -18.1011 1.29715
vn -0.023751 -0.548977 0.8355
v 74.9258 -18.2459 1.15226
vn -0.00485339 -0.835814 0.548991
v 74.9258 -18.2923 1.0627
vn 0.019427 -0.956656 0.290571
v 72.1068 -18.2923 -17.3332
vn -0.423725 -0.905704 0.0125308
v 71.9376 -18.181 -17.3238
vn -0.736002 -0.676858 0.0128578
v 71.8264 -18.0115 -17.3176
vn -0.934278 -0.356546 0.000198957
v 71.8932 -18.0115 -16.1579
vn -0.924814 -0.376225 0.0563347
v 72.0044 -18.181 -16.1645
vn -0.724299 -0.688043 0.0445831
v 73.8041 -17.8892 -0.128786
vn -0.939797 -0.18506 0.287288
v 74.2938 -17.8465 0.938477
vn -0.825729 -0.197474 0.528371
v 74.1381 -17.8657 0.676595
vn -0.87915 -0.166668 0.44645
v 73.9533 -17.8892 0.270688
vn -0.914713 -0.162303 0.370078
v 72.1736 -18.2923 -16.1745
vn -0.364714 -0.930846 0.0225738
v 74.3979 -17.8465 1.07632
vn -0.75151 -0.155283 0.641187
v 74.552 -17.8322 1.23052
vn -0.686649 -0.0934493 0.720958
v 74.7266 -17.8285 1.33751
vn -0.425875 -0.176691 0.887362
v 74.813 -17.8277 1.36645
vn -0.232195 -0.172138 0.957316
v 74.6145 -17.8322 1.27679
vn -0.530235 -0.187713 0.82681
v 72.0586 33.6691 -13.5356
vn -0.904312 0.422041 0.064046
v 72.1697 33.8386 -13.5431
vn -0.655011 0.754183 0.0465756
v 72.3388 33.9499 -13.5546
vn -0.38156 0.923946 0.0271328
v 72.3486 33.6691 -9.75448
vn -0.912891 0.400012 0.0813708
v 72.4595 33.8386 -9.76412
vn -0.706458 0.705072 0.0615682
v 72.6284 33.9499 -9.77879
vn -0.381224 0.923926 0.0320599
v 72.6963 33.6691 -6.28619
vn -0.909596 0.401029 0.108677
v 72.8069 33.8386 -6.2991
vn -0.705861 0.703558 0.082258
v 72.9753 33.9499 -6.31877
vn -0.380267 0.923901 0.0424684
v 73.1098 33.6691 -3.29615
vn -0.910083 0.389711 0.140976
v 73.2196 33.8386 -3.31441
vn -0.719942 0.685632 0.107664
v 73.3868 33.9499 -3.34221
vn -0.378823 0.923826 0.0551259
v 73.3254 33.6691 -2.11334
vn -0.898695 0.395721 0.189084
v 73.4346 33.8386 -2.13536
vn -0.692752 0.70708 0.141891
v 73.6008 33.9499 -2.16888
vn -0.375539 0.923807 0.0745108
v 73.5984 33.6691 -0.930838
vn -0.892133 0.385748 0.235152
v 73.7061 33.8386 -0.959283
vn -0.694564 0.697275 0.177166
v 73.8699 33.9499 -1.00259
vn -0.372007 0.923661 0.0919845
v 73.8337 33.6691 -0.138871
vn -0.851987 0.438738 0.285706
v 73.9391 33.8386 -0.174778
vn -0.688935 0.690483 0.220461
v 74.0996 33.9499 -0.229443
vn -0.36633 0.923434 0.114332
v 73.9823 33.6691 0.258853
vn -0.827784 0.430638 0.359618
v 74.0853 33.8386 0.216718
vn -0.6539 0.706479 0.270743
v 74.2422 33.9499 0.152571
vn -0.356377 0.923284 0.143327
v 74.1678 33.6691 0.660849
vn -0.801546 0.411143 0.434148
v 74.2662 33.8386 0.608728
vn -0.640614 0.695101 0.326263
v 74.4159 33.9499 0.529378
vn -0.303987 0.939798 0.156116
v 74.3225 33.6691 0.918818
vn -0.758995 0.398194 0.515139
v 74.4142 33.8386 0.855817
vn -0.60857 0.689367 0.392957
v 74.554 33.9499 0.759903
vn -0.3624 0.9035 0.22881
v 74.4245 33.6691 1.05395
vn -0.674401 0.390746 0.626498
v 74.5097 33.8386 0.982273
vn -0.535353 0.705357 0.464617
v 74.6394 33.9499 0.873147
vn -0.348396 0.890784 0.291761
v 74.5741 33.6691 1.2033
vn -0.612266 0.383206 0.691581
v 74.6443 33.8386 1.1169
vn -0.505642 0.674592 0.537821
v 74.7512 33.9499 0.985375
vn -0.33648 0.874489 0.349356
v 74.6339 33.6691 1.24762
vn -0.467652 0.376721 0.799614
v 74.6958 33.8386 1.15503
vn -0.378839 0.70436 0.600299
v 74.7899 33.9499 1.01408
vn -0.26779 0.873757 0.406002
v 74.7401 33.6691 1.30512
vn -0.356997 0.375626 0.855253
v 74.783 33.8386 1.20239
vn -0.320049 0.671298 0.668527
v 74.8482 33.9499 1.046
vn -0.236471 0.864467 0.443597
v 74.821 33.6691 1.33214
vn -0.183845 0.348978 0.918921
v 74.8462 33.8386 1.22332
vn -0.200231 0.678917 0.706384
v 74.8847 33.9499 1.05766
vn -0.175808 0.863406 0.472887
v 74.9258 33.8386 1.2322
vn -0.0182455 0.706965 0.707013
v 74.9258 33.9499 1.0627
vn 0.019597 0.956742 0.290276
v 74.9057 33.9767 0.966696
vn -0.0639967 0.96746 0.244795
v 74.8955 33.9499 1.05969
vn -0.0451518 0.931034 0.362129
v 74.9114 33.9767 0.967681
vn -0.0339485 0.973923 0.224326
v 74.9193 33.983 0.922151
vn -0.0204825 0.992978 0.116512
v 74.917 33.9767 0.968478
vn 0.102638 0.962464 0.251252
v 74.922 33.983 0.922683
vn -0.0241844 0.99354 0.110874
v 74.9244 33.9845 0.900197
vn -0.0177458 0.998018 0.0603679
v 74.9237 33.983 0.923078
vn 0.611136 0.774293 0.164264
v 74.9232 33.9845 0.899772
vn -0.0531334 0.996929 0.057523
v 74.9205 33.983 0.92238
vn -0.0202368 0.992035 0.124324
v 74.9162 33.983 0.921685
vn -0.0967845 0.991219 0.090101
v 74.908 33.9767 0.967125
vn -0.0448669 0.967929 0.247185
v 74.9175 33.983 0.92186
vn -0.0194242 0.992761 0.118522
v 74.884 33.9767 0.96013
vn -0.15071 0.98195 0.114285
v 74.8593 33.9499 1.05054
vn -0.154179 0.865788 0.476067
v 74.8912 33.9767 0.96309
vn -0.0767468 0.970171 0.229953
v 74.9256 33.9849 0.889215
vn 0.50426 0.862508 0.0424501
v 74.9254 33.9845 0.900708
vn 0.919154 0.386801 0.0744384
v 74.9259 33.985 0.884028
vn -0.00530011 0.999932 0.0103726
v 74.9258 33.6691 1.34354
vn -0.0295716 0.285359 0.957965
v 74.9258 33.7586 1.29715
vn -0.023751 0.548977 0.8355
v 74.9258 33.9035 1.15226
vn -0.0117586 0.835858 0.54882
v 72.1068 33.9499 -17.3332
vn -0.423561 0.905781 0.0125323
v 71.9376 33.8386 -17.3238
vn -0.736002 0.676858 0.0128578
v 71.8264 33.6691 -17.3176
vn -0.934317 0.356443 0.000203341
v 71.8932 33.6691 -16.1579
vn -0.924853 0.376129 0.0563372
v 72.0044 33.8386 -16.1645
vn -0.724299 0.688043 0.0445831
v 73.8041 33.5468 -0.128786
vn -0.939816 0.184965 0.287288
v 74.2938 33.5041 0.938477
vn -0.825739 0.197405 0.528381
v 74.1381 33.5233 0.676595
vn -0.87916 0.166568 0.446467
v 73.9533 33.5468 0.270688
vn -0.914729 0.162203 0.370083
v 72.1736 33.9499 -16.1745
vn -0.36447 0.930942 0.0225589
v 74.3979 33.5041 1.07632
vn -0.751512 0.155225 0.641198
v 74.552 33.4898 1.23052
vn -0.686664 0.0933799 0.720953
v 74.7266 33.4861 1.33751
vn -0.425881 0.176583 0.88738
v 74.813 33.4853 1.36645
vn -0.232127 0.172058 0.957347
v 74.6145 33.4898 1.27679
vn -0.530235 0.18764 0.826826
v 75.1903 -18.0115 1.34354
vn 0.00557782 -0.363674 0.93151
v 75.1903 -18.181 1.2322
vn 0.0133002 -0.730976 0.682273
v 75.1903 -18.2923 1.0627
vn 0.00754672 -0.934157 0.356783
v 75.4548 -18.0115 1.34354
vn 0 -0.38274 0.923856
v 75.4548 -18.181 1.2322
vn 0 -0.707157 0.707056
v 75.4548 -18.2923 1.0627
vn 0 -0.923829 0.382807
v 75.7193 -18.0115 1.34354
vn 1.62329e-16 -0.345471 0.93843
v 75.7193 -18.181 1.2322
vn 0 -0.656765 0.754096
v 75.7193 -18.2923 1.0627
vn 0 -0.912688 0.408657
v 75.1903 33.6691 1.34354
vn 0.00554735 0.363603 0.931538
v 75.1903 33.8386 1.2322
vn 0.0132643 0.730935 0.682318
v 75.1903 33.9499 1.0627
vn 0.00754756 0.934252 0.356534
v 75.4548 33.6691 1.34354
vn 0 0.382648 0.923894
v 75.4548 33.8386 1.2322
vn 0 0.707157 0.707056
v 75.4548 33.9499 1.0627
vn 0 0.923921 0.382584
v 75.7193 33.6691 1.34354
vn 1.62281e-16 0.345368 0.938467
v 75.7193 33.8386 1.2322
vn 0 0.656765 0.754096
v 75.7193 33.9499 1.0627
vn 0 0.912771 0.408472
v 75.1853 -18.0115 -18.3362
vn 0 -0.408513 -0.912753
v 75.1853 -18.181 -18.2249
vn 0 -0.754162 -0.656689
v 75.1853 -18.2923 -18.0554
vn 0 -0.938402 -0.345544
v 74.3868 -18.0115 -18.3362
vn 0 -0.382629 -0.923902
v 74.3868 -18.181 -18.2249
vn 0 -0.707107 -0.707107
v 74.3868 -18.2923 -18.0554
vn 0 -0.923848 -0.382759
v 73.5883 -18.0115 -18.3362
vn 0 -0.345369 -0.938467
v 73.5883 -18.181 -18.2249
vn 0 -0.656689 -0.754162
v 73.5883 -18.2923 -18.0554
vn 0 -0.923848 -0.382759
v 72.7898 -18.0115 -18.3362
vn -0.0519704 -0.419004 -0.906496
v 72.7898 -18.181 -18.2249
vn -0.0478758 -0.723764 -0.688385
v 72.7898 -18.2923 -18.0554
vn -0.0333858 -0.912719 -0.407222
v 75.1853 33.6691 -18.3362
vn 0 0.40843 -0.91279
v 75.1853 33.8386 -18.2249
vn 0 0.754162 -0.656689
v 75.1853 33.9499 -18.0554
vn 0 0.938505 -0.345266
v 74.3868 33.6691 -18.3362
vn 0 0.382536 -0.92394
v 74.3868 33.8386 -18.2249
vn 0 0.707107 -0.707107
v 74.3868 33.9499 -18.0554
vn 0 0.92394 -0.382536
v 73.5883 33.6691 -18.3362
vn 0 0.345266 -0.938505
v 73.5883 33.8386 -18.2249
vn 0 0.656689 -0.754162
v 73.5883 33.9499 -18.0554
vn 0 0.91279 -0.40843
v 72.7898 33.6691 -18.3362
vn -0.0519775 0.418921 -0.906534
v 72.7898 33.8386 -18.2249
vn -0.0478758 0.723764 -0.688385
v 72.7898 33.9499 -18.0554
vn -0.0255305 0.934021 -0.356304
v 72.4082 -18.0115 -18.2576
vn -0.356646 -0.432542 -0.828077
v 72.4522 -18.181 -18.1553
vn -0.262654 -0.747743 -0.60983
v 72.5192 -18.2923 -17.9996
vn -0.134638 -0.935168 -0.327618
v 72.0888 -18.0115 -18.0343
vn -0.673206 -0.403455 -0.619692
v 72.1697 -18.181 -17.9578
vn -0.507296 -0.698768 -0.504355
v 72.2928 -18.2923 -17.8414
vn -0.269172 -0.91673 -0.295216
v 71.8837 -18.0115 -17.703
vn -0.863412 -0.361347 -0.352062
v 71.9883 -18.181 -17.6647
vn -0.711662 -0.652423 -0.260541
v 72.1474 -18.2923 -17.6065
vn -0.399344 -0.904412 -0.15021
v 72.4082 33.6691 -18.2576
vn -0.356662 0.432458 -0.828114
v 72.4522 33.8386 -18.1553
vn -0.262654 0.747743 -0.60983
v 72.5192 33.9499 -17.9996
vn -0.134548 0.935269 -0.327368
v 72.0888 33.6691 -18.0343
vn -0.685064 0.393835 -0.612847
v 72.1697 33.8386 -17.9578
vn -0.507296 0.698768 -0.504355
v 72.2928 33.9499 -17.8414
vn -0.269034 0.916817 -0.295071
v 71.8837 33.6691 -17.703
vn -0.866908 0.384367 -0.317383
v 71.9883 33.8386 -17.6647
vn -0.711662 0.652423 -0.260541
v 72.1474 33.9499 -17.6065
vn -0.399197 0.904488 -0.150146
v 54.9211 -17.765 -20.4234
vn -0.924082 -0.135935 -0.357203
v 54.9211 -17.64 -20.4234
vn -0.931364 8.06668e-05 -0.364089
v 54.8298 -17.515 -20.0764
vn -0.109803 0.993901 -0.0102384
v 56.3158 -17.765 -18.3713
vn -0.00450644 -0.113183 0.993564
v 56.3158 -17.64 -18.3713
vn -0.00252746 0.000396113 0.999997
v 54.8456 -17.765 -20.1691
vn -0.967919 -0.134765 -0.212064
v 54.8162 -17.765 -19.9055
vn -0.993649 -0.111004 -0.0184537
v 54.8336 -17.765 -19.6408
vn -0.976684 -0.110846 0.183852
v 54.8974 -17.765 -19.3834
vn -0.920955 -0.149458 0.359868
v 55.0055 -17.765 -19.1412
vn -0.872663 -0.0971132 0.47857
v 55.1546 -17.765 -18.9218
vn -0.760928 -0.113064 0.638909
v 55.34 -17.765 -18.7321
vn -0.615684 -0.111212 0.780106
v 55.5559 -17.765 -18.578
vn -0.503373 -0.112663 0.856693
v 55.7956 -17.765 -18.4644
vn -0.348432 -0.110868 0.930754
v 56.0516 -17.765 -18.3948
vn -0.152898 -0.113103 0.981748
v 54.8298 -17.64 -20.0764
vn -0.985801 0.0196099 -0.166767
v 54.9104 -17.64 -19.347
vn -0.945932 0.0215496 0.323648
v 54.8248 -17.64 -19.7067
vn -0.996363 0.020816 0.0826335
v 55.0752 -17.64 -19.0282
vn -0.838497 0.0220136 0.544461
v 55.3109 -17.64 -18.7576
vn -0.68909 0.0168653 0.72448
v 55.6139 -17.64 -18.5457
vn -0.493289 0.0223095 0.869579
v 55.9595 -17.64 -18.4143
vn -0.264337 0.0222751 0.964173
v 75.9838 -17.765 -18.3713
vn 0.679148 -0.0830771 0.729285
v 61.2328 -17.765 -18.3713
vn 0 -0.130544 0.991443
v 66.1498 -17.765 -18.3713
vn 0 -0.0628451 0.998023
v 71.0668 -17.765 -18.3713
vn 0 -0.0998783 0.995
v 75.9838 -18.265 -24.8713
vn 0.0779717 -0.993591 -0.0818401
v 75.9838 -18.265 -18.8713
vn 0.0293722 -0.999552 0.00568956
v 75.9838 -17.949 -18.4065
vn 0.92751 -0.165267 0.335279
v 75.9838 -18.1185 -18.5178
vn 0.554087 -0.627809 0.546666
v 75.9838 -18.2298 -18.6873
vn 0.005202 -0.947322 0.320239
v 66.4838 -18.265 -24.8713
vn 0.0387498 -0.998232 -0.0450706
v 66.4838 -18.265 -35.9963
vn 0.0217743 -0.999762 -0.00123587
v 66.4838 -17.765 -36.4963
vn 0.993541 -0.00914746 -0.113105
v 66.4838 -18.2298 -36.1804
vn 0.0187829 -0.896826 -0.441984
v 66.4838 -18.1185 -36.3499
vn 0.976337 -0.142013 -0.163093
v 66.4838 -17.949 -36.4612
vn 0.99827 -0.0188103 -0.0557054
v 61.2338 -17.765 -36.4963
vn -0.895331 -0.0966639 -0.434785
v 61.2338 -17.515 -36.4963
vn -0.0320687 0.999253 -0.0215563
v 65.1581 -17.765 -36.4963
vn 0 -0.099598 -0.995028
v 63.8325 -17.765 -36.4963
vn 0 -0.0514957 -0.998673
v 62.5069 -17.765 -36.4963
vn 0.00110286 -0.0985065 -0.995136
v 58.109 -17.765 -28.5402
vn -0.929411 -0.0542859 -0.365032
v 56.515 -17.765 -24.4818
vn -0.922885 -0.130011 -0.362464
v 65.1581 -18.265 -35.9963
vn 0 -0.999906 -0.0136917
v 63.8325 -18.265 -35.9963
vn 0 -0.999921 -0.0125819
v 61.5736 -18.265 -35.9963
vn -0.00247263 -0.999938 -0.0108881
v 55.386 -18.265 -20.2394
vn -0.00475563 -0.999987 -0.00179712
v 55.3247 -18.265 -20.0044
vn -0.0391526 -0.999227 -0.00345283
v 55.3218 -18.265 -19.7616
vn -0.0467802 -0.998878 0.00732828
v 55.3776 -18.265 -19.5252
vn -0.054494 -0.99825 0.022972
v 55.4887 -18.265 -19.3092
vn -0.0612739 -0.997068 0.0458384
v 55.6486 -18.265 -19.1264
vn -0.0644069 -0.994802 0.0788654
v 55.8479 -18.265 -18.9876
vn -0.0580266 -0.990735 0.122787
v 56.0747 -18.265 -18.9008
vn -0.0337204 -0.985206 0.168022
v 56.3158 -18.265 -18.8713
vn -0.000108323 -0.999315 0.0369956
v 61.2328 -18.265 -18.8713
vn 0 -0.99999 0.00436801
v 66.1498 -18.265 -18.8713
vn 0 -0.999965 0.0084127
v 71.0668 -18.265 -18.8713
vn 0 -0.99999 0.00437364
v 60.1678 -18.265 -32.4165
vn -0.00341651 -0.999993 -0.00132806
v 58.5739 -18.265 -28.3575
vn -0.00551401 -0.999982 -0.00216537
v 56.9799 -18.265 -24.2984
vn -0.00357192 -0.999993 -0.00140269
v 54.8639 -17.949 -20.0663
vn -0.898404 -0.422971 -0.118177
v 54.9742 -18.1185 -20.0514
vn -0.655306 -0.750228 -0.0879326
v 55.1422 -18.2298 -20.0289
vn -0.346716 -0.93661 -0.0504969
v 54.8597 -17.949 -19.7105
vn -0.90983 -0.399454 0.112458
v 54.9704 -18.1185 -19.7227
vn -0.708777 -0.702016 0.069348
v 55.1389 -18.2298 -19.7413
vn -0.391294 -0.919886 0.0264225
v 54.9414 -17.949 -19.3643
vn -0.861807 -0.392054 0.321842
v 55.0459 -18.1185 -19.4028
vn -0.671122 -0.70205 0.238162
v 55.2049 -18.2298 -19.4615
vn -0.373389 -0.919886 0.119958
v 55.1042 -17.949 -19.0479
vn -0.768528 -0.376701 0.517167
v 55.1963 -18.1185 -19.1105
vn -0.593952 -0.702039 0.39289
v 55.3365 -18.2298 -19.2058
vn -0.333494 -0.919875 0.206424
v 55.3384 -17.949 -18.7801
vn -0.605296 -0.397737 0.689509
v 55.4127 -18.1185 -18.8631
vn -0.481735 -0.702035 0.524479
v 55.5258 -18.2298 -18.9893
vn -0.273916 -0.919869 0.280731
v 55.6303 -17.949 -18.5767
vn -0.428082 -0.378223 0.820788
v 55.6824 -18.1185 -18.6751
vn -0.341065 -0.702024 0.625169
v 55.7617 -18.2298 -18.8249
vn -0.198117 -0.919889 0.338457
v 55.9626 -17.949 -18.4497
vn -0.227264 -0.368565 0.901394
v 55.9895 -18.1185 -18.5577
vn -0.182332 -0.653922 0.734262
v 56.0303 -18.2298 -18.7222
vn -0.103605 -0.907889 0.406206
v 56.3158 -17.949 -18.4065
vn -0.00867359 -0.327055 0.944966
v 56.3158 -18.1185 -18.5178
vn -0.00483441 -0.662594 0.748963
v 56.3158 -18.2298 -18.6873
vn -0.00203706 -0.899729 0.436443
v 55.2148 -18.2298 -20.3071
vn -0.307319 -0.944399 -0.116897
v 55.0572 -18.1185 -20.3695
vn -0.620701 -0.747425 -0.236825
v 54.9537 -17.949 -20.4105
vn -0.840363 -0.435624 -0.322525
v 61.2328 -17.949 -18.4065
vn 0 -0.408698 0.91267
v 61.2328 -18.1185 -18.5178
vn 0 -0.754162 0.656689
v 61.2328 -18.2298 -18.6873
vn 0 -0.938365 0.345647
v 66.1498 -17.949 -18.4065
vn 0 -0.382852 0.92381
v 66.1498 -18.1185 -18.5178
vn 0 -0.707107 0.707107
v 66.1498 -18.2298 -18.6873
vn 0 -0.92381 0.382852
v 71.0668 -17.949 -18.4065
vn 0 -0.345647 0.938365
v 71.0668 -18.1185 -18.5178
vn 0 -0.656689 0.754162
v 71.0668 -18.2298 -18.6873
vn 0 -0.91267 0.408698
v 65.1581 -17.949 -36.4612
vn 0 -0.408514 -0.912752
v 65.1581 -18.1185 -36.3499
vn 0 -0.754162 -0.656689
v 65.1581 -18.2298 -36.1804
vn 0 -0.938403 -0.345543
v 63.8325 -17.949 -36.4612
vn 0 -0.382629 -0.923902
v 63.8325 -18.1185 -36.3499
vn 0 -0.707107 -0.707107
v 63.8325 -18.2298 -36.1804
vn 0 -0.923848 -0.382759
v 62.5069 -17.949 -36.4612
vn 0.00298257 -0.372059 -0.928204
v 62.5069 -18.1185 -36.3499
vn 0.00298033 -0.679424 -0.73374
v 62.5069 -18.2298 -36.1804
vn 0.00214041 -0.930401 -0.366538
v 61.2382 -17.8456 -36.4898
vn -0.663731 -0.201984 -0.720183
v 61.2524 -17.9284 -36.4689
vn -0.756037 -0.368914 -0.540657
v 61.2772 -18.0095 -36.4325
vn -0.67001 -0.570244 -0.475298
v 61.3123 -18.0845 -36.3809
vn -0.596175 -0.685433 -0.41804
v 61.3564 -18.1495 -36.3159
vn -0.485694 -0.805055 -0.340571
v 61.4074 -18.2011 -36.2409
vn -0.393013 -0.878866 -0.270437
v 61.4625 -18.2375 -36.1598
vn -0.245698 -0.954882 -0.166834
v 61.5188 -18.2584 -36.077
vn -0.146944 -0.986183 -0.076492
v 59.7356 -17.949 -32.5859
vn -0.8453 -0.419316 -0.331123
v 59.8391 -18.1185 -32.5453
vn -0.637131 -0.72933 -0.249284
v 59.9967 -18.2298 -32.4836
vn -0.3494 -0.927018 -0.136223
v 58.1416 -17.949 -28.5274
vn -0.876566 -0.336318 -0.344271
v 58.2451 -18.1185 -28.4867
vn -0.658389 -0.706868 -0.258574
v 58.4028 -18.2298 -28.4248
vn -0.356618 -0.923693 -0.140051
v 56.5477 -17.949 -24.469
vn -0.873523 -0.345339 -0.343073
v 56.6512 -18.1185 -24.4281
vn -0.70208 -0.656548 -0.275734
v 56.8088 -18.2298 -24.366
vn -0.380538 -0.91261 -0.149447
v 54.9211 33.4225 -20.4234
vn -0.923641 0.129614 -0.360677
v 61.2338 33.4225 -36.4963
vn -0.543557 0.0730333 -0.836189
v 61.2338 33.1725 -36.4963
vn -0.0320686 -0.999253 -0.0215563
v 58.109 33.4225 -28.5402
vn -0.928472 0.0704688 -0.364655
v 59.7029 33.4225 -32.5987
vn -0.9264 0.0982852 -0.363488
v 54.9211 33.2975 -20.4234
vn -0.931797 -0.000466153 -0.362978
v 66.4838 33.4225 -36.4963
vn 0.986949 0.0181694 -0.160004
v 63.8325 33.4225 -36.4963
vn 0 0.0456226 -0.998959
v 65.1581 33.4225 -36.4963
vn 0 0.0995687 -0.995031
v 66.4838 33.9225 -24.8713
vn 0.0400164 0.998928 -0.023274
v 66.4838 33.9225 -35.9963
vn 0.108951 0.994042 -0.0030852
v 66.4838 33.6066 -36.4612
vn 0.998173 0.0267024 -0.0542028
v 66.4838 33.7761 -36.3499
vn 0.976323 0.16314 -0.142054
v 66.4838 33.8874 -36.1804
vn 0.0193238 0.947301 -0.31976
v 75.9838 33.9225 -24.8713
vn 0.0771933 0.983757 -0.16206
v 75.9838 33.9225 -18.8713
vn 0.0285043 0.999533 0.0110187
v 75.9838 33.4225 -18.3713
vn 0.797472 0.0487644 0.601382
v 75.9838 33.8874 -18.6873
vn 0.00506818 0.897007 0.441986
v 75.9838 33.7761 -18.5178
vn 0.553974 0.546715 0.627865
v 75.9838 33.6066 -18.4065
vn 0.930943 0.116902 0.345946
v 56.3158 33.4225 -18.3713
vn -0.00490728 0.136853 0.990579
v 71.0668 33.4225 -18.3713
vn 0 0.0998501 0.995002
v 66.1498 33.4225 -18.3713
vn 0 0.0628339 0.998024
v 61.2328 33.4225 -18.3713
vn 0 0.130496 0.991449
v 56.3158 33.2975 -18.3713
vn -0.00144013 0 0.999999
v 56.0516 33.4225 -18.3948
vn -0.159078 0.134851 0.978013
v 55.7956 33.4225 -18.4644
vn -0.348434 0.110833 0.930758
v 55.5559 33.4225 -18.578
vn -0.530384 0.11079 0.840487
v 55.34 33.4225 -18.7321
vn -0.673626 0.14947 0.7238
v 55.1546 33.4225 -18.9218
vn -0.766252 0.0971341 0.635156
v 55.0055 33.4225 -19.1412
vn -0.874194 0.112986 0.472249
v 54.8974 33.4225 -19.3834
vn -0.951955 0.111128 0.285362
v 54.8336 33.4225 -19.6408
vn -0.981822 0.112733 0.152699
v 54.8162 33.4225 -19.9055
vn -0.993653 0.110969 -0.0184537
v 54.8456 33.4225 -20.1691
vn -0.969106 0.112952 -0.219261
v 55.9595 33.2975 -18.4143
vn -0.207956 -0.0198694 0.977936
v 55.3109 33.2975 -18.7576
vn -0.649046 -0.0215955 0.760443
v 55.6139 33.2975 -18.5457
vn -0.443434 -0.0212167 0.896056
v 55.0752 33.2975 -19.0282
vn -0.814966 -0.0220138 0.579091
v 54.9104 33.2975 -19.347
vn -0.927256 -0.0169091 0.374045
v 54.8248 33.2975 -19.7067
vn -0.990084 -0.0219633 0.138745
v 54.8298 33.2975 -20.0764
vn -0.993782 -0.021984 -0.109154
v 61.5736 33.9225 -35.9963
vn -0.0325039 0.999384 -0.0132414
v 62.5069 33.9225 -35.9963
vn 9.08789e-05 0.999972 -0.00743321
v 63.8325 33.9225 -35.9963
vn 0 0.999978 -0.00665182
v 65.1581 33.9225 -35.9963
vn 0 0.999999 -0.00128087
v 55.386 33.9225 -20.2394
vn -0.00847534 0.999959 -0.00329683
v 56.9799 33.9225 -24.2984
vn -0.00356177 0.999993 -0.00139872
v 58.5739 33.9225 -28.3575
vn -0.00364973 0.999992 -0.00143324
v 71.0668 33.9225 -18.8713
vn 0 0.99999 0.00436121
v 66.1498 33.9225 -18.8713
vn 0 0.999965 0.00838881
v 61.2328 33.9225 -18.8713
vn 0 0.999991 0.00435561
v 56.3158 33.9225 -18.8713
vn -0.000258944 0.99976 0.021888
v 56.0747 33.9225 -18.9008
vn -0.0486998 0.985294 0.163778
v 55.8479 33.9225 -18.9876
vn -0.0687403 0.990788 0.116682
v 55.6486 33.9225 -19.1264
vn -0.0711182 0.99483 0.0724927
v 55.4887 33.9225 -19.3092
vn -0.064993 0.997085 0.0399789
v 55.3776 33.9225 -19.5252
vn -0.0561904 0.99826 0.0178732
v 55.3218 33.9225 -19.7616
vn -0.0471235 0.998884 0.00304815
v 55.3247 33.9225 -20.0044
vn -0.0385616 0.999232 -0.00697781
v 56.5477 33.6066 -24.469
vn -0.860047 0.382391 -0.33778
v 56.6512 33.7761 -24.4281
vn -0.611362 0.754048 -0.240101
v 56.8088 33.8874 -24.366
vn -0.321522 0.938445 -0.126268
v 58.1416 33.6066 -28.5274
vn -0.860115 0.382217 -0.337806
v 58.2451 33.7761 -28.4867
vn -0.658405 0.706853 -0.258576
v 58.4028 33.8874 -28.4248
vn -0.356316 0.923828 -0.13993
v 59.7356 33.6066 -32.5859
vn -0.864123 0.372504 -0.338426
v 59.8391 33.7761 -32.5453
vn -0.681414 0.681584 -0.266681
v 59.9967 33.8874 -32.4836
vn -0.337457 0.932059 -0.131866
v 55.2148 33.8874 -20.3071
vn -0.406276 0.900133 -0.157162
v 55.0572 33.7761 -20.3695
vn -0.698472 0.663302 -0.268639
v 54.9537 33.6066 -20.4105
vn -0.863852 0.384988 -0.324875
v 61.2382 33.5032 -36.4898
vn -0.862724 0.188399 -0.469268
v 61.2524 33.586 -36.4689
vn -0.756037 0.368914 -0.540657
v 61.2772 33.6671 -36.4325
vn -0.67001 0.570244 -0.475298
v 61.3123 33.7421 -36.3809
vn -0.596175 0.685433 -0.41804
v 61.3564 33.8071 -36.3159
vn -0.485694 0.805055 -0.340571
v 61.4074 33.8587 -36.2409
vn -0.393013 0.878866 -0.270437
v 61.4625 33.8951 -36.1598
vn -0.245698 0.954882 -0.166834
v 61.5188 33.916 -36.077
vn -0.100963 0.989729 -0.101209
v 62.5069 33.6066 -36.4612
vn 0.0026941 0.419282 -0.907852
v 62.5069 33.7761 -36.3499
vn 0.00298109 0.728698 -0.684829
v 62.5069 33.8874 -36.1804
vn 0.00328686 0.926039 -0.377413
v 63.8325 33.6066 -36.4612
vn 0 0.336487 -0.941688
v 63.8325 33.7761 -36.3499
vn 0 0.707107 -0.707107
v 63.8325 33.8874 -36.1804
vn 0 0.92394 -0.382536
v 65.1581 33.6066 -36.4612
vn 0 0.345265 -0.938505
v 65.1581 33.7761 -36.3499
vn 0 0.656689 -0.754162
v 65.1581 33.8874 -36.1804
vn 0 0.912789 -0.408431
v 71.0668 33.6066 -18.4065
vn 0 0.408615 0.912707
v 71.0668 33.7761 -18.5178
vn 0 0.754162 0.656689
v 71.0668 33.8874 -18.6873
vn 0 0.938467 0.345369
v 66.1498 33.6066 -18.4065
vn 0 0.382759 0.923848
v 66.1498 33.7761 -18.5178
vn 0 0.707107 0.707107
v 66.1498 33.8874 -18.6873
vn 0 0.923902 0.382629
v 61.2328 33.6066 -18.4065
vn 0 0.345544 0.938402
v 61.2328 33.7761 -18.5178
vn 0 0.656689 0.754162
v 61.2328 33.8874 -18.6873
vn 0 0.912753 0.408513
v 56.3158 33.6066 -18.4065
vn -0.00642344 0.436411 0.899724
v 56.3158 33.7761 -18.5178
vn -0.00591086 0.748195 0.663452
v 56.3158 33.8874 -18.6873
vn -0.00322358 0.944811 0.327599
v 55.9626 33.6066 -18.4497
vn -0.220687 0.422945 0.878871
v 55.9895 33.7761 -18.5577
vn -0.159364 0.750201 0.641717
v 56.0303 33.8874 -18.7222
vn -0.0805805 0.936668 0.340821
v 55.6303 33.6066 -18.5767
vn -0.439404 0.399501 0.804564
v 55.6824 33.7761 -18.6751
vn -0.325342 0.701977 0.633546
v 55.7617 33.8874 -18.8249
vn -0.168468 0.919978 0.353919
v 55.3384 33.6066 -18.7801
vn -0.616424 0.392073 0.682862
v 55.4127 33.7761 -18.8631
vn -0.46846 0.702043 0.536359
v 55.5258 33.8874 -18.9893
vn -0.248856 0.919968 0.30287
v 55.1042 33.6066 -19.0479
vn -0.763815 0.376585 0.524185
v 55.1963 33.7761 -19.1105
vn -0.583916 0.702068 0.407606
v 55.3365 33.8874 -19.2058
vn -0.314537 0.919959 0.233968
v 54.9414 33.6066 -19.3643
vn -0.863956 0.397584 0.30904
v 55.0459 33.7761 -19.4028
vn -0.664982 0.70203 0.254858
v 55.2049 33.8874 -19.4615
vn -0.361631 0.919971 0.151253
v 54.8597 33.6066 -19.7105
vn -0.920817 0.377994 0.096001
v 54.9704 33.7761 -19.7227
vn -0.706756 0.702078 0.0870803
v 55.1389 33.8874 -19.7413
vn -0.387425 0.919971 0.0596257
v 54.8639 33.6066 -20.0663
vn -0.921873 0.368326 -0.120356
v 54.9742 33.7761 -20.0514
vn -0.749799 0.653966 -0.100648
v 55.1422 33.8874 -20.0289
vn -0.415615 0.907989 -0.053113
f 2//2 1//1 3//3
f 2//2 3//3 4//4
f 4//4 3//3 5//5
f 4//4 5//5 6//6
f 6//6 5//5 7//7
f 6//6 7//7 8//8
f 8//8 7//7 1//1
f 8//8 1//1 2//2
f 5//5 3//3 1//1
f 5//5 1//1 7//7
f 6//6 8//8 2//2
f 6//6 2//2 4//4
f 10//10 9//9 11//11
f 10//10 11//11 12//12
f 12//12 11//11 13//13
f 12//12 13//13 14//14
f 16//16 15//15 17//17
f 16//16 17//17 18//18
f 18//18 17//17 9//9
f 18//18 9//9 10//10
f 15//15 11//11 9//9
f 15//15 9//9 17//17
f 16//16 18//18 10//10
f 16//16 10//10 12//12
f 20//20 19//19 21//21
f 20//20 21//21 22//22
f 22//22 21//21 23//23
f 22//22 23//23 24//24
f 24//24 23//23 25//25
f 24//24 25//25 26//26
f 26//26 25//25 19//19
f 26//26 19//19 20//20
f 21//21 19//19 25//25
f 21//21 25//25 23//23
f 22//22 24//24 26//26
f 22//22 26//26 20//20
f 28//28 27//27 46//46
f 31//31 46//46 27//27
f 46//46 30//30 29//29
f 46//46 29//29 28//28
f 47//47 46//46 31//31
f 33//33 48//48 47//47
f 33//33 47//47 31//31
f 35//35 49//49 48//48
f 35//35 48//48 33//33
f 30//30 46//46 47//47
f 30//30 47//47 32//32
f 34//34 48//48 49//49
f 34//34 49//49 36//36
f 48//48 34//34 32//32
f 48//48 32//32 47//47
f 49//49 35//35 37//37
f 49//49 37//37 50//50
f 50//50 37//37 39//39
f 50//50 39//39 51//51
f 36//36 49//49 50//50
f 36//36 50//50 38//38
f 41//41 52//52 51//51
f 41//41 51//51 39//39
f 43//43 44//44 52//52
f 43//43 52//52 41//41
f 51//51 40//40 38//38
f 51//51 38//38 50//50
f 44//44 45//45 42//42
f 44//44 42//42 52//52
f 52//52 42//42 40//40
f 52//52 40//40 51//51
f 53//53 44//44 43//43
f 45//45 44//44 54//54
f 53//53 54//54 44//44
f 56//56 55//55 59//59
f 56//56 59//59 60//60
f 57//57 59//59 55//55
f 56//56 61//61 58//58
f 56//56 60//60 61//61
f 27//27 66//66 62//62
f 28//28 64//64 65//65
f 65//65 66//66 28//28
f 28//28 29//29 63//63
f 28//28 63//63 64//64
f 27//27 28//28 66//66
f 43//43 39//39 37//37
f 39//39 43//43 41//41
f 35//35 43//43 37//37
f 43//43 35//35 33//33
f 27//27 43//43 31//31
f 43//43 33//33 31//31
f 27//27 68//68 43//43
f 68//68 62//62 55//55
f 27//27 62//62 68//68
f 68//68 67//67 53//53
f 53//53 43//43 68//68
f 57//57 71//71 70//70
f 69//69 57//57 70//70
f 57//57 62//62 71//71
f 57//57 55//55 62//62
f 45//45 38//38 40//40
f 40//40 42//42 45//45
f 36//36 38//38 45//45
f 32//32 34//34 45//45
f 45//45 30//30 32//32
f 29//29 30//30 45//45
f 36//36 45//45 34//34
f 29//29 45//45 73//73
f 73//73 56//56 63//63
f 29//29 73//73 63//63
f 73//73 54//54 72//72
f 54//54 73//73 45//45
f 58//58 75//75 76//76
f 74//74 75//75 58//58
f 58//58 76//76 63//63
f 58//58 63//63 56//56
f 81//81 78//78 77//77
f 81//81 77//77 80//80
f 82//82 79//79 78//78
f 82//82 78//78 81//81
f 84//84 81//81 80//80
f 84//84 80//80 83//83
f 85//85 82//82 81//81
f 85//85 81//81 84//84
f 74//74 58//58 61//61
f 74//74 61//61 77//77
f 60//60 80//80 77//77
f 60//60 77//77 61//61
f 80//80 60//60 59//59
f 80//80 59//59 83//83
f 77//77 78//78 75//75
f 77//77 75//75 74//74
f 76//76 75//75 78//78
f 76//76 78//78 79//79
f 63//63 76//76 79//79
f 63//63 79//79 64//64
f 64//64 79//79 82//82
f 64//64 82//82 65//65
f 83//83 59//59 57//57
f 83//83 57//57 69//69
f 84//84 83//83 69//69
f 84//84 69//69 70//70
f 70//70 71//71 85//85
f 70//70 85//85 84//84
f 65//65 82//82 85//85
f 65//65 85//85 66//66
f 71//71 62//62 66//66
f 71//71 66//66 85//85
f 122//122 86//86 123//123
f 121//121 124//124 125//125
f 122//122 123//123 124//124
f 121//121 122//122 124//124
f 125//125 126//126 115//115
f 125//125 115//115 116//116
f 126//126 127//127 114//114
f 126//126 114//114 115//115
f 87//87 121//121 125//125
f 127//127 128//128 113//113
f 127//127 113//113 114//114
f 129//129 112//112 113//113
f 129//129 113//113 128//128
f 130//130 131//131 111//111
f 130//130 111//111 89//89
f 129//129 130//130 89//89
f 129//129 89//89 112//112
f 133//133 149//149 132//132
f 135//135 149//149 134//134
f 136//136 149//149 135//135
f 134//134 149//149 133//133
f 132//132 149//149 131//131
f 136//136 150//150 149//149
f 116//116 120//120 87//87
f 118//118 88//88 119//119
f 119//119 120//120 117//117
f 119//119 117//117 118//118
f 125//125 116//116 87//87
f 116//116 117//117 120//120
f 110//110 111//111 149//149
f 149//149 109//109 110//110
f 149//149 107//107 108//108
f 149//149 106//106 107//107
f 108//108 109//109 149//149
f 149//149 150//150 105//105
f 149//149 105//105 106//106
f 111//111 131//131 149//149
f 137//137 150//150 136//136
f 150//150 138//138 139//139
f 151//151 140//140 141//141
f 150//150 139//139 140//140
f 150//150 151//151 103//103
f 150//150 103//103 104//104
f 151//151 150//150 140//140
f 151//151 142//142 143//143
f 151//151 143//143 144//144
f 151//151 141//141 142//142
f 152//152 151//151 144//144
f 91//91 145//145 153//153
f 91//91 153//153 152//152
f 154//154 146//146 147//147
f 146//146 154//154 155//155
f 145//145 146//146 155//155
f 145//145 155//155 153//153
f 92//92 156//156 148//148
f 147//147 156//156 154//154
f 92//92 93//93 157//157
f 92//92 157//157 156//156
f 147//147 148//148 156//156
f 158//158 154//154 156//156
f 158//158 156//156 157//157
f 144//144 91//91 152//152
f 159//159 151//151 152//152
f 159//159 99//99 151//151
f 150//150 104//104 90//90
f 90//90 105//105 150//150
f 102//102 103//103 151//151
f 100//100 101//101 151//151
f 99//99 100//100 151//151
f 102//102 151//151 101//101
f 99//99 159//159 98//98
f 97//97 98//98 159//159
f 153//153 97//97 159//159
f 155//155 154//154 158//158
f 158//158 96//96 155//155
f 153//153 155//155 96//96
f 153//153 96//96 97//97
f 157//157 95//95 158//158
f 157//157 94//94 95//95
f 157//157 93//93 94//94
f 95//95 96//96 158//158
f 152//152 153//153 159//159
f 138//138 150//150 137//137
f 92//92 162//162 165//165
f 92//92 165//165 93//93
f 162//162 163//163 164//164
f 162//162 164//164 165//165
f 163//163 160//160 161//161
f 163//163 161//161 164//164
f 173//173 160//160 172//172
f 160//160 174//174 166//166
f 173//173 174//174 160//160
f 171//171 160//160 166//166
f 176//176 177//177 161//161
f 176//176 161//161 175//175
f 171//171 175//175 161//161
f 171//171 161//161 160//160
f 166//166 167//167 170//170
f 166//166 170//170 171//171
f 168//168 167//167 178//178
f 168//168 179//179 180//180
f 178//178 179//179 168//168
f 169//169 167//167 168//168
f 169//169 183//183 170//170
f 181//181 182//182 169//169
f 183//183 169//169 182//182
f 169//169 170//170 167//167
f 168//168 192//192 188//188
f 168//168 188//188 169//169
f 192//192 193//193 187//187
f 192//192 187//187 188//188
f 187//187 193//193 190//190
f 189//189 194//194 184//184
f 193//193 189//189 190//190
f 186//186 187//187 191//191
f 191//191 187//187 190//190
f 186//186 191//191 185//185
f 189//189 193//193 194//194
f 200//200 196//196 195//195
f 200//200 195//195 199//199
f 201//201 197//197 196//196
f 201//201 196//196 200//200
f 204//204 200//200 199//199
f 204//204 199//199 203//203
f 205//205 201//201 200//200
f 205//205 200//200 204//204
f 184//184 206//206 195//195
f 184//184 195//195 189//189
f 207//207 198//198 199//199
f 207//207 199//199 195//195
f 198//198 208//208 203//203
f 198//198 203//203 199//199
f 206//206 207//207 195//195
f 195//195 196//196 190//190
f 195//195 190//190 189//189
f 191//191 197//197 213//213
f 191//191 213//213 185//185
f 191//191 190//190 196//196
f 191//191 196//196 197//197
f 202//202 212//212 197//197
f 202//202 197//197 201//201
f 213//213 197//197 212//212
f 209//209 203//203 208//208
f 204//204 203//203 121//121
f 204//204 121//121 87//87
f 122//122 209//209 86//86
f 122//122 121//121 203//203
f 209//209 122//122 203//203
f 211//211 202//202 201//201
f 211//211 201//201 205//205
f 205//205 210//210 211//211
f 210//210 205//205 119//119
f 205//205 204//204 87//87
f 205//205 87//87 120//120
f 210//210 119//119 88//88
f 205//205 120//120 119//119
f 167//167 217//217 216//216
f 167//167 216//216 218//218
f 231//231 215//215 237//237
f 237//237 236//236 235//235
f 237//237 235//235 234//234
f 218//218 215//215 227//227
f 166//166 217//217 167//167
f 215//215 218//218 216//216
f 215//215 214//214 237//237
f 222//222 219//219 223//223
f 219//219 224//224 223//223
f 222//222 220//220 219//219
f 225//225 224//224 219//219
f 222//222 239//239 238//238
f 222//222 221//221 239//239
f 240//240 239//239 221//221
f 220//220 222//222 238//238
f 231//231 237//237 232//232
f 234//234 233//233 237//237
f 233//233 232//232 237//237
f 231//231 230//230 215//215
f 215//215 228//228 227//227
f 215//215 230//230 229//229
f 215//215 229//229 228//228
f 218//218 227//227 226//226
f 218//218 226//226 225//225
f 218//218 225//225 219//219
f 170//170 241//241 247//247
f 170//170 247//247 248//248
f 259//259 265//265 246//246
f 265//265 263//263 264//264
f 265//265 262//262 263//263
f 241//241 255//255 246//246
f 171//171 170//170 248//248
f 246//246 247//247 241//241
f 246//246 265//265 245//245
f 251//251 242//242 243//243
f 252//252 242//242 251//251
f 243//243 250//250 251//251
f 244//244 250//250 243//243
f 253//253 242//242 252//252
f 250//250 266//266 267//267
f 250//250 267//267 249//249
f 268//268 249//249 267//267
f 244//244 266//266 250//250
f 259//259 260//260 265//265
f 262//262 265//265 261//261
f 261//261 265//265 260//260
f 259//259 246//246 258//258
f 246//246 255//255 256//256
f 246//246 257//257 258//258
f 246//246 256//256 257//257
f 241//241 254//254 255//255
f 241//241 253//253 254//254
f 241//241 242//242 253//253
f 273//273 272//272 269//269
f 273//273 269//269 270//270
f 274//274 273//273 270//270
f 274//274 270//270 271//271
f 276//276 275//275 272//272
f 276//276 272//272 273//273
f 277//277 276//276 273//273
f 277//277 273//273 274//274
f 279//279 278//278 275//275
f 279//279 275//275 276//276
f 280//280 279//279 276//276
f 280//280 276//276 277//277
f 282//282 281//281 278//278
f 282//282 278//278 279//279
f 283//283 282//282 279//279
f 283//283 279//279 280//280
f 285//285 284//284 281//281
f 285//285 281//281 282//282
f 286//286 285//285 282//282
f 286//286 282//282 283//283
f 288//288 287//287 284//284
f 288//288 284//284 285//285
f 289//289 288//288 285//285
f 289//289 285//285 286//286
f 291//291 290//290 287//287
f 291//291 287//287 288//288
f 292//292 291//291 288//288
f 292//292 288//288 289//289
f 294//294 293//293 290//290
f 294//294 290//290 291//291
f 295//295 294//294 291//291
f 295//295 291//291 292//292
f 297//297 296//296 293//293
f 297//297 293//293 294//294
f 298//298 297//297 294//294
f 298//298 294//294 295//295
f 300//300 299//299 296//296
f 300//300 296//296 297//297
f 301//301 300//300 297//297
f 301//301 297//297 298//298
f 303//303 302//302 299//299
f 303//303 299//299 300//300
f 304//304 303//303 300//300
f 304//304 300//300 301//301
f 306//306 305//305 302//302
f 306//306 302//302 303//303
f 307//307 306//306 303//303
f 307//307 303//303 304//304
f 309//309 308//308 305//305
f 309//309 305//305 306//306
f 310//310 309//309 306//306
f 310//310 306//306 307//307
f 312//312 311//311 308//308
f 312//312 308//308 309//309
f 330//330 309//309 310//310
f 312//312 330//330 313//313
f 309//309 330//330 312//312
f 331//331 330//330 310//310
f 331//331 310//310 329//329
f 316//316 313//313 330//330
f 316//316 330//330 331//331
f 332//332 333//333 322//322
f 321//321 322//322 323//323
f 322//322 325//325 319//319
f 322//322 319//319 324//324
f 325//325 322//322 321//321
f 325//325 318//318 319//319
f 320//320 325//325 321//321
f 318//318 325//325 320//320
f 328//328 327//327 316//316
f 328//328 316//316 326//326
f 319//319 318//318 327//327
f 319//319 327//327 328//328
f 327//327 313//313 316//316
f 317//317 327//327 318//318
f 313//313 327//327 317//317
f 123//123 86//86 340//340
f 341//341 125//125 124//124
f 341//341 124//124 123//123
f 269//269 127//127 126//126
f 272//272 129//129 128//128
f 272//272 128//128 269//269
f 269//269 128//128 127//127
f 269//269 126//126 125//125
f 341//341 269//269 125//125
f 272//272 130//130 129//129
f 272//272 131//131 130//130
f 269//269 341//341 342//342
f 269//269 342//342 270//270
f 272//272 132//132 131//131
f 275//275 133//133 132//132
f 275//275 132//132 272//272
f 134//134 133//133 275//275
f 341//341 123//123 340//340
f 275//275 136//136 135//135
f 278//278 138//138 137//137
f 278//278 137//137 275//275
f 275//275 137//137 136//136
f 139//139 138//138 278//278
f 142//142 141//141 281//281
f 140//140 139//139 278//278
f 141//141 140//140 278//278
f 91//91 144//144 343//343
f 144//144 143//143 284//284
f 142//142 281//281 143//143
f 344//344 146//146 345//345
f 145//145 345//345 146//146
f 91//91 343//343 346//346
f 345//345 145//145 346//346
f 345//345 346//346 290//290
f 345//345 290//290 293//293
f 343//343 144//144 284//284
f 344//344 345//345 293//293
f 344//344 293//293 296//296
f 145//145 91//91 346//346
f 346//346 343//343 287//287
f 346//346 287//287 290//290
f 134//134 275//275 135//135
f 339//339 342//342 341//341
f 339//339 341//341 340//340
f 338//338 347//347 342//342
f 338//338 342//342 339//339
f 347//347 271//271 270//270
f 347//347 270//270 342//342
f 274//274 271//271 222//222
f 274//274 222//222 223//223
f 347//347 221//221 222//222
f 347//347 222//222 271//271
f 221//221 347//347 338//338
f 280//280 277//277 224//224
f 280//280 224//224 225//225
f 225//225 226//226 283//283
f 225//225 283//283 280//280
f 277//277 274//274 223//223
f 277//277 223//223 224//224
f 143//143 281//281 284//284
f 286//286 283//283 226//226
f 286//286 226//226 227//227
f 287//287 343//343 284//284
f 227//227 228//228 289//289
f 227//227 289//289 286//286
f 228//228 229//229 292//292
f 228//228 292//292 289//289
f 295//295 292//292 229//229
f 295//295 229//229 230//230
f 295//295 230//230 329//329
f 298//298 295//295 329//329
f 281//281 141//141 278//278
f 348//348 344//344 296//296
f 348//348 296//296 299//299
f 348//348 349//349 146//146
f 147//147 146//146 349//349
f 299//299 302//302 349//349
f 299//299 349//349 348//348
f 308//308 311//311 351//351
f 308//308 351//351 350//350
f 352//352 350//350 147//147
f 148//148 147//147 350//350
f 352//352 349//349 302//302
f 352//352 302//302 305//305
f 350//350 352//352 305//305
f 350//350 305//305 308//308
f 147//147 349//349 352//352
f 313//313 336//336 315//315
f 313//313 315//315 312//312
f 329//329 307//307 304//304
f 329//329 304//304 301//301
f 326//326 331//331 329//329
f 307//307 329//329 310//310
f 231//231 329//329 230//230
f 298//298 329//329 301//301
f 311//311 314//314 92//92
f 311//311 92//92 351//351
f 92//92 148//148 351//351
f 312//312 335//335 311//311
f 312//312 315//315 335//335
f 311//311 335//335 314//314
f 324//324 328//328 326//326
f 316//316 331//331 326//326
f 337//337 336//336 317//317
f 313//313 317//317 336//336
f 318//318 320//320 317//317
f 337//337 317//317 320//320
f 323//323 337//337 320//320
f 351//351 148//148 350//350
f 326//326 329//329 231//231
f 231//231 232//232 326//326
f 324//324 319//319 328//328
f 232//232 233//233 324//324
f 232//232 324//324 326//326
f 332//332 322//322 324//324
f 234//234 332//332 233//233
f 233//233 332//332 324//324
f 234//234 334//334 332//332
f 234//234 235//235 334//334
f 236//236 237//237 334//334
f 334//334 235//235 236//236
f 320//320 321//321 323//323
f 323//323 322//322 333//333
f 333//333 337//337 323//323
f 214//214 334//334 237//237
f 214//214 332//332 334//334
f 214//214 337//337 332//332
f 332//332 337//337 333//333
f 348//348 146//146 344//344
f 357//357 354//354 353//353
f 357//357 353//353 356//356
f 358//358 355//355 354//354
f 358//358 354//354 357//357
f 360//360 357//357 356//356
f 360//360 356//356 359//359
f 361//361 358//358 357//357
f 361//361 357//357 360//360
f 363//363 360//360 359//359
f 363//363 359//359 362//362
f 364//364 361//361 360//360
f 364//364 360//360 363//363
f 366//366 363//363 362//362
f 366//366 362//362 365//365
f 367//367 364//364 363//363
f 367//367 363//363 366//366
f 369//369 366//366 365//365
f 369//369 365//365 368//368
f 370//370 367//367 366//366
f 370//370 366//366 369//369
f 372//372 369//369 368//368
f 372//372 368//368 371//371
f 373//373 370//370 369//369
f 373//373 369//369 372//372
f 375//375 372//372 371//371
f 375//375 371//371 374//374
f 376//376 373//373 372//372
f 376//376 372//372 375//375
f 378//378 375//375 374//374
f 378//378 374//374 377//377
f 379//379 376//376 375//375
f 379//379 375//375 378//378
f 381//381 378//378 377//377
f 381//381 377//377 380//380
f 382//382 379//379 378//378
f 382//382 378//378 381//381
f 384//384 381//381 380//380
f 384//384 380//380 383//383
f 385//385 382//382 381//381
f 385//385 381//381 384//384
f 387//387 384//384 383//383
f 387//387 383//383 386//386
f 388//388 385//385 384//384
f 388//388 384//384 387//387
f 390//390 387//387 386//386
f 390//390 386//386 389//389
f 391//391 388//388 387//387
f 391//391 387//387 390//390
f 393//393 390//390 389//389
f 393//393 389//389 392//392
f 394//394 391//391 390//390
f 394//394 390//390 393//393
f 396//396 393//393 392//392
f 396//396 392//392 395//395
f 414//414 394//394 393//393
f 396//396 397//397 414//414
f 393//393 396//396 414//414
f 415//415 413//413 394//394
f 415//415 394//394 414//414
f 400//400 415//415 414//414
f 400//400 414//414 397//397
f 416//416 406//406 417//417
f 405//405 407//407 406//406
f 406//406 408//408 403//403
f 406//406 403//403 409//409
f 409//409 405//405 406//406
f 409//409 403//403 402//402
f 404//404 405//405 409//409
f 402//402 404//404 409//409
f 412//412 410//410 400//400
f 412//412 400//400 411//411
f 403//403 412//412 411//411
f 403//403 411//411 402//402
f 411//411 400//400 397//397
f 401//401 402//402 411//411
f 397//397 401//401 411//411
f 118//118 424//424 88//88
f 425//425 117//117 116//116
f 425//425 118//118 117//117
f 353//353 115//115 114//114
f 356//356 353//353 113//113
f 356//356 113//113 112//112
f 353//353 114//114 113//113
f 353//353 116//116 115//115
f 425//425 116//116 353//353
f 356//356 112//112 89//89
f 356//356 89//89 111//111
f 353//353 354//354 426//426
f 353//353 426//426 425//425
f 356//356 111//111 110//110
f 359//359 356//356 110//110
f 359//359 110//110 109//109
f 108//108 359//359 109//109
f 425//425 424//424 118//118
f 359//359 107//107 106//106
f 362//362 359//359 105//105
f 362//362 105//105 90//90
f 359//359 106//106 105//105
f 104//104 362//362 90//90
f 101//101 365//365 102//102
f 103//103 362//362 104//104
f 102//102 362//362 103//103
f 98//98 427//427 99//99
f 99//99 368//368 100//100
f 101//101 100//100 365//365
f 428//428 429//429 96//96
f 97//97 96//96 429//429
f 430//430 427//427 98//98
f 430//430 98//98 97//97
f 429//429 430//430 97//97
f 429//429 377//377 374//374
f 429//429 374//374 430//430
f 427//427 368//368 99//99
f 428//428 380//380 377//377
f 428//428 377//377 429//429
f 430//430 374//374 371//371
f 430//430 371//371 427//427
f 108//108 107//107 359//359
f 423//423 424//424 425//425
f 423//423 425//425 426//426
f 422//422 423//423 426//426
f 422//422 426//426 431//431
f 431//431 426//426 354//354
f 431//431 354//354 355//355
f 358//358 251//251 250//250
f 358//358 250//250 355//355
f 431//431 355//355 250//250
f 431//431 250//250 249//249
f 249//249 422//422 431//431
f 364//364 253//253 252//252
f 364//364 252//252 361//361
f 253//253 364//364 367//367
f 253//253 367//367 254//254
f 361//361 252//252 251//251
f 361//361 251//251 358//358
f 100//100 368//368 365//365
f 370//370 255//255 254//254
f 370//370 254//254 367//367
f 371//371 368//368 427//427
f 255//255 370//370 373//373
f 255//255 373//373 256//256
f 256//256 373//373 376//376
f 256//256 376//376 257//257
f 379//379 258//258 257//257
f 379//379 257//257 376//376
f 379//379 413//413 258//258
f 382//382 413//413 379//379
f 365//365 362//362 102//102
f 432//432 383//383 380//380
f 432//432 380//380 428//428
f 432//432 96//96 433//433
f 95//95 433//433 96//96
f 383//383 432//432 433//433
f 383//383 433//433 386//386
f 392//392 434//434 435//435
f 392//392 435//435 395//395
f 436//436 95//95 434//434
f 94//94 434//434 95//95
f 436//436 389//389 386//386
f 436//436 386//386 433//433
f 434//434 392//392 389//389
f 434//434 389//389 436//436
f 95//95 436//436 433//433
f 397//397 396//396 421//421
f 413//413 388//388 391//391
f 413//413 385//385 388//388
f 410//410 413//413 415//415
f 391//391 394//394 413//413
f 259//259 258//258 413//413
f 382//382 385//385 413//413
f 395//395 435//435 93//93
f 395//395 93//93 419//419
f 93//93 435//435 94//94
f 396//396 395//395 420//420
f 396//396 420//420 398//398
f 395//395 419//419 420//420
f 421//421 396//396 398//398
f 408//408 410//410 412//412
f 400//400 410//410 415//415
f 399//399 401//401 421//421
f 397//397 421//421 401//401
f 402//402 401//401 404//404
f 399//399 404//404 401//401
f 407//407 404//404 399//399
f 435//435 434//434 94//94
f 410//410 259//259 413//413
f 259//259 410//410 260//260
f 408//408 412//412 403//403
f 260//260 408//408 261//261
f 260//260 410//410 408//408
f 416//416 408//408 406//406
f 262//262 261//261 416//416
f 261//261 408//408 416//416
f 262//262 416//416 418//418
f 262//262 418//418 263//263
f 264//264 418//418 265//265
f 418//418 264//264 263//263
f 404//404 407//407 405//405
f 407//407 417//417 406//406
f 407//407 399//399 417//417
f 245//245 265//265 418//418
f 245//245 418//418 416//416
f 416//416 417//417 399//399
f 399//399 245//245 416//416
f 432//432 428//428 96//96
f 441//441 440//440 437//437
f 441//441 437//437 438//438
f 442//442 441//441 438//438
f 442//442 438//438 439//439
f 444//444 443//443 440//440
f 444//444 440//440 441//441
f 445//445 444//444 441//441
f 445//445 441//441 442//442
f 437//437 92//92 314//314
f 437//437 314//314 335//335
f 92//92 437//437 162//162
f 335//335 438//438 437//437
f 315//315 438//438 335//335
f 336//336 438//438 315//315
f 439//439 336//336 337//337
f 439//439 337//337 214//214
f 439//439 214//214 215//215
f 215//215 216//216 442//442
f 215//215 442//442 439//439
f 336//336 439//439 438//438
f 437//437 440//440 162//162
f 163//163 162//162 440//440
f 163//163 440//440 443//443
f 443//443 172//172 160//160
f 443//443 160//160 163//163
f 444//444 173//173 172//172
f 444//444 172//172 443//443
f 216//216 217//217 445//445
f 216//216 445//445 442//442
f 217//217 166//166 174//174
f 217//217 174//174 445//445
f 173//173 444//444 445//445
f 173//173 445//445 174//174
f 450//450 447//447 446//446
f 450//450 446//446 449//449
f 451//451 448//448 447//447
f 451//451 447//447 450//450
f 453//453 450//450 449//449
f 453//453 449//449 452//452
f 454//454 451//451 450//450
f 454//454 450//450 453//453
f 446//446 419//419 93//93
f 446//446 420//420 419//419
f 446//446 447//447 420//420
f 398//398 420//420 447//447
f 93//93 165//165 446//446
f 448//448 399//399 421//421
f 245//245 399//399 448//448
f 245//245 448//448 246//246
f 421//421 447//447 448//448
f 246//246 448//448 451//451
f 246//246 451//451 247//247
f 447//447 421//421 398//398
f 446//446 165//165 449//449
f 164//164 452//452 449//449
f 164//164 449//449 165//165
f 452//452 164//164 161//161
f 452//452 161//161 177//177
f 453//453 452//452 177//177
f 453//453 177//177 176//176
f 247//247 451//451 454//454
f 247//247 454//454 248//248
f 248//248 454//454 175//175
f 248//248 175//175 171//171
f 176//176 175//175 454//454
f 176//176 454//454 453//453
f 459//459 458//458 455//455
f 459//459 455//455 456//456
f 460//460 459//459 456//456
f 460//460 456//456 457//457
f 462//462 461//461 458//458
f 462//462 458//458 459//459
f 463//463 462//462 459//459
f 463//463 459//459 460//460
f 180//180 455//455 192//192
f 180//180 192//192 168//168
f 455//455 458//458 193//193
f 455//455 193//193 192//192
f 455//455 180//180 179//179
f 455//455 179//179 456//456
f 178//178 457//457 456//456
f 178//178 456//456 179//179
f 167//167 218//218 457//457
f 167//167 457//457 178//178
f 218//218 219//219 460//460
f 218//218 460//460 457//457
f 194//194 193//193 458//458
f 194//194 458//458 461//461
f 461//461 464//464 184//184
f 461//461 184//184 194//194
f 462//462 465//465 464//464
f 462//462 464//464 461//461
f 219//219 463//463 460//460
f 220//220 463//463 219//219
f 465//465 462//462 463//463
f 465//465 463//463 466//466
f 463//463 220//220 466//466
f 471//471 468//468 467//467
f 471//471 467//467 470//470
f 472//472 469//469 468//468
f 472//472 468//468 471//471
f 474//474 471//471 470//470
f 474//474 470//470 473//473
f 475//475 472//472 471//471
f 475//475 471//471 474//474
f 181//181 169//169 188//188
f 181//181 188//188 467//467
f 187//187 470//470 467//467
f 187//187 467//467 188//188
f 470//470 187//187 186//186
f 470//470 186//186 473//473
f 467//467 468//468 182//182
f 467//467 182//182 181//181
f 183//183 182//182 468//468
f 183//183 468//468 469//469
f 170//170 183//183 469//469
f 170//170 469//469 241//241
f 241//241 469//469 472//472
f 241//241 472//472 242//242
f 473//473 186//186 185//185
f 473//473 185//185 476//476
f 474//474 473//473 476//476
f 474//474 476//476 477//477
f 475//475 474//474 477//477
f 475//475 477//477 478//478
f 242//242 472//472 475//475
f 242//242 475//475 243//243
f 478//478 244//244 243//243
f 478//478 243//243 475//475
f 483//483 482//482 479//479
f 483//483 479//479 480//480
f 484//484 483//483 480//480
f 484//484 480//480 481//481
f 486//486 485//485 482//482
f 486//486 482//482 483//483
f 487//487 486//486 483//483
f 487//487 483//483 484//484
f 464//464 206//206 184//184
f 479//479 206//206 464//464
f 482//482 198//198 207//207
f 482//482 207//207 479//479
f 206//206 479//479 207//207
f 479//479 464//464 465//465
f 479//479 465//465 480//480
f 466//466 481//481 480//480
f 466//466 480//480 465//465
f 220//220 238//238 481//481
f 220//220 481//481 466//466
f 238//238 239//239 484//484
f 238//238 484//484 481//481
f 198//198 482//482 485//485
f 198//198 485//485 208//208
f 485//485 209//209 208//208
f 340//340 209//209 485//485
f 209//209 340//340 86//86
f 340//340 485//485 486//486
f 340//340 486//486 339//339
f 239//239 240//240 487//487
f 239//239 487//487 484//484
f 338//338 487//487 240//240
f 338//338 240//240 221//221
f 487//487 338//338 339//339
f 487//487 339//339 486//486
f 492//492 489//489 488//488
f 492//492 488//488 491//491
f 493//493 490//490 489//489
f 493//493 489//489 492//492
f 495//495 492//492 491//491
f 495//495 491//491 494//494
f 496//496 493//493 492//492
f 496//496 492//492 495//495
f 476//476 185//185 213//213
f 488//488 476//476 213//213
f 491//491 488//488 212//212
f 491//491 212//212 202//202
f 213//213 212//212 488//488
f 477//477 476//476 488//488
f 477//477 488//488 489//489
f 478//478 477//477 489//489
f 478//478 489//489 490//490
f 244//244 478//478 490//490
f 244//244 490//490 266//266
f 266//266 490//490 493//493
f 266//266 493//493 267//267
f 491//491 202//202 211//211
f 494//494 211//211 210//210
f 424//424 494//494 210//210
f 210//210 88//88 424//424
f 424//424 423//423 495//495
f 424//424 495//495 494//494
f 267//267 493//493 496//496
f 267//267 496//496 268//268
f 422//422 249//249 268//268
f 422//422 268//268 496//496
f 496//496 495//495 423//423
f 496//496 423//423 422//422
f 211//211 494//494 491//491
f 497//497 502//502 512//512
f 497//497 512//512 498//498
f 503//503 512//512 502//502
f 504//504 505//505 513//513
f 504//504 513//513 514//514
f 504//504 514//514 503//503
f 506//506 513//513 505//505
f 499//499 512//512 514//514
f 499//499 514//514 31//31
f 503//503 514//514 512//512
f 512//512 499//499 27//27
f 512//512 27//27 498//498
f 33//33 513//513 515//515
f 33//33 515//515 35//35
f 506//506 515//515 513//513
f 513//513 33//33 31//31
f 513//513 31//31 514//514
f 515//515 506//506 507//507
f 516//516 507//507 508//508
f 508//508 509//509 517//517
f 508//508 517//517 516//516
f 35//35 515//515 516//516
f 35//35 516//516 37//37
f 511//511 518//518 510//510
f 510//510 517//517 509//509
f 511//511 500//500 501//501
f 511//511 501//501 518//518
f 37//37 516//516 517//517
f 37//37 517//517 39//39
f 39//39 517//517 518//518
f 39//39 518//518 41//41
f 501//501 43//43 41//41
f 501//501 41//41 518//518
f 518//518 517//517 510//510
f 507//507 516//516 515//515
f 501//501 500//500 520//520
f 501//501 53//53 43//43
f 521//521 501//501 520//520
f 53//53 521//521 522//522
f 522//522 519//519 53//53
f 501//501 521//521 53//53
f 67//67 519//519 525//525
f 519//519 67//67 53//53
f 526//526 523//523 525//525
f 524//524 523//523 526//526
f 524//524 526//526 527//527
f 67//67 525//525 523//523
f 67//67 523//523 528//528
f 67//67 528//528 68//68
f 529//529 532//532 528//528
f 529//529 531//531 532//532
f 68//68 528//528 533//533
f 68//68 533//533 530//530
f 530//530 55//55 68//68
f 533//533 528//528 532//532
f 55//55 530//530 536//536
f 537//537 55//55 536//536
f 535//535 537//537 538//538
f 538//538 534//534 535//535
f 55//55 537//537 535//535
f 535//535 534//534 539//539
f 498//498 535//535 539//539
f 498//498 540//540 497//497
f 498//498 27//27 535//535
f 540//540 498//498 539//539
f 552//552 549//549 548//548
f 552//552 551//551 550//550
f 549//549 552//552 550//550
f 547//547 552//552 548//548
f 545//545 552//552 546//546
f 552//552 547//547 546//546
f 545//545 544//544 552//552
f 553//553 544//544 558//558
f 557//557 528//528 558//558
f 552//552 544//544 553//553
f 528//528 554//554 553//553
f 555//555 528//528 523//523
f 554//554 528//528 555//555
f 524//524 555//555 523//523
f 557//557 556//556 528//528
f 543//543 542//542 556//556
f 541//541 556//556 542//542
f 541//541 529//529 556//556
f 529//529 528//528 556//556
f 553//553 558//558 528//528
f 37//37 43//43 35//35
f 43//43 33//33 35//35
f 43//43 499//499 31//31
f 31//31 33//33 43//43
f 27//27 499//499 43//43
f 39//39 43//43 37//37
f 68//68 27//27 43//43
f 53//53 68//68 43//43
f 55//55 535//535 68//68
f 68//68 535//535 27//27
f 67//67 68//68 53//53
f 43//43 39//39 41//41
f 563//563 562//562 559//559
f 563//563 559//559 560//560
f 564//564 563//563 560//560
f 564//564 560//560 561//561
f 566//566 565//565 562//562
f 566//566 562//562 563//563
f 567//567 566//566 563//563
f 567//567 563//563 564//564
f 569//569 568//568 565//565
f 569//569 565//565 566//566
f 570//570 569//569 566//566
f 570//570 566//566 567//567
f 572//572 571//571 568//568
f 572//572 568//568 569//569
f 573//573 572//572 569//569
f 573//573 569//569 570//570
f 575//575 574//574 571//571
f 575//575 571//571 572//572
f 576//576 575//575 572//572
f 576//576 572//572 573//573
f 578//578 577//577 574//574
f 578//578 574//574 575//575
f 579//579 578//578 575//575
f 579//579 575//575 576//576
f 502//502 497//497 585//585
f 562//562 504//504 503//503
f 562//562 503//503 559//559
f 502//502 559//559 503//503
f 559//559 502//502 585//585
f 504//504 562//562 565//565
f 504//504 565//565 505//505
f 568//568 506//506 505//505
f 568//568 505//505 565//565
f 507//507 506//506 568//568
f 584//584 560//560 559//559
f 584//584 559//559 585//585
f 583//583 561//561 560//560
f 583//583 560//560 584//584
f 544//544 545//545 561//561
f 544//544 561//561 583//583
f 564//564 561//561 545//545
f 564//564 545//545 546//546
f 567//567 564//564 546//546
f 567//567 546//546 547//547
f 547//547 548//548 570//570
f 547//547 570//570 567//567
f 571//571 508//508 507//507
f 574//574 509//509 508//508
f 574//574 508//508 571//571
f 510//510 509//509 574//574
f 577//577 511//511 510//510
f 580//580 500//500 511//511
f 578//578 581//581 580//580
f 578//578 580//580 577//577
f 511//511 577//577 580//580
f 510//510 574//574 577//577
f 573//573 570//570 548//548
f 573//573 548//548 549//549
f 549//549 550//550 576//576
f 549//549 576//576 573//573
f 581//581 578//578 579//579
f 581//581 579//579 582//582
f 551//551 552//552 582//582
f 551//551 582//582 579//579
f 579//579 576//576 550//550
f 579//579 550//550 551//551
f 507//507 568//568 571//571
f 590//590 589//589 586//586
f 590//590 586//586 587//587
f 591//591 590//590 587//587
f 591//591 587//587 588//588
f 593//593 592//592 589//589
f 593//593 589//589 590//590
f 594//594 593//593 590//590
f 594//594 590//590 591//591
f 580//580 586//586 520//520
f 580//580 520//520 500//500
f 521//521 520//520 586//586
f 521//521 586//586 589//589
f 589//589 592//592 522//522
f 589//589 522//522 521//521
f 581//581 587//587 586//586
f 581//581 586//586 580//580
f 582//582 588//588 587//587
f 582//582 587//587 581//581
f 552//552 553//553 588//588
f 552//552 588//588 582//582
f 553//553 554//554 591//591
f 553//553 591//591 588//588
f 592//592 525//525 519//519
f 592//592 519//519 522//522
f 593//593 526//526 525//525
f 593//593 525//525 592//592
f 526//526 593//593 594//594
f 526//526 594//594 527//527
f 554//554 555//555 594//594
f 554//554 594//594 591//591
f 527//527 594//594 555//555
f 527//527 555//555 524//524
f 599//599 598//598 595//595
f 599//599 595//595 596//596
f 600//600 599//599 596//596
f 600//600 596//596 597//597
f 602//602 601//601 598//598
f 602//602 598//598 599//599
f 603//603 602//602 599//599
f 603//603 599//599 600//600
f 533//533 595//595 536//536
f 533//533 536//536 530//530
f 532//532 596//596 595//595
f 532//532 595//595 533//533
f 537//537 536//536 595//595
f 537//537 595//595 598//598
f 598//598 601//601 538//538
f 598//598 538//538 537//537
f 529//529 541//541 597//597
f 529//529 597//597 531//531
f 531//531 597//597 596//596
f 531//531 596//596 532//532
f 600//600 597//597 541//541
f 600//600 541//541 542//542
f 542//542 603//603 600//600
f 606//606 601//601 602//602
f 538//538 601//601 604//604
f 607//607 606//606 602//602
f 604//604 601//601 605//605
f 605//605 601//601 606//606
f 534//534 538//538 604//604
f 543//543 611//611 603//603
f 602//602 603//603 609//609
f 542//542 543//543 603//603
f 603//603 610//610 609//609
f 610//610 603//603 611//611
f 609//609 608//608 602//602
f 608//608 607//607 602//602
f 616//616 615//615 612//612
f 616//616 612//612 613//613
f 617//617 616//616 613//613
f 617//617 613//613 614//614
f 619//619 618//618 615//615
f 619//619 615//615 616//616
f 620//620 619//619 616//616
f 620//620 616//616 617//617
f 605//605 612//612 604//604
f 534//534 604//604 612//612
f 613//613 612//612 606//606
f 605//605 606//606 612//612
f 608//608 613//613 607//607
f 606//606 607//607 613//613
f 610//610 614//614 609//609
f 613//613 608//608 609//609
f 556//556 614//614 611//611
f 610//610 611//611 614//614
f 611//611 543//543 556//556
f 556//556 557//557 617//617
f 556//556 617//617 614//614
f 609//609 614//614 613//613
f 615//615 618//618 540//540
f 615//615 540//540 539//539
f 618//618 585//585 497//497
f 618//618 497//497 540//540
f 585//585 618//618 619//619
f 585//585 619//619 584//584
f 557//557 558//558 620//620
f 557//557 620//620 617//617
f 583//583 620//620 558//558
f 583//583 558//558 544//544
f 620//620 583//583 584//584
f 620//620 584//584 619//619
f 612//612 615//615 534//534
f 615//615 539//539 534//534
f 624//624 626//626 621//621
f 623//623 29//29 626//626
f 623//623 624//624 625//625
f 625//625 622//622 623//623
f 626//626 624//624 623//623
f 623//623 622//622 628//628
f 56//56 623//623 628//628
f 56//56 628//628 629//629
f 56//56 629//629 627//627
f 73//73 627//627 632//632
f 627//627 73//73 56//56
f 633//633 630//630 632//632
f 631//631 630//630 633//633
f 631//631 633//633 634//634
f 73//73 632//632 630//630
f 73//73 630//630 635//635
f 73//73 635//635 72//72
f 636//636 639//639 635//635
f 636//636 638//638 639//639
f 72//72 635//635 640//640
f 72//72 640//640 637//637
f 637//637 54//54 72//72
f 640//640 635//635 639//639
f 54//54 637//637 642//642
f 645//645 54//54 643//643
f 642//642 643//643 54//54
f 645//645 644//644 641//641
f 645//645 45//45 54//54
f 644//644 645//645 643//643
f 641//641 646//646 656//656
f 641//641 656//656 645//645
f 647//647 656//656 646//646
f 648//648 649//649 657//657
f 648//648 657//657 658//658
f 648//648 658//658 647//647
f 650//650 657//657 649//649
f 42//42 656//656 658//658
f 42//42 658//658 40//40
f 647//647 658//658 656//656
f 656//656 42//42 45//45
f 656//656 45//45 645//645
f 38//38 657//657 659//659
f 38//38 659//659 36//36
f 650//650 659//659 657//657
f 657//657 38//38 40//40
f 657//657 40//40 658//658
f 659//659 650//650 651//651
f 660//660 651//651 652//652
f 652//652 653//653 661//661
f 652//652 661//661 660//660
f 36//36 659//659 660//660
f 36//36 660//660 34//34
f 655//655 662//662 654//654
f 654//654 661//661 653//653
f 655//655 621//621 626//626
f 655//655 626//626 662//662
f 34//34 660//660 661//661
f 34//34 661//661 32//32
f 32//32 661//661 662//662
f 32//32 662//662 30//30
f 626//626 29//29 30//30
f 626//626 30//30 662//662
f 662//662 661//661 654//654
f 651//651 660//660 659//659
f 670//670 636//636 635//635
f 672//672 671//671 630//630
f 670//670 630//630 671//671
f 669//669 630//630 666//666
f 630//630 670//670 635//635
f 631//631 666//666 630//630
f 669//669 666//666 665//665
f 669//669 665//665 664//664
f 663//663 669//669 664//664
f 668//668 672//672 630//630
f 675//675 674//674 673//673
f 673//673 677//677 676//676
f 675//675 673//673 676//676
f 678//678 677//677 673//673
f 669//669 668//668 630//630
f 668//668 667//667 672//672
f 673//673 667//667 680//680
f 680//680 679//679 673//673
f 678//678 673//673 679//679
f 667//667 673//673 672//672
f 45//45 73//73 54//54
f 45//45 29//29 73//73
f 54//54 73//73 72//72
f 73//73 623//623 56//56
f 29//29 623//623 73//73
f 42//42 40//40 45//45
f 45//45 38//38 36//36
f 45//45 36//36 34//34
f 32//32 30//30 45//45
f 32//32 45//45 34//34
f 30//30 29//29 45//45
f 38//38 45//45 40//40
f 685//685 684//684 681//681
f 685//685 681//681 682//682
f 686//686 685//685 682//682
f 686//686 682//682 683//683
f 688//688 687//687 684//684
f 688//688 684//684 685//685
f 689//689 688//688 685//685
f 689//689 685//685 686//686
f 681//681 621//621 692//692
f 691//691 682//682 681//681
f 691//691 681//681 692//692
f 684//684 624//624 681//681
f 621//621 681//681 624//624
f 684//684 687//687 625//625
f 684//684 625//625 624//624
f 667//667 668//668 683//683
f 667//667 683//683 690//690
f 690//690 683//683 682//682
f 690//690 682//682 691//691
f 686//686 683//683 668//668
f 686//686 668//668 669//669
f 669//669 689//689 686//686
f 695//695 687//687 688//688
f 625//625 687//687 693//693
f 696//696 695//695 688//688
f 693//693 687//687 694//694
f 694//694 687//687 695//695
f 622//622 625//625 693//693
f 663//663 700//700 689//689
f 688//688 689//689 698//698
f 669//669 663//663 689//689
f 689//689 699//699 698//698
f 699//699 689//689 700//700
f 698//698 697//697 688//688
f 697//697 696//696 688//688
f 705//705 704//704 701//701
f 705//705 701//701 702//702
f 706//706 705//705 702//702
f 706//706 702//702 703//703
f 708//708 707//707 704//704
f 708//708 704//704 705//705
f 709//709 708//708 705//705
f 709//709 705//705 706//706
f 694//694 701//701 693//693
f 622//622 693//693 701//701
f 702//702 701//701 695//695
f 694//694 695//695 701//701
f 697//697 702//702 696//696
f 695//695 696//696 702//702
f 622//622 701//701 704//704
f 622//622 704//704 628//628
f 699//699 703//703 698//698
f 702//702 697//697 698//698
f 664//664 703//703 700//700
f 699//699 700//700 703//703
f 700//700 663//663 664//664
f 664//664 665//665 706//706
f 664//664 706//706 703//703
f 698//698 703//703 702//702
f 704//704 707//707 629//629
f 704//704 629//629 628//628
f 627//627 629//629 707//707
f 627//627 707//707 632//632
f 632//632 707//707 708//708
f 632//632 708//708 633//633
f 665//665 666//666 709//709
f 665//665 709//709 706//706
f 666//666 631//631 634//634
f 666//666 634//634 709//709
f 633//633 708//708 709//709
f 633//633 709//709 634//634
f 714//714 713//713 710//710
f 714//714 710//710 711//711
f 715//715 714//714 711//711
f 715//715 711//711 712//712
f 717//717 716//716 713//713
f 717//717 713//713 714//714
f 718//718 717//717 714//714
f 718//718 714//714 715//715
f 640//640 710//710 642//642
f 640//640 642//642 637//637
f 643//643 642//642 710//710
f 643//643 710//710 713//713
f 713//713 716//716 644//644
f 713//713 644//644 643//643
f 710//710 640//640 639//639
f 710//710 639//639 711//711
f 638//638 712//712 711//711
f 638//638 711//711 639//639
f 636//636 670//670 712//712
f 636//636 712//712 638//638
f 670//670 671//671 715//715
f 670//670 715//715 712//712
f 716//716 719//719 641//641
f 716//716 641//641 644//644
f 717//717 720//720 719//719
f 717//717 719//719 716//716
f 720//720 717//717 718//718
f 720//720 718//718 721//721
f 671//671 672//672 718//718
f 671//671 718//718 715//715
f 672//672 673//673 721//721
f 672//672 721//721 718//718
f 726//726 725//725 722//722
f 726//726 722//722 723//723
f 727//727 726//726 723//723
f 727//727 723//723 724//724
f 729//729 728//728 725//725
f 729//729 725//725 726//726
f 730//730 729//729 726//726
f 730//730 726//726 727//727
f 732//732 731//731 728//728
f 732//732 728//728 729//729
f 733//733 732//732 729//729
f 733//733 729//729 730//730
f 735//735 734//734 731//731
f 735//735 731//731 732//732
f 736//736 735//735 732//732
f 736//736 732//732 733//733
f 738//738 737//737 734//734
f 738//738 734//734 735//735
f 739//739 738//738 735//735
f 739//739 735//735 736//736
f 741//741 740//740 737//737
f 741//741 737//737 738//738
f 742//742 741//741 738//738
f 742//742 738//738 739//739
f 646//646 641//641 719//719
f 725//725 648//648 647//647
f 725//725 647//647 722//722
f 646//646 722//722 647//647
f 722//722 646//646 719//719
f 648//648 725//725 728//728
f 648//648 728//728 649//649
f 731//731 650//650 649//649
f 731//731 649//649 728//728
f 651//651 650//650 731//731
f 720//720 723//723 722//722
f 720//720 722//722 719//719
f 721//721 724//724 723//723
f 721//721 723//723 720//720
f 673//673 674//674 724//724
f 673//673 724//724 721//721
f 727//727 724//724 674//674
f 727//727 674//674 675//675
f 730//730 727//727 675//675
f 730//730 675//675 676//676
f 676//676 677//677 733//733
f 676//676 733//733 730//730
f 651//651 731//731 734//734
f 651//651 734//734 652//652
f 737//737 653//653 652//652
f 737//737 652//652 734//734
f 654//654 653//653 737//737
f 740//740 655//655 654//654
f 692//692 621//621 655//655
f 741//741 691//691 692//692
f 741//741 692//692 740//740
f 655//655 740//740 692//692
f 654//654 737//737 740//740
f 736//736 733//733 677//677
f 736//736 677//677 678//678
f 678//678 679//679 739//739
f 678//678 739//739 736//736
f 691//691 741//741 742//742
f 691//691 742//742 690//690
f 680//680 667//667 690//690
f 680//680 690//690 742//742
f 742//742 739//739 679//679
f 742//742 679//679 680//680
