# Created by Open3D 
# object name: InfoWheels Interior TV
# number of vertices: 238
# number of triangles: 150
v 34.1373 -78.7496 20.0617
vn -0.49423 -0.856338 -0.149742
v 34.0743 -78.7103 20.0491
vn -0.511864 -0.852991 -0.101992
v 34.1206 -78.7496 20.0954
vn -0.363933 -0.857383 -0.363933
v 34.0743 -78.7103 20.0491
vn -0.433675 -0.852976 -0.290444
v 34.0994 -78.7496 20.1096
vn -0.196221 -0.857453 -0.475681
v 34.0743 -78.7103 20.0491
vn -0.290455 -0.852973 -0.433673
v 34.0743 -78.7496 20.1145
vn 0.0502966 -0.85602 -0.514491
v 34.0743 -78.7103 20.0491
vn -0.100058 -0.852803 -0.512557
v 34.0493 -78.7496 20.1096
vn 0.196682 -0.857317 -0.475736
v 34.0281 -78.7496 20.0954
vn 0.364231 -0.85713 -0.364231
v 34.0743 -78.7103 20.0491
vn 0.290644 -0.852766 -0.433955
v 34.0139 -78.7496 20.0742
vn 0.475817 -0.857126 -0.197313
v 34.0743 -78.7103 20.0491
vn 0.434096 -0.852666 -0.290725
v 34.0089 -78.7496 20.0491
vn 0.515143 -0.857104 0
v 34.0743 -78.7103 20.0491
vn 0.51245 -0.852625 -0.102108
v 34.0139 -78.7496 20.0241
vn 0.475869 -0.856997 0.19775
v 34.0743 -78.7103 20.0491
vn 0.512429 -0.85259 0.102501
v 34.0281 -78.7496 20.0029
vn 0.364503 -0.856891 0.364522
v 34.0743 -78.7103 20.0491
vn 0.434363 -0.852469 0.290904
v 34.0493 -78.7496 19.9887
vn 0.150332 -0.855913 0.494787
v 34.0743 -78.7103 20.0491
vn 0.290886 -0.852469 0.434375
v 34.0743 -78.7496 19.9837
vn 0 -0.857111 0.515132
v 34.0994 -78.7496 19.9887
vn -0.197294 -0.857135 0.475809
v 34.0743 -78.7103 20.0491
vn -0.102099 -0.852632 0.51244
v 34.1206 -78.7496 20.0029
vn -0.364204 -0.857144 0.364224
v 34.0743 -78.7103 20.0491
vn -0.290697 -0.852678 0.434093
v 34.1373 -78.7496 20.0366
vn -0.494245 -0.856256 0.150157
v 34.0743 -78.7103 20.0491
vn -0.433941 -0.85278 0.290622
v 34.0743 -78.7103 20.0491
vn -0.511843 -0.852956 0.102384
v 34.0586 -79.1826 19.9192
vn 0.283444 0.00277587 0.958985
v 34.0743 -78.7889 19.9183
vn 0.194213 -0.00550049 0.980944
v 34.0243 -78.7889 19.9282
vn 0.371704 -8.32081e-05 0.928351
v 34 -79.1826 19.9414
vn 0.447563 0.00236005 0.894249
v 33.9818 -78.7889 19.9566
vn 0.555601 -0.00641471 0.831424
v 34.2014 -79.1826 20.0178
vn -0.996085 0.00258704 0.0883678
v 34.2052 -78.7889 20.0491
vn -1 -0.000114798 0
v 34.1952 -78.7889 19.999
vn -0.980644 -0.00609578 0.195703
v 34.2014 -79.1826 20.0804
vn -0.996084 0.00258735 -0.0883693
v 34.1952 -78.7889 20.0992
vn -0.980643 -0.00609542 -0.19571
v 34.0586 -79.1826 20.179
vn 0.28428 0.00284973 -0.958737
v 34.0243 -78.7889 20.17
vn 0.372249 -3.12989e-05 -0.928133
v 34.0743 -78.7889 20.18
vn 0.196121 -0.00533039 -0.980565
v 34 -79.1826 20.1568
vn 0.447577 0.00235899 -0.894242
v 33.9818 -78.7889 20.1416
vn 0.555601 -0.00641471 -0.831424
v 42.0113 -78.7496 20.0617
vn -0.494223 -0.856339 -0.149759
v 41.9483 -78.7103 20.0491
vn -0.511864 -0.852991 -0.101992
v 41.9946 -78.7496 20.0954
vn -0.363944 -0.857374 -0.363944
v 41.9483 -78.7103 20.0491
vn -0.433647 -0.85297 -0.290503
v 41.9734 -78.7496 20.1096
vn -0.196235 -0.857453 -0.475675
v 41.9483 -78.7103 20.0491
vn -0.290495 -0.852969 -0.433654
v 41.9483 -78.7496 20.1145
vn 0.0502966 -0.85602 -0.514491
v 41.9483 -78.7103 20.0491
vn -0.100058 -0.852803 -0.512557
v 41.9233 -78.7496 20.1096
vn 0.196682 -0.857317 -0.475736
v 41.9021 -78.7496 20.0954
vn 0.364231 -0.85713 -0.364231
v 41.9483 -78.7103 20.0491
vn 0.290644 -0.852766 -0.433955
v 41.8879 -78.7496 20.0742
vn 0.475817 -0.857126 -0.197313
v 41.9483 -78.7103 20.0491
vn 0.434096 -0.852666 -0.290725
v 41.8829 -78.7496 20.0491
vn 0.515143 -0.857104 0
v 41.9483 -78.7103 20.0491
vn 0.51245 -0.852625 -0.102108
v 41.8879 -78.7496 20.0241
vn 0.475869 -0.856997 0.19775
v 41.9483 -78.7103 20.0491
vn 0.512429 -0.85259 0.102501
v 41.9021 -78.7496 20.0029
vn 0.364503 -0.856891 0.364522
v 41.9483 -78.7103 20.0491
vn 0.434363 -0.852469 0.290904
v 41.9233 -78.7496 19.9887
vn 0.150332 -0.855913 0.494787
v 41.9483 -78.7103 20.0491
vn 0.290886 -0.852469 0.434375
v 41.9483 -78.7496 19.9837
vn 0 -0.857111 0.515132
v 41.9734 -78.7496 19.9887
vn -0.197307 -0.857135 0.475804
v 41.9483 -78.7103 20.0491
vn -0.102099 -0.852632 0.51244
v 41.9946 -78.7496 20.0029
vn -0.364215 -0.857135 0.364235
v 41.9483 -78.7103 20.0491
vn -0.290736 -0.852674 0.434074
v 42.0113 -78.7496 20.0366
vn -0.494239 -0.856257 0.150174
v 41.9483 -78.7103 20.0491
vn -0.433913 -0.852774 0.290681
v 41.9483 -78.7103 20.0491
vn -0.511843 -0.852956 0.102384
v 41.9326 -79.1826 19.9192
vn 0.283444 0.00277587 0.958985
v 41.9483 -78.7889 19.9183
vn 0.194213 -0.00550049 0.980944
v 41.8983 -78.7889 19.9282
vn 0.371704 -8.32081e-05 0.928351
v 41.874 -79.1826 19.9414
vn 0.447563 0.00236005 0.894249
v 41.8558 -78.7889 19.9566
vn 0.555601 -0.00641471 0.831424
v 42.0754 -79.1826 20.0178
vn -0.996082 0.00258436 0.0884012
v 42.0792 -78.7889 20.0491
vn -1 -0.000118523 0
v 42.0692 -78.7889 19.999
vn -0.98063 -0.00610163 0.195775
v 42.0754 -79.1826 20.0804
vn -0.996081 0.00258466 -0.0884027
v 42.0692 -78.7889 20.0992
vn -0.980628 -0.00610126 -0.195782
v 41.9326 -79.1826 20.179
vn 0.28428 0.00284973 -0.958737
v 41.8983 -78.7889 20.17
vn 0.372249 -3.12989e-05 -0.928133
v 41.9483 -78.7889 20.18
vn 0.196121 -0.00533039 -0.980565
v 41.874 -79.1826 20.1568
vn 0.447577 0.00235899 -0.894242
v 41.8558 -78.7889 20.1416
vn 0.555601 -0.00641471 -0.831424
v 42.0113 -78.7496 27.9356
vn -0.494223 -0.85634 -0.14975
v 41.9483 -78.7103 27.9231
vn -0.511864 -0.852991 -0.101984
v 41.9946 -78.7496 27.9694
vn -0.363939 -0.857378 -0.363939
v 41.9483 -78.7103 27.9231
vn -0.433642 -0.852974 -0.290499
v 41.9734 -78.7496 27.9836
vn -0.197101 -0.857459 -0.475305
v 41.9483 -78.7103 27.9231
vn -0.290489 -0.852975 -0.433647
v 41.9483 -78.7496 27.9886
vn 0 -0.857455 -0.514558
v 41.9483 -78.7103 27.9231
vn -0.101948 -0.852988 -0.511877
v 41.9233 -78.7496 27.9836
vn 0.197549 -0.857322 -0.475366
v 41.9483 -78.7103 27.9231
vn 0.102363 -0.852951 -0.511855
v 41.9021 -78.7496 27.9694
vn 0.364225 -0.857135 -0.364225
v 41.9483 -78.7103 27.9231
vn 0.290638 -0.852771 -0.433947
v 41.8879 -78.7496 27.9482
vn 0.475816 -0.857129 -0.197304
v 41.9483 -78.7103 27.9231
vn 0.434091 -0.85267 -0.290722
v 41.8829 -78.7496 27.9231
vn 0.515143 -0.857104 0
v 41.9483 -78.7103 27.9231
vn 0.51245 -0.852625 -0.102101
v 41.8879 -78.7496 27.8981
vn 0.494795 -0.855908 0.15033
v 41.9021 -78.7496 27.8769
vn 0.364518 -0.856886 0.364518
v 41.9483 -78.7103 27.9231
vn 0.434368 -0.852466 0.290907
v 41.9233 -78.7496 27.8627
vn 0.150314 -0.855912 0.494793
v 41.9483 -78.7103 27.9231
vn 0.290915 -0.852467 0.434361
v 41.9483 -78.7496 27.8577
vn 0 -0.857104 0.515143
v 41.9734 -78.7496 27.8627
vn -0.197307 -0.857135 0.475804
v 41.9483 -78.7103 27.9231
vn -0.102062 -0.852629 0.512453
v 41.9946 -78.7496 27.8769
vn -0.364231 -0.85713 0.364231
v 41.9483 -78.7103 27.9231
vn -0.290766 -0.852671 0.434059
v 42.0113 -78.7496 27.9106
vn -0.494239 -0.856255 0.150182
v 41.9483 -78.7103 27.9231
vn -0.433918 -0.85277 0.290684
v 41.9483 -78.7103 27.9231
vn -0.511843 -0.852955 0.102392
v 41.9326 -79.1826 27.7932
vn 0.28346 0.00277268 0.95898
v 41.9483 -78.7889 27.7923
vn 0.194249 -0.00550194 0.980937
v 41.8983 -78.7889 27.8022
vn 0.371714 -8.66843e-05 0.928347
v 41.874 -79.1826 27.8154
vn 0.447563 0.00235572 0.894249
v 41.8558 -78.7889 27.8306
vn 0.555601 -0.00641874 0.831424
v 42.0754 -79.1826 27.8918
vn -0.996074 0.00257834 0.0884815
v 42.0792 -78.7889 27.9231
vn -1 -0.000124295 0
v 42.0692 -78.7889 27.8731
vn -0.980554 -0.00613167 0.196156
v 42.0754 -79.1826 27.9544
vn -0.996081 0.00258466 -0.0884027
v 42.0692 -78.7889 27.9732
vn -0.98063 -0.00610068 -0.195775
v 41.9326 -79.1826 28.053
vn 0.284265 0.00285292 -0.958742
v 41.8983 -78.7889 28.044
vn 0.371714 8.51627e-06 -0.928347
v 41.9483 -78.7889 28.054
vn 0.196121 -0.00532564 -0.980565
v 41.874 -79.1826 28.0308
vn 0.446861 0.00241515 -0.8946
v 41.8558 -78.7889 28.0157
vn 0.554258 -0.00630174 -0.832321
v 34.1373 -78.7496 27.9356
vn -0.494229 -0.85634 -0.149734
v 34.0743 -78.7103 27.9231
vn -0.511864 -0.852991 -0.101984
v 34.1206 -78.7496 27.9694
vn -0.363928 -0.857388 -0.363928
v 34.0743 -78.7103 27.9231
vn -0.43367 -0.85298 -0.29044
v 34.0994 -78.7496 27.9836
vn -0.197087 -0.857459 -0.475311
v 34.0743 -78.7103 27.9231
vn -0.29045 -0.852979 -0.433666
v 34.0743 -78.7496 27.9886
vn 0 -0.857455 -0.514558
v 34.0743 -78.7103 27.9231
vn -0.101948 -0.852988 -0.511877
v 34.0493 -78.7496 27.9836
vn 0.197549 -0.857322 -0.475366
v 34.0743 -78.7103 27.9231
vn 0.102363 -0.852951 -0.511855
v 34.0281 -78.7496 27.9694
vn 0.364225 -0.857135 -0.364225
v 34.0743 -78.7103 27.9231
vn 0.290638 -0.852771 -0.433947
v 34.0139 -78.7496 27.9482
vn 0.475816 -0.857129 -0.197304
v 34.0743 -78.7103 27.9231
vn 0.434091 -0.85267 -0.290722
v 34.0089 -78.7496 27.9231
vn 0.515143 -0.857104 0
v 34.0743 -78.7103 27.9231
vn 0.51245 -0.852625 -0.102101
v 34.0139 -78.7496 27.8981
vn 0.494795 -0.855908 0.15033
v 34.0281 -78.7496 27.8769
vn 0.364518 -0.856886 0.364518
v 34.0743 -78.7103 27.9231
vn 0.434368 -0.852466 0.290907
v 34.0493 -78.7496 27.8627
vn 0.150314 -0.855912 0.494793
v 34.0743 -78.7103 27.9231
vn 0.290915 -0.852467 0.434361
v 34.0743 -78.7496 27.8577
vn 0 -0.857104 0.515143
v 34.0994 -78.7496 27.8627
vn -0.197294 -0.857135 0.475809
v 34.0743 -78.7103 27.9231
vn -0.102062 -0.852629 0.512453
v 34.1206 -78.7496 27.8769
vn -0.36422 -0.857139 0.36422
v 34.0743 -78.7103 27.9231
vn -0.290726 -0.852675 0.434078
v 34.1373 -78.7496 27.9106
vn -0.494246 -0.856254 0.150165
v 34.0743 -78.7103 27.9231
vn -0.433947 -0.852776 0.290625
v 34.0743 -78.7103 27.9231
vn -0.511843 -0.852955 0.102392
v 34.0586 -79.1826 27.7932
vn 0.28346 0.00277268 0.95898
v 34.0743 -78.7889 27.7923
vn 0.194249 -0.00550194 0.980937
v 34.0243 -78.7889 27.8022
vn 0.371714 -8.66843e-05 0.928347
v 34 -79.1826 27.8154
vn 0.447563 0.00235572 0.894249
v 33.9818 -78.7889 27.8306
vn 0.555601 -0.00641874 0.831424
v 34.2014 -79.1826 27.8918
vn -0.996077 0.00258103 0.088448
v 34.2052 -78.7889 27.9231
vn -1 -0.000120567 0
v 34.1952 -78.7889 27.8731
vn -0.980568 -0.00612581 0.196084
v 34.2014 -79.1826 27.9544
vn -0.996084 0.00258735 -0.0883693
v 34.1952 -78.7889 27.9732
vn -0.980644 -0.00609483 -0.195703
v 34.0586 -79.1826 28.053
vn 0.284265 0.00285292 -0.958742
v 34.0243 -78.7889 28.044
vn 0.371714 8.51627e-06 -0.928347
v 34.0743 -78.7889 28.054
vn 0.196121 -0.00532564 -0.980565
v 34 -79.1826 28.0308
vn 0.446861 0.00241515 -0.8946
v 33.9818 -78.7889 28.0157
vn 0.554258 -0.00630174 -0.832321
v 56.6432 -78.0605 35.0767
vn 0 1 0
v 57.096 -78.0605 13.5688
vn 0 1 0
v 56.6432 -78.0605 14.0216
vn 0 1 0
v 18.9267 -78.0605 13.5688
vn 0 1 0
v 57.096 -78.0605 35.5294
vn 0 1 0
v 19.3794 -78.0605 14.0216
vn 0 1 0
v 42.0463 -79.1826 19.9623
vn 0 -1 0
v 41.9947 -79.1826 19.9268
vn 0 -1 0
v 57.096 -79.1826 13.5688
vn 0 -1 0
v 41.9326 -79.1826 19.9192
vn 0 -1 0
v 42.0754 -79.1826 20.0178
vn 0 -1 0
v 42.0754 -79.1826 20.0804
vn 0 -1 0
v 42.0463 -79.1826 27.8364
vn 0 -1 0
v 42.0463 -79.1826 20.1359
vn 0 -1 0
v 41.9947 -79.1826 20.1715
vn 0 -1 0
v 41.9947 -79.1826 27.8008
vn 0 -1 0
v 41.874 -79.1826 19.9414
vn 0 -1 0
v 34.1207 -79.1826 19.9268
vn 0 -1 0
v 34.1723 -79.1826 19.9623
vn 0 -1 0
v 41.8325 -79.1826 19.9883
vn 0 -1 0
v 41.9326 -79.1826 20.179
vn 0 -1 0
v 41.9326 -79.1826 27.7932
vn 0 -1 0
v 34.1207 -79.1826 27.8008
vn 0 -1 0
v 41.874 -79.1826 20.1568
vn 0 -1 0
v 34.1723 -79.1826 20.1359
vn 0 -1 0
v 41.8325 -79.1826 20.1099
vn 0 -1 0
v 34.1207 -79.1826 20.1715
vn 0 -1 0
v 41.8175 -79.1826 20.0491
vn 0 -1 0
v 34.2014 -79.1826 20.0178
vn 0 -1 0
v 18.9267 -79.1826 13.5688
vn 0 -1 0
v 57.096 -79.1826 35.5294
vn 0 -1 0
v 42.0754 -79.1826 27.8918
vn 0 -1 0
v 42.0463 -79.1826 28.0099
vn 0 -1 0
v 42.0754 -79.1826 27.9544
vn 0 -1 0
v 41.9947 -79.1826 28.0455
vn 0 -1 0
v 41.9326 -79.1826 28.053
vn 0 -1 0
v 41.874 -79.1826 27.8154
vn 0 -1 0
v 41.8325 -79.1826 27.8623
vn 0 -1 0
v 34.1723 -79.1826 27.8364
vn 0 -1 0
v 18.9267 -79.1826 35.5294
vn 0 -1 0
v 34.2014 -79.1826 27.9544
vn 0 -1 0
v 41.8175 -79.1826 27.9231
vn 0 -1 0
v 41.8325 -79.1826 27.9839
vn 0 -1 0
v 34.1723 -79.1826 28.0099
vn 0 -1 0
v 41.874 -79.1826 28.0308
vn 0 -1 0
v 34.2014 -79.1826 27.8918
vn 0 -1 0
v 34.1207 -79.1826 28.0455
vn 0 -1 0
v 34.2014 -79.1826 20.0804
vn 0 -1 0
v 34.0586 -79.1826 20.179
vn 0 -1 0
v 34 -79.1826 19.9414
vn 0 -1 0
v 34.0586 -79.1826 19.9192
vn 0 -1 0
v 33.9585 -79.1826 19.9883
vn 0 -1 0
v 33.9435 -79.1826 20.0491
vn 0 -1 0
v 33.9585 -79.1826 20.1099
vn 0 -1 0
v 34 -79.1826 20.1568
vn 0 -1 0
v 33.9585 -79.1826 27.8623
vn 0 -1 0
v 34 -79.1826 27.8154
vn 0 -1 0
v 34.0586 -79.1826 27.7932
vn 0 -1 0
v 33.9435 -79.1826 27.9231
vn 0 -1 0
v 34 -79.1826 28.0308
vn 0 -1 0
v 34.0586 -79.1826 28.053
vn 0 -1 0
v 33.9585 -79.1826 27.9839
vn 0 -1 0
f 3//3 4//4 1//1
f 5//5 6//6 3//3
f 7//7 8//8 5//5
f 10//10 11//11 9//9
f 12//12 13//13 10//10
f 14//14 15//15 12//12
f 16//16 17//17 14//14
f 18//18 19//19 16//16
f 20//20 21//21 18//18
f 23//23 24//24 22//22
f 25//25 26//26 23//23
f 27//27 28//28 25//25
f 30//30 31//31 32//32
f 33//33 32//32 34//34
f 30//30 32//32 33//33
f 35//35 36//36 37//37
f 38//38 39//39 36//36
f 40//40 41//41 42//42
f 43//43 44//44 41//41
f 41//41 40//40 43//43
f 35//35 38//38 36//36
f 47//47 48//48 45//45
f 49//49 50//50 47//47
f 51//51 52//52 49//49
f 54//54 55//55 53//53
f 56//56 57//57 54//54
f 58//58 59//59 56//56
f 60//60 61//61 58//58
f 62//62 63//63 60//60
f 64//64 65//65 62//62
f 67//67 68//68 66//66
f 69//69 70//70 67//67
f 71//71 72//72 69//69
f 74//74 75//75 76//76
f 77//77 76//76 78//78
f 74//74 76//76 77//77
f 79//79 80//80 81//81
f 82//82 83//83 80//80
f 84//84 85//85 86//86
f 87//87 88//88 85//85
f 85//85 84//84 87//87
f 79//79 82//82 80//80
f 91//91 92//92 89//89
f 93//93 94//94 91//91
f 95//95 96//96 93//93
f 97//97 98//98 95//95
f 99//99 100//100 97//97
f 101//101 102//102 99//99
f 103//103 104//104 101//101
f 106//106 107//107 105//105
f 108//108 109//109 106//106
f 111//111 112//112 110//110
f 113//113 114//114 111//111
f 115//115 116//116 113//113
f 118//118 119//119 120//120
f 121//121 120//120 122//122
f 118//118 120//120 121//121
f 123//123 124//124 125//125
f 126//126 127//127 124//124
f 128//128 129//129 130//130
f 131//131 132//132 129//129
f 129//129 128//128 131//131
f 123//123 126//126 124//124
f 135//135 136//136 133//133
f 137//137 138//138 135//135
f 139//139 140//140 137//137
f 141//141 142//142 139//139
f 143//143 144//144 141//141
f 145//145 146//146 143//143
f 147//147 148//148 145//145
f 150//150 151//151 149//149
f 152//152 153//153 150//150
f 155//155 156//156 154//154
f 157//157 158//158 155//155
f 159//159 160//160 157//157
f 162//162 163//163 164//164
f 165//165 164//164 166//166
f 162//162 164//164 165//165
f 167//167 168//168 169//169
f 170//170 171//171 168//168
f 172//172 173//173 174//174
f 175//175 176//176 173//173
f 173//173 172//172 175//175
f 167//167 170//170 168//168
f 177//177 178//178 179//179
f 180//180 179//179 178//178
f 178//178 177//177 181//181
f 179//179 180//180 182//182
f 183//183 184//184 185//185
f 186//186 185//185 184//184
f 187//187 183//183 185//185
f 185//185 188//188 187//187
f 189//189 190//190 185//185
f 185//185 190//190 188//188
f 191//191 190//190 192//192
f 186//186 193//193 194//194
f 195//195 193//193 196//196
f 197//197 198//198 199//199
f 200//200 201//201 202//202
f 197//197 203//203 200//200
f 204//204 205//205 196//196
f 206//206 185//185 186//186
f 192//192 197//197 191//191
f 207//207 208//208 189//189
f 185//185 207//207 189//189
f 209//209 210//210 207//207
f 208//208 207//207 210//210
f 207//207 211//211 209//209
f 212//212 211//211 207//207
f 192//192 190//190 189//189
f 198//198 213//213 199//199
f 213//213 214//214 215//215
f 216//216 212//212 207//207
f 217//217 218//218 219//219
f 220//220 219//219 221//221
f 222//222 214//214 218//218
f 198//198 197//197 192//192
f 221//221 212//212 223//223
f 224//224 204//204 202//202
f 196//196 205//205 195//195
f 193//193 195//195 194//194
f 203//203 201//201 200//200
f 199//199 225//225 203//203
f 203//203 197//197 199//199
f 204//204 224//224 205//205
f 226//226 206//206 227//227
f 186//186 194//194 227//227
f 228//228 206//206 226//226
f 206//206 229//229 230//230
f 229//229 206//206 228//228
f 230//230 231//231 232//232
f 232//232 206//206 230//230
f 227//227 206//206 186//186
f 233//233 231//231 225//225
f 199//199 213//213 215//215
f 225//225 199//199 234//234
f 222//222 218//218 217//217
f 221//221 223//223 220//220
f 219//219 220//220 217//217
f 215//215 214//214 222//222
f 232//232 231//231 233//233
f 216//216 232//232 235//235
f 216//216 236//236 237//237
f 236//236 216//216 238//238
f 235//235 238//238 216//216
f 237//237 212//212 216//216
f 232//232 216//216 206//206
f 233//233 225//225 234//234
f 223//223 212//212 237//237
f 201//201 224//224 202//202
