# Created by Open3D 
# object name: floor_fixed
# number of vertices: 825
# number of triangles: 1648
v -1.85087 -68.8013 -38.391
vn 0.169659 5.83496e-05 0.985503
v -1.85087 -68.8013 -39.5721
vn 0.0944061 0.00544915 -0.995519
v -1.85087 4.97821 -38.391
vn 0.0354061 -2.41243e-05 0.999373
v -1.85087 -68.8013 -39.1784
vn 0.996258 0.0864157 0.00182094
v -1.85087 -68.8013 -38.7847
vn 0.996257 0.0864201 -0.00182088
v -1.85087 -68.4076 -39.5721
vn 0.00048464 -3.98935e-05 -1
v -1.85087 -68.4076 -38.7847
vn 1 -0.000457985 -5.60856e-16
v -1.85087 -68.4076 -39.0472
vn 0.997328 -0.0730147 -0.00230759
v -1.85087 -68.4076 -39.3097
vn 0.997328 -0.0730154 0.00230783
v -1.85087 4.58451 -38.7847
vn 1 0.000229019 -5.62425e-16
v -1.85087 4.58451 -39.5721
vn 0.000196313 1.61607e-05 -1
v -1.85087 4.58451 -39.3097
vn 0.997328 0.0730203 0.00230714
v -1.85087 4.58451 -39.0472
vn 0.997328 0.0730195 -0.00230689
v -1.85087 4.97821 -39.5721
vn 0.0937263 -0.0054101 -0.995583
v -1.85087 4.97821 -38.7847
vn 0.996257 -0.0864252 -0.00182048
v -1.85087 4.97821 -39.1784
vn 0.996257 -0.0864207 0.00182054
v -0.827249 4.97821 -38.391
vn -0.021024 -7.22995e-06 0.999779
v -0.827249 -68.8013 -38.391
vn -0.0284136 1.9358e-05 0.999596
v -0.827249 -68.8013 -39.5721
vn -0.00266068 0.00015356 -0.999996
v -0.827249 -68.8013 -38.7847
vn -0.996258 0.0864148 -0.0018198
v -0.827249 -68.8013 -39.1784
vn -0.996258 0.0864104 0.00181986
v -0.827249 4.97821 -39.5721
vn -0.047844 -0.00276139 -0.998851
v -0.827249 4.97821 -39.1784
vn -0.996258 -0.0864154 0.00181946
v -0.827249 4.97821 -38.7847
vn -0.996257 -0.0864199 -0.00181941
v -0.827249 4.58451 -39.5721
vn -0.00287007 0.000236244 -0.999996
v -0.827249 4.58451 -38.7847
vn -1 0.00045794 0
v -0.827249 4.58451 -39.0472
vn -0.997328 0.073015 -0.00230552
v -0.827249 4.58451 -39.3097
vn -0.997328 0.0730158 0.00230577
v -0.827249 -68.4076 -38.7847
vn -1 -0.000228996 0
v -0.827249 -68.4076 -39.5721
vn -0.0149748 -0.00123254 -0.999887
v -0.827249 -68.4076 -39.3097
vn -0.997328 -0.073011 0.00230647
v -0.827249 -68.4076 -39.0472
vn -0.997329 -0.0730102 -0.00230622
v 71.9956 -85.9273 -38.391
vn -0.00108147 -0.0941326 0.995559
v 71.9956 -85.9273 -38.9816
vn -0.00300205 -0.999995 0
v 71.9956 -85.9273 -39.5721
vn -0.00108092 -0.0940852 -0.995564
v 72.1161 -85.9513 -38.6863
vn -0.393291 -0.919414 0
v 72.1161 -85.9513 -38.9816
vn -0.372854 -0.92789 0
v 72.1161 -85.9513 -39.2769
vn -0.39327 -0.919423 0
v 72.2183 -86.0195 -38.6863
vn -0.706899 -0.707314 0
v 72.2183 -86.0195 -38.9816
vn -0.706899 -0.707314 0
v 72.2183 -86.0195 -39.2769
vn -0.706891 -0.707322 0
v 72.2866 -86.1217 -38.6863
vn -0.919457 -0.393191 0
v 72.2866 -86.1217 -38.9816
vn -0.919462 -0.393179 0
v 72.2866 -86.1217 -39.2769
vn -0.927966 -0.372664 0
v 72.3105 -86.2423 -38.391
vn -0.0336489 -0.000582591 0.999434
v 72.3105 -86.2423 -38.9816
vn -0.999968 -0.00796631 0
v 72.3105 -86.2423 -39.5721
vn -0.0336318 -0.000582296 -0.999434
v 72.1161 -85.9513 -38.391
vn -0.136287 -0.31309 0.939894
v 72.2183 -86.0195 -38.391
vn -0.00231475 -0.00202774 0.999995
v 72.2866 -86.1217 -38.391
vn -0.0752609 -0.0268405 0.996803
v 71.9956 -85.9273 -39.3753
vn -0.0192661 -0.999814 0
v 71.9956 -85.9273 -39.1784
vn -0.0192686 -0.999814 0
v 71.9956 -85.9273 -38.7847
vn -0.0192686 -0.999814 0
v 71.9956 -85.9273 -38.5879
vn -0.0192686 -0.999814 0
v 72.2866 -86.1217 -39.5721
vn -0.100308 -0.0436547 -0.993998
v 72.2183 -86.0195 -39.5721
vn -0.00202536 -0.00231482 -0.999995
v 72.1161 -85.9513 -39.5721
vn -0.085956 -0.240735 -0.966777
v 72.3105 -86.2423 -38.5879
vn -0.999596 -0.0284253 0
v 72.3105 -86.2423 -38.7847
vn -0.999596 -0.0284253 0
v 72.3105 -86.2423 -39.1784
vn -0.99985 -0.0173112 0
v 72.3105 -86.2423 -39.3753
vn -0.999596 -0.0284218 0
v 70.0271 -85.9273 -38.391
vn -0.559398 -0.548422 0.621536
v 70.0271 -85.9273 -39.5721
vn -0.559386 -0.54841 -0.621558
v 69.7121 -83.6045 -38.391
vn -5.95163e-06 -0.00177513 0.999998
v 69.7121 -83.6045 -38.9816
vn -0.00148098 -0.999999 0
v 69.7121 -83.6045 -39.5721
vn -5.9486e-06 -0.00177423 -0.999998
v 69.8326 -83.6284 -38.6863
vn -0.372816 -0.927905 0
v 69.8326 -83.6284 -38.9816
vn -0.393332 -0.919396 0
v 69.8326 -83.6284 -39.2769
vn -0.393311 -0.919405 0
v 69.9348 -83.6967 -38.391
vn -0.00249351 -0.00249351 0.999994
v 69.9348 -83.6967 -38.6863
vn -0.726898 -0.686745 0
v 69.9348 -83.6967 -38.9816
vn -0.707107 -0.707107 0
v 69.9348 -83.6967 -39.2769
vn -0.707099 -0.707115 0
v 70.0031 -83.7989 -38.6863
vn -0.941668 -0.336543 0
v 70.0031 -83.7989 -38.9816
vn -0.91926 -0.39365 0
v 70.0031 -83.7989 -39.2769
vn -0.927754 -0.373191 0
v 70.0271 -83.9194 -38.391
vn -0.109125 -0.00283521 0.994024
v 70.0271 -83.9194 -38.9816
vn -0.999987 -0.00509567 0
v 70.0271 -83.9194 -39.5721
vn -0.100624 -0.00113465 -0.994924
v 69.8326 -83.6284 -38.391
vn -2.36473e-05 -5.43144e-05 1
v 70.0031 -83.7989 -38.391
vn -0.200414 -0.099066 0.97469
v 69.7121 -83.6045 -39.3753
vn -0.00579321 -0.999983 0
v 69.7121 -83.6045 -39.1784
vn -0.00579403 -0.999983 0
v 69.7121 -83.6045 -38.7847
vn -0.00335277 -0.999994 0
v 69.7121 -83.6045 -38.5879
vn -0.00579403 -0.999983 0
v 70.0031 -83.7989 -39.5721
vn -0.246899 -0.107598 -0.963049
v 69.9348 -83.6967 -39.5721
vn -0.00349117 -0.00398678 -0.999986
v 69.8326 -83.6284 -39.5721
vn -1.4488e-05 -4.06012e-05 -1
v 70.0271 -83.9194 -38.5879
vn -0.999936 -0.0112754 0
v 70.0271 -83.9194 -38.7847
vn -0.999821 -0.0189266 0
v 70.0271 -83.9194 -39.1784
vn -0.999936 -0.0112754 0
v 70.0271 -83.9194 -39.3753
vn -0.999821 -0.0189241 0
v 62.7042 -83.6045 -38.391
vn -0.219597 -0.444182 0.868608
v 62.7042 -83.6045 -39.5721
vn -0.219587 -0.444163 -0.86862
v 62.3893 -79.8249 -38.391
vn -6.22266e-06 -0.00376727 0.999993
v 62.3893 -79.8249 -38.9816
vn -0.00381239 -0.999993 0
v 62.3893 -79.8249 -39.5721
vn -6.21953e-06 -0.0018983 -0.999998
v 62.5098 -79.8489 -38.6863
vn -0.373192 -0.927754 0
v 62.5098 -79.8489 -38.9816
vn -0.393662 -0.919255 0
v 62.5098 -79.8489 -39.2769
vn -0.393641 -0.919264 0
v 62.612 -79.9172 -38.391
vn -6.59158e-05 -6.59158e-05 1
v 62.612 -79.9172 -38.6863
vn -0.726898 -0.686745 0
v 62.612 -79.9172 -38.9816
vn -0.707107 -0.707107 0
v 62.612 -79.9172 -39.2769
vn -0.707099 -0.707115 0
v 62.6803 -80.0194 -38.6863
vn -0.941832 -0.336083 -4.50523e-15
v 62.6803 -80.0194 -38.9816
vn -0.919401 -0.39332 0
v 62.6803 -80.0194 -39.2769
vn -0.927906 -0.372815 0
v 62.7042 -80.1399 -38.391
vn -0.0295978 -0.000469563 0.999562
v 62.7042 -80.1399 -38.9816
vn -0.999996 -0.00297288 0
v 62.7042 -80.1399 -39.5721
vn -0.0281643 -0.000187757 -0.999603
v 62.5098 -79.8489 -38.391
vn -0.00145257 -0.00333319 0.999993
v 62.6803 -80.0194 -38.391
vn -0.0773695 -0.0382204 0.99627
v 62.3893 -79.8249 -39.3753
vn -0.00381185 -0.999993 0
v 62.3893 -79.8249 -39.1784
vn -0.00381176 -0.999993 0
v 62.3893 -79.8249 -38.7847
vn -0.00219609 -0.999998 0
v 62.3893 -79.8249 -38.5879
vn -0.00381239 -0.999993 0
v 62.6803 -80.0194 -39.5721
vn -0.0962926 -0.0419246 -0.99447
v 62.612 -79.9172 -39.5721
vn -9.22895e-05 -0.000105391 -1
v 62.5098 -79.8489 -39.5721
vn -0.000890477 -0.00249164 -0.999996
v 62.7042 -80.1399 -38.5879
vn -0.999978 -0.00666633 -1.80473e-14
v 62.7042 -80.1399 -38.7847
vn -0.999935 -0.0113791 0
v 62.7042 -80.1399 -39.1784
vn -0.999978 -0.00666633 0
v 62.7042 -80.1399 -39.3753
vn -0.999935 -0.0113776 1.76029e-14
v 55.1846 -79.8249 -38.391
vn 3.83425e-06 -0.00117029 0.999999
v 55.1846 -79.8249 -39.5721
vn 3.8323e-06 -0.00232014 -0.999997
v 55.1846 -79.8249 -39.3753
vn 0.00381116 -0.999993 3.92873e-17
v 55.1846 -79.8249 -39.1784
vn 0.00219644 -0.999998 0
v 55.1846 -79.8249 -38.9816
vn 0.0038117 -0.999993 0
v 55.1846 -79.8249 -38.7847
vn 0.00381233 -0.999993 0
v 55.1846 -79.8249 -38.5879
vn 0.0038117 -0.999993 -3.93088e-17
v 54.8696 -80.1399 -38.391
vn 0.00625917 -2.38384e-05 0.99998
v 54.8696 -80.1399 -38.9816
vn 0.999999 -0.00168442 0
v 54.8696 -80.1399 -39.5721
vn 0.00625599 -2.38263e-05 -0.99998
v 54.8936 -80.0194 -38.6863
vn 0.927754 -0.373192 0
v 54.8936 -80.0194 -38.9816
vn 0.919255 -0.393662 0
v 54.8936 -80.0194 -39.2769
vn 0.919264 -0.393641 0
v 54.9619 -79.9172 -38.6863
vn 0.707314 -0.706899 0
v 54.9619 -79.9172 -38.9816
vn 0.707314 -0.706899 0
v 54.9619 -79.9172 -39.2769
vn 0.707322 -0.706891 0
v 55.064 -79.8489 -38.6863
vn 0.39368 -0.919248 0
v 55.064 -79.8489 -38.9816
vn 0.393668 -0.919253 0
v 55.064 -79.8489 -39.2769
vn 0.373176 -0.927761 0
v 54.8936 -80.0194 -38.391
vn 0.0119644 -0.00521398 0.999915
v 54.9619 -79.9172 -38.391
vn 2.14679e-05 -2.44975e-05 1
v 55.064 -79.8489 -38.391
vn 0.00254423 -0.0071207 0.999971
v 54.8696 -80.1399 -39.3753
vn 0.999978 -0.00656991 0
v 54.8696 -80.1399 -39.1784
vn 0.999978 -0.00657083 0
v 54.8696 -80.1399 -38.7847
vn 0.999993 -0.00380853 0
v 54.8696 -80.1399 -38.5879
vn 0.999978 -0.00657083 0
v 55.064 -79.8489 -39.5721
vn 0.00414715 -0.00951543 -0.999946
v 54.9619 -79.9172 -39.5721
vn 2.45072e-05 -2.14516e-05 -1
v 54.8936 -80.0194 -39.5721
vn 0.00894401 -0.00319647 -0.999955
v 54.8696 -86.321 -38.391
vn 0.0345084 -0.229756 0.972636
v 54.8696 -86.321 -39.5721
vn 0.0352105 -0.117222 -0.992481
v 23.6885 -82.1871 -38.391
vn -0.000433262 -0.0888837 0.996042
v 23.6885 -82.1871 -38.9816
vn -0.00124141 -0.999999 0
v 23.6885 -82.1871 -39.5721
vn -0.000433044 -0.0888389 -0.996046
v 23.809 -82.2111 -38.6863
vn -0.393662 -0.919255 0
v 23.809 -82.2111 -38.9816
vn -0.373192 -0.927754 0
v 23.809 -82.2111 -39.2769
vn -0.393641 -0.919264 0
v 23.9112 -82.2794 -38.6863
vn -0.707107 -0.707107 0
v 23.9112 -82.2794 -38.9816
vn -0.707107 -0.707107 0
v 23.9112 -82.2794 -39.2769
vn -0.707099 -0.707115 0
v 23.9795 -82.3816 -38.6863
vn -0.919255 -0.393662 0
v 23.9795 -82.3816 -38.9816
vn -0.91926 -0.39365 0
v 23.9795 -82.3816 -39.2769
vn -0.927754 -0.373191 0
v 24.0035 -82.5021 -38.391
vn -0.00248263 -1.51249e-05 0.999997
v 24.0035 -82.5021 -38.9816
vn -0.999996 -0.00271213 0
v 24.0035 -82.5021 -39.5721
vn -0.00248137 -1.51172e-05 -0.999997
v 23.809 -82.2111 -38.391
vn -0.000100242 -0.000230023 1
v 23.9112 -82.2794 -38.391
vn -8.45387e-06 -7.40295e-06 1
v 23.9795 -82.3816 -38.391
vn -0.00831249 -0.00297071 0.999961
v 23.6885 -82.1871 -39.3753
vn -0.00837542 -0.999965 0
v 23.6885 -82.1871 -39.1784
vn -0.00837658 -0.999965 0
v 23.6885 -82.1871 -38.7847
vn -0.00837658 -0.999965 0
v 23.6885 -82.1871 -38.5879
vn -0.00837658 -0.999965 0
v 23.9795 -82.3816 -39.5721
vn -0.0111113 -0.00484228 -0.999927
v 23.9112 -82.2794 -39.5721
vn -7.40044e-06 -8.45101e-06 -1
v 23.809 -82.2111 -39.5721
vn -6.14516e-05 -0.000171947 -1
v 24.0035 -82.5021 -38.5879
vn -0.999946 -0.0104222 0
v 24.0035 -82.5021 -38.7847
vn -0.999946 -0.0104222 0
v 24.0035 -82.5021 -39.1784
vn -0.999981 -0.00609219 0
v 24.0035 -82.5021 -39.3753
vn -0.999946 -0.0104208 0
v 18.8854 -82.1871 -38.391
vn -0.268664 -0.630335 0.728352
v 18.8854 -82.1871 -39.5721
vn -0.268656 -0.630316 -0.728372
v 18.5704 -79.8249 -38.391
vn -7.61284e-06 -0.00460891 0.999989
v 18.5704 -79.8249 -38.9816
vn -0.00381239 -0.999993 0
v 18.5704 -79.8249 -39.5721
vn -7.66474e-06 -0.00233941 -0.999997
v 18.6909 -79.8489 -38.6863
vn -0.373192 -0.927754 0
v 18.6909 -79.8489 -38.9816
vn -0.393662 -0.919255 0
v 18.6909 -79.8489 -39.2769
vn -0.393641 -0.919264 0
v 18.7931 -79.9172 -38.391
vn -0.130139 -0.113961 0.984925
v 18.7931 -79.9172 -38.6863
vn -0.707107 -0.707107 0
v 18.7931 -79.9172 -38.9816
vn -0.707107 -0.707107 0
v 18.7931 -79.9172 -39.2769
vn -0.707099 -0.707115 0
v 18.7931 -79.9172 -39.5721
vn -0.113924 -0.130096 -0.984935
v 18.8614 -80.0194 -38.6863
vn -0.919255 -0.393662 0
v 18.8614 -80.0194 -38.9816
vn -0.927754 -0.373192 0
v 18.8614 -80.0194 -39.2769
vn -0.91926 -0.393652 0
v 18.8854 -80.1399 -38.391
vn -0.0411538 -0.00045564 0.999153
v 18.8854 -80.1399 -38.9816
vn -0.999996 -0.00288832 0
v 18.8854 -80.1399 -39.5721
vn -0.041133 -0.000455409 -0.999154
v 18.6909 -79.8489 -38.391
vn -3.04667e-05 -6.99113e-05 1
v 18.8614 -80.0194 -38.391
vn -0.101686 -0.0363404 0.994153
v 18.5704 -79.8249 -39.3753
vn -0.00381185 -0.999993 0
v 18.5704 -79.8249 -39.1784
vn -0.00381176 -0.999993 0
v 18.5704 -79.8249 -38.7847
vn -0.00219609 -0.999998 0
v 18.5704 -79.8249 -38.5879
vn -0.00381239 -0.999993 0
v 18.8614 -80.0194 -39.5721
vn -0.135231 -0.0589336 -0.98906
v 18.6909 -79.8489 -39.5721
vn -1.85492e-05 -5.19024e-05 -1
v 18.8854 -80.1399 -38.5879
vn -0.999827 -0.0185973 0
v 18.8854 -80.1399 -38.7847
vn -0.999827 -0.0185973 0
v 18.8854 -80.1399 -39.1784
vn -0.999827 -0.0185973 0
v 18.8854 -80.1399 -39.3753
vn -0.999827 -0.0185949 0
v 11.3657 -79.8249 -38.391
vn 3.125e-06 -0.000953814 1
v 11.3657 -79.8249 -39.5721
vn 3.15617e-06 -0.0019108 -0.999998
v 11.3657 -79.8249 -39.3753
vn 0.00381116 -0.999993 -9.79684e-18
v 11.3657 -79.8249 -39.1784
vn 0.00219644 -0.999998 0
v 11.3657 -79.8249 -38.9816
vn 0.0038117 -0.999993 0
v 11.3657 -79.8249 -38.7847
vn 0.00381233 -0.999993 0
v 11.3657 -79.8249 -38.5879
vn 0.0038117 -0.999993 9.8272e-18
v 11.0507 -80.1399 -38.391
vn 0.0281791 -0.000188641 0.999603
v 11.0507 -80.1399 -38.9816
vn 0.999996 -0.00298532 0
v 11.0507 -80.1399 -39.5721
vn 0.0295836 -0.000471345 -0.999562
v 11.0747 -80.0194 -38.391
vn 0.000719962 -0.0002573 1
v 11.0747 -80.0194 -38.6863
vn 0.916728 -0.399512 0
v 11.0747 -80.0194 -38.9816
vn 0.919255 -0.393662 0
v 11.0747 -80.0194 -39.2769
vn 0.927759 -0.373181 0
v 11.0747 -80.0194 -39.5721
vn 0.000509579 -0.0002112 -1
v 11.143 -79.9172 -38.391
vn 0.0255729 -0.0255579 0.999346
v 11.143 -79.9172 -38.6863
vn 0.6787 -0.734416 0
v 11.143 -79.9172 -38.9816
vn 0.707314 -0.706899 0
v 11.143 -79.9172 -39.2769
vn 0.707322 -0.706891 0
v 11.2451 -79.8489 -38.6863
vn 0.39368 -0.919248 0
v 11.2451 -79.8489 -38.9816
vn 0.393668 -0.919253 0
v 11.2451 -79.8489 -39.2769
vn 0.373176 -0.927761 0
v 11.2451 -79.8489 -38.391
vn 0.00894385 -0.0250317 0.999647
v 11.0507 -80.1399 -39.3753
vn 0.999978 -0.00669422 0
v 11.0507 -80.1399 -39.1784
vn 0.999935 -0.0114267 0
v 11.0507 -80.1399 -38.7847
vn 0.999978 -0.00669422 0
v 11.0507 -80.1399 -38.5879
vn 0.999935 -0.0114267 0
v 11.2451 -79.8489 -39.5721
vn 0.00899905 -0.0206479 -0.999746
v 11.143 -79.9172 -39.5721
vn 0.0201072 -0.0176003 -0.999643
v 11.0507 -83.6045 -38.391
vn 0.219598 -0.444182 0.868608
v 11.0507 -83.6045 -39.5721
vn 0.219588 -0.444163 -0.86862
v 3.72787 -83.9194 -38.391
vn 0.100674 -0.00113378 0.994919
v 3.72787 -83.9194 -38.9816
vn 0.999996 -0.00294033 0
v 3.72787 -83.9194 -39.5721
vn 0.100623 -0.00113321 -0.994924
v 3.75184 -83.7989 -38.6863
vn 0.919329 -0.393489 0
v 3.75184 -83.7989 -38.9816
vn 0.927827 -0.373012 0
v 3.75184 -83.7989 -39.2769
vn 0.919338 -0.393468 0
v 3.82012 -83.6967 -38.6863
vn 0.70719 -0.707024 0
v 3.82012 -83.6967 -38.9816
vn 0.70719 -0.707024 0
v 3.82012 -83.6967 -39.2769
vn 0.707198 -0.707016 0
v 3.9223 -83.6284 -38.6863
vn 0.393321 -0.919401 0
v 3.9223 -83.6284 -38.9816
vn 0.39331 -0.919406 0
v 3.9223 -83.6284 -39.2769
vn 0.372797 -0.927913 0
v 4.04283 -83.6045 -38.391
vn 3.16892e-05 -0.00945161 0.999955
v 4.04283 -83.6045 -38.9816
vn 0.00148098 -0.999999 0
v 4.04283 -83.6045 -39.5721
vn 3.16731e-05 -0.00944681 -0.999955
v 3.75184 -83.7989 -38.391
vn 0.00260615 -0.00113516 0.999996
v 3.82012 -83.6967 -38.391
vn 0.0213434 -0.0243679 0.999475
v 3.9223 -83.6284 -38.391
vn 0.00577649 -0.01619 0.999852
v 3.72787 -83.9194 -39.3753
vn 0.999821 -0.0189005 0
v 3.72787 -83.9194 -39.1784
vn 0.999821 -0.0189029 0
v 3.72787 -83.9194 -38.7847
vn 0.999821 -0.0189029 0
v 3.72787 -83.9194 -38.5879
vn 0.999821 -0.0189029 0
v 3.9223 -83.6284 -39.5721
vn 0.00942042 -0.0216374 -0.999721
v 3.82012 -83.6967 -39.5721
vn 0.024365 -0.0213308 -0.999476
v 3.75184 -83.7989 -39.5721
vn 0.00194816 -0.000695795 -0.999998
v 4.04283 -83.6045 -38.5879
vn 0.00579401 -0.999983 0
v 4.04283 -83.6045 -38.7847
vn 0.00579401 -0.999983 0
v 4.04283 -83.6045 -39.1784
vn 0.00335277 -0.999994 0
v 4.04283 -83.6045 -39.3753
vn 0.00579319 -0.999983 0
v 3.72787 -85.9273 -38.391
vn 0.559398 -0.548422 0.621536
v 3.72787 -85.9273 -39.5721
vn 0.559386 -0.54841 -0.621558
v 1.44441 -86.2423 -38.391
vn 0.0336494 -0.000584306 0.999434
v 1.44441 -86.2423 -38.9816
vn 0.999968 -0.00798964 0
v 1.44441 -86.2423 -39.5721
vn 0.0336323 -0.000584009 -0.999434
v 1.46838 -86.1217 -38.6863
vn 0.927887 -0.372861 0
v 1.46838 -86.1217 -38.9816
vn 0.91939 -0.393348 0
v 1.46838 -86.1217 -39.2769
vn 0.919399 -0.393327 0
v 1.53666 -86.0195 -38.6863
vn 0.706982 -0.707231 0
v 1.53666 -86.0195 -38.9816
vn 0.706982 -0.707231 0
v 1.53666 -86.0195 -39.2769
vn 0.70699 -0.707223 0
v 1.63884 -85.9513 -38.6863
vn 0.39328 -0.919419 0
v 1.63884 -85.9513 -38.9816
vn 0.393269 -0.919424 0
v 1.63884 -85.9513 -39.2769
vn 0.372835 -0.927898 0
v 1.75937 -85.9273 -38.391
vn 0.00108144 -0.0941313 0.995559
v 1.75937 -85.9273 -38.9816
vn 0.00519497 -0.999987 0
v 1.75937 -85.9273 -39.5721
vn 0.00108089 -0.0940839 -0.995564
v 1.46838 -86.1217 -38.391
vn 0.00109721 -0.000477713 0.999999
v 1.53666 -86.0195 -38.391
vn 0.0100347 -0.0114663 0.999884
v 1.63884 -85.9513 -38.391
vn 0.000739349 -0.00207092 0.999998
v 1.44441 -86.2423 -39.3753
vn 0.999594 -0.028505 5.29294e-16
v 1.44441 -86.2423 -39.1784
vn 0.999594 -0.0285085 0
v 1.44441 -86.2423 -38.7847
vn 0.999849 -0.0173619 0
v 1.44441 -86.2423 -38.5879
vn 0.999594 -0.0285085 -5.29283e-16
v 1.63884 -85.9513 -39.5721
vn 0.00120493 -0.00276808 -0.999995
v 1.53666 -86.0195 -39.5721
vn 0.0114608 -0.0100372 -0.999884
v 1.46838 -86.1217 -39.5721
vn 0.000820301 -0.000292814 -1
v 1.75937 -85.9273 -38.5879
vn 0.0192682 -0.999814 6.20957e-18
v 1.75937 -85.9273 -38.7847
vn 0.0192682 -0.999814 0
v 1.75937 -85.9273 -39.1784
vn 0.0114878 -0.999934 0
v 1.75937 -85.9273 -39.3753
vn 0.0192656 -0.999814 -6.06412e-18
v 1.44441 -87.5021 -38.391
vn 0.185277 -0.767359 0.613867
v 1.44441 -87.5021 -39.5721
vn 0.160573 -0.83135 -0.532047
v -2.26032 94.8995 -38.391
vn -0.0398698 0.000349374 0.999205
v -2.26032 94.8995 -38.9816
vn -0.999992 0.00393137 0
v -2.26032 94.8995 -39.5721
vn -0.0424803 0.000872898 -0.999097
v -2.28429 94.7789 -38.391
vn -0.0432211 0.0154329 0.998946
v -2.28429 94.7789 -38.6863
vn -0.91679 0.399369 0
v -2.28429 94.7789 -38.9816
vn -0.919322 0.393506 0
v -2.28429 94.7789 -39.2769
vn -0.927837 0.372985 0
v -2.28429 94.7789 -39.5721
vn -0.0317588 0.0131556 -0.999409
v -2.35257 94.6768 -38.391
vn -0.000457613 0.000457774 1
v -2.35257 94.6768 -38.6863
vn -0.678356 0.734734 0
v -2.35257 94.6768 -38.9816
vn -0.706982 0.707231 0
v -2.35257 94.6768 -39.2769
vn -0.70699 0.707223 0
v -2.45475 94.6085 -38.6863
vn -0.393651 0.91926 0
v -2.45475 94.6085 -38.9816
vn -0.39364 0.919265 0
v -2.45475 94.6085 -39.2769
vn -0.373173 0.927762 0
v -2.57528 94.5845 -38.391
vn -0.000621756 0.102057 0.994778
v -2.57528 94.5845 -38.9816
vn -0.00271212 0.999996 0
v -2.57528 94.5845 -39.5721
vn -0.000621444 0.102006 -0.994784
v -2.45475 94.6085 -38.391
vn -0.000241635 0.000676198 1
v -2.26032 94.8995 -39.3753
vn -0.999962 0.00876255 0
v -2.26032 94.8995 -39.1784
vn -0.99989 0.0148431 0
v -2.26032 94.8995 -38.7847
vn -0.999962 0.00876255 0
v -2.26032 94.8995 -38.5879
vn -0.99989 0.0148431 0
v -2.45475 94.6085 -39.5721
vn -0.00039388 0.000903836 -1
v -2.35257 94.6768 -39.5721
vn -0.000365778 0.000320462 -1
v -2.57528 94.5845 -38.5879
vn -0.0104221 0.999946 0
v -2.57528 94.5845 -38.7847
vn -0.0104221 0.999946 0
v -2.57528 94.5845 -39.1784
vn -0.00609214 0.999981 0
v -2.57528 94.5845 -39.3753
vn -0.0104206 0.999946 0
v -2.26032 97.5143 -38.391
vn -0.245487 0.591375 0.768122
v -2.26032 97.5143 -39.5721
vn -0.285801 0.344265 -0.894315
v 76.3302 94.5845 -38.391
vn 0.000630179 0.103439 0.994636
v 76.3302 94.5845 -38.9816
vn 0.00271213 0.999996 0
v 76.3302 94.5845 -39.5721
vn 0.000629862 0.103387 -0.994641
v 76.2097 94.6085 -38.6863
vn 0.373192 0.927754 0
v 76.2097 94.6085 -38.9816
vn 0.393662 0.919255 0
v 76.2097 94.6085 -39.2769
vn 0.393641 0.919264 0
v 76.1075 94.6768 -38.6863
vn 0.706899 0.707314 0
v 76.1075 94.6768 -38.9816
vn 0.706899 0.707314 0
v 76.1075 94.6768 -39.2769
vn 0.706891 0.707322 0
v 76.0392 94.7789 -38.6863
vn 0.919389 0.39335 0
v 76.0392 94.7789 -38.9816
vn 0.919394 0.393338 0
v 76.0392 94.7789 -39.2769
vn 0.927912 0.3728 0
v 76.0153 94.8995 -38.391
vn 0.0398693 0.00034835 0.999205
v 76.0153 94.8995 -38.9816
vn 0.999992 0.00391989 0
v 76.0153 94.8995 -39.5721
vn 0.0398491 0.000348173 -0.999206
v 76.2097 94.6085 -38.391
vn 0.000405222 0.000929856 0.999999
v 76.1075 94.6768 -38.391
vn 0.000365902 0.000320651 1
v 76.0392 94.7789 -38.391
vn 0.0432169 0.0154177 0.998947
v 76.3302 94.5845 -39.3753
vn 0.0104208 0.999946 0
v 76.3302 94.5845 -39.1784
vn 0.0104222 0.999946 0
v 76.3302 94.5845 -38.7847
vn 0.00609219 0.999981 0
v 76.3302 94.5845 -38.5879
vn 0.0104222 0.999946 0
v 76.0392 94.7789 -39.5721
vn 0.0576987 0.0251233 -0.998018
v 76.1075 94.6768 -39.5721
vn 0.000320409 0.000366047 -1
v 76.2097 94.6085 -39.5721
vn 0.000248415 0.000695088 -1
v 76.0153 94.8995 -38.5879
vn 0.99989 0.0147997 0
v 76.0153 94.8995 -38.7847
vn 0.99989 0.0147997 0
v 76.0153 94.8995 -39.1784
vn 0.999962 0.00873696 0
v 76.0153 94.8995 -39.3753
vn 0.999891 0.0147977 0
v 80.1491 94.5845 -38.391
vn 0.968644 0.141277 0.204376
v 80.1491 94.5845 -39.5721
vn 0.991877 0.0723288 -0.104639
v 71.2909 97.0609 -38.391
vn -0.00747509 0.000312602 0.999972
v 71.2909 97.0609 -38.9816
vn -0.999923 0.0124079 0
v 71.2909 97.0609 -39.5721
vn -0.0074713 0.000312443 -0.999972
v 71.2669 96.9404 -38.6863
vn -0.919255 0.393662 0
v 71.2669 96.9404 -38.9816
vn -0.927754 0.373192 0
v 71.2669 96.9404 -39.2769
vn -0.919264 0.393641 0
v 71.1986 96.8382 -38.6863
vn -0.707107 0.707107 0
v 71.1986 96.8382 -38.9816
vn -0.707107 0.707107 0
v 71.1986 96.8382 -39.2769
vn -0.707115 0.707099 0
v 71.0964 96.7699 -38.6863
vn -0.393662 0.919255 0
v 71.0964 96.7699 -38.9816
vn -0.39365 0.91926 0
v 71.0964 96.7699 -39.2769
vn -0.373191 0.927754 0
v 70.9759 96.7459 -38.391
vn -7.69772e-07 0.0021912 0.999998
v 70.9759 96.7459 -38.9816
vn -0.000409712 1 0
v 70.9759 96.7459 -39.5721
vn -1.34337e-06 0.00764119 -0.999971
v 71.2669 96.9404 -38.391
vn -0.0670349 0.0292131 0.997323
v 71.1986 96.8382 -38.391
vn -0.0596953 0.0681697 0.995886
v 71.0964 96.7699 -38.391
vn -0.024874 0.0696012 0.997265
v 71.2909 97.0609 -39.3753
vn -0.998007 0.0630962 0
v 71.2909 97.0609 -39.1784
vn -0.998007 0.0631024 0
v 71.2909 97.0609 -38.7847
vn -0.998007 0.0631024 0
v 71.2909 97.0609 -38.5879
vn -0.998007 0.0631024 0
v 71.0964 96.7699 -39.5721
vn -0.0404485 0.0928148 -0.994861
v 71.1986 96.8382 -39.5721
vn -0.0681468 0.0596753 -0.995889
v 71.2669 96.9404 -39.5721
vn -0.0501731 0.0179312 -0.99858
v 70.9759 96.7459 -38.5879
vn -0.000409712 1 0
v 70.9759 96.7459 -38.7847
vn -0.000409781 1 0
v 70.9759 96.7459 -39.1784
vn -0.000234359 1 0
v 70.9759 96.7459 -39.3753
vn -0.000409652 1 0
v 71.2909 97.5143 -38.391
vn -0.0705131 0.979629 0.18803
v 71.2909 97.5143 -39.5721
vn -0.133192 0.925258 -0.355187
v 2.77905 96.7459 -38.391
vn 1.34405e-06 0.00764508 0.999971
v 2.77905 96.7459 -38.9816
vn 0.000409781 1 0
v 2.77905 96.7459 -39.5721
vn 7.69381e-07 0.00219009 -0.999998
v 2.65852 96.7699 -38.391
vn 0.0248728 0.0696046 0.997265
v 2.65852 96.7699 -38.6863
vn 0.399504 0.916732 0
v 2.65852 96.7699 -38.9816
vn 0.393651 0.91926 0
v 2.65852 96.7699 -39.2769
vn 0.393631 0.919269 0
v 2.55634 96.8382 -38.391
vn 0.0849823 0.0849574 0.992754
v 2.55634 96.8382 -38.6863
vn 0.734752 0.678336 0
v 2.55634 96.8382 -38.9816
vn 0.70721 0.707003 0
v 2.55634 96.8382 -39.2769
vn 0.707203 0.707011 0
v 2.48807 96.9404 -38.6863
vn 0.919331 0.393485 0
v 2.48807 96.9404 -38.9816
vn 0.919336 0.393473 0
v 2.48807 96.9404 -39.2769
vn 0.927825 0.373015 0
v 2.46409 97.0609 -38.391
vn 0.0074751 0.000312342 0.999972
v 2.46409 97.0609 -38.9816
vn 0.999785 0.0207251 0
v 2.46409 97.0609 -39.5721
vn 0.0074713 0.000312183 -0.999972
v 2.48807 96.9404 -38.391
vn 0.0501992 0.0179297 0.998578
v 2.77905 96.7459 -39.3753
vn 0.000409721 1 0
v 2.77905 96.7459 -39.1784
vn 0.000409711 1 0
v 2.77905 96.7459 -38.7847
vn 0.000234319 1 0
v 2.77905 96.7459 -38.5879
vn 0.000409781 1 0
v 2.48807 96.9404 -39.5721
vn 0.0670192 0.0291914 -0.997325
v 2.55634 96.8382 -39.5721
vn 0.0596803 0.068135 -0.995889
v 2.65852 96.7699 -39.5721
vn 0.0248638 0.0695781 -0.997267
v 2.46409 97.0609 -38.5879
vn 0.99801 0.06305 0
v 2.46409 97.0609 -38.7847
vn 0.99801 0.06305 0
v 2.46409 97.0609 -39.1784
vn 0.999128 0.0417479 0
v 2.46409 97.0609 -39.3753
vn 0.998011 0.0630438 0
v 3.79032 55.3079 -38.391
vn -1.12341e-05 -0.00281249 0.999996
v 3.79032 55.3079 -38.9816
vn -0.000248518 -1 0
v 3.79032 55.3079 -39.5721
vn -1.12301e-05 -0.00281107 -0.999996
v 3.85068 55.3021 -38.6863
vn -0.194501 -0.980889 -0.00512271
v 3.85068 55.3021 -38.9816
vn -0.200181 -0.979759 0
v 3.85068 55.3021 -39.2769
vn -0.189404 -0.981878 0.00647793
v 3.91085 55.284 -38.6863
vn -0.401495 -0.915861 0
v 3.91085 55.284 -38.9816
vn -0.382912 -0.923785 0
v 3.91085 55.284 -39.2769
vn -0.364167 -0.931334 0
v 3.96624 55.2542 -38.6863
vn -0.559974 -0.828485 -0.00642904
v 3.96624 55.2542 -38.9816
vn -0.559986 -0.828502 0
v 3.96624 55.2542 -39.2769
vn -0.548311 -0.836256 0.00553801
v 4.01303 55.2157 -38.391
vn -0.00492957 -0.00499754 0.999975
v 4.01303 55.2157 -38.9816
vn -0.706638 -0.707575 0
v 4.01303 55.2157 -39.5721
vn -0.00969151 -0.00975946 -0.999905
v 3.91085 55.284 -38.391
vn -0.00453199 -0.0109424 0.99993
v 3.79032 55.3079 -39.3753
vn -0.000566137 -1 0
v 3.79032 55.3079 -39.1784
vn -0.000986417 -1 0
v 3.79032 55.3079 -38.7847
vn -0.000566137 -1 0
v 3.79032 55.3079 -38.5879
vn -0.000566137 -1 0
v 3.91085 55.284 -39.5721
vn -0.00453045 -0.0109387 -0.99993
v 4.01303 55.2157 -38.5879
vn -0.706638 -0.707575 0
v 4.01303 55.2157 -38.7847
vn -0.70629 -0.707922 0
v 4.01303 55.2157 -39.1784
vn -0.70629 -0.707922 0
v 4.01303 55.2157 -39.3753
vn -0.706638 -0.707575 0
v -6.39418 55.3079 -38.391
vn -0.110586 -0.0430139 0.992935
v -6.39418 55.3079 -39.5721
vn -0.217223 -0.0422436 -0.975207
v 4.01303 22.3293 -38.9816
vn -0.706288 0.707924 0
v 3.96622 22.2908 -38.6863
vn -0.555707 0.831363 -0.00507522
v 3.96622 22.2908 -38.9816
vn -0.550936 0.834548 0
v 3.96622 22.2908 -39.2769
vn -0.559971 0.828487 0.00641809
v 3.91085 22.261 -38.6863
vn -0.364147 0.931341 0
v 3.91085 22.261 -38.9816
vn -0.382912 0.923785 0
v 3.91085 22.261 -39.2769
vn -0.401521 0.91585 0
v 3.91085 22.261 -39.5721
vn -0.0121197 0.0292628 -0.999498
v 3.85066 22.2429 -38.6863
vn -0.189413 0.981876 -0.00647283
v 3.85066 22.2429 -38.9816
vn -0.189417 0.981897 0
v 3.85066 22.2429 -39.2769
vn -0.203253 0.97911 0.00557618
v 3.79032 22.2371 -38.391
vn -4.51132e-05 0.0112941 0.999936
v 3.79032 22.2371 -38.9816
vn -0.000142163 1 0
v 3.79032 22.2371 -39.5721
vn -4.50968e-05 0.0112884 -0.999936
v 4.01303 22.3293 -38.391
vn -0.0311157 0.0313339 0.999025
v 3.91085 22.261 -38.391
vn -0.0121238 0.0292727 0.999498
v 4.01303 22.3293 -39.5721
vn -0.0148371 0.0150418 -0.999777
v 4.01303 22.3293 -39.3753
vn -0.706637 0.707577 0
v 4.01303 22.3293 -39.1784
vn -0.706289 0.707924 0
v 4.01303 22.3293 -38.7847
vn -0.706637 0.707577 0
v 4.01303 22.3293 -38.5879
vn -0.706637 0.707577 0
v 3.79032 22.2371 -38.5879
vn -0.000566139 1 0
v 3.79032 22.2371 -38.7847
vn -0.00098642 1 0
v 3.79032 22.2371 -39.1784
vn -0.00098642 1 0
v 3.79032 22.2371 -39.3753
vn -0.000566139 1 0
v 8.15924 26.4755 -38.391
vn -0.000693638 0.000684203 1
v 8.15924 26.4755 -39.5721
vn -0.00133904 0.00132972 -0.999998
v 8.15924 26.4755 -39.3753
vn -0.707572 0.706641 0
v 8.15924 26.4755 -39.1784
vn -0.707918 0.706295 0
v 8.15924 26.4755 -38.9816
vn -0.707572 0.706641 0
v 8.15924 26.4755 -38.7847
vn -0.707918 0.706295 0
v 8.15924 26.4755 -38.5879
vn -0.707572 0.706641 0
v 8.25149 26.6982 -38.391
vn -0.00344772 2.96831e-06 0.999994
v 8.25149 26.6982 -38.9816
vn -1 0.000281356 0
v 8.25149 26.6982 -39.5721
vn -0.00343741 5.89047e-06 -0.999994
v 8.24565 26.6379 -38.6863
vn -0.980771 0.195096 -0.00511056
v 8.24565 26.6379 -38.9816
vn -0.97964 0.200762 0
v 8.24565 26.6379 -39.2769
vn -0.981761 0.19001 0.00646283
v 8.22752 26.5777 -38.6863
vn -0.916049 0.401067 0
v 8.22752 26.5777 -38.9816
vn -0.923917 0.382594 0
v 8.22752 26.5777 -39.2769
vn -0.931413 0.363964 0
v 8.19778 26.5223 -38.6863
vn -0.828592 0.559816 -0.00647312
v 8.19778 26.5223 -38.9816
vn -0.828609 0.559828 0
v 8.19778 26.5223 -39.2769
vn -0.836413 0.548071 0.00557632
v 8.22752 26.5777 -38.391
vn -1.47535e-05 6.11072e-06 1
v 8.25149 26.6982 -39.3753
vn -1 0.00016097 0
v 8.25149 26.6982 -39.1784
vn -1 0.000281309 0
v 8.25149 26.6982 -38.7847
vn -1 0.000160942 0
v 8.25149 26.6982 -38.5879
vn -1 0.00016097 0
v 8.22752 26.5777 -39.5721
vn -1.47635e-05 6.11488e-06 -1
v 8.25149 50.8468 -38.391
vn -0.00343915 -5.89119e-06 0.999994
v 8.25149 50.8468 -39.5721
vn -0.00344597 -2.96653e-06 -0.999994
v 8.25149 50.8468 -39.3753
vn -1 -0.000160667 0
v 8.25149 50.8468 -39.1784
vn -1 -0.000280875 0
v 8.25149 50.8468 -38.9816
vn -1 -0.000160667 0
v 8.25149 50.8468 -38.7847
vn -1 -0.000280875 0
v 8.25149 50.8468 -38.5879
vn -1 -0.000160667 0
v 8.15924 51.0695 -38.391
vn -0.00985593 -0.00978735 0.999904
v 8.15924 51.0695 -38.9816
vn -0.707916 -0.706297 0
v 8.15924 51.0695 -39.5721
vn -0.00504189 -0.00497332 -0.999975
v 8.1978 51.0227 -38.6863
vn -0.831488 -0.555519 -0.00513368
v 8.1978 51.0227 -38.9816
vn -0.834708 -0.550692 0
v 8.1978 51.0227 -39.2769
vn -0.82858 -0.559833 0.0064919
v 8.22752 50.9673 -38.6863
vn -0.931423 -0.363939 0
v 8.22752 50.9673 -38.9816
vn -0.923945 -0.382526 0
v 8.22752 50.9673 -39.2769
vn -0.916095 -0.400962 0
v 8.24566 50.9071 -38.6863
vn -0.981761 -0.190008 -0.00647229
v 8.24566 50.9071 -38.9816
vn -0.981782 -0.190012 0
v 8.24566 50.9071 -39.2769
vn -0.978987 -0.203847 0.00557533
v 8.22752 50.9673 -38.391
vn -1.73602e-05 -7.18989e-06 1
v 8.15924 51.0695 -39.3753
vn -0.707571 -0.706642 0
v 8.15924 51.0695 -39.1784
vn -0.707915 -0.706297 0
v 8.15924 51.0695 -38.7847
vn -0.707571 -0.706642 0
v 8.15924 51.0695 -38.5879
vn -0.707571 -0.706642 0
v 8.22752 50.9673 -39.5721
vn -3.78356e-05 -1.56699e-05 -1
v 69.7419 55.2157 -38.391
vn 0.00974776 -0.0098599 0.999904
v 69.7419 55.2157 -38.9816
vn 0.70629 -0.707922 0
v 69.7419 55.2157 -39.5721
vn 0.00492708 -0.00499506 -0.999975
v 69.7887 55.2542 -38.6863
vn 0.555626 -0.831405 -0.00677932
v 69.7887 55.2542 -38.9816
vn 0.550852 -0.834603 0
v 69.7887 55.2542 -39.2769
vn 0.559904 -0.828533 0.00642997
v 69.8441 55.284 -38.6863
vn 0.420074 -0.907471 -0.005764
v 69.8441 55.284 -38.9816
vn 0.382799 -0.923832 0
v 69.8441 55.284 -39.2769
vn 0.344727 -0.938685 0.00579699
v 69.9043 55.3021 -38.6863
vn 0.189462 -0.981867 -0.00646771
v 69.9043 55.3021 -38.9816
vn 0.189466 -0.981887 0
v 69.9043 55.3021 -39.2769
vn 0.206559 -0.978404 0.00765496
v 69.9646 55.3079 -38.391
vn 1.11766e-05 -0.00279806 0.999996
v 69.9646 55.3079 -38.9816
vn 0.000142163 -1 0
v 69.9646 55.3079 -39.5721
vn 1.84555e-05 -0.00282087 -0.999996
v 69.8441 55.284 -38.391
vn 0.00356796 -0.00915119 0.999952
v 69.7419 55.2157 -39.3753
vn 0.706638 -0.707575 0
v 69.7419 55.2157 -39.1784
vn 0.70629 -0.707922 0
v 69.7419 55.2157 -38.7847
vn 0.706638 -0.707575 0
v 69.7419 55.2157 -38.5879
vn 0.706638 -0.707575 0
v 69.8441 55.284 -39.5721
vn 0.00394509 -0.00899287 -0.999952
v 69.9646 55.3079 -38.5879
vn 0.000566141 -1 0
v 69.9646 55.3079 -38.7847
vn 0.000986427 -1 0
v 69.9646 55.3079 -39.1784
vn 0.000986427 -1 0
v 69.9646 55.3079 -39.3753
vn 0.000566141 -1 0
v 65.5957 51.0695 -38.391
vn 0.00504441 -0.00497577 0.999975
v 65.5957 51.0695 -39.5721
vn 0.00994731 -0.00983415 -0.999902
v 65.5957 51.0695 -39.3753
vn 0.707575 -0.706638 0
v 65.5957 51.0695 -39.1784
vn 0.707922 -0.70629 0
v 65.5957 51.0695 -38.9816
vn 0.707575 -0.706638 0
v 65.5957 51.0695 -38.7847
vn 0.707922 -0.70629 0
v 65.5957 51.0695 -38.5879
vn 0.707575 -0.706638 0
v 65.5035 50.8468 -38.391
vn 0.00345413 -4.88618e-06 0.999994
v 65.5035 50.8468 -38.9816
vn 1 -0.000279429 0
v 65.5035 50.8468 -39.5721
vn 0.00343741 -5.87003e-06 -0.999994
v 65.5093 50.9071 -38.6863
vn 0.98087 -0.194546 -0.00682027
v 65.5093 50.9071 -38.9816
vn 0.979751 -0.200221 0
v 65.5093 50.9071 -39.2769
vn 0.981868 -0.189456 0.00646875
v 65.5274 50.9673 -38.6863
vn 0.938689 -0.344716 -0.00579588
v 65.5274 50.9673 -38.9816
vn 0.923832 -0.382799 0
v 65.5274 50.9673 -39.2769
vn 0.907476 -0.420065 0.00576511
v 65.5572 51.0227 -38.6863
vn 0.828536 -0.559899 -0.00642893
v 65.5572 51.0227 -38.9816
vn 0.828553 -0.55991 0
v 65.5572 51.0227 -39.2769
vn 0.838107 -0.545453 0.00760886
v 65.5274 50.9673 -38.391
vn 3.11133e-05 -1.36491e-05 1
v 65.5035 50.8468 -39.3753
vn 1 -0.000159867 0
v 65.5035 50.8468 -39.1784
vn 1 -0.000279382 0
v 65.5035 50.8468 -38.7847
vn 1 -0.00015984 0
v 65.5035 50.8468 -38.5879
vn 1 -0.000159867 0
v 65.5274 50.9673 -39.5721
vn 1.45124e-05 -5.65824e-06 -1
v 65.5035 26.6982 -38.391
vn 0.00343915 5.87216e-06 0.999994
v 65.5035 26.6982 -39.5721
vn 0.00345238 4.88446e-06 -0.999994
v 65.5035 26.6982 -39.3753
vn 1 0.00015984 0
v 65.5035 26.6982 -39.1784
vn 1 0.000279429 0
v 65.5035 26.6982 -38.9816
vn 1 0.00015984 0
v 65.5035 26.6982 -38.7847
vn 1 0.000279429 0
v 65.5035 26.6982 -38.5879
vn 1 0.00015984 0
v 65.5957 26.4755 -38.391
vn 0.00340097 0.00336229 0.999989
v 65.5957 26.4755 -38.9816
vn 0.707922 0.70629 0
v 65.5957 26.4755 -39.5721
vn 0.00172283 0.00169939 -0.999997
v 65.5572 26.5223 -38.6863
vn 0.831405 0.555626 -0.00677932
v 65.5572 26.5223 -38.9816
vn 0.834603 0.550852 0
v 65.5572 26.5223 -39.2769
vn 0.828533 0.559904 0.00642997
v 65.5274 26.5777 -38.6863
vn 0.907471 0.420074 -0.005764
v 65.5274 26.5777 -38.9816
vn 0.923832 0.382799 0
v 65.5274 26.5777 -39.2769
vn 0.938685 0.344727 0.00579699
v 65.5093 26.6379 -38.6863
vn 0.981867 0.189462 -0.00646771
v 65.5093 26.6379 -38.9816
vn 0.981887 0.189466 0
v 65.5093 26.6379 -39.2769
vn 0.978404 0.206559 0.00765496
v 65.5274 26.5777 -38.391
vn 8.76955e-06 3.41916e-06 1
v 65.5957 26.4755 -39.3753
vn 0.707575 0.706638 0
v 65.5957 26.4755 -39.1784
vn 0.707922 0.70629 0
v 65.5957 26.4755 -38.7847
vn 0.707575 0.706638 0
v 65.5957 26.4755 -38.5879
vn 0.707575 0.706638 0
v 65.5274 26.5777 -39.5721
vn 8.6116e-06 3.77783e-06 -1
v 69.7419 22.3293 -38.391
vn 0.00068582 0.000695281 1
v 69.7419 22.3293 -39.5721
vn 0.00134841 0.00135787 -0.999998
v 69.7419 22.3293 -39.3753
vn 0.706638 0.707575 0
v 69.7419 22.3293 -39.1784
vn 0.706638 0.707575 0
v 69.7419 22.3293 -38.9816
vn 0.70629 0.707922 0
v 69.7419 22.3293 -38.7847
vn 0.70629 0.707922 0
v 69.7419 22.3293 -38.5879
vn 0.706638 0.707575 0
v 69.9646 22.2371 -38.391
vn 4.39241e-06 0.00109964 0.999999
v 69.9646 22.2371 -38.9816
vn 0.000248518 1 0
v 69.9646 22.2371 -39.5721
vn 4.39082e-06 0.00109908 -0.999999
v 69.9043 22.2429 -38.6863
vn 0.194548 0.98088 -0.00511525
v 69.9043 22.2429 -38.9816
vn 0.200221 0.979751 0
v 69.9043 22.2429 -39.2769
vn 0.189456 0.981868 0.00646875
v 69.8441 22.261 -38.6863
vn 0.401389 0.915908 0
v 69.8441 22.261 -38.9816
vn 0.382799 0.923832 0
v 69.8441 22.261 -39.2769
vn 0.364047 0.93138 0
v 69.8441 22.261 -39.5721
vn 0.00115199 0.00278172 -0.999995
v 69.7887 22.2908 -38.6863
vn 0.559899 0.828536 -0.00642893
v 69.7887 22.2908 -38.9816
vn 0.550857 0.834599 0
v 69.7887 22.2908 -39.2769
vn 0.555631 0.831413 0.0050854
v 69.8441 22.261 -38.391
vn 0.00115238 0.00278267 0.999995
v 69.9646 22.2371 -39.3753
vn 0.000566141 1 0
v 69.9646 22.2371 -39.1784
vn 0.000986427 1 0
v 69.9646 22.2371 -38.7847
vn 0.000566141 1 0
v 69.9646 22.2371 -38.5879
vn 0.000566141 1 0
v 80.1491 22.2371 -38.391
vn 0.0772621 0.00821429 0.996977
v 80.1491 22.2371 -39.5721
vn 0.0964159 0.00820007 -0.995307
v -0.877934 -68.1855 -39.5721
vn -0.000300545 -0.000142197 -1
v -1.01995 -68.0075 -39.5721
vn -0.0060911 -0.00806201 -0.999949
v -1.22517 -67.9086 -39.5721
vn -0.000870271 -0.00396866 -0.999992
v -1.45295 -67.9086 -39.5721
vn 0.00174173 -0.00794276 -0.999967
v -1.65817 -68.0075 -39.5721
vn 0.00434686 -0.00489959 -0.999979
v -1.80018 -68.1855 -39.5721
vn 0.0202733 -0.00835381 -0.99976
v -1.80018 -68.1855 -38.7847
vn 0.0101645 -0.0041882 0.99994
v -1.65817 -68.0075 -38.7847
vn 0.00547046 -0.00616607 0.999966
v -1.45295 -67.9086 -38.7847
vn 0.00114131 -0.00520467 0.999986
v -1.22517 -67.9086 -38.7847
vn -0.00212997 -0.00680516 0.999975
v -1.01995 -68.0075 -38.7847
vn -0.00492934 -0.00509944 0.999975
v -0.877934 -68.1855 -38.7847
vn -0.0202743 -0.00835385 0.99976
v -1.81191 -68.2117 -39.1784
vn 0.836481 -0.547995 2.54242e-18
v -1.53492 -67.9348 -39.1784
vn 0.521838 -0.853044 0
v -1.33906 -67.8958 -39.1784
vn 3.55626e-18 -1 4.44533e-19
v -0.977155 -68.0457 -39.1784
vn -0.677726 -0.735259 -0.00904264
v -1.1432 -67.9348 -39.1784
vn -0.394358 -0.918912 -0.00906197
v -0.866208 -68.2117 -39.1784
vn -0.910878 -0.412648 -0.00483161
v -1.80018 -69.0234 -39.5721
vn 0.0816704 0.0386341 -0.99591
v -1.65817 -69.2015 -39.5721
vn 0.00470698 0.00622829 -0.99997
v -1.45295 -69.3003 -39.5721
vn 0.000732299 0.00334433 -0.999994
v -1.22517 -69.3003 -39.5721
vn -0.0090712 0.0414271 -0.9991
v -1.01995 -69.2015 -39.5721
vn -0.00658765 0.00742408 -0.999951
v -0.877934 -69.0234 -39.5721
vn -0.0389902 0.0160626 -0.99911
v -0.877934 -69.0234 -38.391
vn -0.0389952 0.016065 0.99911
v -1.01995 -69.2015 -38.391
vn -0.00658877 0.00742533 0.999951
v -1.22517 -69.3003 -38.391
vn -0.00650442 0.0542948 0.998504
v -1.45295 -69.3003 -38.391
vn 0.00111584 0.00318604 0.999994
v -1.65817 -69.2015 -38.391
vn 0.00537466 0.00556009 0.99997
v -1.80018 -69.0234 -38.391
vn 0.0623003 0.0256661 0.997727
v -0.866208 -68.9972 -38.9816
vn -0.836546 0.547897 0
v -1.1432 -69.2742 -38.9816
vn -0.521746 0.853101 -1.84786e-18
v -1.33906 -69.3131 -38.9816
vn -5.80958e-18 0.99995 -0.00995498
v -1.53492 -69.2742 -38.9816
vn 0.325754 0.945411 -0.00906159
v -1.70096 -69.1632 -38.9816
vn 0.677828 0.735196 -0.00604214
v -1.81191 -68.9972 -38.9816
vn 0.910893 0.412629 -0.00320529
v -1.80018 4.36245 -39.5721
vn 0.0133453 0.00631355 -0.999891
v -1.65817 4.18436 -39.5721
vn 0.00609215 0.00806197 -0.999949
v -1.45295 4.08554 -39.5721
vn 0.000869514 0.00396866 -0.999992
v -1.22517 4.08554 -39.5721
vn -0.00174022 0.00794277 -0.999967
v -1.01995 4.18436 -39.5721
vn -0.00434757 0.00489957 -0.999979
v -0.877934 4.36245 -39.5721
vn -7.71134e-05 3.1774e-05 -1
v -0.877934 4.36245 -38.7847
vn -0.0101645 0.00418803 0.99994
v -1.01995 4.18436 -38.7847
vn -0.00547139 0.00616609 0.999966
v -1.22517 4.08554 -38.7847
vn -0.000817829 0.00682534 0.999976
v -1.45295 4.08554 -38.7847
vn 0.00179559 0.00512765 0.999985
v -1.65817 4.18436 -38.7847
vn 0.00493002 0.00509952 0.999975
v -1.80018 4.36245 -38.7847
vn 0.0202761 0.00835419 0.99976
v -0.866208 4.38865 -39.1784
vn -0.836522 0.547933 -7.6263e-18
v -1.1432 4.11166 -39.1784
vn -0.52181 0.853062 -5.54332e-18
v -1.33906 4.0727 -39.1784
vn 0 0.999888 -0.0149427
v -1.53492 4.11166 -39.1784
vn 0.325773 0.94535 -0.0135874
v -1.70096 4.22261 -39.1784
vn 0.677813 0.735178 -0.00905818
v -1.81191 4.38865 -39.1784
vn 0.910885 0.412632 -0.00482274
v -0.877934 5.20028 -39.5721
vn -0.0796057 -0.0376587 -0.996115
v -1.01995 5.37836 -39.5721
vn -0.0318423 -0.042139 -0.998604
v -1.22517 5.47719 -39.5721
vn -0.000455978 -0.00208104 -0.999998
v -1.45295 5.47719 -39.5721
vn 0.0104974 -0.0479091 -0.998797
v -1.65817 5.37836 -39.5721
vn 0.0454585 -0.0512296 -0.997652
v -1.80018 5.20028 -39.5721
vn 0.0610583 -0.0251572 -0.997817
v -1.80018 5.20028 -38.391
vn 0.061066 -0.0251609 0.997817
v -1.65817 5.37836 -38.391
vn 0.0454661 -0.0512382 0.997651
v -1.45295 5.47719 -38.391
vn 0.00752266 -0.0627754 0.997999
v -1.22517 5.47719 -38.391
vn -0.000694293 -0.00198261 0.999998
v -1.01995 5.37836 -38.391
vn -0.0363432 -0.0375931 0.998632
v -0.877934 5.20028 -38.391
vn -0.0607151 -0.0250164 0.997842
v -1.81191 5.17408 -38.9816
vn 0.836524 -0.54793 0
v -1.53492 5.45107 -38.9816
vn 0.52182 -0.853056 0
v -1.33906 5.49003 -38.9816
vn 0 -0.99995 -0.00996261
v -1.1432 5.45107 -38.9816
vn -0.325788 -0.945399 -0.00905451
v -0.977155 5.34012 -38.9816
vn -0.67782 -0.735203 -0.00604139
v -0.866208 5.17408 -38.9816
vn -0.910892 -0.412632 -0.00321758
v -6.32134 92.7905 -39.5721
vn 0.21954 0 -0.975604
v -6.32134 92.7905 -38.391
vn 0.111809 0 0.99373
v -6.25821 93.0467 -38.391
vn 0.833206 -0.353567 0.425158
v -6.08327 93.2441 -38.391
vn 0.514101 -0.627942 0.584286
v -5.8366 93.3377 -38.391
vn 0.162466 -0.789571 0.591762
v -5.57471 93.3059 -38.391
vn -0.246769 -0.856342 0.453633
v -5.3576 93.156 -38.391
vn -0.0969338 -0.10119 0.990134
v -5.235 92.9224 -38.391
vn -0.485678 -0.162912 0.858823
v -5.235 92.6586 -38.391
vn -0.63407 0.102124 0.766502
v -5.3576 92.425 -38.391
vn -0.00141717 0.00106187 0.999998
v -5.57471 92.2752 -38.391
vn -0.0243734 0.0642888 0.997634
v -5.8366 92.2434 -38.391
vn 0.00972948 0.0473453 0.998831
v -6.08327 92.3369 -38.391
vn 0.0366826 0.0447963 0.998322
v -6.25821 92.5344 -38.391
vn 0.0934423 0.0396574 0.994835
v -6.25821 92.5344 -39.5721
vn 0.0857267 0.0543787 -0.994834
v -6.08327 92.3369 -39.5721
vn 0.028873 0.0501826 -0.998323
v -5.8366 92.2434 -39.5721
vn 0.00187443 0.0482995 -0.998831
v -5.57471 92.2752 -39.5721
vn -0.0122083 0.0322015 -0.999407
v -5.3576 92.425 -39.5721
vn -0.00122469 0.00127894 -0.999998
v -5.235 92.6586 -39.5721
vn -0.608908 0.204247 -0.766495
v -5.235 92.9224 -39.5721
vn -0.505746 -0.0814563 -0.858828
v -5.3576 93.156 -39.5721
vn -0.112145 -0.0840148 -0.990134
v -5.57471 93.3059 -39.5721
vn -0.383266 -0.804569 -0.453625
v -5.8366 93.3377 -39.5721
vn 0.0313646 -0.805496 -0.591771
v -6.08327 93.2441 -39.5721
vn 0.404814 -0.703404 -0.584251
v -6.25821 93.0467 -39.5721
vn 0.764267 -0.484869 -0.425204
v 78.9739 92.7905 -39.5721
vn 0.666291 0 -0.745692
v 78.9739 92.7905 -38.391
vn 0.407903 0 0.913025
v 79.0371 93.0467 -38.391
vn 0.456655 -0.193844 0.868269
v 79.212 93.2441 -38.391
vn 0.0925625 -0.11305 0.989268
v 79.4587 93.3377 -38.391
vn 0.169013 -0.821466 0.544635
v 79.7206 93.3059 -38.391
vn -0.220665 -0.765766 0.604077
v 79.9377 93.156 -38.391
vn -0.587447 -0.613218 0.528082
v 80.0603 92.9224 -38.391
vn -0.914785 -0.306847 0.262704
v 80.0603 92.6586 -38.391
vn -0.11015 0.0177409 0.993757
v 79.9377 92.425 -38.391
vn -0.0572802 0.0429183 0.997435
v 79.7206 92.2752 -38.391
vn -0.0240642 0.0634734 0.997693
v 79.4587 92.2434 -38.391
vn 0.00976859 0.0475401 0.998822
v 79.212 92.3369 -38.391
vn 0.00146263 0.00178599 0.999997
v 79.0371 92.5344 -38.391
vn 0.00629663 0.00267321 0.999977
v 79.0371 92.5344 -39.5721
vn 0.00577672 0.00366424 -0.999977
v 79.212 92.3369 -39.5721
vn 0.00115124 0.00200097 -0.999997
v 79.4587 92.2434 -39.5721
vn 0.00188196 0.0484968 -0.998822
v 79.7206 92.2752 -39.5721
vn -0.012053 0.0317917 -0.999422
v 79.9377 92.425 -39.5721
vn -0.0495005 0.0516914 -0.997436
v 80.0603 92.6586 -39.5721
vn -0.10578 0.0354818 -0.993756
v 80.0603 92.9224 -39.5721
vn -0.952599 -0.153427 -0.262709
v 79.9377 93.156 -39.5721
vn -0.679631 -0.509145 -0.528084
v 79.7206 93.3059 -39.5721
vn -0.342729 -0.719463 -0.604078
v 79.4587 93.3377 -39.5721
vn 0.0326292 -0.838026 -0.544654
v 79.212 93.2441 -39.5721
vn 0.0728898 -0.126657 -0.989265
v 79.0371 93.0467 -39.5721
vn 0.418846 -0.265719 -0.86831
v -6.39418 -85.5336 -39.5721
vn -0.0488468 -3.02608e-05 -0.998806
v -6.39418 -85.5336 -38.391
vn -0.048747 -3.01989e-05 0.998811
v -6.24433 -86.2869 -39.2769
vn -0.927445 -0.372975 0.0271186
v -6.24433 -86.2869 -38.9816
vn -0.907933 -0.419115 0
v -6.24433 -86.2869 -38.6863
vn -0.911 -0.410882 -0.0354148
v -5.81762 -86.9255 -39.5721
vn -0.440493 -0.521835 -0.730516
v -5.81762 -86.9255 -39.2769
vn -0.693152 -0.720501 0.0204636
v -5.81762 -86.9255 -38.9816
vn -0.707127 -0.707087 0
v -5.81762 -86.9255 -38.6863
vn -0.720526 -0.693127 -0.0204401
v -5.81762 -86.9255 -38.391
vn -0.52193 -0.44057 0.730402
v -5.17899 -87.3523 -39.2769
vn -0.372826 -0.927401 0.0304536
v -5.17899 -87.3523 -38.9816
vn -0.37301 -0.927827 0
v -5.17899 -87.3523 -38.6863
vn -0.376456 -0.925984 -0.028895
v -4.42567 -87.5021 -39.5721
vn -0.000499828 -0.0174977 -0.999847
v -4.42567 -87.5021 -38.391
vn -0.00049987 -0.017498 0.999847
v -4.93516 -87.435 -38.391
vn -0.0519104 -0.193753 0.979676
v -5.40992 -87.2384 -38.391
vn -0.247301 -0.401758 0.881721
v -6.13045 -86.5179 -38.391
vn -0.664395 -0.383608 0.641424
v -6.3271 -86.0431 -38.391
vn -0.970407 -0.226186 0.0845588
v -6.39418 -85.5336 -38.7847
vn -0.999996 -0.00262997 -0.000300035
v -6.39418 -85.5336 -39.1784
vn -1 -0.000647253 0.00012127
v -6.3271 -86.0431 -39.5721
vn -0.970407 -0.22618 -0.084573
v -6.13045 -86.5179 -39.5721
vn -0.768603 -0.473083 -0.43063
v -5.40992 -87.2384 -39.5721
vn -0.14593 -0.252752 -0.956463
v -4.93516 -87.435 -39.5721
vn -0.0518935 -0.19369 -0.979689
v -4.42567 -87.5021 -39.1784
vn -0.0298133 -0.999555 0
v -4.42567 -87.5021 -38.7847
vn -0.0131094 -0.999914 0
v -6.39418 22.2371 -39.5721
vn -0.243768 0.0259152 -0.969487
v -6.39418 22.2371 -38.391
vn -0.300465 0.0255557 0.95345
v 24.0035 -86.321 -38.391
vn -0.0547545 -0.295026 0.953919
v 72.3105 -87.5021 -38.391
vn -0.160581 -0.831349 0.532046
v 78.1806 -87.5021 -38.391
vn 0.00325058 -0.113787 0.9935
v 80.1491 -85.5336 -38.391
vn 0.0370873 -2.29484e-05 0.999312
v 80.1491 55.3079 -38.391
vn 0.219469 -0.0426828 0.974685
v 76.0153 97.5143 -38.391
vn 0.285816 0.344264 0.894311
v 2.46409 97.5143 -38.391
vn 0.133199 0.925257 0.355187
v -6.39418 94.5845 -38.391
vn -0.992118 0.0723505 0.102306
v 78.6901 -87.435 -38.391
vn 0.0519073 -0.193752 0.979676
v 79.1649 -87.2384 -38.391
vn 0.145965 -0.252825 0.956438
v 79.5726 -86.9255 -38.391
vn 0.440578 -0.52195 0.730383
v 79.8854 -86.5179 -38.391
vn 0.768616 -0.473095 0.430593
v 80.0821 -86.0431 -38.391
vn 0.970414 -0.22614 0.0846034
v 78.1806 -87.5021 -39.5721
vn 0.00325031 -0.113785 -0.9935
v 78.9339 -87.3523 -39.2769
vn 0.346652 -0.937684 0.0240906
v 78.9339 -87.3523 -38.9816
vn 0.419122 -0.90793 0
v 78.9339 -87.3523 -38.6863
vn 0.372827 -0.9274 -0.030472
v 79.5726 -86.9255 -39.5721
vn 0.521831 -0.440471 -0.730532
v 79.5726 -86.9255 -39.2769
vn 0.720519 -0.693134 0.0204604
v 79.5726 -86.9255 -38.9816
vn 0.707107 -0.707107 0
v 79.5726 -86.9255 -38.6863
vn 0.69314 -0.720513 -0.0204478
v 79.9993 -86.2869 -39.2769
vn 0.911011 -0.410857 0.0354396
v 79.9993 -86.2869 -38.9816
vn 0.927844 -0.372968 0
v 79.9993 -86.2869 -38.6863
vn 0.910238 -0.41274 -0.0333475
v 80.1491 -85.5336 -39.5721
vn 0.0370873 -2.29484e-05 -0.999312
v 78.1806 -87.5021 -38.7847
vn 0.0364455 -0.999336 0
v 78.1806 -87.5021 -39.1784
vn 0.00970882 -0.999953 0
v 78.6901 -87.435 -39.5721
vn 0.0518904 -0.193689 -0.97969
v 79.1649 -87.2384 -39.5721
vn 0.247219 -0.401656 -0.881791
v 79.8854 -86.5179 -39.5721
vn 0.664234 -0.38353 -0.641637
v 80.0821 -86.0431 -39.5721
vn 0.970414 -0.226134 -0.0846176
v 80.1491 -85.5336 -39.1784
vn 0.999998 -0.00212021 0.000301218
v 80.1491 -85.5336 -38.7847
vn 1 -0.000853884 -0.000121307
v -6.39418 94.5845 -39.5721
vn -0.969548 0.141401 -0.199957
v 2.46409 97.5143 -39.5721
vn 0.070509 0.979629 -0.18803
v 76.0153 97.5143 -39.5721
vn 0.245474 0.591377 -0.768125
v 80.1491 55.3079 -39.5721
vn 0.111772 -0.0434728 -0.992783
v 72.3105 -87.5021 -39.5721
vn -0.185266 -0.76736 -0.613869
v 24.0035 -86.321 -39.5721
vn -0.0487548 -0.525426 -0.849441
f 7//7 1//1 5//5
f 5//5 8//8 7//7
f 1//1 7//7 10//10
f 1//1 10//10 3//3
f 4//4 8//8 5//5
f 2//2 6//6 9//9
f 2//2 9//9 4//4
f 9//9 8//8 4//4
f 13//13 16//16 15//15
f 13//13 15//15 10//10
f 10//10 15//15 3//3
f 14//14 12//12 11//11
f 12//12 14//14 16//16
f 16//16 13//13 12//12
f 26//26 17//17 24//24
f 24//24 27//27 26//26
f 29//29 18//18 17//17
f 29//29 17//17 26//26
f 23//23 27//27 24//24
f 22//22 25//25 28//28
f 22//22 28//28 23//23
f 28//28 27//27 23//23
f 31//31 21//21 32//32
f 32//32 21//21 20//20
f 32//32 20//20 29//29
f 29//29 20//20 18//18
f 19//19 31//31 30//30
f 31//31 19//19 21//21
f 40//40 39//39 36//36
f 40//40 36//36 37//37
f 41//41 40//40 37//37
f 41//41 37//37 38//38
f 43//43 42//42 39//39
f 43//43 39//39 40//40
f 44//44 43//43 40//40
f 44//44 40//40 41//41
f 48//48 33//33 54//54
f 36//36 54//54 53//53
f 39//39 49//49 48//48
f 39//39 48//48 36//36
f 34//34 37//37 53//53
f 37//37 36//36 53//53
f 48//48 54//54 36//36
f 38//38 52//52 51//51
f 57//57 51//51 35//35
f 37//37 34//34 52//52
f 37//37 52//52 38//38
f 56//56 41//41 38//38
f 56//56 38//38 57//57
f 51//51 57//57 38//38
f 49//49 39//39 42//42
f 49//49 42//42 50//50
f 43//43 46//46 59//59
f 43//43 59//59 42//42
f 58//58 45//45 50//50
f 58//58 42//42 59//59
f 50//50 42//42 58//58
f 55//55 44//44 41//41
f 55//55 41//41 56//56
f 61//61 44//44 55//55
f 44//44 60//60 46//46
f 44//44 46//46 43//43
f 55//55 47//47 61//61
f 44//44 61//61 60//60
f 54//54 33//33 62//62
f 54//54 62//62 53//53
f 63//63 34//34 62//62
f 62//62 34//34 53//53
f 63//63 51//51 52//52
f 63//63 35//35 51//51
f 63//63 52//52 34//34
f 72//72 71//71 67//67
f 72//72 67//67 68//68
f 73//73 72//72 68//68
f 73//73 68//68 69//69
f 75//75 74//74 71//71
f 75//75 71//71 72//72
f 76//76 75//75 72//72
f 76//76 72//72 73//73
f 80//80 64//64 85//85
f 67//67 85//85 84//84
f 80//80 67//67 71//71
f 80//80 71//71 70//70
f 67//67 84//84 65//65
f 67//67 65//65 68//68
f 80//80 85//85 67//67
f 69//69 83//83 82//82
f 88//88 82//82 66//66
f 82//82 88//88 69//69
f 69//69 88//88 87//87
f 69//69 87//87 73//73
f 68//68 65//65 83//83
f 68//68 83//83 69//69
f 81//81 70//70 71//71
f 81//81 71//71 74//74
f 74//74 89//89 77//77
f 74//74 77//77 81//81
f 89//89 74//74 90//90
f 90//90 74//74 75//75
f 90//90 75//75 78//78
f 73//73 87//87 86//86
f 73//73 86//86 76//76
f 86//86 79//79 92//92
f 86//86 92//92 76//76
f 76//76 91//91 78//78
f 76//76 78//78 75//75
f 76//76 92//92 91//91
f 85//85 64//64 93//93
f 85//85 93//93 84//84
f 94//94 65//65 93//93
f 93//93 65//65 84//84
f 94//94 82//82 83//83
f 94//94 66//66 82//82
f 94//94 83//83 65//65
f 103//103 102//102 98//98
f 103//103 98//98 99//99
f 104//104 103//103 99//99
f 104//104 99//99 100//100
f 106//106 105//105 102//102
f 106//106 102//102 103//103
f 107//107 106//106 103//103
f 107//107 103//103 104//104
f 111//111 95//95 116//116
f 98//98 116//116 115//115
f 111//111 98//98 102//102
f 111//111 102//102 101//101
f 98//98 115//115 96//96
f 98//98 96//96 99//99
f 111//111 116//116 98//98
f 100//100 114//114 113//113
f 119//119 113//113 97//97
f 113//113 119//119 100//100
f 100//100 119//119 118//118
f 100//100 118//118 104//104
f 99//99 96//96 114//114
f 99//99 114//114 100//100
f 112//112 101//101 102//102
f 112//112 102//102 105//105
f 105//105 120//120 108//108
f 105//105 108//108 112//112
f 120//120 105//105 121//121
f 121//121 105//105 106//106
f 121//121 106//106 109//109
f 104//104 118//118 117//117
f 104//104 117//117 107//107
f 117//117 110//110 123//123
f 117//117 123//123 107//107
f 107//107 122//122 109//109
f 107//107 109//109 106//106
f 107//107 123//123 122//122
f 130//130 116//116 95//95
f 130//130 95//95 124//124
f 129//129 115//115 116//116
f 129//129 116//116 130//130
f 127//127 114//114 96//96
f 127//127 96//96 128//128
f 125//125 97//97 113//113
f 125//125 113//113 126//126
f 126//126 113//113 114//114
f 126//126 114//114 127//127
f 128//128 96//96 115//115
f 128//128 115//115 129//129
f 138//138 137//137 134//134
f 138//138 134//134 135//135
f 139//139 138//138 135//135
f 139//139 135//135 136//136
f 141//141 140//140 137//137
f 141//141 137//137 138//138
f 142//142 141//141 138//138
f 142//142 138//138 139//139
f 143//143 131//131 149//149
f 134//134 149//149 148//148
f 143//143 134//134 137//137
f 143//143 137//137 144//144
f 134//134 148//148 132//132
f 134//134 132//132 135//135
f 143//143 149//149 134//134
f 136//136 147//147 146//146
f 152//152 146//146 133//133
f 146//146 152//152 136//136
f 136//136 152//152 151//151
f 136//136 151//151 139//139
f 135//135 132//132 147//147
f 135//135 147//147 136//136
f 140//140 145//145 144//144
f 140//140 144//144 137//137
f 130//130 145//145 140//140
f 130//130 140//140 129//129
f 129//129 140//140 141//141
f 129//129 141//141 128//128
f 124//124 145//145 130//130
f 139//139 151//151 150//150
f 139//139 150//150 142//142
f 126//126 142//142 150//150
f 142//142 127//127 128//128
f 142//142 128//128 141//141
f 150//150 125//125 126//126
f 142//142 126//126 127//127
f 149//149 131//131 153//153
f 149//149 153//153 148//148
f 154//154 132//132 153//153
f 153//153 132//132 148//148
f 154//154 146//146 147//147
f 154//154 133//133 146//146
f 154//154 147//147 132//132
f 162//162 161//161 158//158
f 162//162 158//158 159//159
f 163//163 162//162 159//159
f 163//163 159//159 160//160
f 165//165 164//164 161//161
f 165//165 161//161 162//162
f 166//166 165//165 162//162
f 166//166 162//162 163//163
f 170//170 155//155 176//176
f 158//158 176//176 175//175
f 161//161 171//171 170//170
f 161//161 170//170 158//158
f 156//156 159//159 175//175
f 159//159 158//158 175//175
f 170//170 176//176 158//158
f 160//160 174//174 173//173
f 179//179 173//173 157//157
f 159//159 156//156 174//174
f 159//159 174//174 160//160
f 178//178 163//163 160//160
f 178//178 160//160 179//179
f 173//173 179//179 160//160
f 171//171 161//161 164//164
f 171//171 164//164 172//172
f 165//165 168//168 181//181
f 165//165 181//181 164//164
f 180//180 167//167 172//172
f 180//180 164//164 181//181
f 172//172 164//164 180//180
f 177//177 166//166 163//163
f 177//177 163//163 178//178
f 183//183 166//166 177//177
f 166//166 182//182 168//168
f 166//166 168//168 165//165
f 177//177 169//169 183//183
f 166//166 183//183 182//182
f 176//176 155//155 184//184
f 176//176 184//184 175//175
f 185//185 156//156 184//184
f 184//184 156//156 175//175
f 185//185 173//173 174//174
f 185//185 157//157 173//173
f 185//185 174//174 156//156
f 194//194 193//193 189//189
f 194//194 189//189 190//190
f 195//195 194//194 190//190
f 195//195 190//190 191//191
f 198//198 197//197 193//193
f 198//198 193//193 194//194
f 199//199 198//198 194//194
f 199//199 194//194 195//195
f 203//203 186//186 208//208
f 189//189 208//208 207//207
f 203//203 189//189 193//193
f 203//203 193//193 192//192
f 189//189 207//207 187//187
f 189//189 187//187 190//190
f 197//197 204//204 192//192
f 197//197 192//192 193//193
f 208//208 189//189 203//203
f 206//206 191//191 190//190
f 206//206 190//190 187//187
f 191//191 206//206 205//205
f 191//191 205//205 210//210
f 210//210 205//205 188//188
f 191//191 210//210 196//196
f 191//191 196//196 195//195
f 198//198 201//201 212//212
f 198//198 212//212 197//197
f 204//204 197//197 211//211
f 204//204 211//211 200//200
f 197//197 212//212 211//211
f 213//213 201//201 198//198
f 195//195 196//196 209//209
f 195//195 209//209 199//199
f 199//199 209//209 214//214
f 214//214 209//209 202//202
f 213//213 199//199 214//214
f 199//199 213//213 198//198
f 221//221 208//208 186//186
f 221//221 186//186 215//215
f 220//220 207//207 208//208
f 220//220 208//208 221//221
f 218//218 206//206 187//187
f 218//218 187//187 219//219
f 216//216 188//188 205//205
f 216//216 205//205 217//217
f 217//217 205//205 206//206
f 217//217 206//206 218//218
f 219//219 187//187 207//207
f 219//219 207//207 220//220
f 232//232 231//231 226//226
f 232//232 226//226 227//227
f 233//233 232//232 227//227
f 233//233 227//227 228//228
f 235//235 234//234 231//231
f 235//235 231//231 232//232
f 236//236 235//235 232//232
f 236//236 232//232 233//233
f 241//241 226//226 225//225
f 241//241 225//225 222//222
f 226//226 241//241 240//240
f 226//226 231//231 230//230
f 226//226 230//230 225//225
f 226//226 240//240 223//223
f 226//226 223//223 227//227
f 228//228 239//239 238//238
f 224//224 229//229 228//228
f 224//224 228//228 238//238
f 227//227 223//223 239//239
f 227//227 239//239 228//228
f 228//228 229//229 243//243
f 228//228 243//243 233//233
f 234//234 237//237 230//230
f 234//234 230//230 231//231
f 235//235 219//219 220//220
f 235//235 220//220 234//234
f 221//221 215//215 237//237
f 221//221 234//234 220//220
f 237//237 234//234 221//221
f 242//242 236//236 233//233
f 242//242 233//233 243//243
f 217//217 236//236 242//242
f 236//236 218//218 219//219
f 236//236 219//219 235//235
f 242//242 216//216 217//217
f 236//236 217//217 218//218
f 241//241 222//222 244//244
f 241//241 244//244 240//240
f 245//245 223//223 244//244
f 244//244 223//223 240//240
f 245//245 238//238 239//239
f 245//245 224//224 238//238
f 245//245 239//239 223//223
f 253//253 252//252 249//249
f 253//253 249//249 250//250
f 254//254 253//253 250//250
f 254//254 250//250 251//251
f 256//256 255//255 252//252
f 256//256 252//252 253//253
f 257//257 256//256 253//253
f 257//257 253//253 254//254
f 261//261 246//246 267//267
f 249//249 267//267 266//266
f 252//252 262//262 261//261
f 252//252 261//261 249//249
f 247//247 250//250 266//266
f 250//250 249//249 266//266
f 261//261 267//267 249//249
f 251//251 265//265 264//264
f 270//270 264//264 248//248
f 250//250 247//247 265//265
f 250//250 265//265 251//251
f 269//269 254//254 251//251
f 269//269 251//251 270//270
f 264//264 270//270 251//251
f 262//262 252//252 255//255
f 262//262 255//255 263//263
f 256//256 259//259 272//272
f 256//256 272//272 255//255
f 271//271 258//258 263//263
f 271//271 255//255 272//272
f 263//263 255//255 271//271
f 268//268 257//257 254//254
f 268//268 254//254 269//269
f 274//274 257//257 268//268
f 257//257 273//273 259//259
f 257//257 259//259 256//256
f 268//268 260//260 274//274
f 257//257 274//274 273//273
f 267//267 246//246 275//275
f 267//267 275//275 266//266
f 276//276 247//247 275//275
f 275//275 247//247 266//266
f 276//276 264//264 265//265
f 276//276 248//248 264//264
f 276//276 265//265 247//247
f 284//284 283//283 280//280
f 284//284 280//280 281//281
f 285//285 284//284 281//281
f 285//285 281//281 282//282
f 287//287 286//286 283//283
f 287//287 283//283 284//284
f 288//288 287//287 284//284
f 288//288 284//284 285//285
f 292//292 277//277 298//298
f 280//280 298//298 297//297
f 292//292 280//280 283//283
f 292//292 283//283 293//293
f 280//280 297//297 278//278
f 280//280 278//278 281//281
f 292//292 298//298 280//280
f 282//282 296//296 295//295
f 301//301 295//295 279//279
f 295//295 301//301 282//282
f 282//282 301//301 300//300
f 282//282 300//300 285//285
f 281//281 278//278 296//296
f 281//281 296//296 282//282
f 286//286 294//294 293//293
f 286//286 293//293 283//283
f 302//302 294//294 286//286
f 302//302 286//286 303//303
f 303//303 286//286 287//287
f 303//303 287//287 290//290
f 289//289 294//294 302//302
f 285//285 300//300 299//299
f 285//285 299//299 288//288
f 305//305 288//288 299//299
f 288//288 304//304 290//290
f 288//288 290//290 287//287
f 299//299 291//291 305//305
f 288//288 305//305 304//304
f 298//298 277//277 306//306
f 298//298 306//306 297//297
f 307//307 278//278 306//306
f 306//306 278//278 297//297
f 307//307 295//295 296//296
f 307//307 279//279 295//295
f 307//307 296//296 278//278
f 318//318 317//317 312//312
f 318//318 312//312 313//313
f 319//319 318//318 313//313
f 319//319 313//313 314//314
f 321//321 320//320 317//317
f 321//321 317//317 318//318
f 322//322 321//321 318//318
f 322//322 318//318 319//319
f 330//330 312//312 311//311
f 330//330 311//311 308//308
f 312//312 330//330 329//329
f 312//312 317//317 316//316
f 312//312 316//316 311//311
f 312//312 329//329 309//309
f 312//312 309//309 313//313
f 314//314 328//328 327//327
f 310//310 315//315 314//314
f 310//310 314//314 327//327
f 313//313 309//309 328//328
f 313//313 328//328 314//314
f 314//314 315//315 332//332
f 314//314 332//332 319//319
f 320//320 326//326 316//316
f 320//320 316//316 317//317
f 321//321 324//324 334//334
f 321//321 334//334 320//320
f 333//333 323//323 326//326
f 333//333 320//320 334//334
f 326//326 320//320 333//333
f 331//331 322//322 319//319
f 331//331 319//319 332//332
f 336//336 322//322 331//331
f 322//322 335//335 324//324
f 322//322 324//324 321//321
f 331//331 325//325 336//336
f 322//322 336//336 335//335
f 330//330 308//308 337//337
f 330//330 337//337 329//329
f 338//338 309//309 337//337
f 337//337 309//309 329//329
f 338//338 327//327 328//328
f 338//338 310//310 327//327
f 338//338 328//328 309//309
f 346//346 345//345 342//342
f 346//346 342//342 343//343
f 347//347 346//346 343//343
f 347//347 343//343 344//344
f 349//349 348//348 345//345
f 349//349 345//345 346//346
f 350//350 349//349 346//346
f 350//350 346//346 347//347
f 354//354 339//339 360//360
f 342//342 360//360 359//359
f 354//354 342//342 345//345
f 354//354 345//345 355//355
f 342//342 359//359 340//340
f 342//342 340//340 343//343
f 354//354 360//360 342//342
f 344//344 358//358 357//357
f 363//363 357//357 341//341
f 357//357 363//363 344//344
f 344//344 363//363 362//362
f 344//344 362//362 347//347
f 343//343 340//340 358//358
f 343//343 358//358 344//344
f 348//348 356//356 355//355
f 348//348 355//355 345//345
f 349//349 352//352 365//365
f 349//349 365//365 348//348
f 364//364 351//351 356//356
f 364//364 348//348 365//365
f 356//356 348//348 364//364
f 347//347 362//362 361//361
f 347//347 361//361 350//350
f 367//367 350//350 361//361
f 350//350 366//366 352//352
f 350//350 352//352 349//349
f 361//361 353//353 367//367
f 350//350 367//367 366//366
f 360//360 339//339 368//368
f 360//360 368//368 359//359
f 369//369 340//340 368//368
f 368//368 340//340 359//359
f 369//369 357//357 358//358
f 369//369 341//341 357//357
f 369//369 358//358 340//340
f 377//377 376//376 373//373
f 377//377 373//373 374//374
f 378//378 377//377 374//374
f 378//378 374//374 375//375
f 380//380 379//379 376//376
f 380//380 376//376 377//377
f 381//381 380//380 377//377
f 381//381 377//377 378//378
f 385//385 370//370 391//391
f 373//373 391//391 390//390
f 376//376 386//386 385//385
f 376//376 385//385 373//373
f 371//371 374//374 390//390
f 374//374 373//373 390//390
f 385//385 391//391 373//373
f 375//375 389//389 388//388
f 394//394 388//388 372//372
f 374//374 371//371 389//389
f 374//374 389//389 375//375
f 393//393 378//378 375//375
f 393//393 375//375 394//394
f 388//388 394//394 375//375
f 386//386 376//376 379//379
f 386//386 379//379 387//387
f 380//380 383//383 396//396
f 380//380 396//396 379//379
f 395//395 382//382 387//387
f 395//395 379//379 396//396
f 387//387 379//379 395//395
f 392//392 381//381 378//378
f 392//392 378//378 393//393
f 392//392 384//384 398//398
f 392//392 398//398 381//381
f 381//381 397//397 383//383
f 381//381 383//383 380//380
f 381//381 398//398 397//397
f 391//391 370//370 399//399
f 391//391 399//399 390//390
f 400//400 371//371 399//399
f 399//399 371//371 390//390
f 400//400 388//388 389//389
f 400//400 372//372 388//388
f 400//400 389//389 371//371
f 410//410 409//409 405//405
f 410//410 405//405 406//406
f 411//411 410//410 406//406
f 411//411 406//406 407//407
f 413//413 412//412 409//409
f 413//413 409//409 410//410
f 414//414 413//413 410//410
f 414//414 410//410 411//411
f 422//422 405//405 404//404
f 422//422 404//404 401//401
f 405//405 422//422 421//421
f 405//405 409//409 408//408
f 405//405 408//408 404//404
f 405//405 421//421 402//402
f 405//405 402//402 406//406
f 407//407 420//420 419//419
f 425//425 419//419 403//403
f 419//419 425//425 407//407
f 407//407 425//425 424//424
f 407//407 424//424 411//411
f 406//406 402//402 420//420
f 406//406 420//420 407//407
f 412//412 418//418 408//408
f 412//412 408//408 409//409
f 426//426 418//418 412//412
f 426//426 412//412 427//427
f 427//427 412//412 413//413
f 427//427 413//413 416//416
f 415//415 418//418 426//426
f 411//411 424//424 423//423
f 411//411 423//423 414//414
f 429//429 414//414 423//423
f 414//414 428//428 416//416
f 414//414 416//416 413//413
f 423//423 417//417 429//429
f 414//414 429//429 428//428
f 395//395 422//422 401//401
f 395//395 401//401 382//382
f 396//396 421//421 422//422
f 396//396 422//422 395//395
f 397//397 420//420 402//402
f 397//397 402//402 383//383
f 384//384 403//403 419//419
f 384//384 419//419 398//398
f 398//398 419//419 420//420
f 398//398 420//420 397//397
f 383//383 402//402 421//421
f 383//383 421//421 396//396
f 437//437 436//436 433//433
f 437//437 433//433 434//434
f 438//438 437//437 434//434
f 438//438 434//434 435//435
f 440//440 439//439 436//436
f 440//440 436//436 437//437
f 441//441 440//440 437//437
f 441//441 437//437 438//438
f 433//433 430//430 449//449
f 433//433 449//449 448//448
f 433//433 448//448 431//431
f 433//433 431//431 434//434
f 433//433 436//436 445//445
f 445//445 430//430 433//433
f 435//435 447//447 446//446
f 435//435 446//446 432//432
f 450//450 438//438 435//435
f 450//450 435//435 432//432
f 434//434 431//431 447//447
f 434//434 447//447 435//435
f 445//445 436//436 439//439
f 445//445 439//439 442//442
f 440//440 443//443 452//452
f 440//440 452//452 439//439
f 439//439 451//451 442//442
f 439//439 452//452 451//451
f 438//438 450//450 441//441
f 453//453 443//443 440//440
f 441//441 453//453 440//440
f 444//444 441//441 450//450
f 441//441 454//454 453//453
f 441//441 444//444 454//454
f 449//449 430//430 455//455
f 449//449 455//455 448//448
f 456//456 431//431 455//455
f 455//455 431//431 448//448
f 456//456 446//446 447//447
f 456//456 432//432 446//446
f 456//456 447//447 431//431
f 462//462 461//461 458//458
f 462//462 458//458 459//459
f 463//463 462//462 459//459
f 463//463 459//459 460//460
f 466//466 465//465 461//461
f 466//466 461//461 462//462
f 467//467 466//466 462//462
f 467//467 462//462 463//463
f 458//458 471//471 477//477
f 458//458 477//477 476//476
f 461//461 472//472 458//458
f 471//471 458//458 472//472
f 465//465 472//472 461//461
f 458//458 476//476 457//457
f 458//458 457//457 459//459
f 459//459 457//457 475//475
f 460//460 475//475 474//474
f 473//473 460//460 474//474
f 459//459 475//475 460//460
f 464//464 463//463 460//460
f 464//464 460//460 473//473
f 466//466 469//469 479//479
f 466//466 479//479 465//465
f 472//472 465//465 468//468
f 468//468 465//465 478//478
f 465//465 479//479 478//478
f 480//480 469//469 466//466
f 464//464 467//467 463//463
f 470//470 467//467 464//464
f 467//467 481//481 480//480
f 467//467 470//470 481//481
f 467//467 480//480 466//466
f 488//488 477//477 471//471
f 488//488 471//471 482//482
f 487//487 476//476 477//477
f 487//487 477//477 488//488
f 485//485 475//475 457//457
f 485//485 457//457 486//486
f 483//483 473//473 474//474
f 483//483 474//474 484//484
f 484//484 474//474 475//475
f 484//484 475//475 485//485
f 486//486 457//457 476//476
f 486//486 476//476 487//487
f 496//496 495//495 492//492
f 496//496 492//492 493//493
f 497//497 496//496 493//493
f 497//497 493//493 494//494
f 499//499 498//498 495//495
f 499//499 495//495 496//496
f 500//500 499//499 496//496
f 500//500 496//496 497//497
f 492//492 489//489 505//505
f 492//492 505//505 504//504
f 492//492 504//504 490//490
f 492//492 490//490 493//493
f 492//492 495//495 501//501
f 501//501 489//489 492//492
f 494//494 503//503 502//502
f 494//494 502//502 491//491
f 506//506 497//497 494//494
f 506//506 494//494 491//491
f 493//493 490//490 503//503
f 493//493 503//503 494//494
f 501//501 495//495 498//498
f 501//501 498//498 482//482
f 499//499 486//486 487//487
f 499//499 487//487 498//498
f 498//498 488//488 482//482
f 498//498 487//487 488//488
f 497//497 506//506 500//500
f 485//485 486//486 499//499
f 500//500 485//485 499//499
f 483//483 500//500 506//506
f 500//500 484//484 485//485
f 500//500 483//483 484//484
f 513//513 505//505 489//489
f 513//513 489//489 507//507
f 512//512 504//504 505//505
f 512//512 505//505 513//513
f 510//510 503//503 490//490
f 510//510 490//490 511//511
f 508//508 491//491 502//502
f 508//508 502//502 509//509
f 509//509 502//502 503//503
f 509//509 503//503 510//510
f 511//511 490//490 504//504
f 511//511 504//504 512//512
f 521//521 520//520 517//517
f 521//521 517//517 518//518
f 522//522 521//521 518//518
f 522//522 518//518 519//519
f 524//524 523//523 520//520
f 524//524 520//520 521//521
f 525//525 524//524 521//521
f 525//525 521//521 522//522
f 517//517 514//514 530//530
f 517//517 530//530 529//529
f 517//517 529//529 515//515
f 517//517 515//515 518//518
f 517//517 520//520 526//526
f 526//526 514//514 517//517
f 519//519 528//528 527//527
f 519//519 527//527 516//516
f 531//531 522//522 519//519
f 531//531 519//519 516//516
f 518//518 515//515 528//528
f 518//518 528//528 519//519
f 526//526 520//520 523//523
f 526//526 523//523 507//507
f 524//524 511//511 512//512
f 524//524 512//512 523//523
f 523//523 513//513 507//507
f 523//523 512//512 513//513
f 522//522 531//531 525//525
f 510//510 511//511 524//524
f 525//525 510//510 524//524
f 508//508 525//525 531//531
f 525//525 509//509 510//510
f 525//525 508//508 509//509
f 451//451 530//530 514//514
f 451//451 514//514 442//442
f 452//452 529//529 530//530
f 452//452 530//530 451//451
f 453//453 528//528 515//515
f 453//453 515//515 443//443
f 444//444 516//516 527//527
f 444//444 527//527 454//454
f 454//454 527//527 528//528
f 454//454 528//528 453//453
f 443//443 515//515 529//529
f 443//443 529//529 452//452
f 539//539 538//538 535//535
f 539//539 535//535 536//536
f 540//540 539//539 536//536
f 540//540 536//536 537//537
f 542//542 541//541 538//538
f 542//542 538//538 539//539
f 543//543 542//542 539//539
f 543//543 539//539 540//540
f 535//535 532//532 551//551
f 535//535 551//551 550//550
f 535//535 550//550 533//533
f 535//535 533//533 536//536
f 532//532 535//535 538//538
f 532//532 538//538 547//547
f 537//537 549//549 548//548
f 537//537 548//548 534//534
f 552//552 540//540 537//537
f 534//534 552//552 537//537
f 536//536 533//533 549//549
f 536//536 549//549 537//537
f 541//541 547//547 538//538
f 542//542 545//545 554//554
f 542//542 554//554 541//541
f 541//541 553//553 544//544
f 541//541 554//554 553//553
f 541//541 544//544 547//547
f 555//555 545//545 542//542
f 543//543 555//555 542//542
f 546//546 543//543 540//540
f 546//546 540//540 552//552
f 543//543 556//556 555//555
f 543//543 546//546 556//556
f 563//563 551//551 532//532
f 563//563 532//532 557//557
f 562//562 550//550 551//551
f 562//562 551//551 563//563
f 560//560 549//549 533//533
f 560//560 533//533 561//561
f 558//558 534//534 548//548
f 558//558 548//548 559//559
f 559//559 548//548 549//549
f 559//559 549//549 560//560
f 561//561 533//533 550//550
f 561//561 550//550 562//562
f 571//571 570//570 567//567
f 571//571 567//567 568//568
f 572//572 571//571 568//568
f 572//572 568//568 569//569
f 574//574 573//573 570//570
f 574//574 570//570 571//571
f 575//575 574//574 571//571
f 575//575 571//571 572//572
f 567//567 564//564 580//580
f 567//567 580//580 579//579
f 567//567 579//579 565//565
f 567//567 565//565 568//568
f 564//564 567//567 570//570
f 564//564 570//570 576//576
f 569//569 578//578 577//577
f 569//569 577//577 566//566
f 581//581 572//572 569//569
f 566//566 581//581 569//569
f 568//568 565//565 578//578
f 568//568 578//578 569//569
f 573//573 576//576 570//570
f 574//574 561//561 562//562
f 574//574 562//562 573//573
f 573//573 563//563 557//557
f 573//573 562//562 563//563
f 573//573 557//557 576//576
f 560//560 561//561 574//574
f 575//575 560//560 574//574
f 558//558 575//575 572//572
f 558//558 572//572 581//581
f 575//575 559//559 560//560
f 575//575 558//558 559//559
f 588//588 580//580 564//564
f 588//588 564//564 582//582
f 587//587 579//579 580//580
f 587//587 580//580 588//588
f 585//585 578//578 565//565
f 585//585 565//565 586//586
f 583//583 566//566 577//577
f 583//583 577//577 584//584
f 584//584 577//577 578//578
f 584//584 578//578 585//585
f 586//586 565//565 579//579
f 586//586 579//579 587//587
f 596//596 595//595 592//592
f 596//596 592//592 593//593
f 597//597 596//596 593//593
f 597//597 593//593 594//594
f 599//599 598//598 595//595
f 599//599 595//595 596//596
f 600//600 599//599 596//596
f 600//600 596//596 597//597
f 592//592 589//589 605//605
f 592//592 605//605 604//604
f 592//592 604//604 590//590
f 592//592 590//590 593//593
f 589//589 592//592 595//595
f 589//589 595//595 601//601
f 594//594 603//603 602//602
f 594//594 602//602 591//591
f 606//606 597//597 594//594
f 591//591 606//606 594//594
f 593//593 590//590 603//603
f 593//593 603//603 594//594
f 598//598 601//601 595//595
f 599//599 586//586 587//587
f 599//599 587//587 598//598
f 598//598 588//588 582//582
f 598//598 587//587 588//588
f 598//598 582//582 601//601
f 585//585 586//586 599//599
f 600//600 585//585 599//599
f 583//583 600//600 597//597
f 583//583 597//597 606//606
f 600//600 584//584 585//585
f 600//600 583//583 584//584
f 613//613 605//605 589//589
f 613//613 589//589 607//607
f 612//612 604//604 605//605
f 612//612 605//605 613//613
f 610//610 603//603 590//590
f 610//610 590//590 611//611
f 608//608 591//591 602//602
f 608//608 602//602 609//609
f 609//609 602//602 603//603
f 609//609 603//603 610//610
f 611//611 590//590 604//604
f 611//611 604//604 612//612
f 621//621 620//620 617//617
f 621//621 617//617 618//618
f 622//622 621//621 618//618
f 622//622 618//618 619//619
f 625//625 624//624 620//620
f 625//625 620//620 621//621
f 626//626 625//625 621//621
f 626//626 621//621 622//622
f 617//617 614//614 631//631
f 617//617 631//631 630//630
f 620//620 627//627 617//617
f 614//614 617//617 627//627
f 624//624 627//627 620//620
f 617//617 630//630 615//615
f 617//617 615//615 618//618
f 629//629 619//619 618//618
f 629//629 618//618 615//615
f 619//619 629//629 628//628
f 616//616 619//619 628//628
f 623//623 622//622 619//619
f 623//623 619//619 616//616
f 625//625 611//611 612//612
f 625//625 612//612 624//624
f 627//627 624//624 607//607
f 607//607 624//624 613//613
f 624//624 612//612 613//613
f 611//611 625//625 626//626
f 611//611 626//626 610//610
f 623//623 626//626 622//622
f 608//608 626//626 623//623
f 626//626 609//609 610//610
f 626//626 608//608 609//609
f 631//631 614//614 632//632
f 631//631 632//632 630//630
f 633//633 615//615 632//632
f 632//632 615//615 630//630
f 633//633 628//628 629//629
f 633//633 616//616 628//628
f 633//633 629//629 615//615
f 646//646 640//640 8//8
f 7//7 8//8 640//640
f 9//9 646//646 8//8
f 646//646 641//641 640//640
f 647//647 641//641 646//646
f 642//642 641//641 647//647
f 6//6 639//639 9//9
f 639//639 646//646 9//9
f 637//637 648//648 647//647
f 642//642 647//647 648//648
f 647//647 638//638 637//637
f 637//637 636//636 648//648
f 646//646 639//639 638//638
f 646//646 638//638 647//647
f 648//648 643//643 642//642
f 643//643 650//650 649//649
f 643//643 649//649 644//644
f 648//648 636//636 650//650
f 32//32 29//29 645//645
f 644//644 649//649 651//651
f 644//644 651//651 645//645
f 32//32 645//645 651//651
f 635//635 649//649 650//650
f 635//635 650//650 636//636
f 634//634 651//651 649//649
f 634//634 649//649 635//635
f 634//634 31//31 651//651
f 32//32 651//651 31//31
f 31//31 634//634 30//30
f 643//643 648//648 650//650
f 664//664 658//658 20//20
f 18//18 20//20 658//658
f 21//21 664//664 20//20
f 664//664 659//659 658//658
f 665//665 659//659 664//664
f 660//660 659//659 665//665
f 19//19 657//657 21//21
f 657//657 664//664 21//21
f 655//655 666//666 665//665
f 660//660 665//665 666//666
f 665//665 656//656 655//655
f 655//655 654//654 666//666
f 664//664 657//657 656//656
f 664//664 656//656 665//665
f 660//660 666//666 667//667
f 660//660 667//667 661//661
f 661//661 667//667 668//668
f 661//661 668//668 662//662
f 666//666 654//654 667//667
f 5//5 1//1 663//663
f 662//662 668//668 669//669
f 662//662 669//669 663//663
f 5//5 663//663 669//669
f 653//653 668//668 667//667
f 653//653 667//667 654//654
f 652//652 669//669 668//668
f 652//652 668//668 653//653
f 652//652 4//4 669//669
f 5//5 669//669 4//4
f 4//4 652//652 2//2
f 682//682 676//676 27//27
f 26//26 27//27 676//676
f 28//28 682//682 27//27
f 682//682 677//677 676//676
f 683//683 677//677 682//682
f 678//678 677//677 683//683
f 25//25 675//675 28//28
f 675//675 682//682 28//28
f 673//673 684//684 683//683
f 678//678 683//683 684//684
f 683//683 674//674 673//673
f 672//672 685//685 684//684
f 672//672 684//684 673//673
f 682//682 675//675 674//674
f 682//682 674//674 683//683
f 678//678 684//684 685//685
f 678//678 685//685 679//679
f 679//679 685//685 686//686
f 679//679 686//686 680//680
f 13//13 10//10 681//681
f 680//680 686//686 687//687
f 680//680 687//687 681//681
f 13//13 681//681 687//687
f 671//671 686//686 685//685
f 671//671 685//685 672//672
f 670//670 687//687 686//686
f 670//670 686//686 671//671
f 670//670 12//12 687//687
f 13//13 687//687 12//12
f 12//12 670//670 11//11
f 700//700 694//694 15//15
f 3//3 15//15 694//694
f 16//16 700//700 15//15
f 700//700 695//695 694//694
f 701//701 695//695 700//700
f 696//696 695//695 701//701
f 14//14 693//693 16//16
f 693//693 700//700 16//16
f 691//691 702//702 701//701
f 696//696 701//701 702//702
f 701//701 692//692 691//691
f 690//690 703//703 702//702
f 690//690 702//702 691//691
f 700//700 693//693 692//692
f 700//700 692//692 701//701
f 696//696 702//702 703//703
f 696//696 703//703 697//697
f 697//697 703//703 704//704
f 697//697 704//704 698//698
f 24//24 17//17 699//699
f 698//698 704//704 705//705
f 698//698 705//705 699//699
f 24//24 699//699 705//705
f 689//689 704//704 703//703
f 689//689 703//703 690//690
f 688//688 705//705 704//704
f 688//688 704//704 689//689
f 688//688 23//23 705//705
f 24//24 705//705 23//23
f 23//23 688//688 22//22
f 679//679 641//641 642//642
f 641//641 680//680 640//640
f 677//677 643//643 644//644
f 676//676 644//644 645//645
f 643//643 678//678 642//642
f 641//641 679//679 680//680
f 681//681 640//640 680//680
f 643//643 677//677 678//678
f 644//644 676//676 677//677
f 642//642 678//678 679//679
f 706//706 707//707 719//719
f 706//706 719//719 720//720
f 720//720 719//719 718//718
f 720//720 718//718 721//721
f 722//722 717//717 716//716
f 722//722 716//716 723//723
f 725//725 724//724 715//715
f 725//725 715//715 714//714
f 724//724 723//723 716//716
f 724//724 716//716 715//715
f 721//721 718//718 717//717
f 721//721 717//717 722//722
f 714//714 713//713 726//726
f 714//714 726//726 725//725
f 727//727 726//726 713//713
f 727//727 713//713 712//712
f 728//728 727//727 712//712
f 728//728 712//712 711//711
f 730//730 729//729 710//710
f 730//730 710//710 709//709
f 706//706 731//731 708//708
f 706//706 708//708 707//707
f 731//731 730//730 709//709
f 731//731 709//709 708//708
f 729//729 728//728 711//711
f 729//729 711//711 710//710
f 732//732 733//733 745//745
f 732//732 745//745 746//746
f 746//746 745//745 744//744
f 746//746 744//744 747//747
f 748//748 743//743 742//742
f 748//748 742//742 749//749
f 751//751 750//750 741//741
f 751//751 741//741 740//740
f 750//750 749//749 742//742
f 750//750 742//742 741//741
f 747//747 744//744 743//743
f 747//747 743//743 748//748
f 740//740 739//739 752//752
f 740//740 752//752 751//751
f 753//753 752//752 739//739
f 753//753 739//739 738//738
f 754//754 753//753 738//738
f 754//754 738//738 737//737
f 756//756 755//755 736//736
f 756//756 736//736 735//735
f 732//732 757//757 734//734
f 732//732 734//734 733//733
f 757//757 756//756 735//735
f 757//757 735//735 734//734
f 755//755 754//754 737//737
f 755//755 737//737 736//736
f 765//765 761//761 760//760
f 765//765 760//760 764//764
f 766//766 762//762 761//761
f 766//766 761//761 765//765
f 769//769 765//765 764//764
f 769//769 764//764 768//768
f 770//770 766//766 765//765
f 770//770 765//765 769//769
f 779//779 778//778 758//758
f 780//780 760//760 779//779
f 760//760 778//778 779//779
f 780//780 763//763 764//764
f 780//780 764//764 760//760
f 763//763 781//781 768//768
f 763//763 768//768 764//764
f 777//777 778//778 760//760
f 777//777 760//760 761//761
f 776//776 759//759 777//777
f 777//777 762//762 776//776
f 762//762 775//775 776//776
f 762//762 766//766 767//767
f 762//762 767//767 775//775
f 761//761 762//762 777//777
f 782//782 768//768 781//781
f 783//783 769//769 768//768
f 768//768 771//771 783//783
f 782//782 771//771 768//768
f 784//784 769//769 783//783
f 774//774 767//767 766//766
f 774//774 766//766 770//770
f 772//772 770//770 784//784
f 770//770 772//772 773//773
f 774//774 770//770 773//773
f 770//770 769//769 784//784
f 786//786 785//785 778//778
f 786//786 778//778 777//777
f 758//758 778//778 785//785
f 786//786 777//777 759//759
f 711//711 794//794 710//710
f 709//709 710//710 794//794
f 326//326 323//323 715//715
f 323//323 794//794 712//712
f 794//794 711//711 712//712
f 794//794 707//707 708//708
f 323//323 712//712 713//713
f 794//794 708//708 709//709
f 707//707 794//794 455//455
f 326//326 430//430 316//316
f 415//415 793//793 337//337
f 415//415 308//308 418//418
f 418//418 311//311 408//408
f 337//337 308//308 415//415
f 404//404 311//311 316//316
f 408//408 311//311 404//404
f 308//308 311//311 418//418
f 401//401 404//404 316//316
f 430//430 401//401 316//316
f 713//713 714//714 323//323
f 455//455 718//718 719//719
f 455//455 715//715 716//716
f 430//430 326//326 715//715
f 430//430 715//715 455//455
f 696//696 697//697 786//786
f 717//717 455//455 716//716
f 696//696 786//786 695//695
f 718//718 455//455 717//717
f 455//455 719//719 707//707
f 786//786 697//697 468//468
f 430//430 445//445 401//401
f 514//514 526//526 401//401
f 442//442 514//514 401//401
f 445//445 442//442 401//401
f 468//468 17//17 472//472
f 472//472 17//17 471//471
f 17//17 482//482 471//471
f 526//526 576//576 382//382
f 526//526 382//382 401//401
f 601//601 501//501 171//171
f 715//715 323//323 714//714
f 507//507 564//564 576//576
f 507//507 576//576 526//526
f 385//385 351//351 370//370
f 792//792 399//399 370//370
f 370//370 351//351 792//792
f 356//356 385//385 386//386
f 355//355 387//387 382//382
f 356//356 351//351 385//385
f 387//387 355//355 356//356
f 354//354 355//355 544//544
f 387//387 356//356 386//386
f 339//339 734//734 735//735
f 737//737 368//368 736//736
f 368//368 735//735 736//736
f 738//738 368//368 737//737
f 745//745 733//733 339//339
f 339//339 733//733 734//734
f 368//368 738//738 739//739
f 368//368 339//339 735//735
f 354//354 745//745 339//339
f 740//740 368//368 739//739
f 382//382 544//544 355//355
f 382//382 532//532 547//547
f 382//382 557//557 532//532
f 576//576 557//557 382//382
f 489//489 582//582 564//564
f 489//489 564//564 507//507
f 582//582 489//489 501//501
f 582//582 501//501 601//601
f 589//589 124//124 607//607
f 547//547 544//544 382//382
f 544//544 744//744 745//745
f 791//791 741//741 742//742
f 791//791 740//740 741//741
f 95//95 627//627 607//607
f 744//744 791//791 743//743
f 742//742 743//743 791//791
f 80//80 632//632 614//614
f 544//544 791//791 744//744
f 745//745 354//354 544//544
f 368//368 740//740 791//791
f 614//614 627//627 111//111
f 698//698 468//468 697//697
f 759//759 1//1 3//3
f 786//786 694//694 695//695
f 786//786 3//3 694//694
f 759//759 662//662 663//663
f 660//660 293//293 659//659
f 659//659 261//261 658//658
f 292//292 660//660 661//661
f 663//663 1//1 759//759
f 215//215 17//17 18//18
f 18//18 237//237 215//215
f 186//186 17//17 215//215
f 258//258 225//225 18//18
f 203//203 482//482 17//17
f 18//18 225//225 230//230
f 17//17 186//186 203//203
f 18//18 230//230 237//237
f 658//658 263//263 18//18
f 170//170 501//501 203//203
f 772//772 661//661 662//662
f 468//468 699//699 17//17
f 775//775 759//759 776//776
f 772//772 277//277 292//292
f 661//661 772//772 292//292
f 759//759 775//775 767//767
f 293//293 660//660 292//292
f 759//759 774//774 773//773
f 772//772 306//306 277//277
f 772//772 759//759 773//773
f 759//759 767//767 774//774
f 262//262 263//263 658//658
f 244//244 222//222 258//258
f 258//258 222//222 225//225
f 258//258 18//18 263//263
f 261//261 294//294 289//289
f 658//658 261//261 262//262
f 289//289 246//246 261//261
f 289//289 275//275 246//246
f 261//261 659//659 294//294
f 659//659 293//293 294//294
f 759//759 772//772 662//662
f 759//759 3//3 786//786
f 200//200 155//155 204//204
f 184//184 155//155 200//200
f 155//155 192//192 204//204
f 143//143 172//172 131//131
f 192//192 155//155 170//170
f 131//131 172//172 167//167
f 172//172 143//143 171//171
f 601//601 171//171 144//144
f 95//95 111//111 627//627
f 124//124 95//95 607//607
f 124//124 589//589 145//145
f 64//64 108//108 93//93
f 64//64 112//112 108//108
f 64//64 101//101 112//112
f 143//143 144//144 171//171
f 101//101 64//64 614//614
f 153//153 131//131 167//167
f 153//153 167//167 787//787
f 170//170 203//203 192//192
f 80//80 790//790 632//632
f 33//33 81//81 77//77
f 48//48 70//70 81//81
f 790//790 80//80 70//70
f 81//81 33//33 48//48
f 77//77 62//62 33//33
f 49//49 70//70 48//48
f 789//789 790//790 49//49
f 798//798 799//799 790//790
f 789//789 49//49 50//50
f 50//50 45//45 789//789
f 70//70 49//49 790//790
f 795//795 790//790 789//789
f 790//790 795//795 796//796
f 798//798 790//790 797//797
f 797//797 790//790 796//796
f 788//788 789//789 45//45
f 80//80 614//614 64//64
f 614//614 111//111 101//101
f 698//698 699//699 468//468
f 806//806 802//802 801//801
f 806//806 801//801 805//805
f 807//807 803//803 802//802
f 807//807 802//802 806//806
f 809//809 806//806 805//805
f 809//809 805//805 808//808
f 810//810 807//807 806//806
f 810//810 806//806 809//809
f 801//801 800//800 814//814
f 815//815 801//801 814//814
f 813//813 800//800 801//801
f 815//815 804//804 805//805
f 815//815 805//805 801//801
f 804//804 816//816 808//808
f 804//804 808//808 805//805
f 812//812 813//813 801//801
f 812//812 801//801 802//802
f 803//803 789//789 812//812
f 789//789 803//803 795//795
f 803//803 796//796 795//795
f 803//803 807//807 797//797
f 803//803 797//797 796//796
f 802//802 803//803 812//812
f 817//817 808//808 816//816
f 818//818 809//809 808//808
f 818//818 817//817 811//811
f 808//808 817//817 818//818
f 819//819 809//809 818//818
f 798//798 797//797 807//807
f 798//798 807//807 810//810
f 799//799 810//810 819//819
f 819//819 790//790 799//799
f 798//798 810//810 799//799
f 810//810 809//809 819//819
f 633//633 818//818 811//811
f 633//633 819//819 818//818
f 790//790 819//819 632//632
f 633//633 632//632 819//819
f 758//758 782//782 781//781
f 758//758 771//771 782//782
f 279//279 307//307 771//771
f 781//781 763//763 758//758
f 758//758 780//780 779//779
f 301//301 771//771 654//654
f 301//301 279//279 771//771
f 655//655 300//300 301//301
f 656//656 299//299 300//300
f 758//758 763//763 780//780
f 270//270 291//291 299//299
f 291//291 248//248 276//276
f 291//291 270//270 248//248
f 269//269 270//270 657//657
f 269//269 657//657 268//268
f 19//19 229//229 260//260
f 260//260 224//224 245//245
f 260//260 229//229 224//224
f 268//268 19//19 260//260
f 299//299 656//656 270//270
f 653//653 771//771 758//758
f 758//758 6//6 2//2
f 654//654 655//655 301//301
f 758//758 652//652 653//653
f 758//758 2//2 652//652
f 670//670 638//638 639//639
f 671//671 638//638 670//670
f 637//637 638//638 672//672
f 671//671 672//672 638//638
f 672//672 636//636 637//637
f 657//657 19//19 268//268
f 656//656 657//657 270//270
f 243//243 229//229 30//30
f 30//30 229//229 19//19
f 30//30 242//242 243//243
f 656//656 300//300 655//655
f 674//674 636//636 673//673
f 672//672 673//673 636//636
f 635//635 636//636 674//674
f 634//634 635//635 674//674
f 675//675 634//634 674//674
f 634//634 242//242 30//30
f 675//675 216//216 634//634
f 653//653 654//654 771//771
f 11//11 6//6 758//758
f 79//79 35//35 63//63
f 86//86 57//57 35//35
f 110//110 66//66 94//94
f 88//88 633//633 811//811
f 57//57 86//86 87//87
f 35//35 79//79 86//86
f 87//87 88//88 811//811
f 169//169 154//154 825//825
f 56//56 57//57 87//87
f 800//800 811//811 814//814
f 804//804 815//815 811//811
f 815//815 814//814 811//811
f 47//47 800//800 824//824
f 800//800 56//56 811//811
f 56//56 800//800 55//55
f 817//817 816//816 811//811
f 811//811 816//816 804//804
f 811//811 56//56 87//87
f 47//47 55//55 800//800
f 66//66 616//616 88//88
f 157//157 185//185 202//202
f 157//157 196//196 179//179
f 209//209 157//157 202//202
f 634//634 216//216 242//242
f 675//675 188//188 216//216
f 179//179 196//196 210//210
f 157//157 209//209 196//196
f 188//188 675//675 210//210
f 506//506 179//179 210//210
f 133//133 169//169 177//177
f 152//152 133//133 177//177
f 66//66 110//110 117//117
f 177//177 178//178 152//152
f 169//169 133//133 154//154
f 151//151 152//152 178//178
f 151//151 178//178 606//606
f 97//97 623//623 119//119
f 118//118 616//616 66//66
f 608//608 97//97 125//125
f 66//66 117//117 118//118
f 125//125 150//150 591//591
f 616//616 118//118 119//119
f 675//675 483//483 210//210
f 785//785 14//14 11//11
f 785//785 692//692 693//693
f 785//785 691//691 692//692
f 693//693 14//14 785//785
f 785//785 470//470 690//690
f 720//720 721//721 456//456
f 721//721 722//722 456//456
f 722//722 723//723 456//456
f 456//456 724//724 432//432
f 691//691 785//785 690//690
f 785//785 11//11 758//758
f 470//470 688//688 689//689
f 22//22 473//473 25//25
f 688//688 470//470 22//22
f 470//470 464//464 22//22
f 689//689 690//690 470//470
f 432//432 403//403 450//450
f 25//25 473//473 483//483
f 403//403 444//444 450//450
f 22//22 464//464 473//473
f 456//456 723//723 724//724
f 456//456 706//706 720//720
f 325//325 725//725 726//726
f 325//325 724//724 725//725
f 730//730 731//731 820//820
f 706//706 820//820 731//731
f 729//729 730//730 820//820
f 820//820 728//728 729//729
f 820//820 727//727 728//728
f 820//820 706//706 456//456
f 325//325 726//726 727//727
f 432//432 332//332 403//403
f 724//724 325//325 331//331
f 315//315 425//425 332//332
f 310//310 423//423 315//315
f 403//403 332//332 425//425
f 332//332 432//432 331//331
f 821//821 417//417 338//338
f 310//310 417//417 423//423
f 424//424 425//425 315//315
f 423//423 424//424 315//315
f 310//310 338//338 417//417
f 325//325 727//727 820//820
f 724//724 331//331 432//432
f 403//403 516//516 444//444
f 491//491 583//583 606//606
f 491//491 606//606 506//506
f 583//583 491//491 508//508
f 583//583 508//508 566//566
f 591//591 608//608 125//125
f 558//558 581//581 384//384
f 531//531 581//581 566//566
f 531//531 566//566 508//508
f 534//534 558//558 384//384
f 581//581 531//531 403//403
f 581//581 403//403 384//384
f 616//616 119//119 623//623
f 616//616 633//633 88//88
f 623//623 97//97 608//608
f 747//747 546//546 746//746
f 546//546 552//552 384//384
f 823//823 546//546 747//747
f 749//749 823//823 748//748
f 747//747 748//748 823//823
f 750//750 823//823 749//749
f 534//534 384//384 552//552
f 531//531 516//516 403//403
f 606//606 178//178 506//506
f 362//362 384//384 392//392
f 353//353 361//361 394//394
f 362//362 363//363 546//546
f 362//362 392//392 361//361
f 546//546 363//363 746//746
f 394//394 372//372 353//353
f 393//393 394//394 361//361
f 822//822 372//372 400//400
f 372//372 822//822 353//353
f 392//392 393//393 361//361
f 341//341 732//732 746//746
f 341//341 757//757 732//732
f 369//369 751//751 752//752
f 823//823 750//750 751//751
f 369//369 755//755 756//756
f 757//757 341//341 756//756
f 369//369 753//753 754//754
f 755//755 369//369 754//754
f 752//752 753//753 369//369
f 341//341 369//369 756//756
f 341//341 746//746 363//363
f 823//823 751//751 369//369
f 362//362 546//546 384//384
f 25//25 483//483 675//675
f 822//822 400//400 399//399
f 822//822 399//399 792//792
f 821//821 338//338 337//337
f 821//821 337//337 793//793
f 793//793 415//415 426//426
f 793//793 427//427 416//416
f 427//427 793//793 426//426
f 428//428 821//821 416//416
f 793//793 416//416 821//821
f 417//417 821//821 429//429
f 428//428 429//429 821//821
f 794//794 323//323 333//333
f 794//794 334//334 324//324
f 334//334 794//794 333//333
f 335//335 820//820 324//324
f 794//794 324//324 820//820
f 325//325 820//820 336//336
f 335//335 336//336 820//820
f 792//792 351//351 364//364
f 792//792 365//365 352//352
f 365//365 792//792 364//364
f 366//366 822//822 352//352
f 792//792 352//352 822//822
f 353//353 822//822 367//367
f 366//366 367//367 822//822
f 791//791 544//544 553//553
f 791//791 554//554 545//545
f 554//554 791//791 553//553
f 555//555 823//823 545//545
f 791//791 545//545 823//823
f 546//546 823//823 556//556
f 555//555 556//556 823//823
f 786//786 468//468 478//478
f 786//786 479//479 469//469
f 479//479 786//786 478//478
f 480//480 785//785 469//469
f 786//786 469//469 785//785
f 470//470 785//785 481//481
f 480//480 481//481 785//785
f 791//791 823//823 369//369
f 791//791 369//369 368//368
f 184//184 200//200 211//211
f 184//184 212//212 201//201
f 212//212 184//184 211//211
f 213//213 185//185 201//201
f 184//184 201//201 185//185
f 202//202 185//185 214//214
f 213//213 214//214 185//185
f 244//244 258//258 271//271
f 244//244 272//272 259//259
f 272//272 244//244 271//271
f 273//273 245//245 259//259
f 244//244 259//259 245//245
f 260//260 245//245 274//274
f 273//273 274//274 245//245
f 275//275 289//289 302//302
f 275//275 303//303 290//290
f 303//303 275//275 302//302
f 304//304 276//276 290//290
f 275//275 290//290 276//276
f 291//291 276//276 305//305
f 304//304 305//305 276//276
f 93//93 108//108 120//120
f 93//93 121//121 109//109
f 121//121 93//93 120//120
f 122//122 94//94 109//109
f 93//93 109//109 94//94
f 110//110 94//94 123//123
f 122//122 123//123 94//94
f 825//825 154//154 153//153
f 825//825 153//153 787//787
f 787//787 167//167 180//180
f 787//787 181//181 168//168
f 181//181 787//787 180//180
f 182//182 825//825 168//168
f 787//787 168//168 825//825
f 169//169 825//825 183//183
f 182//182 183//183 825//825
f 788//788 45//45 58//58
f 788//788 59//59 46//46
f 59//59 788//788 58//58
f 60//60 824//824 46//46
f 788//788 46//46 824//824
f 47//47 824//824 61//61
f 60//60 61//61 824//824
f 62//62 77//77 89//89
f 62//62 90//90 78//78
f 90//90 62//62 89//89
f 91//91 63//63 78//78
f 62//62 78//78 63//63
f 79//79 63//63 92//92
f 91//91 92//92 63//63
f 788//788 824//824 813//813
f 788//788 813//813 812//812
f 800//800 813//813 824//824
f 788//788 812//812 789//789
f 307//307 783//783 771//771
f 307//307 784//784 783//783
f 772//772 784//784 306//306
f 307//307 306//306 784//784
f 794//794 820//820 456//456
f 794//794 456//456 455//455
