# Created by Open3D 
# object name: InfoWheels_Interior_Passenger_Sliding_Door_Closed
# number of vertices: 590
# number of triangles: 1281
v -0.0398465 -68.6154 -37.9777
vn 0 0 0
v -0.0398465 -31.2532 -37.9777
vn 0 0 0
v -0.433548 -49.9343 -36.5603
vn 0 0 0
v -0.433548 -49.9343 48.1444
vn 0 0 0
v -1.21111 -68.6154 49.3255
vn -0.886751 -0.436364 0.15251
v -1.21111 -67.0564 47.7664
vn -0.999969 0.00568288 0.00541279
v -1.19536 -67.0406 47.7507
vn -0.00112469 0.822341 -0.568995
v -1.20116 -67.0417 47.7518
vn -0.188064 0.00950025 -0.982111
v -1.20649 -67.0452 47.7553
vn -0.447214 0.894427 0
v -1.21 -67.0506 47.7607
vn -0.984524 0.0158988 -0.174525
v -0.634335 -67.0406 47.7507
vn 0.00112513 0.821078 -0.570815
v -0.618587 -67.0564 47.7664
vn 0.999997 1.0805e-05 -0.0024507
v -0.619692 -67.0506 47.7607
vn 0.982081 0.000813037 -0.188457
v -0.623199 -67.0452 47.7553
vn 1 0 0
v -0.628538 -67.0417 47.7518
vn 0.187824 0.007657 -0.982173
v -0.618587 -67.206 47.9161
vn 0.999997 5.67517e-06 0.00246721
v -0.652051 -67.2375 47.9475
vn 0.999993 0.00163787 0.00335471
v -0.650946 -67.2317 47.9418
vn 0.980956 0.00395072 0.194188
v -0.647439 -67.2263 47.9364
vn 0 1 0
v -0.6421 -67.2228 47.9329
vn 0.186427 1.91326e-17 0.982469
v -0.636303 -67.2217 47.9318
vn 0.186427 0 0.982469
v -0.652051 -67.4914 48.2015
vn 0.999999 0.00162402 -9.31941e-05
v -0.636303 -67.5072 48.2172
vn 0.00162375 0.766938 -0.641719
v -0.6421 -67.5061 48.2161
vn 0.184971 -0.00791556 -0.982712
v -0.647439 -67.5025 48.2126
vn 0 0.894427 0.447214
v -0.650946 -67.4972 48.2073
vn 0.982768 0.00240614 -0.184828
v -0.211106 -67.5072 48.2172
vn -0.00162384 0.766545 -0.642189
v -0.195358 -67.4914 48.2015
vn -0.999999 -7.56623e-06 -0.00117597
v -0.196464 -67.4972 48.2073
vn -0.982055 -0.00132087 -0.188589
v -0.199971 -67.5025 48.2126
vn -0.447214 0 0.894427
v -0.20531 -67.5061 48.2161
vn -0.184202 -0.0122338 -0.982812
v -0.195358 -67.2375 47.9475
vn -0.999999 -8.07704e-06 0.00116046
v -0.228823 -67.206 47.9161
vn -0.999998 9.64814e-06 0.00217869
v -0.227717 -67.2118 47.9218
vn -0.981783 0.000820133 0.190002
v -0.22421 -67.2171 47.9272
vn 0.230769 -0.923077 -0.307692
v -0.218872 -67.2206 47.9307
vn -0.242536 0 -0.970143
v -0.213075 -67.2217 47.9318
vn -0.0328089 -0.91865 0.393707
v -0.228823 -67.0564 47.7664
vn -0.999998 4.76187e-06 -0.00216436
v -0.213075 -67.0406 47.7507
vn -0.000913964 0.886622 -0.462494
v -0.218872 -67.0417 47.7518
vn -0.189782 0.0185007 -0.981652
v -0.22421 -67.0452 47.7553
vn -0.00456014 -0.70256 -0.711609
v -0.227717 -67.0506 47.7607
vn -0.982241 0.001849 -0.187612
v 0.347949 -67.0406 47.7507
vn 0.000914532 0.885809 -0.464049
v 0.363697 -67.0564 47.7664
vn 0.999999 0.0010115 0.000711121
v 0.362591 -67.0506 47.7607
vn 0.98279 0.00486973 -0.184661
v 0.359084 -67.0452 47.7553
vn -0.00313142 0.703618 0.710572
v 0.353746 -67.0417 47.7518
vn 0.189132 0.0148729 -0.981839
v 0.363697 -68.6154 49.3255
vn 0.826773 -0.432513 0.359693
v -0.746539 -68.5327 49.2428
vn 0.786133 0.481818 -0.387101
v -0.746539 -68.4579 49.168
vn 0.999967 -0.00576281 -0.00576281
v -0.663862 -68.5327 49.2428
vn -0.825392 0.458241 -0.329761
v -0.663862 -68.4461 49.1562
vn -0.716986 0.55146 -0.426406
v -0.545752 -68.4461 49.1562
vn -0.939765 0.275574 -0.202238
v -0.545752 -68.2138 48.9239
vn -0.963295 0.215722 -0.159772
v -0.455201 -68.2138 48.9239
vn -0.979978 0.0446457 0.194037
v -0.455201 -67.5701 48.2802
vn -0.974574 -0.187916 0.122041
v -0.659925 -67.5701 48.2802
vn -0.217892 -0.812247 0.541089
v -0.699295 -67.5308 48.2409
vn -0.999127 -0.0353108 0.0223429
v -0.699295 -67.1036 47.8137
vn -0.999872 -0.000441714 0.0159701
v -0.746539 -67.1036 47.8137
vn 0.781467 -0.00185783 0.623944
v -0.746539 -67.1627 47.8727
vn 0.105598 -0.00231472 0.994406
v -0.798008 -67.1114 47.8191
vn -0.146359 -0.00694933 0.989207
v -1.14811 -67.1036 47.8137
vn 0.891955 -0.419839 0.167785
v -1.14811 -67.7233 48.4334
vn 1 -0.000154502 -0.000154502
v -1.12158 -67.7348 48.4449
vn -0.656872 0.440804 -0.611727
v -1.12679 -67.738 48.4481
vn -0.527597 0.00955264 -0.849441
v -1.13237 -67.7391 48.4491
vn 0 1 0
v -1.13816 -67.738 48.448
vn 0.218218 -0.436436 0.872872
v -1.1435 -67.7345 48.4445
vn -0.408248 0.408248 -0.816497
v -1.14701 -67.828 48.5381
vn 0 0 0
v -0.939052 -67.7422 48.4523
vn 0.725061 0.276561 -0.630715
v -0.983994 -67.7102 48.4203
vn 0.593419 0.220677 -0.774052
v -1.00922 -67.7025 48.4126
vn 0.202573 0.0128745 -0.979183
v -1.03394 -67.7001 48.4101
vn -0.156474 0.461987 -0.872974
v -1.07928 -67.7084 48.4184
vn -0.487097 0.549318 -0.67896
v -0.944759 -67.7785 48.4886
vn 0.68104 -0.411056 0.605985
v -0.935893 -67.7695 48.4795
vn 0.90857 -0.124863 0.398634
v -0.932948 -67.758 48.4681
vn 0.979184 -0.0579067 0.194541
v -0.934404 -67.7499 48.4599
vn 0.908024 0.170381 -0.382706
v -0.969466 -67.7928 48.5028
vn 0.629797 -0.488195 0.60417
v -0.989256 -67.7894 48.4995
vn -0.649549 -0.134431 0.748341
v -0.983646 -67.7935 48.5036
vn -0.594855 -0.0101698 0.803768
v -0.978901 -67.7947 48.5048
vn -0.00465002 -0.710273 -0.703911
v -0.989256 -67.8666 48.5767
vn -0.647163 0.128001 -0.751529
v -1.01029 -67.8821 48.5922
vn -0.658522 0.157806 -0.73583
v -1.02223 -67.8859 48.596
vn 0.498161 0.613121 0.613121
v -1.03394 -67.8871 48.5972
vn 0.191105 0.0076561 -0.98154
v -1.05568 -67.8829 48.593
vn 0.385425 0.00765841 -0.922708
v -1.0757 -67.8698 48.5799
vn 0.710711 0.00663669 -0.703452
v -1.08885 -67.8498 48.5598
vn 0.925516 0.00436552 -0.378683
v -1.093 -67.828 48.5381
vn 0.999999 0.00120026 0.00120302
v -1.08885 -67.8063 48.5164
vn 0.924827 -0.00238756 0.380381
v -1.0757 -67.7863 48.4963
vn 0.710349 -0.00588206 0.703825
v -1.05568 -67.7731 48.4832
vn 0.385809 -0.00875672 0.922537
v -1.03394 -67.769 48.479
vn 0.191459 -0.00980825 0.981452
v -1.02223 -67.7701 48.4802
vn 0.318396 0.670307 0.670307
v -1.01029 -67.7739 48.484
vn -0.660706 -0.164115 0.732485
v -0.969466 -67.8633 48.5734
vn 0.631346 0.515531 -0.579336
v -0.973405 -67.8617 48.5718
vn -3.96954e-12 0.707107 0.707107
v -0.97734 -67.8612 48.5713
vn 8.89628e-14 -0.707107 -0.707107
v -0.980463 -67.8615 48.5716
vn 8.78473e-14 0.707107 0.707107
v -0.983646 -67.8625 48.5726
vn -0.591873 0.00383345 -0.806022
v -0.944759 -67.8776 48.5876
vn 0.681901 0.43604 -0.587264
v -0.939052 -67.9139 48.6239
vn 0.748009 -0.438616 0.498095
v -0.934404 -67.9062 48.6163
vn 0.918418 -0.260637 0.297619
v -0.932948 -67.898 48.6081
vn 0.980115 0.0661022 -0.187095
v -0.935893 -67.8866 48.5967
vn 0.909941 0.131555 -0.393321
v -1.12158 -67.9212 48.6313
vn -0.659887 -0.466917 0.588675
v -1.07928 -67.9477 48.6578
vn -0.488989 -0.579431 0.652035
v -1.03394 -67.956 48.6661
vn -0.117527 -0.65878 0.743099
v -1.00922 -67.9536 48.6636
vn 0.276992 -0.636637 0.719701
v -0.983994 -67.9458 48.6559
vn 0.624017 -0.516932 0.585991
v -1.14811 -67.9327 48.6428
vn 1 -0.000154119 -0.000154119
v -1.1435 -67.9216 48.6317
vn 0 0.83205 0.5547
v -1.13816 -67.9181 48.6282
vn 0 -0.447214 -0.894427
v -1.13237 -67.917 48.6271
vn -0.729883 -0.634681 -0.253872
v -1.12679 -67.918 48.6281
vn -0.525844 -0.00557657 0.850563
v -1.14811 -68.5327 49.2428
vn 0.705185 0.55655 -0.439279
v -0.801658 -68.5327 49.2428
vn -0.275761 0.756876 -0.592533
v -0.801658 -68.4619 49.172
vn -0.999967 0.00576281 0.00576281
v -0.75835 -68.4461 49.1562
vn -1 0 0
v 0.300705 -67.1036 47.8137
vn -0.903468 -0.249184 0.348789
v 0.300705 -67.7233 48.4334
vn -1 -9.26985e-05 -9.26985e-05
v -0.0457414 -67.1194 47.8285
vn 0.146288 -0.00646549 0.989221
v -0.10087 -67.1627 47.8727
vn -0.26233 -0.00860366 0.96494
v -0.10087 -67.1036 47.8137
vn -0.790397 -0.0206937 0.612246
v -0.148114 -67.1036 47.8137
vn 0.999406 0.00535542 0.0340312
v -0.148114 -67.5308 48.2409
vn 0.99971 -0.0173273 0.0167533
v -0.187484 -67.5701 48.2802
vn 0.217951 -0.811453 0.542256
v -0.392209 -67.5701 48.2802
vn 0.980647 -0.0982441 -0.169352
v -0.392209 -68.2138 48.9239
vn 0.99507 0.0744107 -0.0655684
v -0.301658 -68.2138 48.9239
vn 0.963775 0.204721 -0.17096
v -0.301658 -68.4461 49.1562
vn 0.704687 0.704382 -0.085216
v -0.183547 -68.4461 49.1562
vn 0.716975 0.551554 -0.426305
v -0.183547 -68.5327 49.2428
vn 0.827565 0.433936 -0.35614
v -0.10087 -68.5327 49.2428
vn -0.785734 0.48666 -0.381817
v -0.10087 -68.4579 49.168
vn -0.999995 -0.00224804 -0.00224804
v -0.0752796 -68.4461 49.1562
vn -0.0623783 0 -0.998053
v -0.045752 -68.4619 49.172
vn 0.999995 0.00224804 0.00224804
v -0.045752 -68.5327 49.2428
vn 0.275636 0.759185 -0.58963
v 0.300705 -68.5327 49.2428
vn -0.951327 0.250745 -0.179175
v 0.300705 -67.9327 48.6428
vn -1 -0.00010717 -0.00010717
v 0.27417 -67.9212 48.6313
vn 0.631719 -0.29375 0.717386
v 0.279377 -67.918 48.6281
vn 0.518243 0.0118731 0.855151
v 0.284957 -67.917 48.6271
vn -0.619813 0.754555 0.215587
v 0.290753 -67.9181 48.6282
vn 0 -0.970143 -0.242536
v 0.296092 -67.9216 48.6317
vn 0 0.287348 0.957826
v 0.299599 -67.828 48.5381
vn -0.998053 -0.0623783 0
v 0.0916423 -67.9139 48.6239
vn -0.729598 -0.298204 0.615435
v 0.136584 -67.9458 48.6559
vn -0.600399 -0.233401 0.764882
v 0.161812 -67.9536 48.6636
vn -0.196945 0.0158929 0.980286
v 0.186531 -67.956 48.6661
vn 0.186852 -0.701343 0.687899
v 0.231866 -67.9477 48.6578
vn 0.429285 -0.651868 0.625126
v 0.0973493 -67.8776 48.5876
vn -0.681627 0.511382 -0.523329
v 0.0884833 -67.8866 48.5967
vn -0.913 0.145619 -0.381085
v 0.0855382 -67.898 48.6081
vn -0.980902 0.0732085 -0.1802
v 0.0869949 -67.9062 48.6163
vn -0.909605 -0.178872 0.374998
v 0.122056 -67.8633 48.5734
vn -0.630736 0.594526 -0.49871
v 0.141846 -67.8666 48.5767
vn 0.650431 0.136874 -0.747131
v 0.136237 -67.8625 48.5726
vn 0.583745 -0.0132377 -0.811829
v 0.131491 -67.8614 48.5714
vn -1.07178e-13 0.707107 0.707107
v 0.125996 -67.8617 48.5718
vn 2.02815e-12 -0.707107 -0.707107
v 0.141846 -67.7894 48.4995
vn 0.702922 -0.31973 0.635353
v 0.162883 -67.7739 48.484
vn 0.713159 -0.376789 0.591129
v 0.17482 -67.7701 48.4802
vn 0.851658 -0.524097 0
v 0.186531 -67.769 48.479
vn -0.187918 0.00975951 0.982136
v 0.208269 -67.7731 48.4832
vn -0.379262 0.00977071 0.925238
v 0.22829 -67.7863 48.4963
vn -0.703118 0.00851922 0.711023
v 0.24144 -67.8063 48.5164
vn -0.921989 0.00566563 0.387175
v 0.245587 -67.828 48.5381
vn -0.999997 0.00161824 0.00162196
v 0.24144 -67.8498 48.5598
vn -0.922951 -0.00298583 -0.384906
v 0.22829 -67.8698 48.5799
vn -0.703692 -0.00741115 -0.710466
v 0.208269 -67.8829 48.593
vn -0.378832 -0.010969 -0.9254
v 0.186531 -67.8871 48.5972
vn -0.187405 -0.0122522 -0.982206
v 0.17482 -67.8859 48.596
vn -0.756363 -0.654152 0
v 0.162883 -67.8821 48.5922
vn 0.663366 0.172101 -0.728236
v 0.122056 -67.7928 48.5028
vn -0.630348 -0.6004 0.492119
v 0.12993 -67.7949 48.5049
vn -0.0623783 0.998053 0
v 0.136237 -67.7935 48.5036
vn 0.590121 0 0.807315
v 0.0973493 -67.7785 48.4886
vn -0.681199 -0.515628 0.519707
v 0.0916423 -67.7422 48.4523
vn -0.731974 0.308188 -0.607646
v 0.0869949 -67.7499 48.4599
vn -0.911415 0.189684 -0.365161
v 0.0855382 -67.758 48.4681
vn -0.979951 -0.0638896 0.188717
v 0.0884833 -67.7695 48.4795
vn -0.911502 -0.137595 0.387598
v 0.27417 -67.7348 48.4449
vn 0.661399 0.55156 -0.508265
v 0.231866 -67.7084 48.4184
vn 0.487212 0.675715 -0.553203
v 0.186531 -67.7001 48.4101
vn 0.176755 0.609961 -0.772467
v 0.161812 -67.7025 48.4126
vn -0.198913 -0.00602747 -0.979999
v 0.136584 -67.7102 48.4203
vn -0.603771 0.24436 -0.758781
v 0.296092 -67.7345 48.4445
vn -0.0381802 0.114541 0.992685
v 0.290753 -67.738 48.448
vn 0.120386 -0.240772 0.963087
v 0.284957 -67.7391 48.4491
vn 0 -0.707107 0.707107
v 0.279377 -67.738 48.4481
vn 0.520325 -0.00727176 -0.853938
v -0.211106 -67.2217 47.9318
vn -0.186458 -3.84469e-06 0.982463
v -0.20531 -67.2228 47.9329
vn -0.186458 -3.84469e-06 0.982463
v -0.199971 -67.2263 47.9364
vn -0.707107 0 -0.707107
v -0.196464 -67.2317 47.9418
vn -0.98196 -0.00142687 0.189083
v -0.634335 -67.2217 47.9318
vn 0.0189837 0.701465 0.712451
v -0.628538 -67.2206 47.9307
vn -0.0112942 -0.702288 -0.711803
v -0.619692 -67.2118 47.9218
vn 0.981675 0.00156959 0.190557
v -1.13672 -31.7262 48.8592
vn 0.569529 -0.00247968 0.821967
v -0.771594 -37.7976 47.9524
vn -0.885136 0.00457203 0.46531
v -0.111895 -31.3593 49.22
vn 0.382557 0.00222863 -0.923929
v 0.293513 -37.8756 48.2024
vn -0.159732 0.00730124 0.987133
v -0.195314 -49.9343 48.0783
vn -1 -5.81761e-05 -5.81522e-05
v -0.196557 -41.1479 48.2075
vn 0 0 0
v -0.196557 -58.7207 48.2075
vn 0 0 0
v -0.20508 -41.1479 48.216
vn 0 0 0
v -0.20508 -58.7207 48.216
vn 0 0 0
v -0.64233 -41.1479 48.216
vn 0 0 0
v -0.64233 -58.7207 48.216
vn 0 0 0
v -0.650853 -41.1479 48.2075
vn 0 0 0
v -0.650853 -58.7207 48.2075
vn 0 0 0
v -0.650853 -41.2827 47.9415
vn 0 0 0
v -0.650853 -58.5859 47.9415
vn 0 0 0
v -0.639316 -39.846 47.9324
vn 0 0 0
v -0.639316 -49.9343 47.9324
vn 0 0 0
v -0.64233 -58.5859 47.933
vn 0 0 0
v -0.636303 -44.1719 47.9318
vn 0 0 0
v -0.636303 -61.4593 47.9318
vn 0.186427 0 0.982469
v -0.618599 -49.9343 47.8402
vn 1 6.03777e-05 6.03541e-05
v -0.631321 -39.85 47.9312
vn 0 0 0
v -0.631321 -49.9343 47.9312
vn 0 0 0
v -0.628308 -58.578 47.9306
vn 0 0 0
v -0.634335 -44.1719 47.9318
vn 0 0 0
v -0.628308 -41.3733 47.7519
vn 0 0 0
v -0.628308 -58.4953 47.7519
vn 0 0 0
v -0.619785 -58.4953 47.7604
vn 0 0 0
v -1.20991 -41.3733 47.7604
vn 0 0 0
v -1.20991 -58.4953 47.7604
vn 0 0 0
v -1.20138 -41.3733 47.7519
vn 0 0 0
v -1.20138 -58.4953 47.7519
vn 0 0 0
v 0.141846 -55.886 48.4995
vn 0.592535 0 0.805545
v 0.353975 -41.3733 47.7519
vn 0 0 0
v 0.353975 -58.4953 47.7519
vn 0 0 0
v 0.362498 -41.3733 47.7604
vn 0 0 0
v 0.362498 -58.4953 47.7604
vn 0 0 0
v -0.228809 -49.9343 47.8416
vn -1 6.05679e-05 6.05443e-05
v -0.227624 -41.3733 47.7604
vn 0 0 0
v -0.219101 -41.3733 47.7519
vn 0 0 0
v -0.219101 -58.4953 47.7519
vn 0 0 0
v -0.216088 -49.9343 47.9312
vn 0 0 0
v -0.219101 -41.2906 47.9306
vn 0 0 0
v -0.227624 -58.578 47.9221
vn 0 0 0
v -0.213075 -55.6968 47.9318
vn 0 0 0
v -0.213075 -38.4094 47.9318
vn 0 0 0
v -0.208093 -39.846 47.9324
vn 0 0 0
v -0.208093 -52.8156 47.9324
vn 0 0 0
v -0.208093 -60.0226 47.9324
vn -0.186458 -3.84469e-06 0.982463
v -0.196557 -41.2827 47.9415
vn 0 0 0
v -0.196557 -58.5859 47.9415
vn 0 0 0
v -0.211106 -44.1719 47.9318
vn 0 0 0
v 0.363697 -68.6154 -37.7414
vn 0.946753 -0.285005 -0.149772
v 0.363697 -67.0564 -36.1824
vn 0.999965 0.00603544 -0.00575052
v 0.347949 -67.0406 -36.1666
vn 0.00141359 0.691429 0.722443
v 0.353746 -67.0417 -36.1677
vn 0.188035 0.00882039 0.982123
v 0.359084 -67.0452 -36.1712
vn 1.06804e-12 0.707107 -0.707107
v 0.362591 -67.0506 -36.1766
vn 0.985039 0.0162765 0.17156
v -0.213075 -67.0406 -36.1666
vn -0.0014135 0.689465 0.724318
v -0.228823 -67.0564 -36.1824
vn -0.999998 4.21892e-07 0.00207459
v -0.227717 -67.0506 -36.1766
vn -0.982588 0.00157974 0.18579
v -0.22421 -67.0452 -36.1712
vn 1.4745e-15 0.707107 -0.707107
v -0.218872 -67.0417 -36.1677
vn -0.187713 0.00704946 0.982199
v -0.228823 -67.206 -36.332
vn -0.999998 1.41259e-05 -0.00208913
v -0.195358 -67.2375 -36.3635
vn -0.999992 0.00179779 -0.00369643
v -0.196464 -67.2317 -36.3577
vn -0.981562 0.00392878 -0.191103
v -0.199971 -67.2263 -36.3523
vn 0 0 0
v -0.20531 -67.2228 -36.3488
vn -0.186458 0 -0.982463
v -0.211106 -67.2217 -36.3477
vn -0.186458 7.97324e-19 -0.982463
v -0.195358 -67.4914 -36.6174
vn -0.999998 0.00178203 0.000116619
v -0.211106 -67.5072 -36.6332
vn -0.00133658 0.849099 0.528233
v -0.20531 -67.5061 -36.6321
vn -0.184998 -0.00793369 0.982707
v -0.199971 -67.5025 -36.6285
vn 0 -1 0
v -0.196464 -67.4972 -36.6232
vn -0.982732 0.00237653 0.18502
v -0.636303 -67.5072 -36.6332
vn 0.00133673 0.848837 0.528653
v -0.652051 -67.4914 -36.6174
vn 0.999999 -8.49002e-06 0.00131951
v -0.650946 -67.4972 -36.6232
vn 0.982087 -0.00131969 0.188424
v -0.647439 -67.5025 -36.6285
vn 0 -0.707107 -0.707107
v -0.6421 -67.5061 -36.6321
vn 0.18417 -0.0122441 0.982818
v -0.652051 -67.2375 -36.3635
vn 0.999999 -9.05471e-06 -0.00130197
v -0.618587 -67.206 -36.332
vn 0.999998 8.77111e-06 -0.00187054
v -0.619692 -67.2118 -36.3378
vn 0.982178 0.000828127 -0.18795
v -0.623199 -67.2171 -36.3431
vn 0 -0.707107 -0.707107
v -0.628538 -67.2206 -36.3466
vn 0 0.707107 -0.707107
v -0.634335 -67.2217 -36.3477
vn 0 0.975441 0.220261
v -0.618587 -67.0564 -36.1824
vn 0.999998 9.943e-06 0.00185183
v -0.634335 -67.0406 -36.1666
vn 0.00113125 0.818852 0.574004
v -0.628538 -67.0417 -36.1677
vn 0.189897 0.019141 0.981617
v -0.623199 -67.0452 -36.1712
vn -1.06885e-12 -0.707107 0.707107
v -0.619692 -67.0506 -36.1766
vn 0.982478 0.000804184 0.186375
v -1.19536 -67.0406 -36.1666
vn -0.00113125 0.818838 0.574024
v -1.21111 -67.0564 -36.1824
vn -0.999999 0.00107972 -0.000758401
v -1.21 -67.0506 -36.1766
vn -0.983093 0.00510608 0.183038
v -1.20649 -67.0452 -36.1712
vn 0 -1 0
v -1.20116 -67.0417 -36.1677
vn -0.189163 0.0155815 0.981822
v -1.21111 -68.6154 -37.7414
vn -0.770428 -0.518479 -0.370972
v -0.10087 -68.5327 -37.6588
vn -0.788086 0.430544 0.439945
v -0.10087 -68.4579 -37.5839
vn -0.999986 -0.00376101 0.00375599
v -0.183547 -68.5327 -37.6588
vn 0.828774 0.411025 0.379727
v -0.183547 -68.4461 -37.5721
vn 0.720002 0.491458 0.489965
v -0.301658 -68.4461 -37.5721
vn 0.940985 0.244134 0.234406
v -0.301658 -68.2138 -37.3399
vn 0.964027 0.190803 0.185057
v -0.392209 -68.2138 -37.3399
vn 0.977845 0.0367663 -0.206078
v -0.392209 -67.5701 -36.6962
vn 0.992181 -0.0639206 -0.1072
v -0.187484 -67.5701 -36.6962
vn 0.220651 -0.769034 -0.599917
v -0.148114 -67.5308 -36.6568
vn 0.999287 -0.0305581 -0.0221964
v -0.148114 -67.1036 -36.2296
vn 0.999872 -0.000437276 -0.0159634
v -0.10087 -67.1036 -36.2296
vn -0.782221 -0.00230366 -0.622997
v -0.10087 -67.1627 -36.2887
vn -0.832622 -0.000815206 -0.553842
v -0.0615001 -67.1627 -36.2887
vn 0 -0.00271053 -0.999996
v -0.045752 -67.1469 -36.2729
vn 0.999999 0.00105173 -0.00105173
v -0.045752 -67.1036 -36.2296
vn 0.0412459 -0.9432 -0.329655
v 0.300705 -67.1036 -36.2296
vn -0.890453 -0.423437 -0.166721
v 0.300705 -67.7233 -36.8493
vn -1 -0.00015456 0.00015456
v 0.27417 -67.7348 -36.8608
vn 0.660336 0.578574 0.478758
v 0.279377 -67.738 -36.8641
vn 0.539429 0.00946185 0.841978
v 0.284957 -67.7391 -36.8651
vn 0.242536 0 -0.970143
v 0.290753 -67.738 -36.864
vn -0.174078 0.696311 0.696311
v 0.296092 -67.7345 -36.8605
vn -0.679544 0.550107 0.485389
v 0.299599 -67.7291 -36.8551
vn -1 0 0
v 0.0916423 -67.7422 -36.8682
vn -0.749493 0.472274 0.463915
v 0.136584 -67.7102 -36.8362
vn -0.652844 0.41544 0.633406
v 0.161812 -67.7025 -36.8285
vn -0.200686 0.0128727 0.979571
v 0.186531 -67.7001 -36.8261
vn 0.180462 0.65149 0.736882
v 0.231866 -67.7084 -36.8344
vn 0.484352 0.704341 0.518948
v 0.0973493 -67.7785 -36.9045
vn -0.700469 -0.505353 -0.503946
v 0.0884833 -67.7695 -36.8955
vn -0.926093 -0.265508 -0.268062
v 0.0855382 -67.758 -36.884
vn -0.983993 -0.124301 -0.127695
v 0.0869949 -67.7499 -36.8759
vn -0.91973 0.28089 0.274221
v 0.122056 -67.7928 -36.9188
vn -0.6334 -0.548201 -0.546151
v 0.141846 -67.7894 -36.9154
vn 0.684774 -0.23897 -0.688461
v 0.136237 -67.7935 -36.9196
vn 0.687645 -0.23811 -0.685893
v 0.133053 -67.7945 -36.9206
vn 2.49977e-13 -0.707107 0.707107
v 0.12993 -67.7949 -36.9209
vn -0.00333775 0.71675 -0.697322
v 0.141846 -67.8666 -36.9926
vn 0.681763 0.233561 0.693288
v 0.162883 -67.8821 -37.0081
vn 0.682369 0.233375 0.692754
v 0.17482 -67.8859 -37.0119
vn 0 0 0
v 0.186531 -67.8871 -37.0131
vn -0.191122 0.0076562 0.981536
v 0.208269 -67.8829 -37.0089
vn -0.385432 0.00765849 0.922704
v 0.22829 -67.8698 -36.9958
vn -0.709647 0.00664326 0.704526
v 0.24144 -67.8498 -36.9758
vn -0.925539 0.00436409 0.378627
v 0.245587 -67.828 -36.954
vn -0.999999 0.00120039 -0.00120039
v 0.24144 -67.8063 -36.9323
vn -0.924532 -0.00239476 -0.381097
v 0.22829 -67.7863 -36.9123
vn -0.710337 -0.00588028 -0.703837
v 0.208269 -67.7731 -36.8991
vn -0.385817 -0.00875673 -0.922534
v 0.186531 -67.769 -36.895
vn -0.187122 -0.00982679 -0.982287
v 0.17482 -67.7701 -36.8961
vn -0.662266 0.529813 0.529813
v 0.162883 -67.7739 -36.8999
vn 0.684006 -0.239209 -0.689141
v 0.122056 -67.8633 -36.9893
vn -0.633395 0.550209 0.544134
v 0.125996 -67.8617 -36.9877
vn 0 1 0
v 0.12993 -67.8612 -36.9872
vn 6.2083e-12 -0.707107 0.707107
v 0.133053 -67.8615 -36.9875
vn -3.51787e-13 0.707107 -0.707107
v 0.136237 -67.8625 -36.9885
vn 0.679459 0.234203 0.69533
v 0.0973493 -67.8776 -37.0036
vn -0.700463 0.507699 0.501591
v 0.0916423 -67.9139 -37.0399
vn -0.748677 -0.468047 -0.469484
v 0.0869949 -67.9062 -37.0322
vn -0.919739 -0.276393 -0.278723
v 0.0855382 -67.898 -37.024
vn -0.983713 0.129897 0.124238
v 0.0884833 -67.8866 -37.0126
vn -0.925438 0.271085 0.264721
v 0.27417 -67.9212 -37.0473
vn 0.662484 -0.511021 -0.547698
v 0.231866 -67.9477 -37.0737
vn 0.489019 -0.630698 -0.602562
v 0.186531 -67.956 -37.082
vn 0.169525 -0.553397 -0.815483
v 0.161812 -67.9536 -37.0796
vn -0.200983 -0.00458031 -0.979584
v 0.136584 -67.9458 -37.0718
vn -0.651576 -0.409378 -0.638638
v 0.300705 -67.9327 -37.0587
vn -1 -0.000134674 0.000134651
v 0.296092 -67.9216 -37.0476
vn -0.40161 -0.240966 0.883541
v 0.290753 -67.9181 -37.0441
vn -1 0 0
v 0.284957 -67.917 -37.043
vn 0.0880451 -0.704361 0.704361
v 0.279377 -67.918 -37.044
vn 0.537726 -0.00553229 -0.843102
v 0.300705 -68.5327 -37.6588
vn -0.894484 0.240818 0.376703
v -0.045752 -68.5327 -37.6588
vn 0.270722 0.90098 0.339036
v -0.045752 -68.4619 -37.5879
vn 0.999986 0.00376115 -0.00375584
v -0.0752796 -68.4461 -37.5721
vn 0 0 0
v -1.14811 -67.1036 -36.2296
vn 0.905267 -0.246401 -0.346088
v -1.14811 -67.7233 -36.8493
vn 1 -9.27785e-05 9.27785e-05
v -0.805595 -67.1036 -36.2296
vn -0.0218122 -0.984845 -0.172059
v -0.805595 -67.1469 -36.2729
vn -0.999387 0.0247595 -0.0247595
v -0.789847 -67.1627 -36.2887
vn 0 -0.00271053 -0.999996
v -0.746539 -67.1627 -36.2887
vn 0.81597 -0.0201939 -0.577742
v -0.746539 -67.1036 -36.2296
vn 0.791061 -0.0209901 -0.611377
v -0.699295 -67.1036 -36.2296
vn -0.999407 0.00534889 -0.0340077
v -0.699295 -67.5308 -36.6568
vn -0.999756 -0.014167 -0.0169447
v -0.659925 -67.5701 -36.6962
vn -0.220774 -0.76615 -0.60355
v -0.455201 -67.5701 -36.6962
vn -0.980868 -0.0853882 0.174946
v -0.455201 -68.2138 -37.3399
vn -0.99797 -0.0284449 0.0569726
v -0.545752 -68.2138 -37.3399
vn -0.964016 0.183555 0.192303
v -0.545752 -68.4461 -37.5721
vn -0.940965 0.232487 0.246037
v -0.663862 -68.4461 -37.5721
vn -0.719992 0.486031 0.495363
v -0.663862 -68.5327 -37.6588
vn -0.828671 0.376542 0.414151
v -0.746539 -68.5327 -37.6588
vn 0.7881 0.43648 0.434032
v -0.746539 -68.4579 -37.5839
vn 0.999986 0.00376101 -0.00375599
v -0.77213 -68.4461 -37.5721
vn -0.0623783 0 -0.998053
v -0.801658 -68.4619 -37.5879
vn -0.999986 -0.00376115 0.00375584
v -0.801658 -68.5327 -37.6588
vn -0.277821 0.675503 0.683017
v -1.14811 -68.5327 -37.6588
vn 0.854872 0.478843 0.199758
v -1.14811 -67.9327 -37.0587
vn 1 -9.2507e-05 9.24916e-05
v -1.12158 -67.9212 -37.0473
vn -0.653439 -0.640613 -0.403277
v -1.12679 -67.918 -37.044
vn -0.52988 0.0117805 -0.847991
v -1.13237 -67.917 -37.043
vn -0.879141 0.42625 -0.213125
v -1.13816 -67.9181 -37.0441
vn -1 0 0
v -1.1435 -67.9216 -37.0476
vn 0 0 0
v -1.14701 -67.828 -36.954
vn 1 0 0
v -0.939052 -67.9139 -37.0399
vn 0.736312 -0.588987 -0.333076
v -0.983994 -67.9458 -37.0718
vn 0.610508 -0.689707 -0.389338
v -1.00922 -67.9536 -37.0796
vn 0.267976 -0.839491 -0.472699
v -1.03394 -67.956 -37.082
vn -0.113925 -0.866105 -0.486706
v -1.07928 -67.9477 -37.0737
vn -0.475145 -0.767487 -0.43035
v -0.944759 -67.8776 -37.0036
vn 0.686665 0.634383 0.355034
v -0.935893 -67.8866 -37.0126
vn 0.920057 0.342559 0.190127
v -0.932948 -67.898 -37.024
vn 0.982365 0.164017 0.0897603
v -0.934404 -67.9062 -37.0322
vn 0.914361 -0.35221 -0.199731
v -0.969466 -67.8633 -36.9893
vn 0.618829 0.685372 0.383818
v -0.989256 -67.8666 -36.9926
vn -0.688952 0.259976 0.676578
v -0.983646 -67.8625 -36.9885
vn -0.686551 0.260646 0.678757
v -0.978901 -67.8614 -36.9873
vn 6.56503e-13 0.707107 -0.707107
v -0.973405 -67.8617 -36.9877
vn -2.02889e-12 -0.707107 0.707107
v -0.989256 -67.7894 -36.9154
vn -0.721817 -0.491554 -0.487191
v -1.01029 -67.7739 -36.8999
vn -0.72154 -0.491796 -0.487357
v -1.02223 -67.7701 -36.8961
vn 0.662266 0.529813 0.529813
v -1.03394 -67.769 -36.895
vn 0.183538 0.00976621 -0.982964
v -1.05568 -67.7731 -36.8991
vn 0.37925 0.00978216 -0.925243
v -1.0757 -67.7863 -36.9123
vn 0.703122 0.00853156 -0.711018
v -1.08885 -67.8063 -36.9323
vn 0.921627 0.00568065 -0.388034
v -1.093 -67.828 -36.954
vn 0.999997 0.00161993 -0.00161993
v -1.08885 -67.8498 -36.9758
vn 0.922925 -0.00299155 0.384968
v -1.0757 -67.8698 -36.9958
vn 0.702612 -0.00743586 0.711534
v -1.05568 -67.8829 -37.0089
vn 0.37882 -0.0109823 0.925405
v -1.03394 -67.8871 -37.0131
vn 0.187385 -0.012267 0.98221
v -1.02223 -67.8859 -37.0119
vn -0.301511 -0.301511 -0.904534
v -1.01029 -67.8821 -37.0081
vn -0.689577 0.259749 0.676028
v -0.969466 -67.7928 -36.9188
vn 0.631986 -0.593111 -0.498812
v -0.97734 -67.7949 -36.9209
vn 0.00381234 0.71811 -0.69592
v -0.983646 -67.7935 -36.9196
vn -0.722852 -0.491318 -0.485893
v -0.944759 -67.7785 -36.9045
vn 0.699158 -0.546916 -0.460501
v -0.939052 -67.7422 -36.8682
vn 0.748044 0.511263 0.423132
v -0.934404 -67.7499 -36.8759
vn 0.919014 0.305114 0.249637
v -0.932948 -67.758 -36.884
vn 0.983919 -0.13493 -0.117039
v -0.935893 -67.7695 -36.8955
vn 0.925687 -0.287675 -0.245656
v -1.12158 -67.7348 -36.8608
vn -0.650489 0.651916 0.389704
v -1.07928 -67.7084 -36.8344
vn -0.472025 0.77851 0.41366
v -1.03394 -67.7001 -36.8261
vn -0.191808 0.758571 0.622719
v -1.00922 -67.7025 -36.8285
vn 0.197028 -0.00604523 0.980379
v -0.983994 -67.7102 -36.8362
vn 0.662028 0.457466 0.593669
v -1.1435 -67.7345 -36.8605
vn 0 0 -1
v -1.13816 -67.738 -36.864
vn 0 -0.83205 0.5547
v -1.13237 -67.7391 -36.8651
vn 0 0 0
v -1.12679 -67.738 -36.8641
vn -0.531904 -0.00722932 0.846774
v -0.636303 -67.2217 -36.3477
vn 0.186427 -3.84523e-06 -0.982469
v -0.6421 -67.2228 -36.3488
vn 0.186427 -3.84523e-06 -0.982469
v -0.647439 -67.2263 -36.3523
vn 0 -1 0
v -0.650946 -67.2317 -36.3577
vn 0.982587 -0.001401 -0.185799
v -0.213075 -67.2217 -36.3477
vn 2.36207e-16 -0.707107 0.707107
v -0.218872 -67.2206 -36.3466
vn -5.44677e-13 0.707107 -0.707107
v -0.22421 -67.2171 -36.3431
vn 9.95508e-13 -0.707107 0.707107
v -0.227717 -67.2118 -36.3378
vn -0.982101 0.00107721 -0.188354
v 0.289309 -31.7264 -37.2751
vn -0.569205 -0.00250177 -0.822191
v -0.0766953 -37.8211 -36.3682
vn 0.889755 0.00448162 -0.456416
v -0.735465 -31.3593 -37.636
vn -0.382315 0.00221352 0.92403
v -1.14092 -37.914 -36.6184
vn 0.160813 0.00735128 -0.986958
v -0.652095 -49.9343 -36.4942
vn 1 -5.81004e-05 5.81004e-05
v -0.650853 -41.1479 -36.6234
vn 0 0 0
v -0.650853 -58.7207 -36.6234
vn 0 0 0
v -0.64233 -41.1479 -36.632
vn 0 0 0
v -0.64233 -58.7207 -36.632
vn 0 0 0
v -0.20508 -41.1479 -36.632
vn 0 0 0
v -0.20508 -58.7207 -36.632
vn 0 0 0
v -0.196557 -41.1479 -36.6234
vn 0 0 0
v -0.196557 -58.7207 -36.6234
vn 0 0 0
v -0.196557 -41.2827 -36.3574
vn 0 0 0
v -0.196557 -58.5859 -36.3574
vn 0 0 0
v -0.208093 -39.846 -36.3483
vn 0 0 0
v -0.208093 -49.9343 -36.3483
vn 0 0 0
v -0.20508 -58.5859 -36.3489
vn 0 0 0
v -0.211106 -44.1719 -36.3477
vn 0 0 0
v -0.211106 -61.4593 -36.3477
vn -0.186458 0 -0.982463
v -0.228785 -49.9343 -36.2334
vn -1 6.19609e-05 -6.19609e-05
v -0.227624 -41.2906 -36.338
vn 0 0 0
v -0.216088 -39.85 -36.3471
vn 0 0 0
v -0.216088 -49.9343 -36.3471
vn 0 0 0
v -0.219101 -58.578 -36.3465
vn 0 0 0
v -0.213075 -44.1719 -36.3477
vn 0 0 0
v -0.219101 -41.3733 -36.1678
vn 0 0 0
v -0.219101 -58.4953 -36.1678
vn 0 0 0
v 0.362498 -41.3733 -36.1763
vn 0 0 0
v 0.362498 -58.4953 -36.1763
vn 0 0 0
v 0.353975 -41.3733 -36.1678
vn 0 0 0
v 0.353975 -58.4953 -36.1678
vn 0 0 0
v -0.989256 -55.886 -36.9154
vn -0.59452 0 -0.804081
v -1.20138 -41.3733 -36.1678
vn 0 0 0
v -1.20138 -58.4953 -36.1678
vn 0 0 0
v -1.20991 -41.3733 -36.1763
vn 0 0 0
v -1.20991 -58.4953 -36.1763
vn 0 0 0
v -0.618623 -49.9343 -36.2561
vn 1 6.1745e-05 -6.1745e-05
v -0.628308 -41.3733 -36.1678
vn 0 0 0
v -0.628308 -58.4953 -36.1678
vn 0 0 0
v -0.631321 -49.9343 -36.3471
vn 0 0 0
v -0.628308 -41.2906 -36.3465
vn 0 0 0
v -0.619785 -58.578 -36.338
vn 0 0 0
v -0.634335 -55.6968 -36.3477
vn 0 0 0
v -0.634335 -38.4094 -36.3477
vn 0 0 0
v -0.639316 -39.846 -36.3483
vn 0 0 0
v -0.639316 -52.8156 -36.3483
vn 0 0 0
v -0.639316 -60.0226 -36.3483
vn 0.186427 -3.84523e-06 -0.982469
v -0.650853 -41.2827 -36.3574
vn 0 0 0
v -0.650853 -58.5859 -36.3574
vn 0 0 0
v -0.636303 -44.1719 -36.3477
vn 0 0 0
v 0.079298 -68.5769 1.38935
vn 0.0567896 -0.998346 0.00891928
v -0.594122 -68.2006 2.38492
vn -0.22752 -0.973758 -0.00545456
v -1.00704 -67.9373 16.7775
vn 0.261787 -0.965126 0.000148686
v -1.05302 -68.5544 -0.877784
vn -0.353535 0.925747 0.134184
v -0.457797 -68.445 -0.845261
vn 0.478679 0.877968 0.00615052
v -0.951764 -67.7506 -0.903191
vn 0.985094 0.172017 0.000830584
v -1.02694 -67.7395 19.6436
vn -0.353033 0.935611 -0.000296145
v 0.186873 -67.7131 11.6633
vn 0.347857 0.937548 -0.000414243
v 0.155379 -67.8609 12.6308
vn -0.50111 0.865384 -0.000407613
v 0.259208 -67.9263 0.590691
vn 0.29774 -0.954647 3.14825e-05
v 0.10615 -67.7496 -0.905284
vn -0.985103 0.171965 0.000874913
v 0.105113 -67.9048 -0.907162
vn -0.984729 -0.174091 0.000851735
v -0.97638 -68.6143 -1.41637
vn 0.0318752 -0.999492 0.000101783
v 0.141846 -67.8666 -24.955
vn 0.592535 0.805545 0
v 0.27417 -67.9212 34.3516
vn 0.530863 -0.847458 0
v 0.0916423 -67.9139 33.4083
vn -0.62401 -0.781416 0
v 0.0904196 -67.8836 37.2122
vn -0.712358 0.701816 6.37806e-05
v 0.0863431 -67.8919 37.2122
vn -0.968196 0.250191 6.55382e-05
v 0.0916423 -67.7422 18.1355
vn 0 0 0
v 0.0916423 -67.7422 33.2939
vn -0.624971 0.780648 7.32008e-16
v 0.0878159 -67.7682 37.1107
vn -0.968744 -0.248063 2.85042e-05
v 0.0933135 -67.7756 37.1107
vn -0.712428 -0.701746 7.38408e-05
v -0.937829 -67.7724 37.1107
vn 0.712419 -0.701754 5.76879e-05
v -0.933753 -67.7641 37.1107
vn 0.968755 -0.248021 6.45467e-05
v -0.939052 -67.7422 33.2939
vn 0.624964 0.780654 7.36433e-16
v -0.989256 -67.7894 -24.9036
vn -0.592564 -0.805524 0
v -0.934321 -67.9059 14.3888
vn 0 0 0
v -0.935225 -67.8879 37.2122
vn 0.968207 0.250149 2.82463e-05
v -0.940723 -67.8805 37.2122
vn 0.712353 0.701821 7.38237e-05
v -0.989256 -67.7894 40.9122
vn -0.59323 -0.805033 8.68053e-18
v -0.989256 -67.7894 -6.88579
vn 0 0 0
v -0.989256 -67.8666 18.1761
vn 0 0 0
v -0.989256 -67.8666 40.9766
vn -0.59323 0.805033 8.7358e-18
v -0.989256 -67.8666 -24.955
vn -0.592564 0.805524 0
v -0.989256 -67.8666 -6.89866
vn 0 0 0
v -1.02368 -67.8862 5.79204
vn 0 0 0
v 0.141846 -67.7894 -24.9036
vn 0.592535 -0.805545 0
v 0.141846 -67.8666 -12.9175
vn 0 0 0
v 0.141846 -67.8666 40.9766
vn 0.593176 0.805073 0
v 0.141846 -67.7894 10.563
vn 0 0 0
v 0.141846 -67.7894 40.9122
vn 0.593176 -0.805073 0
v 0.141846 -67.7894 -12.8917
vn 0 0 0
v 0.177405 -67.7699 5.79204
vn 0 0 0
v 0.300705 -67.9327 11.1484
vn -1 0 0
v -1.14811 -67.9327 11.1484
vn 1 0 0
v -0.423704 -67.5072 11.9791
vn 0 1 0
v -0.652051 -67.3645 3.55148
vn 1 0 0
v -0.618587 -67.1312 14.1026
vn 1 0 0
v -0.914848 -67.0406 5.35498
vn 0 1 0
v -0.0457481 -67.1036 47.8231
vn 2.1399e-06 -1 0.000490631
v -0.805599 -67.1036 47.819
vn -4.32064e-05 -0.999998 0.00223301
v -1.14811 -67.7233 11.1222
vn 1 0 0
v -1.21111 -67.0564 -0.329224
vn -1 0 0
v 0.300705 -67.7233 0.461885
vn -1 0 0
v -0.195358 -67.3645 0.916761
vn -1 0 0
v -0.228823 -67.1312 7.08973
vn -1 0 0
v 0.067437 -67.0406 -8.19418
vn 0 1 0
v 0.363697 -67.0564 7.54098
vn 1 0 0
v -1.23079 -31.2532 49.3255
vn -0.99089 0.13466 0.00189823
v -0.424554 -32.5826 -24.2984
vn -0.711566 -0.70261 -0.00354389
v -0.784013 -32.6108 47.9654
vn -0.415216 0.909717 -0.00317809
v -0.286099 -32.6185 12.5518
vn 0.848664 -0.528919 0.00376313
v 0.0289685 -32.3933 48.1922
vn -0.999332 0.036166 0.00528308
v 0.34297 -32.8145 47.7642
vn 0.962596 -0.27094 -1.33165e-05
v -0.113593 -31.3311 49.2467
vn 0.321723 0.946741 0.0132543
v -1.13219 -31.8833 48.6814
vn 0.420276 -0.907388 -0.00375243
v -1.14274 -32.0327 -36.9604
vn 0.988134 0.153572 -0.00253078
v -1.20754 -32.7973 -36.1974
vn 0.83739 0.546396 0.0151805
v -0.74842 -32.765 -36.2352
vn -0.692148 0.721749 -0.00316144
v -0.706215 -32.3186 -36.6756
vn -0.847425 0.5309 -0.00400826
v -0.453994 -32.2985 -36.6962
vn -0.932218 0.361889 -0.00261799
v -0.590366 -31.4245 -37.5738
vn -0.263383 -0.964678 -0.00503621
v -0.162576 -31.406 -37.592
vn -0.752329 -0.658428 -0.0217742
v 0.344012 -31.2532 -37.7414
vn 0.909685 0.415269 -0.00504949
v -1.21322 -31.2614 -37.7332
vn -0.542721 0.839904 0.00389042
v -1.00894 -32.002 20.0536
vn 0 0 0
v -1.00894 -32.002 -22.7311
vn 0 0 0
v -1.00894 -32.0792 -8.44378
vn 0 0 0
v -1.02906 -32.0943 5.79204
vn 0 0 0
v -1.00894 -32.0792 34.2637
vn 0 0 0
v 0.122161 -32.0792 20.0279
vn 0 0 0
v 0.122161 -32.0792 -22.6796
vn 0 0 0
v 0.122161 -32.002 -22.7311
vn 0 0 0
v 0.142276 -31.9869 5.79204
vn 0 0 0
v 0.122161 -32.002 20.0536
vn 0 0 0
f 47//47 46//46 45//45
f 43//43 47//47 44//44
f 44//44 47//47 45//45
f 122//122 43//43 44//44
f 122//122 44//44 123//123
f 124//124 39//39 43//43
f 124//124 43//43 122//122
f 187//187 186//186 166//166
f 166//166 188//188 187//187
f 188//188 165//165 189//189
f 147//147 190//190 148//148
f 148//148 123//123 142//142
f 193//193 192//192 169//169
f 192//192 191//191 169//169
f 170//170 191//191 190//190
f 186//186 185//185 167//167
f 182//182 181//181 183//183
f 166//166 165//165 188//188
f 164//164 181//181 189//189
f 180//180 183//183 181//181
f 183//183 180//180 184//184
f 168//168 185//185 193//193
f 189//189 165//165 164//164
f 166//166 186//186 167//167
f 142//142 123//123 44//44
f 39//39 126//126 127//127
f 124//124 126//126 39//39
f 39//39 127//127 38//38
f 196//196 195//195 127//127
f 195//195 33//33 127//127
f 33//33 195//195 194//194
f 40//40 39//39 41//41
f 124//124 125//125 126//126
f 38//38 42//42 41//41
f 38//38 127//127 33//33
f 37//37 35//35 33//33
f 130//130 56//56 27//27
f 35//35 34//34 33//33
f 33//33 194//194 37//37
f 41//41 39//39 38//38
f 35//35 37//37 36//36
f 32//32 127//127 128//128
f 128//128 28//28 32//32
f 31//31 128//128 129//129
f 28//28 128//128 29//29
f 29//29 128//128 30//30
f 197//197 196//196 127//127
f 128//128 31//31 30//30
f 27//27 129//129 130//130
f 31//31 129//129 27//27
f 127//127 32//32 197//197
f 190//190 147//147 170//170
f 193//193 169//169 168//168
f 143//143 173//173 172//172
f 144//144 172//172 171//171
f 146//146 171//171 170//170
f 163//163 181//181 164//164
f 151//151 175//175 174//174
f 149//149 176//176 150//150
f 150//150 176//176 175//175
f 149//149 159//159 176//176
f 167//167 185//185 168//168
f 153//153 174//174 173//173
f 170//170 147//147 146//146
f 141//141 142//142 48//48
f 44//44 48//48 142//142
f 140//140 141//141 48//48
f 171//171 145//145 144//144
f 143//143 172//172 144//144
f 153//153 173//173 143//143
f 153//153 152//152 174//174
f 174//174 152//152 151//151
f 175//175 151//151 150//150
f 145//145 171//171 146//146
f 170//170 169//169 191//191
f 162//162 161//161 160//160
f 178//178 177//177 179//179
f 177//177 163//163 179//179
f 154//154 158//158 159//159
f 159//159 149//149 154//154
f 158//158 162//162 159//159
f 177//177 180//180 163//163
f 155//155 154//154 157//157
f 149//149 157//157 154//154
f 156//156 155//155 157//157
f 139//139 140//140 136//136
f 137//137 138//138 139//139
f 131//131 132//132 133//133
f 139//139 136//136 137//137
f 51//51 53//53 133//133
f 51//51 133//133 135//135
f 135//135 133//133 134//134
f 48//48 135//135 136//136
f 133//133 55//55 131//131
f 48//48 136//136 140//140
f 160//160 159//159 162//162
f 163//163 180//180 181//181
f 5//5 51//51 135//135
f 5//5 135//135 48//48
f 130//130 131//131 55//55
f 130//130 55//55 56//56
f 14//14 13//13 12//12
f 12//12 16//16 59//59
f 200//200 199//199 16//16
f 16//16 199//199 198//198
f 15//15 14//14 12//12
f 12//12 59//59 11//11
f 60//60 11//11 59//59
f 16//16 198//198 21//21
f 20//20 59//59 16//16
f 62//62 60//60 61//61
f 60//60 62//62 11//11
f 11//11 15//15 12//12
f 16//16 21//21 20//20
f 23//23 56//56 57//57
f 56//56 23//23 27//27
f 24//24 23//23 57//57
f 24//24 58//58 25//25
f 18//18 59//59 19//19
f 17//17 59//59 18//18
f 58//58 22//22 26//26
f 58//58 24//24 57//57
f 58//58 17//17 22//22
f 26//26 25//25 58//58
f 58//58 59//59 17//17
f 20//20 19//19 59//59
f 73//73 72//72 96//96
f 73//73 95//95 74//74
f 8//8 7//7 6//6
f 9//9 8//8 10//10
f 7//7 63//63 6//6
f 6//6 10//10 8//8
f 6//6 63//63 64//64
f 63//63 7//7 11//11
f 63//63 11//11 62//62
f 75//75 74//74 95//95
f 78//78 77//77 76//76
f 78//78 76//76 79//79
f 71//71 79//79 76//76
f 72//72 71//71 97//97
f 72//72 97//97 96//96
f 73//73 96//96 95//95
f 114//114 70//70 69//69
f 65//65 75//75 94//94
f 67//67 66//66 92//92
f 66//66 65//65 93//93
f 68//68 91//91 69//69
f 75//75 95//95 94//94
f 68//68 67//67 92//92
f 64//64 113//113 6//6
f 80//80 83//83 81//81
f 107//107 106//106 105//105
f 107//107 105//105 103//103
f 103//103 104//104 84//84
f 81//81 83//83 82//82
f 84//84 100//100 99//99
f 98//98 84//84 99//99
f 81//81 76//76 80//80
f 103//103 84//84 98//98
f 53//53 54//54 55//55
f 133//133 53//53 55//55
f 53//53 51//51 52//52
f 103//103 105//105 104//104
f 50//50 49//49 120//120
f 120//120 121//121 50//50
f 49//49 119//119 120//120
f 5//5 119//119 49//49
f 5//5 49//49 51//51
f 102//102 101//101 100//100
f 71//71 76//76 81//81
f 112//112 86//86 85//85
f 104//104 112//112 85//85
f 84//84 104//104 85//85
f 65//65 94//94 93//93
f 66//66 93//93 92//92
f 108//108 89//89 88//88
f 115//115 91//91 90//90
f 117//117 90//90 89//89
f 92//92 91//91 68//68
f 88//88 109//109 108//108
f 108//108 117//117 89//89
f 87//87 109//109 88//88
f 112//112 111//111 86//86
f 110//110 87//87 111//111
f 110//110 109//109 87//87
f 87//87 86//86 111//111
f 116//116 90//90 117//117
f 91//91 115//115 114//114
f 64//64 70//70 113//113
f 119//119 5//5 118//118
f 113//113 118//118 5//5
f 5//5 6//6 113//113
f 91//91 114//114 69//69
f 116//116 115//115 90//90
f 102//102 100//100 84//84
f 81//81 97//97 71//71
f 201//201 65//65 66//66
f 201//201 63//63 202//202
f 63//63 201//201 64//64
f 62//62 202//202 63//63
f 61//61 202//202 62//62
f 60//60 202//202 61//61
f 59//59 202//202 60//60
f 58//58 202//202 59//59
f 57//57 202//202 58//58
f 56//56 202//202 57//57
f 55//55 203//203 202//202
f 55//55 202//202 56//56
f 54//54 203//203 55//55
f 53//53 203//203 54//54
f 52//52 203//203 53//53
f 51//51 203//203 52//52
f 49//49 203//203 51//51
f 136//136 203//203 137//137
f 135//135 203//203 136//136
f 134//134 203//203 135//135
f 133//133 203//203 134//134
f 132//132 203//203 133//133
f 131//131 203//203 132//132
f 130//130 202//202 203//203
f 130//130 203//203 131//131
f 129//129 202//202 130//130
f 128//128 202//202 129//129
f 127//127 202//202 128//128
f 126//126 202//202 127//127
f 125//125 202//202 126//126
f 124//124 202//202 125//125
f 122//122 204//204 202//202
f 122//122 202//202 124//124
f 29//29 205//205 28//28
f 31//31 27//27 202//202
f 23//23 202//202 27//27
f 24//24 202//202 23//23
f 26//26 22//22 202//202
f 17//17 202//202 22//22
f 18//18 202//202 17//17
f 20//20 21//21 220//220
f 200//200 16//16 221//221
f 12//12 221//221 16//16
f 15//15 11//11 202//202
f 221//221 12//12 13//13
f 7//7 202//202 11//11
f 10//10 6//6 202//202
f 202//202 7//7 8//8
f 50//50 203//203 49//49
f 204//204 122//122 123//123
f 203//203 48//48 204//204
f 44//44 204//204 48//48
f 5//5 201//201 202//202
f 5//5 202//202 6//6
f 48//48 203//203 201//201
f 48//48 201//201 5//5
f 119//119 203//203 120//120
f 118//118 201//201 203//203
f 118//118 203//203 119//119
f 201//201 118//118 113//113
f 117//117 108//108 201//201
f 112//112 104//104 201//201
f 201//201 111//111 112//112
f 109//109 110//110 201//201
f 111//111 201//201 110//110
f 201//201 108//108 109//109
f 201//201 106//106 107//107
f 103//103 201//201 107//107
f 105//105 201//201 104//104
f 98//98 201//201 103//103
f 102//102 84//84 201//201
f 84//84 85//85 201//201
f 92//92 201//201 91//91
f 91//91 201//201 90//90
f 87//87 88//88 201//201
f 88//88 89//89 201//201
f 89//89 90//90 201//201
f 95//95 201//201 94//94
f 93//93 201//201 92//92
f 201//201 93//93 94//94
f 97//97 81//81 201//201
f 82//82 201//201 81//81
f 76//76 201//201 80//80
f 79//79 71//71 201//201
f 201//201 77//77 78//78
f 77//77 201//201 76//76
f 75//75 65//65 201//201
f 74//74 75//75 201//201
f 74//74 201//201 73//73
f 201//201 72//72 73//73
f 72//72 201//201 71//71
f 193//193 185//185 204//204
f 189//189 181//181 204//204
f 187//187 188//188 204//204
f 204//204 188//188 189//189
f 187//187 204//204 186//186
f 186//186 204//204 185//185
f 183//183 184//184 204//204
f 180//180 204//204 184//184
f 182//182 204//204 181//181
f 177//177 204//204 180//180
f 179//179 163//163 233//233
f 233//233 163//163 164//164
f 168//168 204//204 167//167
f 170//170 204//204 169//169
f 204//204 168//168 169//169
f 204//204 166//166 167//167
f 204//204 170//170 171//171
f 171//171 172//172 204//204
f 204//204 172//172 173//173
f 174//174 204//204 173//173
f 176//176 159//159 204//204
f 204//204 159//159 160//160
f 154//154 204//204 158//158
f 157//157 149//149 204//204
f 156//156 204//204 155//155
f 154//154 155//155 204//204
f 153//153 143//143 204//204
f 204//204 152//152 153//153
f 204//204 150//150 151//151
f 152//152 204//204 151//151
f 150//150 204//204 149//149
f 204//204 143//143 144//144
f 141//141 203//203 204//204
f 141//141 204//204 142//142
f 140//140 203//203 141//141
f 139//139 203//203 140//140
f 47//47 43//43 204//204
f 204//204 44//44 45//45
f 39//39 204//204 43//43
f 42//42 38//38 238//238
f 204//204 39//39 40//40
f 33//33 238//238 38//38
f 34//34 238//238 33//33
f 195//195 249//249 194//194
f 205//205 197//197 32//32
f 28//28 205//205 32//32
f 295//295 294//294 293//293
f 291//291 295//295 292//292
f 292//292 295//295 293//293
f 373//373 291//291 292//292
f 373//373 292//292 374//374
f 375//375 287//287 291//291
f 375//375 291//291 373//373
f 377//377 379//379 376//376
f 375//375 376//376 379//379
f 440//440 439//439 419//419
f 419//419 441//441 440//440
f 441//441 418//418 442//442
f 400//400 443//443 401//401
f 401//401 374//374 395//395
f 446//446 445//445 422//422
f 445//445 444//444 422//422
f 423//423 444//444 443//443
f 439//439 438//438 420//420
f 435//435 434//434 436//436
f 419//419 418//418 441//441
f 417//417 434//434 442//442
f 433//433 436//436 434//434
f 436//436 433//433 437//437
f 421//421 438//438 446//446
f 442//442 418//418 417//417
f 419//419 439//439 420//420
f 395//395 374//374 292//292
f 287//287 379//379 380//380
f 375//375 379//379 287//287
f 287//287 380//380 286//286
f 449//449 448//448 380//380
f 448//448 281//281 380//380
f 281//281 448//448 447//447
f 288//288 287//287 289//289
f 377//377 378//378 379//379
f 286//286 290//290 289//289
f 286//286 380//380 281//281
f 285//285 283//283 281//281
f 383//383 304//304 275//275
f 283//283 282//282 281//281
f 281//281 447//447 285//285
f 289//289 287//287 286//286
f 283//283 285//285 284//284
f 280//280 380//380 381//381
f 381//381 276//276 280//280
f 279//279 381//381 382//382
f 276//276 381//381 277//277
f 277//277 381//381 278//278
f 450//450 449//449 380//380
f 381//381 279//279 278//278
f 275//275 382//382 383//383
f 279//279 382//382 275//275
f 380//380 280//280 450//450
f 443//443 400//400 423//423
f 446//446 422//422 421//421
f 396//396 426//426 425//425
f 397//397 425//425 424//424
f 399//399 424//424 423//423
f 416//416 434//434 417//417
f 404//404 428//428 427//427
f 402//402 429//429 403//403
f 403//403 429//429 428//428
f 402//402 412//412 429//429
f 420//420 438//438 421//421
f 406//406 427//427 426//426
f 423//423 400//400 399//399
f 394//394 395//395 296//296
f 292//292 296//296 395//395
f 393//393 394//394 296//296
f 424//424 398//398 397//397
f 396//396 425//425 397//397
f 406//406 426//426 396//396
f 406//406 405//405 427//427
f 427//427 405//405 404//404
f 428//428 404//404 403//403
f 398//398 424//424 399//399
f 423//423 422//422 444//444
f 415//415 414//414 413//413
f 431//431 430//430 432//432
f 430//430 416//416 432//432
f 407//407 411//411 412//412
f 412//412 402//402 407//407
f 411//411 415//415 412//412
f 430//430 433//433 416//416
f 408//408 407//407 410//410
f 402//402 410//410 407//407
f 409//409 408//408 410//410
f 392//392 393//393 389//389
f 390//390 391//391 392//392
f 384//384 385//385 386//386
f 392//392 389//389 390//390
f 299//299 301//301 386//386
f 299//299 386//386 388//388
f 388//388 386//386 387//387
f 296//296 388//388 389//389
f 386//386 303//303 384//384
f 296//296 389//389 393//393
f 413//413 412//412 415//415
f 416//416 433//433 434//434
f 253//253 299//299 388//388
f 253//253 388//388 296//296
f 383//383 384//384 303//303
f 383//383 303//303 304//304
f 262//262 261//261 260//260
f 260//260 264//264 307//307
f 454//454 453//453 264//264
f 264//264 453//453 451//451
f 263//263 262//262 260//260
f 260//260 307//307 259//259
f 308//308 259//259 307//307
f 264//264 451//451 269//269
f 452//452 451//451 453//453
f 268//268 307//307 264//264
f 310//310 308//308 309//309
f 308//308 312//312 259//259
f 259//259 263//263 260//260
f 264//264 269//269 268//268
f 271//271 304//304 305//305
f 304//304 271//271 275//275
f 272//272 271//271 305//305
f 272//272 306//306 273//273
f 266//266 307//307 267//267
f 265//265 307//307 266//266
f 306//306 270//270 274//274
f 306//306 272//272 305//305
f 306//306 265//265 270//270
f 274//274 273//273 306//306
f 306//306 307//307 265//265
f 268//268 267//267 307//307
f 310//310 311//311 308//308
f 312//312 308//308 311//311
f 323//323 322//322 347//347
f 323//323 346//346 324//324
f 256//256 255//255 254//254
f 257//257 256//256 258//258
f 255//255 313//313 254//254
f 254//254 258//258 256//256
f 254//254 313//313 314//314
f 313//313 255//255 259//259
f 313//313 259//259 312//312
f 325//325 324//324 346//346
f 328//328 327//327 326//326
f 328//328 326//326 329//329
f 321//321 329//329 326//326
f 322//322 321//321 348//348
f 322//322 348//348 347//347
f 323//323 347//347 346//346
f 365//365 320//320 319//319
f 315//315 325//325 345//345
f 317//317 316//316 343//343
f 316//316 315//315 344//344
f 318//318 342//342 319//319
f 325//325 346//346 345//345
f 318//318 317//317 343//343
f 314//314 364//364 254//254
f 330//330 333//333 331//331
f 358//358 357//357 356//356
f 358//358 356//356 354//354
f 354//354 355//355 335//335
f 330//330 334//334 333//333
f 331//331 333//333 332//332
f 335//335 351//351 350//350
f 349//349 335//335 350//350
f 331//331 326//326 330//330
f 354//354 335//335 349//349
f 301//301 302//302 303//303
f 386//386 301//301 303//303
f 301//301 299//299 300//300
f 354//354 356//356 355//355
f 298//298 297//297 371//371
f 371//371 372//372 298//298
f 297//297 370//370 371//371
f 253//253 370//370 297//297
f 253//253 297//297 299//299
f 353//353 352//352 351//351
f 321//321 326//326 331//331
f 363//363 337//337 336//336
f 355//355 363//363 336//336
f 335//335 355//355 336//336
f 315//315 345//345 344//344
f 316//316 344//344 343//343
f 359//359 340//340 339//339
f 366//366 342//342 341//341
f 368//368 341//341 340//340
f 343//343 342//342 318//318
f 339//339 360//360 359//359
f 359//359 368//368 340//340
f 338//338 360//360 339//339
f 363//363 362//362 337//337
f 361//361 338//338 362//362
f 361//361 360//360 338//338
f 338//338 337//337 362//362
f 367//367 341//341 368//368
f 342//342 366//366 365//365
f 314//314 320//320 364//364
f 370//370 253//253 369//369
f 364//364 369//369 253//253
f 253//253 254//254 364//364
f 342//342 365//365 319//319
f 367//367 366//366 341//341
f 353//353 351//351 335//335
f 331//331 348//348 321//321
f 455//455 315//315 316//316
f 455//455 313//313 456//456
f 313//313 455//455 314//314
f 312//312 456//456 313//313
f 311//311 456//456 312//312
f 309//309 456//456 310//310
f 308//308 456//456 309//309
f 307//307 456//456 308//308
f 306//306 456//456 307//307
f 305//305 456//456 306//306
f 304//304 456//456 305//305
f 303//303 457//457 456//456
f 303//303 456//456 304//304
f 302//302 457//457 303//303
f 301//301 457//457 302//302
f 300//300 457//457 301//301
f 299//299 457//457 300//300
f 297//297 457//457 299//299
f 389//389 457//457 390//390
f 388//388 457//457 389//389
f 387//387 457//457 388//388
f 386//386 457//457 387//387
f 385//385 457//457 386//386
f 384//384 457//457 385//385
f 383//383 456//456 457//457
f 383//383 457//457 384//384
f 382//382 456//456 383//383
f 381//381 456//456 382//382
f 380//380 456//456 381//381
f 379//379 456//456 380//380
f 378//378 456//456 379//379
f 377//377 456//456 378//378
f 375//375 456//456 376//376
f 373//373 458//458 456//456
f 373//373 456//456 375//375
f 277//277 459//459 276//276
f 279//279 275//275 456//456
f 271//271 456//456 275//275
f 272//272 456//456 271//271
f 274//274 270//270 456//456
f 265//265 456//456 270//270
f 266//266 456//456 265//265
f 268//268 269//269 474//474
f 454//454 264//264 475//475
f 260//260 475//475 264//264
f 263//263 259//259 456//456
f 475//475 260//260 261//261
f 255//255 456//456 259//259
f 258//258 254//254 456//456
f 456//456 255//255 256//256
f 298//298 457//457 297//297
f 458//458 373//373 374//374
f 457//457 296//296 458//458
f 292//292 458//458 296//296
f 253//253 455//455 456//456
f 253//253 456//456 254//254
f 296//296 457//457 455//455
f 296//296 455//455 253//253
f 370//370 457//457 371//371
f 369//369 455//455 457//457
f 369//369 457//457 370//370
f 455//455 369//369 364//364
f 368//368 359//359 455//455
f 363//363 355//355 455//455
f 455//455 362//362 363//363
f 360//360 361//361 455//455
f 362//362 455//455 361//361
f 455//455 359//359 360//360
f 455//455 357//357 358//358
f 354//354 455//455 358//358
f 356//356 455//455 355//355
f 349//349 455//455 354//354
f 353//353 335//335 455//455
f 335//335 336//336 455//455
f 343//343 455//455 342//342
f 342//342 455//455 341//341
f 338//338 339//339 455//455
f 339//339 340//340 455//455
f 340//340 341//341 455//455
f 346//346 455//455 345//345
f 344//344 455//455 343//343
f 455//455 344//344 345//345
f 348//348 331//331 455//455
f 332//332 455//455 331//331
f 326//326 455//455 330//330
f 329//329 321//321 455//455
f 455//455 327//327 328//328
f 327//327 455//455 326//326
f 325//325 315//315 455//455
f 324//324 325//325 455//455
f 324//324 455//455 323//323
f 455//455 322//322 323//323
f 322//322 455//455 321//321
f 446//446 438//438 458//458
f 442//442 434//434 458//458
f 440//440 441//441 458//458
f 458//458 441//441 442//442
f 440//440 458//458 439//439
f 439//439 458//458 438//438
f 436//436 437//437 458//458
f 433//433 458//458 437//437
f 435//435 458//458 434//434
f 430//430 458//458 433//433
f 432//432 416//416 487//487
f 487//487 416//416 417//417
f 421//421 458//458 420//420
f 423//423 458//458 422//422
f 458//458 421//421 422//422
f 458//458 419//419 420//420
f 458//458 423//423 424//424
f 424//424 425//425 458//458
f 458//458 425//425 426//426
f 427//427 458//458 426//426
f 429//429 412//412 458//458
f 458//458 412//412 413//413
f 407//407 458//458 411//411
f 410//410 402//402 458//458
f 409//409 458//458 408//408
f 407//407 408//408 458//458
f 406//406 396//396 458//458
f 458//458 405//405 406//406
f 458//458 403//403 404//404
f 405//405 458//458 404//404
f 403//403 458//458 402//402
f 458//458 396//396 397//397
f 394//394 457//457 458//458
f 394//394 458//458 395//395
f 393//393 457//457 394//394
f 392//392 457//457 393//393
f 295//295 291//291 458//458
f 458//458 292//292 293//293
f 287//287 458//458 291//291
f 290//290 286//286 492//492
f 458//458 287//287 288//288
f 281//281 492//492 286//286
f 282//282 492//492 281//281
f 448//448 502//502 447//447
f 459//459 450//450 280//280
f 276//276 459//459 280//280
f 510//510 509//509 506//506
f 518//518 506//506 509//509
f 353//353 519//519 335//335
f 517//517 349//349 354//354
f 158//158 514//514 154//154
f 363//363 517//517 355//355
f 149//149 521//521 150//150
f 515//515 360//360 359//359
f 360//360 515//515 361//361
f 153//153 520//520 143//143
f 152//152 515//515 153//153
f 354//354 358//358 517//517
f 517//517 358//358 357//357
f 355//355 517//517 356//356
f 156//156 155//155 523//523
f 154//154 522//522 155//155
f 157//157 521//521 149//149
f 513//513 315//315 325//325
f 324//324 513//513 325//325
f 185//185 513//513 186//186
f 186//186 513//513 187//187
f 322//322 321//321 516//516
f 189//189 525//525 181//181
f 525//525 182//182 181//181
f 180//180 184//184 527//527
f 526//526 184//184 183//183
f 180//180 513//513 177//177
f 78//78 77//77 529//529
f 76//76 528//528 77//77
f 530//530 71//71 79//79
f 511//511 437//437 436//436
f 437//437 511//511 433//433
f 434//434 511//511 435//435
f 80//80 512//512 76//76
f 511//511 430//430 433//433
f 432//432 531//531 416//416
f 410//410 508//508 402//402
f 407//407 508//508 408//408
f 408//408 508//508 409//409
f 105//105 104//104 508//508
f 103//103 107//107 534//534
f 533//533 107//107 106//106
f 417//417 416//416 531//531
f 81//81 97//97 535//535
f 412//412 429//429 539//539
f 85//85 84//84 538//538
f 508//508 407//407 411//411
f 103//103 508//508 98//98
f 412//412 539//539 413//413
f 507//507 382//382 383//383
f 393//393 394//394 510//510
f 118//118 119//119 507//507
f 394//394 118//118 507//507
f 507//507 383//383 384//384
f 507//507 384//384 510//510
f 510//510 384//384 385//385
f 510//510 385//385 386//386
f 510//510 386//386 387//387
f 53//53 507//507 52//52
f 510//510 387//387 388//388
f 52//52 507//507 51//51
f 510//510 392//392 393//393
f 120//120 507//507 119//119
f 510//510 388//388 389//389
f 51//51 507//507 49//49
f 510//510 389//389 390//390
f 49//49 507//507 50//50
f 510//510 370//370 371//371
f 140//140 506//506 139//139
f 510//510 298//298 297//297
f 137//137 506//506 136//136
f 510//510 297//297 299//299
f 136//136 506//506 135//135
f 510//510 299//299 300//300
f 135//135 506//506 134//134
f 510//510 300//300 301//301
f 134//134 506//506 133//133
f 510//510 301//301 302//302
f 133//133 506//506 507//507
f 133//133 507//507 132//132
f 510//510 302//302 303//303
f 132//132 507//507 131//131
f 510//510 303//303 304//304
f 510//510 304//304 507//507
f 131//131 507//507 130//130
f 305//305 306//306 507//507
f 129//129 507//507 128//128
f 507//507 304//304 305//305
f 130//130 507//507 129//129
f 518//518 509//509 507//507
f 395//395 394//394 296//296
f 393//393 296//296 394//394
f 292//292 395//395 296//296
f 423//423 399//399 400//400
f 400//400 401//401 443//443
f 374//374 401//401 395//395
f 406//406 396//396 426//426
f 406//406 427//427 405//405
f 424//424 397//397 398//398
f 425//425 396//396 397//397
f 427//427 404//404 405//405
f 404//404 428//428 403//403
f 424//424 398//398 399//399
f 397//397 424//424 425//425
f 396//396 425//425 426//426
f 446//446 421//421 422//422
f 443//443 423//423 400//400
f 399//399 423//423 424//424
f 404//404 427//427 428//428
f 403//403 428//428 429//429
f 416//416 417//417 434//434
f 431//431 432//432 416//416
f 402//402 429//429 412//412
f 427//427 406//406 426//426
f 403//403 429//429 402//402
f 423//423 444//444 422//422
f 391//391 390//390 392//392
f 408//408 410//410 402//402
f 389//389 393//393 392//392
f 402//402 412//412 407//407
f 296//296 393//393 389//389
f 392//392 390//390 389//389
f 385//385 384//384 386//386
f 303//303 386//386 384//384
f 386//386 388//388 387//387
f 388//388 386//386 301//301
f 388//388 301//301 299//299
f 389//389 388//388 296//296
f 412//412 413//413 414//414
f 430//430 431//431 416//416
f 407//407 408//408 402//402
f 411//411 412//412 415//415
f 415//415 412//412 414//414
f 430//430 416//416 433//433
f 407//407 412//412 411//411
f 410//410 408//408 409//409
f 296//296 388//388 299//299
f 296//296 299//299 253//253
f 433//433 416//416 434//434
f 445//445 422//422 444//444
f 446//446 422//422 445//445
f 446//446 438//438 421//421
f 423//423 443//443 444//444
f 434//434 437//437 433//433
f 417//417 442//442 434//434
f 439//439 419//419 420//420
f 418//418 419//419 441//441
f 437//437 434//434 435//435
f 437//437 435//435 436//436
f 438//438 439//439 420//420
f 420//420 421//421 438//438
f 418//418 442//442 417//417
f 295//295 292//292 293//293
f 374//374 292//292 373//373
f 373//373 292//292 291//291
f 294//294 295//295 293//293
f 291//291 292//292 295//295
f 291//291 375//375 373//373
f 418//418 441//441 442//442
f 439//439 440//440 419//419
f 441//441 419//419 440//440
f 379//379 376//376 375//375
f 374//374 395//395 292//292
f 287//287 375//375 291//291
f 278//278 381//381 277//277
f 382//382 381//381 279//279
f 276//276 277//277 381//381
f 381//381 280//280 276//276
f 280//280 380//380 450//450
f 381//381 380//380 280//280
f 279//279 275//275 382//382
f 383//383 382//382 275//275
f 281//281 447//447 448//448
f 449//449 380//380 448//448
f 275//275 271//271 383//383
f 381//381 278//278 279//279
f 450//450 380//380 449//449
f 447//447 281//281 285//285
f 379//379 378//378 377//377
f 287//287 380//380 379//379
f 287//287 288//288 286//286
f 380//380 287//287 286//286
f 375//375 287//287 379//379
f 380//380 281//281 448//448
f 376//376 379//379 377//377
f 281//281 283//283 285//285
f 282//282 283//283 281//281
f 286//286 289//289 290//290
f 286//286 288//288 289//289
f 380//380 286//286 281//281
f 285//285 283//283 284//284
f 383//383 304//304 384//384
f 299//299 301//301 300//300
f 303//303 302//302 301//301
f 386//386 303//303 301//301
f 371//371 370//370 297//297
f 253//253 297//297 370//370
f 354//354 335//335 355//355
f 371//371 298//298 372//372
f 358//358 355//355 356//356
f 297//297 298//298 371//371
f 297//297 253//253 299//299
f 357//357 358//358 356//356
f 335//335 354//354 349//349
f 330//330 326//326 331//331
f 358//358 354//354 355//355
f 353//353 335//335 352//352
f 335//335 350//350 351//351
f 352//352 335//335 351//351
f 331//331 334//334 330//330
f 350//350 335//335 349//349
f 334//334 331//331 333//333
f 362//362 338//338 361//361
f 361//361 338//338 360//360
f 359//359 360//360 339//339
f 363//363 337//337 362//362
f 368//368 359//359 340//340
f 253//253 369//369 364//364
f 370//370 369//369 253//253
f 254//254 253//253 364//364
f 341//341 366//366 367//367
f 365//365 342//342 319//319
f 342//342 365//365 366//366
f 320//320 314//314 364//364
f 341//341 367//367 368//368
f 336//336 355//355 335//335
f 363//363 336//336 337//337
f 321//321 331//331 326//326
f 333//333 331//331 332//332
f 360//360 338//338 339//339
f 359//359 339//339 340//340
f 342//342 343//343 318//318
f 342//342 366//366 341//341
f 316//316 343//343 344//344
f 341//341 368//368 340//340
f 338//338 362//362 337//337
f 319//319 320//320 365//365
f 336//336 363//363 355//355
f 348//348 331//331 321//321
f 272//272 305//305 271//271
f 304//304 271//271 305//305
f 266//266 267//267 307//307
f 273//273 306//306 272//272
f 305//305 272//272 306//306
f 274//274 306//306 273//273
f 306//306 270//270 265//265
f 270//270 306//306 274//274
f 265//265 307//307 306//306
f 265//265 266//266 307//307
f 453//453 454//454 264//264
f 307//307 264//264 260//260
f 262//262 259//259 261//261
f 261//261 259//259 260//260
f 453//453 264//264 452//452
f 264//264 268//268 269//269
f 269//269 451//451 264//264
f 268//268 307//307 267//267
f 264//264 307//307 268//268
f 259//259 262//262 263//263
f 259//259 308//308 307//307
f 260//260 259//259 307//307
f 312//312 308//308 259//259
f 308//308 310//310 309//309
f 264//264 451//451 452//452
f 304//304 383//383 271//271
f 321//321 326//326 327//327
f 348//348 322//322 347//347
f 322//322 348//348 321//321
f 328//328 329//329 327//327
f 321//321 327//327 329//329
f 346//346 347//347 323//323
f 344//344 315//315 316//316
f 316//316 317//317 343//343
f 345//345 315//315 344//344
f 319//319 342//342 318//318
f 345//345 325//325 315//315
f 317//317 318//318 343//343
f 325//325 345//345 346//346
f 323//323 347//347 322//322
f 324//324 325//325 346//346
f 323//323 324//324 346//346
f 308//308 312//312 311//311
f 310//310 308//308 311//311
f 254//254 314//314 313//313
f 364//364 314//314 254//254
f 255//255 254//254 313//313
f 257//257 255//255 256//256
f 255//255 257//257 258//258
f 258//258 254//254 255//255
f 312//312 255//255 313//313
f 259//259 255//255 312//312
f 384//384 304//304 303//303
f 329//329 516//516 321//321
f 326//326 516//516 327//327
f 327//327 516//516 328//328
f 516//516 326//326 330//330
f 331//331 542//542 332//332
f 336//336 335//335 519//519
f 159//159 176//176 544//544
f 542//542 331//331 348//348
f 164//164 163//163 546//546
f 369//369 549//549 364//364
f 369//369 141//141 549//549
f 549//549 141//141 142//142
f 369//369 506//506 141//141
f 510//510 506//506 370//370
f 369//369 370//370 506//506
f 506//506 140//140 141//141
f 118//118 394//394 550//550
f 395//395 550//550 394//394
f 118//118 550//550 113//113
f 508//508 396//396 406//406
f 405//405 508//508 406//406
f 404//404 508//508 405//405
f 109//109 108//108 508//508
f 110//110 109//109 508//508
f 508//508 404//404 403//403
f 403//403 402//402 508//508
f 508//508 112//112 111//111
f 508//508 111//111 110//110
f 112//112 508//508 104//104
f 442//442 511//511 434//434
f 71//71 530//530 72//72
f 512//512 439//439 438//438
f 439//439 512//512 440//440
f 512//512 75//75 74//74
f 75//75 512//512 65//65
f 551//551 271//271 275//275
f 27//27 551//551 23//23
f 552//552 276//276 280//280
f 22//22 552//552 17//17
f 553//553 281//281 286//286
f 16//16 553//553 12//12
f 554//554 287//287 291//291
f 11//11 554//554 7//7
f 8//8 9//9 10//10
f 7//7 8//8 6//6
f 6//6 8//8 10//10
f 63//63 7//7 6//6
f 63//63 6//6 64//64
f 556//556 11//11 7//7
f 556//556 7//7 63//63
f 74//74 75//75 95//95
f 73//73 74//74 95//95
f 72//72 73//73 96//96
f 66//66 67//67 92//92
f 67//67 68//68 92//92
f 91//91 68//68 69//69
f 75//75 65//65 94//94
f 71//71 76//76 79//79
f 95//95 96//96 73//73
f 97//97 71//71 72//72
f 76//76 78//78 79//79
f 76//76 77//77 78//78
f 93//93 65//65 66//66
f 72//72 96//96 97//97
f 95//95 75//75 94//94
f 113//113 64//64 6//6
f 11//11 60//60 59//59
f 556//556 60//60 11//11
f 11//11 59//59 12//12
f 19//19 20//20 59//59
f 20//20 16//16 59//59
f 16//16 20//20 21//21
f 15//15 11//11 12//12
f 556//556 61//61 60//60
f 12//12 13//13 14//14
f 12//12 59//59 16//16
f 199//199 200//200 198//198
f 56//56 130//130 23//23
f 200//200 16//16 198//198
f 16//16 21//21 198//198
f 14//14 15//15 12//12
f 17//17 59//59 58//58
f 58//58 22//22 17//17
f 24//24 58//58 57//57
f 22//22 58//58 26//26
f 26//26 58//58 25//25
f 18//18 19//19 59//59
f 58//58 24//24 25//25
f 23//23 57//57 56//56
f 24//24 57//57 23//23
f 59//59 17//17 18//18
f 66//66 92//92 93//93
f 65//65 93//93 94//94
f 117//117 89//89 90//90
f 115//115 90//90 91//91
f 69//69 114//114 91//91
f 81//81 71//71 97//97
f 84//84 85//85 104//104
f 109//109 87//87 88//88
f 112//112 85//85 86//86
f 111//111 86//86 87//87
f 112//112 104//104 85//85
f 108//108 88//88 89//89
f 114//114 69//69 70//70
f 91//91 114//114 115//115
f 118//118 113//113 5//5
f 6//6 5//5 113//113
f 119//119 118//118 5//5
f 64//64 113//113 70//70
f 90//90 116//116 117//117
f 108//108 89//89 117//117
f 109//109 88//88 108//108
f 87//87 110//110 111//111
f 87//87 109//109 110//110
f 112//112 86//86 111//111
f 116//116 90//90 115//115
f 91//91 92//92 68//68
f 80//80 82//82 83//83
f 84//84 99//99 101//101
f 100//100 101//101 99//99
f 80//80 81//81 82//82
f 103//103 98//98 84//84
f 84//84 104//104 103//103
f 98//98 99//99 84//84
f 80//80 76//76 81//81
f 107//107 103//103 106//106
f 104//104 105//105 103//103
f 106//106 103//103 105//105
f 120//120 119//119 49//49
f 50//50 121//121 120//120
f 55//55 54//54 53//53
f 120//120 49//49 50//50
f 135//135 133//133 53//53
f 135//135 53//53 51//51
f 51//51 53//53 52//52
f 5//5 51//51 49//49
f 53//53 131//131 55//55
f 5//5 49//49 119//119
f 102//102 84//84 101//101
f 81//81 76//76 71//71
f 48//48 135//135 51//51
f 48//48 51//51 5//5
f 56//56 55//55 131//131
f 56//56 131//131 130//130
f 42//42 38//38 39//39
f 38//38 33//33 127//127
f 34//34 35//35 33//33
f 33//33 35//35 37//37
f 41//41 42//42 39//39
f 38//38 127//127 39//39
f 126//126 39//39 127//127
f 33//33 37//37 194//194
f 36//36 37//37 35//35
f 195//195 127//127 33//33
f 555//555 126//126 125//125
f 126//126 555//555 39//39
f 39//39 40//40 41//41
f 33//33 194//194 195//195
f 196//196 127//127 195//195
f 27//27 130//130 129//129
f 130//130 27//27 23//23
f 31//31 27//27 129//129
f 32//32 127//127 197//197
f 128//128 32//32 28//28
f 128//128 29//29 30//30
f 128//128 31//31 129//129
f 128//128 28//28 29//29
f 30//30 31//31 128//128
f 128//128 127//127 32//32
f 196//196 197//197 127//127
f 189//189 165//165 188//188
f 188//188 166//166 187//187
f 46//46 47//47 43//43
f 44//44 46//46 43//43
f 43//43 122//122 44//44
f 44//44 45//45 46//46
f 44//44 122//122 123//123
f 122//122 43//43 39//39
f 122//122 39//39 555//555
f 187//187 166//166 186//186
f 183//183 184//184 180//180
f 183//183 180//180 182//182
f 181//181 182//182 180//180
f 189//189 181//181 164//164
f 189//189 164//164 165//165
f 188//188 165//165 166//166
f 185//185 186//186 167//167
f 192//192 193//193 169//169
f 193//193 185//185 168//168
f 191//191 170//170 190//190
f 186//186 166//166 167//167
f 191//191 192//192 169//169
f 123//123 142//142 44//44
f 177//177 178//178 179//179
f 154//154 155//155 156//156
f 156//156 157//157 154//154
f 154//154 149//149 159//159
f 161//161 162//162 159//159
f 159//159 162//162 158//158
f 163//163 180//180 177//177
f 159//159 158//158 154//154
f 133//133 132//132 131//131
f 53//53 133//133 131//131
f 133//133 135//135 134//134
f 154//154 157//157 149//149
f 137//137 136//136 139//139
f 139//139 138//138 137//137
f 136//136 140//140 139//139
f 48//48 140//140 136//136
f 48//48 136//136 135//135
f 161//161 159//159 160//160
f 177//177 179//179 163//163
f 181//181 180//180 163//163
f 150//150 175//175 176//176
f 149//149 150//150 176//176
f 159//159 149//149 176//176
f 185//185 167//167 168//168
f 193//193 168//168 169//169
f 143//143 172//172 173//173
f 146//146 170//170 171//171
f 144//144 171//171 172//172
f 169//169 170//170 191//191
f 173//173 153//153 143//143
f 143//143 144//144 172//172
f 174//174 153//153 173//173
f 150//150 151//151 175//175
f 174//174 151//151 152//152
f 174//174 152//152 153//153
f 174//174 175//175 151//151
f 145//145 171//171 144//144
f 170//170 146//146 147//147
f 123//123 148//148 142//142
f 140//140 48//48 141//141
f 142//142 141//141 48//48
f 48//48 44//44 142//142
f 170//170 147//147 190//190
f 145//145 146//146 171//171
f 147//147 148//148 190//190
f 163//163 164//164 181//181
f 373//373 557//557 374//374
f 373//373 63//63 557//557
f 557//557 63//63 64//64
f 296//296 558//558 292//292
f 296//296 5//5 558//558
f 6//6 558//558 5//5
f 122//122 313//313 559//559
f 314//314 559//559 313//313
f 122//122 559//559 123//123
f 555//555 312//312 313//313
f 555//555 313//313 122//122
f 128//128 306//306 307//307
f 128//128 307//307 127//127
f 54//54 507//507 53//53
f 55//55 507//507 54//54
f 56//56 507//507 55//55
f 57//57 507//507 56//56
f 382//382 507//507 381//381
f 57//57 58//58 507//507
f 59//59 380//380 381//381
f 59//59 381//381 58//58
f 63//63 373//373 375//375
f 63//63 375//375 556//556
f 560//560 265//265 270//270
f 32//32 560//560 28//28
f 561//561 260//260 264//264
f 38//38 561//561 33//33
f 562//562 255//255 259//259
f 43//43 562//562 39//39
f 563//563 253//253 254//254
f 48//48 253//253 563//563
f 48//48 563//563 44//44
f 296//296 253//253 506//506
f 296//296 506//506 518//518
f 296//296 507//507 5//5
f 48//48 5//5 507//507
f 48//48 507//507 506//506
f 48//48 506//506 253//253
f 569//569 570//570 568//568
f 567//567 570//570 566//566
f 565//565 566//566 571//571
f 570//570 564//564 571//571
f 564//564 565//565 571//571
f 566//566 573//573 572//572
f 566//566 572//572 571//571
f 566//566 574//574 573//573
f 566//566 575//575 574//574
f 566//566 576//576 575//575
f 570//570 577//577 576//576
f 570//570 576//576 566//566
f 567//567 576//576 578//578
f 567//567 578//578 570//570
f 568//568 565//565 576//576
f 568//568 576//576 567//567
f 566//566 565//565 567//567
f 565//565 578//578 579//579
f 579//579 578//578 577//577
f 579//579 577//577 580//580
f 580//580 572//572 573//573
f 576//576 565//565 575//575
f 565//565 574//574 575//575
f 565//565 573//573 574//574
f 578//578 576//576 577//577
f 569//569 565//565 579//579
f 579//579 570//570 569//569
f 564//564 580//580 565//565
f 580//580 573//573 565//565
f 570//570 579//579 580//580
f 570//570 580//580 564//564
f 571//571 580//580 577//577
f 571//571 577//577 570//570
f 580//580 571//571 572//572
f 570//570 578//578 568//568
f 578//578 565//565 568//568
f 568//568 567//567 569//569
f 567//567 565//565 569//569
