# Created by Open3D 
# object name: InfoWheels_Interior_Driver_Forward_SEG_Panel_68x78in
# number of vertices: 8
# number of triangles: 12
v 75.2451 -69.1819 -17.593
vn -0.999973 -0.00482615 -0.00553588
v 75.2451 -69.1819 50.407
vn -0.999752 -0.0193003 0.0110693
v 75.998 -69.1819 -17.593
vn 0.999569 -0.0192968 -0.0221346
v 75.998 -69.1819 50.407
vn 0.999927 -0.00482593 0.0110713
v 75.998 8.8181 -17.593
vn 0.999973 0.00482615 -0.00553588
v 75.998 8.8181 50.407
vn 0.999752 0.0193003 0.0110693
v 75.2451 8.8181 -17.593
vn -0.999569 0.0192968 -0.0221346
v 75.2451 8.8181 50.407
vn -0.999927 0.00482593 0.0110713
f 2//2 1//1 3//3
f 2//2 3//3 4//4
f 4//4 3//3 5//5
f 4//4 5//5 6//6
f 6//6 5//5 7//7
f 6//6 7//7 8//8
f 8//8 7//7 1//1
f 8//8 1//1 2//2
f 3//3 1//1 7//7
f 3//3 7//7 5//5
f 8//8 2//2 4//4
f 8//8 4//4 6//6
