# Created by Open3D 
# object name: InfoWheels_Interior_Driver_SEG_Panel_68x156In
# number of vertices: 8
# number of triangles: 12
v 75.2451 -69.1868 -17.593
vn -0.999982 -0.0024131 -0.00553593
v 75.2451 -69.1868 50.407
vn -0.999892 -0.00965152 0.0110709
v 75.998 -69.1868 -17.593
vn 0.999708 -0.00964975 -0.0221377
v 75.998 -69.1868 50.407
vn 0.999936 -0.00241299 0.0110713
v 75.998 86.8132 -17.593
vn 0.999982 0.0024131 -0.00553593
v 75.998 86.8132 50.407
vn 0.999892 0.00965152 0.0110709
v 75.2451 86.8132 -17.593
vn -0.999708 0.00964975 -0.0221377
v 75.2451 86.8132 50.407
vn -0.999936 0.00241299 0.0110713
f 2//2 1//1 3//3
f 2//2 3//3 4//4
f 4//4 3//3 5//5
f 4//4 5//5 6//6
f 6//6 5//5 7//7
f 6//6 7//7 8//8
f 8//8 7//7 1//1
f 8//8 1//1 2//2
f 3//3 1//1 7//7
f 3//3 7//7 5//5
f 8//8 2//2 4//4
f 8//8 4//4 6//6
