# Created by Open3D 
# object name: InfoWheels_Interior_Passenger_SEG_Panel_50x78in
# number of vertices: 8
# number of triangles: 12
v -2.22882 8.90274 1.25464
vn -0.99996 -0.00475693 -0.00759969
v -2.22882 8.90274 50.4672
vn -0.999704 -0.0190229 0.0151955
v -1.48079 8.90274 1.25464
vn 0.999357 -0.0190163 -0.0303804
v -1.48079 8.90274 50.4672
vn 0.999873 -0.00475652 0.0151981
v -1.48079 87.5248 1.25464
vn 0.99996 0.00475693 -0.00759969
v -1.48079 87.5248 50.4672
vn 0.999704 0.0190229 0.0151955
v -2.22882 87.5248 1.25464
vn -0.999357 0.0190163 -0.0303804
v -2.22882 87.5248 50.4672
vn -0.999873 0.00475652 0.0151981
f 2//2 1//1 3//3
f 2//2 3//3 4//4
f 4//4 3//3 5//5
f 4//4 5//5 6//6
f 6//6 5//5 7//7
f 6//6 7//7 8//8
f 8//8 7//7 1//1
f 8//8 1//1 2//2
f 3//3 1//1 7//7
f 3//3 7//7 5//5
f 8//8 2//2 4//4
f 8//8 4//4 6//6
