# Rhino

mtllib InfoWheels SEG Space Claim PS 79x50in.mtl
usemtl Default
v -2.22882 8.90274 1.25464
v -2.22882 8.90274 50.4672
v -1.48079 8.90274 1.25464
v -1.48079 8.90274 50.4672
v -1.48079 8.90274 1.25464
v -1.48079 8.90274 50.4672
v -1.48079 87.5248 1.25464
v -1.48079 87.5248 50.4672
v -1.48079 87.5248 1.25464
v -1.48079 87.5248 50.4672
v -2.22882 87.5248 1.25464
v -2.22882 87.5248 50.4672
v -2.22882 87.5248 1.25464
v -2.22882 87.5248 50.4672
v -2.22882 8.90274 1.25464
v -2.22882 8.90274 50.4672
v -2.22882 8.90274 1.25464
v -1.48079 8.90274 1.25464
v -2.22882 87.5248 1.25464
v -1.48079 87.5248 1.25464
v -2.22882 8.90274 50.4672
v -2.22882 87.5248 50.4672
v -1.48079 8.90274 50.4672
v -1.48079 87.5248 50.4672
vt 0.00760001 0
vt 0.00760001 0.5
vt 0.0137352 0
vt 0.0137352 0.5
vt 0.0304 0.5
vt 0.0304 0.998535
vt 0.827735 0.5
vt 0.827735 0.998535
vt 0 0
vt 0 0.5
vt 0.00613517 0
vt 0.00613517 0.5
vt 0.0304 0
vt 0.0304 0.498535
vt 0.827735 0
vt 0.827735 0.498535
vt 0.0289352 0
vt 0.0228 0
vt 0.0289352 0.7988
vt 0.0228 0.7988
vt 0.0152 0
vt 0.0152 0.7988
vt 0.0213352 0
vt 0.0213352 0.7988
vn 0 -1 0
vn 0 -1 0
vn 0 -1 0
vn 0 -1 0
vn 1 0 0
vn 1 0 0
vn 1 0 0
vn 1 0 0
vn 0 1 0
vn 0 1 0
vn 0 1 0
vn 0 1 0
vn -1 0 0
vn -1 0 0
vn -1 0 0
vn -1 0 0
vn 0 0 -1
vn 0 0 -1
vn 0 0 -1
vn 0 0 -1
vn 0 0 1
vn 0 0 1
vn 0 0 1
vn 0 0 1
f 2/2/2 1/1/1 3/3/3 4/4/4
f 6/6/6 5/5/5 7/7/7 8/8/8
f 10/10/10 9/9/9 11/11/11 12/12/12
f 14/14/14 13/13/13 15/15/15 16/16/16
f 18/18/18 17/17/17 19/19/19 20/20/20
f 22/22/22 21/21/21 23/23/23 24/24/24
