# Created by Open3D 
# object name: InfoWheels_Interior_Front_Wall_SEG_Panel_61x78in
# number of vertices: 8
# number of triangles: 12
v 7.32236 -80.4621 -30.7139
vn -0.0410107 -0.999028 -0.0161698
v 7.32236 -80.4621 47.1208
vn -0.0102618 -0.999915 0.0080921
v 68.7003 -80.4621 -30.7139
vn 0.0102608 -0.999816 -0.0161826
v 68.7003 -80.4621 47.1208
vn 0.0409946 -0.998636 0.032327
v 68.7003 -79.2023 -30.7139
vn 0.0410107 0.999028 -0.0161698
v 68.7003 -79.2023 47.1208
vn 0.0102618 0.999915 0.0080921
v 7.32236 -79.2023 -30.7139
vn -0.0102608 0.999816 -0.0161826
v 7.32236 -79.2023 47.1208
vn -0.0409946 0.998636 0.032327
f 2//2 1//1 3//3
f 2//2 3//3 4//4
f 4//4 3//3 5//5
f 4//4 5//5 6//6
f 6//6 5//5 7//7
f 6//6 7//7 8//8
f 8//8 7//7 1//1
f 8//8 1//1 2//2
f 3//3 1//1 7//7
f 3//3 7//7 5//5
f 8//8 2//2 4//4
f 8//8 4//4 6//6
