# Rhino

mtllib InfoWheels SEG Space Claim Ceiling PS 22.5X169In.mtl
usemtl Custom (2)
v 23.3735 -75.3689 52.1326
v 23.3735 -75.3689 52.1247
v 0.853854 -75.3689 52.1326
v 0.853854 -75.3689 52.1247
v 23.3735 93.3516 52.1326
v 23.3735 93.3516 52.1247
v 23.3735 -75.3689 52.1326
v 23.3735 -75.3689 52.1247
v 0.853854 93.3516 52.1326
v 0.853854 93.3516 52.1247
v 23.3735 93.3516 52.1326
v 23.3735 93.3516 52.1247
v 0.853854 -75.3689 52.1326
v 0.853854 -75.3689 52.1247
v 0.853854 93.3516 52.1326
v 0.853854 93.3516 52.1247
v 0.853854 -75.3689 52.1247
v 23.3735 -75.3689 52.1247
v 0.853854 93.3516 52.1247
v 23.3735 93.3516 52.1247
v 0.853854 -75.3689 52.1326
v 23.3735 -75.3689 52.1326
v 0.853854 93.3516 52.1326
v 23.3735 93.3516 52.1326
vt 9.33293E-05 0
vt 9.33293E-05 4.66646E-05
vt 0.133554 0
vt 0.133554 4.66646E-05
vt 4.66646E-05 0
vt 0 0
vt 4.66646E-05 0.998442
vt 0 0.998442
vt 9.33293E-05 0.000174748
vt 9.33293E-05 0.000221412
vt 0.133554 0.000174748
vt 0.133554 0.000221412
vt 9.33293E-05 0
vt 4.66646E-05 0
vt 9.33293E-05 0.998442
vt 4.66646E-05 0.998442
vt 9.33293E-05 0.500128
vt 9.33293E-05 0.633589
vt 0.998535 0.500128
vt 0.998535 0.633589
vt 9.33293E-05 0.000349496
vt 9.33293E-05 0.13381
vt 0.998535 0.000349496
vt 0.998535 0.13381
vn 0 -1 0
vn 0 -1 0
vn 0 -1 0
vn 0 -1 0
vn 1 0 0
vn 1 0 0
vn 1 0 0
vn 1 0 0
vn 0 1 0
vn 0 1 0
vn 0 1 0
vn 0 1 0
vn -1 0 0
vn -1 0 0
vn -1 0 0
vn -1 0 0
vn 0 0 -1
vn 0 0 -1
vn 0 0 -1
vn 0 0 -1
vn 0 0 1
vn 0 0 1
vn 0 0 1
vn 0 0 1
f 2/2/2 1/1/1 3/3/3 4/4/4
f 6/6/6 5/5/5 7/7/7 8/8/8
f 10/10/10 9/9/9 11/11/11 12/12/12
f 14/14/14 13/13/13 15/15/15 16/16/16
f 18/18/18 17/17/17 19/19/19 20/20/20
f 22/22/22 24/24/24 23/23/23 21/21/21
