# Rhino

mtllib InfoWheels SEG Space Claim Cab Wall 62x78in.mtl
usemtl Default
v 7.32236 -82.7574 -30.7139
v 7.32236 -82.7574 47.1208
v 68.7003 -82.7574 -30.7139
v 68.7003 -82.7574 47.1208
v 68.7003 -82.7574 -30.7139
v 68.7003 -82.7574 47.1208
v 68.7003 -79.2023 -30.7139
v 68.7003 -79.2023 47.1208
v 68.7003 -79.2023 -30.7139
v 68.7003 -79.2023 47.1208
v 7.32236 -79.2023 -30.7139
v 7.32236 -79.2023 47.1208
v 7.32236 -79.2023 -30.7139
v 7.32236 -79.2023 47.1208
v 7.32236 -82.7574 -30.7139
v 7.32236 -82.7574 47.1208
v 7.32236 -82.7574 -30.7139
v 68.7003 -82.7574 -30.7139
v 7.32236 -79.2023 -30.7139
v 68.7003 -79.2023 -30.7139
v 7.32236 -82.7574 47.1208
v 7.32236 -79.2023 47.1208
v 68.7003 -82.7574 47.1208
v 68.7003 -79.2023 47.1208
vt 0.748439 0.5
vt 0.115843 0.5
vt 0.748439 0.998535
vt 0.115843 0.998535
vt 0.0868826 0
vt 0.0868826 0.63406
vt 0.114379 0
vt 0.114379 0.63406
vt 0.748439 0
vt 0.115843 0
vt 0.748439 0.498535
vt 0.115843 0.498535
vt 0.0579217 0
vt 0.0579217 0.63406
vt 0.0854178 0
vt 0.0854178 0.63406
vt 0.0289609 0
vt 0.0289609 0.5
vt 0.0564569 0
vt 0.0564569 0.5
vt 0.027496 0
vt 0 0
vt 0.027496 0.5
vt 0 0.5
vn 0 -1 0
vn 0 -1 0
vn 0 -1 0
vn 0 -1 0
vn 1 0 0
vn 1 0 0
vn 1 0 0
vn 1 0 0
vn 0 1 0
vn 0 1 0
vn 0 1 0
vn 0 1 0
vn -1 0 0
vn -1 0 0
vn -1 0 0
vn -1 0 0
vn 0 0 -1
vn 0 0 -1
vn 0 0 -1
vn 0 0 -1
vn 0 0 1
vn 0 0 1
vn 0 0 1
vn 0 0 1
f 2/2/2 1/1/1 3/3/3 4/4/4
f 6/6/6 5/5/5 7/7/7 8/8/8
f 10/10/10 9/9/9 11/11/11 12/12/12
f 14/14/14 13/13/13 15/15/15 16/16/16
f 18/18/18 17/17/17 19/19/19 20/20/20
f 22/22/22 21/21/21 23/23/23 24/24/24
