# Rhino

mtllib InfoWheels SEG Space Claim DS 68X156In.mtl
usemtl Default
v 75.2451 -69.1843 -17.5871
v 75.2451 -69.1843 50.4129
v 75.998 -69.1843 -17.5871
v 75.998 -69.1843 50.4129
v 75.998 -69.1843 -17.5871
v 75.998 -69.1843 50.4129
v 75.998 86.8205 -17.5871
v 75.998 86.8205 50.4129
v 75.998 86.8205 -17.5871
v 75.998 86.8205 50.4129
v 75.2451 86.8205 -17.5871
v 75.2451 86.8205 50.4129
v 75.2451 86.8205 -17.5871
v 75.2451 86.8205 50.4129
v 75.2451 -69.1843 -17.5871
v 75.2451 -69.1843 50.4129
v 75.2451 -69.1843 -17.5871
v 75.998 -69.1843 -17.5871
v 75.2451 86.8205 -17.5871
v 75.998 86.8205 -17.5871
v 75.2451 -69.1843 50.4129
v 75.2451 86.8205 50.4129
v 75.998 -69.1843 50.4129
v 75.998 86.8205 50.4129
vt 0.441277 0.00542328
vt 0.00956038 0.00542328
vt 0.441277 0.0102035
vt 0.00956038 0.0102035
vt 0.00956038 0.500643
vt 0.00956038 0.93236
vt 0.998535 0.500643
vt 0.998535 0.93236
vt 0.441277 0
vt 0.00956038 0
vt 0.441277 0.00478019
vt 0.00956038 0.00478019
vt 0.00956038 0.0108466
vt 0.00956038 0.442563
vt 0.998535 0.0108466
vt 0.998535 0.442563
vt 0.00956038 0
vt 0.00478019 0
vt 0.00956038 0.988975
vt 0.00478019 0.988975
vt 0 0
vt 0 0.988975
vt 0.00478019 0
vt 0.00478019 0.988975
vn 0 -1 0
vn 0 -1 0
vn 0 -1 0
vn 0 -1 0
vn 1 0 0
vn 1 0 0
vn 1 0 0
vn 1 0 0
vn 0 1 0
vn 0 1 0
vn 0 1 0
vn 0 1 0
vn -1 0 0
vn -1 0 0
vn -1 0 0
vn -1 0 0
vn 0 0 -1
vn 0 0 -1
vn 0 0 -1
vn 0 0 -1
vn 0 0 1
vn 0 0 1
vn 0 0 1
vn 0 0 1
f 2/2/2 1/1/1 3/3/3 4/4/4
f 6/6/6 5/5/5 7/7/7 8/8/8
f 10/10/10 9/9/9 11/11/11 12/12/12
f 14/14/14 13/13/13 15/15/15 16/16/16
f 18/18/18 17/17/17 19/19/19 20/20/20
f 22/22/22 21/21/21 23/23/23 24/24/24
