# Created by Open3D 
# object name: InfoWheels_Interior_Driver_Forward_SEG_Panel_50x78in
# number of vertices: 8
# number of triangles: 12
v 75.2476 -69.1875 0.404572
vn -0.999961 -0.00479468 -0.0074797
v 75.2476 -69.1875 50.4046
vn -0.999704 -0.0191738 0.0149556
v 75.9956 -69.1875 0.404572
vn 0.999369 -0.0191674 -0.0299011
v 75.9956 -69.1875 50.4046
vn 0.999877 -0.00479428 0.0149581
v 75.9956 8.81255 0.404572
vn 0.999961 0.00479468 -0.0074797
v 75.9956 8.81255 50.4046
vn 0.999704 0.0191738 0.0149556
v 75.2476 8.81255 0.404572
vn -0.999369 0.0191674 -0.0299011
v 75.2476 8.81255 50.4046
vn -0.999877 0.00479428 0.0149581
f 2//2 1//1 3//3
f 2//2 3//3 4//4
f 4//4 3//3 5//5
f 4//4 5//5 6//6
f 6//6 5//5 7//7
f 6//6 7//7 8//8
f 8//8 7//7 1//1
f 8//8 1//1 2//2
f 3//3 1//1 7//7
f 3//3 7//7 5//5
f 8//8 2//2 4//4
f 8//8 4//4 6//6
