# Created by Open3D 
# object name: InfoWheels_Interior_Driver_SEG_Panel_50x156In
# number of vertices: 8
# number of triangles: 12
v 75.2451 -69.1868 0.41797
vn -0.999969 -0.00241307 -0.00752876
v 75.2451 -69.1868 50.418
vn -0.99984 -0.00965102 0.0150556
v 75.998 -69.1868 0.41797
vn 0.9995 -0.00964774 -0.0301009
v 75.998 -69.1868 50.418
vn 0.999884 -0.00241286 0.0150562
v 75.998 86.8132 0.41797
vn 0.999969 0.00241307 -0.00752876
v 75.998 86.8132 50.418
vn 0.99984 0.00965102 0.0150556
v 75.2451 86.8132 0.41797
vn -0.9995 0.00964774 -0.0301009
v 75.2451 86.8132 50.418
vn -0.999884 0.00241286 0.0150562
f 2//2 1//1 3//3
f 2//2 3//3 4//4
f 4//4 3//3 5//5
f 4//4 5//5 6//6
f 6//6 5//5 7//7
f 6//6 7//7 8//8
f 8//8 7//7 1//1
f 8//8 1//1 2//2
f 3//3 1//1 7//7
f 3//3 7//7 5//5
f 8//8 2//2 4//4
f 8//8 4//4 6//6
