# Created by Open3D 
# object name: InfoWheels_Interior_Driver_Rear_SEG_Panel_50x78in
# number of vertices: 8
# number of triangles: 12
v 75.2451 8.8181 0.407053
vn -0.99996 -0.00482609 -0.00752869
v 75.2451 8.8181 50.4071
vn -0.9997 -0.0192993 0.0150535
v 75.998 8.8181 0.407053
vn 0.999361 -0.0192928 -0.0300967
v 75.998 8.8181 50.4071
vn 0.999875 -0.00482568 0.0150561
v 75.998 86.8181 0.407053
vn 0.99996 0.00482609 -0.00752869
v 75.998 86.8181 50.4071
vn 0.9997 0.0192993 0.0150535
v 75.2451 86.8181 0.407053
vn -0.999361 0.0192928 -0.0300967
v 75.2451 86.8181 50.4071
vn -0.999875 0.00482568 0.0150561
f 2//2 1//1 3//3
f 2//2 3//3 4//4
f 4//4 3//3 5//5
f 4//4 5//5 6//6
f 6//6 5//5 7//7
f 6//6 7//7 8//8
f 8//8 7//7 1//1
f 8//8 1//1 2//2
f 3//3 1//1 7//7
f 3//3 7//7 5//5
f 8//8 2//2 4//4
f 8//8 4//4 6//6
