# Rhino

mtllib TV.mtl
usemtl Default
v 8.7251548767089844 -61.607036590576172 91.462150573730469
v 8.7251548767089844 -23.437746047973633 69.50152587890625
v 8.7251548767089844 -23.437746047973633 73.161628723144531
v 8.7251548767089844 -23.437746047973633 76.821731567382812
v 8.7251548767089844 -23.437746047973633 80.481842041015625
v 8.7251548767089844 -23.437746047973633 84.141944885253906
v 8.7251548767089844 -23.437746047973633 87.802047729492188
v 8.7251548767089844 -42.522392272949219 80.481842041015625
v 8.7251548767089844 -32.980068206787109 80.481842041015625
v 8.7251548767089844 -42.522392272949219 74.991683959960938
v 8.7251548767089844 -32.980068206787109 74.991683959960938
v 8.7251548767089844 -42.522392272949219 85.972000122070312
v 8.7251548767089844 -32.980068206787109 85.972000122070312
v 8.7251548767089844 -61.607036590576172 69.50152587890625
v 8.7251548767089844 -57.366004943847656 69.50152587890625
v 8.7251548767089844 -53.124973297119141 69.50152587890625
v 8.7251548767089844 -48.883937835693359 69.50152587890625
v 8.7251548767089844 -44.642906188964844 69.50152587890625
v 8.7251548767089844 -40.401874542236328 69.50152587890625
v 8.7251548767089844 -36.160842895507812 69.50152587890625
v 8.7251548767089844 -31.919809341430664 69.50152587890625
v 8.7251548767089844 -27.678777694702148 69.50152587890625
v 8.7251548767089844 -52.064712524414062 80.481842041015625
v 8.7251548767089844 -52.064712524414062 74.991683959960938
v 8.7251548767089844 -61.607036590576172 87.802047729492188
v 8.7251548767089844 -61.607036590576172 84.141944885253906
v 8.7251548767089844 -61.607036590576172 80.481842041015625
v 8.7251548767089844 -61.607036590576172 76.821731567382812
v 8.7251548767089844 -61.607036590576172 73.161628723144531
v 8.7251548767089844 -52.064712524414062 85.972000122070312
v 8.7251548767089844 -23.437746047973633 91.462150573730469
v 8.7251548767089844 -27.678777694702148 91.462150573730469
v 8.7251548767089844 -31.919809341430664 91.462150573730469
v 8.7251548767089844 -36.160842895507812 91.462150573730469
v 8.7251548767089844 -40.401874542236328 91.462150573730469
v 8.7251548767089844 -44.642906188964844 91.462150573730469
v 8.7251548767089844 -48.883937835693359 91.462150573730469
v 8.7251548767089844 -53.124973297119141 91.462150573730469
v 8.7251548767089844 -57.366004943847656 91.462150573730469
v 9.8472023010253906 -23.437746047973633 91.462150573730469
v 9.8472023010253906 -23.437746047973633 69.50152587890625
v 9.8472023010253906 -23.437746047973633 73.161628723144531
v 9.8472023010253906 -23.437746047973633 76.821731567382812
v 9.8472023010253906 -23.437746047973633 80.481842041015625
v 9.8472023010253906 -23.437746047973633 84.141944885253906
v 9.8472023010253906 -23.437746047973633 87.802047729492188
v 9.8472023010253906 -42.522392272949219 80.481842041015625
v 9.8472023010253906 -32.980068206787109 80.481842041015625
v 9.8472023010253906 -42.522392272949219 74.991683959960938
v 9.8472023010253906 -32.980068206787109 74.991683959960938
v 9.8472023010253906 -42.522392272949219 85.972000122070312
v 9.8472023010253906 -32.980068206787109 85.972000122070312
v 9.8472023010253906 -27.678777694702148 91.462150573730469
v 9.8472023010253906 -31.919809341430664 91.462150573730469
v 9.8472023010253906 -36.160842895507812 91.462150573730469
v 9.8472023010253906 -40.401874542236328 91.462150573730469
v 9.8472023010253906 -44.642906188964844 91.462150573730469
v 9.8472023010253906 -48.883937835693359 91.462150573730469
v 9.8472023010253906 -53.124973297119141 91.462150573730469
v 9.8472023010253906 -57.366004943847656 91.462150573730469
v 9.8472023010253906 -52.064712524414062 80.481842041015625
v 9.8472023010253906 -52.064712524414062 85.972000122070312
v 9.8472023010253906 -61.607036590576172 91.462150573730469
v 9.8472023010253906 -61.607036590576172 87.802047729492188
v 9.8472023010253906 -61.607036590576172 84.141944885253906
v 9.8472023010253906 -61.607036590576172 80.481842041015625
v 9.8472023010253906 -61.607036590576172 76.821731567382812
v 9.8472023010253906 -61.607036590576172 73.161628723144531
v 9.8472023010253906 -52.064712524414062 74.991683959960938
v 9.8472023010253906 -61.607036590576172 69.50152587890625
v 9.8472023010253906 -57.366004943847656 69.50152587890625
v 9.8472023010253906 -53.124973297119141 69.50152587890625
v 9.8472023010253906 -48.883937835693359 69.50152587890625
v 9.8472023010253906 -44.642906188964844 69.50152587890625
v 9.8472023010253906 -40.401874542236328 69.50152587890625
v 9.8472023010253906 -36.160842895507812 69.50152587890625
v 9.8472023010253906 -31.919809341430664 69.50152587890625
v 9.8472023010253906 -27.678777694702148 69.50152587890625
v 8.7251548767089844 -23.437746047973633 69.50152587890625
v 8.7251548767089844 -61.607036590576172 69.50152587890625
v 8.7251548767089844 -57.366004943847656 69.50152587890625
v 8.7251548767089844 -53.124973297119141 69.50152587890625
v 8.7251548767089844 -48.883937835693359 69.50152587890625
v 8.7251548767089844 -44.642906188964844 69.50152587890625
v 8.7251548767089844 -40.401874542236328 69.50152587890625
v 8.7251548767089844 -36.160842895507812 69.50152587890625
v 8.7251548767089844 -31.919809341430664 69.50152587890625
v 8.7251548767089844 -27.678777694702148 69.50152587890625
v 9.8472023010253906 -23.437746047973633 69.50152587890625
v 9.8472023010253906 -27.678777694702148 69.50152587890625
v 9.8472023010253906 -31.919809341430664 69.50152587890625
v 9.8472023010253906 -36.160842895507812 69.50152587890625
v 9.8472023010253906 -40.401874542236328 69.50152587890625
v 9.8472023010253906 -44.642906188964844 69.50152587890625
v 9.8472023010253906 -48.883937835693359 69.50152587890625
v 9.8472023010253906 -53.124973297119141 69.50152587890625
v 9.8472023010253906 -57.366004943847656 69.50152587890625
v 9.8472023010253906 -61.607036590576172 69.50152587890625
v 8.7251548767089844 -61.607036590576172 91.462150573730469
v 9.8472023010253906 -61.607036590576172 69.50152587890625
v 8.7251548767089844 -61.607036590576172 87.802047729492188
v 8.7251548767089844 -61.607036590576172 84.141944885253906
v 8.7251548767089844 -61.607036590576172 80.481842041015625
v 8.7251548767089844 -61.607036590576172 76.821731567382812
v 8.7251548767089844 -61.607036590576172 73.161628723144531
v 9.8472023010253906 -61.607036590576172 73.161628723144531
v 9.8472023010253906 -61.607036590576172 76.821731567382812
v 9.8472023010253906 -61.607036590576172 80.481842041015625
v 9.8472023010253906 -61.607036590576172 84.141944885253906
v 9.8472023010253906 -61.607036590576172 87.802047729492188
v 8.7251548767089844 -61.607036590576172 69.50152587890625
v 9.8472023010253906 -61.607036590576172 91.462150573730469
v 9.8472023010253906 -61.607036590576172 91.462150573730469
v 8.7251548767089844 -23.437746047973633 91.462150573730469
v 8.7251548767089844 -27.678777694702148 91.462150573730469
v 8.7251548767089844 -31.919809341430664 91.462150573730469
v 8.7251548767089844 -36.160842895507812 91.462150573730469
v 8.7251548767089844 -40.401874542236328 91.462150573730469
v 8.7251548767089844 -44.642906188964844 91.462150573730469
v 8.7251548767089844 -48.883937835693359 91.462150573730469
v 8.7251548767089844 -53.124973297119141 91.462150573730469
v 8.7251548767089844 -57.366004943847656 91.462150573730469
v 9.8472023010253906 -57.366004943847656 91.462150573730469
v 9.8472023010253906 -53.124973297119141 91.462150573730469
v 9.8472023010253906 -48.883937835693359 91.462150573730469
v 9.8472023010253906 -44.642906188964844 91.462150573730469
v 9.8472023010253906 -40.401874542236328 91.462150573730469
v 9.8472023010253906 -36.160842895507812 91.462150573730469
v 9.8472023010253906 -31.919809341430664 91.462150573730469
v 9.8472023010253906 -27.678777694702148 91.462150573730469
v 8.7251548767089844 -61.607036590576172 91.462150573730469
v 9.8472023010253906 -23.437746047973633 91.462150573730469
v 8.7251548767089844 -23.437746047973633 69.50152587890625
v 8.7251548767089844 -23.437746047973633 73.161628723144531
v 8.7251548767089844 -23.437746047973633 76.821731567382812
v 8.7251548767089844 -23.437746047973633 80.481842041015625
v 8.7251548767089844 -23.437746047973633 84.141944885253906
v 8.7251548767089844 -23.437746047973633 87.802047729492188
v 9.8472023010253906 -23.437746047973633 91.462150573730469
v 9.8472023010253906 -23.437746047973633 87.802047729492188
v 9.8472023010253906 -23.437746047973633 84.141944885253906
v 9.8472023010253906 -23.437746047973633 80.481842041015625
v 9.8472023010253906 -23.437746047973633 76.821731567382812
v 9.8472023010253906 -23.437746047973633 73.161628723144531
v 9.8472023010253906 -23.437746047973633 69.50152587890625
v 8.7251548767089844 -23.437746047973633 91.462150573730469
vt 0.10218716412782669 0.49853515625
vt 0.9697614312171936 0
vt 0.9697614312171936 0.083089195191860199
vt 0.9697614312171936 0.1661783903837204
vt 0.9697614312171936 0.249267578125
vt 0.9697614312171936 0.3323567807674408
vt 0.9697614312171936 0.4154459536075592
vt 0.53597426414489746 0.249267578125
vt 0.75286781787872314 0.249267578125
vt 0.53597426414489746 0.1246337890625
vt 0.75286781787872314 0.1246337890625
vt 0.53597426414489746 0.3739013671875
vt 0.75286781787872314 0.3739013671875
vt 0.10218716412782669 0
vt 0.19858430325984955 0
vt 0.294981449842453 0
vt 0.39137858152389526 0
vt 0.48777571320533752 0
vt 0.58417290449142456 0
vt 0.68057000637054443 0
vt 0.77696716785430908 0
vt 0.87336426973342896 0
vt 0.31908071041107178 0.249267578125
vt 0.31908071041107178 0.1246337890625
vt 0.10218716412782669 0.4154459536075592
vt 0.10218716412782669 0.3323567807674408
vt 0.10218716412782669 0.249267578125
vt 0.10218716412782669 0.1661783903837204
vt 0.10218716412782669 0.083089195191860199
vt 0.31908071041107178 0.3739013671875
vt 0.9697614312171936 0.49853515625
vt 0.87336426973342896 0.49853515625
vt 0.77696716785430908 0.49853515625
vt 0.68057000637054443 0.49853515625
vt 0.58417290449142456 0.49853515625
vt 0.48777571320533752 0.49853515625
vt 0.39137858152389526 0.49853515625
vt 0.294981449842453 0.49853515625
vt 0.19858430325984955 0.49853515625
vt 0.9697614312171936 0.99853515625
vt 0.9697614312171936 0.5
vt 0.9697614312171936 0.58308917284011841
vt 0.9697614312171936 0.66617840528488159
vt 0.9697614312171936 0.749267578125
vt 0.9697614312171936 0.83235675096511841
vt 0.9697614312171936 0.91544598340988159
vt 0.53597426414489746 0.749267578125
vt 0.75286781787872314 0.749267578125
vt 0.53597426414489746 0.6246337890625
vt 0.75286781787872314 0.6246337890625
vt 0.53597426414489746 0.8739013671875
vt 0.75286781787872314 0.8739013671875
vt 0.87336426973342896 0.99853515625
vt 0.77696716785430908 0.99853515625
vt 0.68057000637054443 0.99853515625
vt 0.58417290449142456 0.99853515625
vt 0.48777571320533752 0.99853515625
vt 0.39137858152389526 0.99853515625
vt 0.294981449842453 0.99853515625
vt 0.19858430325984955 0.99853515625
vt 0.31908071041107178 0.749267578125
vt 0.31908071041107178 0.8739013671875
vt 0.10218716412782669 0.99853515625
vt 0.10218716412782669 0.91544598340988159
vt 0.10218716412782669 0.83235675096511841
vt 0.10218716412782669 0.749267578125
vt 0.10218716412782669 0.66617840528488159
vt 0.10218716412782669 0.58308917284011841
vt 0.31908071041107178 0.6246337890625
vt 0.10218716412782669 0.5
vt 0.19858430325984955 0.5
vt 0.294981449842453 0.5
vt 0.39137858152389526 0.5
vt 0.48777571320533752 0.5
vt 0.58417290449142456 0.5
vt 0.68057000637054443 0.5
vt 0.77696716785430908 0.5
vt 0.87336426973342896 0.5
vt 0.075175531208515167 0.86903905868530273
vt 0.075175531208515167 0
vt 0.075175531208515167 0.096559897065162659
vt 0.075175531208515167 0.19311979413032532
vt 0.075175531208515167 0.28967970609664917
vt 0.075175531208515167 0.38623958826065063
vt 0.075175531208515167 0.48279950022697449
vt 0.075175531208515167 0.57935941219329834
vt 0.075175531208515167 0.6759192943572998
vt 0.075175531208515167 0.77247917652130127
vt 0.051093582063913345 0.86903905868530273
vt 0.051093582063913345 0.77247917652130127
vt 0.051093582063913345 0.6759192943572998
vt 0.051093582063913345 0.57935941219329834
vt 0.051093582063913345 0.48279950022697449
vt 0.051093582063913345 0.38623958826065063
vt 0.051093582063913345 0.28967970609664917
vt 0.051093582063913345 0.19311979413032532
vt 0.051093582063913345 0.096559897065162659
vt 0.051093582063913345 0
vt 0.049628738313913345 0
vt 0.025546791031956673 0.5
vt 0.049628738313913345 0.083333335816860199
vt 0.049628738313913345 0.1666666716337204
vt 0.049628738313913345 0.25
vt 0.049628738313913345 0.3333333432674408
vt 0.049628738313913345 0.4166666567325592
vt 0.025546791031956673 0.4166666567325592
vt 0.025546791031956673 0.3333333432674408
vt 0.025546791031956673 0.25
vt 0.025546791031956673 0.1666666716337204
vt 0.025546791031956673 0.083333335816860199
vt 0.049628738313913345 0.5
vt 0.025546791031956673 0
vt 0.076640374958515167 0.86903905868530273
vt 0.10072232037782669 0
vt 0.10072232037782669 0.096559897065162659
vt 0.10072232037782669 0.19311979413032532
vt 0.10072232037782669 0.28967970609664917
vt 0.10072232037782669 0.38623958826065063
vt 0.10072232037782669 0.48279950022697449
vt 0.10072232037782669 0.57935941219329834
vt 0.10072232037782669 0.6759192943572998
vt 0.10072232037782669 0.77247917652130127
vt 0.076640374958515167 0.77247917652130127
vt 0.076640374958515167 0.6759192943572998
vt 0.076640374958515167 0.57935941219329834
vt 0.076640374958515167 0.48279950022697449
vt 0.076640374958515167 0.38623958826065063
vt 0.076640374958515167 0.28967970609664917
vt 0.076640374958515167 0.19311979413032532
vt 0.076640374958515167 0.096559897065162659
vt 0.10072232037782669 0.86903905868530273
vt 0.076640374958515167 0
vt 0.024081947281956673 0
vt 0.024081947281956673 0.083333335816860199
vt 0.024081947281956673 0.1666666716337204
vt 0.024081947281956673 0.25
vt 0.024081947281956673 0.3333333432674408
vt 0.024081947281956673 0.4166666567325592
vt 0 0.5
vt 0 0.4166666567325592
vt 0 0.3333333432674408
vt 0 0.25
vt 0 0.1666666716337204
vt 0 0.083333335816860199
vt 0 0
vt 0.024081947281956673 0.5
vn -1 0 0
vn -1 0 0
vn -1 0 0
vn -1 0 0
vn -1 0 0
vn -1 0 0
vn -1 0 0
vn -1 0 0
vn -1 0 0
vn -1 0 0
vn -1 0 0
vn -1 0 0
vn -1 0 0
vn -1 0 0
vn -1 0 0
vn -1 0 0
vn -1 0 0
vn -1 0 0
vn -1 0 0
vn -1 0 0
vn -1 0 0
vn -1 0 0
vn -1 0 0
vn -1 0 0
vn -1 0 0
vn -1 0 0
vn -1 0 0
vn -1 0 0
vn -1 0 0
vn -1 0 0
vn -1 0 0
vn -1 0 0
vn -1 0 0
vn -1 0 0
vn -1 0 0
vn -1 0 0
vn -1 0 0
vn -1 0 0
vn -1 0 0
vn 1 0 0
vn 1 0 0
vn 1 0 0
vn 1 0 0
vn 1 0 0
vn 1 0 0
vn 1 0 0
vn 1 0 0
vn 1 0 0
vn 1 0 0
vn 1 0 0
vn 1 0 0
vn 1 0 0
vn 1 0 0
vn 1 0 0
vn 1 0 0
vn 1 0 0
vn 1 0 0
vn 1 0 0
vn 1 0 0
vn 1 0 0
vn 1 0 0
vn 1 0 0
vn 1 0 0
vn 1 0 0
vn 1 0 0
vn 1 0 0
vn 1 0 0
vn 1 0 0
vn 1 0 0
vn 1 0 0
vn 1 0 0
vn 1 0 0
vn 1 0 0
vn 1 0 0
vn 1 0 0
vn 1 0 0
vn 1 0 0
vn 1 0 0
vn 0 0 -1
vn 0 0 -1
vn 0 0 -1
vn 0 0 -1
vn 0 0 -1
vn 0 0 -1
vn 0 0 -1
vn 0 0 -1
vn 0 0 -1
vn 0 0 -1
vn 0 0 -1
vn 0 0 -1
vn 0 0 -1
vn 0 0 -1
vn 0 0 -1
vn 0 0 -1
vn 0 0 -1
vn 0 0 -1
vn 0 0 -1
vn 0 0 -1
vn 0 -1 0
vn 0 -1 0
vn 0 -1 0
vn 0 -1 0
vn 0 -1 0
vn 0 -1 0
vn 0 -1 0
vn 0 -1 0
vn 0 -1 0
vn 0 -1 0
vn 0 -1 0
vn 0 -1 0
vn 0 -1 0
vn 0 -1 0
vn 0 0 1
vn 0 0 1
vn 0 0 1
vn 0 0 1
vn 0 0 1
vn 0 0 1
vn 0 0 1
vn 0 0 1
vn 0 0 1
vn 0 0 1
vn 0 0 1
vn 0 0 1
vn 0 0 1
vn 0 0 1
vn 0 0 1
vn 0 0 1
vn 0 0 1
vn 0 0 1
vn 0 0 1
vn 0 0 1
vn 0 1 0
vn 0 1 0
vn 0 1 0
vn 0 1 0
vn 0 1 0
vn 0 1 0
vn 0 1 0
vn 0 1 0
vn 0 1 0
vn 0 1 0
vn 0 1 0
vn 0 1 0
vn 0 1 0
vn 0 1 0
f 13/13/13 9/9/9 8/8/8 12/12/12
f 12/12/12 8/8/8 23/23/23 30/30/30
f 8/8/8 10/10/10 24/24/24 23/23/23
f 9/9/9 11/11/11 10/10/10 8/8/8
f 29/29/29 15/15/15 14/14/14
f 29/29/29 28/28/28 24/24/24
f 24/24/24 15/15/15 29/29/29
f 24/24/24 17/17/17 16/16/16
f 10/10/10 18/18/18 17/17/17 24/24/24
f 19/19/19 18/18/18 10/10/10
f 24/24/24 28/28/28 27/27/27 23/23/23
f 15/15/15 24/24/24 16/16/16
f 26/26/26 25/25/25 30/30/30
f 1/1/1 39/39/39 25/25/25
f 25/25/25 39/39/39 30/30/30
f 26/26/26 30/30/30 23/23/23 27/27/27
f 39/39/39 38/38/38 30/30/30
f 30/30/30 38/38/38 37/37/37
f 37/37/37 36/36/36 12/12/12
f 12/12/12 30/30/30 37/37/37
f 11/11/11 20/20/20 19/19/19 10/10/10
f 22/22/22 21/21/21 11/11/11
f 20/20/20 11/11/11 21/21/21
f 3/3/3 2/2/2 22/22/22
f 3/3/3 11/11/11 4/4/4
f 9/9/9 5/5/5 4/4/4 11/11/11
f 3/3/3 22/22/22 11/11/11
f 35/35/35 34/34/34 12/12/12
f 13/13/13 12/12/12 34/34/34
f 33/33/33 13/13/13 34/34/34
f 13/13/13 6/6/6 5/5/5 9/9/9
f 36/36/36 35/35/35 12/12/12
f 7/7/7 13/13/13 32/32/32
f 32/32/32 13/13/13 33/33/33
f 7/7/7 32/32/32 31/31/31
f 6/6/6 13/13/13 7/7/7
f 52/52/52 51/51/51 47/47/47 48/48/48
f 51/51/51 62/62/62 61/61/61 47/47/47
f 47/47/47 61/61/61 69/69/69 49/49/49
f 48/48/48 47/47/47 49/49/49 50/50/50
f 68/68/68 70/70/70 71/71/71
f 68/68/68 69/69/69 67/67/67
f 69/69/69 68/68/68 71/71/71
f 69/69/69 72/72/72 73/73/73
f 49/49/49 69/69/69 73/73/73 74/74/74
f 75/75/75 49/49/49 74/74/74
f 69/69/69 61/61/61 66/66/66 67/67/67
f 71/71/71 72/72/72 69/69/69
f 65/65/65 62/62/62 64/64/64
f 63/63/63 64/64/64 60/60/60
f 64/64/64 62/62/62 60/60/60
f 61/61/61 65/65/65 66/66/66
f 60/60/60 62/62/62 59/59/59
f 62/62/62 58/58/58 59/59/59
f 58/58/58 51/51/51 57/57/57
f 51/51/51 58/58/58 62/62/62
f 61/61/61 62/62/62 65/65/65
f 50/50/50 49/49/49 75/75/75 76/76/76
f 48/48/48 50/50/50 43/43/43 44/44/44
f 50/50/50 76/76/76 77/77/77
f 50/50/50 78/78/78 42/42/42
f 78/78/78 41/41/41 42/42/42
f 42/42/42 43/43/43 50/50/50
f 78/78/78 50/50/50 77/77/77
f 51/51/51 52/52/52 55/55/55 56/56/56
f 52/52/52 54/54/54 55/55/55
f 54/54/54 52/52/52 53/53/53
f 57/57/57 51/51/51 56/56/56
f 45/45/45 46/46/46 52/52/52
f 40/40/40 53/53/53 46/46/46
f 46/46/46 53/53/53 52/52/52
f 52/52/52 48/48/48 44/44/44 45/45/45
f 80/80/80 81/81/81 97/97/97 98/98/98
f 82/82/82 83/83/83 95/95/95 96/96/96
f 83/83/83 84/84/84 94/94/94 95/95/95
f 81/81/81 82/82/82 96/96/96 97/97/97
f 93/93/93 94/94/94 84/84/84 85/85/85
f 85/85/85 86/86/86 92/92/92 93/93/93
f 88/88/88 90/90/90 91/91/91 87/87/87
f 79/79/79 89/89/89 90/90/90 88/88/88
f 86/86/86 87/87/87 91/91/91 92/92/92
f 99/99/99 101/101/101 110/110/110 112/112/112
f 101/101/101 102/102/102 109/109/109 110/110/110
f 108/108/108 109/109/109 102/102/102 103/103/103
f 104/104/104 105/105/105 106/106/106 107/107/107
f 105/105/105 111/111/111 100/100/100 106/106/106
f 107/107/107 108/108/108 103/103/103 104/104/104
f 114/114/114 115/115/115 130/130/130 132/132/132
f 116/116/116 117/117/117 128/128/128 129/129/129
f 117/117/117 118/118/118 127/127/127 128/128/128
f 115/115/115 116/116/116 129/129/129 130/130/130
f 126/126/126 127/127/127 118/118/118 119/119/119
f 119/119/119 120/120/120 125/125/125 126/126/126
f 122/122/122 123/123/123 124/124/124 121/121/121
f 131/131/131 113/113/113 123/123/123 122/122/122
f 120/120/120 121/121/121 124/124/124 125/125/125
f 133/133/133 134/134/134 144/144/144 145/145/145
f 134/134/134 135/135/135 143/143/143 144/144/144
f 142/142/142 143/143/143 135/135/135 136/136/136
f 137/137/137 138/138/138 140/140/140 141/141/141
f 138/138/138 146/146/146 139/139/139 140/140/140
f 141/141/141 142/142/142 136/136/136 137/137/137
